<svg xmlns="http://www.w3.org/2000/svg" xmlns:xlink="http://www.w3.org/1999/xlink" contentStyleType="text/css" data-diagram-type="CLASS" height="322px" preserveAspectRatio="none" style="width:6197px;height:322px;background:#FFFFFF;" version="1.1" viewBox="0 0 6197 322" width="6197px" zoomAndPan="magnify"><defs/><g><!--entity Feature_User--><g id="elem_Feature_User"><ellipse cx="3046.1685" cy="14" fill="#F1F1F1" rx="8" ry="8" style="stroke:#181818;stroke-width:0.5;"/><path d="M3046.1685,22 L3046.1685,49 M3033.1685,30 L3059.1685,30 M3046.1685,49 L3033.1685,64 M3046.1685,49 L3059.1685,64 " fill="transparent" style="stroke:#181818;stroke-width:0.5;"/><text fill="#000000" font-family="sans-serif" font-size="14" lengthAdjust="spacing" textLength="90.3369" x="3001" y="78.4951">Feature User</text></g><!--class comp_arc_sta__baselibs__concurrency--><g id="elem_comp_arc_sta__baselibs__concurrency"><rect fill="#F1F1F1" height="40" id="comp_arc_sta__baselibs__concurrency" rx="2.5" ry="2.5" style="stroke:#181818;stroke-width:0.5;" width="300.2012" x="978" y="275.5"/><ellipse cx="993" cy="291.5" fill="#ADD1B2" rx="11" ry="11" style="stroke:#181818;stroke-width:1;"/><path d="M995.9688,297.1406 Q995.3906,297.4375 994.75,297.5781 Q994.1094,297.7344 993.4063,297.7344 Q990.9063,297.7344 989.5781,296.0938 Q988.2656,294.4375 988.2656,291.3125 Q988.2656,288.1875 989.5781,286.5313 Q990.9063,284.875 993.4063,284.875 Q994.1094,284.875 994.75,285.0313 Q995.4063,285.1875 995.9688,285.4844 L995.9688,288.2031 Q995.3438,287.625 994.75,287.3594 Q994.1563,287.0781 993.5313,287.0781 Q992.1875,287.0781 991.5,288.1563 Q990.8125,289.2188 990.8125,291.3125 Q990.8125,293.4063 991.5,294.4844 Q992.1875,295.5469 993.5313,295.5469 Q994.1563,295.5469 994.75,295.2813 Q995.3438,295 995.9688,294.4219 L995.9688,297.1406 Z " fill="#000000"/><text fill="#000000" font-family="sans-serif" font-size="14" lengthAdjust="spacing" textLength="268.2012" x="1007" y="296.3467">comp_arc_sta__baselibs__concurrency</text><line style="stroke:#181818;stroke-width:0.5;" x1="979" x2="1277.2012" y1="307.5" y2="307.5"/></g><!--class logic_arc_int__baselibs__future--><g id="elem_logic_arc_int__baselibs__future"><rect fill="#F1F1F1" height="40" id="logic_arc_int__baselibs__future" rx="2.5" ry="2.5" style="stroke:#181818;stroke-width:0.5;" width="247.0791" x="2278.5" y="158.5"/><ellipse cx="2293.5" cy="174.5" fill="#ADD1B2" rx="11" ry="11" style="stroke:#181818;stroke-width:1;"/><path d="M2296.4688,180.1406 Q2295.8906,180.4375 2295.25,180.5781 Q2294.6094,180.7344 2293.9063,180.7344 Q2291.4063,180.7344 2290.0781,179.0938 Q2288.7656,177.4375 2288.7656,174.3125 Q2288.7656,171.1875 2290.0781,169.5313 Q2291.4063,167.875 2293.9063,167.875 Q2294.6094,167.875 2295.25,168.0313 Q2295.9063,168.1875 2296.4688,168.4844 L2296.4688,171.2031 Q2295.8438,170.625 2295.25,170.3594 Q2294.6563,170.0781 2294.0313,170.0781 Q2292.6875,170.0781 2292,171.1563 Q2291.3125,172.2188 2291.3125,174.3125 Q2291.3125,176.4063 2292,177.4844 Q2292.6875,178.5469 2294.0313,178.5469 Q2294.6563,178.5469 2295.25,178.2813 Q2295.8438,178 2296.4688,177.4219 L2296.4688,180.1406 Z " fill="#000000"/><text fill="#000000" font-family="sans-serif" font-size="14" lengthAdjust="spacing" textLength="215.0791" x="2307.5" y="179.3467">logic_arc_int__baselibs__future</text><line style="stroke:#181818;stroke-width:0.5;" x1="2279.5" x2="2524.5791" y1="190.5" y2="190.5"/></g><!--class logic_arc_int__baselibs__dynamic_array--><g id="elem_logic_arc_int__baselibs__dynamic_array"><rect fill="#F1F1F1" height="40" id="logic_arc_int__baselibs__dynamic_array" rx="2.5" ry="2.5" style="stroke:#181818;stroke-width:0.5;" width="308.3496" x="4842" y="158.5"/><ellipse cx="4857" cy="174.5" fill="#ADD1B2" rx="11" ry="11" style="stroke:#181818;stroke-width:1;"/><path d="M4859.9688,180.1406 Q4859.3906,180.4375 4858.75,180.5781 Q4858.1094,180.7344 4857.4063,180.7344 Q4854.9063,180.7344 4853.5781,179.0938 Q4852.2656,177.4375 4852.2656,174.3125 Q4852.2656,171.1875 4853.5781,169.5313 Q4854.9063,167.875 4857.4063,167.875 Q4858.1094,167.875 4858.75,168.0313 Q4859.4063,168.1875 4859.9688,168.4844 L4859.9688,171.2031 Q4859.3438,170.625 4858.75,170.3594 Q4858.1563,170.0781 4857.5313,170.0781 Q4856.1875,170.0781 4855.5,171.1563 Q4854.8125,172.2188 4854.8125,174.3125 Q4854.8125,176.4063 4855.5,177.4844 Q4856.1875,178.5469 4857.5313,178.5469 Q4858.1563,178.5469 4858.75,178.2813 Q4859.3438,178 4859.9688,177.4219 L4859.9688,180.1406 Z " fill="#000000"/><text fill="#000000" font-family="sans-serif" font-size="14" lengthAdjust="spacing" textLength="276.3496" x="4871" y="179.3467">logic_arc_int__baselibs__dynamic_array</text><line style="stroke:#181818;stroke-width:0.5;" x1="4843" x2="5149.3496" y1="190.5" y2="190.5"/></g><!--class comp_arc_sta__baselibs__memory_shared--><g id="elem_comp_arc_sta__baselibs__memory_shared"><rect fill="#F1F1F1" height="40" id="comp_arc_sta__baselibs__memory_shared" rx="2.5" ry="2.5" style="stroke:#181818;stroke-width:0.5;" width="327.0117" x="5863.5" y="275.5"/><ellipse cx="5878.5" cy="291.5" fill="#ADD1B2" rx="11" ry="11" style="stroke:#181818;stroke-width:1;"/><path d="M5881.4688,297.1406 Q5880.8906,297.4375 5880.25,297.5781 Q5879.6094,297.7344 5878.9063,297.7344 Q5876.4063,297.7344 5875.0781,296.0938 Q5873.7656,294.4375 5873.7656,291.3125 Q5873.7656,288.1875 5875.0781,286.5313 Q5876.4063,284.875 5878.9063,284.875 Q5879.6094,284.875 5880.25,285.0313 Q5880.9063,285.1875 5881.4688,285.4844 L5881.4688,288.2031 Q5880.8438,287.625 5880.25,287.3594 Q5879.6563,287.0781 5879.0313,287.0781 Q5877.6875,287.0781 5877,288.1563 Q5876.3125,289.2188 5876.3125,291.3125 Q5876.3125,293.4063 5877,294.4844 Q5877.6875,295.5469 5879.0313,295.5469 Q5879.6563,295.5469 5880.25,295.2813 Q5880.8438,295 5881.4688,294.4219 L5881.4688,297.1406 Z " fill="#000000"/><text fill="#000000" font-family="sans-serif" font-size="14" lengthAdjust="spacing" textLength="295.0117" x="5892.5" y="296.3467">comp_arc_sta__baselibs__memory_shared</text><line style="stroke:#181818;stroke-width:0.5;" x1="5864.5" x2="6189.5117" y1="307.5" y2="307.5"/></g><!--class logic_arc_int__baselibs__memory_shared--><g id="elem_logic_arc_int__baselibs__memory_shared"><rect fill="#F1F1F1" height="40" id="logic_arc_int__baselibs__memory_shared" rx="2.5" ry="2.5" style="stroke:#181818;stroke-width:0.5;" width="318.043" x="5864" y="158.5"/><ellipse cx="5879" cy="174.5" fill="#ADD1B2" rx="11" ry="11" style="stroke:#181818;stroke-width:1;"/><path d="M5881.9688,180.1406 Q5881.3906,180.4375 5880.75,180.5781 Q5880.1094,180.7344 5879.4063,180.7344 Q5876.9063,180.7344 5875.5781,179.0938 Q5874.2656,177.4375 5874.2656,174.3125 Q5874.2656,171.1875 5875.5781,169.5313 Q5876.9063,167.875 5879.4063,167.875 Q5880.1094,167.875 5880.75,168.0313 Q5881.4063,168.1875 5881.9688,168.4844 L5881.9688,171.2031 Q5881.3438,170.625 5880.75,170.3594 Q5880.1563,170.0781 5879.5313,170.0781 Q5878.1875,170.0781 5877.5,171.1563 Q5876.8125,172.2188 5876.8125,174.3125 Q5876.8125,176.4063 5877.5,177.4844 Q5878.1875,178.5469 5879.5313,178.5469 Q5880.1563,178.5469 5880.75,178.2813 Q5881.3438,178 5881.9688,177.4219 L5881.9688,180.1406 Z " fill="#000000"/><text fill="#000000" font-family="sans-serif" font-size="14" lengthAdjust="spacing" textLength="286.043" x="5893" y="179.3467">logic_arc_int__baselibs__memory_shared</text><line style="stroke:#181818;stroke-width:0.5;" x1="5865" x2="6181.043" y1="190.5" y2="190.5"/></g><!--class logic_arc_int__baselibs__condition_variable--><g id="elem_logic_arc_int__baselibs__condition_variable"><rect fill="#F1F1F1" height="40" id="logic_arc_int__baselibs__condition_variable" rx="2.5" ry="2.5" style="stroke:#181818;stroke-width:0.5;" width="332.7539" x="1210.5" y="158.5"/><ellipse cx="1225.5" cy="174.5" fill="#ADD1B2" rx="11" ry="11" style="stroke:#181818;stroke-width:1;"/><path d="M1228.4688,180.1406 Q1227.8906,180.4375 1227.25,180.5781 Q1226.6094,180.7344 1225.9063,180.7344 Q1223.4063,180.7344 1222.0781,179.0938 Q1220.7656,177.4375 1220.7656,174.3125 Q1220.7656,171.1875 1222.0781,169.5313 Q1223.4063,167.875 1225.9063,167.875 Q1226.6094,167.875 1227.25,168.0313 Q1227.9063,168.1875 1228.4688,168.4844 L1228.4688,171.2031 Q1227.8438,170.625 1227.25,170.3594 Q1226.6563,170.0781 1226.0313,170.0781 Q1224.6875,170.0781 1224,171.1563 Q1223.3125,172.2188 1223.3125,174.3125 Q1223.3125,176.4063 1224,177.4844 Q1224.6875,178.5469 1226.0313,178.5469 Q1226.6563,178.5469 1227.25,178.2813 Q1227.8438,178 1228.4688,177.4219 L1228.4688,180.1406 Z " fill="#000000"/><text fill="#000000" font-family="sans-serif" font-size="14" lengthAdjust="spacing" textLength="300.7539" x="1239.5" y="179.3467">logic_arc_int__baselibs__condition_variable</text><line style="stroke:#181818;stroke-width:0.5;" x1="1211.5" x2="1542.2539" y1="190.5" y2="190.5"/></g><!--class logic_arc_int__baselibs__task_result--><g id="elem_logic_arc_int__baselibs__task_result"><rect fill="#F1F1F1" height="40" id="logic_arc_int__baselibs__task_result" rx="2.5" ry="2.5" style="stroke:#181818;stroke-width:0.5;" width="280.9307" x="1962.5" y="158.5"/><ellipse cx="1977.5" cy="174.5" fill="#ADD1B2" rx="11" ry="11" style="stroke:#181818;stroke-width:1;"/><path d="M1980.4688,180.1406 Q1979.8906,180.4375 1979.25,180.5781 Q1978.6094,180.7344 1977.9063,180.7344 Q1975.4063,180.7344 1974.0781,179.0938 Q1972.7656,177.4375 1972.7656,174.3125 Q1972.7656,171.1875 1974.0781,169.5313 Q1975.4063,167.875 1977.9063,167.875 Q1978.6094,167.875 1979.25,168.0313 Q1979.9063,168.1875 1980.4688,168.4844 L1980.4688,171.2031 Q1979.8438,170.625 1979.25,170.3594 Q1978.6563,170.0781 1978.0313,170.0781 Q1976.6875,170.0781 1976,171.1563 Q1975.3125,172.2188 1975.3125,174.3125 Q1975.3125,176.4063 1976,177.4844 Q1976.6875,178.5469 1978.0313,178.5469 Q1978.6563,178.5469 1979.25,178.2813 Q1979.8438,178 1980.4688,177.4219 L1980.4688,180.1406 Z " fill="#000000"/><text fill="#000000" font-family="sans-serif" font-size="14" lengthAdjust="spacing" textLength="248.9307" x="1991.5" y="179.3467">logic_arc_int__baselibs__task_result</text><line style="stroke:#181818;stroke-width:0.5;" x1="1963.5" x2="2242.4307" y1="190.5" y2="190.5"/></g><!--class logic_arc_int__baselibs__promise--><g id="elem_logic_arc_int__baselibs__promise"><rect fill="#F1F1F1" height="40" id="logic_arc_int__baselibs__promise" rx="2.5" ry="2.5" style="stroke:#181818;stroke-width:0.5;" width="261.1885" x="914.5" y="158.5"/><ellipse cx="929.5" cy="174.5" fill="#ADD1B2" rx="11" ry="11" style="stroke:#181818;stroke-width:1;"/><path d="M932.4688,180.1406 Q931.8906,180.4375 931.25,180.5781 Q930.6094,180.7344 929.9063,180.7344 Q927.4063,180.7344 926.0781,179.0938 Q924.7656,177.4375 924.7656,174.3125 Q924.7656,171.1875 926.0781,169.5313 Q927.4063,167.875 929.9063,167.875 Q930.6094,167.875 931.25,168.0313 Q931.9063,168.1875 932.4688,168.4844 L932.4688,171.2031 Q931.8438,170.625 931.25,170.3594 Q930.6563,170.0781 930.0313,170.0781 Q928.6875,170.0781 928,171.1563 Q927.3125,172.2188 927.3125,174.3125 Q927.3125,176.4063 928,177.4844 Q928.6875,178.5469 930.0313,178.5469 Q930.6563,178.5469 931.25,178.2813 Q931.8438,178 932.4688,177.4219 L932.4688,180.1406 Z " fill="#000000"/><text fill="#000000" font-family="sans-serif" font-size="14" lengthAdjust="spacing" textLength="229.1885" x="943.5" y="179.3467">logic_arc_int__baselibs__promise</text><line style="stroke:#181818;stroke-width:0.5;" x1="915.5" x2="1174.6885" y1="190.5" y2="190.5"/></g><!--class logic_arc_int__baselibs__message_passing--><g id="elem_logic_arc_int__baselibs__message_passing"><rect fill="#F1F1F1" height="40" id="logic_arc_int__baselibs__message_passing" rx="2.5" ry="2.5" style="stroke:#181818;stroke-width:0.5;" width="328.167" x="5185" y="158.5"/><ellipse cx="5200" cy="174.5" fill="#ADD1B2" rx="11" ry="11" style="stroke:#181818;stroke-width:1;"/><path d="M5202.9688,180.1406 Q5202.3906,180.4375 5201.75,180.5781 Q5201.1094,180.7344 5200.4063,180.7344 Q5197.9063,180.7344 5196.5781,179.0938 Q5195.2656,177.4375 5195.2656,174.3125 Q5195.2656,171.1875 5196.5781,169.5313 Q5197.9063,167.875 5200.4063,167.875 Q5201.1094,167.875 5201.75,168.0313 Q5202.4063,168.1875 5202.9688,168.4844 L5202.9688,171.2031 Q5202.3438,170.625 5201.75,170.3594 Q5201.1563,170.0781 5200.5313,170.0781 Q5199.1875,170.0781 5198.5,171.1563 Q5197.8125,172.2188 5197.8125,174.3125 Q5197.8125,176.4063 5198.5,177.4844 Q5199.1875,178.5469 5200.5313,178.5469 Q5201.1563,178.5469 5201.75,178.2813 Q5202.3438,178 5202.9688,177.4219 L5202.9688,180.1406 Z " fill="#000000"/><text fill="#000000" font-family="sans-serif" font-size="14" lengthAdjust="spacing" textLength="296.167" x="5214" y="179.3467">logic_arc_int__baselibs__message_passing</text><line style="stroke:#181818;stroke-width:0.5;" x1="5186" x2="5512.167" y1="190.5" y2="190.5"/></g><!--class logic_arc_int__baselibs__utils_scoped_op--><g id="elem_logic_arc_int__baselibs__utils_scoped_op"><rect fill="#F1F1F1" height="40" id="logic_arc_int__baselibs__utils_scoped_op" rx="2.5" ry="2.5" style="stroke:#181818;stroke-width:0.5;" width="315.377" x="2888.5" y="158.5"/><ellipse cx="2903.5" cy="174.5" fill="#ADD1B2" rx="11" ry="11" style="stroke:#181818;stroke-width:1;"/><path d="M2906.4688,180.1406 Q2905.8906,180.4375 2905.25,180.5781 Q2904.6094,180.7344 2903.9063,180.7344 Q2901.4063,180.7344 2900.0781,179.0938 Q2898.7656,177.4375 2898.7656,174.3125 Q2898.7656,171.1875 2900.0781,169.5313 Q2901.4063,167.875 2903.9063,167.875 Q2904.6094,167.875 2905.25,168.0313 Q2905.9063,168.1875 2906.4688,168.4844 L2906.4688,171.2031 Q2905.8438,170.625 2905.25,170.3594 Q2904.6563,170.0781 2904.0313,170.0781 Q2902.6875,170.0781 2902,171.1563 Q2901.3125,172.2188 2901.3125,174.3125 Q2901.3125,176.4063 2902,177.4844 Q2902.6875,178.5469 2904.0313,178.5469 Q2904.6563,178.5469 2905.25,178.2813 Q2905.8438,178 2906.4688,177.4219 L2906.4688,180.1406 Z " fill="#000000"/><text fill="#000000" font-family="sans-serif" font-size="14" lengthAdjust="spacing" textLength="283.377" x="2917.5" y="179.3467">logic_arc_int__baselibs__utils_scoped_op</text><line style="stroke:#181818;stroke-width:0.5;" x1="2889.5" x2="3202.877" y1="190.5" y2="190.5"/></g><!--class comp_arc_sta__baselibs__containers--><g id="elem_comp_arc_sta__baselibs__containers"><rect fill="#F1F1F1" height="40" id="comp_arc_sta__baselibs__containers" rx="2.5" ry="2.5" style="stroke:#181818;stroke-width:0.5;" width="287.1445" x="4683.5" y="275.5"/><ellipse cx="4698.5" cy="291.5" fill="#ADD1B2" rx="11" ry="11" style="stroke:#181818;stroke-width:1;"/><path d="M4701.4688,297.1406 Q4700.8906,297.4375 4700.25,297.5781 Q4699.6094,297.7344 4698.9063,297.7344 Q4696.4063,297.7344 4695.0781,296.0938 Q4693.7656,294.4375 4693.7656,291.3125 Q4693.7656,288.1875 4695.0781,286.5313 Q4696.4063,284.875 4698.9063,284.875 Q4699.6094,284.875 4700.25,285.0313 Q4700.9063,285.1875 4701.4688,285.4844 L4701.4688,288.2031 Q4700.8438,287.625 4700.25,287.3594 Q4699.6563,287.0781 4699.0313,287.0781 Q4697.6875,287.0781 4697,288.1563 Q4696.3125,289.2188 4696.3125,291.3125 Q4696.3125,293.4063 4697,294.4844 Q4697.6875,295.5469 4699.0313,295.5469 Q4699.6563,295.5469 4700.25,295.2813 Q4700.8438,295 4701.4688,294.4219 L4701.4688,297.1406 Z " fill="#000000"/><text fill="#000000" font-family="sans-serif" font-size="14" lengthAdjust="spacing" textLength="255.1445" x="4712.5" y="296.3467">comp_arc_sta__baselibs__containers</text><line style="stroke:#181818;stroke-width:0.5;" x1="4684.5" x2="4969.6445" y1="307.5" y2="307.5"/></g><!--class logic_arc_int__baselibs__intrusive_list--><g id="elem_logic_arc_int__baselibs__intrusive_list"><rect fill="#F1F1F1" height="40" id="logic_arc_int__baselibs__intrusive_list" rx="2.5" ry="2.5" style="stroke:#181818;stroke-width:0.5;" width="293.0713" x="4513.5" y="158.5"/><ellipse cx="4528.5" cy="174.5" fill="#ADD1B2" rx="11" ry="11" style="stroke:#181818;stroke-width:1;"/><path d="M4531.4688,180.1406 Q4530.8906,180.4375 4530.25,180.5781 Q4529.6094,180.7344 4528.9063,180.7344 Q4526.4063,180.7344 4525.0781,179.0938 Q4523.7656,177.4375 4523.7656,174.3125 Q4523.7656,171.1875 4525.0781,169.5313 Q4526.4063,167.875 4528.9063,167.875 Q4529.6094,167.875 4530.25,168.0313 Q4530.9063,168.1875 4531.4688,168.4844 L4531.4688,171.2031 Q4530.8438,170.625 4530.25,170.3594 Q4529.6563,170.0781 4529.0313,170.0781 Q4527.6875,170.0781 4527,171.1563 Q4526.3125,172.2188 4526.3125,174.3125 Q4526.3125,176.4063 4527,177.4844 Q4527.6875,178.5469 4529.0313,178.5469 Q4529.6563,178.5469 4530.25,178.2813 Q4530.8438,178 4531.4688,177.4219 L4531.4688,180.1406 Z " fill="#000000"/><text fill="#000000" font-family="sans-serif" font-size="14" lengthAdjust="spacing" textLength="261.0713" x="4542.5" y="179.3467">logic_arc_int__baselibs__intrusive_list</text><line style="stroke:#181818;stroke-width:0.5;" x1="4514.5" x2="4805.5713" y1="190.5" y2="190.5"/></g><!--class comp_arc_sta__baselibs__filesystem--><g id="elem_comp_arc_sta__baselibs__filesystem"><rect fill="#F1F1F1" height="40" id="comp_arc_sta__baselibs__filesystem" rx="2.5" ry="2.5" style="stroke:#181818;stroke-width:0.5;" width="285.4492" x="5543.5" y="275.5"/><ellipse cx="5558.5" cy="291.5" fill="#ADD1B2" rx="11" ry="11" style="stroke:#181818;stroke-width:1;"/><path d="M5561.4688,297.1406 Q5560.8906,297.4375 5560.25,297.5781 Q5559.6094,297.7344 5558.9063,297.7344 Q5556.4063,297.7344 5555.0781,296.0938 Q5553.7656,294.4375 5553.7656,291.3125 Q5553.7656,288.1875 5555.0781,286.5313 Q5556.4063,284.875 5558.9063,284.875 Q5559.6094,284.875 5560.25,285.0313 Q5560.9063,285.1875 5561.4688,285.4844 L5561.4688,288.2031 Q5560.8438,287.625 5560.25,287.3594 Q5559.6563,287.0781 5559.0313,287.0781 Q5557.6875,287.0781 5557,288.1563 Q5556.3125,289.2188 5556.3125,291.3125 Q5556.3125,293.4063 5557,294.4844 Q5557.6875,295.5469 5559.0313,295.5469 Q5559.6563,295.5469 5560.25,295.2813 Q5560.8438,295 5561.4688,294.4219 L5561.4688,297.1406 Z " fill="#000000"/><text fill="#000000" font-family="sans-serif" font-size="14" lengthAdjust="spacing" textLength="253.4492" x="5572.5" y="296.3467">comp_arc_sta__baselibs__filesystem</text><line style="stroke:#181818;stroke-width:0.5;" x1="5544.5" x2="5827.9492" y1="307.5" y2="307.5"/></g><!--class logic_arc_int__baselibs__filesystem--><g id="elem_logic_arc_int__baselibs__filesystem"><rect fill="#F1F1F1" height="40" id="logic_arc_int__baselibs__filesystem" rx="2.5" ry="2.5" style="stroke:#181818;stroke-width:0.5;" width="276.4805" x="5548" y="158.5"/><ellipse cx="5563" cy="174.5" fill="#ADD1B2" rx="11" ry="11" style="stroke:#181818;stroke-width:1;"/><path d="M5565.9688,180.1406 Q5565.3906,180.4375 5564.75,180.5781 Q5564.1094,180.7344 5563.4063,180.7344 Q5560.9063,180.7344 5559.5781,179.0938 Q5558.2656,177.4375 5558.2656,174.3125 Q5558.2656,171.1875 5559.5781,169.5313 Q5560.9063,167.875 5563.4063,167.875 Q5564.1094,167.875 5564.75,168.0313 Q5565.4063,168.1875 5565.9688,168.4844 L5565.9688,171.2031 Q5565.3438,170.625 5564.75,170.3594 Q5564.1563,170.0781 5563.5313,170.0781 Q5562.1875,170.0781 5561.5,171.1563 Q5560.8125,172.2188 5560.8125,174.3125 Q5560.8125,176.4063 5561.5,177.4844 Q5562.1875,178.5469 5563.5313,178.5469 Q5564.1563,178.5469 5564.75,178.2813 Q5565.3438,178 5565.9688,177.4219 L5565.9688,180.1406 Z " fill="#000000"/><text fill="#000000" font-family="sans-serif" font-size="14" lengthAdjust="spacing" textLength="244.4805" x="5577" y="179.3467">logic_arc_int__baselibs__filesystem</text><line style="stroke:#181818;stroke-width:0.5;" x1="5549" x2="5823.4805" y1="190.5" y2="190.5"/></g><!--class comp_arc_sta__baselibs__message_passing--><g id="elem_comp_arc_sta__baselibs__message_passing"><rect fill="#F1F1F1" height="40" id="comp_arc_sta__baselibs__message_passing" rx="2.5" ry="2.5" style="stroke:#181818;stroke-width:0.5;" width="337.1357" x="5171.5" y="275.5"/><ellipse cx="5186.5" cy="291.5" fill="#ADD1B2" rx="11" ry="11" style="stroke:#181818;stroke-width:1;"/><path d="M5189.4688,297.1406 Q5188.8906,297.4375 5188.25,297.5781 Q5187.6094,297.7344 5186.9063,297.7344 Q5184.4063,297.7344 5183.0781,296.0938 Q5181.7656,294.4375 5181.7656,291.3125 Q5181.7656,288.1875 5183.0781,286.5313 Q5184.4063,284.875 5186.9063,284.875 Q5187.6094,284.875 5188.25,285.0313 Q5188.9063,285.1875 5189.4688,285.4844 L5189.4688,288.2031 Q5188.8438,287.625 5188.25,287.3594 Q5187.6563,287.0781 5187.0313,287.0781 Q5185.6875,287.0781 5185,288.1563 Q5184.3125,289.2188 5184.3125,291.3125 Q5184.3125,293.4063 5185,294.4844 Q5185.6875,295.5469 5187.0313,295.5469 Q5187.6563,295.5469 5188.25,295.2813 Q5188.8438,295 5189.4688,294.4219 L5189.4688,297.1406 Z " fill="#000000"/><text fill="#000000" font-family="sans-serif" font-size="14" lengthAdjust="spacing" textLength="305.1357" x="5200.5" y="296.3467">comp_arc_sta__baselibs__message_passing</text><line style="stroke:#181818;stroke-width:0.5;" x1="5172.5" x2="5507.6357" y1="307.5" y2="307.5"/></g><!--class logic_arc_int__baselibs__shared_future--><g id="elem_logic_arc_int__baselibs__shared_future"><rect fill="#F1F1F1" height="40" id="logic_arc_int__baselibs__shared_future" rx="2.5" ry="2.5" style="stroke:#181818;stroke-width:0.5;" width="302.0811" x="7" y="158.5"/><ellipse cx="22" cy="174.5" fill="#ADD1B2" rx="11" ry="11" style="stroke:#181818;stroke-width:1;"/><path d="M24.9688,180.1406 Q24.3906,180.4375 23.75,180.5781 Q23.1094,180.7344 22.4063,180.7344 Q19.9063,180.7344 18.5781,179.0938 Q17.2656,177.4375 17.2656,174.3125 Q17.2656,171.1875 18.5781,169.5313 Q19.9063,167.875 22.4063,167.875 Q23.1094,167.875 23.75,168.0313 Q24.4063,168.1875 24.9688,168.4844 L24.9688,171.2031 Q24.3438,170.625 23.75,170.3594 Q23.1563,170.0781 22.5313,170.0781 Q21.1875,170.0781 20.5,171.1563 Q19.8125,172.2188 19.8125,174.3125 Q19.8125,176.4063 20.5,177.4844 Q21.1875,178.5469 22.5313,178.5469 Q23.1563,178.5469 23.75,178.2813 Q24.3438,178 24.9688,177.4219 L24.9688,180.1406 Z " fill="#000000"/><text fill="#000000" font-family="sans-serif" font-size="14" lengthAdjust="spacing" textLength="270.0811" x="36" y="179.3467">logic_arc_int__baselibs__shared_future</text><line style="stroke:#181818;stroke-width:0.5;" x1="8" x2="308.0811" y1="190.5" y2="190.5"/></g><!--class comp_arc_sta__baselibs__result--><g id="elem_comp_arc_sta__baselibs__result"><rect fill="#F1F1F1" height="40" id="comp_arc_sta__baselibs__result" rx="2.5" ry="2.5" style="stroke:#181818;stroke-width:0.5;" width="253.4297" x="4229.5" y="275.5"/><ellipse cx="4244.5" cy="291.5" fill="#ADD1B2" rx="11" ry="11" style="stroke:#181818;stroke-width:1;"/><path d="M4247.4688,297.1406 Q4246.8906,297.4375 4246.25,297.5781 Q4245.6094,297.7344 4244.9063,297.7344 Q4242.4063,297.7344 4241.0781,296.0938 Q4239.7656,294.4375 4239.7656,291.3125 Q4239.7656,288.1875 4241.0781,286.5313 Q4242.4063,284.875 4244.9063,284.875 Q4245.6094,284.875 4246.25,285.0313 Q4246.9063,285.1875 4247.4688,285.4844 L4247.4688,288.2031 Q4246.8438,287.625 4246.25,287.3594 Q4245.6563,287.0781 4245.0313,287.0781 Q4243.6875,287.0781 4243,288.1563 Q4242.3125,289.2188 4242.3125,291.3125 Q4242.3125,293.4063 4243,294.4844 Q4243.6875,295.5469 4245.0313,295.5469 Q4245.6563,295.5469 4246.25,295.2813 Q4246.8438,295 4247.4688,294.4219 L4247.4688,297.1406 Z " fill="#000000"/><text fill="#000000" font-family="sans-serif" font-size="14" lengthAdjust="spacing" textLength="221.4297" x="4258.5" y="296.3467">comp_arc_sta__baselibs__result</text><line style="stroke:#181818;stroke-width:0.5;" x1="4230.5" x2="4481.9297" y1="307.5" y2="307.5"/></g><!--class logic_arc_int__baselibs__result--><g id="elem_logic_arc_int__baselibs__result"><rect fill="#F1F1F1" height="40" id="logic_arc_int__baselibs__result" rx="2.5" ry="2.5" style="stroke:#181818;stroke-width:0.5;" width="244.4609" x="4234" y="158.5"/><ellipse cx="4249" cy="174.5" fill="#ADD1B2" rx="11" ry="11" style="stroke:#181818;stroke-width:1;"/><path d="M4251.9688,180.1406 Q4251.3906,180.4375 4250.75,180.5781 Q4250.1094,180.7344 4249.4063,180.7344 Q4246.9063,180.7344 4245.5781,179.0938 Q4244.2656,177.4375 4244.2656,174.3125 Q4244.2656,171.1875 4245.5781,169.5313 Q4246.9063,167.875 4249.4063,167.875 Q4250.1094,167.875 4250.75,168.0313 Q4251.4063,168.1875 4251.9688,168.4844 L4251.9688,171.2031 Q4251.3438,170.625 4250.75,170.3594 Q4250.1563,170.0781 4249.5313,170.0781 Q4248.1875,170.0781 4247.5,171.1563 Q4246.8125,172.2188 4246.8125,174.3125 Q4246.8125,176.4063 4247.5,177.4844 Q4248.1875,178.5469 4249.5313,178.5469 Q4250.1563,178.5469 4250.75,178.2813 Q4251.3438,178 4251.9688,177.4219 L4251.9688,180.1406 Z " fill="#000000"/><text fill="#000000" font-family="sans-serif" font-size="14" lengthAdjust="spacing" textLength="212.4609" x="4263" y="179.3467">logic_arc_int__baselibs__result</text><line style="stroke:#181818;stroke-width:0.5;" x1="4235" x2="4477.4609" y1="190.5" y2="190.5"/></g><!--class logic_arc_int__baselibs__bit_mask_operator--><g id="elem_logic_arc_int__baselibs__bit_mask_operator"><rect fill="#F1F1F1" height="40" id="logic_arc_int__baselibs__bit_mask_operator" rx="2.5" ry="2.5" style="stroke:#181818;stroke-width:0.5;" width="334.6406" x="3506.5" y="158.5"/><ellipse cx="3521.5" cy="174.5" fill="#ADD1B2" rx="11" ry="11" style="stroke:#181818;stroke-width:1;"/><path d="M3524.4688,180.1406 Q3523.8906,180.4375 3523.25,180.5781 Q3522.6094,180.7344 3521.9063,180.7344 Q3519.4063,180.7344 3518.0781,179.0938 Q3516.7656,177.4375 3516.7656,174.3125 Q3516.7656,171.1875 3518.0781,169.5313 Q3519.4063,167.875 3521.9063,167.875 Q3522.6094,167.875 3523.25,168.0313 Q3523.9063,168.1875 3524.4688,168.4844 L3524.4688,171.2031 Q3523.8438,170.625 3523.25,170.3594 Q3522.6563,170.0781 3522.0313,170.0781 Q3520.6875,170.0781 3520,171.1563 Q3519.3125,172.2188 3519.3125,174.3125 Q3519.3125,176.4063 3520,177.4844 Q3520.6875,178.5469 3522.0313,178.5469 Q3522.6563,178.5469 3523.25,178.2813 Q3523.8438,178 3524.4688,177.4219 L3524.4688,180.1406 Z " fill="#000000"/><text fill="#000000" font-family="sans-serif" font-size="14" lengthAdjust="spacing" textLength="302.6406" x="3535.5" y="179.3467">logic_arc_int__baselibs__bit_mask_operator</text><line style="stroke:#181818;stroke-width:0.5;" x1="3507.5" x2="3840.1406" y1="190.5" y2="190.5"/></g><!--class logic_arc_int__baselibs__executor--><g id="elem_logic_arc_int__baselibs__executor"><rect fill="#F1F1F1" height="40" id="logic_arc_int__baselibs__executor" rx="2.5" ry="2.5" style="stroke:#181818;stroke-width:0.5;" width="266.4385" x="344" y="158.5"/><ellipse cx="359" cy="174.5" fill="#ADD1B2" rx="11" ry="11" style="stroke:#181818;stroke-width:1;"/><path d="M361.9688,180.1406 Q361.3906,180.4375 360.75,180.5781 Q360.1094,180.7344 359.4063,180.7344 Q356.9063,180.7344 355.5781,179.0938 Q354.2656,177.4375 354.2656,174.3125 Q354.2656,171.1875 355.5781,169.5313 Q356.9063,167.875 359.4063,167.875 Q360.1094,167.875 360.75,168.0313 Q361.4063,168.1875 361.9688,168.4844 L361.9688,171.2031 Q361.3438,170.625 360.75,170.3594 Q360.1563,170.0781 359.5313,170.0781 Q358.1875,170.0781 357.5,171.1563 Q356.8125,172.2188 356.8125,174.3125 Q356.8125,176.4063 357.5,177.4844 Q358.1875,178.5469 359.5313,178.5469 Q360.1563,178.5469 360.75,178.2813 Q361.3438,178 361.9688,177.4219 L361.9688,180.1406 Z " fill="#000000"/><text fill="#000000" font-family="sans-serif" font-size="14" lengthAdjust="spacing" textLength="234.4385" x="373" y="179.3467">logic_arc_int__baselibs__executor</text><line style="stroke:#181818;stroke-width:0.5;" x1="345" x2="609.4385" y1="190.5" y2="190.5"/></g><!--class comp_arc_sta__baselibs__bit_manipulation--><g id="elem_comp_arc_sta__baselibs__bit_manipulation"><rect fill="#F1F1F1" height="40" id="comp_arc_sta__baselibs__bit_manipulation" rx="2.5" ry="2.5" style="stroke:#181818;stroke-width:0.5;" width="330.8057" x="3687.5" y="275.5"/><ellipse cx="3702.5" cy="291.5" fill="#ADD1B2" rx="11" ry="11" style="stroke:#181818;stroke-width:1;"/><path d="M3705.4688,297.1406 Q3704.8906,297.4375 3704.25,297.5781 Q3703.6094,297.7344 3702.9063,297.7344 Q3700.4063,297.7344 3699.0781,296.0938 Q3697.7656,294.4375 3697.7656,291.3125 Q3697.7656,288.1875 3699.0781,286.5313 Q3700.4063,284.875 3702.9063,284.875 Q3703.6094,284.875 3704.25,285.0313 Q3704.9063,285.1875 3705.4688,285.4844 L3705.4688,288.2031 Q3704.8438,287.625 3704.25,287.3594 Q3703.6563,287.0781 3703.0313,287.0781 Q3701.6875,287.0781 3701,288.1563 Q3700.3125,289.2188 3700.3125,291.3125 Q3700.3125,293.4063 3701,294.4844 Q3701.6875,295.5469 3703.0313,295.5469 Q3703.6563,295.5469 3704.25,295.2813 Q3704.8438,295 3705.4688,294.4219 L3705.4688,297.1406 Z " fill="#000000"/><text fill="#000000" font-family="sans-serif" font-size="14" lengthAdjust="spacing" textLength="298.8057" x="3716.5" y="296.3467">comp_arc_sta__baselibs__bit_manipulation</text><line style="stroke:#181818;stroke-width:0.5;" x1="3688.5" x2="4017.3057" y1="307.5" y2="307.5"/></g><!--class comp_arc_sta__baselibs__utils--><g id="elem_comp_arc_sta__baselibs__utils"><rect fill="#F1F1F1" height="40" id="comp_arc_sta__baselibs__utils" rx="2.5" ry="2.5" style="stroke:#181818;stroke-width:0.5;" width="242.9502" x="2754.5" y="275.5"/><ellipse cx="2769.5" cy="291.5" fill="#ADD1B2" rx="11" ry="11" style="stroke:#181818;stroke-width:1;"/><path d="M2772.4688,297.1406 Q2771.8906,297.4375 2771.25,297.5781 Q2770.6094,297.7344 2769.9063,297.7344 Q2767.4063,297.7344 2766.0781,296.0938 Q2764.7656,294.4375 2764.7656,291.3125 Q2764.7656,288.1875 2766.0781,286.5313 Q2767.4063,284.875 2769.9063,284.875 Q2770.6094,284.875 2771.25,285.0313 Q2771.9063,285.1875 2772.4688,285.4844 L2772.4688,288.2031 Q2771.8438,287.625 2771.25,287.3594 Q2770.6563,287.0781 2770.0313,287.0781 Q2768.6875,287.0781 2768,288.1563 Q2767.3125,289.2188 2767.3125,291.3125 Q2767.3125,293.4063 2768,294.4844 Q2768.6875,295.5469 2770.0313,295.5469 Q2770.6563,295.5469 2771.25,295.2813 Q2771.8438,295 2772.4688,294.4219 L2772.4688,297.1406 Z " fill="#000000"/><text fill="#000000" font-family="sans-serif" font-size="14" lengthAdjust="spacing" textLength="210.9502" x="2783.5" y="296.3467">comp_arc_sta__baselibs__utils</text><line style="stroke:#181818;stroke-width:0.5;" x1="2755.5" x2="2996.4502" y1="307.5" y2="307.5"/></g><!--class logic_arc_int__baselibs__utils_base64--><g id="elem_logic_arc_int__baselibs__utils_base64"><rect fill="#F1F1F1" height="40" id="logic_arc_int__baselibs__utils_base64" rx="2.5" ry="2.5" style="stroke:#181818;stroke-width:0.5;" width="292.1689" x="2561" y="158.5"/><ellipse cx="2576" cy="174.5" fill="#ADD1B2" rx="11" ry="11" style="stroke:#181818;stroke-width:1;"/><path d="M2578.9688,180.1406 Q2578.3906,180.4375 2577.75,180.5781 Q2577.1094,180.7344 2576.4063,180.7344 Q2573.9063,180.7344 2572.5781,179.0938 Q2571.2656,177.4375 2571.2656,174.3125 Q2571.2656,171.1875 2572.5781,169.5313 Q2573.9063,167.875 2576.4063,167.875 Q2577.1094,167.875 2577.75,168.0313 Q2578.4063,168.1875 2578.9688,168.4844 L2578.9688,171.2031 Q2578.3438,170.625 2577.75,170.3594 Q2577.1563,170.0781 2576.5313,170.0781 Q2575.1875,170.0781 2574.5,171.1563 Q2573.8125,172.2188 2573.8125,174.3125 Q2573.8125,176.4063 2574.5,177.4844 Q2575.1875,178.5469 2576.5313,178.5469 Q2577.1563,178.5469 2577.75,178.2813 Q2578.3438,178 2578.9688,177.4219 L2578.9688,180.1406 Z " fill="#000000"/><text fill="#000000" font-family="sans-serif" font-size="14" lengthAdjust="spacing" textLength="260.1689" x="2590" y="179.3467">logic_arc_int__baselibs__utils_base64</text><line style="stroke:#181818;stroke-width:0.5;" x1="2562" x2="2852.1689" y1="190.5" y2="190.5"/></g><!--class comp_arc_sta__baselibs__json--><g id="elem_comp_arc_sta__baselibs__json"><rect fill="#F1F1F1" height="40" id="comp_arc_sta__baselibs__json" rx="2.5" ry="2.5" style="stroke:#181818;stroke-width:0.5;" width="242.1367" x="3234" y="275.5"/><ellipse cx="3249" cy="291.5" fill="#ADD1B2" rx="11" ry="11" style="stroke:#181818;stroke-width:1;"/><path d="M3251.9688,297.1406 Q3251.3906,297.4375 3250.75,297.5781 Q3250.1094,297.7344 3249.4063,297.7344 Q3246.9063,297.7344 3245.5781,296.0938 Q3244.2656,294.4375 3244.2656,291.3125 Q3244.2656,288.1875 3245.5781,286.5313 Q3246.9063,284.875 3249.4063,284.875 Q3250.1094,284.875 3250.75,285.0313 Q3251.4063,285.1875 3251.9688,285.4844 L3251.9688,288.2031 Q3251.3438,287.625 3250.75,287.3594 Q3250.1563,287.0781 3249.5313,287.0781 Q3248.1875,287.0781 3247.5,288.1563 Q3246.8125,289.2188 3246.8125,291.3125 Q3246.8125,293.4063 3247.5,294.4844 Q3248.1875,295.5469 3249.5313,295.5469 Q3250.1563,295.5469 3250.75,295.2813 Q3251.3438,295 3251.9688,294.4219 L3251.9688,297.1406 Z " fill="#000000"/><text fill="#000000" font-family="sans-serif" font-size="14" lengthAdjust="spacing" textLength="210.1367" x="3263" y="296.3467">comp_arc_sta__baselibs__json</text><line style="stroke:#181818;stroke-width:0.5;" x1="3235" x2="3475.1367" y1="307.5" y2="307.5"/></g><!--class logic_arc_int__baselibs__json--><g id="elem_logic_arc_int__baselibs__json"><rect fill="#F1F1F1" height="40" id="logic_arc_int__baselibs__json" rx="2.5" ry="2.5" style="stroke:#181818;stroke-width:0.5;" width="233.168" x="3238.5" y="158.5"/><ellipse cx="3253.5" cy="174.5" fill="#ADD1B2" rx="11" ry="11" style="stroke:#181818;stroke-width:1;"/><path d="M3256.4688,180.1406 Q3255.8906,180.4375 3255.25,180.5781 Q3254.6094,180.7344 3253.9063,180.7344 Q3251.4063,180.7344 3250.0781,179.0938 Q3248.7656,177.4375 3248.7656,174.3125 Q3248.7656,171.1875 3250.0781,169.5313 Q3251.4063,167.875 3253.9063,167.875 Q3254.6094,167.875 3255.25,168.0313 Q3255.9063,168.1875 3256.4688,168.4844 L3256.4688,171.2031 Q3255.8438,170.625 3255.25,170.3594 Q3254.6563,170.0781 3254.0313,170.0781 Q3252.6875,170.0781 3252,171.1563 Q3251.3125,172.2188 3251.3125,174.3125 Q3251.3125,176.4063 3252,177.4844 Q3252.6875,178.5469 3254.0313,178.5469 Q3254.6563,178.5469 3255.25,178.2813 Q3255.8438,178 3256.4688,177.4219 L3256.4688,180.1406 Z " fill="#000000"/><text fill="#000000" font-family="sans-serif" font-size="14" lengthAdjust="spacing" textLength="201.168" x="3267.5" y="179.3467">logic_arc_int__baselibs__json</text><line style="stroke:#181818;stroke-width:0.5;" x1="3239.5" x2="3470.668" y1="190.5" y2="190.5"/></g><!--class logic_arc_int__baselibs__bit_manipulation--><g id="elem_logic_arc_int__baselibs__bit_manipulation"><rect fill="#F1F1F1" height="40" id="logic_arc_int__baselibs__bit_manipulation" rx="2.5" ry="2.5" style="stroke:#181818;stroke-width:0.5;" width="321.8369" x="3877" y="158.5"/><ellipse cx="3892" cy="174.5" fill="#ADD1B2" rx="11" ry="11" style="stroke:#181818;stroke-width:1;"/><path d="M3894.9688,180.1406 Q3894.3906,180.4375 3893.75,180.5781 Q3893.1094,180.7344 3892.4063,180.7344 Q3889.9063,180.7344 3888.5781,179.0938 Q3887.2656,177.4375 3887.2656,174.3125 Q3887.2656,171.1875 3888.5781,169.5313 Q3889.9063,167.875 3892.4063,167.875 Q3893.1094,167.875 3893.75,168.0313 Q3894.4063,168.1875 3894.9688,168.4844 L3894.9688,171.2031 Q3894.3438,170.625 3893.75,170.3594 Q3893.1563,170.0781 3892.5313,170.0781 Q3891.1875,170.0781 3890.5,171.1563 Q3889.8125,172.2188 3889.8125,174.3125 Q3889.8125,176.4063 3890.5,177.4844 Q3891.1875,178.5469 3892.5313,178.5469 Q3893.1563,178.5469 3893.75,178.2813 Q3894.3438,178 3894.9688,177.4219 L3894.9688,180.1406 Z " fill="#000000"/><text fill="#000000" font-family="sans-serif" font-size="14" lengthAdjust="spacing" textLength="289.8369" x="3906" y="179.3467">logic_arc_int__baselibs__bit_manipulation</text><line style="stroke:#181818;stroke-width:0.5;" x1="3878" x2="4197.8369" y1="190.5" y2="190.5"/></g><!--class logic_arc_int__baselibs__synchronized_queue--><g id="elem_logic_arc_int__baselibs__synchronized_queue"><rect fill="#F1F1F1" height="40" id="logic_arc_int__baselibs__synchronized_queue" rx="2.5" ry="2.5" style="stroke:#181818;stroke-width:0.5;" width="348.3604" x="1579" y="158.5"/><ellipse cx="1594" cy="174.5" fill="#ADD1B2" rx="11" ry="11" style="stroke:#181818;stroke-width:1;"/><path d="M1596.9688,180.1406 Q1596.3906,180.4375 1595.75,180.5781 Q1595.1094,180.7344 1594.4063,180.7344 Q1591.9063,180.7344 1590.5781,179.0938 Q1589.2656,177.4375 1589.2656,174.3125 Q1589.2656,171.1875 1590.5781,169.5313 Q1591.9063,167.875 1594.4063,167.875 Q1595.1094,167.875 1595.75,168.0313 Q1596.4063,168.1875 1596.9688,168.4844 L1596.9688,171.2031 Q1596.3438,170.625 1595.75,170.3594 Q1595.1563,170.0781 1594.5313,170.0781 Q1593.1875,170.0781 1592.5,171.1563 Q1591.8125,172.2188 1591.8125,174.3125 Q1591.8125,176.4063 1592.5,177.4844 Q1593.1875,178.5469 1594.5313,178.5469 Q1595.1563,178.5469 1595.75,178.2813 Q1596.3438,178 1596.9688,177.4219 L1596.9688,180.1406 Z " fill="#000000"/><text fill="#000000" font-family="sans-serif" font-size="14" lengthAdjust="spacing" textLength="316.3604" x="1608" y="179.3467">logic_arc_int__baselibs__synchronized_queue</text><line style="stroke:#181818;stroke-width:0.5;" x1="1580" x2="1926.3604" y1="190.5" y2="190.5"/></g><!--class logic_arc_int__baselibs__task--><g id="elem_logic_arc_int__baselibs__task"><rect fill="#F1F1F1" height="40" id="logic_arc_int__baselibs__task" rx="2.5" ry="2.5" style="stroke:#181818;stroke-width:0.5;" width="234.0156" x="645" y="158.5"/><ellipse cx="660" cy="174.5" fill="#ADD1B2" rx="11" ry="11" style="stroke:#181818;stroke-width:1;"/><path d="M662.9688,180.1406 Q662.3906,180.4375 661.75,180.5781 Q661.1094,180.7344 660.4063,180.7344 Q657.9063,180.7344 656.5781,179.0938 Q655.2656,177.4375 655.2656,174.3125 Q655.2656,171.1875 656.5781,169.5313 Q657.9063,167.875 660.4063,167.875 Q661.1094,167.875 661.75,168.0313 Q662.4063,168.1875 662.9688,168.4844 L662.9688,171.2031 Q662.3438,170.625 661.75,170.3594 Q661.1563,170.0781 660.5313,170.0781 Q659.1875,170.0781 658.5,171.1563 Q657.8125,172.2188 657.8125,174.3125 Q657.8125,176.4063 658.5,177.4844 Q659.1875,178.5469 660.5313,178.5469 Q661.1563,178.5469 661.75,178.2813 Q662.3438,178 662.9688,177.4219 L662.9688,180.1406 Z " fill="#000000"/><text fill="#000000" font-family="sans-serif" font-size="14" lengthAdjust="spacing" textLength="202.0156" x="674" y="179.3467">logic_arc_int__baselibs__task</text><line style="stroke:#181818;stroke-width:0.5;" x1="646" x2="878.0156" y1="190.5" y2="190.5"/></g><!--reverse link logic_arc_int__baselibs__future to comp_arc_sta__baselibs__concurrency--><g id="link_logic_arc_int__baselibs__future_comp_arc_sta__baselibs__concurrency"><path codeLine="15" d="M2272.2754,197.1667 C2266.4554,197.8867 2266.64,197.84 2261,198.5 C1909.78,239.45 1495.35,270.1 1278.13,284.81 " fill="transparent" id="logic_arc_int__baselibs__future-backto-comp_arc_sta__baselibs__concurrency" style="stroke:#181818;stroke-width:1;"/><polygon fill="#181818" points="2278.23,196.43,2268.807,193.5652,2273.2678,197.0439,2269.7892,201.5047,2278.23,196.43" style="stroke:#181818;stroke-width:1;"/><text fill="#000000" font-family="sans-serif" font-size="13" lengthAdjust="spacing" textLength="76.9082" x="1952" y="241.5669">implements</text></g><!--link Feature_User to logic_arc_int__baselibs__dynamic_array--><g id="link_Feature_User_logic_arc_int__baselibs__dynamic_array"><path codeLine="16" d="M3091.07,46.42 C3293.08,55.22 4135.3,94.08 4824,158.5 C4829.83,159.05 4829.8088,159.0328 4835.8088,159.6228 " fill="transparent" id="Feature_User-to-logic_arc_int__baselibs__dynamic_array" style="stroke:#181818;stroke-width:1;"/><polygon fill="#181818" points="4841.78,160.21,4833.2146,155.3484,4836.804,159.7207,4832.4318,163.31,4841.78,160.21" style="stroke:#181818;stroke-width:1;"/><text fill="#000000" font-family="sans-serif" font-size="13" lengthAdjust="spacing" textLength="23.0103" x="4435" y="124.5669">use</text></g><!--reverse link logic_arc_int__baselibs__memory_shared to comp_arc_sta__baselibs__memory_shared--><g id="link_logic_arc_int__baselibs__memory_shared_comp_arc_sta__baselibs__memory_shared"><path codeLine="17" d="M6023.879,204.7464 C6024.619,225.9764 6025.59,253.94 6026.33,275.19 " fill="transparent" id="logic_arc_int__baselibs__memory_shared-backto-comp_arc_sta__baselibs__memory_shared" style="stroke:#181818;stroke-width:1;"/><polygon fill="#181818" points="6023.67,198.75,6019.9859,207.8839,6023.8442,203.747,6027.9811,207.6052,6023.67,198.75" style="stroke:#181818;stroke-width:1;"/><text fill="#000000" font-family="sans-serif" font-size="13" lengthAdjust="spacing" textLength="76.9082" x="6026" y="241.5669">implements</text></g><!--link Feature_User to logic_arc_int__baselibs__condition_variable--><g id="link_Feature_User_logic_arc_int__baselibs__condition_variable"><path codeLine="18" d="M3000.7,47.54 C2819.41,59.81 2128.53,107.42 1561,158.5 C1555.4,159 1555.6837,158.969 1549.9337,159.509 " fill="transparent" id="Feature_User-to-logic_arc_int__baselibs__condition_variable" style="stroke:#181818;stroke-width:1;"/><polygon fill="#181818" points="1543.96,160.07,1553.2946,163.211,1548.9381,159.6025,1552.5466,155.246,1543.96,160.07" style="stroke:#181818;stroke-width:1;"/><text fill="#000000" font-family="sans-serif" font-size="13" lengthAdjust="spacing" textLength="23.0103" x="2092" y="124.5669">use</text></g><!--link Feature_User to logic_arc_int__baselibs__task_result--><g id="link_Feature_User_logic_arc_int__baselibs__task_result"><path codeLine="19" d="M3000.83,50.87 C2864.51,70.1 2459.2712,127.2521 2243.8712,157.6321 " fill="transparent" id="Feature_User-to-logic_arc_int__baselibs__task_result" style="stroke:#181818;stroke-width:1;"/><polygon fill="#181818" points="2237.93,158.47,2247.4004,161.1739,2242.881,157.7717,2246.2832,153.2523,2237.93,158.47" style="stroke:#181818;stroke-width:1;"/><text fill="#000000" font-family="sans-serif" font-size="13" lengthAdjust="spacing" textLength="23.0103" x="2547" y="124.5669">use</text></g><!--link Feature_User to logic_arc_int__baselibs__promise--><g id="link_Feature_User_logic_arc_int__baselibs__promise"><path codeLine="20" d="M3000.76,46.09 C2793.31,53.61 1912.36,88.31 1193,158.5 C1187.33,159.05 1187.5055,159.0076 1181.6555,159.6376 " fill="transparent" id="Feature_User-to-logic_arc_int__baselibs__promise" style="stroke:#181818;stroke-width:1;"/><polygon fill="#181818" points="1175.69,160.28,1185.0666,163.2933,1180.6613,159.7446,1184.21,155.3393,1175.69,160.28" style="stroke:#181818;stroke-width:1;"/><text fill="#000000" font-family="sans-serif" font-size="13" lengthAdjust="spacing" textLength="23.0103" x="1754" y="124.5669">use</text></g><!--link Feature_User to logic_arc_int__baselibs__message_passing--><g id="link_Feature_User_logic_arc_int__baselibs__message_passing"><path codeLine="21" d="M3091.24,45.85 C3316.12,52.8 4335.9,86.96 5168,158.5 C5173.51,158.97 5173.1352,158.9211 5178.7952,159.4411 " fill="transparent" id="Feature_User-to-logic_arc_int__baselibs__message_passing" style="stroke:#181818;stroke-width:1;"/><polygon fill="#181818" points="5184.77,159.99,5176.1737,155.1834,5179.791,159.5326,5175.4418,163.1498,5184.77,159.99" style="stroke:#181818;stroke-width:1;"/><text fill="#000000" font-family="sans-serif" font-size="13" lengthAdjust="spacing" textLength="23.0103" x="4763" y="124.5669">use</text></g><!--link Feature_User to logic_arc_int__baselibs__utils_scoped_op--><g id="link_Feature_User_logic_arc_int__baselibs__utils_scoped_op"><path codeLine="22" d="M3046,81.55 C3046,106.45 3046,132.26 3046,152.26 " fill="transparent" id="Feature_User-to-logic_arc_int__baselibs__utils_scoped_op" style="stroke:#181818;stroke-width:1;"/><polygon fill="#181818" points="3046,158.26,3050,149.26,3046,153.26,3042,149.26,3046,158.26" style="stroke:#181818;stroke-width:1;"/><text fill="#000000" font-family="sans-serif" font-size="13" lengthAdjust="spacing" textLength="23.0103" x="3047" y="124.5669">use</text></g><!--reverse link logic_arc_int__baselibs__intrusive_list to comp_arc_sta__baselibs__containers--><g id="link_logic_arc_int__baselibs__intrusive_list_comp_arc_sta__baselibs__containers"><path codeLine="23" d="M4692.8918,202.1527 C4723.8118,223.4427 4768.39,254.14 4799.24,275.38 " fill="transparent" id="logic_arc_int__baselibs__intrusive_list-backto-comp_arc_sta__baselibs__containers" style="stroke:#181818;stroke-width:1;"/><polygon fill="#181818" points="4687.95,198.75,4693.0943,207.1486,4692.0682,201.5856,4697.6312,200.5595,4687.95,198.75" style="stroke:#181818;stroke-width:1;"/><text fill="#000000" font-family="sans-serif" font-size="13" lengthAdjust="spacing" textLength="76.9082" x="4754" y="241.5669">implements</text></g><!--reverse link logic_arc_int__baselibs__filesystem to comp_arc_sta__baselibs__filesystem--><g id="link_logic_arc_int__baselibs__filesystem_comp_arc_sta__baselibs__filesystem"><path codeLine="24" d="M5686,204.75 C5686,225.98 5686,253.94 5686,275.19 " fill="transparent" id="logic_arc_int__baselibs__filesystem-backto-comp_arc_sta__baselibs__filesystem" style="stroke:#181818;stroke-width:1;"/><polygon fill="#181818" points="5686,198.75,5682,207.75,5686,203.75,5690,207.75,5686,198.75" style="stroke:#181818;stroke-width:1;"/><text fill="#000000" font-family="sans-serif" font-size="13" lengthAdjust="spacing" textLength="76.9082" x="5687" y="241.5669">implements</text></g><!--reverse link logic_arc_int__baselibs__message_passing to comp_arc_sta__baselibs__message_passing--><g id="link_logic_arc_int__baselibs__message_passing_comp_arc_sta__baselibs__message_passing"><path codeLine="25" d="M5347.0223,204.7317 C5345.3623,225.9617 5343.17,253.94 5341.51,275.19 " fill="transparent" id="logic_arc_int__baselibs__message_passing-backto-comp_arc_sta__baselibs__message_passing" style="stroke:#181818;stroke-width:1;"/><polygon fill="#181818" points="5347.49,198.75,5342.8006,207.4108,5347.1002,203.7348,5350.7762,208.0344,5347.49,198.75" style="stroke:#181818;stroke-width:1;"/><text fill="#000000" font-family="sans-serif" font-size="13" lengthAdjust="spacing" textLength="76.9082" x="5346" y="241.5669">implements</text></g><!--link Feature_User to logic_arc_int__baselibs__filesystem--><g id="link_Feature_User_logic_arc_int__baselibs__filesystem"><path codeLine="26" d="M3091.28,45.81 C3291.53,51.69 4117.5,76.9 4795,111.5 C5122.35,128.22 5204.64,128.1 5531,158.5 C5536.53,159.02 5536.2109,158.9616 5541.9009,159.5416 " fill="transparent" id="Feature_User-to-logic_arc_int__baselibs__filesystem" style="stroke:#181818;stroke-width:1;"/><polygon fill="#181818" points="5547.87,160.15,5539.322,155.258,5542.8958,159.643,5538.5108,163.2167,5547.87,160.15" style="stroke:#181818;stroke-width:1;"/><text fill="#000000" font-family="sans-serif" font-size="13" lengthAdjust="spacing" textLength="23.0103" x="5139" y="124.5669">use</text></g><!--link Feature_User to logic_arc_int__baselibs__shared_future--><g id="link_Feature_User_logic_arc_int__baselibs__shared_future"><path codeLine="27" d="M3000.91,45.1 C2775.71,48.28 1750.26,64.75 912,111.5 C651.12,126.05 586.07,133.37 326,158.5 C320.45,159.04 320.7693,158.9937 315.0593,159.5737 " fill="transparent" id="Feature_User-to-logic_arc_int__baselibs__shared_future" style="stroke:#181818;stroke-width:1;"/><polygon fill="#181818" points="309.09,160.18,318.4482,163.25,314.0644,159.6747,317.6397,155.291,309.09,160.18" style="stroke:#181818;stroke-width:1;"/><text fill="#000000" font-family="sans-serif" font-size="13" lengthAdjust="spacing" textLength="23.0103" x="913" y="124.5669">use</text></g><!--link Feature_User to logic_arc_int__baselibs__memory_shared--><g id="link_Feature_User_logic_arc_int__baselibs__memory_shared"><path codeLine="28" d="M3091.26,45.28 C3316.22,49.3 4336.51,69.13 5171,111.5 C5469.57,126.66 5544.18,132.45 5842,158.5 C5849.08,159.12 5850.3459,159.2235 5857.6459,159.9035 " fill="transparent" id="Feature_User-to-logic_arc_int__baselibs__memory_shared" style="stroke:#181818;stroke-width:1;"/><polygon fill="#181818" points="5863.62,160.46,5855.0298,155.6425,5858.6416,159.9963,5854.2878,163.608,5863.62,160.46" style="stroke:#181818;stroke-width:1;"/><text fill="#000000" font-family="sans-serif" font-size="13" lengthAdjust="spacing" textLength="23.0103" x="5462" y="124.5669">use</text></g><!--reverse link logic_arc_int__baselibs__result to comp_arc_sta__baselibs__result--><g id="link_logic_arc_int__baselibs__result_comp_arc_sta__baselibs__result"><path codeLine="29" d="M4356,204.75 C4356,225.98 4356,253.94 4356,275.19 " fill="transparent" id="logic_arc_int__baselibs__result-backto-comp_arc_sta__baselibs__result" style="stroke:#181818;stroke-width:1;"/><polygon fill="#181818" points="4356,198.75,4352,207.75,4356,203.75,4360,207.75,4356,198.75" style="stroke:#181818;stroke-width:1;"/><text fill="#000000" font-family="sans-serif" font-size="13" lengthAdjust="spacing" textLength="76.9082" x="4357" y="241.5669">implements</text></g><!--link Feature_User to logic_arc_int__baselibs__bit_mask_operator--><g id="link_Feature_User_logic_arc_int__baselibs__bit_mask_operator"><path codeLine="30" d="M3091.16,54.07 C3194.17,75.88 3442.1802,128.407 3578.3702,157.247 " fill="transparent" id="Feature_User-to-logic_arc_int__baselibs__bit_mask_operator" style="stroke:#181818;stroke-width:1;"/><polygon fill="#181818" points="3584.24,158.49,3576.2639,152.7123,3579.3485,157.4542,3574.6066,160.5387,3584.24,158.49" style="stroke:#181818;stroke-width:1;"/><text fill="#000000" font-family="sans-serif" font-size="13" lengthAdjust="spacing" textLength="23.0103" x="3435" y="124.5669">use</text></g><!--link Feature_User to logic_arc_int__baselibs__intrusive_list--><g id="link_Feature_User_logic_arc_int__baselibs__intrusive_list"><path codeLine="31" d="M3091.17,47.29 C3269.7,58.48 3943.33,102.22 4496,158.5 C4501.7,159.08 4501.5532,159.0598 4507.4232,159.6798 " fill="transparent" id="Feature_User-to-logic_arc_int__baselibs__intrusive_list" style="stroke:#181818;stroke-width:1;"/><polygon fill="#181818" points="4513.39,160.31,4504.8599,155.3868,4508.4177,159.7848,4504.0196,163.3425,4513.39,160.31" style="stroke:#181818;stroke-width:1;"/><text fill="#000000" font-family="sans-serif" font-size="13" lengthAdjust="spacing" textLength="23.0103" x="4179" y="124.5669">use</text></g><!--reverse link logic_arc_int__baselibs__executor to comp_arc_sta__baselibs__concurrency--><g id="link_logic_arc_int__baselibs__executor_comp_arc_sta__baselibs__concurrency"><path codeLine="32" d="M585.1397,199.6626 C657.3897,213.0426 750.62,230.13 838,245.5 C895.71,255.65 959.95,266.55 1013.27,275.48 " fill="transparent" id="logic_arc_int__baselibs__executor-backto-comp_arc_sta__baselibs__concurrency" style="stroke:#181818;stroke-width:1;"/><polygon fill="#181818" points="579.24,198.57,587.3612,204.142,584.1564,199.4805,588.8179,196.2757,579.24,198.57" style="stroke:#181818;stroke-width:1;"/><text fill="#000000" font-family="sans-serif" font-size="13" lengthAdjust="spacing" textLength="76.9082" x="839" y="241.5669">implements</text></g><!--reverse link logic_arc_int__baselibs__dynamic_array to comp_arc_sta__baselibs__containers--><g id="link_logic_arc_int__baselibs__dynamic_array_comp_arc_sta__baselibs__containers"><path codeLine="33" d="M4962.7494,202.1252 C4931.4594,223.4152 4886.31,254.14 4855.1,275.38 " fill="transparent" id="logic_arc_int__baselibs__dynamic_array-backto-comp_arc_sta__baselibs__containers" style="stroke:#181818;stroke-width:1;"/><polygon fill="#181818" points="4967.71,198.75,4958.0189,200.5058,4963.5762,201.5627,4962.5192,207.1199,4967.71,198.75" style="stroke:#181818;stroke-width:1;"/><text fill="#000000" font-family="sans-serif" font-size="13" lengthAdjust="spacing" textLength="76.9082" x="4922" y="241.5669">implements</text></g><!--reverse link logic_arc_int__baselibs__task_result to comp_arc_sta__baselibs__concurrency--><g id="link_logic_arc_int__baselibs__task_result_comp_arc_sta__baselibs__concurrency"><path codeLine="34" d="M1956.3659,197.8504 C1847.6359,211.3704 1699.3,229.61 1564,245.5 C1468.96,256.66 1362.21,268.67 1278.12,278 " fill="transparent" id="logic_arc_int__baselibs__task_result-backto-comp_arc_sta__baselibs__concurrency" style="stroke:#181818;stroke-width:1;"/><polygon fill="#181818" points="1962.32,197.11,1952.8952,194.2511,1957.3582,197.727,1953.8824,202.19,1962.32,197.11" style="stroke:#181818;stroke-width:1;"/><text fill="#000000" font-family="sans-serif" font-size="13" lengthAdjust="spacing" textLength="76.9082" x="1699" y="241.5669">implements</text></g><!--reverse link logic_arc_int__baselibs__bit_mask_operator to comp_arc_sta__baselibs__bit_manipulation--><g id="link_logic_arc_int__baselibs__bit_mask_operator_comp_arc_sta__baselibs__bit_manipulation"><path codeLine="35" d="M3709.0081,201.993 C3742.1481,223.283 3790.18,254.14 3823.24,275.38 " fill="transparent" id="logic_arc_int__baselibs__bit_mask_operator-backto-comp_arc_sta__baselibs__bit_manipulation" style="stroke:#181818;stroke-width:1;"/><polygon fill="#181818" points="3703.96,198.75,3709.3701,206.9799,3708.1667,201.4525,3713.6941,200.2491,3703.96,198.75" style="stroke:#181818;stroke-width:1;"/><text fill="#000000" font-family="sans-serif" font-size="13" lengthAdjust="spacing" textLength="76.9082" x="3775" y="241.5669">implements</text></g><!--link Feature_User to logic_arc_int__baselibs__future--><g id="link_Feature_User_logic_arc_int__baselibs__future"><path codeLine="36" d="M3000.97,53.8 C2896.23,75.43 2640.406,128.2665 2500.126,157.2365 " fill="transparent" id="Feature_User-to-logic_arc_int__baselibs__future" style="stroke:#181818;stroke-width:1;"/><polygon fill="#181818" points="2494.25,158.45,2503.873,160.5471,2499.1467,157.4388,2502.255,152.7124,2494.25,158.45" style="stroke:#181818;stroke-width:1;"/><text fill="#000000" font-family="sans-serif" font-size="13" lengthAdjust="spacing" textLength="23.0103" x="2705" y="124.5669">use</text></g><!--reverse link logic_arc_int__baselibs__utils_base64 to comp_arc_sta__baselibs__utils--><g id="link_logic_arc_int__baselibs__utils_base64_comp_arc_sta__baselibs__utils"><path codeLine="37" d="M2740.2506,202.1252 C2771.5406,223.4152 2816.69,254.14 2847.9,275.38 " fill="transparent" id="logic_arc_int__baselibs__utils_base64-backto-comp_arc_sta__baselibs__utils" style="stroke:#181818;stroke-width:1;"/><polygon fill="#181818" points="2735.29,198.75,2740.4808,207.1199,2739.4238,201.5627,2744.9811,200.5058,2735.29,198.75" style="stroke:#181818;stroke-width:1;"/><text fill="#000000" font-family="sans-serif" font-size="13" lengthAdjust="spacing" textLength="76.9082" x="2802" y="241.5669">implements</text></g><!--link Feature_User to logic_arc_int__baselibs__executor--><g id="link_Feature_User_logic_arc_int__baselibs__executor"><path codeLine="38" d="M3000.74,45.4 C2794.15,49.65 1919.97,69.34 1204,111.5 C947.15,126.62 882.91,131.88 627,158.5 C621.52,159.07 621.8829,159.0039 616.2429,159.6339 " fill="transparent" id="Feature_User-to-logic_arc_int__baselibs__executor" style="stroke:#181818;stroke-width:1;"/><polygon fill="#181818" points="610.28,160.3,619.6684,163.2762,615.2491,159.7449,618.7803,155.3256,610.28,160.3" style="stroke:#181818;stroke-width:1;"/><text fill="#000000" font-family="sans-serif" font-size="13" lengthAdjust="spacing" textLength="23.0103" x="1205" y="124.5669">use</text></g><!--reverse link logic_arc_int__baselibs__json to comp_arc_sta__baselibs__json--><g id="link_logic_arc_int__baselibs__json_comp_arc_sta__baselibs__json"><path codeLine="39" d="M3355,204.75 C3355,225.98 3355,253.94 3355,275.19 " fill="transparent" id="logic_arc_int__baselibs__json-backto-comp_arc_sta__baselibs__json" style="stroke:#181818;stroke-width:1;"/><polygon fill="#181818" points="3355,198.75,3351,207.75,3355,203.75,3359,207.75,3355,198.75" style="stroke:#181818;stroke-width:1;"/><text fill="#000000" font-family="sans-serif" font-size="13" lengthAdjust="spacing" textLength="76.9082" x="3356" y="241.5669">implements</text></g><!--link Feature_User to logic_arc_int__baselibs__json--><g id="link_Feature_User_logic_arc_int__baselibs__json"><path codeLine="40" d="M3091.26,63.98 C3150.1,89.31 3246.7089,130.8876 3305.1089,156.0276 " fill="transparent" id="Feature_User-to-logic_arc_int__baselibs__json" style="stroke:#181818;stroke-width:1;"/><polygon fill="#181818" points="3310.62,158.4,3303.935,151.1674,3306.0275,156.423,3300.7718,158.5154,3310.62,158.4" style="stroke:#181818;stroke-width:1;"/><text fill="#000000" font-family="sans-serif" font-size="13" lengthAdjust="spacing" textLength="23.0103" x="3238" y="124.5669">use</text></g><!--link Feature_User to logic_arc_int__baselibs__utils_base64--><g id="link_Feature_User_logic_arc_int__baselibs__utils_base64"><path codeLine="41" d="M3000.98,62.16 C2937.23,87.18 2826.6858,130.5494 2761.0758,156.2794 " fill="transparent" id="Feature_User-to-logic_arc_int__baselibs__utils_base64" style="stroke:#181818;stroke-width:1;"/><polygon fill="#181818" points="2755.49,158.47,2765.3291,158.908,2760.1449,156.6445,2762.4084,151.4603,2755.49,158.47" style="stroke:#181818;stroke-width:1;"/><text fill="#000000" font-family="sans-serif" font-size="13" lengthAdjust="spacing" textLength="23.0103" x="2867" y="124.5669">use</text></g><!--link Feature_User to logic_arc_int__baselibs__result--><g id="link_Feature_User_logic_arc_int__baselibs__result"><path codeLine="42" d="M3091.01,48.25 C3247.02,61.38 3779.04,107.27 4217,158.5 C4222.56,159.15 4222.2954,159.1035 4228.0354,159.8135 " fill="transparent" id="Feature_User-to-logic_arc_int__baselibs__result" style="stroke:#181818;stroke-width:1;"/><polygon fill="#181818" points="4233.99,160.55,4225.5491,155.4754,4229.0278,159.9362,4224.567,163.4149,4233.99,160.55" style="stroke:#181818;stroke-width:1;"/><text fill="#000000" font-family="sans-serif" font-size="13" lengthAdjust="spacing" textLength="23.0103" x="3929" y="124.5669">use</text></g><!--reverse link logic_arc_int__baselibs__bit_manipulation to comp_arc_sta__baselibs__bit_manipulation--><g id="link_logic_arc_int__baselibs__bit_manipulation_comp_arc_sta__baselibs__bit_manipulation"><path codeLine="43" d="M4001.9438,201.9169 C3967.6838,223.2069 3917.93,254.14 3883.76,275.38 " fill="transparent" id="logic_arc_int__baselibs__bit_manipulation-backto-comp_arc_sta__baselibs__bit_manipulation" style="stroke:#181818;stroke-width:1;"/><polygon fill="#181818" points="4007.04,198.75,3997.2845,200.1029,4002.7932,201.3891,4001.507,206.8978,4007.04,198.75" style="stroke:#181818;stroke-width:1;"/><text fill="#000000" font-family="sans-serif" font-size="13" lengthAdjust="spacing" textLength="76.9082" x="3957" y="241.5669">implements</text></g><!--reverse link logic_arc_int__baselibs__shared_future to comp_arc_sta__baselibs__concurrency--><g id="link_logic_arc_int__baselibs__shared_future_comp_arc_sta__baselibs__concurrency"><path codeLine="44" d="M302.3458,199.3343 C403.7658,213.0543 538.86,230.85 663,245.5 C768.1,257.9 886.76,270.38 977.9,279.64 " fill="transparent" id="logic_arc_int__baselibs__shared_future-backto-comp_arc_sta__baselibs__concurrency" style="stroke:#181818;stroke-width:1;"/><polygon fill="#181818" points="296.4,198.53,304.7825,203.7004,301.3549,199.2003,305.855,195.7726,296.4,198.53" style="stroke:#181818;stroke-width:1;"/><text fill="#000000" font-family="sans-serif" font-size="13" lengthAdjust="spacing" textLength="76.9082" x="664" y="241.5669">implements</text></g><!--reverse link logic_arc_int__baselibs__synchronized_queue to comp_arc_sta__baselibs__concurrency--><g id="link_logic_arc_int__baselibs__synchronized_queue_comp_arc_sta__baselibs__concurrency"><path codeLine="45" d="M1643.5391,199.6361 C1527.7591,220.9461 1347.26,254.16 1231.5,275.46 " fill="transparent" id="logic_arc_int__baselibs__synchronized_queue-backto-comp_arc_sta__baselibs__concurrency" style="stroke:#181818;stroke-width:1;"/><polygon fill="#181818" points="1649.44,198.55,1639.8646,196.2452,1644.5226,199.4551,1641.3127,204.1131,1649.44,198.55" style="stroke:#181818;stroke-width:1;"/><text fill="#000000" font-family="sans-serif" font-size="13" lengthAdjust="spacing" textLength="76.9082" x="1479" y="241.5669">implements</text></g><!--link Feature_User to logic_arc_int__baselibs__synchronized_queue--><g id="link_Feature_User_logic_arc_int__baselibs__synchronized_queue"><path codeLine="46" d="M3000.74,49.16 C2831.28,66.59 2234.6085,127.9661 1933.2185,158.9661 " fill="transparent" id="Feature_User-to-logic_arc_int__baselibs__synchronized_queue" style="stroke:#181818;stroke-width:1;"/><polygon fill="#181818" points="1927.25,159.58,1936.612,162.6382,1932.2238,159.0684,1935.7935,154.6801,1927.25,159.58" style="stroke:#181818;stroke-width:1;"/><text fill="#000000" font-family="sans-serif" font-size="13" lengthAdjust="spacing" textLength="23.0103" x="2361" y="124.5669">use</text></g><!--reverse link logic_arc_int__baselibs__utils_scoped_op to comp_arc_sta__baselibs__utils--><g id="link_logic_arc_int__baselibs__utils_scoped_op_comp_arc_sta__baselibs__utils"><path codeLine="47" d="M3012.5799,202.1113 C2981.0999,223.4013 2935.66,254.14 2904.26,275.38 " fill="transparent" id="logic_arc_int__baselibs__utils_scoped_op-backto-comp_arc_sta__baselibs__utils" style="stroke:#181818;stroke-width:1;"/><polygon fill="#181818" points="3017.55,198.75,3007.854,200.4785,3013.4083,201.5511,3012.3357,207.1053,3017.55,198.75" style="stroke:#181818;stroke-width:1;"/><text fill="#000000" font-family="sans-serif" font-size="13" lengthAdjust="spacing" textLength="76.9082" x="2972" y="241.5669">implements</text></g><!--reverse link logic_arc_int__baselibs__promise to comp_arc_sta__baselibs__concurrency--><g id="link_logic_arc_int__baselibs__promise_comp_arc_sta__baselibs__concurrency"><path codeLine="48" d="M1062.401,203.6155 C1077.721,224.8455 1098.72,253.94 1114.06,275.19 " fill="transparent" id="logic_arc_int__baselibs__promise-backto-comp_arc_sta__baselibs__concurrency" style="stroke:#181818;stroke-width:1;"/><polygon fill="#181818" points="1058.89,198.75,1060.9129,208.3889,1061.8158,202.8046,1067.4002,203.7075,1058.89,198.75" style="stroke:#181818;stroke-width:1;"/><text fill="#000000" font-family="sans-serif" font-size="13" lengthAdjust="spacing" textLength="76.9082" x="1093" y="241.5669">implements</text></g><!--link Feature_User to logic_arc_int__baselibs__task--><g id="link_Feature_User_logic_arc_int__baselibs__task"><path codeLine="49" d="M3000.86,45.94 C2816.32,51.94 2101.31,76.3 1514,111.5 C1239.48,127.95 1170.42,128.88 897,158.5 C891.12,159.14 891.056,159.1051 884.976,159.8451 " fill="transparent" id="Feature_User-to-logic_arc_int__baselibs__task" style="stroke:#181818;stroke-width:1;"/><polygon fill="#181818" points="879.02,160.57,888.4373,163.4533,883.9834,159.9659,887.4708,155.5119,879.02,160.57" style="stroke:#181818;stroke-width:1;"/><text fill="#000000" font-family="sans-serif" font-size="13" lengthAdjust="spacing" textLength="23.0103" x="1515" y="124.5669">use</text></g><!--reverse link logic_arc_int__baselibs__task to comp_arc_sta__baselibs__concurrency--><g id="link_logic_arc_int__baselibs__task_comp_arc_sta__baselibs__concurrency"><path codeLine="50" d="M828.5741,200.4185 C896.3641,221.7185 999.59,254.15 1067.31,275.43 " fill="transparent" id="logic_arc_int__baselibs__task-backto-comp_arc_sta__baselibs__concurrency" style="stroke:#181818;stroke-width:1;"/><polygon fill="#181818" points="822.85,198.62,830.2371,205.1339,827.6201,200.1188,832.6352,197.5018,822.85,198.62" style="stroke:#181818;stroke-width:1;"/><text fill="#000000" font-family="sans-serif" font-size="13" lengthAdjust="spacing" textLength="76.9082" x="968" y="241.5669">implements</text></g><!--reverse link logic_arc_int__baselibs__condition_variable to comp_arc_sta__baselibs__concurrency--><g id="link_logic_arc_int__baselibs__condition_variable_comp_arc_sta__baselibs__concurrency"><path codeLine="51" d="M1330.153,201.1359 C1284.103,222.4059 1215.59,254.05 1169.5,275.34 " fill="transparent" id="logic_arc_int__baselibs__condition_variable-backto-comp_arc_sta__baselibs__concurrency" style="stroke:#181818;stroke-width:1;"/><polygon fill="#181818" points="1335.6,198.62,1325.7522,198.7625,1331.0608,200.7166,1329.1067,206.0252,1335.6,198.62" style="stroke:#181818;stroke-width:1;"/><text fill="#000000" font-family="sans-serif" font-size="13" lengthAdjust="spacing" textLength="76.9082" x="1269" y="241.5669">implements</text></g><!--link Feature_User to logic_arc_int__baselibs__bit_manipulation--><g id="link_Feature_User_logic_arc_int__baselibs__bit_manipulation"><path codeLine="52" d="M3091.2,50.56 C3232.2,69.46 3662.1732,127.1127 3890.0232,157.6627 " fill="transparent" id="Feature_User-to-logic_arc_int__baselibs__bit_manipulation" style="stroke:#181818;stroke-width:1;"/><polygon fill="#181818" points="3895.97,158.46,3887.5814,153.2995,3891.0143,157.7955,3886.5183,161.2285,3895.97,158.46" style="stroke:#181818;stroke-width:1;"/><text fill="#000000" font-family="sans-serif" font-size="13" lengthAdjust="spacing" textLength="23.0103" x="3661" y="124.5669">use</text></g><!--SRC=[hLPDRzGm4BtxLrYzRq48SQYgNf0uSOIpvJZJtQ7-29vnQK3yTvnakqsYtSq7EJgPUNupy_niRMtufHo-eDyB3fNa88l079miCO9X35uSi0H93142rnLqQt0Lrr8pHomI0ubxujh2WxZLXBQGVyHNzF0vs11bXB9TVJkWUV9093_SlXT_nVsxOuxGXdFSpHVGd2B8xmJnHcgInm-g-I25CC5LIaUZYBLIXIQmM91I9dYJOWHlQhbBkmTfmnvD6ucU-v6FgS6xa-Wg2muyanI3JNRbjVIozjgrlwAkxsGYa1T9EN0XreeEEjS_GMiGkvfTRaE9pSZKiuwe2mj7YWimMDEJYa39ylBaAWQ7j69NbqMXzw0gJPIbk1mWCLfIP485fGhLn6XoerXdGKQQc4jUnaJu3CeYyN0mby0VqGBL-RouAIsU0kS1ZveqAQbHIrUAgizowLGwFPyEtN9L34x5rP5safteoQkkLxQYG5QkEHzPPL5dnrfUqbXGKpATQMlm0YQrXEO8QRRyHtOt4ticvu7Jp87ksk-nIbOtBZU1VsPQQuz0Nx-NsBKED46fSwbc_UdZQZPlixxAvmTDTgW9MKsZIrxdqwyTM9ezk9SsbSbR-DOo7tdWnk2rDuSOFFxEM_nCaDO_RSv1RIJuthMyRVcdzyRAcXiBsio3Ex1j2pptelklowklyxRkVm00]--></g></svg>