<svg xmlns="http://www.w3.org/2000/svg" xmlns:xlink="http://www.w3.org/1999/xlink" contentStyleType="text/css" data-diagram-type="CLASS" height="381px" preserveAspectRatio="none" style="width:552px;height:381px;background:#FFFFFF;" version="1.1" viewBox="0 0 552 381" width="552px" zoomAndPan="magnify"><defs/><g><!--cluster mod__logging_repo--><a href="../_collections/score_logging/docs/module/index.html#mod__logging_repo" target="_top" title="../_collections/score_logging/docs/module/index.html#mod__logging_repo" xlink:actuate="onRequest" xlink:href="../_collections/score_logging/docs/module/index.html#mod__logging_repo" xlink:show="new" xlink:title="../_collections/score_logging/docs/module/index.html#mod__logging_repo" xlink:type="simple"><path d="M136.5,277.5 L200.8691,277.5 A3.75,3.75 0 0 1 203.3691,280 L210.3691,299.7969 L476.5,299.7969 A2.5,2.5 0 0 1 479,302.2969 L479,372 A2.5,2.5 0 0 1 476.5,374.5 L136.5,374.5 A2.5,2.5 0 0 1 134,372 L134,280 A2.5,2.5 0 0 1 136.5,277.5 " fill="transparent" style="stroke:#000000;stroke-width:1.5;"/><line style="stroke:#000000;stroke-width:1.5;" x1="134" x2="210.3691" y1="299.7969" y2="299.7969"/><text fill="#000000" font-family="sans-serif" font-size="14" font-weight="bold" lengthAdjust="spacing" textLength="63.3691" x="138" y="292.4951">Logging</text></a><!--entity comp__datarouter--><a href="../_collections/score_logging/docs/components/datarouter/index.html#comp__datarouter" target="_top" title="../_collections/score_logging/docs/components/datarouter/index.html#comp__datarouter" xlink:actuate="onRequest" xlink:href="../_collections/score_logging/docs/components/datarouter/index.html#comp__datarouter" xlink:show="new" xlink:title="../_collections/score_logging/docs/components/datarouter/index.html#comp__datarouter" xlink:type="simple"><rect fill="#F1F1F1" height="46.2969" rx="2.5" ry="2.5" style="stroke:#181818;stroke-width:0.5;" width="116.4805" x="347" y="312.5"/><rect fill="#F1F1F1" height="10" style="stroke:#181818;stroke-width:0.5;" width="15" x="443.4805" y="317.5"/><rect fill="#F1F1F1" height="2" style="stroke:#181818;stroke-width:0.5;" width="4" x="441.4805" y="319.5"/><rect fill="#F1F1F1" height="2" style="stroke:#181818;stroke-width:0.5;" width="4" x="441.4805" y="323.5"/><text fill="#000000" font-family="sans-serif" font-size="14" lengthAdjust="spacing" textLength="76.4805" x="362" y="345.4951">Datarouter</text></a><!--entity comp__mw_log_backend--><a href="../_collections/score_logging/docs/components/mw_log/architecture/component_architecture.html#comp__mw_log_backend" target="_top" title="../_collections/score_logging/docs/components/mw_log/architecture/component_architecture.html#comp__mw_log_backend" xlink:actuate="onRequest" xlink:href="../_collections/score_logging/docs/components/mw_log/architecture/component_architecture.html#comp__mw_log_backend" xlink:show="new" xlink:title="../_collections/score_logging/docs/components/mw_log/architecture/component_architecture.html#comp__mw_log_backend" xlink:type="simple"><rect fill="#F1F1F1" height="46.2969" rx="2.5" ry="2.5" style="stroke:#FF0000;stroke-width:2;" width="160.6748" x="150.5" y="312.5"/><rect fill="#F1F1F1" height="10" style="stroke:#FF0000;stroke-width:2;" width="15" x="291.1748" y="317.5"/><rect fill="#F1F1F1" height="2" style="stroke:#FF0000;stroke-width:2;" width="4" x="289.1748" y="319.5"/><rect fill="#F1F1F1" height="2" style="stroke:#FF0000;stroke-width:2;" width="4" x="289.1748" y="323.5"/><text fill="#000000" font-family="sans-serif" font-size="14" lengthAdjust="spacing" textLength="120.6748" x="165.5" y="345.4951">mw::log Backend</text></a><!--entity Feature_User--><g id="elem_Feature_User"><ellipse cx="51.1685" cy="14" fill="#F1F1F1" rx="8" ry="8" style="stroke:#181818;stroke-width:0.5;"/><path d="M51.1685,22 L51.1685,49 M38.1685,30 L64.1685,30 M51.1685,49 L38.1685,64 M51.1685,49 L64.1685,64 " fill="transparent" style="stroke:#181818;stroke-width:0.5;"/><text fill="#000000" font-family="sans-serif" font-size="14" lengthAdjust="spacing" textLength="90.3369" x="6" y="78.4951">Feature User</text></g><!--class logic_arc_int__logging__session_ctrl_channel--><a href="../_collections/score_logging/docs/components/mw_log/architecture/component_architecture.html#logic_arc_int__logging__session_ctrl_channel" target="_top" title="../_collections/score_logging/docs/components/mw_log/architecture/component_architecture.html#logic_arc_int__logging__session_ctrl_channel" xlink:actuate="onRequest" xlink:href="../_collections/score_logging/docs/components/mw_log/architecture/component_architecture.html#logic_arc_int__logging__session_ctrl_channel" xlink:show="new" xlink:title="../_collections/score_logging/docs/components/mw_log/architecture/component_architecture.html#logic_arc_int__logging__session_ctrl_channel" xlink:type="simple"><g id="elem_logic_arc_int__logging__session_ctrl_channel"><rect codeLine="14" fill="#F1F1F1" height="40" id="logic_arc_int__logging__session_ctrl_channel" rx="2.5" ry="2.5" style="stroke:#181818;stroke-width:0.5;" width="144.8408" x="400.5" y="166.5"/><ellipse cx="415.5" cy="182.5" fill="#B4A7E5" rx="11" ry="11" style="stroke:#181818;stroke-width:1;"/><path d="M411.4219,178.2656 L411.4219,176.1094 L418.8125,176.1094 L418.8125,178.2656 L416.3438,178.2656 L416.3438,186.3438 L418.8125,186.3438 L418.8125,188.5 L411.4219,188.5 L411.4219,186.3438 L413.8906,186.3438 L413.8906,178.2656 L411.4219,178.2656 Z " fill="#000000"/><text fill="#000000" font-family="sans-serif" font-size="14" font-style="italic" lengthAdjust="spacing" textLength="112.8408" x="429.5" y="187.3467">Control Channel</text><line style="stroke:#181818;stroke-width:0.5;" x1="401.5" x2="544.3408" y1="198.5" y2="198.5"/></g></a><!--class logic_arc_int__logging__shm--><a href="../_collections/score_logging/docs/components/mw_log/architecture/component_architecture.html#logic_arc_int__logging__shm" target="_top" title="../_collections/score_logging/docs/components/mw_log/architecture/component_architecture.html#logic_arc_int__logging__shm" xlink:actuate="onRequest" xlink:href="../_collections/score_logging/docs/components/mw_log/architecture/component_architecture.html#logic_arc_int__logging__shm" xlink:show="new" xlink:title="../_collections/score_logging/docs/components/mw_log/architecture/component_architecture.html#logic_arc_int__logging__shm" xlink:type="simple"><g id="elem_logic_arc_int__logging__shm"><rect codeLine="19" fill="#F1F1F1" height="40" id="logic_arc_int__logging__shm" rx="2.5" ry="2.5" style="stroke:#181818;stroke-width:0.5;" width="226.9814" x="135.5" y="166.5"/><ellipse cx="150.5" cy="182.5" fill="#B4A7E5" rx="11" ry="11" style="stroke:#181818;stroke-width:1;"/><path d="M146.4219,178.2656 L146.4219,176.1094 L153.8125,176.1094 L153.8125,178.2656 L151.3438,178.2656 L151.3438,186.3438 L153.8125,186.3438 L153.8125,188.5 L146.4219,188.5 L146.4219,186.3438 L148.8906,186.3438 L148.8906,178.2656 L146.4219,178.2656 Z " fill="#000000"/><text fill="#000000" font-family="sans-serif" font-size="14" font-style="italic" lengthAdjust="spacing" textLength="194.9814" x="164.5" y="187.3467">Log Record Shared-Memory</text><line style="stroke:#181818;stroke-width:0.5;" x1="136.5" x2="361.4814" y1="198.5" y2="198.5"/></g></a><!--class logic_arc_int__log_cpp__logging--><a href="../_collections/score_platform/docs/features/analysis-infra/logging/docs/architecture/index.html#logic_arc_int__log_cpp__logging" target="_top" title="../_collections/score_platform/docs/features/analysis-infra/logging/docs/architecture/index.html#logic_arc_int__log_cpp__logging" xlink:actuate="onRequest" xlink:href="../_collections/score_platform/docs/features/analysis-infra/logging/docs/architecture/index.html#logic_arc_int__log_cpp__logging" xlink:show="new" xlink:title="../_collections/score_platform/docs/features/analysis-infra/logging/docs/architecture/index.html#logic_arc_int__log_cpp__logging" xlink:type="simple"><g id="elem_logic_arc_int__log_cpp__logging"><rect codeLine="24" fill="#F1F1F1" height="56.2969" id="logic_arc_int__log_cpp__logging" rx="2.5" ry="2.5" style="stroke:#181818;stroke-width:0.5;" width="87.7881" x="7" y="158.5"/><ellipse cx="22" cy="174.5" fill="#B4A7E5" rx="11" ry="11" style="stroke:#181818;stroke-width:1;"/><path d="M17.9219,170.2656 L17.9219,168.1094 L25.3125,168.1094 L25.3125,170.2656 L22.8438,170.2656 L22.8438,178.3438 L25.3125,178.3438 L25.3125,180.5 L17.9219,180.5 L17.9219,178.3438 L20.3906,178.3438 L20.3906,170.2656 L17.9219,170.2656 Z " fill="#000000"/><text fill="#000000" font-family="sans-serif" font-size="14" font-style="italic" lengthAdjust="spacing" textLength="55.7881" x="36" y="179.3467">Logging</text><line style="stroke:#181818;stroke-width:0.5;" x1="8" x2="93.7881" y1="190.5" y2="190.5"/></g><a href="../_collections/score_platform/docs/features/analysis-infra/logging/docs/architecture/index.html#logic_arc_int_op__logging__log" target="_top" title="../_collections/score_platform/docs/features/analysis-infra/logging/docs/architecture/index.html#logic_arc_int_op__logging__log" xlink:actuate="onRequest" xlink:href="../_collections/score_platform/docs/features/analysis-infra/logging/docs/architecture/index.html#logic_arc_int_op__logging__log" xlink:show="new" xlink:title="../_collections/score_platform/docs/features/analysis-infra/logging/docs/architecture/index.html#logic_arc_int_op__logging__log" xlink:type="simple"><rect fill="#F1F1F1" height="10" style="stroke:transparent;stroke-width:1;" width="20" x="13" y="199.1484"/><ellipse cx="18" cy="204.1484" fill="#84BE84" rx="3" ry="3" style="stroke:#038048;stroke-width:1;"/></a></a><a href="../_collections/score_platform/docs/features/analysis-infra/logging/docs/architecture/index.html#logic_arc_int_op__logging__log" target="_top" title="../_collections/score_platform/docs/features/analysis-infra/logging/docs/architecture/index.html#logic_arc_int_op__logging__log" xlink:actuate="onRequest" xlink:href="../_collections/score_platform/docs/features/analysis-infra/logging/docs/architecture/index.html#logic_arc_int_op__logging__log" xlink:show="new" xlink:title="../_collections/score_platform/docs/features/analysis-infra/logging/docs/architecture/index.html#logic_arc_int_op__logging__log" xlink:type="simple"><text fill="#000000" font-family="sans-serif" font-size="14" lengthAdjust="spacing" textLength="40.626" x="27" y="207.4951">Log ()</text></a><!--reverse link logic_arc_int__logging__session_ctrl_channel to comp__mw_log_backend--><g id="link_logic_arc_int__logging__session_ctrl_channel_comp__mw_log_backend"><path codeLine="40" d="M401.6997,208.219 C346.2597,224.379 281.32,243.43 280,244.5 C258.28,262.06 244.77,291.93 237.57,312.41 " fill="transparent" id="logic_arc_int__logging__session_ctrl_channel-backto-comp__mw_log_backend" style="stroke:#181818;stroke-width:1;"/><polygon fill="#181818" points="407.46,206.54,397.7002,205.2184,402.6598,207.9392,399.9389,212.8987,407.46,206.54" style="stroke:#181818;stroke-width:1;"/><text fill="#000000" font-family="sans-serif" font-size="13" lengthAdjust="spacing" textLength="76.9082" x="281" y="257.5669">implements</text></g><!--link comp__datarouter to logic_arc_int__logging__shm--><g id="link_comp__datarouter_logic_arc_int__logging__shm"><path codeLine="41" d="M400.1,312.43 C394.69,292.54 384.24,263.57 366,244.5 C350.15,227.93 333.9666,217.9458 313.5866,209.0258 " fill="transparent" id="comp__datarouter-to-logic_arc_int__logging__shm" style="stroke:#008000;stroke-width:1;"/><polygon fill="#008000" points="308.09,206.62,314.731,213.893,312.6705,208.6248,317.9387,206.5643,308.09,206.62" style="stroke:#008000;stroke-width:1;"/><text fill="#000000" font-family="sans-serif" font-size="13" lengthAdjust="spacing" textLength="29.7832" x="380" y="257.5669">uses</text></g><!--link Feature_User to logic_arc_int__log_cpp__logging--><g id="link_Feature_User_logic_arc_int__log_cpp__logging"><path codeLine="42" d="M51,81.55 C51,105.53 51,130.25 51,152.06 " fill="transparent" id="Feature_User-to-logic_arc_int__log_cpp__logging" style="stroke:#181818;stroke-width:1;"/><polygon fill="#181818" points="51,158.06,55,149.06,51,153.06,47,149.06,51,158.06" style="stroke:#181818;stroke-width:1;"/><text fill="#000000" font-family="sans-serif" font-size="13" lengthAdjust="spacing" textLength="23.0103" x="52" y="124.5669">use</text></g><!--reverse link logic_arc_int__log_cpp__logging to comp__mw_log_backend--><g id="link_logic_arc_int__log_cpp__logging_comp__mw_log_backend"><path codeLine="43" d="M56.624,220.6306 C60.214,235.8906 65.34,248.55 77,261.5 C97.79,284.59 127.43,301.02 155.17,312.37 " fill="transparent" id="logic_arc_int__log_cpp__logging-backto-comp__mw_log_backend" style="stroke:#181818;stroke-width:1;"/><polygon fill="#181818" points="55.25,214.79,53.4173,224.4668,56.395,219.6571,61.2047,222.6348,55.25,214.79" style="stroke:#181818;stroke-width:1;"/><text fill="#000000" font-family="sans-serif" font-size="13" lengthAdjust="spacing" textLength="76.9082" x="78" y="257.5669">implements</text></g><!--link comp__datarouter to logic_arc_int__logging__session_ctrl_channel--><g id="link_comp__datarouter_logic_arc_int__logging__session_ctrl_channel"><path codeLine="44" d="M415.22,312.4 C428.51,283.67 448.9911,239.4056 461.5911,212.1656 " fill="transparent" id="comp__datarouter-to-logic_arc_int__logging__session_ctrl_channel" style="stroke:#008000;stroke-width:1;"/><polygon fill="#008000" points="464.11,206.72,456.7012,213.2092,462.0109,211.258,463.9621,216.5677,464.11,206.72" style="stroke:#008000;stroke-width:1;"/><text fill="#000000" font-family="sans-serif" font-size="13" lengthAdjust="spacing" textLength="29.7832" x="446" y="257.5669">uses</text></g><!--reverse link logic_arc_int__logging__shm to comp__mw_log_backend--><g id="link_logic_arc_int__logging__shm_comp__mw_log_backend"><path codeLine="45" d="M200.2023,209.7156 C184.8923,218.8156 174.55,228.26 166,244.5 C152.98,269.23 175.56,294.82 197.59,312.36 " fill="transparent" id="logic_arc_int__logging__shm-backto-comp__mw_log_backend" style="stroke:#181818;stroke-width:1;"/><polygon fill="#181818" points="205.36,206.65,195.5797,207.81,201.0619,209.2047,199.6672,214.6869,205.36,206.65" style="stroke:#181818;stroke-width:1;"/><text fill="#000000" font-family="sans-serif" font-size="13" lengthAdjust="spacing" textLength="76.9082" x="167" y="257.5669">implements</text></g><!--SRC=[nPHBZzem58Nt_XLNp69QLI5LbmYnA5LNqqqVAnHPnhaarjY-aMt4e6h-UvqOGG9XD5HzxEB7kVTy9xQ5rhJZHZqfMx503GI2DOL01ahbK0P5bjMgHF017LBODvZ6Q9gm1n62K-jjGC_cFkmrBjXKUANNy9CzA8jBqkJ0OTcDljTAFbhq7ZvCtxDdDiyF6YPaYFicdr64hKFuuT5DG7WuJF1s0fYoqSH6I8J9acnmf65P2sjHTvirLKfouIIF6pcFmofYSUvZnyZ1PN2QooG0MAscqvnBqZfX-jnBYgqEihmawND9fY6BDlZSxDgbF9QlLOYIQEkqpFlJqpeOVNUBcwA8UJ7s3Fazd971VGwiJ_v05Np5QBM4RxM8qMPVq93Rlnn1RVuZSMtwWDS0naZR0bV0k6oQOvFhS8qMOKFE9BfDEay-5rRelLS-KtRZH3w8O02iR8bFr_W67XBZkuxlpTjew5yxegONUlmeYk8KUPTIbt0ZvAEepl8rL9x43XjwvN69kgqUUBge57E9mHmF3am-YI0SnKSZtV5sXVFoE7dxGJrf-qREwoOVNHud1ocIdZcpcyrY7_WOKq9RzXocwy3NQG7cy-wXMop- -hqQQz-3ENESY2v_EnkboBRPugQ7SmRAD1fDImBiujzbvUgkSeYsUAbkRMQmZTM13Hxuh1mL3MvP9uIROCxqVy3_Q2u9w3TIRjFec_e5]--></g></svg>