<svg xmlns="http://www.w3.org/2000/svg" xmlns:xlink="http://www.w3.org/1999/xlink" contentStyleType="text/css" data-diagram-type="CLASS" height="322px" preserveAspectRatio="none" style="width:6186px;height:322px;background:#FFFFFF;" version="1.1" viewBox="0 0 6186 322" width="6186px" zoomAndPan="magnify"><defs/><g><!--entity Feature_User--><g id="elem_Feature_User"><ellipse cx="3047.1685" cy="14" fill="#F1F1F1" rx="8" ry="8" style="stroke:#181818;stroke-width:0.5;"/><path d="M3047.1685,22 L3047.1685,49 M3034.1685,30 L3060.1685,30 M3047.1685,49 L3034.1685,64 M3047.1685,49 L3060.1685,64 " fill="transparent" style="stroke:#181818;stroke-width:0.5;"/><text fill="#000000" font-family="sans-serif" font-size="14" lengthAdjust="spacing" textLength="90.3369" x="3002" y="78.4951">Feature User</text></g><!--class logic_arc_int__baselibs__synchronized_queue--><g id="elem_logic_arc_int__baselibs__synchronized_queue"><rect fill="#F1F1F1" height="40" id="logic_arc_int__baselibs__synchronized_queue" rx="2.5" ry="2.5" style="stroke:#181818;stroke-width:0.5;" width="348.3604" x="1559" y="158.5"/><ellipse cx="1574" cy="174.5" fill="#ADD1B2" rx="11" ry="11" style="stroke:#181818;stroke-width:1;"/><path d="M1576.9688,180.1406 Q1576.3906,180.4375 1575.75,180.5781 Q1575.1094,180.7344 1574.4063,180.7344 Q1571.9063,180.7344 1570.5781,179.0938 Q1569.2656,177.4375 1569.2656,174.3125 Q1569.2656,171.1875 1570.5781,169.5313 Q1571.9063,167.875 1574.4063,167.875 Q1575.1094,167.875 1575.75,168.0313 Q1576.4063,168.1875 1576.9688,168.4844 L1576.9688,171.2031 Q1576.3438,170.625 1575.75,170.3594 Q1575.1563,170.0781 1574.5313,170.0781 Q1573.1875,170.0781 1572.5,171.1563 Q1571.8125,172.2188 1571.8125,174.3125 Q1571.8125,176.4063 1572.5,177.4844 Q1573.1875,178.5469 1574.5313,178.5469 Q1575.1563,178.5469 1575.75,178.2813 Q1576.3438,178 1576.9688,177.4219 L1576.9688,180.1406 Z " fill="#000000"/><text fill="#000000" font-family="sans-serif" font-size="14" lengthAdjust="spacing" textLength="316.3604" x="1588" y="179.3467">logic_arc_int__baselibs__synchronized_queue</text><line style="stroke:#181818;stroke-width:0.5;" x1="1560" x2="1906.3604" y1="190.5" y2="190.5"/></g><!--class comp_arc_sta__baselibs__concurrency--><g id="elem_comp_arc_sta__baselibs__concurrency"><rect fill="#F1F1F1" height="40" id="comp_arc_sta__baselibs__concurrency" rx="2.5" ry="2.5" style="stroke:#181818;stroke-width:0.5;" width="300.2012" x="988" y="275.5"/><ellipse cx="1003" cy="291.5" fill="#ADD1B2" rx="11" ry="11" style="stroke:#181818;stroke-width:1;"/><path d="M1005.9688,297.1406 Q1005.3906,297.4375 1004.75,297.5781 Q1004.1094,297.7344 1003.4063,297.7344 Q1000.9063,297.7344 999.5781,296.0938 Q998.2656,294.4375 998.2656,291.3125 Q998.2656,288.1875 999.5781,286.5313 Q1000.9063,284.875 1003.4063,284.875 Q1004.1094,284.875 1004.75,285.0313 Q1005.4063,285.1875 1005.9688,285.4844 L1005.9688,288.2031 Q1005.3438,287.625 1004.75,287.3594 Q1004.1563,287.0781 1003.5313,287.0781 Q1002.1875,287.0781 1001.5,288.1563 Q1000.8125,289.2188 1000.8125,291.3125 Q1000.8125,293.4063 1001.5,294.4844 Q1002.1875,295.5469 1003.5313,295.5469 Q1004.1563,295.5469 1004.75,295.2813 Q1005.3438,295 1005.9688,294.4219 L1005.9688,297.1406 Z " fill="#000000"/><text fill="#000000" font-family="sans-serif" font-size="14" lengthAdjust="spacing" textLength="268.2012" x="1017" y="296.3467">comp_arc_sta__baselibs__concurrency</text><line style="stroke:#181818;stroke-width:0.5;" x1="989" x2="1287.2012" y1="307.5" y2="307.5"/></g><!--class logic_arc_int__baselibs__shared_future--><g id="elem_logic_arc_int__baselibs__shared_future"><rect fill="#F1F1F1" height="40" id="logic_arc_int__baselibs__shared_future" rx="2.5" ry="2.5" style="stroke:#181818;stroke-width:0.5;" width="302.0811" x="2225" y="158.5"/><ellipse cx="2240" cy="174.5" fill="#ADD1B2" rx="11" ry="11" style="stroke:#181818;stroke-width:1;"/><path d="M2242.9688,180.1406 Q2242.3906,180.4375 2241.75,180.5781 Q2241.1094,180.7344 2240.4063,180.7344 Q2237.9063,180.7344 2236.5781,179.0938 Q2235.2656,177.4375 2235.2656,174.3125 Q2235.2656,171.1875 2236.5781,169.5313 Q2237.9063,167.875 2240.4063,167.875 Q2241.1094,167.875 2241.75,168.0313 Q2242.4063,168.1875 2242.9688,168.4844 L2242.9688,171.2031 Q2242.3438,170.625 2241.75,170.3594 Q2241.1563,170.0781 2240.5313,170.0781 Q2239.1875,170.0781 2238.5,171.1563 Q2237.8125,172.2188 2237.8125,174.3125 Q2237.8125,176.4063 2238.5,177.4844 Q2239.1875,178.5469 2240.5313,178.5469 Q2241.1563,178.5469 2241.75,178.2813 Q2242.3438,178 2242.9688,177.4219 L2242.9688,180.1406 Z " fill="#000000"/><text fill="#000000" font-family="sans-serif" font-size="14" lengthAdjust="spacing" textLength="270.0811" x="2254" y="179.3467">logic_arc_int__baselibs__shared_future</text><line style="stroke:#181818;stroke-width:0.5;" x1="2226" x2="2526.0811" y1="190.5" y2="190.5"/></g><!--class comp_arc_sta__baselibs__utils--><g id="elem_comp_arc_sta__baselibs__utils"><rect fill="#F1F1F1" height="40" id="comp_arc_sta__baselibs__utils" rx="2.5" ry="2.5" style="stroke:#181818;stroke-width:0.5;" width="242.9502" x="5741.5" y="275.5"/><ellipse cx="5756.5" cy="291.5" fill="#ADD1B2" rx="11" ry="11" style="stroke:#181818;stroke-width:1;"/><path d="M5759.4688,297.1406 Q5758.8906,297.4375 5758.25,297.5781 Q5757.6094,297.7344 5756.9063,297.7344 Q5754.4063,297.7344 5753.0781,296.0938 Q5751.7656,294.4375 5751.7656,291.3125 Q5751.7656,288.1875 5753.0781,286.5313 Q5754.4063,284.875 5756.9063,284.875 Q5757.6094,284.875 5758.25,285.0313 Q5758.9063,285.1875 5759.4688,285.4844 L5759.4688,288.2031 Q5758.8438,287.625 5758.25,287.3594 Q5757.6563,287.0781 5757.0313,287.0781 Q5755.6875,287.0781 5755,288.1563 Q5754.3125,289.2188 5754.3125,291.3125 Q5754.3125,293.4063 5755,294.4844 Q5755.6875,295.5469 5757.0313,295.5469 Q5757.6563,295.5469 5758.25,295.2813 Q5758.8438,295 5759.4688,294.4219 L5759.4688,297.1406 Z " fill="#000000"/><text fill="#000000" font-family="sans-serif" font-size="14" lengthAdjust="spacing" textLength="210.9502" x="5770.5" y="296.3467">comp_arc_sta__baselibs__utils</text><line style="stroke:#181818;stroke-width:0.5;" x1="5742.5" x2="5983.4502" y1="307.5" y2="307.5"/></g><!--class logic_arc_int__baselibs__utils_scoped_op--><g id="elem_logic_arc_int__baselibs__utils_scoped_op"><rect fill="#F1F1F1" height="40" id="logic_arc_int__baselibs__utils_scoped_op" rx="2.5" ry="2.5" style="stroke:#181818;stroke-width:0.5;" width="315.377" x="5536.5" y="158.5"/><ellipse cx="5551.5" cy="174.5" fill="#ADD1B2" rx="11" ry="11" style="stroke:#181818;stroke-width:1;"/><path d="M5554.4688,180.1406 Q5553.8906,180.4375 5553.25,180.5781 Q5552.6094,180.7344 5551.9063,180.7344 Q5549.4063,180.7344 5548.0781,179.0938 Q5546.7656,177.4375 5546.7656,174.3125 Q5546.7656,171.1875 5548.0781,169.5313 Q5549.4063,167.875 5551.9063,167.875 Q5552.6094,167.875 5553.25,168.0313 Q5553.9063,168.1875 5554.4688,168.4844 L5554.4688,171.2031 Q5553.8438,170.625 5553.25,170.3594 Q5552.6563,170.0781 5552.0313,170.0781 Q5550.6875,170.0781 5550,171.1563 Q5549.3125,172.2188 5549.3125,174.3125 Q5549.3125,176.4063 5550,177.4844 Q5550.6875,178.5469 5552.0313,178.5469 Q5552.6563,178.5469 5553.25,178.2813 Q5553.8438,178 5554.4688,177.4219 L5554.4688,180.1406 Z " fill="#000000"/><text fill="#000000" font-family="sans-serif" font-size="14" lengthAdjust="spacing" textLength="283.377" x="5565.5" y="179.3467">logic_arc_int__baselibs__utils_scoped_op</text><line style="stroke:#181818;stroke-width:0.5;" x1="5537.5" x2="5850.877" y1="190.5" y2="190.5"/></g><!--class logic_arc_int__baselibs__json--><g id="elem_logic_arc_int__baselibs__json"><rect fill="#F1F1F1" height="40" id="logic_arc_int__baselibs__json" rx="2.5" ry="2.5" style="stroke:#181818;stroke-width:0.5;" width="233.168" x="5268.5" y="158.5"/><ellipse cx="5283.5" cy="174.5" fill="#ADD1B2" rx="11" ry="11" style="stroke:#181818;stroke-width:1;"/><path d="M5286.4688,180.1406 Q5285.8906,180.4375 5285.25,180.5781 Q5284.6094,180.7344 5283.9063,180.7344 Q5281.4063,180.7344 5280.0781,179.0938 Q5278.7656,177.4375 5278.7656,174.3125 Q5278.7656,171.1875 5280.0781,169.5313 Q5281.4063,167.875 5283.9063,167.875 Q5284.6094,167.875 5285.25,168.0313 Q5285.9063,168.1875 5286.4688,168.4844 L5286.4688,171.2031 Q5285.8438,170.625 5285.25,170.3594 Q5284.6563,170.0781 5284.0313,170.0781 Q5282.6875,170.0781 5282,171.1563 Q5281.3125,172.2188 5281.3125,174.3125 Q5281.3125,176.4063 5282,177.4844 Q5282.6875,178.5469 5284.0313,178.5469 Q5284.6563,178.5469 5285.25,178.2813 Q5285.8438,178 5286.4688,177.4219 L5286.4688,180.1406 Z " fill="#000000"/><text fill="#000000" font-family="sans-serif" font-size="14" lengthAdjust="spacing" textLength="201.168" x="5297.5" y="179.3467">logic_arc_int__baselibs__json</text><line style="stroke:#181818;stroke-width:0.5;" x1="5269.5" x2="5500.668" y1="190.5" y2="190.5"/></g><!--class logic_arc_int__baselibs__executor--><g id="elem_logic_arc_int__baselibs__executor"><rect fill="#F1F1F1" height="40" id="logic_arc_int__baselibs__executor" rx="2.5" ry="2.5" style="stroke:#181818;stroke-width:0.5;" width="266.4385" x="593" y="158.5"/><ellipse cx="608" cy="174.5" fill="#ADD1B2" rx="11" ry="11" style="stroke:#181818;stroke-width:1;"/><path d="M610.9688,180.1406 Q610.3906,180.4375 609.75,180.5781 Q609.1094,180.7344 608.4063,180.7344 Q605.9063,180.7344 604.5781,179.0938 Q603.2656,177.4375 603.2656,174.3125 Q603.2656,171.1875 604.5781,169.5313 Q605.9063,167.875 608.4063,167.875 Q609.1094,167.875 609.75,168.0313 Q610.4063,168.1875 610.9688,168.4844 L610.9688,171.2031 Q610.3438,170.625 609.75,170.3594 Q609.1563,170.0781 608.5313,170.0781 Q607.1875,170.0781 606.5,171.1563 Q605.8125,172.2188 605.8125,174.3125 Q605.8125,176.4063 606.5,177.4844 Q607.1875,178.5469 608.5313,178.5469 Q609.1563,178.5469 609.75,178.2813 Q610.3438,178 610.9688,177.4219 L610.9688,180.1406 Z " fill="#000000"/><text fill="#000000" font-family="sans-serif" font-size="14" lengthAdjust="spacing" textLength="234.4385" x="622" y="179.3467">logic_arc_int__baselibs__executor</text><line style="stroke:#181818;stroke-width:0.5;" x1="594" x2="858.4385" y1="190.5" y2="190.5"/></g><!--class logic_arc_int__baselibs__utils_base64--><g id="elem_logic_arc_int__baselibs__utils_base64"><rect fill="#F1F1F1" height="40" id="logic_arc_int__baselibs__utils_base64" rx="2.5" ry="2.5" style="stroke:#181818;stroke-width:0.5;" width="292.1689" x="5887" y="158.5"/><ellipse cx="5902" cy="174.5" fill="#ADD1B2" rx="11" ry="11" style="stroke:#181818;stroke-width:1;"/><path d="M5904.9688,180.1406 Q5904.3906,180.4375 5903.75,180.5781 Q5903.1094,180.7344 5902.4063,180.7344 Q5899.9063,180.7344 5898.5781,179.0938 Q5897.2656,177.4375 5897.2656,174.3125 Q5897.2656,171.1875 5898.5781,169.5313 Q5899.9063,167.875 5902.4063,167.875 Q5903.1094,167.875 5903.75,168.0313 Q5904.4063,168.1875 5904.9688,168.4844 L5904.9688,171.2031 Q5904.3438,170.625 5903.75,170.3594 Q5903.1563,170.0781 5902.5313,170.0781 Q5901.1875,170.0781 5900.5,171.1563 Q5899.8125,172.2188 5899.8125,174.3125 Q5899.8125,176.4063 5900.5,177.4844 Q5901.1875,178.5469 5902.5313,178.5469 Q5903.1563,178.5469 5903.75,178.2813 Q5904.3438,178 5904.9688,177.4219 L5904.9688,180.1406 Z " fill="#000000"/><text fill="#000000" font-family="sans-serif" font-size="14" lengthAdjust="spacing" textLength="260.1689" x="5916" y="179.3467">logic_arc_int__baselibs__utils_base64</text><line style="stroke:#181818;stroke-width:0.5;" x1="5888" x2="6178.1689" y1="190.5" y2="190.5"/></g><!--class logic_arc_int__baselibs__condition_variable--><g id="elem_logic_arc_int__baselibs__condition_variable"><rect fill="#F1F1F1" height="40" id="logic_arc_int__baselibs__condition_variable" rx="2.5" ry="2.5" style="stroke:#181818;stroke-width:0.5;" width="332.7539" x="1190.5" y="158.5"/><ellipse cx="1205.5" cy="174.5" fill="#ADD1B2" rx="11" ry="11" style="stroke:#181818;stroke-width:1;"/><path d="M1208.4688,180.1406 Q1207.8906,180.4375 1207.25,180.5781 Q1206.6094,180.7344 1205.9063,180.7344 Q1203.4063,180.7344 1202.0781,179.0938 Q1200.7656,177.4375 1200.7656,174.3125 Q1200.7656,171.1875 1202.0781,169.5313 Q1203.4063,167.875 1205.9063,167.875 Q1206.6094,167.875 1207.25,168.0313 Q1207.9063,168.1875 1208.4688,168.4844 L1208.4688,171.2031 Q1207.8438,170.625 1207.25,170.3594 Q1206.6563,170.0781 1206.0313,170.0781 Q1204.6875,170.0781 1204,171.1563 Q1203.3125,172.2188 1203.3125,174.3125 Q1203.3125,176.4063 1204,177.4844 Q1204.6875,178.5469 1206.0313,178.5469 Q1206.6563,178.5469 1207.25,178.2813 Q1207.8438,178 1208.4688,177.4219 L1208.4688,180.1406 Z " fill="#000000"/><text fill="#000000" font-family="sans-serif" font-size="14" lengthAdjust="spacing" textLength="300.7539" x="1219.5" y="179.3467">logic_arc_int__baselibs__condition_variable</text><line style="stroke:#181818;stroke-width:0.5;" x1="1191.5" x2="1522.2539" y1="190.5" y2="190.5"/></g><!--class comp_arc_sta__baselibs__containers--><g id="elem_comp_arc_sta__baselibs__containers"><rect fill="#F1F1F1" height="40" id="comp_arc_sta__baselibs__containers" rx="2.5" ry="2.5" style="stroke:#181818;stroke-width:0.5;" width="287.1445" x="3376.5" y="275.5"/><ellipse cx="3391.5" cy="291.5" fill="#ADD1B2" rx="11" ry="11" style="stroke:#181818;stroke-width:1;"/><path d="M3394.4688,297.1406 Q3393.8906,297.4375 3393.25,297.5781 Q3392.6094,297.7344 3391.9063,297.7344 Q3389.4063,297.7344 3388.0781,296.0938 Q3386.7656,294.4375 3386.7656,291.3125 Q3386.7656,288.1875 3388.0781,286.5313 Q3389.4063,284.875 3391.9063,284.875 Q3392.6094,284.875 3393.25,285.0313 Q3393.9063,285.1875 3394.4688,285.4844 L3394.4688,288.2031 Q3393.8438,287.625 3393.25,287.3594 Q3392.6563,287.0781 3392.0313,287.0781 Q3390.6875,287.0781 3390,288.1563 Q3389.3125,289.2188 3389.3125,291.3125 Q3389.3125,293.4063 3390,294.4844 Q3390.6875,295.5469 3392.0313,295.5469 Q3392.6563,295.5469 3393.25,295.2813 Q3393.8438,295 3394.4688,294.4219 L3394.4688,297.1406 Z " fill="#000000"/><text fill="#000000" font-family="sans-serif" font-size="14" lengthAdjust="spacing" textLength="255.1445" x="3405.5" y="296.3467">comp_arc_sta__baselibs__containers</text><line style="stroke:#181818;stroke-width:0.5;" x1="3377.5" x2="3662.6445" y1="307.5" y2="307.5"/></g><!--class logic_arc_int__baselibs__dynamic_array--><g id="elem_logic_arc_int__baselibs__dynamic_array"><rect fill="#F1F1F1" height="40" id="logic_arc_int__baselibs__dynamic_array" rx="2.5" ry="2.5" style="stroke:#181818;stroke-width:0.5;" width="308.3496" x="3533" y="158.5"/><ellipse cx="3548" cy="174.5" fill="#ADD1B2" rx="11" ry="11" style="stroke:#181818;stroke-width:1;"/><path d="M3550.9688,180.1406 Q3550.3906,180.4375 3549.75,180.5781 Q3549.1094,180.7344 3548.4063,180.7344 Q3545.9063,180.7344 3544.5781,179.0938 Q3543.2656,177.4375 3543.2656,174.3125 Q3543.2656,171.1875 3544.5781,169.5313 Q3545.9063,167.875 3548.4063,167.875 Q3549.1094,167.875 3549.75,168.0313 Q3550.4063,168.1875 3550.9688,168.4844 L3550.9688,171.2031 Q3550.3438,170.625 3549.75,170.3594 Q3549.1563,170.0781 3548.5313,170.0781 Q3547.1875,170.0781 3546.5,171.1563 Q3545.8125,172.2188 3545.8125,174.3125 Q3545.8125,176.4063 3546.5,177.4844 Q3547.1875,178.5469 3548.5313,178.5469 Q3549.1563,178.5469 3549.75,178.2813 Q3550.3438,178 3550.9688,177.4219 L3550.9688,180.1406 Z " fill="#000000"/><text fill="#000000" font-family="sans-serif" font-size="14" lengthAdjust="spacing" textLength="276.3496" x="3562" y="179.3467">logic_arc_int__baselibs__dynamic_array</text><line style="stroke:#181818;stroke-width:0.5;" x1="3534" x2="3840.3496" y1="190.5" y2="190.5"/></g><!--class logic_arc_int__baselibs__intrusive_list--><g id="elem_logic_arc_int__baselibs__intrusive_list"><rect fill="#F1F1F1" height="40" id="logic_arc_int__baselibs__intrusive_list" rx="2.5" ry="2.5" style="stroke:#181818;stroke-width:0.5;" width="293.0713" x="3204.5" y="158.5"/><ellipse cx="3219.5" cy="174.5" fill="#ADD1B2" rx="11" ry="11" style="stroke:#181818;stroke-width:1;"/><path d="M3222.4688,180.1406 Q3221.8906,180.4375 3221.25,180.5781 Q3220.6094,180.7344 3219.9063,180.7344 Q3217.4063,180.7344 3216.0781,179.0938 Q3214.7656,177.4375 3214.7656,174.3125 Q3214.7656,171.1875 3216.0781,169.5313 Q3217.4063,167.875 3219.9063,167.875 Q3220.6094,167.875 3221.25,168.0313 Q3221.9063,168.1875 3222.4688,168.4844 L3222.4688,171.2031 Q3221.8438,170.625 3221.25,170.3594 Q3220.6563,170.0781 3220.0313,170.0781 Q3218.6875,170.0781 3218,171.1563 Q3217.3125,172.2188 3217.3125,174.3125 Q3217.3125,176.4063 3218,177.4844 Q3218.6875,178.5469 3220.0313,178.5469 Q3220.6563,178.5469 3221.25,178.2813 Q3221.8438,178 3222.4688,177.4219 L3222.4688,180.1406 Z " fill="#000000"/><text fill="#000000" font-family="sans-serif" font-size="14" lengthAdjust="spacing" textLength="261.0713" x="3233.5" y="179.3467">logic_arc_int__baselibs__intrusive_list</text><line style="stroke:#181818;stroke-width:0.5;" x1="3205.5" x2="3496.5713" y1="190.5" y2="190.5"/></g><!--class comp_arc_sta__baselibs__json--><g id="elem_comp_arc_sta__baselibs__json"><rect fill="#F1F1F1" height="40" id="comp_arc_sta__baselibs__json" rx="2.5" ry="2.5" style="stroke:#181818;stroke-width:0.5;" width="242.1367" x="5268" y="275.5"/><ellipse cx="5283" cy="291.5" fill="#ADD1B2" rx="11" ry="11" style="stroke:#181818;stroke-width:1;"/><path d="M5285.9688,297.1406 Q5285.3906,297.4375 5284.75,297.5781 Q5284.1094,297.7344 5283.4063,297.7344 Q5280.9063,297.7344 5279.5781,296.0938 Q5278.2656,294.4375 5278.2656,291.3125 Q5278.2656,288.1875 5279.5781,286.5313 Q5280.9063,284.875 5283.4063,284.875 Q5284.1094,284.875 5284.75,285.0313 Q5285.4063,285.1875 5285.9688,285.4844 L5285.9688,288.2031 Q5285.3438,287.625 5284.75,287.3594 Q5284.1563,287.0781 5283.5313,287.0781 Q5282.1875,287.0781 5281.5,288.1563 Q5280.8125,289.2188 5280.8125,291.3125 Q5280.8125,293.4063 5281.5,294.4844 Q5282.1875,295.5469 5283.5313,295.5469 Q5284.1563,295.5469 5284.75,295.2813 Q5285.3438,295 5285.9688,294.4219 L5285.9688,297.1406 Z " fill="#000000"/><text fill="#000000" font-family="sans-serif" font-size="14" lengthAdjust="spacing" textLength="210.1367" x="5297" y="296.3467">comp_arc_sta__baselibs__json</text><line style="stroke:#181818;stroke-width:0.5;" x1="5269" x2="5509.1367" y1="307.5" y2="307.5"/></g><!--class comp_arc_sta__baselibs__bit_manipulation--><g id="elem_comp_arc_sta__baselibs__bit_manipulation"><rect fill="#F1F1F1" height="40" id="comp_arc_sta__baselibs__bit_manipulation" rx="2.5" ry="2.5" style="stroke:#181818;stroke-width:0.5;" width="330.8057" x="4414.5" y="275.5"/><ellipse cx="4429.5" cy="291.5" fill="#ADD1B2" rx="11" ry="11" style="stroke:#181818;stroke-width:1;"/><path d="M4432.4688,297.1406 Q4431.8906,297.4375 4431.25,297.5781 Q4430.6094,297.7344 4429.9063,297.7344 Q4427.4063,297.7344 4426.0781,296.0938 Q4424.7656,294.4375 4424.7656,291.3125 Q4424.7656,288.1875 4426.0781,286.5313 Q4427.4063,284.875 4429.9063,284.875 Q4430.6094,284.875 4431.25,285.0313 Q4431.9063,285.1875 4432.4688,285.4844 L4432.4688,288.2031 Q4431.8438,287.625 4431.25,287.3594 Q4430.6563,287.0781 4430.0313,287.0781 Q4428.6875,287.0781 4428,288.1563 Q4427.3125,289.2188 4427.3125,291.3125 Q4427.3125,293.4063 4428,294.4844 Q4428.6875,295.5469 4430.0313,295.5469 Q4430.6563,295.5469 4431.25,295.2813 Q4431.8438,295 4432.4688,294.4219 L4432.4688,297.1406 Z " fill="#000000"/><text fill="#000000" font-family="sans-serif" font-size="14" lengthAdjust="spacing" textLength="298.8057" x="4443.5" y="296.3467">comp_arc_sta__baselibs__bit_manipulation</text><line style="stroke:#181818;stroke-width:0.5;" x1="4415.5" x2="4744.3057" y1="307.5" y2="307.5"/></g><!--class logic_arc_int__baselibs__bit_manipulation--><g id="elem_logic_arc_int__baselibs__bit_manipulation"><rect fill="#F1F1F1" height="40" id="logic_arc_int__baselibs__bit_manipulation" rx="2.5" ry="2.5" style="stroke:#181818;stroke-width:0.5;" width="321.8369" x="4600" y="158.5"/><ellipse cx="4615" cy="174.5" fill="#ADD1B2" rx="11" ry="11" style="stroke:#181818;stroke-width:1;"/><path d="M4617.9688,180.1406 Q4617.3906,180.4375 4616.75,180.5781 Q4616.1094,180.7344 4615.4063,180.7344 Q4612.9063,180.7344 4611.5781,179.0938 Q4610.2656,177.4375 4610.2656,174.3125 Q4610.2656,171.1875 4611.5781,169.5313 Q4612.9063,167.875 4615.4063,167.875 Q4616.1094,167.875 4616.75,168.0313 Q4617.4063,168.1875 4617.9688,168.4844 L4617.9688,171.2031 Q4617.3438,170.625 4616.75,170.3594 Q4616.1563,170.0781 4615.5313,170.0781 Q4614.1875,170.0781 4613.5,171.1563 Q4612.8125,172.2188 4612.8125,174.3125 Q4612.8125,176.4063 4613.5,177.4844 Q4614.1875,178.5469 4615.5313,178.5469 Q4616.1563,178.5469 4616.75,178.2813 Q4617.3438,178 4617.9688,177.4219 L4617.9688,180.1406 Z " fill="#000000"/><text fill="#000000" font-family="sans-serif" font-size="14" lengthAdjust="spacing" textLength="289.8369" x="4629" y="179.3467">logic_arc_int__baselibs__bit_manipulation</text><line style="stroke:#181818;stroke-width:0.5;" x1="4601" x2="4920.8369" y1="190.5" y2="190.5"/></g><!--class logic_arc_int__baselibs__task--><g id="elem_logic_arc_int__baselibs__task"><rect fill="#F1F1F1" height="40" id="logic_arc_int__baselibs__task" rx="2.5" ry="2.5" style="stroke:#181818;stroke-width:0.5;" width="234.0156" x="7" y="158.5"/><ellipse cx="22" cy="174.5" fill="#ADD1B2" rx="11" ry="11" style="stroke:#181818;stroke-width:1;"/><path d="M24.9688,180.1406 Q24.3906,180.4375 23.75,180.5781 Q23.1094,180.7344 22.4063,180.7344 Q19.9063,180.7344 18.5781,179.0938 Q17.2656,177.4375 17.2656,174.3125 Q17.2656,171.1875 18.5781,169.5313 Q19.9063,167.875 22.4063,167.875 Q23.1094,167.875 23.75,168.0313 Q24.4063,168.1875 24.9688,168.4844 L24.9688,171.2031 Q24.3438,170.625 23.75,170.3594 Q23.1563,170.0781 22.5313,170.0781 Q21.1875,170.0781 20.5,171.1563 Q19.8125,172.2188 19.8125,174.3125 Q19.8125,176.4063 20.5,177.4844 Q21.1875,178.5469 22.5313,178.5469 Q23.1563,178.5469 23.75,178.2813 Q24.3438,178 24.9688,177.4219 L24.9688,180.1406 Z " fill="#000000"/><text fill="#000000" font-family="sans-serif" font-size="14" lengthAdjust="spacing" textLength="202.0156" x="36" y="179.3467">logic_arc_int__baselibs__task</text><line style="stroke:#181818;stroke-width:0.5;" x1="8" x2="240.0156" y1="190.5" y2="190.5"/></g><!--class comp_arc_sta__baselibs__filesystem--><g id="elem_comp_arc_sta__baselibs__filesystem"><rect fill="#F1F1F1" height="40" id="comp_arc_sta__baselibs__filesystem" rx="2.5" ry="2.5" style="stroke:#181818;stroke-width:0.5;" width="285.4492" x="4947.5" y="275.5"/><ellipse cx="4962.5" cy="291.5" fill="#ADD1B2" rx="11" ry="11" style="stroke:#181818;stroke-width:1;"/><path d="M4965.4688,297.1406 Q4964.8906,297.4375 4964.25,297.5781 Q4963.6094,297.7344 4962.9063,297.7344 Q4960.4063,297.7344 4959.0781,296.0938 Q4957.7656,294.4375 4957.7656,291.3125 Q4957.7656,288.1875 4959.0781,286.5313 Q4960.4063,284.875 4962.9063,284.875 Q4963.6094,284.875 4964.25,285.0313 Q4964.9063,285.1875 4965.4688,285.4844 L4965.4688,288.2031 Q4964.8438,287.625 4964.25,287.3594 Q4963.6563,287.0781 4963.0313,287.0781 Q4961.6875,287.0781 4961,288.1563 Q4960.3125,289.2188 4960.3125,291.3125 Q4960.3125,293.4063 4961,294.4844 Q4961.6875,295.5469 4963.0313,295.5469 Q4963.6563,295.5469 4964.25,295.2813 Q4964.8438,295 4965.4688,294.4219 L4965.4688,297.1406 Z " fill="#000000"/><text fill="#000000" font-family="sans-serif" font-size="14" lengthAdjust="spacing" textLength="253.4492" x="4976.5" y="296.3467">comp_arc_sta__baselibs__filesystem</text><line style="stroke:#181818;stroke-width:0.5;" x1="4948.5" x2="5231.9492" y1="307.5" y2="307.5"/></g><!--class logic_arc_int__baselibs__filesystem--><g id="elem_logic_arc_int__baselibs__filesystem"><rect fill="#F1F1F1" height="40" id="logic_arc_int__baselibs__filesystem" rx="2.5" ry="2.5" style="stroke:#181818;stroke-width:0.5;" width="276.4805" x="4957" y="158.5"/><ellipse cx="4972" cy="174.5" fill="#ADD1B2" rx="11" ry="11" style="stroke:#181818;stroke-width:1;"/><path d="M4974.9688,180.1406 Q4974.3906,180.4375 4973.75,180.5781 Q4973.1094,180.7344 4972.4063,180.7344 Q4969.9063,180.7344 4968.5781,179.0938 Q4967.2656,177.4375 4967.2656,174.3125 Q4967.2656,171.1875 4968.5781,169.5313 Q4969.9063,167.875 4972.4063,167.875 Q4973.1094,167.875 4973.75,168.0313 Q4974.4063,168.1875 4974.9688,168.4844 L4974.9688,171.2031 Q4974.3438,170.625 4973.75,170.3594 Q4973.1563,170.0781 4972.5313,170.0781 Q4971.1875,170.0781 4970.5,171.1563 Q4969.8125,172.2188 4969.8125,174.3125 Q4969.8125,176.4063 4970.5,177.4844 Q4971.1875,178.5469 4972.5313,178.5469 Q4973.1563,178.5469 4973.75,178.2813 Q4974.3438,178 4974.9688,177.4219 L4974.9688,180.1406 Z " fill="#000000"/><text fill="#000000" font-family="sans-serif" font-size="14" lengthAdjust="spacing" textLength="244.4805" x="4986" y="179.3467">logic_arc_int__baselibs__filesystem</text><line style="stroke:#181818;stroke-width:0.5;" x1="4958" x2="5232.4805" y1="190.5" y2="190.5"/></g><!--class comp_arc_sta__baselibs__memory_shared--><g id="elem_comp_arc_sta__baselibs__memory_shared"><rect fill="#F1F1F1" height="40" id="comp_arc_sta__baselibs__memory_shared" rx="2.5" ry="2.5" style="stroke:#181818;stroke-width:0.5;" width="327.0117" x="3871.5" y="275.5"/><ellipse cx="3886.5" cy="291.5" fill="#ADD1B2" rx="11" ry="11" style="stroke:#181818;stroke-width:1;"/><path d="M3889.4688,297.1406 Q3888.8906,297.4375 3888.25,297.5781 Q3887.6094,297.7344 3886.9063,297.7344 Q3884.4063,297.7344 3883.0781,296.0938 Q3881.7656,294.4375 3881.7656,291.3125 Q3881.7656,288.1875 3883.0781,286.5313 Q3884.4063,284.875 3886.9063,284.875 Q3887.6094,284.875 3888.25,285.0313 Q3888.9063,285.1875 3889.4688,285.4844 L3889.4688,288.2031 Q3888.8438,287.625 3888.25,287.3594 Q3887.6563,287.0781 3887.0313,287.0781 Q3885.6875,287.0781 3885,288.1563 Q3884.3125,289.2188 3884.3125,291.3125 Q3884.3125,293.4063 3885,294.4844 Q3885.6875,295.5469 3887.0313,295.5469 Q3887.6563,295.5469 3888.25,295.2813 Q3888.8438,295 3889.4688,294.4219 L3889.4688,297.1406 Z " fill="#000000"/><text fill="#000000" font-family="sans-serif" font-size="14" lengthAdjust="spacing" textLength="295.0117" x="3900.5" y="296.3467">comp_arc_sta__baselibs__memory_shared</text><line style="stroke:#181818;stroke-width:0.5;" x1="3872.5" x2="4197.5117" y1="307.5" y2="307.5"/></g><!--class logic_arc_int__baselibs__memory_shared--><g id="elem_logic_arc_int__baselibs__memory_shared"><rect fill="#F1F1F1" height="40" id="logic_arc_int__baselibs__memory_shared" rx="2.5" ry="2.5" style="stroke:#181818;stroke-width:0.5;" width="318.043" x="3876" y="158.5"/><ellipse cx="3891" cy="174.5" fill="#ADD1B2" rx="11" ry="11" style="stroke:#181818;stroke-width:1;"/><path d="M3893.9688,180.1406 Q3893.3906,180.4375 3892.75,180.5781 Q3892.1094,180.7344 3891.4063,180.7344 Q3888.9063,180.7344 3887.5781,179.0938 Q3886.2656,177.4375 3886.2656,174.3125 Q3886.2656,171.1875 3887.5781,169.5313 Q3888.9063,167.875 3891.4063,167.875 Q3892.1094,167.875 3892.75,168.0313 Q3893.4063,168.1875 3893.9688,168.4844 L3893.9688,171.2031 Q3893.3438,170.625 3892.75,170.3594 Q3892.1563,170.0781 3891.5313,170.0781 Q3890.1875,170.0781 3889.5,171.1563 Q3888.8125,172.2188 3888.8125,174.3125 Q3888.8125,176.4063 3889.5,177.4844 Q3890.1875,178.5469 3891.5313,178.5469 Q3892.1563,178.5469 3892.75,178.2813 Q3893.3438,178 3893.9688,177.4219 L3893.9688,180.1406 Z " fill="#000000"/><text fill="#000000" font-family="sans-serif" font-size="14" lengthAdjust="spacing" textLength="286.043" x="3905" y="179.3467">logic_arc_int__baselibs__memory_shared</text><line style="stroke:#181818;stroke-width:0.5;" x1="3877" x2="4193.043" y1="190.5" y2="190.5"/></g><!--class logic_arc_int__baselibs__result--><g id="elem_logic_arc_int__baselibs__result"><rect fill="#F1F1F1" height="40" id="logic_arc_int__baselibs__result" rx="2.5" ry="2.5" style="stroke:#181818;stroke-width:0.5;" width="244.4609" x="2925" y="158.5"/><ellipse cx="2940" cy="174.5" fill="#ADD1B2" rx="11" ry="11" style="stroke:#181818;stroke-width:1;"/><path d="M2942.9688,180.1406 Q2942.3906,180.4375 2941.75,180.5781 Q2941.1094,180.7344 2940.4063,180.7344 Q2937.9063,180.7344 2936.5781,179.0938 Q2935.2656,177.4375 2935.2656,174.3125 Q2935.2656,171.1875 2936.5781,169.5313 Q2937.9063,167.875 2940.4063,167.875 Q2941.1094,167.875 2941.75,168.0313 Q2942.4063,168.1875 2942.9688,168.4844 L2942.9688,171.2031 Q2942.3438,170.625 2941.75,170.3594 Q2941.1563,170.0781 2940.5313,170.0781 Q2939.1875,170.0781 2938.5,171.1563 Q2937.8125,172.2188 2937.8125,174.3125 Q2937.8125,176.4063 2938.5,177.4844 Q2939.1875,178.5469 2940.5313,178.5469 Q2941.1563,178.5469 2941.75,178.2813 Q2942.3438,178 2942.9688,177.4219 L2942.9688,180.1406 Z " fill="#000000"/><text fill="#000000" font-family="sans-serif" font-size="14" lengthAdjust="spacing" textLength="212.4609" x="2954" y="179.3467">logic_arc_int__baselibs__result</text><line style="stroke:#181818;stroke-width:0.5;" x1="2926" x2="3168.4609" y1="190.5" y2="190.5"/></g><!--class logic_arc_int__baselibs__promise--><g id="elem_logic_arc_int__baselibs__promise"><rect fill="#F1F1F1" height="40" id="logic_arc_int__baselibs__promise" rx="2.5" ry="2.5" style="stroke:#181818;stroke-width:0.5;" width="261.1885" x="894.5" y="158.5"/><ellipse cx="909.5" cy="174.5" fill="#ADD1B2" rx="11" ry="11" style="stroke:#181818;stroke-width:1;"/><path d="M912.4688,180.1406 Q911.8906,180.4375 911.25,180.5781 Q910.6094,180.7344 909.9063,180.7344 Q907.4063,180.7344 906.0781,179.0938 Q904.7656,177.4375 904.7656,174.3125 Q904.7656,171.1875 906.0781,169.5313 Q907.4063,167.875 909.9063,167.875 Q910.6094,167.875 911.25,168.0313 Q911.9063,168.1875 912.4688,168.4844 L912.4688,171.2031 Q911.8438,170.625 911.25,170.3594 Q910.6563,170.0781 910.0313,170.0781 Q908.6875,170.0781 908,171.1563 Q907.3125,172.2188 907.3125,174.3125 Q907.3125,176.4063 908,177.4844 Q908.6875,178.5469 910.0313,178.5469 Q910.6563,178.5469 911.25,178.2813 Q911.8438,178 912.4688,177.4219 L912.4688,180.1406 Z " fill="#000000"/><text fill="#000000" font-family="sans-serif" font-size="14" lengthAdjust="spacing" textLength="229.1885" x="923.5" y="179.3467">logic_arc_int__baselibs__promise</text><line style="stroke:#181818;stroke-width:0.5;" x1="895.5" x2="1154.6885" y1="190.5" y2="190.5"/></g><!--class logic_arc_int__baselibs__bit_mask_operator--><g id="elem_logic_arc_int__baselibs__bit_mask_operator"><rect fill="#F1F1F1" height="40" id="logic_arc_int__baselibs__bit_mask_operator" rx="2.5" ry="2.5" style="stroke:#181818;stroke-width:0.5;" width="334.6406" x="4229.5" y="158.5"/><ellipse cx="4244.5" cy="174.5" fill="#ADD1B2" rx="11" ry="11" style="stroke:#181818;stroke-width:1;"/><path d="M4247.4688,180.1406 Q4246.8906,180.4375 4246.25,180.5781 Q4245.6094,180.7344 4244.9063,180.7344 Q4242.4063,180.7344 4241.0781,179.0938 Q4239.7656,177.4375 4239.7656,174.3125 Q4239.7656,171.1875 4241.0781,169.5313 Q4242.4063,167.875 4244.9063,167.875 Q4245.6094,167.875 4246.25,168.0313 Q4246.9063,168.1875 4247.4688,168.4844 L4247.4688,171.2031 Q4246.8438,170.625 4246.25,170.3594 Q4245.6563,170.0781 4245.0313,170.0781 Q4243.6875,170.0781 4243,171.1563 Q4242.3125,172.2188 4242.3125,174.3125 Q4242.3125,176.4063 4243,177.4844 Q4243.6875,178.5469 4245.0313,178.5469 Q4245.6563,178.5469 4246.25,178.2813 Q4246.8438,178 4247.4688,177.4219 L4247.4688,180.1406 Z " fill="#000000"/><text fill="#000000" font-family="sans-serif" font-size="14" lengthAdjust="spacing" textLength="302.6406" x="4258.5" y="179.3467">logic_arc_int__baselibs__bit_mask_operator</text><line style="stroke:#181818;stroke-width:0.5;" x1="4230.5" x2="4563.1406" y1="190.5" y2="190.5"/></g><!--class logic_arc_int__baselibs__future--><g id="elem_logic_arc_int__baselibs__future"><rect fill="#F1F1F1" height="40" id="logic_arc_int__baselibs__future" rx="2.5" ry="2.5" style="stroke:#181818;stroke-width:0.5;" width="247.0791" x="1942.5" y="158.5"/><ellipse cx="1957.5" cy="174.5" fill="#ADD1B2" rx="11" ry="11" style="stroke:#181818;stroke-width:1;"/><path d="M1960.4688,180.1406 Q1959.8906,180.4375 1959.25,180.5781 Q1958.6094,180.7344 1957.9063,180.7344 Q1955.4063,180.7344 1954.0781,179.0938 Q1952.7656,177.4375 1952.7656,174.3125 Q1952.7656,171.1875 1954.0781,169.5313 Q1955.4063,167.875 1957.9063,167.875 Q1958.6094,167.875 1959.25,168.0313 Q1959.9063,168.1875 1960.4688,168.4844 L1960.4688,171.2031 Q1959.8438,170.625 1959.25,170.3594 Q1958.6563,170.0781 1958.0313,170.0781 Q1956.6875,170.0781 1956,171.1563 Q1955.3125,172.2188 1955.3125,174.3125 Q1955.3125,176.4063 1956,177.4844 Q1956.6875,178.5469 1958.0313,178.5469 Q1958.6563,178.5469 1959.25,178.2813 Q1959.8438,178 1960.4688,177.4219 L1960.4688,180.1406 Z " fill="#000000"/><text fill="#000000" font-family="sans-serif" font-size="14" lengthAdjust="spacing" textLength="215.0791" x="1971.5" y="179.3467">logic_arc_int__baselibs__future</text><line style="stroke:#181818;stroke-width:0.5;" x1="1943.5" x2="2188.5791" y1="190.5" y2="190.5"/></g><!--class comp_arc_sta__baselibs__result--><g id="elem_comp_arc_sta__baselibs__result"><rect fill="#F1F1F1" height="40" id="comp_arc_sta__baselibs__result" rx="2.5" ry="2.5" style="stroke:#181818;stroke-width:0.5;" width="253.4297" x="2924.5" y="275.5"/><ellipse cx="2939.5" cy="291.5" fill="#ADD1B2" rx="11" ry="11" style="stroke:#181818;stroke-width:1;"/><path d="M2942.4688,297.1406 Q2941.8906,297.4375 2941.25,297.5781 Q2940.6094,297.7344 2939.9063,297.7344 Q2937.4063,297.7344 2936.0781,296.0938 Q2934.7656,294.4375 2934.7656,291.3125 Q2934.7656,288.1875 2936.0781,286.5313 Q2937.4063,284.875 2939.9063,284.875 Q2940.6094,284.875 2941.25,285.0313 Q2941.9063,285.1875 2942.4688,285.4844 L2942.4688,288.2031 Q2941.8438,287.625 2941.25,287.3594 Q2940.6563,287.0781 2940.0313,287.0781 Q2938.6875,287.0781 2938,288.1563 Q2937.3125,289.2188 2937.3125,291.3125 Q2937.3125,293.4063 2938,294.4844 Q2938.6875,295.5469 2940.0313,295.5469 Q2940.6563,295.5469 2941.25,295.2813 Q2941.8438,295 2942.4688,294.4219 L2942.4688,297.1406 Z " fill="#000000"/><text fill="#000000" font-family="sans-serif" font-size="14" lengthAdjust="spacing" textLength="221.4297" x="2953.5" y="296.3467">comp_arc_sta__baselibs__result</text><line style="stroke:#181818;stroke-width:0.5;" x1="2925.5" x2="3176.9297" y1="307.5" y2="307.5"/></g><!--class comp_arc_sta__baselibs__message_passing--><g id="elem_comp_arc_sta__baselibs__message_passing"><rect fill="#F1F1F1" height="40" id="comp_arc_sta__baselibs__message_passing" rx="2.5" ry="2.5" style="stroke:#181818;stroke-width:0.5;" width="337.1357" x="2552.5" y="275.5"/><ellipse cx="2567.5" cy="291.5" fill="#ADD1B2" rx="11" ry="11" style="stroke:#181818;stroke-width:1;"/><path d="M2570.4688,297.1406 Q2569.8906,297.4375 2569.25,297.5781 Q2568.6094,297.7344 2567.9063,297.7344 Q2565.4063,297.7344 2564.0781,296.0938 Q2562.7656,294.4375 2562.7656,291.3125 Q2562.7656,288.1875 2564.0781,286.5313 Q2565.4063,284.875 2567.9063,284.875 Q2568.6094,284.875 2569.25,285.0313 Q2569.9063,285.1875 2570.4688,285.4844 L2570.4688,288.2031 Q2569.8438,287.625 2569.25,287.3594 Q2568.6563,287.0781 2568.0313,287.0781 Q2566.6875,287.0781 2566,288.1563 Q2565.3125,289.2188 2565.3125,291.3125 Q2565.3125,293.4063 2566,294.4844 Q2566.6875,295.5469 2568.0313,295.5469 Q2568.6563,295.5469 2569.25,295.2813 Q2569.8438,295 2570.4688,294.4219 L2570.4688,297.1406 Z " fill="#000000"/><text fill="#000000" font-family="sans-serif" font-size="14" lengthAdjust="spacing" textLength="305.1357" x="2581.5" y="296.3467">comp_arc_sta__baselibs__message_passing</text><line style="stroke:#181818;stroke-width:0.5;" x1="2553.5" x2="2888.6357" y1="307.5" y2="307.5"/></g><!--class logic_arc_int__baselibs__message_passing--><g id="elem_logic_arc_int__baselibs__message_passing"><rect fill="#F1F1F1" height="40" id="logic_arc_int__baselibs__message_passing" rx="2.5" ry="2.5" style="stroke:#181818;stroke-width:0.5;" width="328.167" x="2562" y="158.5"/><ellipse cx="2577" cy="174.5" fill="#ADD1B2" rx="11" ry="11" style="stroke:#181818;stroke-width:1;"/><path d="M2579.9688,180.1406 Q2579.3906,180.4375 2578.75,180.5781 Q2578.1094,180.7344 2577.4063,180.7344 Q2574.9063,180.7344 2573.5781,179.0938 Q2572.2656,177.4375 2572.2656,174.3125 Q2572.2656,171.1875 2573.5781,169.5313 Q2574.9063,167.875 2577.4063,167.875 Q2578.1094,167.875 2578.75,168.0313 Q2579.4063,168.1875 2579.9688,168.4844 L2579.9688,171.2031 Q2579.3438,170.625 2578.75,170.3594 Q2578.1563,170.0781 2577.5313,170.0781 Q2576.1875,170.0781 2575.5,171.1563 Q2574.8125,172.2188 2574.8125,174.3125 Q2574.8125,176.4063 2575.5,177.4844 Q2576.1875,178.5469 2577.5313,178.5469 Q2578.1563,178.5469 2578.75,178.2813 Q2579.3438,178 2579.9688,177.4219 L2579.9688,180.1406 Z " fill="#000000"/><text fill="#000000" font-family="sans-serif" font-size="14" lengthAdjust="spacing" textLength="296.167" x="2591" y="179.3467">logic_arc_int__baselibs__message_passing</text><line style="stroke:#181818;stroke-width:0.5;" x1="2563" x2="2889.167" y1="190.5" y2="190.5"/></g><!--class logic_arc_int__baselibs__task_result--><g id="elem_logic_arc_int__baselibs__task_result"><rect fill="#F1F1F1" height="40" id="logic_arc_int__baselibs__task_result" rx="2.5" ry="2.5" style="stroke:#181818;stroke-width:0.5;" width="280.9307" x="276.5" y="158.5"/><ellipse cx="291.5" cy="174.5" fill="#ADD1B2" rx="11" ry="11" style="stroke:#181818;stroke-width:1;"/><path d="M294.4688,180.1406 Q293.8906,180.4375 293.25,180.5781 Q292.6094,180.7344 291.9063,180.7344 Q289.4063,180.7344 288.0781,179.0938 Q286.7656,177.4375 286.7656,174.3125 Q286.7656,171.1875 288.0781,169.5313 Q289.4063,167.875 291.9063,167.875 Q292.6094,167.875 293.25,168.0313 Q293.9063,168.1875 294.4688,168.4844 L294.4688,171.2031 Q293.8438,170.625 293.25,170.3594 Q292.6563,170.0781 292.0313,170.0781 Q290.6875,170.0781 290,171.1563 Q289.3125,172.2188 289.3125,174.3125 Q289.3125,176.4063 290,177.4844 Q290.6875,178.5469 292.0313,178.5469 Q292.6563,178.5469 293.25,178.2813 Q293.8438,178 294.4688,177.4219 L294.4688,180.1406 Z " fill="#000000"/><text fill="#000000" font-family="sans-serif" font-size="14" lengthAdjust="spacing" textLength="248.9307" x="305.5" y="179.3467">logic_arc_int__baselibs__task_result</text><line style="stroke:#181818;stroke-width:0.5;" x1="277.5" x2="556.4307" y1="190.5" y2="190.5"/></g><!--link Feature_User to logic_arc_int__baselibs__synchronized_queue--><g id="link_Feature_User_logic_arc_int__baselibs__synchronized_queue"><path codeLine="15" d="M3001.77,49.08 C2830.06,66.46 2218.7995,128.3257 1913.0795,159.2757 " fill="transparent" id="Feature_User-to-logic_arc_int__baselibs__synchronized_queue" style="stroke:#181818;stroke-width:1;"/><polygon fill="#181818" points="1907.11,159.88,1916.4671,162.9532,1912.0846,159.3764,1915.6613,154.9938,1907.11,159.88" style="stroke:#181818;stroke-width:1;"/><text fill="#000000" font-family="sans-serif" font-size="13" lengthAdjust="spacing" textLength="23.0103" x="2352" y="124.5669">use</text></g><!--reverse link logic_arc_int__baselibs__shared_future to comp_arc_sta__baselibs__concurrency--><g id="link_logic_arc_int__baselibs__shared_future_comp_arc_sta__baselibs__concurrency"><path codeLine="16" d="M2218.9365,197.1704 C2212.8865,197.8404 2212.87,197.85 2207,198.5 C2016.36,219.66 1968.98,227.73 1778,245.5 C1610.45,261.09 1417.89,275.33 1288.12,284.4 " fill="transparent" id="logic_arc_int__baselibs__shared_future-backto-comp_arc_sta__baselibs__concurrency" style="stroke:#181818;stroke-width:1;"/><polygon fill="#181818" points="2224.9,196.51,2215.5144,193.5249,2219.9304,197.0604,2216.395,201.4763,2224.9,196.51" style="stroke:#181818;stroke-width:1;"/><text fill="#000000" font-family="sans-serif" font-size="13" lengthAdjust="spacing" textLength="76.9082" x="1943" y="241.5669">implements</text></g><!--reverse link logic_arc_int__baselibs__utils_scoped_op to comp_arc_sta__baselibs__utils--><g id="link_logic_arc_int__baselibs__utils_scoped_op_comp_arc_sta__baselibs__utils"><path codeLine="17" d="M5727.2506,202.1252 C5758.5406,223.4152 5803.69,254.14 5834.9,275.38 " fill="transparent" id="logic_arc_int__baselibs__utils_scoped_op-backto-comp_arc_sta__baselibs__utils" style="stroke:#181818;stroke-width:1;"/><polygon fill="#181818" points="5722.29,198.75,5727.4808,207.1199,5726.4238,201.5627,5731.9811,200.5058,5722.29,198.75" style="stroke:#181818;stroke-width:1;"/><text fill="#000000" font-family="sans-serif" font-size="13" lengthAdjust="spacing" textLength="76.9082" x="5790" y="241.5669">implements</text></g><!--link Feature_User to logic_arc_int__baselibs__json--><g id="link_Feature_User_logic_arc_int__baselibs__json"><path codeLine="18" d="M3092.13,45.93 C3278.99,51.95 4010.37,76.55 4611,111.5 C4895.29,128.04 4966.85,128.2 5250,158.5 C5256,159.14 5256.1923,159.1389 5262.3923,159.8789 " fill="transparent" id="Feature_User-to-logic_arc_int__baselibs__json" style="stroke:#181818;stroke-width:1;"/><polygon fill="#181818" points="5268.35,160.59,5259.8875,155.5516,5263.3852,159.9974,5258.9394,163.4952,5268.35,160.59" style="stroke:#181818;stroke-width:1;"/><text fill="#000000" font-family="sans-serif" font-size="13" lengthAdjust="spacing" textLength="23.0103" x="4911" y="124.5669">use</text></g><!--link Feature_User to logic_arc_int__baselibs__utils_scoped_op--><g id="link_Feature_User_logic_arc_int__baselibs__utils_scoped_op"><path codeLine="19" d="M3092.17,45.33 C3302.22,49.34 4204.41,68.34 4943,111.5 C5199.41,126.48 5263.3,134.19 5519,158.5 C5524.63,159.04 5524.389,159.0012 5530.169,159.5712 " fill="transparent" id="Feature_User-to-logic_arc_int__baselibs__utils_scoped_op" style="stroke:#181818;stroke-width:1;"/><polygon fill="#181818" points="5536.14,160.16,5527.576,155.2961,5531.1641,159.6693,5526.7909,163.2574,5536.14,160.16" style="stroke:#181818;stroke-width:1;"/><text fill="#000000" font-family="sans-serif" font-size="13" lengthAdjust="spacing" textLength="23.0103" x="5194" y="124.5669">use</text></g><!--link Feature_User to logic_arc_int__baselibs__executor--><g id="link_Feature_User_logic_arc_int__baselibs__executor"><path codeLine="20" d="M3001.99,45.91 C2816.41,51.86 2092.5,76.15 1498,111.5 C1221.7,127.93 1152.4,130.77 877,158.5 C871.22,159.08 871.2735,159.0396 865.3135,159.6996 " fill="transparent" id="Feature_User-to-logic_arc_int__baselibs__executor" style="stroke:#181818;stroke-width:1;"/><polygon fill="#181818" points="859.35,160.36,868.7356,163.3451,864.3196,159.8097,867.8551,155.3937,859.35,160.36" style="stroke:#181818;stroke-width:1;"/><text fill="#000000" font-family="sans-serif" font-size="13" lengthAdjust="spacing" textLength="23.0103" x="1499" y="124.5669">use</text></g><!--reverse link logic_arc_int__baselibs__utils_base64 to comp_arc_sta__baselibs__utils--><g id="link_logic_arc_int__baselibs__utils_base64_comp_arc_sta__baselibs__utils"><path codeLine="21" d="M5999.5799,202.1113 C5968.0999,223.4013 5922.66,254.14 5891.26,275.38 " fill="transparent" id="logic_arc_int__baselibs__utils_base64-backto-comp_arc_sta__baselibs__utils" style="stroke:#181818;stroke-width:1;"/><polygon fill="#181818" points="6004.55,198.75,5994.854,200.4785,6000.4083,201.5511,5999.3357,207.1053,6004.55,198.75" style="stroke:#181818;stroke-width:1;"/><text fill="#000000" font-family="sans-serif" font-size="13" lengthAdjust="spacing" textLength="76.9082" x="5960" y="241.5669">implements</text></g><!--link Feature_User to logic_arc_int__baselibs__condition_variable--><g id="link_Feature_User_logic_arc_int__baselibs__condition_variable"><path codeLine="22" d="M3001.99,47.46 C2819.58,59.53 2117.52,106.92 1541,158.5 C1535.4,159 1535.6837,158.959 1529.9337,159.499 " fill="transparent" id="Feature_User-to-logic_arc_int__baselibs__condition_variable" style="stroke:#181818;stroke-width:1;"/><polygon fill="#181818" points="1523.96,160.06,1533.2946,163.201,1528.9381,159.5925,1532.5466,155.236,1523.96,160.06" style="stroke:#181818;stroke-width:1;"/><text fill="#000000" font-family="sans-serif" font-size="13" lengthAdjust="spacing" textLength="23.0103" x="2081" y="124.5669">use</text></g><!--reverse link logic_arc_int__baselibs__dynamic_array to comp_arc_sta__baselibs__containers--><g id="link_logic_arc_int__baselibs__dynamic_array_comp_arc_sta__baselibs__containers"><path codeLine="23" d="M3654.1082,202.1527 C3623.1882,223.4427 3578.61,254.14 3547.76,275.38 " fill="transparent" id="logic_arc_int__baselibs__dynamic_array-backto-comp_arc_sta__baselibs__containers" style="stroke:#181818;stroke-width:1;"/><polygon fill="#181818" points="3659.05,198.75,3649.3688,200.5595,3654.9318,201.5856,3653.9057,207.1486,3659.05,198.75" style="stroke:#181818;stroke-width:1;"/><text fill="#000000" font-family="sans-serif" font-size="13" lengthAdjust="spacing" textLength="76.9082" x="3615" y="241.5669">implements</text></g><!--link Feature_User to logic_arc_int__baselibs__dynamic_array--><g id="link_Feature_User_logic_arc_int__baselibs__dynamic_array"><path codeLine="24" d="M3092,53.85 C3196.28,75.52 3450.2755,128.3093 3589.5455,157.2493 " fill="transparent" id="Feature_User-to-logic_arc_int__baselibs__dynamic_array" style="stroke:#181818;stroke-width:1;"/><polygon fill="#181818" points="3595.42,158.47,3587.422,152.7226,3590.5246,157.4527,3585.7944,160.5553,3595.42,158.47" style="stroke:#181818;stroke-width:1;"/><text fill="#000000" font-family="sans-serif" font-size="13" lengthAdjust="spacing" textLength="23.0103" x="3445" y="124.5669">use</text></g><!--link Feature_User to logic_arc_int__baselibs__intrusive_list--><g id="link_Feature_User_logic_arc_int__baselibs__intrusive_list"><path codeLine="25" d="M3092.18,64.27 C3150.24,89.67 3244.8331,131.055 3302.0431,156.085 " fill="transparent" id="Feature_User-to-logic_arc_int__baselibs__intrusive_list" style="stroke:#181818;stroke-width:1;"/><polygon fill="#181818" points="3307.54,158.49,3300.8979,151.2179,3302.9592,156.4859,3297.6913,158.5472,3307.54,158.49" style="stroke:#181818;stroke-width:1;"/><text fill="#000000" font-family="sans-serif" font-size="13" lengthAdjust="spacing" textLength="23.0103" x="3237" y="124.5669">use</text></g><!--reverse link logic_arc_int__baselibs__json to comp_arc_sta__baselibs__json--><g id="link_logic_arc_int__baselibs__json_comp_arc_sta__baselibs__json"><path codeLine="26" d="M5385.879,204.7464 C5386.619,225.9764 5387.59,253.94 5388.33,275.19 " fill="transparent" id="logic_arc_int__baselibs__json-backto-comp_arc_sta__baselibs__json" style="stroke:#181818;stroke-width:1;"/><polygon fill="#181818" points="5385.67,198.75,5381.9859,207.8839,5385.8442,203.747,5389.9811,207.6052,5385.67,198.75" style="stroke:#181818;stroke-width:1;"/><text fill="#000000" font-family="sans-serif" font-size="13" lengthAdjust="spacing" textLength="76.9082" x="5389" y="241.5669">implements</text></g><!--reverse link logic_arc_int__baselibs__bit_manipulation to comp_arc_sta__baselibs__bit_manipulation--><g id="link_logic_arc_int__baselibs__bit_manipulation_comp_arc_sta__baselibs__bit_manipulation"><path codeLine="27" d="M4725.6357,201.9675 C4692.1257,223.2575 4643.52,254.14 4610.09,275.38 " fill="transparent" id="logic_arc_int__baselibs__bit_manipulation-backto-comp_arc_sta__baselibs__bit_manipulation" style="stroke:#181818;stroke-width:1;"/><polygon fill="#181818" points="4730.7,198.75,4720.9585,200.2001,4726.4797,201.4313,4725.2485,206.9525,4730.7,198.75" style="stroke:#181818;stroke-width:1;"/><text fill="#000000" font-family="sans-serif" font-size="13" lengthAdjust="spacing" textLength="76.9082" x="4683" y="241.5669">implements</text></g><!--link Feature_User to logic_arc_int__baselibs__utils_base64--><g id="link_Feature_User_logic_arc_int__baselibs__utils_base64"><path codeLine="28" d="M3092.27,45.18 C3320.64,48.77 4368.96,67.02 5226,111.5 C5512.16,126.35 5583.73,131.56 5869,158.5 C5874.85,159.05 5874.8405,159.0361 5880.8705,159.6461 " fill="transparent" id="Feature_User-to-logic_arc_int__baselibs__utils_base64" style="stroke:#181818;stroke-width:1;"/><polygon fill="#181818" points="5886.84,160.25,5878.2883,155.3645,5881.8654,159.7468,5877.4831,163.3239,5886.84,160.25" style="stroke:#181818;stroke-width:1;"/><text fill="#000000" font-family="sans-serif" font-size="13" lengthAdjust="spacing" textLength="23.0103" x="5517" y="124.5669">use</text></g><!--link Feature_User to logic_arc_int__baselibs__task--><g id="link_Feature_User_logic_arc_int__baselibs__task"><path codeLine="29" d="M3001.68,45.16 C2774.21,48.64 1734.24,66.38 884,111.5 C605.83,126.26 535.96,128.63 259,158.5 C253.12,159.13 253.0572,159.1147 246.9772,159.8447 " fill="transparent" id="Feature_User-to-logic_arc_int__baselibs__task" style="stroke:#181818;stroke-width:1;"/><polygon fill="#181818" points="241.02,160.56,250.4327,163.4586,245.9843,159.964,249.479,155.5156,241.02,160.56" style="stroke:#181818;stroke-width:1;"/><text fill="#000000" font-family="sans-serif" font-size="13" lengthAdjust="spacing" textLength="23.0103" x="885" y="124.5669">use</text></g><!--reverse link logic_arc_int__baselibs__filesystem to comp_arc_sta__baselibs__filesystem--><g id="link_logic_arc_int__baselibs__filesystem_comp_arc_sta__baselibs__filesystem"><path codeLine="30" d="M5093.9002,204.7444 C5092.9802,225.9744 5091.76,253.94 5090.84,275.19 " fill="transparent" id="logic_arc_int__baselibs__filesystem-backto-comp_arc_sta__baselibs__filesystem" style="stroke:#181818;stroke-width:1;"/><polygon fill="#181818" points="5094.16,198.75,5089.7741,207.5684,5093.9435,203.7453,5097.7666,207.9147,5094.16,198.75" style="stroke:#181818;stroke-width:1;"/><text fill="#000000" font-family="sans-serif" font-size="13" lengthAdjust="spacing" textLength="76.9082" x="5094" y="241.5669">implements</text></g><!--reverse link logic_arc_int__baselibs__task to comp_arc_sta__baselibs__concurrency--><g id="link_logic_arc_int__baselibs__task_comp_arc_sta__baselibs__concurrency"><path codeLine="31" d="M247.006,196.8932 C253.076,197.7132 253.13,197.72 259,198.5 C426.39,220.71 468.18,226.85 636,245.5 C754.15,258.63 888.15,271.61 987.97,280.91 " fill="transparent" id="logic_arc_int__baselibs__task-backto-comp_arc_sta__baselibs__concurrency" style="stroke:#181818;stroke-width:1;"/><polygon fill="#181818" points="241.06,196.09,249.4435,201.2589,246.015,196.7594,250.5145,193.3309,241.06,196.09" style="stroke:#181818;stroke-width:1;"/><text fill="#000000" font-family="sans-serif" font-size="13" lengthAdjust="spacing" textLength="76.9082" x="637" y="241.5669">implements</text></g><!--link Feature_User to logic_arc_int__baselibs__filesystem--><g id="link_Feature_User_logic_arc_int__baselibs__filesystem"><path codeLine="32" d="M3092.13,46.09 C3301.96,53.72 4203.1,89.1 4939,158.5 C4944.84,159.05 4944.8326,159.0155 4950.8526,159.6455 " fill="transparent" id="Feature_User-to-logic_arc_int__baselibs__filesystem" style="stroke:#181818;stroke-width:1;"/><polygon fill="#181818" points="4956.82,160.27,4948.2852,155.355,4951.8472,159.7496,4947.4526,163.3115,4956.82,160.27" style="stroke:#181818;stroke-width:1;"/><text fill="#000000" font-family="sans-serif" font-size="13" lengthAdjust="spacing" textLength="23.0103" x="4579" y="124.5669">use</text></g><!--reverse link logic_arc_int__baselibs__memory_shared to comp_arc_sta__baselibs__memory_shared--><g id="link_logic_arc_int__baselibs__memory_shared_comp_arc_sta__baselibs__memory_shared"><path codeLine="33" d="M4035,204.75 C4035,225.98 4035,253.94 4035,275.19 " fill="transparent" id="logic_arc_int__baselibs__memory_shared-backto-comp_arc_sta__baselibs__memory_shared" style="stroke:#181818;stroke-width:1;"/><polygon fill="#181818" points="4035,198.75,4031,207.75,4035,203.75,4039,207.75,4035,198.75" style="stroke:#181818;stroke-width:1;"/><text fill="#000000" font-family="sans-serif" font-size="13" lengthAdjust="spacing" textLength="76.9082" x="4036" y="241.5669">implements</text></g><!--link Feature_User to logic_arc_int__baselibs__result--><g id="link_Feature_User_logic_arc_int__baselibs__result"><path codeLine="34" d="M3047,81.55 C3047,106.45 3047,132.26 3047,152.26 " fill="transparent" id="Feature_User-to-logic_arc_int__baselibs__result" style="stroke:#181818;stroke-width:1;"/><polygon fill="#181818" points="3047,158.26,3051,149.26,3047,153.26,3043,149.26,3047,158.26" style="stroke:#181818;stroke-width:1;"/><text fill="#000000" font-family="sans-serif" font-size="13" lengthAdjust="spacing" textLength="23.0103" x="3048" y="124.5669">use</text></g><!--link Feature_User to logic_arc_int__baselibs__promise--><g id="link_Feature_User_logic_arc_int__baselibs__promise"><path codeLine="35" d="M3001.94,46.03 C2793.43,53.38 1901.31,87.61 1173,158.5 C1167.33,159.05 1167.5055,159.0076 1161.6555,159.6376 " fill="transparent" id="Feature_User-to-logic_arc_int__baselibs__promise" style="stroke:#181818;stroke-width:1;"/><polygon fill="#181818" points="1155.69,160.28,1165.0666,163.2933,1160.6613,159.7446,1164.21,155.3393,1155.69,160.28" style="stroke:#181818;stroke-width:1;"/><text fill="#000000" font-family="sans-serif" font-size="13" lengthAdjust="spacing" textLength="23.0103" x="1740" y="124.5669">use</text></g><!--reverse link logic_arc_int__baselibs__synchronized_queue to comp_arc_sta__baselibs__concurrency--><g id="link_logic_arc_int__baselibs__synchronized_queue_comp_arc_sta__baselibs__concurrency"><path codeLine="36" d="M1628.519,199.6887 C1518.379,220.9787 1347,254.11 1236.78,275.41 " fill="transparent" id="logic_arc_int__baselibs__synchronized_queue-backto-comp_arc_sta__baselibs__concurrency" style="stroke:#181818;stroke-width:1;"/><polygon fill="#181818" points="1634.41,198.55,1624.8144,196.3308,1629.5009,199.4989,1626.3327,204.1854,1634.41,198.55" style="stroke:#181818;stroke-width:1;"/><text fill="#000000" font-family="sans-serif" font-size="13" lengthAdjust="spacing" textLength="76.9082" x="1473" y="241.5669">implements</text></g><!--reverse link logic_arc_int__baselibs__condition_variable to comp_arc_sta__baselibs__concurrency--><g id="link_logic_arc_int__baselibs__condition_variable_comp_arc_sta__baselibs__concurrency"><path codeLine="37" d="M1315.028,201.5397 C1274.488,222.8297 1214.86,254.14 1174.41,275.38 " fill="transparent" id="logic_arc_int__baselibs__condition_variable-backto-comp_arc_sta__baselibs__concurrency" style="stroke:#181818;stroke-width:1;"/><polygon fill="#181818" points="1320.34,198.75,1310.5122,199.3931,1315.9133,201.0747,1314.2317,206.4759,1320.34,198.75" style="stroke:#181818;stroke-width:1;"/><text fill="#000000" font-family="sans-serif" font-size="13" lengthAdjust="spacing" textLength="76.9082" x="1262" y="241.5669">implements</text></g><!--reverse link logic_arc_int__baselibs__bit_mask_operator to comp_arc_sta__baselibs__bit_manipulation--><g id="link_logic_arc_int__baselibs__bit_mask_operator_comp_arc_sta__baselibs__bit_manipulation"><path codeLine="38" d="M4432.7102,201.9424 C4466.5902,223.2324 4515.78,254.14 4549.58,275.38 " fill="transparent" id="logic_arc_int__baselibs__bit_mask_operator-backto-comp_arc_sta__baselibs__bit_manipulation" style="stroke:#181818;stroke-width:1;"/><polygon fill="#181818" points="4427.63,198.75,4433.1221,206.9254,4431.8635,201.4103,4437.3786,200.1518,4427.63,198.75" style="stroke:#181818;stroke-width:1;"/><text fill="#000000" font-family="sans-serif" font-size="13" lengthAdjust="spacing" textLength="76.9082" x="4501" y="241.5669">implements</text></g><!--link Feature_User to logic_arc_int__baselibs__future--><g id="link_Feature_User_logic_arc_int__baselibs__future"><path codeLine="39" d="M3001.98,50.6 C2858.69,70.03 2415.7656,130.084 2195.8556,159.894 " fill="transparent" id="Feature_User-to-logic_arc_int__baselibs__future" style="stroke:#181818;stroke-width:1;"/><polygon fill="#181818" points="2189.91,160.7,2199.3657,163.4548,2194.8647,160.0284,2198.2911,155.5273,2189.91,160.7" style="stroke:#181818;stroke-width:1;"/><text fill="#000000" font-family="sans-serif" font-size="13" lengthAdjust="spacing" textLength="23.0103" x="2529" y="124.5669">use</text></g><!--reverse link logic_arc_int__baselibs__result to comp_arc_sta__baselibs__result--><g id="link_logic_arc_int__baselibs__result_comp_arc_sta__baselibs__result"><path codeLine="40" d="M3047.879,204.7464 C3048.619,225.9764 3049.59,253.94 3050.33,275.19 " fill="transparent" id="logic_arc_int__baselibs__result-backto-comp_arc_sta__baselibs__result" style="stroke:#181818;stroke-width:1;"/><polygon fill="#181818" points="3047.67,198.75,3043.9859,207.8839,3047.8442,203.747,3051.9811,207.6052,3047.67,198.75" style="stroke:#181818;stroke-width:1;"/><text fill="#000000" font-family="sans-serif" font-size="13" lengthAdjust="spacing" textLength="76.9082" x="3051" y="241.5669">implements</text></g><!--reverse link logic_arc_int__baselibs__message_passing to comp_arc_sta__baselibs__message_passing--><g id="link_logic_arc_int__baselibs__message_passing_comp_arc_sta__baselibs__message_passing"><path codeLine="41" d="M2724.9002,204.7444 C2723.9802,225.9744 2722.76,253.94 2721.84,275.19 " fill="transparent" id="logic_arc_int__baselibs__message_passing-backto-comp_arc_sta__baselibs__message_passing" style="stroke:#181818;stroke-width:1;"/><polygon fill="#181818" points="2725.16,198.75,2720.7741,207.5684,2724.9435,203.7453,2728.7666,207.9147,2725.16,198.75" style="stroke:#181818;stroke-width:1;"/><text fill="#000000" font-family="sans-serif" font-size="13" lengthAdjust="spacing" textLength="76.9082" x="2725" y="241.5669">implements</text></g><!--reverse link logic_arc_int__baselibs__future to comp_arc_sta__baselibs__concurrency--><g id="link_logic_arc_int__baselibs__future_comp_arc_sta__baselibs__concurrency"><path codeLine="42" d="M1936.531,196.8505 C1930.281,197.6705 1930.04,197.71 1924,198.5 C1761.39,219.82 1720.78,225.55 1558,245.5 C1468.56,256.46 1368.32,268.18 1288.21,277.4 " fill="transparent" id="logic_arc_int__baselibs__future-backto-comp_arc_sta__baselibs__concurrency" style="stroke:#181818;stroke-width:1;"/><polygon fill="#181818" points="1942.48,196.07,1933.0361,193.2748,1937.5225,196.7204,1934.0768,201.2068,1942.48,196.07" style="stroke:#181818;stroke-width:1;"/><text fill="#000000" font-family="sans-serif" font-size="13" lengthAdjust="spacing" textLength="76.9082" x="1693" y="241.5669">implements</text></g><!--link Feature_User to logic_arc_int__baselibs__bit_manipulation--><g id="link_Feature_User_logic_arc_int__baselibs__bit_manipulation"><path codeLine="43" d="M3092.25,47.34 C3277.2,59.04 3993.82,105.46 4582,158.5 C4587.76,159.02 4587.6467,158.995 4593.5667,159.555 " fill="transparent" id="Feature_User-to-logic_arc_int__baselibs__bit_manipulation" style="stroke:#181818;stroke-width:1;"/><polygon fill="#181818" points="4599.54,160.12,4590.9567,155.2902,4594.5622,159.6491,4590.2033,163.2547,4599.54,160.12" style="stroke:#181818;stroke-width:1;"/><text fill="#000000" font-family="sans-serif" font-size="13" lengthAdjust="spacing" textLength="23.0103" x="4205" y="124.5669">use</text></g><!--link Feature_User to logic_arc_int__baselibs__memory_shared--><g id="link_Feature_User_logic_arc_int__baselibs__memory_shared"><path codeLine="44" d="M3092.02,50.56 C3232.45,69.46 3660.6636,127.1095 3887.5936,157.6595 " fill="transparent" id="Feature_User-to-logic_arc_int__baselibs__memory_shared" style="stroke:#181818;stroke-width:1;"/><polygon fill="#181818" points="3893.54,158.46,3885.1541,153.295,3888.5847,157.7929,3884.0868,161.2235,3893.54,158.46" style="stroke:#181818;stroke-width:1;"/><text fill="#000000" font-family="sans-serif" font-size="13" lengthAdjust="spacing" textLength="23.0103" x="3660" y="124.5669">use</text></g><!--reverse link logic_arc_int__baselibs__promise to comp_arc_sta__baselibs__concurrency--><g id="link_logic_arc_int__baselibs__promise_comp_arc_sta__baselibs__concurrency"><path codeLine="45" d="M1048.1152,203.0298 C1068.9752,224.2598 1098.14,253.94 1119.02,275.19 " fill="transparent" id="logic_arc_int__baselibs__promise-backto-comp_arc_sta__baselibs__concurrency" style="stroke:#181818;stroke-width:1;"/><polygon fill="#181818" points="1043.91,198.75,1047.3646,207.9731,1047.4143,202.3165,1053.071,202.3662,1043.91,198.75" style="stroke:#181818;stroke-width:1;"/><text fill="#000000" font-family="sans-serif" font-size="13" lengthAdjust="spacing" textLength="76.9082" x="1090" y="241.5669">implements</text></g><!--reverse link logic_arc_int__baselibs__executor to comp_arc_sta__baselibs__concurrency--><g id="link_logic_arc_int__baselibs__executor_comp_arc_sta__baselibs__concurrency"><path codeLine="46" d="M800.2791,200.2331 C876.5891,221.5331 993.45,254.15 1069.68,275.43 " fill="transparent" id="logic_arc_int__baselibs__executor-backto-comp_arc_sta__baselibs__concurrency" style="stroke:#181818;stroke-width:1;"/><polygon fill="#181818" points="794.5,198.62,802.0933,204.8924,799.3159,199.9642,804.244,197.1869,794.5,198.62" style="stroke:#181818;stroke-width:1;"/><text fill="#000000" font-family="sans-serif" font-size="13" lengthAdjust="spacing" textLength="76.9082" x="958" y="241.5669">implements</text></g><!--link Feature_User to logic_arc_int__baselibs__message_passing--><g id="link_Feature_User_logic_arc_int__baselibs__message_passing"><path codeLine="47" d="M3001.69,63.27 C2940.77,88.51 2838.603,130.8431 2777.403,156.2031 " fill="transparent" id="Feature_User-to-logic_arc_int__baselibs__message_passing" style="stroke:#181818;stroke-width:1;"/><polygon fill="#181818" points="2771.86,158.5,2781.7057,158.75,2776.4791,156.5859,2778.6432,151.3594,2771.86,158.5" style="stroke:#181818;stroke-width:1;"/><text fill="#000000" font-family="sans-serif" font-size="13" lengthAdjust="spacing" textLength="23.0103" x="2878" y="124.5669">use</text></g><!--reverse link logic_arc_int__baselibs__task_result to comp_arc_sta__baselibs__concurrency--><g id="link_logic_arc_int__baselibs__task_result_comp_arc_sta__baselibs__concurrency"><path codeLine="48" d="M538.1005,199.4832 C619.1305,212.8032 724.2,229.95 822,245.5 C885.19,255.55 955.53,266.48 1013.77,275.46 " fill="transparent" id="logic_arc_int__baselibs__task_result-backto-comp_arc_sta__baselibs__concurrency" style="stroke:#181818;stroke-width:1;"/><polygon fill="#181818" points="532.18,198.51,540.412,203.9169,537.1138,199.321,541.7096,196.0228,532.18,198.51" style="stroke:#181818;stroke-width:1;"/><text fill="#000000" font-family="sans-serif" font-size="13" lengthAdjust="spacing" textLength="76.9082" x="823" y="241.5669">implements</text></g><!--link Feature_User to logic_arc_int__baselibs__shared_future--><g id="link_Feature_User_logic_arc_int__baselibs__shared_future"><path codeLine="49" d="M3001.93,53.43 C2894.02,74.82 2624.7555,128.1933 2477.8055,157.3233 " fill="transparent" id="Feature_User-to-logic_arc_int__baselibs__shared_future" style="stroke:#181818;stroke-width:1;"/><polygon fill="#181818" points="2471.92,158.49,2481.526,160.6636,2476.8246,157.5178,2479.9704,152.8163,2471.92,158.49" style="stroke:#181818;stroke-width:1;"/><text fill="#000000" font-family="sans-serif" font-size="13" lengthAdjust="spacing" textLength="23.0103" x="2693" y="124.5669">use</text></g><!--reverse link logic_arc_int__baselibs__intrusive_list to comp_arc_sta__baselibs__containers--><g id="link_logic_arc_int__baselibs__intrusive_list_comp_arc_sta__baselibs__containers"><path codeLine="50" d="M3384.2506,202.1252 C3415.5406,223.4152 3460.69,254.14 3491.9,275.38 " fill="transparent" id="logic_arc_int__baselibs__intrusive_list-backto-comp_arc_sta__baselibs__containers" style="stroke:#181818;stroke-width:1;"/><polygon fill="#181818" points="3379.29,198.75,3384.4808,207.1199,3383.4238,201.5627,3388.9811,200.5058,3379.29,198.75" style="stroke:#181818;stroke-width:1;"/><text fill="#000000" font-family="sans-serif" font-size="13" lengthAdjust="spacing" textLength="76.9082" x="3447" y="241.5669">implements</text></g><!--link Feature_User to logic_arc_int__baselibs__bit_mask_operator--><g id="link_Feature_User_logic_arc_int__baselibs__bit_mask_operator"><path codeLine="51" d="M3092.22,48.86 C3247.79,63.88 3775.35,114.92 4211,158.5 C4216.98,159.1 4217.0904,159.1072 4223.2304,159.7272 " fill="transparent" id="Feature_User-to-logic_arc_int__baselibs__bit_mask_operator" style="stroke:#181818;stroke-width:1;"/><polygon fill="#181818" points="4229.2,160.33,4220.6474,155.446,4224.2253,159.8277,4219.8437,163.4056,4229.2,160.33" style="stroke:#181818;stroke-width:1;"/><text fill="#000000" font-family="sans-serif" font-size="13" lengthAdjust="spacing" textLength="23.0103" x="3893" y="124.5669">use</text></g><!--link Feature_User to logic_arc_int__baselibs__task_result--><g id="link_Feature_User_logic_arc_int__baselibs__task_result"><path codeLine="52" d="M3001.87,45.48 C2794.93,50.1 1915.98,71.24 1196,111.5 C919.64,126.95 850.47,131.53 575,158.5 C569.36,159.05 569.5872,159.0135 563.7772,159.6235 " fill="transparent" id="Feature_User-to-logic_arc_int__baselibs__task_result" style="stroke:#181818;stroke-width:1;"/><polygon fill="#181818" points="557.81,160.25,567.1785,163.2884,562.7827,159.7279,566.3431,155.3321,557.81,160.25" style="stroke:#181818;stroke-width:1;"/><text fill="#000000" font-family="sans-serif" font-size="13" lengthAdjust="spacing" textLength="23.0103" x="1197" y="124.5669">use</text></g><!--SRC=[jLPDSzGm3BtxLtXwty9q60wTJY_CSE88Pu_ZgBjY_P5QScbW-EyusK2RtMMTX72K8olIq_EJjBNXctBuZ7uhE3IIWwm2St2onWY6CNYnmneaCKG8t3PmiC4rt4hD7B5A32JkY5iBz-9Q4zfA_X2VqCE7O4EK4UhU-hn3i_T096-ktugVukxDS4TemzdlwYDeJX7a5u9u9JN9uK1r1rA8aRcfD_VIXYqQfQDHw5cfIXDOh4WfQhtPnU3nEzJgCK62Mva8f331DVq5OltwWWdUf1Z1crPkqiNGEvqhKW-fo-LMeciiEF1CVm-U62qLmlO-YaneSl3GZ0FFgFmh1J_KEkFMoT_d1e1dC2btiG3pT2Gw-_sxnJ3aVjROyLSzwOYwiXC8m3gpD9RIgrklNVyfwdPnVaTHviATpPW8dq1P92wKrb6YKDI1DLEuN24hfpqsoUeEtqBWO_V5W8rPCHSlrhGleFI05gZDGkSA9RquJaDikhGSibm8qEkqBXRgm8NO3ZfMo6ZakpYr29Gip-zQ4uD3Mb6wpqo5TJjuJdR-swkYVPPgYBgNtQMi6SROHOGF_IlazBl9KyfrUGlGMr2D9igxHv648- -rUtPkaiz0y5JXvjByw96jHFO_ZsTTj5u6_KAyJhgvKhsTU9ubuPorSRpRhRCm7C_gV-BPwCqlcO9ZCVu5]--></g></svg>