<svg xmlns="http://www.w3.org/2000/svg" xmlns:xlink="http://www.w3.org/1999/xlink" contentStyleType="text/css" data-diagram-type="CLASS" height="322px" preserveAspectRatio="none" style="width:6198px;height:322px;background:#FFFFFF;" version="1.1" viewBox="0 0 6198 322" width="6198px" zoomAndPan="magnify"><defs/><g><!--entity Feature_User--><g id="elem_Feature_User"><ellipse cx="3002.6685" cy="14" fill="#F1F1F1" rx="8" ry="8" style="stroke:#181818;stroke-width:0.5;"/><path d="M3002.6685,22 L3002.6685,49 M2989.6685,30 L3015.6685,30 M3002.6685,49 L2989.6685,64 M3002.6685,49 L3015.6685,64 " fill="transparent" style="stroke:#181818;stroke-width:0.5;"/><text fill="#000000" font-family="sans-serif" font-size="14" lengthAdjust="spacing" textLength="90.3369" x="2957.5" y="78.4951">Feature User</text></g><!--class comp_arc_sta__baselibs__containers--><g id="elem_comp_arc_sta__baselibs__containers"><rect fill="#F1F1F1" height="40" id="comp_arc_sta__baselibs__containers" rx="2.5" ry="2.5" style="stroke:#181818;stroke-width:0.5;" width="287.1445" x="4067" y="275.5"/><ellipse cx="4082" cy="291.5" fill="#ADD1B2" rx="11" ry="11" style="stroke:#181818;stroke-width:1;"/><path d="M4084.9688,297.1406 Q4084.3906,297.4375 4083.75,297.5781 Q4083.1094,297.7344 4082.4063,297.7344 Q4079.9063,297.7344 4078.5781,296.0938 Q4077.2656,294.4375 4077.2656,291.3125 Q4077.2656,288.1875 4078.5781,286.5313 Q4079.9063,284.875 4082.4063,284.875 Q4083.1094,284.875 4083.75,285.0313 Q4084.4063,285.1875 4084.9688,285.4844 L4084.9688,288.2031 Q4084.3438,287.625 4083.75,287.3594 Q4083.1563,287.0781 4082.5313,287.0781 Q4081.1875,287.0781 4080.5,288.1563 Q4079.8125,289.2188 4079.8125,291.3125 Q4079.8125,293.4063 4080.5,294.4844 Q4081.1875,295.5469 4082.5313,295.5469 Q4083.1563,295.5469 4083.75,295.2813 Q4084.3438,295 4084.9688,294.4219 L4084.9688,297.1406 Z " fill="#000000"/><text fill="#000000" font-family="sans-serif" font-size="14" lengthAdjust="spacing" textLength="255.1445" x="4096" y="296.3467">comp_arc_sta__baselibs__containers</text><line style="stroke:#181818;stroke-width:0.5;" x1="4068" x2="4353.1445" y1="307.5" y2="307.5"/></g><!--class logic_arc_int__baselibs__dynamic_array--><g id="elem_logic_arc_int__baselibs__dynamic_array"><rect fill="#F1F1F1" height="40" id="logic_arc_int__baselibs__dynamic_array" rx="2.5" ry="2.5" style="stroke:#181818;stroke-width:0.5;" width="308.3496" x="4252.5" y="158.5"/><ellipse cx="4267.5" cy="174.5" fill="#ADD1B2" rx="11" ry="11" style="stroke:#181818;stroke-width:1;"/><path d="M4270.4688,180.1406 Q4269.8906,180.4375 4269.25,180.5781 Q4268.6094,180.7344 4267.9063,180.7344 Q4265.4063,180.7344 4264.0781,179.0938 Q4262.7656,177.4375 4262.7656,174.3125 Q4262.7656,171.1875 4264.0781,169.5313 Q4265.4063,167.875 4267.9063,167.875 Q4268.6094,167.875 4269.25,168.0313 Q4269.9063,168.1875 4270.4688,168.4844 L4270.4688,171.2031 Q4269.8438,170.625 4269.25,170.3594 Q4268.6563,170.0781 4268.0313,170.0781 Q4266.6875,170.0781 4266,171.1563 Q4265.3125,172.2188 4265.3125,174.3125 Q4265.3125,176.4063 4266,177.4844 Q4266.6875,178.5469 4268.0313,178.5469 Q4268.6563,178.5469 4269.25,178.2813 Q4269.8438,178 4270.4688,177.4219 L4270.4688,180.1406 Z " fill="#000000"/><text fill="#000000" font-family="sans-serif" font-size="14" lengthAdjust="spacing" textLength="276.3496" x="4281.5" y="179.3467">logic_arc_int__baselibs__dynamic_array</text><line style="stroke:#181818;stroke-width:0.5;" x1="4253.5" x2="4559.8496" y1="190.5" y2="190.5"/></g><!--class comp_arc_sta__baselibs__utils--><g id="elem_comp_arc_sta__baselibs__utils"><rect fill="#F1F1F1" height="40" id="comp_arc_sta__baselibs__utils" rx="2.5" ry="2.5" style="stroke:#181818;stroke-width:0.5;" width="242.9502" x="5152" y="275.5"/><ellipse cx="5167" cy="291.5" fill="#ADD1B2" rx="11" ry="11" style="stroke:#181818;stroke-width:1;"/><path d="M5169.9688,297.1406 Q5169.3906,297.4375 5168.75,297.5781 Q5168.1094,297.7344 5167.4063,297.7344 Q5164.9063,297.7344 5163.5781,296.0938 Q5162.2656,294.4375 5162.2656,291.3125 Q5162.2656,288.1875 5163.5781,286.5313 Q5164.9063,284.875 5167.4063,284.875 Q5168.1094,284.875 5168.75,285.0313 Q5169.4063,285.1875 5169.9688,285.4844 L5169.9688,288.2031 Q5169.3438,287.625 5168.75,287.3594 Q5168.1563,287.0781 5167.5313,287.0781 Q5166.1875,287.0781 5165.5,288.1563 Q5164.8125,289.2188 5164.8125,291.3125 Q5164.8125,293.4063 5165.5,294.4844 Q5166.1875,295.5469 5167.5313,295.5469 Q5168.1563,295.5469 5168.75,295.2813 Q5169.3438,295 5169.9688,294.4219 L5169.9688,297.1406 Z " fill="#000000"/><text fill="#000000" font-family="sans-serif" font-size="14" lengthAdjust="spacing" textLength="210.9502" x="5181" y="296.3467">comp_arc_sta__baselibs__utils</text><line style="stroke:#181818;stroke-width:0.5;" x1="5153" x2="5393.9502" y1="307.5" y2="307.5"/></g><!--class logic_arc_int__baselibs__utils_base64--><g id="elem_logic_arc_int__baselibs__utils_base64"><rect fill="#F1F1F1" height="40" id="logic_arc_int__baselibs__utils_base64" rx="2.5" ry="2.5" style="stroke:#181818;stroke-width:0.5;" width="292.1689" x="4958.5" y="158.5"/><ellipse cx="4973.5" cy="174.5" fill="#ADD1B2" rx="11" ry="11" style="stroke:#181818;stroke-width:1;"/><path d="M4976.4688,180.1406 Q4975.8906,180.4375 4975.25,180.5781 Q4974.6094,180.7344 4973.9063,180.7344 Q4971.4063,180.7344 4970.0781,179.0938 Q4968.7656,177.4375 4968.7656,174.3125 Q4968.7656,171.1875 4970.0781,169.5313 Q4971.4063,167.875 4973.9063,167.875 Q4974.6094,167.875 4975.25,168.0313 Q4975.9063,168.1875 4976.4688,168.4844 L4976.4688,171.2031 Q4975.8438,170.625 4975.25,170.3594 Q4974.6563,170.0781 4974.0313,170.0781 Q4972.6875,170.0781 4972,171.1563 Q4971.3125,172.2188 4971.3125,174.3125 Q4971.3125,176.4063 4972,177.4844 Q4972.6875,178.5469 4974.0313,178.5469 Q4974.6563,178.5469 4975.25,178.2813 Q4975.8438,178 4976.4688,177.4219 L4976.4688,180.1406 Z " fill="#000000"/><text fill="#000000" font-family="sans-serif" font-size="14" lengthAdjust="spacing" textLength="260.1689" x="4987.5" y="179.3467">logic_arc_int__baselibs__utils_base64</text><line style="stroke:#181818;stroke-width:0.5;" x1="4959.5" x2="5249.6689" y1="190.5" y2="190.5"/></g><!--class logic_arc_int__baselibs__task_result--><g id="elem_logic_arc_int__baselibs__task_result"><rect fill="#F1F1F1" height="40" id="logic_arc_int__baselibs__task_result" rx="2.5" ry="2.5" style="stroke:#181818;stroke-width:0.5;" width="280.9307" x="1011" y="158.5"/><ellipse cx="1026" cy="174.5" fill="#ADD1B2" rx="11" ry="11" style="stroke:#181818;stroke-width:1;"/><path d="M1028.9688,180.1406 Q1028.3906,180.4375 1027.75,180.5781 Q1027.1094,180.7344 1026.4063,180.7344 Q1023.9063,180.7344 1022.5781,179.0938 Q1021.2656,177.4375 1021.2656,174.3125 Q1021.2656,171.1875 1022.5781,169.5313 Q1023.9063,167.875 1026.4063,167.875 Q1027.1094,167.875 1027.75,168.0313 Q1028.4063,168.1875 1028.9688,168.4844 L1028.9688,171.2031 Q1028.3438,170.625 1027.75,170.3594 Q1027.1563,170.0781 1026.5313,170.0781 Q1025.1875,170.0781 1024.5,171.1563 Q1023.8125,172.2188 1023.8125,174.3125 Q1023.8125,176.4063 1024.5,177.4844 Q1025.1875,178.5469 1026.5313,178.5469 Q1027.1563,178.5469 1027.75,178.2813 Q1028.3438,178 1028.9688,177.4219 L1028.9688,180.1406 Z " fill="#000000"/><text fill="#000000" font-family="sans-serif" font-size="14" lengthAdjust="spacing" textLength="248.9307" x="1040" y="179.3467">logic_arc_int__baselibs__task_result</text><line style="stroke:#181818;stroke-width:0.5;" x1="1012" x2="1290.9307" y1="190.5" y2="190.5"/></g><!--class logic_arc_int__baselibs__message_passing--><g id="elem_logic_arc_int__baselibs__message_passing"><rect fill="#F1F1F1" height="40" id="logic_arc_int__baselibs__message_passing" rx="2.5" ry="2.5" style="stroke:#181818;stroke-width:0.5;" width="328.167" x="4595.5" y="158.5"/><ellipse cx="4610.5" cy="174.5" fill="#ADD1B2" rx="11" ry="11" style="stroke:#181818;stroke-width:1;"/><path d="M4613.4688,180.1406 Q4612.8906,180.4375 4612.25,180.5781 Q4611.6094,180.7344 4610.9063,180.7344 Q4608.4063,180.7344 4607.0781,179.0938 Q4605.7656,177.4375 4605.7656,174.3125 Q4605.7656,171.1875 4607.0781,169.5313 Q4608.4063,167.875 4610.9063,167.875 Q4611.6094,167.875 4612.25,168.0313 Q4612.9063,168.1875 4613.4688,168.4844 L4613.4688,171.2031 Q4612.8438,170.625 4612.25,170.3594 Q4611.6563,170.0781 4611.0313,170.0781 Q4609.6875,170.0781 4609,171.1563 Q4608.3125,172.2188 4608.3125,174.3125 Q4608.3125,176.4063 4609,177.4844 Q4609.6875,178.5469 4611.0313,178.5469 Q4611.6563,178.5469 4612.25,178.2813 Q4612.8438,178 4613.4688,177.4219 L4613.4688,180.1406 Z " fill="#000000"/><text fill="#000000" font-family="sans-serif" font-size="14" lengthAdjust="spacing" textLength="296.167" x="4624.5" y="179.3467">logic_arc_int__baselibs__message_passing</text><line style="stroke:#181818;stroke-width:0.5;" x1="4596.5" x2="4922.667" y1="190.5" y2="190.5"/></g><!--class comp_arc_sta__baselibs__json--><g id="elem_comp_arc_sta__baselibs__json"><rect fill="#F1F1F1" height="40" id="comp_arc_sta__baselibs__json" rx="2.5" ry="2.5" style="stroke:#181818;stroke-width:0.5;" width="242.1367" x="5949.5" y="275.5"/><ellipse cx="5964.5" cy="291.5" fill="#ADD1B2" rx="11" ry="11" style="stroke:#181818;stroke-width:1;"/><path d="M5967.4688,297.1406 Q5966.8906,297.4375 5966.25,297.5781 Q5965.6094,297.7344 5964.9063,297.7344 Q5962.4063,297.7344 5961.0781,296.0938 Q5959.7656,294.4375 5959.7656,291.3125 Q5959.7656,288.1875 5961.0781,286.5313 Q5962.4063,284.875 5964.9063,284.875 Q5965.6094,284.875 5966.25,285.0313 Q5966.9063,285.1875 5967.4688,285.4844 L5967.4688,288.2031 Q5966.8438,287.625 5966.25,287.3594 Q5965.6563,287.0781 5965.0313,287.0781 Q5963.6875,287.0781 5963,288.1563 Q5962.3125,289.2188 5962.3125,291.3125 Q5962.3125,293.4063 5963,294.4844 Q5963.6875,295.5469 5965.0313,295.5469 Q5965.6563,295.5469 5966.25,295.2813 Q5966.8438,295 5967.4688,294.4219 L5967.4688,297.1406 Z " fill="#000000"/><text fill="#000000" font-family="sans-serif" font-size="14" lengthAdjust="spacing" textLength="210.1367" x="5978.5" y="296.3467">comp_arc_sta__baselibs__json</text><line style="stroke:#181818;stroke-width:0.5;" x1="5950.5" x2="6190.6367" y1="307.5" y2="307.5"/></g><!--class logic_arc_int__baselibs__json--><g id="elem_logic_arc_int__baselibs__json"><rect fill="#F1F1F1" height="40" id="logic_arc_int__baselibs__json" rx="2.5" ry="2.5" style="stroke:#181818;stroke-width:0.5;" width="233.168" x="5952" y="158.5"/><ellipse cx="5967" cy="174.5" fill="#ADD1B2" rx="11" ry="11" style="stroke:#181818;stroke-width:1;"/><path d="M5969.9688,180.1406 Q5969.3906,180.4375 5968.75,180.5781 Q5968.1094,180.7344 5967.4063,180.7344 Q5964.9063,180.7344 5963.5781,179.0938 Q5962.2656,177.4375 5962.2656,174.3125 Q5962.2656,171.1875 5963.5781,169.5313 Q5964.9063,167.875 5967.4063,167.875 Q5968.1094,167.875 5968.75,168.0313 Q5969.4063,168.1875 5969.9688,168.4844 L5969.9688,171.2031 Q5969.3438,170.625 5968.75,170.3594 Q5968.1563,170.0781 5967.5313,170.0781 Q5966.1875,170.0781 5965.5,171.1563 Q5964.8125,172.2188 5964.8125,174.3125 Q5964.8125,176.4063 5965.5,177.4844 Q5966.1875,178.5469 5967.5313,178.5469 Q5968.1563,178.5469 5968.75,178.2813 Q5969.3438,178 5969.9688,177.4219 L5969.9688,180.1406 Z " fill="#000000"/><text fill="#000000" font-family="sans-serif" font-size="14" lengthAdjust="spacing" textLength="201.168" x="5981" y="179.3467">logic_arc_int__baselibs__json</text><line style="stroke:#181818;stroke-width:0.5;" x1="5953" x2="6184.168" y1="190.5" y2="190.5"/></g><!--class comp_arc_sta__baselibs__filesystem--><g id="elem_comp_arc_sta__baselibs__filesystem"><rect fill="#F1F1F1" height="40" id="comp_arc_sta__baselibs__filesystem" rx="2.5" ry="2.5" style="stroke:#181818;stroke-width:0.5;" width="285.4492" x="5629" y="275.5"/><ellipse cx="5644" cy="291.5" fill="#ADD1B2" rx="11" ry="11" style="stroke:#181818;stroke-width:1;"/><path d="M5646.9688,297.1406 Q5646.3906,297.4375 5645.75,297.5781 Q5645.1094,297.7344 5644.4063,297.7344 Q5641.9063,297.7344 5640.5781,296.0938 Q5639.2656,294.4375 5639.2656,291.3125 Q5639.2656,288.1875 5640.5781,286.5313 Q5641.9063,284.875 5644.4063,284.875 Q5645.1094,284.875 5645.75,285.0313 Q5646.4063,285.1875 5646.9688,285.4844 L5646.9688,288.2031 Q5646.3438,287.625 5645.75,287.3594 Q5645.1563,287.0781 5644.5313,287.0781 Q5643.1875,287.0781 5642.5,288.1563 Q5641.8125,289.2188 5641.8125,291.3125 Q5641.8125,293.4063 5642.5,294.4844 Q5643.1875,295.5469 5644.5313,295.5469 Q5645.1563,295.5469 5645.75,295.2813 Q5646.3438,295 5646.9688,294.4219 L5646.9688,297.1406 Z " fill="#000000"/><text fill="#000000" font-family="sans-serif" font-size="14" lengthAdjust="spacing" textLength="253.4492" x="5658" y="296.3467">comp_arc_sta__baselibs__filesystem</text><line style="stroke:#181818;stroke-width:0.5;" x1="5630" x2="5913.4492" y1="307.5" y2="307.5"/></g><!--class logic_arc_int__baselibs__filesystem--><g id="elem_logic_arc_int__baselibs__filesystem"><rect fill="#F1F1F1" height="40" id="logic_arc_int__baselibs__filesystem" rx="2.5" ry="2.5" style="stroke:#181818;stroke-width:0.5;" width="276.4805" x="5636.5" y="158.5"/><ellipse cx="5651.5" cy="174.5" fill="#ADD1B2" rx="11" ry="11" style="stroke:#181818;stroke-width:1;"/><path d="M5654.4688,180.1406 Q5653.8906,180.4375 5653.25,180.5781 Q5652.6094,180.7344 5651.9063,180.7344 Q5649.4063,180.7344 5648.0781,179.0938 Q5646.7656,177.4375 5646.7656,174.3125 Q5646.7656,171.1875 5648.0781,169.5313 Q5649.4063,167.875 5651.9063,167.875 Q5652.6094,167.875 5653.25,168.0313 Q5653.9063,168.1875 5654.4688,168.4844 L5654.4688,171.2031 Q5653.8438,170.625 5653.25,170.3594 Q5652.6563,170.0781 5652.0313,170.0781 Q5650.6875,170.0781 5650,171.1563 Q5649.3125,172.2188 5649.3125,174.3125 Q5649.3125,176.4063 5650,177.4844 Q5650.6875,178.5469 5652.0313,178.5469 Q5652.6563,178.5469 5653.25,178.2813 Q5653.8438,178 5654.4688,177.4219 L5654.4688,180.1406 Z " fill="#000000"/><text fill="#000000" font-family="sans-serif" font-size="14" lengthAdjust="spacing" textLength="244.4805" x="5665.5" y="179.3467">logic_arc_int__baselibs__filesystem</text><line style="stroke:#181818;stroke-width:0.5;" x1="5637.5" x2="5911.9805" y1="190.5" y2="190.5"/></g><!--class logic_arc_int__baselibs__condition_variable--><g id="elem_logic_arc_int__baselibs__condition_variable"><rect fill="#F1F1F1" height="40" id="logic_arc_int__baselibs__condition_variable" rx="2.5" ry="2.5" style="stroke:#181818;stroke-width:0.5;" width="332.7539" x="1609" y="158.5"/><ellipse cx="1624" cy="174.5" fill="#ADD1B2" rx="11" ry="11" style="stroke:#181818;stroke-width:1;"/><path d="M1626.9688,180.1406 Q1626.3906,180.4375 1625.75,180.5781 Q1625.1094,180.7344 1624.4063,180.7344 Q1621.9063,180.7344 1620.5781,179.0938 Q1619.2656,177.4375 1619.2656,174.3125 Q1619.2656,171.1875 1620.5781,169.5313 Q1621.9063,167.875 1624.4063,167.875 Q1625.1094,167.875 1625.75,168.0313 Q1626.4063,168.1875 1626.9688,168.4844 L1626.9688,171.2031 Q1626.3438,170.625 1625.75,170.3594 Q1625.1563,170.0781 1624.5313,170.0781 Q1623.1875,170.0781 1622.5,171.1563 Q1621.8125,172.2188 1621.8125,174.3125 Q1621.8125,176.4063 1622.5,177.4844 Q1623.1875,178.5469 1624.5313,178.5469 Q1625.1563,178.5469 1625.75,178.2813 Q1626.3438,178 1626.9688,177.4219 L1626.9688,180.1406 Z " fill="#000000"/><text fill="#000000" font-family="sans-serif" font-size="14" lengthAdjust="spacing" textLength="300.7539" x="1638" y="179.3467">logic_arc_int__baselibs__condition_variable</text><line style="stroke:#181818;stroke-width:0.5;" x1="1610" x2="1940.7539" y1="190.5" y2="190.5"/></g><!--class comp_arc_sta__baselibs__concurrency--><g id="elem_comp_arc_sta__baselibs__concurrency"><rect fill="#F1F1F1" height="40" id="comp_arc_sta__baselibs__concurrency" rx="2.5" ry="2.5" style="stroke:#181818;stroke-width:0.5;" width="300.2012" x="1463.5" y="275.5"/><ellipse cx="1478.5" cy="291.5" fill="#ADD1B2" rx="11" ry="11" style="stroke:#181818;stroke-width:1;"/><path d="M1481.4688,297.1406 Q1480.8906,297.4375 1480.25,297.5781 Q1479.6094,297.7344 1478.9063,297.7344 Q1476.4063,297.7344 1475.0781,296.0938 Q1473.7656,294.4375 1473.7656,291.3125 Q1473.7656,288.1875 1475.0781,286.5313 Q1476.4063,284.875 1478.9063,284.875 Q1479.6094,284.875 1480.25,285.0313 Q1480.9063,285.1875 1481.4688,285.4844 L1481.4688,288.2031 Q1480.8438,287.625 1480.25,287.3594 Q1479.6563,287.0781 1479.0313,287.0781 Q1477.6875,287.0781 1477,288.1563 Q1476.3125,289.2188 1476.3125,291.3125 Q1476.3125,293.4063 1477,294.4844 Q1477.6875,295.5469 1479.0313,295.5469 Q1479.6563,295.5469 1480.25,295.2813 Q1480.8438,295 1481.4688,294.4219 L1481.4688,297.1406 Z " fill="#000000"/><text fill="#000000" font-family="sans-serif" font-size="14" lengthAdjust="spacing" textLength="268.2012" x="1492.5" y="296.3467">comp_arc_sta__baselibs__concurrency</text><line style="stroke:#181818;stroke-width:0.5;" x1="1464.5" x2="1762.7012" y1="307.5" y2="307.5"/></g><!--class logic_arc_int__baselibs__result--><g id="elem_logic_arc_int__baselibs__result"><rect fill="#F1F1F1" height="40" id="logic_arc_int__baselibs__result" rx="2.5" ry="2.5" style="stroke:#181818;stroke-width:0.5;" width="244.4609" x="11.5" y="158.5"/><ellipse cx="26.5" cy="174.5" fill="#ADD1B2" rx="11" ry="11" style="stroke:#181818;stroke-width:1;"/><path d="M29.4688,180.1406 Q28.8906,180.4375 28.25,180.5781 Q27.6094,180.7344 26.9063,180.7344 Q24.4063,180.7344 23.0781,179.0938 Q21.7656,177.4375 21.7656,174.3125 Q21.7656,171.1875 23.0781,169.5313 Q24.4063,167.875 26.9063,167.875 Q27.6094,167.875 28.25,168.0313 Q28.9063,168.1875 29.4688,168.4844 L29.4688,171.2031 Q28.8438,170.625 28.25,170.3594 Q27.6563,170.0781 27.0313,170.0781 Q25.6875,170.0781 25,171.1563 Q24.3125,172.2188 24.3125,174.3125 Q24.3125,176.4063 25,177.4844 Q25.6875,178.5469 27.0313,178.5469 Q27.6563,178.5469 28.25,178.2813 Q28.8438,178 29.4688,177.4219 L29.4688,180.1406 Z " fill="#000000"/><text fill="#000000" font-family="sans-serif" font-size="14" lengthAdjust="spacing" textLength="212.4609" x="40.5" y="179.3467">logic_arc_int__baselibs__result</text><line style="stroke:#181818;stroke-width:0.5;" x1="12.5" x2="254.9609" y1="190.5" y2="190.5"/></g><!--class comp_arc_sta__baselibs__message_passing--><g id="elem_comp_arc_sta__baselibs__message_passing"><rect fill="#F1F1F1" height="40" id="comp_arc_sta__baselibs__message_passing" rx="2.5" ry="2.5" style="stroke:#181818;stroke-width:0.5;" width="337.1357" x="4591" y="275.5"/><ellipse cx="4606" cy="291.5" fill="#ADD1B2" rx="11" ry="11" style="stroke:#181818;stroke-width:1;"/><path d="M4608.9688,297.1406 Q4608.3906,297.4375 4607.75,297.5781 Q4607.1094,297.7344 4606.4063,297.7344 Q4603.9063,297.7344 4602.5781,296.0938 Q4601.2656,294.4375 4601.2656,291.3125 Q4601.2656,288.1875 4602.5781,286.5313 Q4603.9063,284.875 4606.4063,284.875 Q4607.1094,284.875 4607.75,285.0313 Q4608.4063,285.1875 4608.9688,285.4844 L4608.9688,288.2031 Q4608.3438,287.625 4607.75,287.3594 Q4607.1563,287.0781 4606.5313,287.0781 Q4605.1875,287.0781 4604.5,288.1563 Q4603.8125,289.2188 4603.8125,291.3125 Q4603.8125,293.4063 4604.5,294.4844 Q4605.1875,295.5469 4606.5313,295.5469 Q4607.1563,295.5469 4607.75,295.2813 Q4608.3438,295 4608.9688,294.4219 L4608.9688,297.1406 Z " fill="#000000"/><text fill="#000000" font-family="sans-serif" font-size="14" lengthAdjust="spacing" textLength="305.1357" x="4620" y="296.3467">comp_arc_sta__baselibs__message_passing</text><line style="stroke:#181818;stroke-width:0.5;" x1="4592" x2="4927.1357" y1="307.5" y2="307.5"/></g><!--class comp_arc_sta__baselibs__bit_manipulation--><g id="elem_comp_arc_sta__baselibs__bit_manipulation"><rect fill="#F1F1F1" height="40" id="comp_arc_sta__baselibs__bit_manipulation" rx="2.5" ry="2.5" style="stroke:#181818;stroke-width:0.5;" width="330.8057" x="3290" y="275.5"/><ellipse cx="3305" cy="291.5" fill="#ADD1B2" rx="11" ry="11" style="stroke:#181818;stroke-width:1;"/><path d="M3307.9688,297.1406 Q3307.3906,297.4375 3306.75,297.5781 Q3306.1094,297.7344 3305.4063,297.7344 Q3302.9063,297.7344 3301.5781,296.0938 Q3300.2656,294.4375 3300.2656,291.3125 Q3300.2656,288.1875 3301.5781,286.5313 Q3302.9063,284.875 3305.4063,284.875 Q3306.1094,284.875 3306.75,285.0313 Q3307.4063,285.1875 3307.9688,285.4844 L3307.9688,288.2031 Q3307.3438,287.625 3306.75,287.3594 Q3306.1563,287.0781 3305.5313,287.0781 Q3304.1875,287.0781 3303.5,288.1563 Q3302.8125,289.2188 3302.8125,291.3125 Q3302.8125,293.4063 3303.5,294.4844 Q3304.1875,295.5469 3305.5313,295.5469 Q3306.1563,295.5469 3306.75,295.2813 Q3307.3438,295 3307.9688,294.4219 L3307.9688,297.1406 Z " fill="#000000"/><text fill="#000000" font-family="sans-serif" font-size="14" lengthAdjust="spacing" textLength="298.8057" x="3319" y="296.3467">comp_arc_sta__baselibs__bit_manipulation</text><line style="stroke:#181818;stroke-width:0.5;" x1="3291" x2="3619.8057" y1="307.5" y2="307.5"/></g><!--class logic_arc_int__baselibs__bit_manipulation--><g id="elem_logic_arc_int__baselibs__bit_manipulation"><rect fill="#F1F1F1" height="40" id="logic_arc_int__baselibs__bit_manipulation" rx="2.5" ry="2.5" style="stroke:#181818;stroke-width:0.5;" width="321.8369" x="3196.5" y="158.5"/><ellipse cx="3211.5" cy="174.5" fill="#ADD1B2" rx="11" ry="11" style="stroke:#181818;stroke-width:1;"/><path d="M3214.4688,180.1406 Q3213.8906,180.4375 3213.25,180.5781 Q3212.6094,180.7344 3211.9063,180.7344 Q3209.4063,180.7344 3208.0781,179.0938 Q3206.7656,177.4375 3206.7656,174.3125 Q3206.7656,171.1875 3208.0781,169.5313 Q3209.4063,167.875 3211.9063,167.875 Q3212.6094,167.875 3213.25,168.0313 Q3213.9063,168.1875 3214.4688,168.4844 L3214.4688,171.2031 Q3213.8438,170.625 3213.25,170.3594 Q3212.6563,170.0781 3212.0313,170.0781 Q3210.6875,170.0781 3210,171.1563 Q3209.3125,172.2188 3209.3125,174.3125 Q3209.3125,176.4063 3210,177.4844 Q3210.6875,178.5469 3212.0313,178.5469 Q3212.6563,178.5469 3213.25,178.2813 Q3213.8438,178 3214.4688,177.4219 L3214.4688,180.1406 Z " fill="#000000"/><text fill="#000000" font-family="sans-serif" font-size="14" lengthAdjust="spacing" textLength="289.8369" x="3225.5" y="179.3467">logic_arc_int__baselibs__bit_manipulation</text><line style="stroke:#181818;stroke-width:0.5;" x1="3197.5" x2="3517.3369" y1="190.5" y2="190.5"/></g><!--class logic_arc_int__baselibs__executor--><g id="elem_logic_arc_int__baselibs__executor"><rect fill="#F1F1F1" height="40" id="logic_arc_int__baselibs__executor" rx="2.5" ry="2.5" style="stroke:#181818;stroke-width:0.5;" width="266.4385" x="2273.5" y="158.5"/><ellipse cx="2288.5" cy="174.5" fill="#ADD1B2" rx="11" ry="11" style="stroke:#181818;stroke-width:1;"/><path d="M2291.4688,180.1406 Q2290.8906,180.4375 2290.25,180.5781 Q2289.6094,180.7344 2288.9063,180.7344 Q2286.4063,180.7344 2285.0781,179.0938 Q2283.7656,177.4375 2283.7656,174.3125 Q2283.7656,171.1875 2285.0781,169.5313 Q2286.4063,167.875 2288.9063,167.875 Q2289.6094,167.875 2290.25,168.0313 Q2290.9063,168.1875 2291.4688,168.4844 L2291.4688,171.2031 Q2290.8438,170.625 2290.25,170.3594 Q2289.6563,170.0781 2289.0313,170.0781 Q2287.6875,170.0781 2287,171.1563 Q2286.3125,172.2188 2286.3125,174.3125 Q2286.3125,176.4063 2287,177.4844 Q2287.6875,178.5469 2289.0313,178.5469 Q2289.6563,178.5469 2290.25,178.2813 Q2290.8438,178 2291.4688,177.4219 L2291.4688,180.1406 Z " fill="#000000"/><text fill="#000000" font-family="sans-serif" font-size="14" lengthAdjust="spacing" textLength="234.4385" x="2302.5" y="179.3467">logic_arc_int__baselibs__executor</text><line style="stroke:#181818;stroke-width:0.5;" x1="2274.5" x2="2538.9385" y1="190.5" y2="190.5"/></g><!--class logic_arc_int__baselibs__utils_scoped_op--><g id="elem_logic_arc_int__baselibs__utils_scoped_op"><rect fill="#F1F1F1" height="40" id="logic_arc_int__baselibs__utils_scoped_op" rx="2.5" ry="2.5" style="stroke:#181818;stroke-width:0.5;" width="315.377" x="5286" y="158.5"/><ellipse cx="5301" cy="174.5" fill="#ADD1B2" rx="11" ry="11" style="stroke:#181818;stroke-width:1;"/><path d="M5303.9688,180.1406 Q5303.3906,180.4375 5302.75,180.5781 Q5302.1094,180.7344 5301.4063,180.7344 Q5298.9063,180.7344 5297.5781,179.0938 Q5296.2656,177.4375 5296.2656,174.3125 Q5296.2656,171.1875 5297.5781,169.5313 Q5298.9063,167.875 5301.4063,167.875 Q5302.1094,167.875 5302.75,168.0313 Q5303.4063,168.1875 5303.9688,168.4844 L5303.9688,171.2031 Q5303.3438,170.625 5302.75,170.3594 Q5302.1563,170.0781 5301.5313,170.0781 Q5300.1875,170.0781 5299.5,171.1563 Q5298.8125,172.2188 5298.8125,174.3125 Q5298.8125,176.4063 5299.5,177.4844 Q5300.1875,178.5469 5301.5313,178.5469 Q5302.1563,178.5469 5302.75,178.2813 Q5303.3438,178 5303.9688,177.4219 L5303.9688,180.1406 Z " fill="#000000"/><text fill="#000000" font-family="sans-serif" font-size="14" lengthAdjust="spacing" textLength="283.377" x="5315" y="179.3467">logic_arc_int__baselibs__utils_scoped_op</text><line style="stroke:#181818;stroke-width:0.5;" x1="5287" x2="5600.377" y1="190.5" y2="190.5"/></g><!--class logic_arc_int__baselibs__bit_mask_operator--><g id="elem_logic_arc_int__baselibs__bit_mask_operator"><rect fill="#F1F1F1" height="40" id="logic_arc_int__baselibs__bit_mask_operator" rx="2.5" ry="2.5" style="stroke:#181818;stroke-width:0.5;" width="334.6406" x="3554" y="158.5"/><ellipse cx="3569" cy="174.5" fill="#ADD1B2" rx="11" ry="11" style="stroke:#181818;stroke-width:1;"/><path d="M3571.9688,180.1406 Q3571.3906,180.4375 3570.75,180.5781 Q3570.1094,180.7344 3569.4063,180.7344 Q3566.9063,180.7344 3565.5781,179.0938 Q3564.2656,177.4375 3564.2656,174.3125 Q3564.2656,171.1875 3565.5781,169.5313 Q3566.9063,167.875 3569.4063,167.875 Q3570.1094,167.875 3570.75,168.0313 Q3571.4063,168.1875 3571.9688,168.4844 L3571.9688,171.2031 Q3571.3438,170.625 3570.75,170.3594 Q3570.1563,170.0781 3569.5313,170.0781 Q3568.1875,170.0781 3567.5,171.1563 Q3566.8125,172.2188 3566.8125,174.3125 Q3566.8125,176.4063 3567.5,177.4844 Q3568.1875,178.5469 3569.5313,178.5469 Q3570.1563,178.5469 3570.75,178.2813 Q3571.3438,178 3571.9688,177.4219 L3571.9688,180.1406 Z " fill="#000000"/><text fill="#000000" font-family="sans-serif" font-size="14" lengthAdjust="spacing" textLength="302.6406" x="3583" y="179.3467">logic_arc_int__baselibs__bit_mask_operator</text><line style="stroke:#181818;stroke-width:0.5;" x1="3555" x2="3887.6406" y1="190.5" y2="190.5"/></g><!--class logic_arc_int__baselibs__promise--><g id="elem_logic_arc_int__baselibs__promise"><rect fill="#F1F1F1" height="40" id="logic_arc_int__baselibs__promise" rx="2.5" ry="2.5" style="stroke:#181818;stroke-width:0.5;" width="261.1885" x="1977" y="158.5"/><ellipse cx="1992" cy="174.5" fill="#ADD1B2" rx="11" ry="11" style="stroke:#181818;stroke-width:1;"/><path d="M1994.9688,180.1406 Q1994.3906,180.4375 1993.75,180.5781 Q1993.1094,180.7344 1992.4063,180.7344 Q1989.9063,180.7344 1988.5781,179.0938 Q1987.2656,177.4375 1987.2656,174.3125 Q1987.2656,171.1875 1988.5781,169.5313 Q1989.9063,167.875 1992.4063,167.875 Q1993.1094,167.875 1993.75,168.0313 Q1994.4063,168.1875 1994.9688,168.4844 L1994.9688,171.2031 Q1994.3438,170.625 1993.75,170.3594 Q1993.1563,170.0781 1992.5313,170.0781 Q1991.1875,170.0781 1990.5,171.1563 Q1989.8125,172.2188 1989.8125,174.3125 Q1989.8125,176.4063 1990.5,177.4844 Q1991.1875,178.5469 1992.5313,178.5469 Q1993.1563,178.5469 1993.75,178.2813 Q1994.3438,178 1994.9688,177.4219 L1994.9688,180.1406 Z " fill="#000000"/><text fill="#000000" font-family="sans-serif" font-size="14" lengthAdjust="spacing" textLength="229.1885" x="2006" y="179.3467">logic_arc_int__baselibs__promise</text><line style="stroke:#181818;stroke-width:0.5;" x1="1978" x2="2237.1885" y1="190.5" y2="190.5"/></g><!--class logic_arc_int__baselibs__intrusive_list--><g id="elem_logic_arc_int__baselibs__intrusive_list"><rect fill="#F1F1F1" height="40" id="logic_arc_int__baselibs__intrusive_list" rx="2.5" ry="2.5" style="stroke:#181818;stroke-width:0.5;" width="293.0713" x="3924" y="158.5"/><ellipse cx="3939" cy="174.5" fill="#ADD1B2" rx="11" ry="11" style="stroke:#181818;stroke-width:1;"/><path d="M3941.9688,180.1406 Q3941.3906,180.4375 3940.75,180.5781 Q3940.1094,180.7344 3939.4063,180.7344 Q3936.9063,180.7344 3935.5781,179.0938 Q3934.2656,177.4375 3934.2656,174.3125 Q3934.2656,171.1875 3935.5781,169.5313 Q3936.9063,167.875 3939.4063,167.875 Q3940.1094,167.875 3940.75,168.0313 Q3941.4063,168.1875 3941.9688,168.4844 L3941.9688,171.2031 Q3941.3438,170.625 3940.75,170.3594 Q3940.1563,170.0781 3939.5313,170.0781 Q3938.1875,170.0781 3937.5,171.1563 Q3936.8125,172.2188 3936.8125,174.3125 Q3936.8125,176.4063 3937.5,177.4844 Q3938.1875,178.5469 3939.5313,178.5469 Q3940.1563,178.5469 3940.75,178.2813 Q3941.3438,178 3941.9688,177.4219 L3941.9688,180.1406 Z " fill="#000000"/><text fill="#000000" font-family="sans-serif" font-size="14" lengthAdjust="spacing" textLength="261.0713" x="3953" y="179.3467">logic_arc_int__baselibs__intrusive_list</text><line style="stroke:#181818;stroke-width:0.5;" x1="3925" x2="4216.0713" y1="190.5" y2="190.5"/></g><!--class logic_arc_int__baselibs__shared_future--><g id="elem_logic_arc_int__baselibs__shared_future"><rect fill="#F1F1F1" height="40" id="logic_arc_int__baselibs__shared_future" rx="2.5" ry="2.5" style="stroke:#181818;stroke-width:0.5;" width="302.0811" x="673.5" y="158.5"/><ellipse cx="688.5" cy="174.5" fill="#ADD1B2" rx="11" ry="11" style="stroke:#181818;stroke-width:1;"/><path d="M691.4688,180.1406 Q690.8906,180.4375 690.25,180.5781 Q689.6094,180.7344 688.9063,180.7344 Q686.4063,180.7344 685.0781,179.0938 Q683.7656,177.4375 683.7656,174.3125 Q683.7656,171.1875 685.0781,169.5313 Q686.4063,167.875 688.9063,167.875 Q689.6094,167.875 690.25,168.0313 Q690.9063,168.1875 691.4688,168.4844 L691.4688,171.2031 Q690.8438,170.625 690.25,170.3594 Q689.6563,170.0781 689.0313,170.0781 Q687.6875,170.0781 687,171.1563 Q686.3125,172.2188 686.3125,174.3125 Q686.3125,176.4063 687,177.4844 Q687.6875,178.5469 689.0313,178.5469 Q689.6563,178.5469 690.25,178.2813 Q690.8438,178 691.4688,177.4219 L691.4688,180.1406 Z " fill="#000000"/><text fill="#000000" font-family="sans-serif" font-size="14" lengthAdjust="spacing" textLength="270.0811" x="702.5" y="179.3467">logic_arc_int__baselibs__shared_future</text><line style="stroke:#181818;stroke-width:0.5;" x1="674.5" x2="974.5811" y1="190.5" y2="190.5"/></g><!--class comp_arc_sta__baselibs__memory_shared--><g id="elem_comp_arc_sta__baselibs__memory_shared"><rect fill="#F1F1F1" height="40" id="comp_arc_sta__baselibs__memory_shared" rx="2.5" ry="2.5" style="stroke:#181818;stroke-width:0.5;" width="327.0117" x="2839" y="275.5"/><ellipse cx="2854" cy="291.5" fill="#ADD1B2" rx="11" ry="11" style="stroke:#181818;stroke-width:1;"/><path d="M2856.9688,297.1406 Q2856.3906,297.4375 2855.75,297.5781 Q2855.1094,297.7344 2854.4063,297.7344 Q2851.9063,297.7344 2850.5781,296.0938 Q2849.2656,294.4375 2849.2656,291.3125 Q2849.2656,288.1875 2850.5781,286.5313 Q2851.9063,284.875 2854.4063,284.875 Q2855.1094,284.875 2855.75,285.0313 Q2856.4063,285.1875 2856.9688,285.4844 L2856.9688,288.2031 Q2856.3438,287.625 2855.75,287.3594 Q2855.1563,287.0781 2854.5313,287.0781 Q2853.1875,287.0781 2852.5,288.1563 Q2851.8125,289.2188 2851.8125,291.3125 Q2851.8125,293.4063 2852.5,294.4844 Q2853.1875,295.5469 2854.5313,295.5469 Q2855.1563,295.5469 2855.75,295.2813 Q2856.3438,295 2856.9688,294.4219 L2856.9688,297.1406 Z " fill="#000000"/><text fill="#000000" font-family="sans-serif" font-size="14" lengthAdjust="spacing" textLength="295.0117" x="2868" y="296.3467">comp_arc_sta__baselibs__memory_shared</text><line style="stroke:#181818;stroke-width:0.5;" x1="2840" x2="3165.0117" y1="307.5" y2="307.5"/></g><!--class logic_arc_int__baselibs__memory_shared--><g id="elem_logic_arc_int__baselibs__memory_shared"><rect fill="#F1F1F1" height="40" id="logic_arc_int__baselibs__memory_shared" rx="2.5" ry="2.5" style="stroke:#181818;stroke-width:0.5;" width="318.043" x="2843.5" y="158.5"/><ellipse cx="2858.5" cy="174.5" fill="#ADD1B2" rx="11" ry="11" style="stroke:#181818;stroke-width:1;"/><path d="M2861.4688,180.1406 Q2860.8906,180.4375 2860.25,180.5781 Q2859.6094,180.7344 2858.9063,180.7344 Q2856.4063,180.7344 2855.0781,179.0938 Q2853.7656,177.4375 2853.7656,174.3125 Q2853.7656,171.1875 2855.0781,169.5313 Q2856.4063,167.875 2858.9063,167.875 Q2859.6094,167.875 2860.25,168.0313 Q2860.9063,168.1875 2861.4688,168.4844 L2861.4688,171.2031 Q2860.8438,170.625 2860.25,170.3594 Q2859.6563,170.0781 2859.0313,170.0781 Q2857.6875,170.0781 2857,171.1563 Q2856.3125,172.2188 2856.3125,174.3125 Q2856.3125,176.4063 2857,177.4844 Q2857.6875,178.5469 2859.0313,178.5469 Q2859.6563,178.5469 2860.25,178.2813 Q2860.8438,178 2861.4688,177.4219 L2861.4688,180.1406 Z " fill="#000000"/><text fill="#000000" font-family="sans-serif" font-size="14" lengthAdjust="spacing" textLength="286.043" x="2872.5" y="179.3467">logic_arc_int__baselibs__memory_shared</text><line style="stroke:#181818;stroke-width:0.5;" x1="2844.5" x2="3160.543" y1="190.5" y2="190.5"/></g><!--class comp_arc_sta__baselibs__result--><g id="elem_comp_arc_sta__baselibs__result"><rect fill="#F1F1F1" height="40" id="comp_arc_sta__baselibs__result" rx="2.5" ry="2.5" style="stroke:#181818;stroke-width:0.5;" width="253.4297" x="7" y="275.5"/><ellipse cx="22" cy="291.5" fill="#ADD1B2" rx="11" ry="11" style="stroke:#181818;stroke-width:1;"/><path d="M24.9688,297.1406 Q24.3906,297.4375 23.75,297.5781 Q23.1094,297.7344 22.4063,297.7344 Q19.9063,297.7344 18.5781,296.0938 Q17.2656,294.4375 17.2656,291.3125 Q17.2656,288.1875 18.5781,286.5313 Q19.9063,284.875 22.4063,284.875 Q23.1094,284.875 23.75,285.0313 Q24.4063,285.1875 24.9688,285.4844 L24.9688,288.2031 Q24.3438,287.625 23.75,287.3594 Q23.1563,287.0781 22.5313,287.0781 Q21.1875,287.0781 20.5,288.1563 Q19.8125,289.2188 19.8125,291.3125 Q19.8125,293.4063 20.5,294.4844 Q21.1875,295.5469 22.5313,295.5469 Q23.1563,295.5469 23.75,295.2813 Q24.3438,295 24.9688,294.4219 L24.9688,297.1406 Z " fill="#000000"/><text fill="#000000" font-family="sans-serif" font-size="14" lengthAdjust="spacing" textLength="221.4297" x="36" y="296.3467">comp_arc_sta__baselibs__result</text><line style="stroke:#181818;stroke-width:0.5;" x1="8" x2="259.4297" y1="307.5" y2="307.5"/></g><!--class logic_arc_int__baselibs__task--><g id="elem_logic_arc_int__baselibs__task"><rect fill="#F1F1F1" height="40" id="logic_arc_int__baselibs__task" rx="2.5" ry="2.5" style="stroke:#181818;stroke-width:0.5;" width="234.0156" x="2574.5" y="158.5"/><ellipse cx="2589.5" cy="174.5" fill="#ADD1B2" rx="11" ry="11" style="stroke:#181818;stroke-width:1;"/><path d="M2592.4688,180.1406 Q2591.8906,180.4375 2591.25,180.5781 Q2590.6094,180.7344 2589.9063,180.7344 Q2587.4063,180.7344 2586.0781,179.0938 Q2584.7656,177.4375 2584.7656,174.3125 Q2584.7656,171.1875 2586.0781,169.5313 Q2587.4063,167.875 2589.9063,167.875 Q2590.6094,167.875 2591.25,168.0313 Q2591.9063,168.1875 2592.4688,168.4844 L2592.4688,171.2031 Q2591.8438,170.625 2591.25,170.3594 Q2590.6563,170.0781 2590.0313,170.0781 Q2588.6875,170.0781 2588,171.1563 Q2587.3125,172.2188 2587.3125,174.3125 Q2587.3125,176.4063 2588,177.4844 Q2588.6875,178.5469 2590.0313,178.5469 Q2590.6563,178.5469 2591.25,178.2813 Q2591.8438,178 2592.4688,177.4219 L2592.4688,180.1406 Z " fill="#000000"/><text fill="#000000" font-family="sans-serif" font-size="14" lengthAdjust="spacing" textLength="202.0156" x="2603.5" y="179.3467">logic_arc_int__baselibs__task</text><line style="stroke:#181818;stroke-width:0.5;" x1="2575.5" x2="2807.5156" y1="190.5" y2="190.5"/></g><!--class logic_arc_int__baselibs__future--><g id="elem_logic_arc_int__baselibs__future"><rect fill="#F1F1F1" height="40" id="logic_arc_int__baselibs__future" rx="2.5" ry="2.5" style="stroke:#181818;stroke-width:0.5;" width="247.0791" x="1327" y="158.5"/><ellipse cx="1342" cy="174.5" fill="#ADD1B2" rx="11" ry="11" style="stroke:#181818;stroke-width:1;"/><path d="M1344.9688,180.1406 Q1344.3906,180.4375 1343.75,180.5781 Q1343.1094,180.7344 1342.4063,180.7344 Q1339.9063,180.7344 1338.5781,179.0938 Q1337.2656,177.4375 1337.2656,174.3125 Q1337.2656,171.1875 1338.5781,169.5313 Q1339.9063,167.875 1342.4063,167.875 Q1343.1094,167.875 1343.75,168.0313 Q1344.4063,168.1875 1344.9688,168.4844 L1344.9688,171.2031 Q1344.3438,170.625 1343.75,170.3594 Q1343.1563,170.0781 1342.5313,170.0781 Q1341.1875,170.0781 1340.5,171.1563 Q1339.8125,172.2188 1339.8125,174.3125 Q1339.8125,176.4063 1340.5,177.4844 Q1341.1875,178.5469 1342.5313,178.5469 Q1343.1563,178.5469 1343.75,178.2813 Q1344.3438,178 1344.9688,177.4219 L1344.9688,180.1406 Z " fill="#000000"/><text fill="#000000" font-family="sans-serif" font-size="14" lengthAdjust="spacing" textLength="215.0791" x="1356" y="179.3467">logic_arc_int__baselibs__future</text><line style="stroke:#181818;stroke-width:0.5;" x1="1328" x2="1573.0791" y1="190.5" y2="190.5"/></g><!--class logic_arc_int__baselibs__synchronized_queue--><g id="elem_logic_arc_int__baselibs__synchronized_queue"><rect fill="#F1F1F1" height="40" id="logic_arc_int__baselibs__synchronized_queue" rx="2.5" ry="2.5" style="stroke:#181818;stroke-width:0.5;" width="348.3604" x="290.5" y="158.5"/><ellipse cx="305.5" cy="174.5" fill="#ADD1B2" rx="11" ry="11" style="stroke:#181818;stroke-width:1;"/><path d="M308.4688,180.1406 Q307.8906,180.4375 307.25,180.5781 Q306.6094,180.7344 305.9063,180.7344 Q303.4063,180.7344 302.0781,179.0938 Q300.7656,177.4375 300.7656,174.3125 Q300.7656,171.1875 302.0781,169.5313 Q303.4063,167.875 305.9063,167.875 Q306.6094,167.875 307.25,168.0313 Q307.9063,168.1875 308.4688,168.4844 L308.4688,171.2031 Q307.8438,170.625 307.25,170.3594 Q306.6563,170.0781 306.0313,170.0781 Q304.6875,170.0781 304,171.1563 Q303.3125,172.2188 303.3125,174.3125 Q303.3125,176.4063 304,177.4844 Q304.6875,178.5469 306.0313,178.5469 Q306.6563,178.5469 307.25,178.2813 Q307.8438,178 308.4688,177.4219 L308.4688,180.1406 Z " fill="#000000"/><text fill="#000000" font-family="sans-serif" font-size="14" lengthAdjust="spacing" textLength="316.3604" x="319.5" y="179.3467">logic_arc_int__baselibs__synchronized_queue</text><line style="stroke:#181818;stroke-width:0.5;" x1="291.5" x2="637.8604" y1="190.5" y2="190.5"/></g><!--reverse link logic_arc_int__baselibs__dynamic_array to comp_arc_sta__baselibs__containers--><g id="link_logic_arc_int__baselibs__dynamic_array_comp_arc_sta__baselibs__containers"><path codeLine="15" d="M4368.5148,201.7861 C4332.2248,223.0761 4279.29,254.14 4243.09,275.38 " fill="transparent" id="logic_arc_int__baselibs__dynamic_array-backto-comp_arc_sta__baselibs__containers" style="stroke:#181818;stroke-width:1;"/><polygon fill="#181818" points="4373.69,198.75,4363.9032,199.854,4369.3774,201.2801,4367.9513,206.7542,4373.69,198.75" style="stroke:#181818;stroke-width:1;"/><text fill="#000000" font-family="sans-serif" font-size="13" lengthAdjust="spacing" textLength="76.9082" x="4321.5" y="241.5669">implements</text></g><!--reverse link logic_arc_int__baselibs__utils_base64 to comp_arc_sta__baselibs__utils--><g id="link_logic_arc_int__baselibs__utils_base64_comp_arc_sta__baselibs__utils"><path codeLine="16" d="M5137.7506,202.1252 C5169.0406,223.4152 5214.19,254.14 5245.4,275.38 " fill="transparent" id="logic_arc_int__baselibs__utils_base64-backto-comp_arc_sta__baselibs__utils" style="stroke:#181818;stroke-width:1;"/><polygon fill="#181818" points="5132.79,198.75,5137.9808,207.1199,5136.9238,201.5627,5142.4811,200.5058,5132.79,198.75" style="stroke:#181818;stroke-width:1;"/><text fill="#000000" font-family="sans-serif" font-size="13" lengthAdjust="spacing" textLength="76.9082" x="5200.5" y="241.5669">implements</text></g><!--link Feature_User to logic_arc_int__baselibs__task_result--><g id="link_Feature_User_logic_arc_int__baselibs__task_result"><path codeLine="17" d="M2957.28,46.39 C2760.85,54.86 1962.3,91.78 1309.5,158.5 C1303.87,159.08 1304.0849,159.0321 1298.2849,159.6621 " fill="transparent" id="Feature_User-to-logic_arc_int__baselibs__task_result" style="stroke:#181818;stroke-width:1;"/><polygon fill="#181818" points="1292.32,160.31,1301.6993,163.3147,1297.2908,159.7701,1300.8354,155.3615,1292.32,160.31" style="stroke:#181818;stroke-width:1;"/><text fill="#000000" font-family="sans-serif" font-size="13" lengthAdjust="spacing" textLength="23.0103" x="1822.5" y="124.5669">use</text></g><!--link Feature_User to logic_arc_int__baselibs__message_passing--><g id="link_Feature_User_logic_arc_int__baselibs__message_passing"><path codeLine="18" d="M3047.65,47.24 C3235.37,58.74 3972.61,105 4577.5,158.5 C4583.35,159.02 4583.3358,159.0043 4589.3558,159.5643 " fill="transparent" id="Feature_User-to-logic_arc_int__baselibs__message_passing" style="stroke:#181818;stroke-width:1;"/><polygon fill="#181818" points="4595.33,160.12,4586.7392,155.3036,4590.3515,159.6569,4585.9982,163.2692,4595.33,160.12" style="stroke:#181818;stroke-width:1;"/><text fill="#000000" font-family="sans-serif" font-size="13" lengthAdjust="spacing" textLength="23.0103" x="4190.5" y="124.5669">use</text></g><!--reverse link logic_arc_int__baselibs__json to comp_arc_sta__baselibs__json--><g id="link_logic_arc_int__baselibs__json_comp_arc_sta__baselibs__json"><path codeLine="19" d="M6068.9346,204.7491 C6069.3046,225.9791 6069.79,253.94 6070.16,275.19 " fill="transparent" id="logic_arc_int__baselibs__json-backto-comp_arc_sta__baselibs__json" style="stroke:#181818;stroke-width:1;"/><polygon fill="#181818" points="6068.83,198.75,6064.9874,207.8183,6068.9171,203.7492,6072.9862,207.6789,6068.83,198.75" style="stroke:#181818;stroke-width:1;"/><text fill="#000000" font-family="sans-serif" font-size="13" lengthAdjust="spacing" textLength="76.9082" x="6070.5" y="241.5669">implements</text></g><!--reverse link logic_arc_int__baselibs__filesystem to comp_arc_sta__baselibs__filesystem--><g id="link_logic_arc_int__baselibs__filesystem_comp_arc_sta__baselibs__filesystem"><path codeLine="20" d="M5773.8418,204.7479 C5773.2818,225.9779 5772.56,253.94 5772,275.19 " fill="transparent" id="logic_arc_int__baselibs__filesystem-backto-comp_arc_sta__baselibs__filesystem" style="stroke:#181818;stroke-width:1;"/><polygon fill="#181818" points="5774,198.75,5769.7641,207.6414,5773.8682,203.7483,5777.7613,207.8523,5774,198.75" style="stroke:#181818;stroke-width:1;"/><text fill="#000000" font-family="sans-serif" font-size="13" lengthAdjust="spacing" textLength="76.9082" x="5774.5" y="241.5669">implements</text></g><!--link Feature_User to logic_arc_int__baselibs__condition_variable--><g id="link_Feature_User_logic_arc_int__baselibs__condition_variable"><path codeLine="21" d="M2957.38,49.39 C2793.89,67.11 2233.2251,127.8834 1948.0851,158.7934 " fill="transparent" id="Feature_User-to-logic_arc_int__baselibs__condition_variable" style="stroke:#181818;stroke-width:1;"/><polygon fill="#181818" points="1942.12,159.44,1951.4987,162.4468,1947.0909,158.9011,1950.6365,154.4934,1942.12,159.44" style="stroke:#181818;stroke-width:1;"/><text fill="#000000" font-family="sans-serif" font-size="13" lengthAdjust="spacing" textLength="23.0103" x="2353.5" y="124.5669">use</text></g><!--reverse link logic_arc_int__baselibs__task_result to comp_arc_sta__baselibs__concurrency--><g id="link_logic_arc_int__baselibs__task_result_comp_arc_sta__baselibs__concurrency"><path codeLine="22" d="M1233.8723,199.9994 C1319.3923,221.2894 1451.22,254.11 1536.8,275.41 " fill="transparent" id="logic_arc_int__baselibs__task_result-backto-comp_arc_sta__baselibs__concurrency" style="stroke:#181818;stroke-width:1;"/><polygon fill="#181818" points="1228.05,198.55,1235.8171,204.6057,1232.9019,199.7579,1237.7497,196.8426,1228.05,198.55" style="stroke:#181818;stroke-width:1;"/><text fill="#000000" font-family="sans-serif" font-size="13" lengthAdjust="spacing" textLength="76.9082" x="1411.5" y="241.5669">implements</text></g><!--link Feature_User to logic_arc_int__baselibs__result--><g id="link_Feature_User_logic_arc_int__baselibs__result"><path codeLine="23" d="M2957.22,45.56 C2741.7,50.69 1798.17,74.3 1025.5,111.5 C690.57,127.62 606.17,125.33 272.5,158.5 C267.05,159.04 267.4427,158.9716 261.8227,159.6016 " fill="transparent" id="Feature_User-to-logic_arc_int__baselibs__result" style="stroke:#181818;stroke-width:1;"/><polygon fill="#181818" points="255.86,160.27,265.2496,163.2425,260.8289,159.713,264.3584,155.2923,255.86,160.27" style="stroke:#181818;stroke-width:1;"/><text fill="#000000" font-family="sans-serif" font-size="13" lengthAdjust="spacing" textLength="23.0103" x="1026.5" y="124.5669">use</text></g><!--reverse link logic_arc_int__baselibs__message_passing to comp_arc_sta__baselibs__message_passing--><g id="link_logic_arc_int__baselibs__message_passing_comp_arc_sta__baselibs__message_passing"><path codeLine="24" d="M4759.5,204.75 C4759.5,225.98 4759.5,253.94 4759.5,275.19 " fill="transparent" id="logic_arc_int__baselibs__message_passing-backto-comp_arc_sta__baselibs__message_passing" style="stroke:#181818;stroke-width:1;"/><polygon fill="#181818" points="4759.5,198.75,4755.5,207.75,4759.5,203.75,4763.5,207.75,4759.5,198.75" style="stroke:#181818;stroke-width:1;"/><text fill="#000000" font-family="sans-serif" font-size="13" lengthAdjust="spacing" textLength="76.9082" x="4760.5" y="241.5669">implements</text></g><!--reverse link logic_arc_int__baselibs__bit_manipulation to comp_arc_sta__baselibs__bit_manipulation--><g id="link_logic_arc_int__baselibs__bit_manipulation_comp_arc_sta__baselibs__bit_manipulation"><path codeLine="25" d="M3377.7914,203.3169 C3395.8814,224.5469 3420.93,253.94 3439.04,275.19 " fill="transparent" id="logic_arc_int__baselibs__bit_manipulation-backto-comp_arc_sta__baselibs__bit_manipulation" style="stroke:#181818;stroke-width:1;"/><polygon fill="#181818" points="3373.9,198.75,3376.6926,208.1947,3377.1429,202.5558,3382.7818,203.0061,3373.9,198.75" style="stroke:#181818;stroke-width:1;"/><text fill="#000000" font-family="sans-serif" font-size="13" lengthAdjust="spacing" textLength="76.9082" x="3413.5" y="241.5669">implements</text></g><!--link Feature_User to logic_arc_int__baselibs__executor--><g id="link_Feature_User_logic_arc_int__baselibs__executor"><path codeLine="26" d="M2957.21,54.61 C2857.99,76.75 2625.9259,128.533 2497.6959,157.153 " fill="transparent" id="Feature_User-to-logic_arc_int__baselibs__executor" style="stroke:#181818;stroke-width:1;"/><polygon fill="#181818" points="2491.84,158.46,2501.4952,160.4034,2496.7199,157.3708,2499.7525,152.5956,2491.84,158.46" style="stroke:#181818;stroke-width:1;"/><text fill="#000000" font-family="sans-serif" font-size="13" lengthAdjust="spacing" textLength="23.0103" x="2688.5" y="124.5669">use</text></g><!--reverse link logic_arc_int__baselibs__utils_scoped_op to comp_arc_sta__baselibs__utils--><g id="link_logic_arc_int__baselibs__utils_scoped_op_comp_arc_sta__baselibs__utils"><path codeLine="27" d="M5410.0799,202.1113 C5378.5999,223.4013 5333.16,254.14 5301.76,275.38 " fill="transparent" id="logic_arc_int__baselibs__utils_scoped_op-backto-comp_arc_sta__baselibs__utils" style="stroke:#181818;stroke-width:1;"/><polygon fill="#181818" points="5415.05,198.75,5405.354,200.4785,5410.9083,201.5511,5409.8357,207.1053,5415.05,198.75" style="stroke:#181818;stroke-width:1;"/><text fill="#000000" font-family="sans-serif" font-size="13" lengthAdjust="spacing" textLength="76.9082" x="5370.5" y="241.5669">implements</text></g><!--link Feature_User to logic_arc_int__baselibs__bit_mask_operator--><g id="link_Feature_User_logic_arc_int__baselibs__bit_mask_operator"><path codeLine="28" d="M3047.75,52.87 C3161.12,73.84 3453.6801,127.9585 3612.6001,157.3585 " fill="transparent" id="Feature_User-to-logic_arc_int__baselibs__bit_mask_operator" style="stroke:#181818;stroke-width:1;"/><polygon fill="#181818" points="3618.5,158.45,3610.3778,152.8795,3613.5834,157.5404,3608.9225,160.7461,3618.5,158.45" style="stroke:#181818;stroke-width:1;"/><text fill="#000000" font-family="sans-serif" font-size="13" lengthAdjust="spacing" textLength="23.0103" x="3449.5" y="124.5669">use</text></g><!--reverse link logic_arc_int__baselibs__executor to comp_arc_sta__baselibs__concurrency--><g id="link_logic_arc_int__baselibs__executor_comp_arc_sta__baselibs__concurrency"><path codeLine="29" d="M2280.6425,199.4297 C2194.4425,212.9497 2081.34,230.38 1976.5,245.5 C1904.9,255.83 1825.27,266.65 1758.87,275.49 " fill="transparent" id="logic_arc_int__baselibs__executor-backto-comp_arc_sta__baselibs__concurrency" style="stroke:#181818;stroke-width:1;"/><polygon fill="#181818" points="2286.57,198.5,2277.0589,195.9429,2281.6304,199.2748,2278.2985,203.8462,2286.57,198.5" style="stroke:#181818;stroke-width:1;"/><text fill="#000000" font-family="sans-serif" font-size="13" lengthAdjust="spacing" textLength="76.9082" x="2084.5" y="241.5669">implements</text></g><!--reverse link logic_arc_int__baselibs__promise to comp_arc_sta__baselibs__concurrency--><g id="link_logic_arc_int__baselibs__promise_comp_arc_sta__baselibs__concurrency"><path codeLine="30" d="M2019.8063,199.9104 C1928.3563,221.2004 1787.02,254.11 1695.51,275.41 " fill="transparent" id="logic_arc_int__baselibs__promise-backto-comp_arc_sta__baselibs__concurrency" style="stroke:#181818;stroke-width:1;"/><polygon fill="#181818" points="2025.65,198.55,2015.9774,196.6949,2020.7802,199.6837,2017.7914,204.4865,2025.65,198.55" style="stroke:#181818;stroke-width:1;"/><text fill="#000000" font-family="sans-serif" font-size="13" lengthAdjust="spacing" textLength="76.9082" x="1891.5" y="241.5669">implements</text></g><!--link Feature_User to logic_arc_int__baselibs__dynamic_array--><g id="link_Feature_User_logic_arc_int__baselibs__dynamic_array"><path codeLine="31" d="M3047.56,48.38 C3208.63,62.31 3771.03,111.46 4234.5,158.5 C4240.33,159.09 4240.3029,159.0724 4246.2929,159.7024 " fill="transparent" id="Feature_User-to-logic_arc_int__baselibs__dynamic_array" style="stroke:#181818;stroke-width:1;"/><polygon fill="#181818" points="4252.26,160.33,4243.7278,155.4106,4247.2874,159.807,4242.891,163.3667,4252.26,160.33" style="stroke:#181818;stroke-width:1;"/><text fill="#000000" font-family="sans-serif" font-size="13" lengthAdjust="spacing" textLength="23.0103" x="3897.5" y="124.5669">use</text></g><!--link Feature_User to logic_arc_int__baselibs__filesystem--><g id="link_Feature_User_logic_arc_int__baselibs__filesystem"><path codeLine="32" d="M3047.57,45.53 C3259.12,50.45 4174.67,73.05 4924.5,111.5 C5233.25,127.33 5310.73,129.36 5618.5,158.5 C5624.34,159.05 5624.3316,159.0353 5630.3516,159.6553 " fill="transparent" id="Feature_User-to-logic_arc_int__baselibs__filesystem" style="stroke:#181818;stroke-width:1;"/><polygon fill="#181818" points="5636.32,160.27,5627.7771,155.369,5631.3463,159.7578,5626.9576,163.3269,5636.32,160.27" style="stroke:#181818;stroke-width:1;"/><text fill="#000000" font-family="sans-serif" font-size="13" lengthAdjust="spacing" textLength="23.0103" x="5238.5" y="124.5669">use</text></g><!--link Feature_User to logic_arc_int__baselibs__intrusive_list--><g id="link_Feature_User_logic_arc_int__baselibs__intrusive_list"><path codeLine="33" d="M3047.71,50.13 C3196.99,68.72 3672.656,127.9586 3917.986,158.5086 " fill="transparent" id="Feature_User-to-logic_arc_int__baselibs__intrusive_list" style="stroke:#181818;stroke-width:1;"/><polygon fill="#181818" points="3923.94,159.25,3915.5033,154.1685,3918.9783,158.6321,3914.5147,162.1072,3923.94,159.25" style="stroke:#181818;stroke-width:1;"/><text fill="#000000" font-family="sans-serif" font-size="13" lengthAdjust="spacing" textLength="23.0103" x="3665.5" y="124.5669">use</text></g><!--link Feature_User to logic_arc_int__baselibs__shared_future--><g id="link_Feature_User_logic_arc_int__baselibs__shared_future"><path codeLine="34" d="M2957.15,45.89 C2739.23,52.83 1777.95,86.25 993.5,158.5 C987.62,159.04 987.6008,159.0188 981.5408,159.6188 " fill="transparent" id="Feature_User-to-logic_arc_int__baselibs__shared_future" style="stroke:#181818;stroke-width:1;"/><polygon fill="#181818" points="975.57,160.21,984.9203,163.3038,980.5457,159.7174,984.1321,155.3427,975.57,160.21" style="stroke:#181818;stroke-width:1;"/><text fill="#000000" font-family="sans-serif" font-size="13" lengthAdjust="spacing" textLength="23.0103" x="1545.5" y="124.5669">use</text></g><!--reverse link logic_arc_int__baselibs__condition_variable to comp_arc_sta__baselibs__concurrency--><g id="link_logic_arc_int__baselibs__condition_variable_comp_arc_sta__baselibs__concurrency"><path codeLine="35" d="M1743.4875,202.2232 C1713.4975,223.5132 1670.35,254.14 1640.43,275.38 " fill="transparent" id="logic_arc_int__baselibs__condition_variable-backto-comp_arc_sta__baselibs__concurrency" style="stroke:#181818;stroke-width:1;"/><polygon fill="#181818" points="1748.38,198.75,1738.7257,200.6981,1744.3029,201.6443,1743.3567,207.2215,1748.38,198.75" style="stroke:#181818;stroke-width:1;"/><text fill="#000000" font-family="sans-serif" font-size="13" lengthAdjust="spacing" textLength="76.9082" x="1705.5" y="241.5669">implements</text></g><!--reverse link logic_arc_int__baselibs__memory_shared to comp_arc_sta__baselibs__memory_shared--><g id="link_logic_arc_int__baselibs__memory_shared_comp_arc_sta__baselibs__memory_shared"><path codeLine="36" d="M3002.5,204.75 C3002.5,225.98 3002.5,253.94 3002.5,275.19 " fill="transparent" id="logic_arc_int__baselibs__memory_shared-backto-comp_arc_sta__baselibs__memory_shared" style="stroke:#181818;stroke-width:1;"/><polygon fill="#181818" points="3002.5,198.75,2998.5,207.75,3002.5,203.75,3006.5,207.75,3002.5,198.75" style="stroke:#181818;stroke-width:1;"/><text fill="#000000" font-family="sans-serif" font-size="13" lengthAdjust="spacing" textLength="76.9082" x="3003.5" y="241.5669">implements</text></g><!--link Feature_User to logic_arc_int__baselibs__promise--><g id="link_Feature_User_logic_arc_int__baselibs__promise"><path codeLine="37" d="M2957.2,51.23 C2825.45,70.81 2444.9048,127.358 2241.6848,157.558 " fill="transparent" id="Feature_User-to-logic_arc_int__baselibs__promise" style="stroke:#181818;stroke-width:1;"/><polygon fill="#181818" points="2235.75,158.44,2245.2402,161.0736,2240.6957,157.705,2244.0643,153.1605,2235.75,158.44" style="stroke:#181818;stroke-width:1;"/><text fill="#000000" font-family="sans-serif" font-size="13" lengthAdjust="spacing" textLength="23.0103" x="2529.5" y="124.5669">use</text></g><!--link Feature_User to logic_arc_int__baselibs__utils_base64--><g id="link_Feature_User_logic_arc_int__baselibs__utils_base64"><path codeLine="38" d="M3047.65,46.1 C3260.53,53.87 4185.25,90.07 4940.5,158.5 C4946.35,159.03 4946.3486,159.0148 4952.3686,159.6048 " fill="transparent" id="Feature_User-to-logic_arc_int__baselibs__utils_base64" style="stroke:#181818;stroke-width:1;"/><polygon fill="#181818" points="4958.34,160.19,4949.7731,155.3312,4953.3638,159.7023,4948.9928,163.2931,4958.34,160.19" style="stroke:#181818;stroke-width:1;"/><text fill="#000000" font-family="sans-serif" font-size="13" lengthAdjust="spacing" textLength="23.0103" x="4571.5" y="124.5669">use</text></g><!--reverse link logic_arc_int__baselibs__shared_future to comp_arc_sta__baselibs__concurrency--><g id="link_logic_arc_int__baselibs__shared_future_comp_arc_sta__baselibs__concurrency"><path codeLine="39" d="M957.4842,199.4261 C1046.4842,212.7161 1162.26,229.91 1269.5,245.5 C1338.45,255.52 1415.21,266.48 1478.69,275.48 " fill="transparent" id="logic_arc_int__baselibs__shared_future-backto-comp_arc_sta__baselibs__concurrency" style="stroke:#181818;stroke-width:1;"/><polygon fill="#181818" points="951.55,198.54,959.8606,203.8253,956.4952,199.2784,961.0421,195.9131,951.55,198.54" style="stroke:#181818;stroke-width:1;"/><text fill="#000000" font-family="sans-serif" font-size="13" lengthAdjust="spacing" textLength="76.9082" x="1270.5" y="241.5669">implements</text></g><!--link Feature_User to logic_arc_int__baselibs__memory_shared--><g id="link_Feature_User_logic_arc_int__baselibs__memory_shared"><path codeLine="40" d="M3002.5,81.55 C3002.5,106.45 3002.5,132.26 3002.5,152.26 " fill="transparent" id="Feature_User-to-logic_arc_int__baselibs__memory_shared" style="stroke:#181818;stroke-width:1;"/><polygon fill="#181818" points="3002.5,158.26,3006.5,149.26,3002.5,153.26,2998.5,149.26,3002.5,158.26" style="stroke:#181818;stroke-width:1;"/><text fill="#000000" font-family="sans-serif" font-size="13" lengthAdjust="spacing" textLength="23.0103" x="3003.5" y="124.5669">use</text></g><!--reverse link logic_arc_int__baselibs__result to comp_arc_sta__baselibs__result--><g id="link_logic_arc_int__baselibs__result_comp_arc_sta__baselibs__result"><path codeLine="41" d="M133.5,204.75 C133.5,225.98 133.5,253.94 133.5,275.19 " fill="transparent" id="logic_arc_int__baselibs__result-backto-comp_arc_sta__baselibs__result" style="stroke:#181818;stroke-width:1;"/><polygon fill="#181818" points="133.5,198.75,129.5,207.75,133.5,203.75,137.5,207.75,133.5,198.75" style="stroke:#181818;stroke-width:1;"/><text fill="#000000" font-family="sans-serif" font-size="13" lengthAdjust="spacing" textLength="76.9082" x="134.5" y="241.5669">implements</text></g><!--link Feature_User to logic_arc_int__baselibs__bit_manipulation--><g id="link_Feature_User_logic_arc_int__baselibs__bit_manipulation"><path codeLine="42" d="M3047.82,61.48 C3114.18,86.34 3231.7715,130.3946 3301.1015,156.3746 " fill="transparent" id="Feature_User-to-logic_arc_int__baselibs__bit_manipulation" style="stroke:#181818;stroke-width:1;"/><polygon fill="#181818" points="3306.72,158.48,3299.6959,151.5762,3302.0379,156.7255,3296.8887,159.0675,3306.72,158.48" style="stroke:#181818;stroke-width:1;"/><text fill="#000000" font-family="sans-serif" font-size="13" lengthAdjust="spacing" textLength="23.0103" x="3223.5" y="124.5669">use</text></g><!--link Feature_User to logic_arc_int__baselibs__task--><g id="link_Feature_User_logic_arc_int__baselibs__task"><path codeLine="43" d="M2957.28,63.84 C2898.06,89.16 2800.4069,130.9312 2741.5369,156.1012 " fill="transparent" id="Feature_User-to-logic_arc_int__baselibs__task" style="stroke:#181818;stroke-width:1;"/><polygon fill="#181818" points="2736.02,158.46,2745.8679,158.5998,2740.6174,156.4944,2742.7228,151.2439,2736.02,158.46" style="stroke:#181818;stroke-width:1;"/><text fill="#000000" font-family="sans-serif" font-size="13" lengthAdjust="spacing" textLength="23.0103" x="2839.5" y="124.5669">use</text></g><!--link Feature_User to logic_arc_int__baselibs__json--><g id="link_Feature_User_logic_arc_int__baselibs__json"><path codeLine="44" d="M3047.68,45.13 C3281.29,48.56 4375.96,66.41 5270.5,111.5 C5563.76,126.28 5637.44,128.16 5929.5,158.5 C5936.77,159.26 5938.2824,159.3779 5945.8124,160.2779 " fill="transparent" id="Feature_User-to-logic_arc_int__baselibs__json" style="stroke:#181818;stroke-width:1;"/><polygon fill="#181818" points="5951.77,160.99,5943.3083,155.9502,5946.8053,160.3966,5942.3589,163.8936,5951.77,160.99" style="stroke:#181818;stroke-width:1;"/><text fill="#000000" font-family="sans-serif" font-size="13" lengthAdjust="spacing" textLength="23.0103" x="5590.5" y="124.5669">use</text></g><!--reverse link logic_arc_int__baselibs__bit_mask_operator to comp_arc_sta__baselibs__bit_manipulation--><g id="link_logic_arc_int__baselibs__bit_mask_operator_comp_arc_sta__baselibs__bit_manipulation"><path codeLine="45" d="M3671.7726,201.0009 C3622.5726,222.2709 3549.07,254.05 3499.83,275.34 " fill="transparent" id="logic_arc_int__baselibs__bit_mask_operator-backto-comp_arc_sta__baselibs__bit_manipulation" style="stroke:#181818;stroke-width:1;"/><polygon fill="#181818" points="3677.28,198.62,3667.4317,198.5198,3672.6905,200.6041,3670.6062,205.863,3677.28,198.62" style="stroke:#181818;stroke-width:1;"/><text fill="#000000" font-family="sans-serif" font-size="13" lengthAdjust="spacing" textLength="76.9082" x="3605.5" y="241.5669">implements</text></g><!--reverse link logic_arc_int__baselibs__task to comp_arc_sta__baselibs__concurrency--><g id="link_logic_arc_int__baselibs__task_comp_arc_sta__baselibs__concurrency"><path codeLine="46" d="M2568.4942,196.9145 C2562.4342,197.7345 2562.37,197.73 2556.5,198.5 C2384.71,221.02 2341.82,227.45 2169.5,245.5 C2032.29,259.87 1875.72,273.42 1763.77,282.61 " fill="transparent" id="logic_arc_int__baselibs__task-backto-comp_arc_sta__baselibs__concurrency" style="stroke:#181818;stroke-width:1;"/><polygon fill="#181818" points="2574.44,196.11,2564.9849,193.3529,2569.4852,196.7805,2566.0576,201.2807,2574.44,196.11" style="stroke:#181818;stroke-width:1;"/><text fill="#000000" font-family="sans-serif" font-size="13" lengthAdjust="spacing" textLength="76.9082" x="2318.5" y="241.5669">implements</text></g><!--reverse link logic_arc_int__baselibs__future to comp_arc_sta__baselibs__concurrency--><g id="link_logic_arc_int__baselibs__future_comp_arc_sta__baselibs__concurrency"><path codeLine="47" d="M1482.6828,202.2086 C1512.8628,223.4986 1556.29,254.14 1586.4,275.38 " fill="transparent" id="logic_arc_int__baselibs__future-backto-comp_arc_sta__baselibs__concurrency" style="stroke:#181818;stroke-width:1;"/><polygon fill="#181818" points="1477.78,198.75,1482.8285,207.2065,1481.8657,201.6322,1487.44,200.6694,1477.78,198.75" style="stroke:#181818;stroke-width:1;"/><text fill="#000000" font-family="sans-serif" font-size="13" lengthAdjust="spacing" textLength="76.9082" x="1543.5" y="241.5669">implements</text></g><!--reverse link logic_arc_int__baselibs__synchronized_queue to comp_arc_sta__baselibs__concurrency--><g id="link_logic_arc_int__baselibs__synchronized_queue_comp_arc_sta__baselibs__concurrency"><path codeLine="48" d="M639.0032,199.1834 C761.4332,212.8034 925.18,230.64 1074.5,245.5 C1205.75,258.57 1355.13,272.04 1463.29,281.54 " fill="transparent" id="logic_arc_int__baselibs__synchronized_queue-backto-comp_arc_sta__baselibs__concurrency" style="stroke:#181818;stroke-width:1;"/><polygon fill="#181818" points="633.04,198.52,641.5426,203.4906,638.0093,199.0728,642.4271,195.5396,633.04,198.52" style="stroke:#181818;stroke-width:1;"/><text fill="#000000" font-family="sans-serif" font-size="13" lengthAdjust="spacing" textLength="76.9082" x="1075.5" y="241.5669">implements</text></g><!--link Feature_User to logic_arc_int__baselibs__future--><g id="link_Feature_User_logic_arc_int__baselibs__future"><path codeLine="49" d="M2957.34,47.27 C2781.77,58.22 2127.85,100.74 1591.5,158.5 C1585.85,159.11 1586.0396,159.0649 1580.2096,159.7449 " fill="transparent" id="Feature_User-to-logic_arc_int__baselibs__future" style="stroke:#181818;stroke-width:1;"/><polygon fill="#181818" points="1574.25,160.44,1583.6528,163.3704,1579.2163,159.8607,1582.726,155.4243,1574.25,160.44" style="stroke:#181818;stroke-width:1;"/><text fill="#000000" font-family="sans-serif" font-size="13" lengthAdjust="spacing" textLength="23.0103" x="2057.5" y="124.5669">use</text></g><!--reverse link logic_arc_int__baselibs__intrusive_list to comp_arc_sta__baselibs__containers--><g id="link_logic_arc_int__baselibs__intrusive_list_comp_arc_sta__baselibs__containers"><path codeLine="50" d="M4098.5667,202.558 C4124.4167,223.788 4161.12,253.94 4186.99,275.19 " fill="transparent" id="logic_arc_int__baselibs__intrusive_list-backto-comp_arc_sta__baselibs__containers" style="stroke:#181818;stroke-width:1;"/><polygon fill="#181818" points="4093.93,198.75,4098.3464,207.5532,4097.7939,201.9233,4103.4237,201.3709,4093.93,198.75" style="stroke:#181818;stroke-width:1;"/><text fill="#000000" font-family="sans-serif" font-size="13" lengthAdjust="spacing" textLength="76.9082" x="4150.5" y="241.5669">implements</text></g><!--link Feature_User to logic_arc_int__baselibs__utils_scoped_op--><g id="link_Feature_User_logic_arc_int__baselibs__utils_scoped_op"><path codeLine="51" d="M3047.73,45.91 C3237.43,51.95 3987.58,76.82 4603.5,111.5 C4898.88,128.13 4972.82,132.17 5267.5,158.5 C5273.47,159.03 5273.5766,159.0357 5279.7166,159.6157 " fill="transparent" id="Feature_User-to-logic_arc_int__baselibs__utils_scoped_op" style="stroke:#181818;stroke-width:1;"/><polygon fill="#181818" points="5285.69,160.18,5277.1061,155.3513,5280.7122,159.7098,5276.3537,163.3159,5285.69,160.18" style="stroke:#181818;stroke-width:1;"/><text fill="#000000" font-family="sans-serif" font-size="13" lengthAdjust="spacing" textLength="23.0103" x="4892.5" y="124.5669">use</text></g><!--link Feature_User to logic_arc_int__baselibs__synchronized_queue--><g id="link_Feature_User_logic_arc_int__baselibs__synchronized_queue"><path codeLine="52" d="M2957.31,45.87 C2763.6,51.82 1984.18,76.76 1344.5,111.5 C1038.02,128.14 961.36,132.86 655.5,158.5 C649.94,158.97 650.2662,158.9162 644.5562,159.4262 " fill="transparent" id="Feature_User-to-logic_arc_int__baselibs__synchronized_queue" style="stroke:#181818;stroke-width:1;"/><polygon fill="#181818" points="638.58,159.96,647.9002,163.1435,643.5602,159.5152,647.1885,155.1752,638.58,159.96" style="stroke:#181818;stroke-width:1;"/><text fill="#000000" font-family="sans-serif" font-size="13" lengthAdjust="spacing" textLength="23.0103" x="1345.5" y="124.5669">use</text></g><!--SRC=[hLRBRjmm3BpxAuJSDosAeeSWoAL0JpssPq6McLqsUhWYbSOj-k-LlOjcxNt8LdoKJTAS6MfePOp_9Is-eDjMx5l1NjIUsLlHO03Dw5srmmO4CGJmtBMmFuDjkHEAEM0T6QYw9-uCF5ItYj3Kua_r5HryziO74Q0PJjzsg9yS48aFj- -hlzNzkqDEfJIdk9ile3W64Dy9merG90uFPFz0L9NsjfKgQ4cifAmLWS6QfDJUiKeV22GsSVCWZD-Y7WBHyN5WqpbbXrT1TNS2RMl0WcCI5sj7HfChEyGCvqyVnrL703RDjIAiw4a6e6ZuJaI2HSasiQgs85j5bBGy5BY4wGTvbu7KXymZw14DK9VcmsPAlWOMSvI4Rh0VIlci0ghQG0PfIj0n172wotGteh-mlP5wbrgQI9LfwqJOEPBKoD8gXsqqgcShyurfU35-U04TqqtEC33_If7sBJJIjyKjxR4bQLEXeFAzpH-OLx1p99bVjmtU8a4nued7BNMIurkwD3STGoHy1ccG2boCTYhj2laO-uJLX3fd6dCais1zw0vDPQ_fKMonTF-bNqhSU06jnDj4ZK9C4sQkzhRtpqnRR_JeKxDRIdQ_APPdxHVgLVX5jZsojdMTQ0zqtPhdfcc5KUsStWNly7SQs9yHOlcypZMVUJ-SKqSiREfa6ovsrZC43JN-0G00]--></g></svg>