<svg xmlns="http://www.w3.org/2000/svg" xmlns:xlink="http://www.w3.org/1999/xlink" contentStyleType="text/css" data-diagram-type="CLASS" height="322px" preserveAspectRatio="none" style="width:6195px;height:322px;background:#FFFFFF;" version="1.1" viewBox="0 0 6195 322" width="6195px" zoomAndPan="magnify"><defs/><g><!--entity Feature_User--><g id="elem_Feature_User"><ellipse cx="3203.6685" cy="14" fill="#F1F1F1" rx="8" ry="8" style="stroke:#181818;stroke-width:0.5;"/><path d="M3203.6685,22 L3203.6685,49 M3190.6685,30 L3216.6685,30 M3203.6685,49 L3190.6685,64 M3203.6685,49 L3216.6685,64 " fill="transparent" style="stroke:#181818;stroke-width:0.5;"/><text fill="#000000" font-family="sans-serif" font-size="14" lengthAdjust="spacing" textLength="90.3369" x="3158.5" y="78.4951">Feature User</text></g><!--class comp_arc_sta__baselibs__result--><g id="elem_comp_arc_sta__baselibs__result"><rect fill="#F1F1F1" height="40" id="comp_arc_sta__baselibs__result" rx="2.5" ry="2.5" style="stroke:#181818;stroke-width:0.5;" width="253.4297" x="5935" y="275.5"/><ellipse cx="5950" cy="291.5" fill="#ADD1B2" rx="11" ry="11" style="stroke:#181818;stroke-width:1;"/><path d="M5952.9688,297.1406 Q5952.3906,297.4375 5951.75,297.5781 Q5951.1094,297.7344 5950.4063,297.7344 Q5947.9063,297.7344 5946.5781,296.0938 Q5945.2656,294.4375 5945.2656,291.3125 Q5945.2656,288.1875 5946.5781,286.5313 Q5947.9063,284.875 5950.4063,284.875 Q5951.1094,284.875 5951.75,285.0313 Q5952.4063,285.1875 5952.9688,285.4844 L5952.9688,288.2031 Q5952.3438,287.625 5951.75,287.3594 Q5951.1563,287.0781 5950.5313,287.0781 Q5949.1875,287.0781 5948.5,288.1563 Q5947.8125,289.2188 5947.8125,291.3125 Q5947.8125,293.4063 5948.5,294.4844 Q5949.1875,295.5469 5950.5313,295.5469 Q5951.1563,295.5469 5951.75,295.2813 Q5952.3438,295 5952.9688,294.4219 L5952.9688,297.1406 Z " fill="#000000"/><text fill="#000000" font-family="sans-serif" font-size="14" lengthAdjust="spacing" textLength="221.4297" x="5964" y="296.3467">comp_arc_sta__baselibs__result</text><line style="stroke:#181818;stroke-width:0.5;" x1="5936" x2="6187.4297" y1="307.5" y2="307.5"/></g><!--class logic_arc_int__baselibs__result--><g id="elem_logic_arc_int__baselibs__result"><rect fill="#F1F1F1" height="40" id="logic_arc_int__baselibs__result" rx="2.5" ry="2.5" style="stroke:#181818;stroke-width:0.5;" width="244.4609" x="5939.5" y="158.5"/><ellipse cx="5954.5" cy="174.5" fill="#ADD1B2" rx="11" ry="11" style="stroke:#181818;stroke-width:1;"/><path d="M5957.4688,180.1406 Q5956.8906,180.4375 5956.25,180.5781 Q5955.6094,180.7344 5954.9063,180.7344 Q5952.4063,180.7344 5951.0781,179.0938 Q5949.7656,177.4375 5949.7656,174.3125 Q5949.7656,171.1875 5951.0781,169.5313 Q5952.4063,167.875 5954.9063,167.875 Q5955.6094,167.875 5956.25,168.0313 Q5956.9063,168.1875 5957.4688,168.4844 L5957.4688,171.2031 Q5956.8438,170.625 5956.25,170.3594 Q5955.6563,170.0781 5955.0313,170.0781 Q5953.6875,170.0781 5953,171.1563 Q5952.3125,172.2188 5952.3125,174.3125 Q5952.3125,176.4063 5953,177.4844 Q5953.6875,178.5469 5955.0313,178.5469 Q5955.6563,178.5469 5956.25,178.2813 Q5956.8438,178 5957.4688,177.4219 L5957.4688,180.1406 Z " fill="#000000"/><text fill="#000000" font-family="sans-serif" font-size="14" lengthAdjust="spacing" textLength="212.4609" x="5968.5" y="179.3467">logic_arc_int__baselibs__result</text><line style="stroke:#181818;stroke-width:0.5;" x1="5940.5" x2="6182.9609" y1="190.5" y2="190.5"/></g><!--class comp_arc_sta__baselibs__concurrency--><g id="elem_comp_arc_sta__baselibs__concurrency"><rect fill="#F1F1F1" height="40" id="comp_arc_sta__baselibs__concurrency" rx="2.5" ry="2.5" style="stroke:#181818;stroke-width:0.5;" width="300.2012" x="4461.5" y="275.5"/><ellipse cx="4476.5" cy="291.5" fill="#ADD1B2" rx="11" ry="11" style="stroke:#181818;stroke-width:1;"/><path d="M4479.4688,297.1406 Q4478.8906,297.4375 4478.25,297.5781 Q4477.6094,297.7344 4476.9063,297.7344 Q4474.4063,297.7344 4473.0781,296.0938 Q4471.7656,294.4375 4471.7656,291.3125 Q4471.7656,288.1875 4473.0781,286.5313 Q4474.4063,284.875 4476.9063,284.875 Q4477.6094,284.875 4478.25,285.0313 Q4478.9063,285.1875 4479.4688,285.4844 L4479.4688,288.2031 Q4478.8438,287.625 4478.25,287.3594 Q4477.6563,287.0781 4477.0313,287.0781 Q4475.6875,287.0781 4475,288.1563 Q4474.3125,289.2188 4474.3125,291.3125 Q4474.3125,293.4063 4475,294.4844 Q4475.6875,295.5469 4477.0313,295.5469 Q4477.6563,295.5469 4478.25,295.2813 Q4478.8438,295 4479.4688,294.4219 L4479.4688,297.1406 Z " fill="#000000"/><text fill="#000000" font-family="sans-serif" font-size="14" lengthAdjust="spacing" textLength="268.2012" x="4490.5" y="296.3467">comp_arc_sta__baselibs__concurrency</text><line style="stroke:#181818;stroke-width:0.5;" x1="4462.5" x2="4760.7012" y1="307.5" y2="307.5"/></g><!--class logic_arc_int__baselibs__promise--><g id="elem_logic_arc_int__baselibs__promise"><rect fill="#F1F1F1" height="40" id="logic_arc_int__baselibs__promise" rx="2.5" ry="2.5" style="stroke:#181818;stroke-width:0.5;" width="261.1885" x="4674" y="158.5"/><ellipse cx="4689" cy="174.5" fill="#ADD1B2" rx="11" ry="11" style="stroke:#181818;stroke-width:1;"/><path d="M4691.9688,180.1406 Q4691.3906,180.4375 4690.75,180.5781 Q4690.1094,180.7344 4689.4063,180.7344 Q4686.9063,180.7344 4685.5781,179.0938 Q4684.2656,177.4375 4684.2656,174.3125 Q4684.2656,171.1875 4685.5781,169.5313 Q4686.9063,167.875 4689.4063,167.875 Q4690.1094,167.875 4690.75,168.0313 Q4691.4063,168.1875 4691.9688,168.4844 L4691.9688,171.2031 Q4691.3438,170.625 4690.75,170.3594 Q4690.1563,170.0781 4689.5313,170.0781 Q4688.1875,170.0781 4687.5,171.1563 Q4686.8125,172.2188 4686.8125,174.3125 Q4686.8125,176.4063 4687.5,177.4844 Q4688.1875,178.5469 4689.5313,178.5469 Q4690.1563,178.5469 4690.75,178.2813 Q4691.3438,178 4691.9688,177.4219 L4691.9688,180.1406 Z " fill="#000000"/><text fill="#000000" font-family="sans-serif" font-size="14" lengthAdjust="spacing" textLength="229.1885" x="4703" y="179.3467">logic_arc_int__baselibs__promise</text><line style="stroke:#181818;stroke-width:0.5;" x1="4675" x2="4934.1885" y1="190.5" y2="190.5"/></g><!--class logic_arc_int__baselibs__condition_variable--><g id="elem_logic_arc_int__baselibs__condition_variable"><rect fill="#F1F1F1" height="40" id="logic_arc_int__baselibs__condition_variable" rx="2.5" ry="2.5" style="stroke:#181818;stroke-width:0.5;" width="332.7539" x="4306" y="158.5"/><ellipse cx="4321" cy="174.5" fill="#ADD1B2" rx="11" ry="11" style="stroke:#181818;stroke-width:1;"/><path d="M4323.9688,180.1406 Q4323.3906,180.4375 4322.75,180.5781 Q4322.1094,180.7344 4321.4063,180.7344 Q4318.9063,180.7344 4317.5781,179.0938 Q4316.2656,177.4375 4316.2656,174.3125 Q4316.2656,171.1875 4317.5781,169.5313 Q4318.9063,167.875 4321.4063,167.875 Q4322.1094,167.875 4322.75,168.0313 Q4323.4063,168.1875 4323.9688,168.4844 L4323.9688,171.2031 Q4323.3438,170.625 4322.75,170.3594 Q4322.1563,170.0781 4321.5313,170.0781 Q4320.1875,170.0781 4319.5,171.1563 Q4318.8125,172.2188 4318.8125,174.3125 Q4318.8125,176.4063 4319.5,177.4844 Q4320.1875,178.5469 4321.5313,178.5469 Q4322.1563,178.5469 4322.75,178.2813 Q4323.3438,178 4323.9688,177.4219 L4323.9688,180.1406 Z " fill="#000000"/><text fill="#000000" font-family="sans-serif" font-size="14" lengthAdjust="spacing" textLength="300.7539" x="4335" y="179.3467">logic_arc_int__baselibs__condition_variable</text><line style="stroke:#181818;stroke-width:0.5;" x1="4307" x2="4637.7539" y1="190.5" y2="190.5"/></g><!--class logic_arc_int__baselibs__utils_scoped_op--><g id="elem_logic_arc_int__baselibs__utils_scoped_op"><rect fill="#F1F1F1" height="40" id="logic_arc_int__baselibs__utils_scoped_op" rx="2.5" ry="2.5" style="stroke:#181818;stroke-width:0.5;" width="315.377" x="2707" y="158.5"/><ellipse cx="2722" cy="174.5" fill="#ADD1B2" rx="11" ry="11" style="stroke:#181818;stroke-width:1;"/><path d="M2724.9688,180.1406 Q2724.3906,180.4375 2723.75,180.5781 Q2723.1094,180.7344 2722.4063,180.7344 Q2719.9063,180.7344 2718.5781,179.0938 Q2717.2656,177.4375 2717.2656,174.3125 Q2717.2656,171.1875 2718.5781,169.5313 Q2719.9063,167.875 2722.4063,167.875 Q2723.1094,167.875 2723.75,168.0313 Q2724.4063,168.1875 2724.9688,168.4844 L2724.9688,171.2031 Q2724.3438,170.625 2723.75,170.3594 Q2723.1563,170.0781 2722.5313,170.0781 Q2721.1875,170.0781 2720.5,171.1563 Q2719.8125,172.2188 2719.8125,174.3125 Q2719.8125,176.4063 2720.5,177.4844 Q2721.1875,178.5469 2722.5313,178.5469 Q2723.1563,178.5469 2723.75,178.2813 Q2724.3438,178 2724.9688,177.4219 L2724.9688,180.1406 Z " fill="#000000"/><text fill="#000000" font-family="sans-serif" font-size="14" lengthAdjust="spacing" textLength="283.377" x="2736" y="179.3467">logic_arc_int__baselibs__utils_scoped_op</text><line style="stroke:#181818;stroke-width:0.5;" x1="2708" x2="3021.377" y1="190.5" y2="190.5"/></g><!--class comp_arc_sta__baselibs__utils--><g id="elem_comp_arc_sta__baselibs__utils"><rect fill="#F1F1F1" height="40" id="comp_arc_sta__baselibs__utils" rx="2.5" ry="2.5" style="stroke:#181818;stroke-width:0.5;" width="242.9502" x="2858" y="275.5"/><ellipse cx="2873" cy="291.5" fill="#ADD1B2" rx="11" ry="11" style="stroke:#181818;stroke-width:1;"/><path d="M2875.9688,297.1406 Q2875.3906,297.4375 2874.75,297.5781 Q2874.1094,297.7344 2873.4063,297.7344 Q2870.9063,297.7344 2869.5781,296.0938 Q2868.2656,294.4375 2868.2656,291.3125 Q2868.2656,288.1875 2869.5781,286.5313 Q2870.9063,284.875 2873.4063,284.875 Q2874.1094,284.875 2874.75,285.0313 Q2875.4063,285.1875 2875.9688,285.4844 L2875.9688,288.2031 Q2875.3438,287.625 2874.75,287.3594 Q2874.1563,287.0781 2873.5313,287.0781 Q2872.1875,287.0781 2871.5,288.1563 Q2870.8125,289.2188 2870.8125,291.3125 Q2870.8125,293.4063 2871.5,294.4844 Q2872.1875,295.5469 2873.5313,295.5469 Q2874.1563,295.5469 2874.75,295.2813 Q2875.3438,295 2875.9688,294.4219 L2875.9688,297.1406 Z " fill="#000000"/><text fill="#000000" font-family="sans-serif" font-size="14" lengthAdjust="spacing" textLength="210.9502" x="2887" y="296.3467">comp_arc_sta__baselibs__utils</text><line style="stroke:#181818;stroke-width:0.5;" x1="2859" x2="3099.9502" y1="307.5" y2="307.5"/></g><!--class logic_arc_int__baselibs__shared_future--><g id="elem_logic_arc_int__baselibs__shared_future"><rect fill="#F1F1F1" height="40" id="logic_arc_int__baselibs__shared_future" rx="2.5" ry="2.5" style="stroke:#181818;stroke-width:0.5;" width="302.0811" x="3968.5" y="158.5"/><ellipse cx="3983.5" cy="174.5" fill="#ADD1B2" rx="11" ry="11" style="stroke:#181818;stroke-width:1;"/><path d="M3986.4688,180.1406 Q3985.8906,180.4375 3985.25,180.5781 Q3984.6094,180.7344 3983.9063,180.7344 Q3981.4063,180.7344 3980.0781,179.0938 Q3978.7656,177.4375 3978.7656,174.3125 Q3978.7656,171.1875 3980.0781,169.5313 Q3981.4063,167.875 3983.9063,167.875 Q3984.6094,167.875 3985.25,168.0313 Q3985.9063,168.1875 3986.4688,168.4844 L3986.4688,171.2031 Q3985.8438,170.625 3985.25,170.3594 Q3984.6563,170.0781 3984.0313,170.0781 Q3982.6875,170.0781 3982,171.1563 Q3981.3125,172.2188 3981.3125,174.3125 Q3981.3125,176.4063 3982,177.4844 Q3982.6875,178.5469 3984.0313,178.5469 Q3984.6563,178.5469 3985.25,178.2813 Q3985.8438,178 3986.4688,177.4219 L3986.4688,180.1406 Z " fill="#000000"/><text fill="#000000" font-family="sans-serif" font-size="14" lengthAdjust="spacing" textLength="270.0811" x="3997.5" y="179.3467">logic_arc_int__baselibs__shared_future</text><line style="stroke:#181818;stroke-width:0.5;" x1="3969.5" x2="4269.5811" y1="190.5" y2="190.5"/></g><!--class logic_arc_int__baselibs__dynamic_array--><g id="elem_logic_arc_int__baselibs__dynamic_array"><rect fill="#F1F1F1" height="40" id="logic_arc_int__baselibs__dynamic_array" rx="2.5" ry="2.5" style="stroke:#181818;stroke-width:0.5;" width="308.3496" x="693.5" y="158.5"/><ellipse cx="708.5" cy="174.5" fill="#ADD1B2" rx="11" ry="11" style="stroke:#181818;stroke-width:1;"/><path d="M711.4688,180.1406 Q710.8906,180.4375 710.25,180.5781 Q709.6094,180.7344 708.9063,180.7344 Q706.4063,180.7344 705.0781,179.0938 Q703.7656,177.4375 703.7656,174.3125 Q703.7656,171.1875 705.0781,169.5313 Q706.4063,167.875 708.9063,167.875 Q709.6094,167.875 710.25,168.0313 Q710.9063,168.1875 711.4688,168.4844 L711.4688,171.2031 Q710.8438,170.625 710.25,170.3594 Q709.6563,170.0781 709.0313,170.0781 Q707.6875,170.0781 707,171.1563 Q706.3125,172.2188 706.3125,174.3125 Q706.3125,176.4063 707,177.4844 Q707.6875,178.5469 709.0313,178.5469 Q709.6563,178.5469 710.25,178.2813 Q710.8438,178 711.4688,177.4219 L711.4688,180.1406 Z " fill="#000000"/><text fill="#000000" font-family="sans-serif" font-size="14" lengthAdjust="spacing" textLength="276.3496" x="722.5" y="179.3467">logic_arc_int__baselibs__dynamic_array</text><line style="stroke:#181818;stroke-width:0.5;" x1="694.5" x2="1000.8496" y1="190.5" y2="190.5"/></g><!--class logic_arc_int__baselibs__executor--><g id="elem_logic_arc_int__baselibs__executor"><rect fill="#F1F1F1" height="40" id="logic_arc_int__baselibs__executor" rx="2.5" ry="2.5" style="stroke:#181818;stroke-width:0.5;" width="266.4385" x="3667.5" y="158.5"/><ellipse cx="3682.5" cy="174.5" fill="#ADD1B2" rx="11" ry="11" style="stroke:#181818;stroke-width:1;"/><path d="M3685.4688,180.1406 Q3684.8906,180.4375 3684.25,180.5781 Q3683.6094,180.7344 3682.9063,180.7344 Q3680.4063,180.7344 3679.0781,179.0938 Q3677.7656,177.4375 3677.7656,174.3125 Q3677.7656,171.1875 3679.0781,169.5313 Q3680.4063,167.875 3682.9063,167.875 Q3683.6094,167.875 3684.25,168.0313 Q3684.9063,168.1875 3685.4688,168.4844 L3685.4688,171.2031 Q3684.8438,170.625 3684.25,170.3594 Q3683.6563,170.0781 3683.0313,170.0781 Q3681.6875,170.0781 3681,171.1563 Q3680.3125,172.2188 3680.3125,174.3125 Q3680.3125,176.4063 3681,177.4844 Q3681.6875,178.5469 3683.0313,178.5469 Q3683.6563,178.5469 3684.25,178.2813 Q3684.8438,178 3685.4688,177.4219 L3685.4688,180.1406 Z " fill="#000000"/><text fill="#000000" font-family="sans-serif" font-size="14" lengthAdjust="spacing" textLength="234.4385" x="3696.5" y="179.3467">logic_arc_int__baselibs__executor</text><line style="stroke:#181818;stroke-width:0.5;" x1="3668.5" x2="3932.9385" y1="190.5" y2="190.5"/></g><!--class comp_arc_sta__baselibs__bit_manipulation--><g id="elem_comp_arc_sta__baselibs__bit_manipulation"><rect fill="#F1F1F1" height="40" id="comp_arc_sta__baselibs__bit_manipulation" rx="2.5" ry="2.5" style="stroke:#181818;stroke-width:0.5;" width="330.8057" x="1892" y="275.5"/><ellipse cx="1907" cy="291.5" fill="#ADD1B2" rx="11" ry="11" style="stroke:#181818;stroke-width:1;"/><path d="M1909.9688,297.1406 Q1909.3906,297.4375 1908.75,297.5781 Q1908.1094,297.7344 1907.4063,297.7344 Q1904.9063,297.7344 1903.5781,296.0938 Q1902.2656,294.4375 1902.2656,291.3125 Q1902.2656,288.1875 1903.5781,286.5313 Q1904.9063,284.875 1907.4063,284.875 Q1908.1094,284.875 1908.75,285.0313 Q1909.4063,285.1875 1909.9688,285.4844 L1909.9688,288.2031 Q1909.3438,287.625 1908.75,287.3594 Q1908.1563,287.0781 1907.5313,287.0781 Q1906.1875,287.0781 1905.5,288.1563 Q1904.8125,289.2188 1904.8125,291.3125 Q1904.8125,293.4063 1905.5,294.4844 Q1906.1875,295.5469 1907.5313,295.5469 Q1908.1563,295.5469 1908.75,295.2813 Q1909.3438,295 1909.9688,294.4219 L1909.9688,297.1406 Z " fill="#000000"/><text fill="#000000" font-family="sans-serif" font-size="14" lengthAdjust="spacing" textLength="298.8057" x="1921" y="296.3467">comp_arc_sta__baselibs__bit_manipulation</text><line style="stroke:#181818;stroke-width:0.5;" x1="1893" x2="2221.8057" y1="307.5" y2="307.5"/></g><!--class logic_arc_int__baselibs__bit_mask_operator--><g id="elem_logic_arc_int__baselibs__bit_mask_operator"><rect fill="#F1F1F1" height="40" id="logic_arc_int__baselibs__bit_mask_operator" rx="2.5" ry="2.5" style="stroke:#181818;stroke-width:0.5;" width="334.6406" x="1711" y="158.5"/><ellipse cx="1726" cy="174.5" fill="#ADD1B2" rx="11" ry="11" style="stroke:#181818;stroke-width:1;"/><path d="M1728.9688,180.1406 Q1728.3906,180.4375 1727.75,180.5781 Q1727.1094,180.7344 1726.4063,180.7344 Q1723.9063,180.7344 1722.5781,179.0938 Q1721.2656,177.4375 1721.2656,174.3125 Q1721.2656,171.1875 1722.5781,169.5313 Q1723.9063,167.875 1726.4063,167.875 Q1727.1094,167.875 1727.75,168.0313 Q1728.4063,168.1875 1728.9688,168.4844 L1728.9688,171.2031 Q1728.3438,170.625 1727.75,170.3594 Q1727.1563,170.0781 1726.5313,170.0781 Q1725.1875,170.0781 1724.5,171.1563 Q1723.8125,172.2188 1723.8125,174.3125 Q1723.8125,176.4063 1724.5,177.4844 Q1725.1875,178.5469 1726.5313,178.5469 Q1727.1563,178.5469 1727.75,178.2813 Q1728.3438,178 1728.9688,177.4219 L1728.9688,180.1406 Z " fill="#000000"/><text fill="#000000" font-family="sans-serif" font-size="14" lengthAdjust="spacing" textLength="302.6406" x="1740" y="179.3467">logic_arc_int__baselibs__bit_mask_operator</text><line style="stroke:#181818;stroke-width:0.5;" x1="1712" x2="2044.6406" y1="190.5" y2="190.5"/></g><!--class logic_arc_int__baselibs__future--><g id="elem_logic_arc_int__baselibs__future"><rect fill="#F1F1F1" height="40" id="logic_arc_int__baselibs__future" rx="2.5" ry="2.5" style="stroke:#181818;stroke-width:0.5;" width="247.0791" x="3385" y="158.5"/><ellipse cx="3400" cy="174.5" fill="#ADD1B2" rx="11" ry="11" style="stroke:#181818;stroke-width:1;"/><path d="M3402.9688,180.1406 Q3402.3906,180.4375 3401.75,180.5781 Q3401.1094,180.7344 3400.4063,180.7344 Q3397.9063,180.7344 3396.5781,179.0938 Q3395.2656,177.4375 3395.2656,174.3125 Q3395.2656,171.1875 3396.5781,169.5313 Q3397.9063,167.875 3400.4063,167.875 Q3401.1094,167.875 3401.75,168.0313 Q3402.4063,168.1875 3402.9688,168.4844 L3402.9688,171.2031 Q3402.3438,170.625 3401.75,170.3594 Q3401.1563,170.0781 3400.5313,170.0781 Q3399.1875,170.0781 3398.5,171.1563 Q3397.8125,172.2188 3397.8125,174.3125 Q3397.8125,176.4063 3398.5,177.4844 Q3399.1875,178.5469 3400.5313,178.5469 Q3401.1563,178.5469 3401.75,178.2813 Q3402.3438,178 3402.9688,177.4219 L3402.9688,180.1406 Z " fill="#000000"/><text fill="#000000" font-family="sans-serif" font-size="14" lengthAdjust="spacing" textLength="215.0791" x="3414" y="179.3467">logic_arc_int__baselibs__future</text><line style="stroke:#181818;stroke-width:0.5;" x1="3386" x2="3631.0791" y1="190.5" y2="190.5"/></g><!--class logic_arc_int__baselibs__task--><g id="elem_logic_arc_int__baselibs__task"><rect fill="#F1F1F1" height="40" id="logic_arc_int__baselibs__task" rx="2.5" ry="2.5" style="stroke:#181818;stroke-width:0.5;" width="234.0156" x="5670.5" y="158.5"/><ellipse cx="5685.5" cy="174.5" fill="#ADD1B2" rx="11" ry="11" style="stroke:#181818;stroke-width:1;"/><path d="M5688.4688,180.1406 Q5687.8906,180.4375 5687.25,180.5781 Q5686.6094,180.7344 5685.9063,180.7344 Q5683.4063,180.7344 5682.0781,179.0938 Q5680.7656,177.4375 5680.7656,174.3125 Q5680.7656,171.1875 5682.0781,169.5313 Q5683.4063,167.875 5685.9063,167.875 Q5686.6094,167.875 5687.25,168.0313 Q5687.9063,168.1875 5688.4688,168.4844 L5688.4688,171.2031 Q5687.8438,170.625 5687.25,170.3594 Q5686.6563,170.0781 5686.0313,170.0781 Q5684.6875,170.0781 5684,171.1563 Q5683.3125,172.2188 5683.3125,174.3125 Q5683.3125,176.4063 5684,177.4844 Q5684.6875,178.5469 5686.0313,178.5469 Q5686.6563,178.5469 5687.25,178.2813 Q5687.8438,178 5688.4688,177.4219 L5688.4688,180.1406 Z " fill="#000000"/><text fill="#000000" font-family="sans-serif" font-size="14" lengthAdjust="spacing" textLength="202.0156" x="5699.5" y="179.3467">logic_arc_int__baselibs__task</text><line style="stroke:#181818;stroke-width:0.5;" x1="5671.5" x2="5903.5156" y1="190.5" y2="190.5"/></g><!--class logic_arc_int__baselibs__task_result--><g id="elem_logic_arc_int__baselibs__task_result"><rect fill="#F1F1F1" height="40" id="logic_arc_int__baselibs__task_result" rx="2.5" ry="2.5" style="stroke:#181818;stroke-width:0.5;" width="280.9307" x="5354" y="158.5"/><ellipse cx="5369" cy="174.5" fill="#ADD1B2" rx="11" ry="11" style="stroke:#181818;stroke-width:1;"/><path d="M5371.9688,180.1406 Q5371.3906,180.4375 5370.75,180.5781 Q5370.1094,180.7344 5369.4063,180.7344 Q5366.9063,180.7344 5365.5781,179.0938 Q5364.2656,177.4375 5364.2656,174.3125 Q5364.2656,171.1875 5365.5781,169.5313 Q5366.9063,167.875 5369.4063,167.875 Q5370.1094,167.875 5370.75,168.0313 Q5371.4063,168.1875 5371.9688,168.4844 L5371.9688,171.2031 Q5371.3438,170.625 5370.75,170.3594 Q5370.1563,170.0781 5369.5313,170.0781 Q5368.1875,170.0781 5367.5,171.1563 Q5366.8125,172.2188 5366.8125,174.3125 Q5366.8125,176.4063 5367.5,177.4844 Q5368.1875,178.5469 5369.5313,178.5469 Q5370.1563,178.5469 5370.75,178.2813 Q5371.3438,178 5371.9688,177.4219 L5371.9688,180.1406 Z " fill="#000000"/><text fill="#000000" font-family="sans-serif" font-size="14" lengthAdjust="spacing" textLength="248.9307" x="5383" y="179.3467">logic_arc_int__baselibs__task_result</text><line style="stroke:#181818;stroke-width:0.5;" x1="5355" x2="5633.9307" y1="190.5" y2="190.5"/></g><!--class logic_arc_int__baselibs__message_passing--><g id="elem_logic_arc_int__baselibs__message_passing"><rect fill="#F1F1F1" height="40" id="logic_arc_int__baselibs__message_passing" rx="2.5" ry="2.5" style="stroke:#181818;stroke-width:0.5;" width="328.167" x="1036.5" y="158.5"/><ellipse cx="1051.5" cy="174.5" fill="#ADD1B2" rx="11" ry="11" style="stroke:#181818;stroke-width:1;"/><path d="M1054.4688,180.1406 Q1053.8906,180.4375 1053.25,180.5781 Q1052.6094,180.7344 1051.9063,180.7344 Q1049.4063,180.7344 1048.0781,179.0938 Q1046.7656,177.4375 1046.7656,174.3125 Q1046.7656,171.1875 1048.0781,169.5313 Q1049.4063,167.875 1051.9063,167.875 Q1052.6094,167.875 1053.25,168.0313 Q1053.9063,168.1875 1054.4688,168.4844 L1054.4688,171.2031 Q1053.8438,170.625 1053.25,170.3594 Q1052.6563,170.0781 1052.0313,170.0781 Q1050.6875,170.0781 1050,171.1563 Q1049.3125,172.2188 1049.3125,174.3125 Q1049.3125,176.4063 1050,177.4844 Q1050.6875,178.5469 1052.0313,178.5469 Q1052.6563,178.5469 1053.25,178.2813 Q1053.8438,178 1054.4688,177.4219 L1054.4688,180.1406 Z " fill="#000000"/><text fill="#000000" font-family="sans-serif" font-size="14" lengthAdjust="spacing" textLength="296.167" x="1065.5" y="179.3467">logic_arc_int__baselibs__message_passing</text><line style="stroke:#181818;stroke-width:0.5;" x1="1037.5" x2="1363.667" y1="190.5" y2="190.5"/></g><!--class logic_arc_int__baselibs__memory_shared--><g id="elem_logic_arc_int__baselibs__memory_shared"><rect fill="#F1F1F1" height="40" id="logic_arc_int__baselibs__memory_shared" rx="2.5" ry="2.5" style="stroke:#181818;stroke-width:0.5;" width="318.043" x="11.5" y="158.5"/><ellipse cx="26.5" cy="174.5" fill="#ADD1B2" rx="11" ry="11" style="stroke:#181818;stroke-width:1;"/><path d="M29.4688,180.1406 Q28.8906,180.4375 28.25,180.5781 Q27.6094,180.7344 26.9063,180.7344 Q24.4063,180.7344 23.0781,179.0938 Q21.7656,177.4375 21.7656,174.3125 Q21.7656,171.1875 23.0781,169.5313 Q24.4063,167.875 26.9063,167.875 Q27.6094,167.875 28.25,168.0313 Q28.9063,168.1875 29.4688,168.4844 L29.4688,171.2031 Q28.8438,170.625 28.25,170.3594 Q27.6563,170.0781 27.0313,170.0781 Q25.6875,170.0781 25,171.1563 Q24.3125,172.2188 24.3125,174.3125 Q24.3125,176.4063 25,177.4844 Q25.6875,178.5469 27.0313,178.5469 Q27.6563,178.5469 28.25,178.2813 Q28.8438,178 29.4688,177.4219 L29.4688,180.1406 Z " fill="#000000"/><text fill="#000000" font-family="sans-serif" font-size="14" lengthAdjust="spacing" textLength="286.043" x="40.5" y="179.3467">logic_arc_int__baselibs__memory_shared</text><line style="stroke:#181818;stroke-width:0.5;" x1="12.5" x2="328.543" y1="190.5" y2="190.5"/></g><!--class comp_arc_sta__baselibs__json--><g id="elem_comp_arc_sta__baselibs__json"><rect fill="#F1F1F1" height="40" id="comp_arc_sta__baselibs__json" rx="2.5" ry="2.5" style="stroke:#181818;stroke-width:0.5;" width="242.1367" x="2434.5" y="275.5"/><ellipse cx="2449.5" cy="291.5" fill="#ADD1B2" rx="11" ry="11" style="stroke:#181818;stroke-width:1;"/><path d="M2452.4688,297.1406 Q2451.8906,297.4375 2451.25,297.5781 Q2450.6094,297.7344 2449.9063,297.7344 Q2447.4063,297.7344 2446.0781,296.0938 Q2444.7656,294.4375 2444.7656,291.3125 Q2444.7656,288.1875 2446.0781,286.5313 Q2447.4063,284.875 2449.9063,284.875 Q2450.6094,284.875 2451.25,285.0313 Q2451.9063,285.1875 2452.4688,285.4844 L2452.4688,288.2031 Q2451.8438,287.625 2451.25,287.3594 Q2450.6563,287.0781 2450.0313,287.0781 Q2448.6875,287.0781 2448,288.1563 Q2447.3125,289.2188 2447.3125,291.3125 Q2447.3125,293.4063 2448,294.4844 Q2448.6875,295.5469 2450.0313,295.5469 Q2450.6563,295.5469 2451.25,295.2813 Q2451.8438,295 2452.4688,294.4219 L2452.4688,297.1406 Z " fill="#000000"/><text fill="#000000" font-family="sans-serif" font-size="14" lengthAdjust="spacing" textLength="210.1367" x="2463.5" y="296.3467">comp_arc_sta__baselibs__json</text><line style="stroke:#181818;stroke-width:0.5;" x1="2435.5" x2="2675.6367" y1="307.5" y2="307.5"/></g><!--class logic_arc_int__baselibs__json--><g id="elem_logic_arc_int__baselibs__json"><rect fill="#F1F1F1" height="40" id="logic_arc_int__baselibs__json" rx="2.5" ry="2.5" style="stroke:#181818;stroke-width:0.5;" width="233.168" x="2439" y="158.5"/><ellipse cx="2454" cy="174.5" fill="#ADD1B2" rx="11" ry="11" style="stroke:#181818;stroke-width:1;"/><path d="M2456.9688,180.1406 Q2456.3906,180.4375 2455.75,180.5781 Q2455.1094,180.7344 2454.4063,180.7344 Q2451.9063,180.7344 2450.5781,179.0938 Q2449.2656,177.4375 2449.2656,174.3125 Q2449.2656,171.1875 2450.5781,169.5313 Q2451.9063,167.875 2454.4063,167.875 Q2455.1094,167.875 2455.75,168.0313 Q2456.4063,168.1875 2456.9688,168.4844 L2456.9688,171.2031 Q2456.3438,170.625 2455.75,170.3594 Q2455.1563,170.0781 2454.5313,170.0781 Q2453.1875,170.0781 2452.5,171.1563 Q2451.8125,172.2188 2451.8125,174.3125 Q2451.8125,176.4063 2452.5,177.4844 Q2453.1875,178.5469 2454.5313,178.5469 Q2455.1563,178.5469 2455.75,178.2813 Q2456.3438,178 2456.9688,177.4219 L2456.9688,180.1406 Z " fill="#000000"/><text fill="#000000" font-family="sans-serif" font-size="14" lengthAdjust="spacing" textLength="201.168" x="2468" y="179.3467">logic_arc_int__baselibs__json</text><line style="stroke:#181818;stroke-width:0.5;" x1="2440" x2="2671.168" y1="190.5" y2="190.5"/></g><!--class logic_arc_int__baselibs__filesystem--><g id="elem_logic_arc_int__baselibs__filesystem"><rect fill="#F1F1F1" height="40" id="logic_arc_int__baselibs__filesystem" rx="2.5" ry="2.5" style="stroke:#181818;stroke-width:0.5;" width="276.4805" x="1399.5" y="158.5"/><ellipse cx="1414.5" cy="174.5" fill="#ADD1B2" rx="11" ry="11" style="stroke:#181818;stroke-width:1;"/><path d="M1417.4688,180.1406 Q1416.8906,180.4375 1416.25,180.5781 Q1415.6094,180.7344 1414.9063,180.7344 Q1412.4063,180.7344 1411.0781,179.0938 Q1409.7656,177.4375 1409.7656,174.3125 Q1409.7656,171.1875 1411.0781,169.5313 Q1412.4063,167.875 1414.9063,167.875 Q1415.6094,167.875 1416.25,168.0313 Q1416.9063,168.1875 1417.4688,168.4844 L1417.4688,171.2031 Q1416.8438,170.625 1416.25,170.3594 Q1415.6563,170.0781 1415.0313,170.0781 Q1413.6875,170.0781 1413,171.1563 Q1412.3125,172.2188 1412.3125,174.3125 Q1412.3125,176.4063 1413,177.4844 Q1413.6875,178.5469 1415.0313,178.5469 Q1415.6563,178.5469 1416.25,178.2813 Q1416.8438,178 1417.4688,177.4219 L1417.4688,180.1406 Z " fill="#000000"/><text fill="#000000" font-family="sans-serif" font-size="14" lengthAdjust="spacing" textLength="244.4805" x="1428.5" y="179.3467">logic_arc_int__baselibs__filesystem</text><line style="stroke:#181818;stroke-width:0.5;" x1="1400.5" x2="1674.9805" y1="190.5" y2="190.5"/></g><!--class logic_arc_int__baselibs__synchronized_queue--><g id="elem_logic_arc_int__baselibs__synchronized_queue"><rect fill="#F1F1F1" height="40" id="logic_arc_int__baselibs__synchronized_queue" rx="2.5" ry="2.5" style="stroke:#181818;stroke-width:0.5;" width="348.3604" x="4970.5" y="158.5"/><ellipse cx="4985.5" cy="174.5" fill="#ADD1B2" rx="11" ry="11" style="stroke:#181818;stroke-width:1;"/><path d="M4988.4688,180.1406 Q4987.8906,180.4375 4987.25,180.5781 Q4986.6094,180.7344 4985.9063,180.7344 Q4983.4063,180.7344 4982.0781,179.0938 Q4980.7656,177.4375 4980.7656,174.3125 Q4980.7656,171.1875 4982.0781,169.5313 Q4983.4063,167.875 4985.9063,167.875 Q4986.6094,167.875 4987.25,168.0313 Q4987.9063,168.1875 4988.4688,168.4844 L4988.4688,171.2031 Q4987.8438,170.625 4987.25,170.3594 Q4986.6563,170.0781 4986.0313,170.0781 Q4984.6875,170.0781 4984,171.1563 Q4983.3125,172.2188 4983.3125,174.3125 Q4983.3125,176.4063 4984,177.4844 Q4984.6875,178.5469 4986.0313,178.5469 Q4986.6563,178.5469 4987.25,178.2813 Q4987.8438,178 4988.4688,177.4219 L4988.4688,180.1406 Z " fill="#000000"/><text fill="#000000" font-family="sans-serif" font-size="14" lengthAdjust="spacing" textLength="316.3604" x="4999.5" y="179.3467">logic_arc_int__baselibs__synchronized_queue</text><line style="stroke:#181818;stroke-width:0.5;" x1="4971.5" x2="5317.8604" y1="190.5" y2="190.5"/></g><!--class comp_arc_sta__baselibs__filesystem--><g id="elem_comp_arc_sta__baselibs__filesystem"><rect fill="#F1F1F1" height="40" id="comp_arc_sta__baselibs__filesystem" rx="2.5" ry="2.5" style="stroke:#181818;stroke-width:0.5;" width="285.4492" x="1399" y="275.5"/><ellipse cx="1414" cy="291.5" fill="#ADD1B2" rx="11" ry="11" style="stroke:#181818;stroke-width:1;"/><path d="M1416.9688,297.1406 Q1416.3906,297.4375 1415.75,297.5781 Q1415.1094,297.7344 1414.4063,297.7344 Q1411.9063,297.7344 1410.5781,296.0938 Q1409.2656,294.4375 1409.2656,291.3125 Q1409.2656,288.1875 1410.5781,286.5313 Q1411.9063,284.875 1414.4063,284.875 Q1415.1094,284.875 1415.75,285.0313 Q1416.4063,285.1875 1416.9688,285.4844 L1416.9688,288.2031 Q1416.3438,287.625 1415.75,287.3594 Q1415.1563,287.0781 1414.5313,287.0781 Q1413.1875,287.0781 1412.5,288.1563 Q1411.8125,289.2188 1411.8125,291.3125 Q1411.8125,293.4063 1412.5,294.4844 Q1413.1875,295.5469 1414.5313,295.5469 Q1415.1563,295.5469 1415.75,295.2813 Q1416.3438,295 1416.9688,294.4219 L1416.9688,297.1406 Z " fill="#000000"/><text fill="#000000" font-family="sans-serif" font-size="14" lengthAdjust="spacing" textLength="253.4492" x="1428" y="296.3467">comp_arc_sta__baselibs__filesystem</text><line style="stroke:#181818;stroke-width:0.5;" x1="1400" x2="1683.4492" y1="307.5" y2="307.5"/></g><!--class logic_arc_int__baselibs__utils_base64--><g id="elem_logic_arc_int__baselibs__utils_base64"><rect fill="#F1F1F1" height="40" id="logic_arc_int__baselibs__utils_base64" rx="2.5" ry="2.5" style="stroke:#181818;stroke-width:0.5;" width="292.1689" x="3057.5" y="158.5"/><ellipse cx="3072.5" cy="174.5" fill="#ADD1B2" rx="11" ry="11" style="stroke:#181818;stroke-width:1;"/><path d="M3075.4688,180.1406 Q3074.8906,180.4375 3074.25,180.5781 Q3073.6094,180.7344 3072.9063,180.7344 Q3070.4063,180.7344 3069.0781,179.0938 Q3067.7656,177.4375 3067.7656,174.3125 Q3067.7656,171.1875 3069.0781,169.5313 Q3070.4063,167.875 3072.9063,167.875 Q3073.6094,167.875 3074.25,168.0313 Q3074.9063,168.1875 3075.4688,168.4844 L3075.4688,171.2031 Q3074.8438,170.625 3074.25,170.3594 Q3073.6563,170.0781 3073.0313,170.0781 Q3071.6875,170.0781 3071,171.1563 Q3070.3125,172.2188 3070.3125,174.3125 Q3070.3125,176.4063 3071,177.4844 Q3071.6875,178.5469 3073.0313,178.5469 Q3073.6563,178.5469 3074.25,178.2813 Q3074.8438,178 3075.4688,177.4219 L3075.4688,180.1406 Z " fill="#000000"/><text fill="#000000" font-family="sans-serif" font-size="14" lengthAdjust="spacing" textLength="260.1689" x="3086.5" y="179.3467">logic_arc_int__baselibs__utils_base64</text><line style="stroke:#181818;stroke-width:0.5;" x1="3058.5" x2="3348.6689" y1="190.5" y2="190.5"/></g><!--class logic_arc_int__baselibs__intrusive_list--><g id="elem_logic_arc_int__baselibs__intrusive_list"><rect fill="#F1F1F1" height="40" id="logic_arc_int__baselibs__intrusive_list" rx="2.5" ry="2.5" style="stroke:#181818;stroke-width:0.5;" width="293.0713" x="365" y="158.5"/><ellipse cx="380" cy="174.5" fill="#ADD1B2" rx="11" ry="11" style="stroke:#181818;stroke-width:1;"/><path d="M382.9688,180.1406 Q382.3906,180.4375 381.75,180.5781 Q381.1094,180.7344 380.4063,180.7344 Q377.9063,180.7344 376.5781,179.0938 Q375.2656,177.4375 375.2656,174.3125 Q375.2656,171.1875 376.5781,169.5313 Q377.9063,167.875 380.4063,167.875 Q381.1094,167.875 381.75,168.0313 Q382.4063,168.1875 382.9688,168.4844 L382.9688,171.2031 Q382.3438,170.625 381.75,170.3594 Q381.1563,170.0781 380.5313,170.0781 Q379.1875,170.0781 378.5,171.1563 Q377.8125,172.2188 377.8125,174.3125 Q377.8125,176.4063 378.5,177.4844 Q379.1875,178.5469 380.5313,178.5469 Q381.1563,178.5469 381.75,178.2813 Q382.3438,178 382.9688,177.4219 L382.9688,180.1406 Z " fill="#000000"/><text fill="#000000" font-family="sans-serif" font-size="14" lengthAdjust="spacing" textLength="261.0713" x="394" y="179.3467">logic_arc_int__baselibs__intrusive_list</text><line style="stroke:#181818;stroke-width:0.5;" x1="366" x2="657.0713" y1="190.5" y2="190.5"/></g><!--class comp_arc_sta__baselibs__containers--><g id="elem_comp_arc_sta__baselibs__containers"><rect fill="#F1F1F1" height="40" id="comp_arc_sta__baselibs__containers" rx="2.5" ry="2.5" style="stroke:#181818;stroke-width:0.5;" width="287.1445" x="539" y="275.5"/><ellipse cx="554" cy="291.5" fill="#ADD1B2" rx="11" ry="11" style="stroke:#181818;stroke-width:1;"/><path d="M556.9688,297.1406 Q556.3906,297.4375 555.75,297.5781 Q555.1094,297.7344 554.4063,297.7344 Q551.9063,297.7344 550.5781,296.0938 Q549.2656,294.4375 549.2656,291.3125 Q549.2656,288.1875 550.5781,286.5313 Q551.9063,284.875 554.4063,284.875 Q555.1094,284.875 555.75,285.0313 Q556.4063,285.1875 556.9688,285.4844 L556.9688,288.2031 Q556.3438,287.625 555.75,287.3594 Q555.1563,287.0781 554.5313,287.0781 Q553.1875,287.0781 552.5,288.1563 Q551.8125,289.2188 551.8125,291.3125 Q551.8125,293.4063 552.5,294.4844 Q553.1875,295.5469 554.5313,295.5469 Q555.1563,295.5469 555.75,295.2813 Q556.3438,295 556.9688,294.4219 L556.9688,297.1406 Z " fill="#000000"/><text fill="#000000" font-family="sans-serif" font-size="14" lengthAdjust="spacing" textLength="255.1445" x="568" y="296.3467">comp_arc_sta__baselibs__containers</text><line style="stroke:#181818;stroke-width:0.5;" x1="540" x2="825.1445" y1="307.5" y2="307.5"/></g><!--class logic_arc_int__baselibs__bit_manipulation--><g id="elem_logic_arc_int__baselibs__bit_manipulation"><rect fill="#F1F1F1" height="40" id="logic_arc_int__baselibs__bit_manipulation" rx="2.5" ry="2.5" style="stroke:#181818;stroke-width:0.5;" width="321.8369" x="2081.5" y="158.5"/><ellipse cx="2096.5" cy="174.5" fill="#ADD1B2" rx="11" ry="11" style="stroke:#181818;stroke-width:1;"/><path d="M2099.4688,180.1406 Q2098.8906,180.4375 2098.25,180.5781 Q2097.6094,180.7344 2096.9063,180.7344 Q2094.4063,180.7344 2093.0781,179.0938 Q2091.7656,177.4375 2091.7656,174.3125 Q2091.7656,171.1875 2093.0781,169.5313 Q2094.4063,167.875 2096.9063,167.875 Q2097.6094,167.875 2098.25,168.0313 Q2098.9063,168.1875 2099.4688,168.4844 L2099.4688,171.2031 Q2098.8438,170.625 2098.25,170.3594 Q2097.6563,170.0781 2097.0313,170.0781 Q2095.6875,170.0781 2095,171.1563 Q2094.3125,172.2188 2094.3125,174.3125 Q2094.3125,176.4063 2095,177.4844 Q2095.6875,178.5469 2097.0313,178.5469 Q2097.6563,178.5469 2098.25,178.2813 Q2098.8438,178 2099.4688,177.4219 L2099.4688,180.1406 Z " fill="#000000"/><text fill="#000000" font-family="sans-serif" font-size="14" lengthAdjust="spacing" textLength="289.8369" x="2110.5" y="179.3467">logic_arc_int__baselibs__bit_manipulation</text><line style="stroke:#181818;stroke-width:0.5;" x1="2082.5" x2="2402.3369" y1="190.5" y2="190.5"/></g><!--class comp_arc_sta__baselibs__message_passing--><g id="elem_comp_arc_sta__baselibs__message_passing"><rect fill="#F1F1F1" height="40" id="comp_arc_sta__baselibs__message_passing" rx="2.5" ry="2.5" style="stroke:#181818;stroke-width:0.5;" width="337.1357" x="1027" y="275.5"/><ellipse cx="1042" cy="291.5" fill="#ADD1B2" rx="11" ry="11" style="stroke:#181818;stroke-width:1;"/><path d="M1044.9688,297.1406 Q1044.3906,297.4375 1043.75,297.5781 Q1043.1094,297.7344 1042.4063,297.7344 Q1039.9063,297.7344 1038.5781,296.0938 Q1037.2656,294.4375 1037.2656,291.3125 Q1037.2656,288.1875 1038.5781,286.5313 Q1039.9063,284.875 1042.4063,284.875 Q1043.1094,284.875 1043.75,285.0313 Q1044.4063,285.1875 1044.9688,285.4844 L1044.9688,288.2031 Q1044.3438,287.625 1043.75,287.3594 Q1043.1563,287.0781 1042.5313,287.0781 Q1041.1875,287.0781 1040.5,288.1563 Q1039.8125,289.2188 1039.8125,291.3125 Q1039.8125,293.4063 1040.5,294.4844 Q1041.1875,295.5469 1042.5313,295.5469 Q1043.1563,295.5469 1043.75,295.2813 Q1044.3438,295 1044.9688,294.4219 L1044.9688,297.1406 Z " fill="#000000"/><text fill="#000000" font-family="sans-serif" font-size="14" lengthAdjust="spacing" textLength="305.1357" x="1056" y="296.3467">comp_arc_sta__baselibs__message_passing</text><line style="stroke:#181818;stroke-width:0.5;" x1="1028" x2="1363.1357" y1="307.5" y2="307.5"/></g><!--class comp_arc_sta__baselibs__memory_shared--><g id="elem_comp_arc_sta__baselibs__memory_shared"><rect fill="#F1F1F1" height="40" id="comp_arc_sta__baselibs__memory_shared" rx="2.5" ry="2.5" style="stroke:#181818;stroke-width:0.5;" width="327.0117" x="7" y="275.5"/><ellipse cx="22" cy="291.5" fill="#ADD1B2" rx="11" ry="11" style="stroke:#181818;stroke-width:1;"/><path d="M24.9688,297.1406 Q24.3906,297.4375 23.75,297.5781 Q23.1094,297.7344 22.4063,297.7344 Q19.9063,297.7344 18.5781,296.0938 Q17.2656,294.4375 17.2656,291.3125 Q17.2656,288.1875 18.5781,286.5313 Q19.9063,284.875 22.4063,284.875 Q23.1094,284.875 23.75,285.0313 Q24.4063,285.1875 24.9688,285.4844 L24.9688,288.2031 Q24.3438,287.625 23.75,287.3594 Q23.1563,287.0781 22.5313,287.0781 Q21.1875,287.0781 20.5,288.1563 Q19.8125,289.2188 19.8125,291.3125 Q19.8125,293.4063 20.5,294.4844 Q21.1875,295.5469 22.5313,295.5469 Q23.1563,295.5469 23.75,295.2813 Q24.3438,295 24.9688,294.4219 L24.9688,297.1406 Z " fill="#000000"/><text fill="#000000" font-family="sans-serif" font-size="14" lengthAdjust="spacing" textLength="295.0117" x="36" y="296.3467">comp_arc_sta__baselibs__memory_shared</text><line style="stroke:#181818;stroke-width:0.5;" x1="8" x2="333.0117" y1="307.5" y2="307.5"/></g><!--reverse link logic_arc_int__baselibs__result to comp_arc_sta__baselibs__result--><g id="link_logic_arc_int__baselibs__result_comp_arc_sta__baselibs__result"><path codeLine="15" d="M6061.5,204.75 C6061.5,225.98 6061.5,253.94 6061.5,275.19 " fill="transparent" id="logic_arc_int__baselibs__result-backto-comp_arc_sta__baselibs__result" style="stroke:#181818;stroke-width:1;"/><polygon fill="#181818" points="6061.5,198.75,6057.5,207.75,6061.5,203.75,6065.5,207.75,6061.5,198.75" style="stroke:#181818;stroke-width:1;"/><text fill="#000000" font-family="sans-serif" font-size="13" lengthAdjust="spacing" textLength="76.9082" x="6062.5" y="241.5669">implements</text></g><!--reverse link logic_arc_int__baselibs__promise to comp_arc_sta__baselibs__concurrency--><g id="link_logic_arc_int__baselibs__promise_comp_arc_sta__baselibs__concurrency"><path codeLine="16" d="M4767.0453,201.8206 C4731.3053,223.1106 4679.23,254.14 4643.59,275.38 " fill="transparent" id="logic_arc_int__baselibs__promise-backto-comp_arc_sta__baselibs__concurrency" style="stroke:#181818;stroke-width:1;"/><polygon fill="#181818" points="4772.2,198.75,4762.4208,199.9195,4767.9044,201.3089,4766.515,206.7924,4772.2,198.75" style="stroke:#181818;stroke-width:1;"/><text fill="#000000" font-family="sans-serif" font-size="13" lengthAdjust="spacing" textLength="76.9082" x="4721.5" y="241.5669">implements</text></g><!--link Feature_User to logic_arc_int__baselibs__condition_variable--><g id="link_Feature_User_logic_arc_int__baselibs__condition_variable"><path codeLine="17" d="M3248.66,49.23 C3416.83,66.86 4006.0827,128.6145 4299.9227,159.4145 " fill="transparent" id="Feature_User-to-logic_arc_int__baselibs__condition_variable" style="stroke:#181818;stroke-width:1;"/><polygon fill="#181818" points="4305.89,160.04,4297.356,155.1236,4300.9172,159.5188,4296.522,163.08,4305.89,160.04" style="stroke:#181818;stroke-width:1;"/><text fill="#000000" font-family="sans-serif" font-size="13" lengthAdjust="spacing" textLength="23.0103" x="3990.5" y="124.5669">use</text></g><!--link Feature_User to logic_arc_int__baselibs__utils_scoped_op--><g id="link_Feature_User_logic_arc_int__baselibs__utils_scoped_op"><path codeLine="18" d="M3158.48,62.16 C3094.73,87.18 2984.1858,130.5494 2918.5758,156.2794 " fill="transparent" id="Feature_User-to-logic_arc_int__baselibs__utils_scoped_op" style="stroke:#181818;stroke-width:1;"/><polygon fill="#181818" points="2912.99,158.47,2922.8291,158.908,2917.6449,156.6445,2919.9084,151.4603,2912.99,158.47" style="stroke:#181818;stroke-width:1;"/><text fill="#000000" font-family="sans-serif" font-size="13" lengthAdjust="spacing" textLength="23.0103" x="3025.5" y="124.5669">use</text></g><!--reverse link logic_arc_int__baselibs__condition_variable to comp_arc_sta__baselibs__concurrency--><g id="link_logic_arc_int__baselibs__condition_variable_comp_arc_sta__baselibs__concurrency"><path codeLine="19" d="M4500.3922,202.5757 C4526.0422,223.8057 4562.47,253.94 4588.16,275.19 " fill="transparent" id="logic_arc_int__baselibs__condition_variable-backto-comp_arc_sta__baselibs__concurrency" style="stroke:#181818;stroke-width:1;"/><polygon fill="#181818" points="4495.77,198.75,4500.1528,207.5699,4499.6218,201.9381,4505.2537,201.4071,4495.77,198.75" style="stroke:#181818;stroke-width:1;"/><text fill="#000000" font-family="sans-serif" font-size="13" lengthAdjust="spacing" textLength="76.9082" x="4551.5" y="241.5669">implements</text></g><!--reverse link logic_arc_int__baselibs__utils_scoped_op to comp_arc_sta__baselibs__utils--><g id="link_logic_arc_int__baselibs__utils_scoped_op_comp_arc_sta__baselibs__utils"><path codeLine="20" d="M2887.9926,202.9926 C2909.2226,224.2226 2938.94,253.94 2960.19,275.19 " fill="transparent" id="logic_arc_int__baselibs__utils_scoped_op-backto-comp_arc_sta__baselibs__utils" style="stroke:#181818;stroke-width:1;"/><polygon fill="#181818" points="2883.75,198.75,2887.2855,207.9424,2887.2855,202.2855,2892.9424,202.2855,2883.75,198.75" style="stroke:#181818;stroke-width:1;"/><text fill="#000000" font-family="sans-serif" font-size="13" lengthAdjust="spacing" textLength="76.9082" x="2930.5" y="241.5669">implements</text></g><!--reverse link logic_arc_int__baselibs__shared_future to comp_arc_sta__baselibs__concurrency--><g id="link_logic_arc_int__baselibs__shared_future_comp_arc_sta__baselibs__concurrency"><path codeLine="21" d="M4206.8625,199.9157 C4297.9425,221.2057 4438.68,254.11 4529.82,275.41 " fill="transparent" id="logic_arc_int__baselibs__shared_future-backto-comp_arc_sta__baselibs__concurrency" style="stroke:#181818;stroke-width:1;"/><polygon fill="#181818" points="4201.02,198.55,4208.8733,204.4935,4205.8888,199.6881,4210.6942,196.7035,4201.02,198.55" style="stroke:#181818;stroke-width:1;"/><text fill="#000000" font-family="sans-serif" font-size="13" lengthAdjust="spacing" textLength="76.9082" x="4396.5" y="241.5669">implements</text></g><!--link Feature_User to logic_arc_int__baselibs__dynamic_array--><g id="link_Feature_User_logic_arc_int__baselibs__dynamic_array"><path codeLine="22" d="M3158.43,45.67 C2929.95,51.82 1877,83.17 1018.5,158.5 C1013,158.98 1013.3638,158.9396 1007.7138,159.4696 " fill="transparent" id="Feature_User-to-logic_arc_int__baselibs__dynamic_array" style="stroke:#181818;stroke-width:1;"/><polygon fill="#181818" points="1001.74,160.03,1011.0742,163.172,1006.7181,159.563,1010.3271,155.2069,1001.74,160.03" style="stroke:#181818;stroke-width:1;"/><text fill="#000000" font-family="sans-serif" font-size="13" lengthAdjust="spacing" textLength="23.0103" x="1619.5" y="124.5669">use</text></g><!--reverse link logic_arc_int__baselibs__executor to comp_arc_sta__baselibs__concurrency--><g id="link_logic_arc_int__baselibs__executor_comp_arc_sta__baselibs__concurrency"><path codeLine="23" d="M3933.9149,199.4516 C4023.9849,212.8316 4141.63,230.13 4250.5,245.5 C4322.36,255.65 4402.34,266.54 4468.71,275.48 " fill="transparent" id="logic_arc_int__baselibs__executor-backto-comp_arc_sta__baselibs__concurrency" style="stroke:#181818;stroke-width:1;"/><polygon fill="#181818" points="3927.98,198.57,3936.2946,203.849,3932.9257,199.3047,3937.4701,195.9359,3927.98,198.57" style="stroke:#181818;stroke-width:1;"/><text fill="#000000" font-family="sans-serif" font-size="13" lengthAdjust="spacing" textLength="76.9082" x="4251.5" y="241.5669">implements</text></g><!--link Feature_User to logic_arc_int__baselibs__promise--><g id="link_Feature_User_logic_arc_int__baselibs__promise"><path codeLine="24" d="M3248.77,47.23 C3427.69,58.21 4102.78,101.27 4656.5,158.5 C4662.17,159.09 4661.998,159.0362 4667.838,159.6962 " fill="transparent" id="Feature_User-to-logic_arc_int__baselibs__promise" style="stroke:#181818;stroke-width:1;"/><polygon fill="#181818" points="4673.8,160.37,4665.3061,155.3846,4668.8316,159.8085,4664.4077,163.334,4673.8,160.37" style="stroke:#181818;stroke-width:1;"/><text fill="#000000" font-family="sans-serif" font-size="13" lengthAdjust="spacing" textLength="23.0103" x="4340.5" y="124.5669">use</text></g><!--reverse link logic_arc_int__baselibs__bit_mask_operator to comp_arc_sta__baselibs__bit_manipulation--><g id="link_logic_arc_int__baselibs__bit_mask_operator_comp_arc_sta__baselibs__bit_manipulation"><path codeLine="25" d="M1913.5081,201.993 C1946.6481,223.283 1994.68,254.14 2027.74,275.38 " fill="transparent" id="logic_arc_int__baselibs__bit_mask_operator-backto-comp_arc_sta__baselibs__bit_manipulation" style="stroke:#181818;stroke-width:1;"/><polygon fill="#181818" points="1908.46,198.75,1913.8701,206.9799,1912.6667,201.4525,1918.1941,200.2491,1908.46,198.75" style="stroke:#181818;stroke-width:1;"/><text fill="#000000" font-family="sans-serif" font-size="13" lengthAdjust="spacing" textLength="76.9082" x="1980.5" y="241.5669">implements</text></g><!--reverse link logic_arc_int__baselibs__future to comp_arc_sta__baselibs__concurrency--><g id="link_logic_arc_int__baselibs__future_comp_arc_sta__baselibs__concurrency"><path codeLine="26" d="M3638.2308,197.0769 C3644.0508,197.8269 3643.86,197.79 3649.5,198.5 C3828.86,221.02 3873.67,227.15 4053.5,245.5 C4191.48,259.58 4348.92,273.18 4461.3,282.47 " fill="transparent" id="logic_arc_int__baselibs__future-backto-comp_arc_sta__baselibs__concurrency" style="stroke:#181818;stroke-width:1;"/><polygon fill="#181818" points="3632.28,196.31,3640.695,201.4275,3637.239,196.949,3641.7174,193.4931,3632.28,196.31" style="stroke:#181818;stroke-width:1;"/><text fill="#000000" font-family="sans-serif" font-size="13" lengthAdjust="spacing" textLength="76.9082" x="4054.5" y="241.5669">implements</text></g><!--link Feature_User to logic_arc_int__baselibs__result--><g id="link_Feature_User_logic_arc_int__baselibs__result"><path codeLine="27" d="M3248.68,45.14 C3473.26,48.48 4491.77,65.59 5324.5,111.5 C5590.25,126.15 5656.86,130.15 5921.5,158.5 C5927.35,159.13 5927.381,159.0995 5933.421,159.8095 " fill="transparent" id="Feature_User-to-logic_arc_int__baselibs__result" style="stroke:#181818;stroke-width:1;"/><polygon fill="#181818" points="5939.38,160.51,5930.9085,155.4866,5934.4142,159.9263,5929.9746,163.4319,5939.38,160.51" style="stroke:#181818;stroke-width:1;"/><text fill="#000000" font-family="sans-serif" font-size="13" lengthAdjust="spacing" textLength="23.0103" x="5604.5" y="124.5669">use</text></g><!--reverse link logic_arc_int__baselibs__task to comp_arc_sta__baselibs__concurrency--><g id="link_logic_arc_int__baselibs__task_comp_arc_sta__baselibs__concurrency"><path codeLine="28" d="M5664.5102,197.0044 C5658.4402,197.7944 5658.37,197.78 5652.5,198.5 C5336.35,237.36 4964.43,268.05 4761.79,283.52 " fill="transparent" id="logic_arc_int__baselibs__task-backto-comp_arc_sta__baselibs__concurrency" style="stroke:#181818;stroke-width:1;"/><polygon fill="#181818" points="5670.46,196.23,5661.019,193.425,5665.5018,196.8753,5662.0515,201.3581,5670.46,196.23" style="stroke:#181818;stroke-width:1;"/><text fill="#000000" font-family="sans-serif" font-size="13" lengthAdjust="spacing" textLength="76.9082" x="5368.5" y="241.5669">implements</text></g><!--link Feature_User to logic_arc_int__baselibs__task_result--><g id="link_Feature_User_logic_arc_int__baselibs__task_result"><path codeLine="29" d="M3248.73,46.27 C3426.01,53.3 4090.71,80.32 4637.5,111.5 C4947.92,129.2 5025.92,129.6 5335.5,158.5 C5341.45,159.06 5341.5513,159.0376 5347.6913,159.6676 " fill="transparent" id="Feature_User-to-logic_arc_int__baselibs__task_result" style="stroke:#181818;stroke-width:1;"/><polygon fill="#181818" points="5353.66,160.28,5345.1153,155.3823,5348.6861,159.7697,5344.2987,163.3405,5353.66,160.28" style="stroke:#181818;stroke-width:1;"/><text fill="#000000" font-family="sans-serif" font-size="13" lengthAdjust="spacing" textLength="23.0103" x="4941.5" y="124.5669">use</text></g><!--link Feature_User to logic_arc_int__baselibs__message_passing--><g id="link_Feature_User_logic_arc_int__baselibs__message_passing"><path codeLine="30" d="M3158.35,46.38 C2953.22,55.14 2088.52,94.17 1381.5,158.5 C1375.99,159 1376.3628,158.9491 1370.7128,159.4891 " fill="transparent" id="Feature_User-to-logic_arc_int__baselibs__message_passing" style="stroke:#181818;stroke-width:1;"/><polygon fill="#181818" points="1364.74,160.06,1374.0797,163.1856,1369.7173,159.5843,1373.3186,155.2219,1364.74,160.06" style="stroke:#181818;stroke-width:1;"/><text fill="#000000" font-family="sans-serif" font-size="13" lengthAdjust="spacing" textLength="23.0103" x="1933.5" y="124.5669">use</text></g><!--link Feature_User to logic_arc_int__baselibs__memory_shared--><g id="link_Feature_User_logic_arc_int__baselibs__memory_shared"><path codeLine="31" d="M3158.25,45.29 C2931.13,49.39 1892.72,69.67 1043.5,111.5 C733.84,126.75 656.36,131.5 347.5,158.5 C341.65,159.01 341.6641,158.9933 335.6541,159.5533 " fill="transparent" id="Feature_User-to-logic_arc_int__baselibs__memory_shared" style="stroke:#181818;stroke-width:1;"/><polygon fill="#181818" points="329.68,160.11,339.0123,163.2578,334.6584,159.6461,338.2701,155.2923,329.68,160.11" style="stroke:#181818;stroke-width:1;"/><text fill="#000000" font-family="sans-serif" font-size="13" lengthAdjust="spacing" textLength="23.0103" x="1044.5" y="124.5669">use</text></g><!--reverse link logic_arc_int__baselibs__json to comp_arc_sta__baselibs__json--><g id="link_logic_arc_int__baselibs__json_comp_arc_sta__baselibs__json"><path codeLine="32" d="M2555.5,204.75 C2555.5,225.98 2555.5,253.94 2555.5,275.19 " fill="transparent" id="logic_arc_int__baselibs__json-backto-comp_arc_sta__baselibs__json" style="stroke:#181818;stroke-width:1;"/><polygon fill="#181818" points="2555.5,198.75,2551.5,207.75,2555.5,203.75,2559.5,207.75,2555.5,198.75" style="stroke:#181818;stroke-width:1;"/><text fill="#000000" font-family="sans-serif" font-size="13" lengthAdjust="spacing" textLength="76.9082" x="2556.5" y="241.5669">implements</text></g><!--link Feature_User to logic_arc_int__baselibs__filesystem--><g id="link_Feature_User_logic_arc_int__baselibs__filesystem"><path codeLine="33" d="M3158.35,47.15 C2975.34,58.05 2271.05,101.56 1693.5,158.5 C1687.66,159.08 1687.6663,159.0547 1681.6563,159.6947 " fill="transparent" id="Feature_User-to-logic_arc_int__baselibs__filesystem" style="stroke:#181818;stroke-width:1;"/><polygon fill="#181818" points="1675.69,160.33,1685.063,163.3545,1680.6619,159.8005,1684.2158,155.3995,1675.69,160.33" style="stroke:#181818;stroke-width:1;"/><text fill="#000000" font-family="sans-serif" font-size="13" lengthAdjust="spacing" textLength="23.0103" x="2192.5" y="124.5669">use</text></g><!--link Feature_User to logic_arc_int__baselibs__synchronized_queue--><g id="link_Feature_User_logic_arc_int__baselibs__synchronized_queue"><path codeLine="34" d="M3248.66,46.7 C3404.61,54.4 3934.96,81.24 4372.5,111.5 C4630.51,129.34 4694.92,135.32 4952.5,158.5 C4958.34,159.03 4958.3051,159.0214 4964.2951,159.5714 " fill="transparent" id="Feature_User-to-logic_arc_int__baselibs__synchronized_queue" style="stroke:#181818;stroke-width:1;"/><polygon fill="#181818" points="4970.27,160.12,4961.6734,155.3138,4965.2909,159.6628,4960.942,163.2803,4970.27,160.12" style="stroke:#181818;stroke-width:1;"/><text fill="#000000" font-family="sans-serif" font-size="13" lengthAdjust="spacing" textLength="23.0103" x="4605.5" y="124.5669">use</text></g><!--reverse link logic_arc_int__baselibs__filesystem to comp_arc_sta__baselibs__filesystem--><g id="link_logic_arc_int__baselibs__filesystem_comp_arc_sta__baselibs__filesystem"><path codeLine="35" d="M1538.379,204.7464 C1539.119,225.9764 1540.09,253.94 1540.83,275.19 " fill="transparent" id="logic_arc_int__baselibs__filesystem-backto-comp_arc_sta__baselibs__filesystem" style="stroke:#181818;stroke-width:1;"/><polygon fill="#181818" points="1538.17,198.75,1534.4859,207.8839,1538.3442,203.747,1542.4811,207.6052,1538.17,198.75" style="stroke:#181818;stroke-width:1;"/><text fill="#000000" font-family="sans-serif" font-size="13" lengthAdjust="spacing" textLength="76.9082" x="1541.5" y="241.5669">implements</text></g><!--reverse link logic_arc_int__baselibs__utils_base64 to comp_arc_sta__baselibs__utils--><g id="link_logic_arc_int__baselibs__utils_base64_comp_arc_sta__baselibs__utils"><path codeLine="36" d="M3160.9223,201.3603 C3119.4923,222.6303 3058.29,254.05 3016.83,275.34 " fill="transparent" id="logic_arc_int__baselibs__utils_base64-backto-comp_arc_sta__baselibs__utils" style="stroke:#181818;stroke-width:1;"/><polygon fill="#181818" points="3166.26,198.62,3156.4266,199.1721,3161.812,200.9036,3160.0804,206.2889,3166.26,198.62" style="stroke:#181818;stroke-width:1;"/><text fill="#000000" font-family="sans-serif" font-size="13" lengthAdjust="spacing" textLength="76.9082" x="3106.5" y="241.5669">implements</text></g><!--link Feature_User to logic_arc_int__baselibs__intrusive_list--><g id="link_Feature_User_logic_arc_int__baselibs__intrusive_list"><path codeLine="37" d="M3158.27,45.73 C2954.62,51.36 2102.3,75.94 1403.5,111.5 C1079.69,127.98 998.42,129.39 675.5,158.5 C669.79,159.01 669.9409,158.97 664.0709,159.55 " fill="transparent" id="Feature_User-to-logic_arc_int__baselibs__intrusive_list" style="stroke:#181818;stroke-width:1;"/><polygon fill="#181818" points="658.1,160.14,667.4497,163.2357,663.0758,159.6484,666.6631,155.2744,658.1,160.14" style="stroke:#181818;stroke-width:1;"/><text fill="#000000" font-family="sans-serif" font-size="13" lengthAdjust="spacing" textLength="23.0103" x="1404.5" y="124.5669">use</text></g><!--reverse link logic_arc_int__baselibs__intrusive_list to comp_arc_sta__baselibs__containers--><g id="link_logic_arc_int__baselibs__intrusive_list_comp_arc_sta__baselibs__containers"><path codeLine="38" d="M545.099,202.0981 C576.759,223.3881 622.49,254.14 654.07,275.38 " fill="transparent" id="logic_arc_int__baselibs__intrusive_list-backto-comp_arc_sta__baselibs__containers" style="stroke:#181818;stroke-width:1;"/><polygon fill="#181818" points="540.12,198.75,545.3563,207.0915,544.2691,201.5401,549.8205,200.4529,540.12,198.75" style="stroke:#181818;stroke-width:1;"/><text fill="#000000" font-family="sans-serif" font-size="13" lengthAdjust="spacing" textLength="76.9082" x="608.5" y="241.5669">implements</text></g><!--link Feature_User to logic_arc_int__baselibs__bit_manipulation--><g id="link_Feature_User_logic_arc_int__baselibs__bit_manipulation"><path codeLine="39" d="M3158.44,50.74 C3020.49,69.83 2605.9333,127.1974 2385.9233,157.6474 " fill="transparent" id="Feature_User-to-logic_arc_int__baselibs__bit_manipulation" style="stroke:#181818;stroke-width:1;"/><polygon fill="#181818" points="2379.98,158.47,2389.4434,161.1984,2384.9328,157.7845,2388.3466,153.2739,2379.98,158.47" style="stroke:#181818;stroke-width:1;"/><text fill="#000000" font-family="sans-serif" font-size="13" lengthAdjust="spacing" textLength="23.0103" x="2695.5" y="124.5669">use</text></g><!--reverse link logic_arc_int__baselibs__message_passing to comp_arc_sta__baselibs__message_passing--><g id="link_logic_arc_int__baselibs__message_passing_comp_arc_sta__baselibs__message_passing"><path codeLine="40" d="M1199.4002,204.7444 C1198.4802,225.9744 1197.26,253.94 1196.34,275.19 " fill="transparent" id="logic_arc_int__baselibs__message_passing-backto-comp_arc_sta__baselibs__message_passing" style="stroke:#181818;stroke-width:1;"/><polygon fill="#181818" points="1199.66,198.75,1195.2741,207.5684,1199.4435,203.7453,1203.2666,207.9147,1199.66,198.75" style="stroke:#181818;stroke-width:1;"/><text fill="#000000" font-family="sans-serif" font-size="13" lengthAdjust="spacing" textLength="76.9082" x="1199.5" y="241.5669">implements</text></g><!--reverse link logic_arc_int__baselibs__bit_manipulation to comp_arc_sta__baselibs__bit_manipulation--><g id="link_logic_arc_int__baselibs__bit_manipulation_comp_arc_sta__baselibs__bit_manipulation"><path codeLine="41" d="M2206.4438,201.9169 C2172.1838,223.2069 2122.43,254.14 2088.26,275.38 " fill="transparent" id="logic_arc_int__baselibs__bit_manipulation-backto-comp_arc_sta__baselibs__bit_manipulation" style="stroke:#181818;stroke-width:1;"/><polygon fill="#181818" points="2211.54,198.75,2201.7845,200.1029,2207.2932,201.3891,2206.007,206.8978,2211.54,198.75" style="stroke:#181818;stroke-width:1;"/><text fill="#000000" font-family="sans-serif" font-size="13" lengthAdjust="spacing" textLength="76.9082" x="2162.5" y="241.5669">implements</text></g><!--link Feature_User to logic_arc_int__baselibs__future--><g id="link_Feature_User_logic_arc_int__baselibs__future"><path codeLine="42" d="M3248.5,64.12 C3306.67,89.49 3401.7699,130.9623 3459.2999,156.0423 " fill="transparent" id="Feature_User-to-logic_arc_int__baselibs__future" style="stroke:#181818;stroke-width:1;"/><polygon fill="#181818" points="3464.8,158.44,3458.1484,151.1767,3460.2166,156.4419,3454.9514,158.5101,3464.8,158.44" style="stroke:#181818;stroke-width:1;"/><text fill="#000000" font-family="sans-serif" font-size="13" lengthAdjust="spacing" textLength="23.0103" x="3393.5" y="124.5669">use</text></g><!--reverse link logic_arc_int__baselibs__task_result to comp_arc_sta__baselibs__concurrency--><g id="link_logic_arc_int__baselibs__task_result_comp_arc_sta__baselibs__concurrency"><path codeLine="43" d="M5347.9727,199.1237 C5248.2427,212.4337 5117.15,229.83 4996.5,245.5 C4919.16,255.55 4833.05,266.53 4761.91,275.54 " fill="transparent" id="logic_arc_int__baselibs__task_result-backto-comp_arc_sta__baselibs__concurrency" style="stroke:#181818;stroke-width:1;"/><polygon fill="#181818" points="5353.92,198.33,5344.4699,195.5557,5348.9639,198.9914,5345.5282,203.4854,5353.92,198.33" style="stroke:#181818;stroke-width:1;"/><text fill="#000000" font-family="sans-serif" font-size="13" lengthAdjust="spacing" textLength="76.9082" x="5120.5" y="241.5669">implements</text></g><!--reverse link logic_arc_int__baselibs__dynamic_array to comp_arc_sta__baselibs__containers--><g id="link_logic_arc_int__baselibs__dynamic_array_comp_arc_sta__baselibs__containers"><path codeLine="44" d="M814.9574,202.1805 C784.4074,223.4705 740.41,254.14 709.93,275.38 " fill="transparent" id="logic_arc_int__baselibs__dynamic_array-backto-comp_arc_sta__baselibs__containers" style="stroke:#181818;stroke-width:1;"/><polygon fill="#181818" points="819.88,198.75,810.2091,200.614,815.7779,201.6087,814.7831,207.1775,819.88,198.75" style="stroke:#181818;stroke-width:1;"/><text fill="#000000" font-family="sans-serif" font-size="13" lengthAdjust="spacing" textLength="76.9082" x="776.5" y="241.5669">implements</text></g><!--link Feature_User to logic_arc_int__baselibs__bit_mask_operator--><g id="link_Feature_User_logic_arc_int__baselibs__bit_mask_operator"><path codeLine="45" d="M3158.42,48.96 C3005.06,64.16 2489.46,115.33 2063.5,158.5 C2057.88,159.07 2058.1289,159.0397 2052.3589,159.6297 " fill="transparent" id="Feature_User-to-logic_arc_int__baselibs__bit_mask_operator" style="stroke:#181818;stroke-width:1;"/><polygon fill="#181818" points="2046.39,160.24,2055.7502,163.3037,2051.3641,159.7314,2054.9364,155.3452,2046.39,160.24" style="stroke:#181818;stroke-width:1;"/><text fill="#000000" font-family="sans-serif" font-size="13" lengthAdjust="spacing" textLength="23.0103" x="2503.5" y="124.5669">use</text></g><!--link Feature_User to logic_arc_int__baselibs__executor--><g id="link_Feature_User_logic_arc_int__baselibs__executor"><path codeLine="46" d="M3248.86,54.61 C3348.25,76.75 3580.7136,128.5351 3709.1636,157.1551 " fill="transparent" id="Feature_User-to-logic_arc_int__baselibs__executor" style="stroke:#181818;stroke-width:1;"/><polygon fill="#181818" points="3715.02,158.46,3707.1053,152.5984,3710.1397,157.3726,3705.3655,160.407,3715.02,158.46" style="stroke:#181818;stroke-width:1;"/><text fill="#000000" font-family="sans-serif" font-size="13" lengthAdjust="spacing" textLength="23.0103" x="3574.5" y="124.5669">use</text></g><!--reverse link logic_arc_int__baselibs__memory_shared to comp_arc_sta__baselibs__memory_shared--><g id="link_logic_arc_int__baselibs__memory_shared_comp_arc_sta__baselibs__memory_shared"><path codeLine="47" d="M170.5,204.75 C170.5,225.98 170.5,253.94 170.5,275.19 " fill="transparent" id="logic_arc_int__baselibs__memory_shared-backto-comp_arc_sta__baselibs__memory_shared" style="stroke:#181818;stroke-width:1;"/><polygon fill="#181818" points="170.5,198.75,166.5,207.75,170.5,203.75,174.5,207.75,170.5,198.75" style="stroke:#181818;stroke-width:1;"/><text fill="#000000" font-family="sans-serif" font-size="13" lengthAdjust="spacing" textLength="76.9082" x="171.5" y="241.5669">implements</text></g><!--reverse link logic_arc_int__baselibs__synchronized_queue to comp_arc_sta__baselibs__concurrency--><g id="link_logic_arc_int__baselibs__synchronized_queue_comp_arc_sta__baselibs__concurrency"><path codeLine="48" d="M5050.325,199.8155 C4951.655,221.1055 4798.72,254.11 4699.98,275.41 " fill="transparent" id="logic_arc_int__baselibs__synchronized_queue-backto-comp_arc_sta__baselibs__concurrency" style="stroke:#181818;stroke-width:1;"/><polygon fill="#181818" points="5056.19,198.55,5046.5488,196.5382,5051.3025,199.6046,5048.2361,204.3583,5056.19,198.55" style="stroke:#181818;stroke-width:1;"/><text fill="#000000" font-family="sans-serif" font-size="13" lengthAdjust="spacing" textLength="76.9082" x="4911.5" y="241.5669">implements</text></g><!--link Feature_User to logic_arc_int__baselibs__utils_base64--><g id="link_Feature_User_logic_arc_int__baselibs__utils_base64"><path codeLine="49" d="M3203.5,81.55 C3203.5,106.45 3203.5,132.26 3203.5,152.26 " fill="transparent" id="Feature_User-to-logic_arc_int__baselibs__utils_base64" style="stroke:#181818;stroke-width:1;"/><polygon fill="#181818" points="3203.5,158.26,3207.5,149.26,3203.5,153.26,3199.5,149.26,3203.5,158.26" style="stroke:#181818;stroke-width:1;"/><text fill="#000000" font-family="sans-serif" font-size="13" lengthAdjust="spacing" textLength="23.0103" x="3204.5" y="124.5669">use</text></g><!--link Feature_User to logic_arc_int__baselibs__json--><g id="link_Feature_User_logic_arc_int__baselibs__json"><path codeLine="50" d="M3158.45,53.75 C3053.19,75.35 2795.2274,128.2935 2654.0074,157.2835 " fill="transparent" id="Feature_User-to-logic_arc_int__baselibs__json" style="stroke:#181818;stroke-width:1;"/><polygon fill="#181818" points="2648.13,158.49,2657.7505,160.5985,2653.0279,157.4846,2656.1418,152.7619,2648.13,158.49" style="stroke:#181818;stroke-width:1;"/><text fill="#000000" font-family="sans-serif" font-size="13" lengthAdjust="spacing" textLength="23.0103" x="2861.5" y="124.5669">use</text></g><!--link Feature_User to logic_arc_int__baselibs__task--><g id="link_Feature_User_logic_arc_int__baselibs__task"><path codeLine="51" d="M3248.65,45.69 C3450.13,51.11 4287.19,74.77 4973.5,111.5 C5275.57,127.67 5351.65,126.96 5652.5,158.5 C5658.38,159.12 5658.4528,159.0747 5664.5328,159.8047 " fill="transparent" id="Feature_User-to-logic_arc_int__baselibs__task" style="stroke:#181818;stroke-width:1;"/><polygon fill="#181818" points="5670.49,160.52,5662.031,155.4756,5665.5257,159.924,5661.0773,163.4186,5670.49,160.52" style="stroke:#181818;stroke-width:1;"/><text fill="#000000" font-family="sans-serif" font-size="13" lengthAdjust="spacing" textLength="23.0103" x="5292.5" y="124.5669">use</text></g><!--link Feature_User to logic_arc_int__baselibs__shared_future--><g id="link_Feature_User_logic_arc_int__baselibs__shared_future"><path codeLine="52" d="M3248.61,51.05 C3382.3,70.46 3774.0623,127.3479 3982.6123,157.6279 " fill="transparent" id="Feature_User-to-logic_arc_int__baselibs__shared_future" style="stroke:#181818;stroke-width:1;"/><polygon fill="#181818" points="3988.55,158.49,3980.2181,153.2383,3983.6019,157.7716,3979.0686,161.1553,3988.55,158.49" style="stroke:#181818;stroke-width:1;"/><text fill="#000000" font-family="sans-serif" font-size="13" lengthAdjust="spacing" textLength="23.0103" x="3771.5" y="124.5669">use</text></g><!--SRC=[hLPDRzGm4BtdLrYzRq48SK1LBqYSUeIpvJZJtQ7-mZCk3OZ_ZfCDTBDRweqtHpipapVpdf-jZF4_fCKdTDk6VH3iHUkPlHKTHj2CtZKxx40GGmJFVO3z6cpWNYZcY6rYeEQ6k3TmsrmhGjEANyqTElZaZOyYGZUklknGFpWW4k-ktpQ_cvitKqwZDEUugy-WE4KGNmdYbL0afWqvR8YcqTu6gQAMn4hALX4OR4dA29GCYqtQt0hZjwZ787Hy6lHHe0q6B3WcyT-2sZkTOWId-qBL4Br5WddP6UnDzrf-_bE7mvZbeugeMfDB9O95DHAZ8KdQ1-Ya3rE1otjx2Tivqnln56gVO5wN5jgfh3fvduOPLfFJzKxPyLDK_MfZXIVGAUkz6jO_pRqAg4MMLZaCoQY1n0AgVJWzP38WgXDubxTz8HT_Z-zA971kjHhBa3m7j23PPWDKMv114MNRhIbWVUmdYHS6yesAn0yXrPEuHmFKvyl1Bk-3UgTtqJlycK_gzmIffEZddvMaTe1gNSCQrX_ULuyhBsCYV0HfaCuGCwjyRSOIjEEgbU2E3QC0xqZ71OmdgZ-7boeBEsoWLjMJLQteDKkV7-SnVtH1NKJypFgNdkNdEwsWcGFhAYfcPdChlmzUy9xAwSsDOUdWzkwxD6j_UoqstFcZQ4p_0m00]--></g></svg>