<svg xmlns="http://www.w3.org/2000/svg" xmlns:xlink="http://www.w3.org/1999/xlink" contentStyleType="text/css" data-diagram-type="CLASS" height="322px" preserveAspectRatio="none" style="width:6205px;height:322px;background:#FFFFFF;" version="1.1" viewBox="0 0 6205 322" width="6205px" zoomAndPan="magnify"><defs/><g><!--entity Feature_User--><g id="elem_Feature_User"><ellipse cx="3071.6685" cy="14" fill="#F1F1F1" rx="8" ry="8" style="stroke:#181818;stroke-width:0.5;"/><path d="M3071.6685,22 L3071.6685,49 M3058.6685,30 L3084.6685,30 M3071.6685,49 L3058.6685,64 M3071.6685,49 L3084.6685,64 " fill="transparent" style="stroke:#181818;stroke-width:0.5;"/><text fill="#000000" font-family="sans-serif" font-size="14" lengthAdjust="spacing" textLength="90.3369" x="3026.5" y="78.4951">Feature User</text></g><!--class comp_arc_sta__baselibs__json--><g id="elem_comp_arc_sta__baselibs__json"><rect fill="#F1F1F1" height="40" id="comp_arc_sta__baselibs__json" rx="2.5" ry="2.5" style="stroke:#181818;stroke-width:0.5;" width="242.1367" x="5956.5" y="275.5"/><ellipse cx="5971.5" cy="291.5" fill="#ADD1B2" rx="11" ry="11" style="stroke:#181818;stroke-width:1;"/><path d="M5974.4688,297.1406 Q5973.8906,297.4375 5973.25,297.5781 Q5972.6094,297.7344 5971.9063,297.7344 Q5969.4063,297.7344 5968.0781,296.0938 Q5966.7656,294.4375 5966.7656,291.3125 Q5966.7656,288.1875 5968.0781,286.5313 Q5969.4063,284.875 5971.9063,284.875 Q5972.6094,284.875 5973.25,285.0313 Q5973.9063,285.1875 5974.4688,285.4844 L5974.4688,288.2031 Q5973.8438,287.625 5973.25,287.3594 Q5972.6563,287.0781 5972.0313,287.0781 Q5970.6875,287.0781 5970,288.1563 Q5969.3125,289.2188 5969.3125,291.3125 Q5969.3125,293.4063 5970,294.4844 Q5970.6875,295.5469 5972.0313,295.5469 Q5972.6563,295.5469 5973.25,295.2813 Q5973.8438,295 5974.4688,294.4219 L5974.4688,297.1406 Z " fill="#000000"/><text fill="#000000" font-family="sans-serif" font-size="14" lengthAdjust="spacing" textLength="210.1367" x="5985.5" y="296.3467">comp_arc_sta__baselibs__json</text><line style="stroke:#181818;stroke-width:0.5;" x1="5957.5" x2="6197.6367" y1="307.5" y2="307.5"/></g><!--class logic_arc_int__baselibs__json--><g id="elem_logic_arc_int__baselibs__json"><rect fill="#F1F1F1" height="40" id="logic_arc_int__baselibs__json" rx="2.5" ry="2.5" style="stroke:#181818;stroke-width:0.5;" width="233.168" x="5959" y="158.5"/><ellipse cx="5974" cy="174.5" fill="#ADD1B2" rx="11" ry="11" style="stroke:#181818;stroke-width:1;"/><path d="M5976.9688,180.1406 Q5976.3906,180.4375 5975.75,180.5781 Q5975.1094,180.7344 5974.4063,180.7344 Q5971.9063,180.7344 5970.5781,179.0938 Q5969.2656,177.4375 5969.2656,174.3125 Q5969.2656,171.1875 5970.5781,169.5313 Q5971.9063,167.875 5974.4063,167.875 Q5975.1094,167.875 5975.75,168.0313 Q5976.4063,168.1875 5976.9688,168.4844 L5976.9688,171.2031 Q5976.3438,170.625 5975.75,170.3594 Q5975.1563,170.0781 5974.5313,170.0781 Q5973.1875,170.0781 5972.5,171.1563 Q5971.8125,172.2188 5971.8125,174.3125 Q5971.8125,176.4063 5972.5,177.4844 Q5973.1875,178.5469 5974.5313,178.5469 Q5975.1563,178.5469 5975.75,178.2813 Q5976.3438,178 5976.9688,177.4219 L5976.9688,180.1406 Z " fill="#000000"/><text fill="#000000" font-family="sans-serif" font-size="14" lengthAdjust="spacing" textLength="201.168" x="5988" y="179.3467">logic_arc_int__baselibs__json</text><line style="stroke:#181818;stroke-width:0.5;" x1="5960" x2="6191.168" y1="190.5" y2="190.5"/></g><!--class logic_arc_int__baselibs__executor--><g id="elem_logic_arc_int__baselibs__executor"><rect fill="#F1F1F1" height="40" id="logic_arc_int__baselibs__executor" rx="2.5" ry="2.5" style="stroke:#181818;stroke-width:0.5;" width="266.4385" x="2596.5" y="158.5"/><ellipse cx="2611.5" cy="174.5" fill="#ADD1B2" rx="11" ry="11" style="stroke:#181818;stroke-width:1;"/><path d="M2614.4688,180.1406 Q2613.8906,180.4375 2613.25,180.5781 Q2612.6094,180.7344 2611.9063,180.7344 Q2609.4063,180.7344 2608.0781,179.0938 Q2606.7656,177.4375 2606.7656,174.3125 Q2606.7656,171.1875 2608.0781,169.5313 Q2609.4063,167.875 2611.9063,167.875 Q2612.6094,167.875 2613.25,168.0313 Q2613.9063,168.1875 2614.4688,168.4844 L2614.4688,171.2031 Q2613.8438,170.625 2613.25,170.3594 Q2612.6563,170.0781 2612.0313,170.0781 Q2610.6875,170.0781 2610,171.1563 Q2609.3125,172.2188 2609.3125,174.3125 Q2609.3125,176.4063 2610,177.4844 Q2610.6875,178.5469 2612.0313,178.5469 Q2612.6563,178.5469 2613.25,178.2813 Q2613.8438,178 2614.4688,177.4219 L2614.4688,180.1406 Z " fill="#000000"/><text fill="#000000" font-family="sans-serif" font-size="14" lengthAdjust="spacing" textLength="234.4385" x="2625.5" y="179.3467">logic_arc_int__baselibs__executor</text><line style="stroke:#181818;stroke-width:0.5;" x1="2597.5" x2="2861.9385" y1="190.5" y2="190.5"/></g><!--class comp_arc_sta__baselibs__bit_manipulation--><g id="elem_comp_arc_sta__baselibs__bit_manipulation"><rect fill="#F1F1F1" height="40" id="comp_arc_sta__baselibs__bit_manipulation" rx="2.5" ry="2.5" style="stroke:#181818;stroke-width:0.5;" width="330.8057" x="4100" y="275.5"/><ellipse cx="4115" cy="291.5" fill="#ADD1B2" rx="11" ry="11" style="stroke:#181818;stroke-width:1;"/><path d="M4117.9688,297.1406 Q4117.3906,297.4375 4116.75,297.5781 Q4116.1094,297.7344 4115.4063,297.7344 Q4112.9063,297.7344 4111.5781,296.0938 Q4110.2656,294.4375 4110.2656,291.3125 Q4110.2656,288.1875 4111.5781,286.5313 Q4112.9063,284.875 4115.4063,284.875 Q4116.1094,284.875 4116.75,285.0313 Q4117.4063,285.1875 4117.9688,285.4844 L4117.9688,288.2031 Q4117.3438,287.625 4116.75,287.3594 Q4116.1563,287.0781 4115.5313,287.0781 Q4114.1875,287.0781 4113.5,288.1563 Q4112.8125,289.2188 4112.8125,291.3125 Q4112.8125,293.4063 4113.5,294.4844 Q4114.1875,295.5469 4115.5313,295.5469 Q4116.1563,295.5469 4116.75,295.2813 Q4117.3438,295 4117.9688,294.4219 L4117.9688,297.1406 Z " fill="#000000"/><text fill="#000000" font-family="sans-serif" font-size="14" lengthAdjust="spacing" textLength="298.8057" x="4129" y="296.3467">comp_arc_sta__baselibs__bit_manipulation</text><line style="stroke:#181818;stroke-width:0.5;" x1="4101" x2="4429.8057" y1="307.5" y2="307.5"/></g><!--class logic_arc_int__baselibs__bit_mask_operator--><g id="elem_logic_arc_int__baselibs__bit_mask_operator"><rect fill="#F1F1F1" height="40" id="logic_arc_int__baselibs__bit_mask_operator" rx="2.5" ry="2.5" style="stroke:#181818;stroke-width:0.5;" width="334.6406" x="3918" y="158.5"/><ellipse cx="3933" cy="174.5" fill="#ADD1B2" rx="11" ry="11" style="stroke:#181818;stroke-width:1;"/><path d="M3935.9688,180.1406 Q3935.3906,180.4375 3934.75,180.5781 Q3934.1094,180.7344 3933.4063,180.7344 Q3930.9063,180.7344 3929.5781,179.0938 Q3928.2656,177.4375 3928.2656,174.3125 Q3928.2656,171.1875 3929.5781,169.5313 Q3930.9063,167.875 3933.4063,167.875 Q3934.1094,167.875 3934.75,168.0313 Q3935.4063,168.1875 3935.9688,168.4844 L3935.9688,171.2031 Q3935.3438,170.625 3934.75,170.3594 Q3934.1563,170.0781 3933.5313,170.0781 Q3932.1875,170.0781 3931.5,171.1563 Q3930.8125,172.2188 3930.8125,174.3125 Q3930.8125,176.4063 3931.5,177.4844 Q3932.1875,178.5469 3933.5313,178.5469 Q3934.1563,178.5469 3934.75,178.2813 Q3935.3438,178 3935.9688,177.4219 L3935.9688,180.1406 Z " fill="#000000"/><text fill="#000000" font-family="sans-serif" font-size="14" lengthAdjust="spacing" textLength="302.6406" x="3947" y="179.3467">logic_arc_int__baselibs__bit_mask_operator</text><line style="stroke:#181818;stroke-width:0.5;" x1="3919" x2="4251.6406" y1="190.5" y2="190.5"/></g><!--class comp_arc_sta__baselibs__concurrency--><g id="elem_comp_arc_sta__baselibs__concurrency"><rect fill="#F1F1F1" height="40" id="comp_arc_sta__baselibs__concurrency" rx="2.5" ry="2.5" style="stroke:#181818;stroke-width:0.5;" width="300.2012" x="2390.5" y="275.5"/><ellipse cx="2405.5" cy="291.5" fill="#ADD1B2" rx="11" ry="11" style="stroke:#181818;stroke-width:1;"/><path d="M2408.4688,297.1406 Q2407.8906,297.4375 2407.25,297.5781 Q2406.6094,297.7344 2405.9063,297.7344 Q2403.4063,297.7344 2402.0781,296.0938 Q2400.7656,294.4375 2400.7656,291.3125 Q2400.7656,288.1875 2402.0781,286.5313 Q2403.4063,284.875 2405.9063,284.875 Q2406.6094,284.875 2407.25,285.0313 Q2407.9063,285.1875 2408.4688,285.4844 L2408.4688,288.2031 Q2407.8438,287.625 2407.25,287.3594 Q2406.6563,287.0781 2406.0313,287.0781 Q2404.6875,287.0781 2404,288.1563 Q2403.3125,289.2188 2403.3125,291.3125 Q2403.3125,293.4063 2404,294.4844 Q2404.6875,295.5469 2406.0313,295.5469 Q2406.6563,295.5469 2407.25,295.2813 Q2407.8438,295 2408.4688,294.4219 L2408.4688,297.1406 Z " fill="#000000"/><text fill="#000000" font-family="sans-serif" font-size="14" lengthAdjust="spacing" textLength="268.2012" x="2419.5" y="296.3467">comp_arc_sta__baselibs__concurrency</text><line style="stroke:#181818;stroke-width:0.5;" x1="2391.5" x2="2689.7012" y1="307.5" y2="307.5"/></g><!--class logic_arc_int__baselibs__shared_future--><g id="elem_logic_arc_int__baselibs__shared_future"><rect fill="#F1F1F1" height="40" id="logic_arc_int__baselibs__shared_future" rx="2.5" ry="2.5" style="stroke:#181818;stroke-width:0.5;" width="302.0811" x="1660.5" y="158.5"/><ellipse cx="1675.5" cy="174.5" fill="#ADD1B2" rx="11" ry="11" style="stroke:#181818;stroke-width:1;"/><path d="M1678.4688,180.1406 Q1677.8906,180.4375 1677.25,180.5781 Q1676.6094,180.7344 1675.9063,180.7344 Q1673.4063,180.7344 1672.0781,179.0938 Q1670.7656,177.4375 1670.7656,174.3125 Q1670.7656,171.1875 1672.0781,169.5313 Q1673.4063,167.875 1675.9063,167.875 Q1676.6094,167.875 1677.25,168.0313 Q1677.9063,168.1875 1678.4688,168.4844 L1678.4688,171.2031 Q1677.8438,170.625 1677.25,170.3594 Q1676.6563,170.0781 1676.0313,170.0781 Q1674.6875,170.0781 1674,171.1563 Q1673.3125,172.2188 1673.3125,174.3125 Q1673.3125,176.4063 1674,177.4844 Q1674.6875,178.5469 1676.0313,178.5469 Q1676.6563,178.5469 1677.25,178.2813 Q1677.8438,178 1678.4688,177.4219 L1678.4688,180.1406 Z " fill="#000000"/><text fill="#000000" font-family="sans-serif" font-size="14" lengthAdjust="spacing" textLength="270.0811" x="1689.5" y="179.3467">logic_arc_int__baselibs__shared_future</text><line style="stroke:#181818;stroke-width:0.5;" x1="1661.5" x2="1961.5811" y1="190.5" y2="190.5"/></g><!--class logic_arc_int__baselibs__future--><g id="elem_logic_arc_int__baselibs__future"><rect fill="#F1F1F1" height="40" id="logic_arc_int__baselibs__future" rx="2.5" ry="2.5" style="stroke:#181818;stroke-width:0.5;" width="247.0791" x="2314" y="158.5"/><ellipse cx="2329" cy="174.5" fill="#ADD1B2" rx="11" ry="11" style="stroke:#181818;stroke-width:1;"/><path d="M2331.9688,180.1406 Q2331.3906,180.4375 2330.75,180.5781 Q2330.1094,180.7344 2329.4063,180.7344 Q2326.9063,180.7344 2325.5781,179.0938 Q2324.2656,177.4375 2324.2656,174.3125 Q2324.2656,171.1875 2325.5781,169.5313 Q2326.9063,167.875 2329.4063,167.875 Q2330.1094,167.875 2330.75,168.0313 Q2331.4063,168.1875 2331.9688,168.4844 L2331.9688,171.2031 Q2331.3438,170.625 2330.75,170.3594 Q2330.1563,170.0781 2329.5313,170.0781 Q2328.1875,170.0781 2327.5,171.1563 Q2326.8125,172.2188 2326.8125,174.3125 Q2326.8125,176.4063 2327.5,177.4844 Q2328.1875,178.5469 2329.5313,178.5469 Q2330.1563,178.5469 2330.75,178.2813 Q2331.3438,178 2331.9688,177.4219 L2331.9688,180.1406 Z " fill="#000000"/><text fill="#000000" font-family="sans-serif" font-size="14" lengthAdjust="spacing" textLength="215.0791" x="2343" y="179.3467">logic_arc_int__baselibs__future</text><line style="stroke:#181818;stroke-width:0.5;" x1="2315" x2="2560.0791" y1="190.5" y2="190.5"/></g><!--class logic_arc_int__baselibs__task_result--><g id="elem_logic_arc_int__baselibs__task_result"><rect fill="#F1F1F1" height="40" id="logic_arc_int__baselibs__task_result" rx="2.5" ry="2.5" style="stroke:#181818;stroke-width:0.5;" width="280.9307" x="1998" y="158.5"/><ellipse cx="2013" cy="174.5" fill="#ADD1B2" rx="11" ry="11" style="stroke:#181818;stroke-width:1;"/><path d="M2015.9688,180.1406 Q2015.3906,180.4375 2014.75,180.5781 Q2014.1094,180.7344 2013.4063,180.7344 Q2010.9063,180.7344 2009.5781,179.0938 Q2008.2656,177.4375 2008.2656,174.3125 Q2008.2656,171.1875 2009.5781,169.5313 Q2010.9063,167.875 2013.4063,167.875 Q2014.1094,167.875 2014.75,168.0313 Q2015.4063,168.1875 2015.9688,168.4844 L2015.9688,171.2031 Q2015.3438,170.625 2014.75,170.3594 Q2014.1563,170.0781 2013.5313,170.0781 Q2012.1875,170.0781 2011.5,171.1563 Q2010.8125,172.2188 2010.8125,174.3125 Q2010.8125,176.4063 2011.5,177.4844 Q2012.1875,178.5469 2013.5313,178.5469 Q2014.1563,178.5469 2014.75,178.2813 Q2015.3438,178 2015.9688,177.4219 L2015.9688,180.1406 Z " fill="#000000"/><text fill="#000000" font-family="sans-serif" font-size="14" lengthAdjust="spacing" textLength="248.9307" x="2027" y="179.3467">logic_arc_int__baselibs__task_result</text><line style="stroke:#181818;stroke-width:0.5;" x1="1999" x2="2277.9307" y1="190.5" y2="190.5"/></g><!--class comp_arc_sta__baselibs__memory_shared--><g id="elem_comp_arc_sta__baselibs__memory_shared"><rect fill="#F1F1F1" height="40" id="comp_arc_sta__baselibs__memory_shared" rx="2.5" ry="2.5" style="stroke:#181818;stroke-width:0.5;" width="327.0117" x="5595" y="275.5"/><ellipse cx="5610" cy="291.5" fill="#ADD1B2" rx="11" ry="11" style="stroke:#181818;stroke-width:1;"/><path d="M5612.9688,297.1406 Q5612.3906,297.4375 5611.75,297.5781 Q5611.1094,297.7344 5610.4063,297.7344 Q5607.9063,297.7344 5606.5781,296.0938 Q5605.2656,294.4375 5605.2656,291.3125 Q5605.2656,288.1875 5606.5781,286.5313 Q5607.9063,284.875 5610.4063,284.875 Q5611.1094,284.875 5611.75,285.0313 Q5612.4063,285.1875 5612.9688,285.4844 L5612.9688,288.2031 Q5612.3438,287.625 5611.75,287.3594 Q5611.1563,287.0781 5610.5313,287.0781 Q5609.1875,287.0781 5608.5,288.1563 Q5607.8125,289.2188 5607.8125,291.3125 Q5607.8125,293.4063 5608.5,294.4844 Q5609.1875,295.5469 5610.5313,295.5469 Q5611.1563,295.5469 5611.75,295.2813 Q5612.3438,295 5612.9688,294.4219 L5612.9688,297.1406 Z " fill="#000000"/><text fill="#000000" font-family="sans-serif" font-size="14" lengthAdjust="spacing" textLength="295.0117" x="5624" y="296.3467">comp_arc_sta__baselibs__memory_shared</text><line style="stroke:#181818;stroke-width:0.5;" x1="5596" x2="5921.0117" y1="307.5" y2="307.5"/></g><!--class logic_arc_int__baselibs__memory_shared--><g id="elem_logic_arc_int__baselibs__memory_shared"><rect fill="#F1F1F1" height="40" id="logic_arc_int__baselibs__memory_shared" rx="2.5" ry="2.5" style="stroke:#181818;stroke-width:0.5;" width="318.043" x="5602.5" y="158.5"/><ellipse cx="5617.5" cy="174.5" fill="#ADD1B2" rx="11" ry="11" style="stroke:#181818;stroke-width:1;"/><path d="M5620.4688,180.1406 Q5619.8906,180.4375 5619.25,180.5781 Q5618.6094,180.7344 5617.9063,180.7344 Q5615.4063,180.7344 5614.0781,179.0938 Q5612.7656,177.4375 5612.7656,174.3125 Q5612.7656,171.1875 5614.0781,169.5313 Q5615.4063,167.875 5617.9063,167.875 Q5618.6094,167.875 5619.25,168.0313 Q5619.9063,168.1875 5620.4688,168.4844 L5620.4688,171.2031 Q5619.8438,170.625 5619.25,170.3594 Q5618.6563,170.0781 5618.0313,170.0781 Q5616.6875,170.0781 5616,171.1563 Q5615.3125,172.2188 5615.3125,174.3125 Q5615.3125,176.4063 5616,177.4844 Q5616.6875,178.5469 5618.0313,178.5469 Q5618.6563,178.5469 5619.25,178.2813 Q5619.8438,178 5620.4688,177.4219 L5620.4688,180.1406 Z " fill="#000000"/><text fill="#000000" font-family="sans-serif" font-size="14" lengthAdjust="spacing" textLength="286.043" x="5631.5" y="179.3467">logic_arc_int__baselibs__memory_shared</text><line style="stroke:#181818;stroke-width:0.5;" x1="5603.5" x2="5919.543" y1="190.5" y2="190.5"/></g><!--class logic_arc_int__baselibs__task--><g id="elem_logic_arc_int__baselibs__task"><rect fill="#F1F1F1" height="40" id="logic_arc_int__baselibs__task" rx="2.5" ry="2.5" style="stroke:#181818;stroke-width:0.5;" width="234.0156" x="3280.5" y="158.5"/><ellipse cx="3295.5" cy="174.5" fill="#ADD1B2" rx="11" ry="11" style="stroke:#181818;stroke-width:1;"/><path d="M3298.4688,180.1406 Q3297.8906,180.4375 3297.25,180.5781 Q3296.6094,180.7344 3295.9063,180.7344 Q3293.4063,180.7344 3292.0781,179.0938 Q3290.7656,177.4375 3290.7656,174.3125 Q3290.7656,171.1875 3292.0781,169.5313 Q3293.4063,167.875 3295.9063,167.875 Q3296.6094,167.875 3297.25,168.0313 Q3297.9063,168.1875 3298.4688,168.4844 L3298.4688,171.2031 Q3297.8438,170.625 3297.25,170.3594 Q3296.6563,170.0781 3296.0313,170.0781 Q3294.6875,170.0781 3294,171.1563 Q3293.3125,172.2188 3293.3125,174.3125 Q3293.3125,176.4063 3294,177.4844 Q3294.6875,178.5469 3296.0313,178.5469 Q3296.6563,178.5469 3297.25,178.2813 Q3297.8438,178 3298.4688,177.4219 L3298.4688,180.1406 Z " fill="#000000"/><text fill="#000000" font-family="sans-serif" font-size="14" lengthAdjust="spacing" textLength="202.0156" x="3309.5" y="179.3467">logic_arc_int__baselibs__task</text><line style="stroke:#181818;stroke-width:0.5;" x1="3281.5" x2="3513.5156" y1="190.5" y2="190.5"/></g><!--class logic_arc_int__baselibs__dynamic_array--><g id="elem_logic_arc_int__baselibs__dynamic_array"><rect fill="#F1F1F1" height="40" id="logic_arc_int__baselibs__dynamic_array" rx="2.5" ry="2.5" style="stroke:#181818;stroke-width:0.5;" width="308.3496" x="1020.5" y="158.5"/><ellipse cx="1035.5" cy="174.5" fill="#ADD1B2" rx="11" ry="11" style="stroke:#181818;stroke-width:1;"/><path d="M1038.4688,180.1406 Q1037.8906,180.4375 1037.25,180.5781 Q1036.6094,180.7344 1035.9063,180.7344 Q1033.4063,180.7344 1032.0781,179.0938 Q1030.7656,177.4375 1030.7656,174.3125 Q1030.7656,171.1875 1032.0781,169.5313 Q1033.4063,167.875 1035.9063,167.875 Q1036.6094,167.875 1037.25,168.0313 Q1037.9063,168.1875 1038.4688,168.4844 L1038.4688,171.2031 Q1037.8438,170.625 1037.25,170.3594 Q1036.6563,170.0781 1036.0313,170.0781 Q1034.6875,170.0781 1034,171.1563 Q1033.3125,172.2188 1033.3125,174.3125 Q1033.3125,176.4063 1034,177.4844 Q1034.6875,178.5469 1036.0313,178.5469 Q1036.6563,178.5469 1037.25,178.2813 Q1037.8438,178 1038.4688,177.4219 L1038.4688,180.1406 Z " fill="#000000"/><text fill="#000000" font-family="sans-serif" font-size="14" lengthAdjust="spacing" textLength="276.3496" x="1049.5" y="179.3467">logic_arc_int__baselibs__dynamic_array</text><line style="stroke:#181818;stroke-width:0.5;" x1="1021.5" x2="1327.8496" y1="190.5" y2="190.5"/></g><!--class logic_arc_int__baselibs__synchronized_queue--><g id="elem_logic_arc_int__baselibs__synchronized_queue"><rect fill="#F1F1F1" height="40" id="logic_arc_int__baselibs__synchronized_queue" rx="2.5" ry="2.5" style="stroke:#181818;stroke-width:0.5;" width="348.3604" x="2897.5" y="158.5"/><ellipse cx="2912.5" cy="174.5" fill="#ADD1B2" rx="11" ry="11" style="stroke:#181818;stroke-width:1;"/><path d="M2915.4688,180.1406 Q2914.8906,180.4375 2914.25,180.5781 Q2913.6094,180.7344 2912.9063,180.7344 Q2910.4063,180.7344 2909.0781,179.0938 Q2907.7656,177.4375 2907.7656,174.3125 Q2907.7656,171.1875 2909.0781,169.5313 Q2910.4063,167.875 2912.9063,167.875 Q2913.6094,167.875 2914.25,168.0313 Q2914.9063,168.1875 2915.4688,168.4844 L2915.4688,171.2031 Q2914.8438,170.625 2914.25,170.3594 Q2913.6563,170.0781 2913.0313,170.0781 Q2911.6875,170.0781 2911,171.1563 Q2910.3125,172.2188 2910.3125,174.3125 Q2910.3125,176.4063 2911,177.4844 Q2911.6875,178.5469 2913.0313,178.5469 Q2913.6563,178.5469 2914.25,178.2813 Q2914.8438,178 2915.4688,177.4219 L2915.4688,180.1406 Z " fill="#000000"/><text fill="#000000" font-family="sans-serif" font-size="14" lengthAdjust="spacing" textLength="316.3604" x="2926.5" y="179.3467">logic_arc_int__baselibs__synchronized_queue</text><line style="stroke:#181818;stroke-width:0.5;" x1="2898.5" x2="3244.8604" y1="190.5" y2="190.5"/></g><!--class comp_arc_sta__baselibs__utils--><g id="elem_comp_arc_sta__baselibs__utils"><rect fill="#F1F1F1" height="40" id="comp_arc_sta__baselibs__utils" rx="2.5" ry="2.5" style="stroke:#181818;stroke-width:0.5;" width="242.9502" x="5118" y="275.5"/><ellipse cx="5133" cy="291.5" fill="#ADD1B2" rx="11" ry="11" style="stroke:#181818;stroke-width:1;"/><path d="M5135.9688,297.1406 Q5135.3906,297.4375 5134.75,297.5781 Q5134.1094,297.7344 5133.4063,297.7344 Q5130.9063,297.7344 5129.5781,296.0938 Q5128.2656,294.4375 5128.2656,291.3125 Q5128.2656,288.1875 5129.5781,286.5313 Q5130.9063,284.875 5133.4063,284.875 Q5134.1094,284.875 5134.75,285.0313 Q5135.4063,285.1875 5135.9688,285.4844 L5135.9688,288.2031 Q5135.3438,287.625 5134.75,287.3594 Q5134.1563,287.0781 5133.5313,287.0781 Q5132.1875,287.0781 5131.5,288.1563 Q5130.8125,289.2188 5130.8125,291.3125 Q5130.8125,293.4063 5131.5,294.4844 Q5132.1875,295.5469 5133.5313,295.5469 Q5134.1563,295.5469 5134.75,295.2813 Q5135.3438,295 5135.9688,294.4219 L5135.9688,297.1406 Z " fill="#000000"/><text fill="#000000" font-family="sans-serif" font-size="14" lengthAdjust="spacing" textLength="210.9502" x="5147" y="296.3467">comp_arc_sta__baselibs__utils</text><line style="stroke:#181818;stroke-width:0.5;" x1="5119" x2="5359.9502" y1="307.5" y2="307.5"/></g><!--class logic_arc_int__baselibs__utils_base64--><g id="elem_logic_arc_int__baselibs__utils_base64"><rect fill="#F1F1F1" height="40" id="logic_arc_int__baselibs__utils_base64" rx="2.5" ry="2.5" style="stroke:#181818;stroke-width:0.5;" width="292.1689" x="4924.5" y="158.5"/><ellipse cx="4939.5" cy="174.5" fill="#ADD1B2" rx="11" ry="11" style="stroke:#181818;stroke-width:1;"/><path d="M4942.4688,180.1406 Q4941.8906,180.4375 4941.25,180.5781 Q4940.6094,180.7344 4939.9063,180.7344 Q4937.4063,180.7344 4936.0781,179.0938 Q4934.7656,177.4375 4934.7656,174.3125 Q4934.7656,171.1875 4936.0781,169.5313 Q4937.4063,167.875 4939.9063,167.875 Q4940.6094,167.875 4941.25,168.0313 Q4941.9063,168.1875 4942.4688,168.4844 L4942.4688,171.2031 Q4941.8438,170.625 4941.25,170.3594 Q4940.6563,170.0781 4940.0313,170.0781 Q4938.6875,170.0781 4938,171.1563 Q4937.3125,172.2188 4937.3125,174.3125 Q4937.3125,176.4063 4938,177.4844 Q4938.6875,178.5469 4940.0313,178.5469 Q4940.6563,178.5469 4941.25,178.2813 Q4941.8438,178 4942.4688,177.4219 L4942.4688,180.1406 Z " fill="#000000"/><text fill="#000000" font-family="sans-serif" font-size="14" lengthAdjust="spacing" textLength="260.1689" x="4953.5" y="179.3467">logic_arc_int__baselibs__utils_base64</text><line style="stroke:#181818;stroke-width:0.5;" x1="4925.5" x2="5215.6689" y1="190.5" y2="190.5"/></g><!--class logic_arc_int__baselibs__utils_scoped_op--><g id="elem_logic_arc_int__baselibs__utils_scoped_op"><rect fill="#F1F1F1" height="40" id="logic_arc_int__baselibs__utils_scoped_op" rx="2.5" ry="2.5" style="stroke:#181818;stroke-width:0.5;" width="315.377" x="5252" y="158.5"/><ellipse cx="5267" cy="174.5" fill="#ADD1B2" rx="11" ry="11" style="stroke:#181818;stroke-width:1;"/><path d="M5269.9688,180.1406 Q5269.3906,180.4375 5268.75,180.5781 Q5268.1094,180.7344 5267.4063,180.7344 Q5264.9063,180.7344 5263.5781,179.0938 Q5262.2656,177.4375 5262.2656,174.3125 Q5262.2656,171.1875 5263.5781,169.5313 Q5264.9063,167.875 5267.4063,167.875 Q5268.1094,167.875 5268.75,168.0313 Q5269.4063,168.1875 5269.9688,168.4844 L5269.9688,171.2031 Q5269.3438,170.625 5268.75,170.3594 Q5268.1563,170.0781 5267.5313,170.0781 Q5266.1875,170.0781 5265.5,171.1563 Q5264.8125,172.2188 5264.8125,174.3125 Q5264.8125,176.4063 5265.5,177.4844 Q5266.1875,178.5469 5267.5313,178.5469 Q5268.1563,178.5469 5268.75,178.2813 Q5269.3438,178 5269.9688,177.4219 L5269.9688,180.1406 Z " fill="#000000"/><text fill="#000000" font-family="sans-serif" font-size="14" lengthAdjust="spacing" textLength="283.377" x="5281" y="179.3467">logic_arc_int__baselibs__utils_scoped_op</text><line style="stroke:#181818;stroke-width:0.5;" x1="5253" x2="5566.377" y1="190.5" y2="190.5"/></g><!--class comp_arc_sta__baselibs__result--><g id="elem_comp_arc_sta__baselibs__result"><rect fill="#F1F1F1" height="40" id="comp_arc_sta__baselibs__result" rx="2.5" ry="2.5" style="stroke:#181818;stroke-width:0.5;" width="253.4297" x="4641" y="275.5"/><ellipse cx="4656" cy="291.5" fill="#ADD1B2" rx="11" ry="11" style="stroke:#181818;stroke-width:1;"/><path d="M4658.9688,297.1406 Q4658.3906,297.4375 4657.75,297.5781 Q4657.1094,297.7344 4656.4063,297.7344 Q4653.9063,297.7344 4652.5781,296.0938 Q4651.2656,294.4375 4651.2656,291.3125 Q4651.2656,288.1875 4652.5781,286.5313 Q4653.9063,284.875 4656.4063,284.875 Q4657.1094,284.875 4657.75,285.0313 Q4658.4063,285.1875 4658.9688,285.4844 L4658.9688,288.2031 Q4658.3438,287.625 4657.75,287.3594 Q4657.1563,287.0781 4656.5313,287.0781 Q4655.1875,287.0781 4654.5,288.1563 Q4653.8125,289.2188 4653.8125,291.3125 Q4653.8125,293.4063 4654.5,294.4844 Q4655.1875,295.5469 4656.5313,295.5469 Q4657.1563,295.5469 4657.75,295.2813 Q4658.3438,295 4658.9688,294.4219 L4658.9688,297.1406 Z " fill="#000000"/><text fill="#000000" font-family="sans-serif" font-size="14" lengthAdjust="spacing" textLength="221.4297" x="4670" y="296.3467">comp_arc_sta__baselibs__result</text><line style="stroke:#181818;stroke-width:0.5;" x1="4642" x2="4893.4297" y1="307.5" y2="307.5"/></g><!--class logic_arc_int__baselibs__result--><g id="elem_logic_arc_int__baselibs__result"><rect fill="#F1F1F1" height="40" id="logic_arc_int__baselibs__result" rx="2.5" ry="2.5" style="stroke:#181818;stroke-width:0.5;" width="244.4609" x="4645.5" y="158.5"/><ellipse cx="4660.5" cy="174.5" fill="#ADD1B2" rx="11" ry="11" style="stroke:#181818;stroke-width:1;"/><path d="M4663.4688,180.1406 Q4662.8906,180.4375 4662.25,180.5781 Q4661.6094,180.7344 4660.9063,180.7344 Q4658.4063,180.7344 4657.0781,179.0938 Q4655.7656,177.4375 4655.7656,174.3125 Q4655.7656,171.1875 4657.0781,169.5313 Q4658.4063,167.875 4660.9063,167.875 Q4661.6094,167.875 4662.25,168.0313 Q4662.9063,168.1875 4663.4688,168.4844 L4663.4688,171.2031 Q4662.8438,170.625 4662.25,170.3594 Q4661.6563,170.0781 4661.0313,170.0781 Q4659.6875,170.0781 4659,171.1563 Q4658.3125,172.2188 4658.3125,174.3125 Q4658.3125,176.4063 4659,177.4844 Q4659.6875,178.5469 4661.0313,178.5469 Q4661.6563,178.5469 4662.25,178.2813 Q4662.8438,178 4663.4688,177.4219 L4663.4688,180.1406 Z " fill="#000000"/><text fill="#000000" font-family="sans-serif" font-size="14" lengthAdjust="spacing" textLength="212.4609" x="4674.5" y="179.3467">logic_arc_int__baselibs__result</text><line style="stroke:#181818;stroke-width:0.5;" x1="4646.5" x2="4888.9609" y1="190.5" y2="190.5"/></g><!--class logic_arc_int__baselibs__bit_manipulation--><g id="elem_logic_arc_int__baselibs__bit_manipulation"><rect fill="#F1F1F1" height="40" id="logic_arc_int__baselibs__bit_manipulation" rx="2.5" ry="2.5" style="stroke:#181818;stroke-width:0.5;" width="321.8369" x="4288.5" y="158.5"/><ellipse cx="4303.5" cy="174.5" fill="#ADD1B2" rx="11" ry="11" style="stroke:#181818;stroke-width:1;"/><path d="M4306.4688,180.1406 Q4305.8906,180.4375 4305.25,180.5781 Q4304.6094,180.7344 4303.9063,180.7344 Q4301.4063,180.7344 4300.0781,179.0938 Q4298.7656,177.4375 4298.7656,174.3125 Q4298.7656,171.1875 4300.0781,169.5313 Q4301.4063,167.875 4303.9063,167.875 Q4304.6094,167.875 4305.25,168.0313 Q4305.9063,168.1875 4306.4688,168.4844 L4306.4688,171.2031 Q4305.8438,170.625 4305.25,170.3594 Q4304.6563,170.0781 4304.0313,170.0781 Q4302.6875,170.0781 4302,171.1563 Q4301.3125,172.2188 4301.3125,174.3125 Q4301.3125,176.4063 4302,177.4844 Q4302.6875,178.5469 4304.0313,178.5469 Q4304.6563,178.5469 4305.25,178.2813 Q4305.8438,178 4306.4688,177.4219 L4306.4688,180.1406 Z " fill="#000000"/><text fill="#000000" font-family="sans-serif" font-size="14" lengthAdjust="spacing" textLength="289.8369" x="4317.5" y="179.3467">logic_arc_int__baselibs__bit_manipulation</text><line style="stroke:#181818;stroke-width:0.5;" x1="4289.5" x2="4609.3369" y1="190.5" y2="190.5"/></g><!--class logic_arc_int__baselibs__promise--><g id="elem_logic_arc_int__baselibs__promise"><rect fill="#F1F1F1" height="40" id="logic_arc_int__baselibs__promise" rx="2.5" ry="2.5" style="stroke:#181818;stroke-width:0.5;" width="261.1885" x="1364" y="158.5"/><ellipse cx="1379" cy="174.5" fill="#ADD1B2" rx="11" ry="11" style="stroke:#181818;stroke-width:1;"/><path d="M1381.9688,180.1406 Q1381.3906,180.4375 1380.75,180.5781 Q1380.1094,180.7344 1379.4063,180.7344 Q1376.9063,180.7344 1375.5781,179.0938 Q1374.2656,177.4375 1374.2656,174.3125 Q1374.2656,171.1875 1375.5781,169.5313 Q1376.9063,167.875 1379.4063,167.875 Q1380.1094,167.875 1380.75,168.0313 Q1381.4063,168.1875 1381.9688,168.4844 L1381.9688,171.2031 Q1381.3438,170.625 1380.75,170.3594 Q1380.1563,170.0781 1379.5313,170.0781 Q1378.1875,170.0781 1377.5,171.1563 Q1376.8125,172.2188 1376.8125,174.3125 Q1376.8125,176.4063 1377.5,177.4844 Q1378.1875,178.5469 1379.5313,178.5469 Q1380.1563,178.5469 1380.75,178.2813 Q1381.3438,178 1381.9688,177.4219 L1381.9688,180.1406 Z " fill="#000000"/><text fill="#000000" font-family="sans-serif" font-size="14" lengthAdjust="spacing" textLength="229.1885" x="1393" y="179.3467">logic_arc_int__baselibs__promise</text><line style="stroke:#181818;stroke-width:0.5;" x1="1365" x2="1624.1885" y1="190.5" y2="190.5"/></g><!--class logic_arc_int__baselibs__intrusive_list--><g id="elem_logic_arc_int__baselibs__intrusive_list"><rect fill="#F1F1F1" height="40" id="logic_arc_int__baselibs__intrusive_list" rx="2.5" ry="2.5" style="stroke:#181818;stroke-width:0.5;" width="293.0713" x="692" y="158.5"/><ellipse cx="707" cy="174.5" fill="#ADD1B2" rx="11" ry="11" style="stroke:#181818;stroke-width:1;"/><path d="M709.9688,180.1406 Q709.3906,180.4375 708.75,180.5781 Q708.1094,180.7344 707.4063,180.7344 Q704.9063,180.7344 703.5781,179.0938 Q702.2656,177.4375 702.2656,174.3125 Q702.2656,171.1875 703.5781,169.5313 Q704.9063,167.875 707.4063,167.875 Q708.1094,167.875 708.75,168.0313 Q709.4063,168.1875 709.9688,168.4844 L709.9688,171.2031 Q709.3438,170.625 708.75,170.3594 Q708.1563,170.0781 707.5313,170.0781 Q706.1875,170.0781 705.5,171.1563 Q704.8125,172.2188 704.8125,174.3125 Q704.8125,176.4063 705.5,177.4844 Q706.1875,178.5469 707.5313,178.5469 Q708.1563,178.5469 708.75,178.2813 Q709.3438,178 709.9688,177.4219 L709.9688,180.1406 Z " fill="#000000"/><text fill="#000000" font-family="sans-serif" font-size="14" lengthAdjust="spacing" textLength="261.0713" x="721" y="179.3467">logic_arc_int__baselibs__intrusive_list</text><line style="stroke:#181818;stroke-width:0.5;" x1="693" x2="984.0713" y1="190.5" y2="190.5"/></g><!--class logic_arc_int__baselibs__condition_variable--><g id="elem_logic_arc_int__baselibs__condition_variable"><rect fill="#F1F1F1" height="40" id="logic_arc_int__baselibs__condition_variable" rx="2.5" ry="2.5" style="stroke:#181818;stroke-width:0.5;" width="332.7539" x="3550" y="158.5"/><ellipse cx="3565" cy="174.5" fill="#ADD1B2" rx="11" ry="11" style="stroke:#181818;stroke-width:1;"/><path d="M3567.9688,180.1406 Q3567.3906,180.4375 3566.75,180.5781 Q3566.1094,180.7344 3565.4063,180.7344 Q3562.9063,180.7344 3561.5781,179.0938 Q3560.2656,177.4375 3560.2656,174.3125 Q3560.2656,171.1875 3561.5781,169.5313 Q3562.9063,167.875 3565.4063,167.875 Q3566.1094,167.875 3566.75,168.0313 Q3567.4063,168.1875 3567.9688,168.4844 L3567.9688,171.2031 Q3567.3438,170.625 3566.75,170.3594 Q3566.1563,170.0781 3565.5313,170.0781 Q3564.1875,170.0781 3563.5,171.1563 Q3562.8125,172.2188 3562.8125,174.3125 Q3562.8125,176.4063 3563.5,177.4844 Q3564.1875,178.5469 3565.5313,178.5469 Q3566.1563,178.5469 3566.75,178.2813 Q3567.3438,178 3567.9688,177.4219 L3567.9688,180.1406 Z " fill="#000000"/><text fill="#000000" font-family="sans-serif" font-size="14" lengthAdjust="spacing" textLength="300.7539" x="3579" y="179.3467">logic_arc_int__baselibs__condition_variable</text><line style="stroke:#181818;stroke-width:0.5;" x1="3551" x2="3881.7539" y1="190.5" y2="190.5"/></g><!--class comp_arc_sta__baselibs__containers--><g id="elem_comp_arc_sta__baselibs__containers"><rect fill="#F1F1F1" height="40" id="comp_arc_sta__baselibs__containers" rx="2.5" ry="2.5" style="stroke:#181818;stroke-width:0.5;" width="287.1445" x="811" y="275.5"/><ellipse cx="826" cy="291.5" fill="#ADD1B2" rx="11" ry="11" style="stroke:#181818;stroke-width:1;"/><path d="M828.9688,297.1406 Q828.3906,297.4375 827.75,297.5781 Q827.1094,297.7344 826.4063,297.7344 Q823.9063,297.7344 822.5781,296.0938 Q821.2656,294.4375 821.2656,291.3125 Q821.2656,288.1875 822.5781,286.5313 Q823.9063,284.875 826.4063,284.875 Q827.1094,284.875 827.75,285.0313 Q828.4063,285.1875 828.9688,285.4844 L828.9688,288.2031 Q828.3438,287.625 827.75,287.3594 Q827.1563,287.0781 826.5313,287.0781 Q825.1875,287.0781 824.5,288.1563 Q823.8125,289.2188 823.8125,291.3125 Q823.8125,293.4063 824.5,294.4844 Q825.1875,295.5469 826.5313,295.5469 Q827.1563,295.5469 827.75,295.2813 Q828.3438,295 828.9688,294.4219 L828.9688,297.1406 Z " fill="#000000"/><text fill="#000000" font-family="sans-serif" font-size="14" lengthAdjust="spacing" textLength="255.1445" x="840" y="296.3467">comp_arc_sta__baselibs__containers</text><line style="stroke:#181818;stroke-width:0.5;" x1="812" x2="1097.1445" y1="307.5" y2="307.5"/></g><!--class comp_arc_sta__baselibs__filesystem--><g id="elem_comp_arc_sta__baselibs__filesystem"><rect fill="#F1F1F1" height="40" id="comp_arc_sta__baselibs__filesystem" rx="2.5" ry="2.5" style="stroke:#181818;stroke-width:0.5;" width="285.4492" x="379" y="275.5"/><ellipse cx="394" cy="291.5" fill="#ADD1B2" rx="11" ry="11" style="stroke:#181818;stroke-width:1;"/><path d="M396.9688,297.1406 Q396.3906,297.4375 395.75,297.5781 Q395.1094,297.7344 394.4063,297.7344 Q391.9063,297.7344 390.5781,296.0938 Q389.2656,294.4375 389.2656,291.3125 Q389.2656,288.1875 390.5781,286.5313 Q391.9063,284.875 394.4063,284.875 Q395.1094,284.875 395.75,285.0313 Q396.4063,285.1875 396.9688,285.4844 L396.9688,288.2031 Q396.3438,287.625 395.75,287.3594 Q395.1563,287.0781 394.5313,287.0781 Q393.1875,287.0781 392.5,288.1563 Q391.8125,289.2188 391.8125,291.3125 Q391.8125,293.4063 392.5,294.4844 Q393.1875,295.5469 394.5313,295.5469 Q395.1563,295.5469 395.75,295.2813 Q396.3438,295 396.9688,294.4219 L396.9688,297.1406 Z " fill="#000000"/><text fill="#000000" font-family="sans-serif" font-size="14" lengthAdjust="spacing" textLength="253.4492" x="408" y="296.3467">comp_arc_sta__baselibs__filesystem</text><line style="stroke:#181818;stroke-width:0.5;" x1="380" x2="663.4492" y1="307.5" y2="307.5"/></g><!--class logic_arc_int__baselibs__filesystem--><g id="elem_logic_arc_int__baselibs__filesystem"><rect fill="#F1F1F1" height="40" id="logic_arc_int__baselibs__filesystem" rx="2.5" ry="2.5" style="stroke:#181818;stroke-width:0.5;" width="276.4805" x="380.5" y="158.5"/><ellipse cx="395.5" cy="174.5" fill="#ADD1B2" rx="11" ry="11" style="stroke:#181818;stroke-width:1;"/><path d="M398.4688,180.1406 Q397.8906,180.4375 397.25,180.5781 Q396.6094,180.7344 395.9063,180.7344 Q393.4063,180.7344 392.0781,179.0938 Q390.7656,177.4375 390.7656,174.3125 Q390.7656,171.1875 392.0781,169.5313 Q393.4063,167.875 395.9063,167.875 Q396.6094,167.875 397.25,168.0313 Q397.9063,168.1875 398.4688,168.4844 L398.4688,171.2031 Q397.8438,170.625 397.25,170.3594 Q396.6563,170.0781 396.0313,170.0781 Q394.6875,170.0781 394,171.1563 Q393.3125,172.2188 393.3125,174.3125 Q393.3125,176.4063 394,177.4844 Q394.6875,178.5469 396.0313,178.5469 Q396.6563,178.5469 397.25,178.2813 Q397.8438,178 398.4688,177.4219 L398.4688,180.1406 Z " fill="#000000"/><text fill="#000000" font-family="sans-serif" font-size="14" lengthAdjust="spacing" textLength="244.4805" x="409.5" y="179.3467">logic_arc_int__baselibs__filesystem</text><line style="stroke:#181818;stroke-width:0.5;" x1="381.5" x2="655.9805" y1="190.5" y2="190.5"/></g><!--class logic_arc_int__baselibs__message_passing--><g id="elem_logic_arc_int__baselibs__message_passing"><rect fill="#F1F1F1" height="40" id="logic_arc_int__baselibs__message_passing" rx="2.5" ry="2.5" style="stroke:#181818;stroke-width:0.5;" width="328.167" x="15.5" y="158.5"/><ellipse cx="30.5" cy="174.5" fill="#ADD1B2" rx="11" ry="11" style="stroke:#181818;stroke-width:1;"/><path d="M33.4688,180.1406 Q32.8906,180.4375 32.25,180.5781 Q31.6094,180.7344 30.9063,180.7344 Q28.4063,180.7344 27.0781,179.0938 Q25.7656,177.4375 25.7656,174.3125 Q25.7656,171.1875 27.0781,169.5313 Q28.4063,167.875 30.9063,167.875 Q31.6094,167.875 32.25,168.0313 Q32.9063,168.1875 33.4688,168.4844 L33.4688,171.2031 Q32.8438,170.625 32.25,170.3594 Q31.6563,170.0781 31.0313,170.0781 Q29.6875,170.0781 29,171.1563 Q28.3125,172.2188 28.3125,174.3125 Q28.3125,176.4063 29,177.4844 Q29.6875,178.5469 31.0313,178.5469 Q31.6563,178.5469 32.25,178.2813 Q32.8438,178 33.4688,177.4219 L33.4688,180.1406 Z " fill="#000000"/><text fill="#000000" font-family="sans-serif" font-size="14" lengthAdjust="spacing" textLength="296.167" x="44.5" y="179.3467">logic_arc_int__baselibs__message_passing</text><line style="stroke:#181818;stroke-width:0.5;" x1="16.5" x2="342.667" y1="190.5" y2="190.5"/></g><!--class comp_arc_sta__baselibs__message_passing--><g id="elem_comp_arc_sta__baselibs__message_passing"><rect fill="#F1F1F1" height="40" id="comp_arc_sta__baselibs__message_passing" rx="2.5" ry="2.5" style="stroke:#181818;stroke-width:0.5;" width="337.1357" x="7" y="275.5"/><ellipse cx="22" cy="291.5" fill="#ADD1B2" rx="11" ry="11" style="stroke:#181818;stroke-width:1;"/><path d="M24.9688,297.1406 Q24.3906,297.4375 23.75,297.5781 Q23.1094,297.7344 22.4063,297.7344 Q19.9063,297.7344 18.5781,296.0938 Q17.2656,294.4375 17.2656,291.3125 Q17.2656,288.1875 18.5781,286.5313 Q19.9063,284.875 22.4063,284.875 Q23.1094,284.875 23.75,285.0313 Q24.4063,285.1875 24.9688,285.4844 L24.9688,288.2031 Q24.3438,287.625 23.75,287.3594 Q23.1563,287.0781 22.5313,287.0781 Q21.1875,287.0781 20.5,288.1563 Q19.8125,289.2188 19.8125,291.3125 Q19.8125,293.4063 20.5,294.4844 Q21.1875,295.5469 22.5313,295.5469 Q23.1563,295.5469 23.75,295.2813 Q24.3438,295 24.9688,294.4219 L24.9688,297.1406 Z " fill="#000000"/><text fill="#000000" font-family="sans-serif" font-size="14" lengthAdjust="spacing" textLength="305.1357" x="36" y="296.3467">comp_arc_sta__baselibs__message_passing</text><line style="stroke:#181818;stroke-width:0.5;" x1="8" x2="343.1357" y1="307.5" y2="307.5"/></g><!--reverse link logic_arc_int__baselibs__json to comp_arc_sta__baselibs__json--><g id="link_logic_arc_int__baselibs__json_comp_arc_sta__baselibs__json"><path codeLine="14" d="M6075.9346,204.7491 C6076.3046,225.9791 6076.79,253.94 6077.16,275.19 " fill="transparent" id="logic_arc_int__baselibs__json-backto-comp_arc_sta__baselibs__json" style="stroke:#181818;stroke-width:1;"/><polygon fill="#181818" points="6075.83,198.75,6071.9874,207.8183,6075.9171,203.7492,6079.9862,207.6789,6075.83,198.75" style="stroke:#181818;stroke-width:1;"/><text fill="#000000" font-family="sans-serif" font-size="13" lengthAdjust="spacing" textLength="76.9082" x="6077.5" y="241.5669">implements</text></g><!--link Feature_User to logic_arc_int__baselibs__executor--><g id="link_Feature_User_logic_arc_int__baselibs__executor"><path codeLine="15" d="M3026.44,62.02 C2962.23,86.99 2850.4521,130.4654 2784.1321,156.2554 " fill="transparent" id="Feature_User-to-logic_arc_int__baselibs__executor" style="stroke:#181818;stroke-width:1;"/><polygon fill="#181818" points="2778.54,158.43,2788.3778,158.8961,2783.2,156.6178,2785.4784,151.4401,2778.54,158.43" style="stroke:#181818;stroke-width:1;"/><text fill="#000000" font-family="sans-serif" font-size="13" lengthAdjust="spacing" textLength="23.0103" x="2891.5" y="124.5669">use</text></g><!--reverse link logic_arc_int__baselibs__bit_mask_operator to comp_arc_sta__baselibs__bit_manipulation--><g id="link_logic_arc_int__baselibs__bit_mask_operator_comp_arc_sta__baselibs__bit_manipulation"><path codeLine="16" d="M4120.6865,201.9799 C4154.0165,223.2699 4202.33,254.14 4235.57,275.38 " fill="transparent" id="logic_arc_int__baselibs__bit_mask_operator-backto-comp_arc_sta__baselibs__bit_manipulation" style="stroke:#181818;stroke-width:1;"/><polygon fill="#181818" points="4115.63,198.75,4121.0614,206.9658,4119.8437,201.4416,4125.368,200.2239,4115.63,198.75" style="stroke:#181818;stroke-width:1;"/><text fill="#000000" font-family="sans-serif" font-size="13" lengthAdjust="spacing" textLength="76.9082" x="4187.5" y="241.5669">implements</text></g><!--reverse link logic_arc_int__baselibs__shared_future to comp_arc_sta__baselibs__concurrency--><g id="link_logic_arc_int__baselibs__shared_future_comp_arc_sta__baselibs__concurrency"><path codeLine="18" d="M1937.6966,199.4358 C2021.2266,212.6258 2129.17,229.68 2229.5,245.5 C2292.27,255.4 2362.16,266.41 2419.76,275.49 " fill="transparent" id="logic_arc_int__baselibs__shared_future-backto-comp_arc_sta__baselibs__concurrency" style="stroke:#181818;stroke-width:1;"/><polygon fill="#181818" points="1931.77,198.5,1940.036,203.8548,1936.7088,199.2799,1941.2837,195.9527,1931.77,198.5" style="stroke:#181818;stroke-width:1;"/><text fill="#000000" font-family="sans-serif" font-size="13" lengthAdjust="spacing" textLength="76.9082" x="2230.5" y="241.5669">implements</text></g><!--link Feature_User to logic_arc_int__baselibs__future--><g id="link_Feature_User_logic_arc_int__baselibs__future"><path codeLine="19" d="M3026.41,53.96 C2922.8,75.69 2671.9522,128.3182 2534.1822,157.2182 " fill="transparent" id="Feature_User-to-logic_arc_int__baselibs__future" style="stroke:#181818;stroke-width:1;"/><polygon fill="#181818" points="2528.31,158.45,2537.9395,160.5171,2533.2035,157.4235,2536.2971,152.6875,2528.31,158.45" style="stroke:#181818;stroke-width:1;"/><text fill="#000000" font-family="sans-serif" font-size="13" lengthAdjust="spacing" textLength="23.0103" x="2736.5" y="124.5669">use</text></g><!--link Feature_User to logic_arc_int__baselibs__task_result--><g id="link_Feature_User_logic_arc_int__baselibs__task_result"><path codeLine="20" d="M3026.5,50.91 C2891.27,70.19 2490.71,127.2933 2277.8,157.6433 " fill="transparent" id="Feature_User-to-logic_arc_int__baselibs__task_result" style="stroke:#181818;stroke-width:1;"/><polygon fill="#181818" points="2271.86,158.49,2281.3344,161.1799,2276.81,157.7844,2280.2054,153.2599,2271.86,158.49" style="stroke:#181818;stroke-width:1;"/><text fill="#000000" font-family="sans-serif" font-size="13" lengthAdjust="spacing" textLength="23.0103" x="2578.5" y="124.5669">use</text></g><!--reverse link logic_arc_int__baselibs__memory_shared to comp_arc_sta__baselibs__memory_shared--><g id="link_logic_arc_int__baselibs__memory_shared_comp_arc_sta__baselibs__memory_shared"><path codeLine="21" d="M5760.8418,204.7479 C5760.2818,225.9779 5759.56,253.94 5759,275.19 " fill="transparent" id="logic_arc_int__baselibs__memory_shared-backto-comp_arc_sta__baselibs__memory_shared" style="stroke:#181818;stroke-width:1;"/><polygon fill="#181818" points="5761,198.75,5756.7641,207.6414,5760.8682,203.7483,5764.7613,207.8523,5761,198.75" style="stroke:#181818;stroke-width:1;"/><text fill="#000000" font-family="sans-serif" font-size="13" lengthAdjust="spacing" textLength="76.9082" x="5761.5" y="241.5669">implements</text></g><!--link Feature_User to logic_arc_int__baselibs__task--><g id="link_Feature_User_logic_arc_int__baselibs__task"><path codeLine="22" d="M3116.83,62.99 C3178.5,88.15 3282.7344,130.684 3345.1544,156.144 " fill="transparent" id="Feature_User-to-logic_arc_int__baselibs__task" style="stroke:#181818;stroke-width:1;"/><polygon fill="#181818" points="3350.71,158.41,3343.8872,151.3072,3346.0803,156.5216,3340.8659,158.7147,3350.71,158.41" style="stroke:#181818;stroke-width:1;"/><text fill="#000000" font-family="sans-serif" font-size="13" lengthAdjust="spacing" textLength="23.0103" x="3274.5" y="124.5669">use</text></g><!--link Feature_User to logic_arc_int__baselibs__dynamic_array--><g id="link_Feature_User_logic_arc_int__baselibs__dynamic_array"><path codeLine="23" d="M3026.44,46.49 C2828.11,55.46 2013.11,94.5 1346.5,158.5 C1340.67,159.06 1340.6992,159.0331 1334.6992,159.6431 " fill="transparent" id="Feature_User-to-logic_arc_int__baselibs__dynamic_array" style="stroke:#181818;stroke-width:1;"/><polygon fill="#181818" points="1328.73,160.25,1338.0884,163.3192,1333.7044,159.7443,1337.2793,155.3602,1328.73,160.25" style="stroke:#181818;stroke-width:1;"/><text fill="#000000" font-family="sans-serif" font-size="13" lengthAdjust="spacing" textLength="23.0103" x="1868.5" y="124.5669">use</text></g><!--link Feature_User to logic_arc_int__baselibs__synchronized_queue--><g id="link_Feature_User_logic_arc_int__baselibs__synchronized_queue"><path codeLine="24" d="M3071.5,81.55 C3071.5,106.45 3071.5,132.26 3071.5,152.26 " fill="transparent" id="Feature_User-to-logic_arc_int__baselibs__synchronized_queue" style="stroke:#181818;stroke-width:1;"/><polygon fill="#181818" points="3071.5,158.26,3075.5,149.26,3071.5,153.26,3067.5,149.26,3071.5,158.26" style="stroke:#181818;stroke-width:1;"/><text fill="#000000" font-family="sans-serif" font-size="13" lengthAdjust="spacing" textLength="23.0103" x="3072.5" y="124.5669">use</text></g><!--reverse link logic_arc_int__baselibs__utils_base64 to comp_arc_sta__baselibs__utils--><g id="link_logic_arc_int__baselibs__utils_base64_comp_arc_sta__baselibs__utils"><path codeLine="25" d="M5103.7506,202.1252 C5135.0406,223.4152 5180.19,254.14 5211.4,275.38 " fill="transparent" id="logic_arc_int__baselibs__utils_base64-backto-comp_arc_sta__baselibs__utils" style="stroke:#181818;stroke-width:1;"/><polygon fill="#181818" points="5098.79,198.75,5103.9808,207.1199,5102.9238,201.5627,5108.4811,200.5058,5098.79,198.75" style="stroke:#181818;stroke-width:1;"/><text fill="#000000" font-family="sans-serif" font-size="13" lengthAdjust="spacing" textLength="76.9082" x="5166.5" y="241.5669">implements</text></g><!--link Feature_User to logic_arc_int__baselibs__utils_scoped_op--><g id="link_Feature_User_logic_arc_int__baselibs__utils_scoped_op"><path codeLine="26" d="M3116.54,46.01 C3299.87,52.28 4007.83,77.45 4589.5,111.5 C4875.99,128.27 4947.68,132.65 5233.5,158.5 C5239.47,159.04 5239.5775,159.0361 5245.7175,159.6261 " fill="transparent" id="Feature_User-to-logic_arc_int__baselibs__utils_scoped_op" style="stroke:#181818;stroke-width:1;"/><polygon fill="#181818" points="5251.69,160.2,5243.1139,155.3575,5246.7129,159.7217,5242.3487,163.3208,5251.69,160.2" style="stroke:#181818;stroke-width:1;"/><text fill="#000000" font-family="sans-serif" font-size="13" lengthAdjust="spacing" textLength="23.0103" x="4859.5" y="124.5669">use</text></g><!--reverse link logic_arc_int__baselibs__task to comp_arc_sta__baselibs__concurrency--><g id="link_logic_arc_int__baselibs__task_comp_arc_sta__baselibs__concurrency"><path codeLine="27" d="M3274.488,196.8221 C3268.418,197.6721 3268.36,197.68 3262.5,198.5 C3112.3,219.51 3074.84,225.46 2924.5,245.5 C2847.39,255.78 2761.51,266.78 2690.55,275.75 " fill="transparent" id="logic_arc_int__baselibs__task-backto-comp_arc_sta__baselibs__concurrency" style="stroke:#181818;stroke-width:1;"/><polygon fill="#181818" points="3280.43,195.99,3270.9622,193.2768,3275.4783,196.6834,3272.0717,201.1995,3280.43,195.99" style="stroke:#181818;stroke-width:1;"/><text fill="#000000" font-family="sans-serif" font-size="13" lengthAdjust="spacing" textLength="76.9082" x="3049.5" y="241.5669">implements</text></g><!--reverse link logic_arc_int__baselibs__synchronized_queue to comp_arc_sta__baselibs__concurrency--><g id="link_logic_arc_int__baselibs__synchronized_queue_comp_arc_sta__baselibs__concurrency"><path codeLine="28" d="M2977.656,199.82 C2879.356,221.11 2727.02,254.11 2628.65,275.41 " fill="transparent" id="logic_arc_int__baselibs__synchronized_queue-backto-comp_arc_sta__baselibs__concurrency" style="stroke:#181818;stroke-width:1;"/><polygon fill="#181818" points="2983.52,198.55,2973.8772,196.5457,2978.6333,199.6084,2975.5706,204.3644,2983.52,198.55" style="stroke:#181818;stroke-width:1;"/><text fill="#000000" font-family="sans-serif" font-size="13" lengthAdjust="spacing" textLength="76.9082" x="2839.5" y="241.5669">implements</text></g><!--reverse link logic_arc_int__baselibs__result to comp_arc_sta__baselibs__result--><g id="link_logic_arc_int__baselibs__result_comp_arc_sta__baselibs__result"><path codeLine="29" d="M4767.5,204.75 C4767.5,225.98 4767.5,253.94 4767.5,275.19 " fill="transparent" id="logic_arc_int__baselibs__result-backto-comp_arc_sta__baselibs__result" style="stroke:#181818;stroke-width:1;"/><polygon fill="#181818" points="4767.5,198.75,4763.5,207.75,4767.5,203.75,4771.5,207.75,4767.5,198.75" style="stroke:#181818;stroke-width:1;"/><text fill="#000000" font-family="sans-serif" font-size="13" lengthAdjust="spacing" textLength="76.9082" x="4768.5" y="241.5669">implements</text></g><!--link Feature_User to logic_arc_int__baselibs__bit_mask_operator--><g id="link_Feature_User_logic_arc_int__baselibs__bit_mask_operator"><path codeLine="30" d="M3116.71,50.43 C3259.77,69.19 3700.961,127.0597 3934.401,157.6797 " fill="transparent" id="Feature_User-to-logic_arc_int__baselibs__bit_mask_operator" style="stroke:#181818;stroke-width:1;"/><polygon fill="#181818" points="3940.35,158.46,3931.9467,153.3235,3935.3925,157.8097,3930.9062,161.2555,3940.35,158.46" style="stroke:#181818;stroke-width:1;"/><text fill="#000000" font-family="sans-serif" font-size="13" lengthAdjust="spacing" textLength="23.0103" x="3700.5" y="124.5669">use</text></g><!--reverse link logic_arc_int__baselibs__future to comp_arc_sta__baselibs__concurrency--><g id="link_logic_arc_int__baselibs__future_comp_arc_sta__baselibs__concurrency"><path codeLine="31" d="M2458.7425,203.2199 C2477.7525,224.4499 2504.17,253.94 2523.2,275.19 " fill="transparent" id="logic_arc_int__baselibs__future-backto-comp_arc_sta__baselibs__concurrency" style="stroke:#181818;stroke-width:1;"/><polygon fill="#181818" points="2454.74,198.75,2457.7638,208.1232,2458.0754,202.4749,2463.7237,202.7865,2454.74,198.75" style="stroke:#181818;stroke-width:1;"/><text fill="#000000" font-family="sans-serif" font-size="13" lengthAdjust="spacing" textLength="76.9082" x="2496.5" y="241.5669">implements</text></g><!--link Feature_User to logic_arc_int__baselibs__bit_manipulation--><g id="link_Feature_User_logic_arc_int__baselibs__bit_manipulation"><path codeLine="32" d="M3116.7,48.62 C3275.22,63.1 3820.6,113.24 4270.5,158.5 C4276.25,159.08 4276.1417,159.054 4282.0517,159.664 " fill="transparent" id="Feature_User-to-logic_arc_int__baselibs__bit_manipulation" style="stroke:#181818;stroke-width:1;"/><polygon fill="#181818" points="4288.02,160.28,4279.4782,155.3771,4283.0464,159.7667,4278.6569,163.3348,4288.02,160.28" style="stroke:#181818;stroke-width:1;"/><text fill="#000000" font-family="sans-serif" font-size="13" lengthAdjust="spacing" textLength="23.0103" x="3942.5" y="124.5669">use</text></g><!--link Feature_User to logic_arc_int__baselibs__utils_base64--><g id="link_Feature_User_logic_arc_int__baselibs__utils_base64"><path codeLine="33" d="M3116.65,46.12 C3322.71,53.75 4194.52,88.73 4906.5,158.5 C4912.35,159.07 4912.3416,159.0653 4918.3616,159.6853 " fill="transparent" id="Feature_User-to-logic_arc_int__baselibs__utils_base64" style="stroke:#181818;stroke-width:1;"/><polygon fill="#181818" points="4924.33,160.3,4915.7871,155.399,4919.3563,159.7878,4914.9676,163.3569,4924.33,160.3" style="stroke:#181818;stroke-width:1;"/><text fill="#000000" font-family="sans-serif" font-size="13" lengthAdjust="spacing" textLength="23.0103" x="4557.5" y="124.5669">use</text></g><!--reverse link logic_arc_int__baselibs__utils_scoped_op to comp_arc_sta__baselibs__utils--><g id="link_logic_arc_int__baselibs__utils_scoped_op_comp_arc_sta__baselibs__utils"><path codeLine="34" d="M5376.0799,202.1113 C5344.5999,223.4013 5299.16,254.14 5267.76,275.38 " fill="transparent" id="logic_arc_int__baselibs__utils_scoped_op-backto-comp_arc_sta__baselibs__utils" style="stroke:#181818;stroke-width:1;"/><polygon fill="#181818" points="5381.05,198.75,5371.354,200.4785,5376.9083,201.5511,5375.8357,207.1053,5381.05,198.75" style="stroke:#181818;stroke-width:1;"/><text fill="#000000" font-family="sans-serif" font-size="13" lengthAdjust="spacing" textLength="76.9082" x="5336.5" y="241.5669">implements</text></g><!--reverse link logic_arc_int__baselibs__promise to comp_arc_sta__baselibs__concurrency--><g id="link_logic_arc_int__baselibs__promise_comp_arc_sta__baselibs__concurrency"><path codeLine="35" d="M1631.1837,197.1042 C1637.0237,197.8342 1636.84,197.8 1642.5,198.5 C1819.28,220.28 1863.41,226.37 2040.5,245.5 C2157.89,258.18 2290.95,271.15 2390.27,280.56 " fill="transparent" id="logic_arc_int__baselibs__promise-backto-comp_arc_sta__baselibs__concurrency" style="stroke:#181818;stroke-width:1;"/><polygon fill="#181818" points="1625.23,196.36,1633.6644,201.4454,1630.1914,196.9802,1634.6566,193.5072,1625.23,196.36" style="stroke:#181818;stroke-width:1;"/><text fill="#000000" font-family="sans-serif" font-size="13" lengthAdjust="spacing" textLength="76.9082" x="2041.5" y="241.5669">implements</text></g><!--link Feature_User to logic_arc_int__baselibs__intrusive_list--><g id="link_Feature_User_logic_arc_int__baselibs__intrusive_list"><path codeLine="36" d="M3026.27,45.76 C2804.74,52.2 1812.11,84.03 1002.5,158.5 C996.79,159.03 996.9399,158.98 991.0699,159.57 " fill="transparent" id="Feature_User-to-logic_arc_int__baselibs__intrusive_list" style="stroke:#181818;stroke-width:1;"/><polygon fill="#181818" points="985.1,160.17,994.4549,163.2499,990.0749,159.67,993.6549,155.29,985.1,160.17" style="stroke:#181818;stroke-width:1;"/><text fill="#000000" font-family="sans-serif" font-size="13" lengthAdjust="spacing" textLength="23.0103" x="1571.5" y="124.5669">use</text></g><!--link Feature_User to logic_arc_int__baselibs__shared_future--><g id="link_Feature_User_logic_arc_int__baselibs__shared_future"><path codeLine="37" d="M3026.28,49.1 C2876.97,64.3 2386.14,114.51 1980.5,158.5 C1974.63,159.14 1974.6045,159.1383 1968.5645,159.7983 " fill="transparent" id="Feature_User-to-logic_arc_int__baselibs__shared_future" style="stroke:#181818;stroke-width:1;"/><polygon fill="#181818" points="1962.6,160.45,1971.9812,163.4487,1967.5704,159.9069,1971.1122,155.496,1962.6,160.45" style="stroke:#181818;stroke-width:1;"/><text fill="#000000" font-family="sans-serif" font-size="13" lengthAdjust="spacing" textLength="23.0103" x="2401.5" y="124.5669">use</text></g><!--link Feature_User to logic_arc_int__baselibs__condition_variable--><g id="link_Feature_User_logic_arc_int__baselibs__condition_variable"><path codeLine="38" d="M3116.6,53.8 C3221.5,75.43 3477.7336,128.2683 3618.2336,157.2383 " fill="transparent" id="Feature_User-to-logic_arc_int__baselibs__condition_variable" style="stroke:#181818;stroke-width:1;"/><polygon fill="#181818" points="3624.11,158.45,3616.1032,152.7149,3619.213,157.4403,3614.4877,160.5501,3624.11,158.45" style="stroke:#181818;stroke-width:1;"/><text fill="#000000" font-family="sans-serif" font-size="13" lengthAdjust="spacing" textLength="23.0103" x="3472.5" y="124.5669">use</text></g><!--reverse link logic_arc_int__baselibs__intrusive_list to comp_arc_sta__baselibs__containers--><g id="link_logic_arc_int__baselibs__intrusive_list_comp_arc_sta__baselibs__containers"><path codeLine="39" d="M862.1805,202.9747 C883.5905,224.2047 913.58,253.94 935.02,275.19 " fill="transparent" id="logic_arc_int__baselibs__intrusive_list-backto-comp_arc_sta__baselibs__containers" style="stroke:#181818;stroke-width:1;"/><polygon fill="#181818" points="857.92,198.75,861.4943,207.9274,861.4704,202.2706,867.1272,202.2467,857.92,198.75" style="stroke:#181818;stroke-width:1;"/><text fill="#000000" font-family="sans-serif" font-size="13" lengthAdjust="spacing" textLength="76.9082" x="904.5" y="241.5669">implements</text></g><!--reverse link logic_arc_int__baselibs__dynamic_array to comp_arc_sta__baselibs__containers--><g id="link_logic_arc_int__baselibs__dynamic_array_comp_arc_sta__baselibs__containers"><path codeLine="40" d="M1132.3623,201.5289 C1091.6223,222.8189 1031.71,254.14 991.08,275.38 " fill="transparent" id="logic_arc_int__baselibs__dynamic_array-backto-comp_arc_sta__baselibs__containers" style="stroke:#181818;stroke-width:1;"/><polygon fill="#181818" points="1137.68,198.75,1127.8509,199.3733,1133.2486,201.0658,1131.5561,206.4635,1137.68,198.75" style="stroke:#181818;stroke-width:1;"/><text fill="#000000" font-family="sans-serif" font-size="13" lengthAdjust="spacing" textLength="76.9082" x="1079.5" y="241.5669">implements</text></g><!--link Feature_User to logic_arc_int__baselibs__promise--><g id="link_Feature_User_logic_arc_int__baselibs__promise"><path codeLine="41" d="M3026.38,47.31 C2849.51,58.48 2186.48,101.92 1642.5,158.5 C1636.83,159.09 1637.0032,159.0563 1631.1632,159.7063 " fill="transparent" id="Feature_User-to-logic_arc_int__baselibs__promise" style="stroke:#181818;stroke-width:1;"/><polygon fill="#181818" points="1625.2,160.37,1634.5872,163.3499,1630.1693,159.8169,1633.7023,155.399,1625.2,160.37" style="stroke:#181818;stroke-width:1;"/><text fill="#000000" font-family="sans-serif" font-size="13" lengthAdjust="spacing" textLength="23.0103" x="2114.5" y="124.5669">use</text></g><!--reverse link logic_arc_int__baselibs__bit_manipulation to comp_arc_sta__baselibs__bit_manipulation--><g id="link_logic_arc_int__baselibs__bit_manipulation_comp_arc_sta__baselibs__bit_manipulation"><path codeLine="42" d="M4413.6118,201.9296 C4379.5418,223.2196 4330.08,254.14 4296.09,275.38 " fill="transparent" id="logic_arc_int__baselibs__bit_manipulation-backto-comp_arc_sta__baselibs__bit_manipulation" style="stroke:#181818;stroke-width:1;"/><polygon fill="#181818" points="4418.7,198.75,4408.9479,200.1272,4414.4598,201.3997,4413.1874,206.9115,4418.7,198.75" style="stroke:#181818;stroke-width:1;"/><text fill="#000000" font-family="sans-serif" font-size="13" lengthAdjust="spacing" textLength="76.9082" x="4370.5" y="241.5669">implements</text></g><!--reverse link logic_arc_int__baselibs__executor to comp_arc_sta__baselibs__concurrency--><g id="link_logic_arc_int__baselibs__executor_comp_arc_sta__baselibs__concurrency"><path codeLine="43" d="M2692.7439,201.8681 C2657.7439,223.1581 2606.83,254.14 2571.92,275.38 " fill="transparent" id="logic_arc_int__baselibs__executor-backto-comp_arc_sta__baselibs__concurrency" style="stroke:#181818;stroke-width:1;"/><polygon fill="#181818" points="2697.87,198.75,2688.102,200.0098,2693.5982,201.3485,2692.2596,206.8446,2697.87,198.75" style="stroke:#181818;stroke-width:1;"/><text fill="#000000" font-family="sans-serif" font-size="13" lengthAdjust="spacing" textLength="76.9082" x="2647.5" y="241.5669">implements</text></g><!--link Feature_User to logic_arc_int__baselibs__json--><g id="link_Feature_User_logic_arc_int__baselibs__json"><path codeLine="44" d="M3116.62,45.32 C3343.11,49.56 4378.6,70.39 5225.5,111.5 C5542.26,126.88 5621.99,126.41 5937.5,158.5 C5944.48,159.21 5945.681,159.2994 5952.911,160.1494 " fill="transparent" id="Feature_User-to-logic_arc_int__baselibs__json" style="stroke:#181818;stroke-width:1;"/><polygon fill="#181818" points="5958.87,160.85,5950.3986,155.8265,5953.9042,160.2662,5949.4645,163.7718,5958.87,160.85" style="stroke:#181818;stroke-width:1;"/><text fill="#000000" font-family="sans-serif" font-size="13" lengthAdjust="spacing" textLength="23.0103" x="5571.5" y="124.5669">use</text></g><!--reverse link logic_arc_int__baselibs__task_result to comp_arc_sta__baselibs__concurrency--><g id="link_logic_arc_int__baselibs__task_result_comp_arc_sta__baselibs__concurrency"><path codeLine="45" d="M2211.0986,200.2702 C2285.5586,221.5702 2399.45,254.15 2473.84,275.43 " fill="transparent" id="logic_arc_int__baselibs__task_result-backto-comp_arc_sta__baselibs__concurrency" style="stroke:#181818;stroke-width:1;"/><polygon fill="#181818" points="2205.33,198.62,2212.8828,204.941,2210.1372,199.9951,2215.083,197.2495,2205.33,198.62" style="stroke:#181818;stroke-width:1;"/><text fill="#000000" font-family="sans-serif" font-size="13" lengthAdjust="spacing" textLength="76.9082" x="2365.5" y="241.5669">implements</text></g><!--reverse link logic_arc_int__baselibs__condition_variable to comp_arc_sta__baselibs__concurrency--><g id="link_logic_arc_int__baselibs__condition_variable_comp_arc_sta__baselibs__concurrency"><path codeLine="46" d="M3554.4421,199.2292 C3437.3321,213.1692 3278.97,231.35 3134.5,245.5 C2983.63,260.27 2810.91,274.19 2690.75,283.38 " fill="transparent" id="logic_arc_int__baselibs__condition_variable-backto-comp_arc_sta__baselibs__concurrency" style="stroke:#181818;stroke-width:1;"/><polygon fill="#181818" points="3560.4,198.52,3550.9903,195.6118,3555.4351,199.111,3551.9359,203.5558,3560.4,198.52" style="stroke:#181818;stroke-width:1;"/><text fill="#000000" font-family="sans-serif" font-size="13" lengthAdjust="spacing" textLength="76.9082" x="3296.5" y="241.5669">implements</text></g><!--reverse link logic_arc_int__baselibs__filesystem to comp_arc_sta__baselibs__filesystem--><g id="link_logic_arc_int__baselibs__filesystem_comp_arc_sta__baselibs__filesystem"><path codeLine="47" d="M519.1582,204.7479 C519.7182,225.9779 520.44,253.94 521,275.19 " fill="transparent" id="logic_arc_int__baselibs__filesystem-backto-comp_arc_sta__baselibs__filesystem" style="stroke:#181818;stroke-width:1;"/><polygon fill="#181818" points="519,198.75,515.2387,207.8523,519.1318,203.7483,523.2359,207.6414,519,198.75" style="stroke:#181818;stroke-width:1;"/><text fill="#000000" font-family="sans-serif" font-size="13" lengthAdjust="spacing" textLength="76.9082" x="521.5" y="241.5669">implements</text></g><!--link Feature_User to logic_arc_int__baselibs__result--><g id="link_Feature_User_logic_arc_int__baselibs__result"><path codeLine="48" d="M3116.78,46.79 C3303.44,56.46 4031.45,96.28 4627.5,158.5 C4633.35,159.11 4633.3809,159.0707 4639.4309,159.7807 " fill="transparent" id="Feature_User-to-logic_arc_int__baselibs__result" style="stroke:#181818;stroke-width:1;"/><polygon fill="#181818" points="4645.39,160.48,4636.9176,155.4583,4640.4241,159.8972,4635.9851,163.4037,4645.39,160.48" style="stroke:#181818;stroke-width:1;"/><text fill="#000000" font-family="sans-serif" font-size="13" lengthAdjust="spacing" textLength="23.0103" x="4288.5" y="124.5669">use</text></g><!--link Feature_User to logic_arc_int__baselibs__message_passing--><g id="link_Feature_User_logic_arc_int__baselibs__message_passing"><path codeLine="49" d="M3026.39,45.33 C2806.46,49.51 1824.74,69.75 1021.5,111.5 C728.26,126.74 655.01,132.89 362.5,158.5 C356.3,159.04 355.9445,159.0575 349.5645,159.6475 " fill="transparent" id="Feature_User-to-logic_arc_int__baselibs__message_passing" style="stroke:#181818;stroke-width:1;"/><polygon fill="#181818" points="343.59,160.2,352.9201,163.3543,348.5688,159.7396,352.1834,155.3882,343.59,160.2" style="stroke:#181818;stroke-width:1;"/><text fill="#000000" font-family="sans-serif" font-size="13" lengthAdjust="spacing" textLength="23.0103" x="1022.5" y="124.5669">use</text></g><!--link Feature_User to logic_arc_int__baselibs__filesystem--><g id="link_Feature_User_logic_arc_int__baselibs__filesystem"><path codeLine="50" d="M3026.34,45.8 C2829.29,51.56 2025.17,76.12 1365.5,111.5 C1058.12,127.99 980.95,129.44 674.5,158.5 C668.66,159.05 668.6684,159.0353 662.6484,159.6553 " fill="transparent" id="Feature_User-to-logic_arc_int__baselibs__filesystem" style="stroke:#181818;stroke-width:1;"/><polygon fill="#181818" points="656.68,160.27,666.0424,163.3269,661.6537,159.7578,665.2229,155.369,656.68,160.27" style="stroke:#181818;stroke-width:1;"/><text fill="#000000" font-family="sans-serif" font-size="13" lengthAdjust="spacing" textLength="23.0103" x="1366.5" y="124.5669">use</text></g><!--link Feature_User to logic_arc_int__baselibs__memory_shared--><g id="link_Feature_User_logic_arc_int__baselibs__memory_shared"><path codeLine="51" d="M3116.55,45.64 C3321.24,50.95 4184.21,74.51 4891.5,111.5 C5199.79,127.62 5276.97,131.58 5584.5,158.5 C5590.35,159.01 5590.3368,158.9835 5596.3468,159.5535 " fill="transparent" id="Feature_User-to-logic_arc_int__baselibs__memory_shared" style="stroke:#181818;stroke-width:1;"/><polygon fill="#181818" points="5602.32,160.12,5593.7379,155.2881,5597.3423,159.6479,5592.9825,163.2524,5602.32,160.12" style="stroke:#181818;stroke-width:1;"/><text fill="#000000" font-family="sans-serif" font-size="13" lengthAdjust="spacing" textLength="23.0103" x="5193.5" y="124.5669">use</text></g><!--reverse link logic_arc_int__baselibs__message_passing to comp_arc_sta__baselibs__message_passing--><g id="link_logic_arc_int__baselibs__message_passing_comp_arc_sta__baselibs__message_passing"><path codeLine="52" d="M178.621,204.7464 C177.881,225.9764 176.91,253.94 176.17,275.19 " fill="transparent" id="logic_arc_int__baselibs__message_passing-backto-comp_arc_sta__baselibs__message_passing" style="stroke:#181818;stroke-width:1;"/><polygon fill="#181818" points="178.83,198.75,174.5189,207.6052,178.6558,203.747,182.5141,207.8839,178.83,198.75" style="stroke:#181818;stroke-width:1;"/><text fill="#000000" font-family="sans-serif" font-size="13" lengthAdjust="spacing" textLength="76.9082" x="179.5" y="241.5669">implements</text></g><!--SRC=[hLOzRzmm3DtrAuJibnP5qI48iXJebB6P1LbcxjZemn6fD6xH_rxPlgJsuLBPZaV99FNUqnDDRMtugHm-ezyB3eta8Al079oiCO9X35uSi0P93142jmqCQt0Djr8pHwmI0ubhujR2ZRZKXBQIlyKjUlWQR8WoGjsllX_GF7WWafykFue_ulh3CKTempdkuXjeJX7a7K6ya9haSKDr6rAOu1gber74MgbA4rYiIAaV5BpSfTsDj66FfWz1pwSXLn9TOy61Pv9YKdfN_oyPdi6a3F1A9eAtOLJ8occFJRAw4wu0QGYd1nKQYBelFyRtvZ4cU9DY16_QmWbqq5bwTPyweglPlwJtt1VaSSSj0YNB1U4Sk13R8zm2fqdiQauTjkMCwjPhrt-AkbsUJgqtXnWy_igNyfWWGK6Nn6Yfe4SVqw-_V5ujnr24J7PYdUrOW3NVW8FCOr0RcFgCYdDE69nOAFvYrvKwdddI6odvpZTysfgMctVgiuriEtBSjYPfOd18w_NAovW8dq1P95xnrAUTTsbw9bfZTq_gIKVKbOMoaLZdFsmiwNvARARiyugVzCULsh_UtVO_s_43sDPm_qQ4bQo70MN3ldksbxs_z3bhpZdX7YrGcwT8L-fqhu6hjPmC7GloN1vDzHvKeudoGBoym1ZxyiCdWqrXO9e0BOvC9xJ6ilu5]--></g></svg>