<svg xmlns="http://www.w3.org/2000/svg" xmlns:xlink="http://www.w3.org/1999/xlink" contentStyleType="text/css" data-diagram-type="CLASS" height="322px" preserveAspectRatio="none" style="width:6195px;height:322px;background:#FFFFFF;" version="1.1" viewBox="0 0 6195 322" width="6195px" zoomAndPan="magnify"><defs/><g><!--entity Feature_User--><g id="elem_Feature_User"><ellipse cx="3056.1685" cy="14" fill="#F1F1F1" rx="8" ry="8" style="stroke:#181818;stroke-width:0.5;"/><path d="M3056.1685,22 L3056.1685,49 M3043.1685,30 L3069.1685,30 M3056.1685,49 L3043.1685,64 M3056.1685,49 L3069.1685,64 " fill="transparent" style="stroke:#181818;stroke-width:0.5;"/><text fill="#000000" font-family="sans-serif" font-size="14" lengthAdjust="spacing" textLength="90.3369" x="3011" y="78.4951">Feature User</text></g><!--class logic_arc_int__baselibs__memory_shared--><g id="elem_logic_arc_int__baselibs__memory_shared"><rect fill="#F1F1F1" height="40" id="logic_arc_int__baselibs__memory_shared" rx="2.5" ry="2.5" style="stroke:#181818;stroke-width:0.5;" width="318.043" x="5866" y="158.5"/><ellipse cx="5881" cy="174.5" fill="#ADD1B2" rx="11" ry="11" style="stroke:#181818;stroke-width:1;"/><path d="M5883.9688,180.1406 Q5883.3906,180.4375 5882.75,180.5781 Q5882.1094,180.7344 5881.4063,180.7344 Q5878.9063,180.7344 5877.5781,179.0938 Q5876.2656,177.4375 5876.2656,174.3125 Q5876.2656,171.1875 5877.5781,169.5313 Q5878.9063,167.875 5881.4063,167.875 Q5882.1094,167.875 5882.75,168.0313 Q5883.4063,168.1875 5883.9688,168.4844 L5883.9688,171.2031 Q5883.3438,170.625 5882.75,170.3594 Q5882.1563,170.0781 5881.5313,170.0781 Q5880.1875,170.0781 5879.5,171.1563 Q5878.8125,172.2188 5878.8125,174.3125 Q5878.8125,176.4063 5879.5,177.4844 Q5880.1875,178.5469 5881.5313,178.5469 Q5882.1563,178.5469 5882.75,178.2813 Q5883.3438,178 5883.9688,177.4219 L5883.9688,180.1406 Z " fill="#000000"/><text fill="#000000" font-family="sans-serif" font-size="14" lengthAdjust="spacing" textLength="286.043" x="5895" y="179.3467">logic_arc_int__baselibs__memory_shared</text><line style="stroke:#181818;stroke-width:0.5;" x1="5867" x2="6183.043" y1="190.5" y2="190.5"/></g><!--class logic_arc_int__baselibs__condition_variable--><g id="elem_logic_arc_int__baselibs__condition_variable"><rect fill="#F1F1F1" height="40" id="logic_arc_int__baselibs__condition_variable" rx="2.5" ry="2.5" style="stroke:#181818;stroke-width:0.5;" width="332.7539" x="2171.5" y="158.5"/><ellipse cx="2186.5" cy="174.5" fill="#ADD1B2" rx="11" ry="11" style="stroke:#181818;stroke-width:1;"/><path d="M2189.4688,180.1406 Q2188.8906,180.4375 2188.25,180.5781 Q2187.6094,180.7344 2186.9063,180.7344 Q2184.4063,180.7344 2183.0781,179.0938 Q2181.7656,177.4375 2181.7656,174.3125 Q2181.7656,171.1875 2183.0781,169.5313 Q2184.4063,167.875 2186.9063,167.875 Q2187.6094,167.875 2188.25,168.0313 Q2188.9063,168.1875 2189.4688,168.4844 L2189.4688,171.2031 Q2188.8438,170.625 2188.25,170.3594 Q2187.6563,170.0781 2187.0313,170.0781 Q2185.6875,170.0781 2185,171.1563 Q2184.3125,172.2188 2184.3125,174.3125 Q2184.3125,176.4063 2185,177.4844 Q2185.6875,178.5469 2187.0313,178.5469 Q2187.6563,178.5469 2188.25,178.2813 Q2188.8438,178 2189.4688,177.4219 L2189.4688,180.1406 Z " fill="#000000"/><text fill="#000000" font-family="sans-serif" font-size="14" lengthAdjust="spacing" textLength="300.7539" x="2200.5" y="179.3467">logic_arc_int__baselibs__condition_variable</text><line style="stroke:#181818;stroke-width:0.5;" x1="2172.5" x2="2503.2539" y1="190.5" y2="190.5"/></g><!--class logic_arc_int__baselibs__bit_mask_operator--><g id="elem_logic_arc_int__baselibs__bit_mask_operator"><rect fill="#F1F1F1" height="40" id="logic_arc_int__baselibs__bit_mask_operator" rx="2.5" ry="2.5" style="stroke:#181818;stroke-width:0.5;" width="334.6406" x="3864.5" y="158.5"/><ellipse cx="3879.5" cy="174.5" fill="#ADD1B2" rx="11" ry="11" style="stroke:#181818;stroke-width:1;"/><path d="M3882.4688,180.1406 Q3881.8906,180.4375 3881.25,180.5781 Q3880.6094,180.7344 3879.9063,180.7344 Q3877.4063,180.7344 3876.0781,179.0938 Q3874.7656,177.4375 3874.7656,174.3125 Q3874.7656,171.1875 3876.0781,169.5313 Q3877.4063,167.875 3879.9063,167.875 Q3880.6094,167.875 3881.25,168.0313 Q3881.9063,168.1875 3882.4688,168.4844 L3882.4688,171.2031 Q3881.8438,170.625 3881.25,170.3594 Q3880.6563,170.0781 3880.0313,170.0781 Q3878.6875,170.0781 3878,171.1563 Q3877.3125,172.2188 3877.3125,174.3125 Q3877.3125,176.4063 3878,177.4844 Q3878.6875,178.5469 3880.0313,178.5469 Q3880.6563,178.5469 3881.25,178.2813 Q3881.8438,178 3882.4688,177.4219 L3882.4688,180.1406 Z " fill="#000000"/><text fill="#000000" font-family="sans-serif" font-size="14" lengthAdjust="spacing" textLength="302.6406" x="3893.5" y="179.3467">logic_arc_int__baselibs__bit_mask_operator</text><line style="stroke:#181818;stroke-width:0.5;" x1="3865.5" x2="4198.1406" y1="190.5" y2="190.5"/></g><!--class comp_arc_sta__baselibs__utils--><g id="elem_comp_arc_sta__baselibs__utils"><rect fill="#F1F1F1" height="40" id="comp_arc_sta__baselibs__utils" rx="2.5" ry="2.5" style="stroke:#181818;stroke-width:0.5;" width="242.9502" x="5354.5" y="275.5"/><ellipse cx="5369.5" cy="291.5" fill="#ADD1B2" rx="11" ry="11" style="stroke:#181818;stroke-width:1;"/><path d="M5372.4688,297.1406 Q5371.8906,297.4375 5371.25,297.5781 Q5370.6094,297.7344 5369.9063,297.7344 Q5367.4063,297.7344 5366.0781,296.0938 Q5364.7656,294.4375 5364.7656,291.3125 Q5364.7656,288.1875 5366.0781,286.5313 Q5367.4063,284.875 5369.9063,284.875 Q5370.6094,284.875 5371.25,285.0313 Q5371.9063,285.1875 5372.4688,285.4844 L5372.4688,288.2031 Q5371.8438,287.625 5371.25,287.3594 Q5370.6563,287.0781 5370.0313,287.0781 Q5368.6875,287.0781 5368,288.1563 Q5367.3125,289.2188 5367.3125,291.3125 Q5367.3125,293.4063 5368,294.4844 Q5368.6875,295.5469 5370.0313,295.5469 Q5370.6563,295.5469 5371.25,295.2813 Q5371.8438,295 5372.4688,294.4219 L5372.4688,297.1406 Z " fill="#000000"/><text fill="#000000" font-family="sans-serif" font-size="14" lengthAdjust="spacing" textLength="210.9502" x="5383.5" y="296.3467">comp_arc_sta__baselibs__utils</text><line style="stroke:#181818;stroke-width:0.5;" x1="5355.5" x2="5596.4502" y1="307.5" y2="307.5"/></g><!--class logic_arc_int__baselibs__utils_scoped_op--><g id="elem_logic_arc_int__baselibs__utils_scoped_op"><rect fill="#F1F1F1" height="40" id="logic_arc_int__baselibs__utils_scoped_op" rx="2.5" ry="2.5" style="stroke:#181818;stroke-width:0.5;" width="315.377" x="5515.5" y="158.5"/><ellipse cx="5530.5" cy="174.5" fill="#ADD1B2" rx="11" ry="11" style="stroke:#181818;stroke-width:1;"/><path d="M5533.4688,180.1406 Q5532.8906,180.4375 5532.25,180.5781 Q5531.6094,180.7344 5530.9063,180.7344 Q5528.4063,180.7344 5527.0781,179.0938 Q5525.7656,177.4375 5525.7656,174.3125 Q5525.7656,171.1875 5527.0781,169.5313 Q5528.4063,167.875 5530.9063,167.875 Q5531.6094,167.875 5532.25,168.0313 Q5532.9063,168.1875 5533.4688,168.4844 L5533.4688,171.2031 Q5532.8438,170.625 5532.25,170.3594 Q5531.6563,170.0781 5531.0313,170.0781 Q5529.6875,170.0781 5529,171.1563 Q5528.3125,172.2188 5528.3125,174.3125 Q5528.3125,176.4063 5529,177.4844 Q5529.6875,178.5469 5531.0313,178.5469 Q5531.6563,178.5469 5532.25,178.2813 Q5532.8438,178 5533.4688,177.4219 L5533.4688,180.1406 Z " fill="#000000"/><text fill="#000000" font-family="sans-serif" font-size="14" lengthAdjust="spacing" textLength="283.377" x="5544.5" y="179.3467">logic_arc_int__baselibs__utils_scoped_op</text><line style="stroke:#181818;stroke-width:0.5;" x1="5516.5" x2="5829.877" y1="190.5" y2="190.5"/></g><!--class logic_arc_int__baselibs__bit_manipulation--><g id="elem_logic_arc_int__baselibs__bit_manipulation"><rect fill="#F1F1F1" height="40" id="logic_arc_int__baselibs__bit_manipulation" rx="2.5" ry="2.5" style="stroke:#181818;stroke-width:0.5;" width="321.8369" x="3507" y="158.5"/><ellipse cx="3522" cy="174.5" fill="#ADD1B2" rx="11" ry="11" style="stroke:#181818;stroke-width:1;"/><path d="M3524.9688,180.1406 Q3524.3906,180.4375 3523.75,180.5781 Q3523.1094,180.7344 3522.4063,180.7344 Q3519.9063,180.7344 3518.5781,179.0938 Q3517.2656,177.4375 3517.2656,174.3125 Q3517.2656,171.1875 3518.5781,169.5313 Q3519.9063,167.875 3522.4063,167.875 Q3523.1094,167.875 3523.75,168.0313 Q3524.4063,168.1875 3524.9688,168.4844 L3524.9688,171.2031 Q3524.3438,170.625 3523.75,170.3594 Q3523.1563,170.0781 3522.5313,170.0781 Q3521.1875,170.0781 3520.5,171.1563 Q3519.8125,172.2188 3519.8125,174.3125 Q3519.8125,176.4063 3520.5,177.4844 Q3521.1875,178.5469 3522.5313,178.5469 Q3523.1563,178.5469 3523.75,178.2813 Q3524.3438,178 3524.9688,177.4219 L3524.9688,180.1406 Z " fill="#000000"/><text fill="#000000" font-family="sans-serif" font-size="14" lengthAdjust="spacing" textLength="289.8369" x="3536" y="179.3467">logic_arc_int__baselibs__bit_manipulation</text><line style="stroke:#181818;stroke-width:0.5;" x1="3508" x2="3827.8369" y1="190.5" y2="190.5"/></g><!--class comp_arc_sta__baselibs__concurrency--><g id="elem_comp_arc_sta__baselibs__concurrency"><rect fill="#F1F1F1" height="40" id="comp_arc_sta__baselibs__concurrency" rx="2.5" ry="2.5" style="stroke:#181818;stroke-width:0.5;" width="300.2012" x="2012" y="275.5"/><ellipse cx="2027" cy="291.5" fill="#ADD1B2" rx="11" ry="11" style="stroke:#181818;stroke-width:1;"/><path d="M2029.9688,297.1406 Q2029.3906,297.4375 2028.75,297.5781 Q2028.1094,297.7344 2027.4063,297.7344 Q2024.9063,297.7344 2023.5781,296.0938 Q2022.2656,294.4375 2022.2656,291.3125 Q2022.2656,288.1875 2023.5781,286.5313 Q2024.9063,284.875 2027.4063,284.875 Q2028.1094,284.875 2028.75,285.0313 Q2029.4063,285.1875 2029.9688,285.4844 L2029.9688,288.2031 Q2029.3438,287.625 2028.75,287.3594 Q2028.1563,287.0781 2027.5313,287.0781 Q2026.1875,287.0781 2025.5,288.1563 Q2024.8125,289.2188 2024.8125,291.3125 Q2024.8125,293.4063 2025.5,294.4844 Q2026.1875,295.5469 2027.5313,295.5469 Q2028.1563,295.5469 2028.75,295.2813 Q2029.3438,295 2029.9688,294.4219 L2029.9688,297.1406 Z " fill="#000000"/><text fill="#000000" font-family="sans-serif" font-size="14" lengthAdjust="spacing" textLength="268.2012" x="2041" y="296.3467">comp_arc_sta__baselibs__concurrency</text><line style="stroke:#181818;stroke-width:0.5;" x1="2013" x2="2311.2012" y1="307.5" y2="307.5"/></g><!--class logic_arc_int__baselibs__shared_future--><g id="elem_logic_arc_int__baselibs__shared_future"><rect fill="#F1F1F1" height="40" id="logic_arc_int__baselibs__shared_future" rx="2.5" ry="2.5" style="stroke:#181818;stroke-width:0.5;" width="302.0811" x="1834" y="158.5"/><ellipse cx="1849" cy="174.5" fill="#ADD1B2" rx="11" ry="11" style="stroke:#181818;stroke-width:1;"/><path d="M1851.9688,180.1406 Q1851.3906,180.4375 1850.75,180.5781 Q1850.1094,180.7344 1849.4063,180.7344 Q1846.9063,180.7344 1845.5781,179.0938 Q1844.2656,177.4375 1844.2656,174.3125 Q1844.2656,171.1875 1845.5781,169.5313 Q1846.9063,167.875 1849.4063,167.875 Q1850.1094,167.875 1850.75,168.0313 Q1851.4063,168.1875 1851.9688,168.4844 L1851.9688,171.2031 Q1851.3438,170.625 1850.75,170.3594 Q1850.1563,170.0781 1849.5313,170.0781 Q1848.1875,170.0781 1847.5,171.1563 Q1846.8125,172.2188 1846.8125,174.3125 Q1846.8125,176.4063 1847.5,177.4844 Q1848.1875,178.5469 1849.5313,178.5469 Q1850.1563,178.5469 1850.75,178.2813 Q1851.3438,178 1851.9688,177.4219 L1851.9688,180.1406 Z " fill="#000000"/><text fill="#000000" font-family="sans-serif" font-size="14" lengthAdjust="spacing" textLength="270.0811" x="1863" y="179.3467">logic_arc_int__baselibs__shared_future</text><line style="stroke:#181818;stroke-width:0.5;" x1="1835" x2="2135.0811" y1="190.5" y2="190.5"/></g><!--class logic_arc_int__baselibs__message_passing--><g id="elem_logic_arc_int__baselibs__message_passing"><rect fill="#F1F1F1" height="40" id="logic_arc_int__baselibs__message_passing" rx="2.5" ry="2.5" style="stroke:#181818;stroke-width:0.5;" width="328.167" x="4825" y="158.5"/><ellipse cx="4840" cy="174.5" fill="#ADD1B2" rx="11" ry="11" style="stroke:#181818;stroke-width:1;"/><path d="M4842.9688,180.1406 Q4842.3906,180.4375 4841.75,180.5781 Q4841.1094,180.7344 4840.4063,180.7344 Q4837.9063,180.7344 4836.5781,179.0938 Q4835.2656,177.4375 4835.2656,174.3125 Q4835.2656,171.1875 4836.5781,169.5313 Q4837.9063,167.875 4840.4063,167.875 Q4841.1094,167.875 4841.75,168.0313 Q4842.4063,168.1875 4842.9688,168.4844 L4842.9688,171.2031 Q4842.3438,170.625 4841.75,170.3594 Q4841.1563,170.0781 4840.5313,170.0781 Q4839.1875,170.0781 4838.5,171.1563 Q4837.8125,172.2188 4837.8125,174.3125 Q4837.8125,176.4063 4838.5,177.4844 Q4839.1875,178.5469 4840.5313,178.5469 Q4841.1563,178.5469 4841.75,178.2813 Q4842.3438,178 4842.9688,177.4219 L4842.9688,180.1406 Z " fill="#000000"/><text fill="#000000" font-family="sans-serif" font-size="14" lengthAdjust="spacing" textLength="296.167" x="4854" y="179.3467">logic_arc_int__baselibs__message_passing</text><line style="stroke:#181818;stroke-width:0.5;" x1="4826" x2="5152.167" y1="190.5" y2="190.5"/></g><!--class logic_arc_int__baselibs__intrusive_list--><g id="elem_logic_arc_int__baselibs__intrusive_list"><rect fill="#F1F1F1" height="40" id="logic_arc_int__baselibs__intrusive_list" rx="2.5" ry="2.5" style="stroke:#181818;stroke-width:0.5;" width="293.0713" x="623.5" y="158.5"/><ellipse cx="638.5" cy="174.5" fill="#ADD1B2" rx="11" ry="11" style="stroke:#181818;stroke-width:1;"/><path d="M641.4688,180.1406 Q640.8906,180.4375 640.25,180.5781 Q639.6094,180.7344 638.9063,180.7344 Q636.4063,180.7344 635.0781,179.0938 Q633.7656,177.4375 633.7656,174.3125 Q633.7656,171.1875 635.0781,169.5313 Q636.4063,167.875 638.9063,167.875 Q639.6094,167.875 640.25,168.0313 Q640.9063,168.1875 641.4688,168.4844 L641.4688,171.2031 Q640.8438,170.625 640.25,170.3594 Q639.6563,170.0781 639.0313,170.0781 Q637.6875,170.0781 637,171.1563 Q636.3125,172.2188 636.3125,174.3125 Q636.3125,176.4063 637,177.4844 Q637.6875,178.5469 639.0313,178.5469 Q639.6563,178.5469 640.25,178.2813 Q640.8438,178 641.4688,177.4219 L641.4688,180.1406 Z " fill="#000000"/><text fill="#000000" font-family="sans-serif" font-size="14" lengthAdjust="spacing" textLength="261.0713" x="652.5" y="179.3467">logic_arc_int__baselibs__intrusive_list</text><line style="stroke:#181818;stroke-width:0.5;" x1="624.5" x2="915.5713" y1="190.5" y2="190.5"/></g><!--class logic_arc_int__baselibs__task--><g id="elem_logic_arc_int__baselibs__task"><rect fill="#F1F1F1" height="40" id="logic_arc_int__baselibs__task" rx="2.5" ry="2.5" style="stroke:#181818;stroke-width:0.5;" width="234.0156" x="1268" y="158.5"/><ellipse cx="1283" cy="174.5" fill="#ADD1B2" rx="11" ry="11" style="stroke:#181818;stroke-width:1;"/><path d="M1285.9688,180.1406 Q1285.3906,180.4375 1284.75,180.5781 Q1284.1094,180.7344 1283.4063,180.7344 Q1280.9063,180.7344 1279.5781,179.0938 Q1278.2656,177.4375 1278.2656,174.3125 Q1278.2656,171.1875 1279.5781,169.5313 Q1280.9063,167.875 1283.4063,167.875 Q1284.1094,167.875 1284.75,168.0313 Q1285.4063,168.1875 1285.9688,168.4844 L1285.9688,171.2031 Q1285.3438,170.625 1284.75,170.3594 Q1284.1563,170.0781 1283.5313,170.0781 Q1282.1875,170.0781 1281.5,171.1563 Q1280.8125,172.2188 1280.8125,174.3125 Q1280.8125,176.4063 1281.5,177.4844 Q1282.1875,178.5469 1283.5313,178.5469 Q1284.1563,178.5469 1284.75,178.2813 Q1285.3438,178 1285.9688,177.4219 L1285.9688,180.1406 Z " fill="#000000"/><text fill="#000000" font-family="sans-serif" font-size="14" lengthAdjust="spacing" textLength="202.0156" x="1297" y="179.3467">logic_arc_int__baselibs__task</text><line style="stroke:#181818;stroke-width:0.5;" x1="1269" x2="1501.0156" y1="190.5" y2="190.5"/></g><!--class comp_arc_sta__baselibs__bit_manipulation--><g id="elem_comp_arc_sta__baselibs__bit_manipulation"><rect fill="#F1F1F1" height="40" id="comp_arc_sta__baselibs__bit_manipulation" rx="2.5" ry="2.5" style="stroke:#181818;stroke-width:0.5;" width="330.8057" x="3653.5" y="275.5"/><ellipse cx="3668.5" cy="291.5" fill="#ADD1B2" rx="11" ry="11" style="stroke:#181818;stroke-width:1;"/><path d="M3671.4688,297.1406 Q3670.8906,297.4375 3670.25,297.5781 Q3669.6094,297.7344 3668.9063,297.7344 Q3666.4063,297.7344 3665.0781,296.0938 Q3663.7656,294.4375 3663.7656,291.3125 Q3663.7656,288.1875 3665.0781,286.5313 Q3666.4063,284.875 3668.9063,284.875 Q3669.6094,284.875 3670.25,285.0313 Q3670.9063,285.1875 3671.4688,285.4844 L3671.4688,288.2031 Q3670.8438,287.625 3670.25,287.3594 Q3669.6563,287.0781 3669.0313,287.0781 Q3667.6875,287.0781 3667,288.1563 Q3666.3125,289.2188 3666.3125,291.3125 Q3666.3125,293.4063 3667,294.4844 Q3667.6875,295.5469 3669.0313,295.5469 Q3669.6563,295.5469 3670.25,295.2813 Q3670.8438,295 3671.4688,294.4219 L3671.4688,297.1406 Z " fill="#000000"/><text fill="#000000" font-family="sans-serif" font-size="14" lengthAdjust="spacing" textLength="298.8057" x="3682.5" y="296.3467">comp_arc_sta__baselibs__bit_manipulation</text><line style="stroke:#181818;stroke-width:0.5;" x1="3654.5" x2="3983.3057" y1="307.5" y2="307.5"/></g><!--class comp_arc_sta__baselibs__memory_shared--><g id="elem_comp_arc_sta__baselibs__memory_shared"><rect fill="#F1F1F1" height="40" id="comp_arc_sta__baselibs__memory_shared" rx="2.5" ry="2.5" style="stroke:#181818;stroke-width:0.5;" width="327.0117" x="5861.5" y="275.5"/><ellipse cx="5876.5" cy="291.5" fill="#ADD1B2" rx="11" ry="11" style="stroke:#181818;stroke-width:1;"/><path d="M5879.4688,297.1406 Q5878.8906,297.4375 5878.25,297.5781 Q5877.6094,297.7344 5876.9063,297.7344 Q5874.4063,297.7344 5873.0781,296.0938 Q5871.7656,294.4375 5871.7656,291.3125 Q5871.7656,288.1875 5873.0781,286.5313 Q5874.4063,284.875 5876.9063,284.875 Q5877.6094,284.875 5878.25,285.0313 Q5878.9063,285.1875 5879.4688,285.4844 L5879.4688,288.2031 Q5878.8438,287.625 5878.25,287.3594 Q5877.6563,287.0781 5877.0313,287.0781 Q5875.6875,287.0781 5875,288.1563 Q5874.3125,289.2188 5874.3125,291.3125 Q5874.3125,293.4063 5875,294.4844 Q5875.6875,295.5469 5877.0313,295.5469 Q5877.6563,295.5469 5878.25,295.2813 Q5878.8438,295 5879.4688,294.4219 L5879.4688,297.1406 Z " fill="#000000"/><text fill="#000000" font-family="sans-serif" font-size="14" lengthAdjust="spacing" textLength="295.0117" x="5890.5" y="296.3467">comp_arc_sta__baselibs__memory_shared</text><line style="stroke:#181818;stroke-width:0.5;" x1="5862.5" x2="6187.5117" y1="307.5" y2="307.5"/></g><!--class comp_arc_sta__baselibs__message_passing--><g id="elem_comp_arc_sta__baselibs__message_passing"><rect fill="#F1F1F1" height="40" id="comp_arc_sta__baselibs__message_passing" rx="2.5" ry="2.5" style="stroke:#181818;stroke-width:0.5;" width="337.1357" x="4829.5" y="275.5"/><ellipse cx="4844.5" cy="291.5" fill="#ADD1B2" rx="11" ry="11" style="stroke:#181818;stroke-width:1;"/><path d="M4847.4688,297.1406 Q4846.8906,297.4375 4846.25,297.5781 Q4845.6094,297.7344 4844.9063,297.7344 Q4842.4063,297.7344 4841.0781,296.0938 Q4839.7656,294.4375 4839.7656,291.3125 Q4839.7656,288.1875 4841.0781,286.5313 Q4842.4063,284.875 4844.9063,284.875 Q4845.6094,284.875 4846.25,285.0313 Q4846.9063,285.1875 4847.4688,285.4844 L4847.4688,288.2031 Q4846.8438,287.625 4846.25,287.3594 Q4845.6563,287.0781 4845.0313,287.0781 Q4843.6875,287.0781 4843,288.1563 Q4842.3125,289.2188 4842.3125,291.3125 Q4842.3125,293.4063 4843,294.4844 Q4843.6875,295.5469 4845.0313,295.5469 Q4845.6563,295.5469 4846.25,295.2813 Q4846.8438,295 4847.4688,294.4219 L4847.4688,297.1406 Z " fill="#000000"/><text fill="#000000" font-family="sans-serif" font-size="14" lengthAdjust="spacing" textLength="305.1357" x="4858.5" y="296.3467">comp_arc_sta__baselibs__message_passing</text><line style="stroke:#181818;stroke-width:0.5;" x1="4830.5" x2="5165.6357" y1="307.5" y2="307.5"/></g><!--class logic_arc_int__baselibs__dynamic_array--><g id="elem_logic_arc_int__baselibs__dynamic_array"><rect fill="#F1F1F1" height="40" id="logic_arc_int__baselibs__dynamic_array" rx="2.5" ry="2.5" style="stroke:#181818;stroke-width:0.5;" width="308.3496" x="280" y="158.5"/><ellipse cx="295" cy="174.5" fill="#ADD1B2" rx="11" ry="11" style="stroke:#181818;stroke-width:1;"/><path d="M297.9688,180.1406 Q297.3906,180.4375 296.75,180.5781 Q296.1094,180.7344 295.4063,180.7344 Q292.9063,180.7344 291.5781,179.0938 Q290.2656,177.4375 290.2656,174.3125 Q290.2656,171.1875 291.5781,169.5313 Q292.9063,167.875 295.4063,167.875 Q296.1094,167.875 296.75,168.0313 Q297.4063,168.1875 297.9688,168.4844 L297.9688,171.2031 Q297.3438,170.625 296.75,170.3594 Q296.1563,170.0781 295.5313,170.0781 Q294.1875,170.0781 293.5,171.1563 Q292.8125,172.2188 292.8125,174.3125 Q292.8125,176.4063 293.5,177.4844 Q294.1875,178.5469 295.5313,178.5469 Q296.1563,178.5469 296.75,178.2813 Q297.3438,178 297.9688,177.4219 L297.9688,180.1406 Z " fill="#000000"/><text fill="#000000" font-family="sans-serif" font-size="14" lengthAdjust="spacing" textLength="276.3496" x="309" y="179.3467">logic_arc_int__baselibs__dynamic_array</text><line style="stroke:#181818;stroke-width:0.5;" x1="281" x2="587.3496" y1="190.5" y2="190.5"/></g><!--class logic_arc_int__baselibs__future--><g id="elem_logic_arc_int__baselibs__future"><rect fill="#F1F1F1" height="40" id="logic_arc_int__baselibs__future" rx="2.5" ry="2.5" style="stroke:#181818;stroke-width:0.5;" width="247.0791" x="3224.5" y="158.5"/><ellipse cx="3239.5" cy="174.5" fill="#ADD1B2" rx="11" ry="11" style="stroke:#181818;stroke-width:1;"/><path d="M3242.4688,180.1406 Q3241.8906,180.4375 3241.25,180.5781 Q3240.6094,180.7344 3239.9063,180.7344 Q3237.4063,180.7344 3236.0781,179.0938 Q3234.7656,177.4375 3234.7656,174.3125 Q3234.7656,171.1875 3236.0781,169.5313 Q3237.4063,167.875 3239.9063,167.875 Q3240.6094,167.875 3241.25,168.0313 Q3241.9063,168.1875 3242.4688,168.4844 L3242.4688,171.2031 Q3241.8438,170.625 3241.25,170.3594 Q3240.6563,170.0781 3240.0313,170.0781 Q3238.6875,170.0781 3238,171.1563 Q3237.3125,172.2188 3237.3125,174.3125 Q3237.3125,176.4063 3238,177.4844 Q3238.6875,178.5469 3240.0313,178.5469 Q3240.6563,178.5469 3241.25,178.2813 Q3241.8438,178 3242.4688,177.4219 L3242.4688,180.1406 Z " fill="#000000"/><text fill="#000000" font-family="sans-serif" font-size="14" lengthAdjust="spacing" textLength="215.0791" x="3253.5" y="179.3467">logic_arc_int__baselibs__future</text><line style="stroke:#181818;stroke-width:0.5;" x1="3225.5" x2="3470.5791" y1="190.5" y2="190.5"/></g><!--class logic_arc_int__baselibs__executor--><g id="elem_logic_arc_int__baselibs__executor"><rect fill="#F1F1F1" height="40" id="logic_arc_int__baselibs__executor" rx="2.5" ry="2.5" style="stroke:#181818;stroke-width:0.5;" width="266.4385" x="2923" y="158.5"/><ellipse cx="2938" cy="174.5" fill="#ADD1B2" rx="11" ry="11" style="stroke:#181818;stroke-width:1;"/><path d="M2940.9688,180.1406 Q2940.3906,180.4375 2939.75,180.5781 Q2939.1094,180.7344 2938.4063,180.7344 Q2935.9063,180.7344 2934.5781,179.0938 Q2933.2656,177.4375 2933.2656,174.3125 Q2933.2656,171.1875 2934.5781,169.5313 Q2935.9063,167.875 2938.4063,167.875 Q2939.1094,167.875 2939.75,168.0313 Q2940.4063,168.1875 2940.9688,168.4844 L2940.9688,171.2031 Q2940.3438,170.625 2939.75,170.3594 Q2939.1563,170.0781 2938.5313,170.0781 Q2937.1875,170.0781 2936.5,171.1563 Q2935.8125,172.2188 2935.8125,174.3125 Q2935.8125,176.4063 2936.5,177.4844 Q2937.1875,178.5469 2938.5313,178.5469 Q2939.1563,178.5469 2939.75,178.2813 Q2940.3438,178 2940.9688,177.4219 L2940.9688,180.1406 Z " fill="#000000"/><text fill="#000000" font-family="sans-serif" font-size="14" lengthAdjust="spacing" textLength="234.4385" x="2952" y="179.3467">logic_arc_int__baselibs__executor</text><line style="stroke:#181818;stroke-width:0.5;" x1="2924" x2="3188.4385" y1="190.5" y2="190.5"/></g><!--class logic_arc_int__baselibs__promise--><g id="elem_logic_arc_int__baselibs__promise"><rect fill="#F1F1F1" height="40" id="logic_arc_int__baselibs__promise" rx="2.5" ry="2.5" style="stroke:#181818;stroke-width:0.5;" width="261.1885" x="1537.5" y="158.5"/><ellipse cx="1552.5" cy="174.5" fill="#ADD1B2" rx="11" ry="11" style="stroke:#181818;stroke-width:1;"/><path d="M1555.4688,180.1406 Q1554.8906,180.4375 1554.25,180.5781 Q1553.6094,180.7344 1552.9063,180.7344 Q1550.4063,180.7344 1549.0781,179.0938 Q1547.7656,177.4375 1547.7656,174.3125 Q1547.7656,171.1875 1549.0781,169.5313 Q1550.4063,167.875 1552.9063,167.875 Q1553.6094,167.875 1554.25,168.0313 Q1554.9063,168.1875 1555.4688,168.4844 L1555.4688,171.2031 Q1554.8438,170.625 1554.25,170.3594 Q1553.6563,170.0781 1553.0313,170.0781 Q1551.6875,170.0781 1551,171.1563 Q1550.3125,172.2188 1550.3125,174.3125 Q1550.3125,176.4063 1551,177.4844 Q1551.6875,178.5469 1553.0313,178.5469 Q1553.6563,178.5469 1554.25,178.2813 Q1554.8438,178 1555.4688,177.4219 L1555.4688,180.1406 Z " fill="#000000"/><text fill="#000000" font-family="sans-serif" font-size="14" lengthAdjust="spacing" textLength="229.1885" x="1566.5" y="179.3467">logic_arc_int__baselibs__promise</text><line style="stroke:#181818;stroke-width:0.5;" x1="1538.5" x2="1797.6885" y1="190.5" y2="190.5"/></g><!--class comp_arc_sta__baselibs__result--><g id="elem_comp_arc_sta__baselibs__result"><rect fill="#F1F1F1" height="40" id="comp_arc_sta__baselibs__result" rx="2.5" ry="2.5" style="stroke:#181818;stroke-width:0.5;" width="253.4297" x="4541.5" y="275.5"/><ellipse cx="4556.5" cy="291.5" fill="#ADD1B2" rx="11" ry="11" style="stroke:#181818;stroke-width:1;"/><path d="M4559.4688,297.1406 Q4558.8906,297.4375 4558.25,297.5781 Q4557.6094,297.7344 4556.9063,297.7344 Q4554.4063,297.7344 4553.0781,296.0938 Q4551.7656,294.4375 4551.7656,291.3125 Q4551.7656,288.1875 4553.0781,286.5313 Q4554.4063,284.875 4556.9063,284.875 Q4557.6094,284.875 4558.25,285.0313 Q4558.9063,285.1875 4559.4688,285.4844 L4559.4688,288.2031 Q4558.8438,287.625 4558.25,287.3594 Q4557.6563,287.0781 4557.0313,287.0781 Q4555.6875,287.0781 4555,288.1563 Q4554.3125,289.2188 4554.3125,291.3125 Q4554.3125,293.4063 4555,294.4844 Q4555.6875,295.5469 4557.0313,295.5469 Q4557.6563,295.5469 4558.25,295.2813 Q4558.8438,295 4559.4688,294.4219 L4559.4688,297.1406 Z " fill="#000000"/><text fill="#000000" font-family="sans-serif" font-size="14" lengthAdjust="spacing" textLength="221.4297" x="4570.5" y="296.3467">comp_arc_sta__baselibs__result</text><line style="stroke:#181818;stroke-width:0.5;" x1="4542.5" x2="4793.9297" y1="307.5" y2="307.5"/></g><!--class logic_arc_int__baselibs__result--><g id="elem_logic_arc_int__baselibs__result"><rect fill="#F1F1F1" height="40" id="logic_arc_int__baselibs__result" rx="2.5" ry="2.5" style="stroke:#181818;stroke-width:0.5;" width="244.4609" x="4546" y="158.5"/><ellipse cx="4561" cy="174.5" fill="#ADD1B2" rx="11" ry="11" style="stroke:#181818;stroke-width:1;"/><path d="M4563.9688,180.1406 Q4563.3906,180.4375 4562.75,180.5781 Q4562.1094,180.7344 4561.4063,180.7344 Q4558.9063,180.7344 4557.5781,179.0938 Q4556.2656,177.4375 4556.2656,174.3125 Q4556.2656,171.1875 4557.5781,169.5313 Q4558.9063,167.875 4561.4063,167.875 Q4562.1094,167.875 4562.75,168.0313 Q4563.4063,168.1875 4563.9688,168.4844 L4563.9688,171.2031 Q4563.3438,170.625 4562.75,170.3594 Q4562.1563,170.0781 4561.5313,170.0781 Q4560.1875,170.0781 4559.5,171.1563 Q4558.8125,172.2188 4558.8125,174.3125 Q4558.8125,176.4063 4559.5,177.4844 Q4560.1875,178.5469 4561.5313,178.5469 Q4562.1563,178.5469 4562.75,178.2813 Q4563.3438,178 4563.9688,177.4219 L4563.9688,180.1406 Z " fill="#000000"/><text fill="#000000" font-family="sans-serif" font-size="14" lengthAdjust="spacing" textLength="212.4609" x="4575" y="179.3467">logic_arc_int__baselibs__result</text><line style="stroke:#181818;stroke-width:0.5;" x1="4547" x2="4789.4609" y1="190.5" y2="190.5"/></g><!--class logic_arc_int__baselibs__filesystem--><g id="elem_logic_arc_int__baselibs__filesystem"><rect fill="#F1F1F1" height="40" id="logic_arc_int__baselibs__filesystem" rx="2.5" ry="2.5" style="stroke:#181818;stroke-width:0.5;" width="276.4805" x="4235" y="158.5"/><ellipse cx="4250" cy="174.5" fill="#ADD1B2" rx="11" ry="11" style="stroke:#181818;stroke-width:1;"/><path d="M4252.9688,180.1406 Q4252.3906,180.4375 4251.75,180.5781 Q4251.1094,180.7344 4250.4063,180.7344 Q4247.9063,180.7344 4246.5781,179.0938 Q4245.2656,177.4375 4245.2656,174.3125 Q4245.2656,171.1875 4246.5781,169.5313 Q4247.9063,167.875 4250.4063,167.875 Q4251.1094,167.875 4251.75,168.0313 Q4252.4063,168.1875 4252.9688,168.4844 L4252.9688,171.2031 Q4252.3438,170.625 4251.75,170.3594 Q4251.1563,170.0781 4250.5313,170.0781 Q4249.1875,170.0781 4248.5,171.1563 Q4247.8125,172.2188 4247.8125,174.3125 Q4247.8125,176.4063 4248.5,177.4844 Q4249.1875,178.5469 4250.5313,178.5469 Q4251.1563,178.5469 4251.75,178.2813 Q4252.3438,178 4252.9688,177.4219 L4252.9688,180.1406 Z " fill="#000000"/><text fill="#000000" font-family="sans-serif" font-size="14" lengthAdjust="spacing" textLength="244.4805" x="4264" y="179.3467">logic_arc_int__baselibs__filesystem</text><line style="stroke:#181818;stroke-width:0.5;" x1="4236" x2="4510.4805" y1="190.5" y2="190.5"/></g><!--class logic_arc_int__baselibs__utils_base64--><g id="elem_logic_arc_int__baselibs__utils_base64"><rect fill="#F1F1F1" height="40" id="logic_arc_int__baselibs__utils_base64" rx="2.5" ry="2.5" style="stroke:#181818;stroke-width:0.5;" width="292.1689" x="5188" y="158.5"/><ellipse cx="5203" cy="174.5" fill="#ADD1B2" rx="11" ry="11" style="stroke:#181818;stroke-width:1;"/><path d="M5205.9688,180.1406 Q5205.3906,180.4375 5204.75,180.5781 Q5204.1094,180.7344 5203.4063,180.7344 Q5200.9063,180.7344 5199.5781,179.0938 Q5198.2656,177.4375 5198.2656,174.3125 Q5198.2656,171.1875 5199.5781,169.5313 Q5200.9063,167.875 5203.4063,167.875 Q5204.1094,167.875 5204.75,168.0313 Q5205.4063,168.1875 5205.9688,168.4844 L5205.9688,171.2031 Q5205.3438,170.625 5204.75,170.3594 Q5204.1563,170.0781 5203.5313,170.0781 Q5202.1875,170.0781 5201.5,171.1563 Q5200.8125,172.2188 5200.8125,174.3125 Q5200.8125,176.4063 5201.5,177.4844 Q5202.1875,178.5469 5203.5313,178.5469 Q5204.1563,178.5469 5204.75,178.2813 Q5205.3438,178 5205.9688,177.4219 L5205.9688,180.1406 Z " fill="#000000"/><text fill="#000000" font-family="sans-serif" font-size="14" lengthAdjust="spacing" textLength="260.1689" x="5217" y="179.3467">logic_arc_int__baselibs__utils_base64</text><line style="stroke:#181818;stroke-width:0.5;" x1="5189" x2="5479.1689" y1="190.5" y2="190.5"/></g><!--class comp_arc_sta__baselibs__filesystem--><g id="elem_comp_arc_sta__baselibs__filesystem"><rect fill="#F1F1F1" height="40" id="comp_arc_sta__baselibs__filesystem" rx="2.5" ry="2.5" style="stroke:#181818;stroke-width:0.5;" width="285.4492" x="4221.5" y="275.5"/><ellipse cx="4236.5" cy="291.5" fill="#ADD1B2" rx="11" ry="11" style="stroke:#181818;stroke-width:1;"/><path d="M4239.4688,297.1406 Q4238.8906,297.4375 4238.25,297.5781 Q4237.6094,297.7344 4236.9063,297.7344 Q4234.4063,297.7344 4233.0781,296.0938 Q4231.7656,294.4375 4231.7656,291.3125 Q4231.7656,288.1875 4233.0781,286.5313 Q4234.4063,284.875 4236.9063,284.875 Q4237.6094,284.875 4238.25,285.0313 Q4238.9063,285.1875 4239.4688,285.4844 L4239.4688,288.2031 Q4238.8438,287.625 4238.25,287.3594 Q4237.6563,287.0781 4237.0313,287.0781 Q4235.6875,287.0781 4235,288.1563 Q4234.3125,289.2188 4234.3125,291.3125 Q4234.3125,293.4063 4235,294.4844 Q4235.6875,295.5469 4237.0313,295.5469 Q4237.6563,295.5469 4238.25,295.2813 Q4238.8438,295 4239.4688,294.4219 L4239.4688,297.1406 Z " fill="#000000"/><text fill="#000000" font-family="sans-serif" font-size="14" lengthAdjust="spacing" textLength="253.4492" x="4250.5" y="296.3467">comp_arc_sta__baselibs__filesystem</text><line style="stroke:#181818;stroke-width:0.5;" x1="4222.5" x2="4505.9492" y1="307.5" y2="307.5"/></g><!--class logic_arc_int__baselibs__synchronized_queue--><g id="elem_logic_arc_int__baselibs__synchronized_queue"><rect fill="#F1F1F1" height="40" id="logic_arc_int__baselibs__synchronized_queue" rx="2.5" ry="2.5" style="stroke:#181818;stroke-width:0.5;" width="348.3604" x="2540" y="158.5"/><ellipse cx="2555" cy="174.5" fill="#ADD1B2" rx="11" ry="11" style="stroke:#181818;stroke-width:1;"/><path d="M2557.9688,180.1406 Q2557.3906,180.4375 2556.75,180.5781 Q2556.1094,180.7344 2555.4063,180.7344 Q2552.9063,180.7344 2551.5781,179.0938 Q2550.2656,177.4375 2550.2656,174.3125 Q2550.2656,171.1875 2551.5781,169.5313 Q2552.9063,167.875 2555.4063,167.875 Q2556.1094,167.875 2556.75,168.0313 Q2557.4063,168.1875 2557.9688,168.4844 L2557.9688,171.2031 Q2557.3438,170.625 2556.75,170.3594 Q2556.1563,170.0781 2555.5313,170.0781 Q2554.1875,170.0781 2553.5,171.1563 Q2552.8125,172.2188 2552.8125,174.3125 Q2552.8125,176.4063 2553.5,177.4844 Q2554.1875,178.5469 2555.5313,178.5469 Q2556.1563,178.5469 2556.75,178.2813 Q2557.3438,178 2557.9688,177.4219 L2557.9688,180.1406 Z " fill="#000000"/><text fill="#000000" font-family="sans-serif" font-size="14" lengthAdjust="spacing" textLength="316.3604" x="2569" y="179.3467">logic_arc_int__baselibs__synchronized_queue</text><line style="stroke:#181818;stroke-width:0.5;" x1="2541" x2="2887.3604" y1="190.5" y2="190.5"/></g><!--class logic_arc_int__baselibs__task_result--><g id="elem_logic_arc_int__baselibs__task_result"><rect fill="#F1F1F1" height="40" id="logic_arc_int__baselibs__task_result" rx="2.5" ry="2.5" style="stroke:#181818;stroke-width:0.5;" width="280.9307" x="951.5" y="158.5"/><ellipse cx="966.5" cy="174.5" fill="#ADD1B2" rx="11" ry="11" style="stroke:#181818;stroke-width:1;"/><path d="M969.4688,180.1406 Q968.8906,180.4375 968.25,180.5781 Q967.6094,180.7344 966.9063,180.7344 Q964.4063,180.7344 963.0781,179.0938 Q961.7656,177.4375 961.7656,174.3125 Q961.7656,171.1875 963.0781,169.5313 Q964.4063,167.875 966.9063,167.875 Q967.6094,167.875 968.25,168.0313 Q968.9063,168.1875 969.4688,168.4844 L969.4688,171.2031 Q968.8438,170.625 968.25,170.3594 Q967.6563,170.0781 967.0313,170.0781 Q965.6875,170.0781 965,171.1563 Q964.3125,172.2188 964.3125,174.3125 Q964.3125,176.4063 965,177.4844 Q965.6875,178.5469 967.0313,178.5469 Q967.6563,178.5469 968.25,178.2813 Q968.8438,178 969.4688,177.4219 L969.4688,180.1406 Z " fill="#000000"/><text fill="#000000" font-family="sans-serif" font-size="14" lengthAdjust="spacing" textLength="248.9307" x="980.5" y="179.3467">logic_arc_int__baselibs__task_result</text><line style="stroke:#181818;stroke-width:0.5;" x1="952.5" x2="1231.4307" y1="190.5" y2="190.5"/></g><!--class comp_arc_sta__baselibs__containers--><g id="elem_comp_arc_sta__baselibs__containers"><rect fill="#F1F1F1" height="40" id="comp_arc_sta__baselibs__containers" rx="2.5" ry="2.5" style="stroke:#181818;stroke-width:0.5;" width="287.1445" x="431.5" y="275.5"/><ellipse cx="446.5" cy="291.5" fill="#ADD1B2" rx="11" ry="11" style="stroke:#181818;stroke-width:1;"/><path d="M449.4688,297.1406 Q448.8906,297.4375 448.25,297.5781 Q447.6094,297.7344 446.9063,297.7344 Q444.4063,297.7344 443.0781,296.0938 Q441.7656,294.4375 441.7656,291.3125 Q441.7656,288.1875 443.0781,286.5313 Q444.4063,284.875 446.9063,284.875 Q447.6094,284.875 448.25,285.0313 Q448.9063,285.1875 449.4688,285.4844 L449.4688,288.2031 Q448.8438,287.625 448.25,287.3594 Q447.6563,287.0781 447.0313,287.0781 Q445.6875,287.0781 445,288.1563 Q444.3125,289.2188 444.3125,291.3125 Q444.3125,293.4063 445,294.4844 Q445.6875,295.5469 447.0313,295.5469 Q447.6563,295.5469 448.25,295.2813 Q448.8438,295 449.4688,294.4219 L449.4688,297.1406 Z " fill="#000000"/><text fill="#000000" font-family="sans-serif" font-size="14" lengthAdjust="spacing" textLength="255.1445" x="460.5" y="296.3467">comp_arc_sta__baselibs__containers</text><line style="stroke:#181818;stroke-width:0.5;" x1="432.5" x2="717.6445" y1="307.5" y2="307.5"/></g><!--class comp_arc_sta__baselibs__json--><g id="elem_comp_arc_sta__baselibs__json"><rect fill="#F1F1F1" height="40" id="comp_arc_sta__baselibs__json" rx="2.5" ry="2.5" style="stroke:#181818;stroke-width:0.5;" width="242.1367" x="7" y="275.5"/><ellipse cx="22" cy="291.5" fill="#ADD1B2" rx="11" ry="11" style="stroke:#181818;stroke-width:1;"/><path d="M24.9688,297.1406 Q24.3906,297.4375 23.75,297.5781 Q23.1094,297.7344 22.4063,297.7344 Q19.9063,297.7344 18.5781,296.0938 Q17.2656,294.4375 17.2656,291.3125 Q17.2656,288.1875 18.5781,286.5313 Q19.9063,284.875 22.4063,284.875 Q23.1094,284.875 23.75,285.0313 Q24.4063,285.1875 24.9688,285.4844 L24.9688,288.2031 Q24.3438,287.625 23.75,287.3594 Q23.1563,287.0781 22.5313,287.0781 Q21.1875,287.0781 20.5,288.1563 Q19.8125,289.2188 19.8125,291.3125 Q19.8125,293.4063 20.5,294.4844 Q21.1875,295.5469 22.5313,295.5469 Q23.1563,295.5469 23.75,295.2813 Q24.3438,295 24.9688,294.4219 L24.9688,297.1406 Z " fill="#000000"/><text fill="#000000" font-family="sans-serif" font-size="14" lengthAdjust="spacing" textLength="210.1367" x="36" y="296.3467">comp_arc_sta__baselibs__json</text><line style="stroke:#181818;stroke-width:0.5;" x1="8" x2="248.1367" y1="307.5" y2="307.5"/></g><!--class logic_arc_int__baselibs__json--><g id="elem_logic_arc_int__baselibs__json"><rect fill="#F1F1F1" height="40" id="logic_arc_int__baselibs__json" rx="2.5" ry="2.5" style="stroke:#181818;stroke-width:0.5;" width="233.168" x="11.5" y="158.5"/><ellipse cx="26.5" cy="174.5" fill="#ADD1B2" rx="11" ry="11" style="stroke:#181818;stroke-width:1;"/><path d="M29.4688,180.1406 Q28.8906,180.4375 28.25,180.5781 Q27.6094,180.7344 26.9063,180.7344 Q24.4063,180.7344 23.0781,179.0938 Q21.7656,177.4375 21.7656,174.3125 Q21.7656,171.1875 23.0781,169.5313 Q24.4063,167.875 26.9063,167.875 Q27.6094,167.875 28.25,168.0313 Q28.9063,168.1875 29.4688,168.4844 L29.4688,171.2031 Q28.8438,170.625 28.25,170.3594 Q27.6563,170.0781 27.0313,170.0781 Q25.6875,170.0781 25,171.1563 Q24.3125,172.2188 24.3125,174.3125 Q24.3125,176.4063 25,177.4844 Q25.6875,178.5469 27.0313,178.5469 Q27.6563,178.5469 28.25,178.2813 Q28.8438,178 29.4688,177.4219 L29.4688,180.1406 Z " fill="#000000"/><text fill="#000000" font-family="sans-serif" font-size="14" lengthAdjust="spacing" textLength="201.168" x="40.5" y="179.3467">logic_arc_int__baselibs__json</text><line style="stroke:#181818;stroke-width:0.5;" x1="12.5" x2="243.668" y1="190.5" y2="190.5"/></g><!--link Feature_User to logic_arc_int__baselibs__memory_shared--><g id="link_Feature_User_logic_arc_int__baselibs__memory_shared"><path codeLine="15" d="M3101.29,45.36 C3324.23,49.73 4327.31,70.82 5148,111.5 C5459.43,126.94 5537.37,131.41 5848,158.5 C5853.85,159.01 5853.8359,158.9933 5859.8459,159.5533 " fill="transparent" id="Feature_User-to-logic_arc_int__baselibs__memory_shared" style="stroke:#181818;stroke-width:1;"/><polygon fill="#181818" points="5865.82,160.11,5857.2299,155.2923,5860.8416,159.6461,5856.4877,163.2578,5865.82,160.11" style="stroke:#181818;stroke-width:1;"/><text fill="#000000" font-family="sans-serif" font-size="13" lengthAdjust="spacing" textLength="23.0103" x="5464" y="124.5669">use</text></g><!--link Feature_User to logic_arc_int__baselibs__condition_variable--><g id="link_Feature_User_logic_arc_int__baselibs__condition_variable"><path codeLine="16" d="M3010.81,52.87 C2897.6,73.84 2605.4596,127.9571 2446.7596,157.3571 " fill="transparent" id="Feature_User-to-logic_arc_int__baselibs__condition_variable" style="stroke:#181818;stroke-width:1;"/><polygon fill="#181818" points="2440.86,158.45,2450.4381,160.7437,2445.7763,157.5392,2448.9808,152.8775,2440.86,158.45" style="stroke:#181818;stroke-width:1;"/><text fill="#000000" font-family="sans-serif" font-size="13" lengthAdjust="spacing" textLength="23.0103" x="2676" y="124.5669">use</text></g><!--link Feature_User to logic_arc_int__baselibs__bit_mask_operator--><g id="link_Feature_User_logic_arc_int__baselibs__bit_mask_operator"><path codeLine="17" d="M3101.12,50.65 C3240.58,69.65 3662.8449,127.1999 3886.5949,157.6899 " fill="transparent" id="Feature_User-to-logic_arc_int__baselibs__bit_mask_operator" style="stroke:#181818;stroke-width:1;"/><polygon fill="#181818" points="3892.54,158.5,3884.1625,153.3214,3887.5858,157.8249,3883.0823,161.2482,3892.54,158.5" style="stroke:#181818;stroke-width:1;"/><text fill="#000000" font-family="sans-serif" font-size="13" lengthAdjust="spacing" textLength="23.0103" x="3661" y="124.5669">use</text></g><!--reverse link logic_arc_int__baselibs__utils_scoped_op to comp_arc_sta__baselibs__utils--><g id="link_logic_arc_int__baselibs__utils_scoped_op_comp_arc_sta__baselibs__utils"><path codeLine="18" d="M5634.8479,201.7743 C5598.3679,223.0643 5545.14,254.14 5508.75,275.38 " fill="transparent" id="logic_arc_int__baselibs__utils_scoped_op-backto-comp_arc_sta__baselibs__utils" style="stroke:#181818;stroke-width:1;"/><polygon fill="#181818" points="5640.03,198.75,5630.2407,199.8317,5635.7116,201.2702,5634.2731,206.7411,5640.03,198.75" style="stroke:#181818;stroke-width:1;"/><text fill="#000000" font-family="sans-serif" font-size="13" lengthAdjust="spacing" textLength="76.9082" x="5587" y="241.5669">implements</text></g><!--link Feature_User to logic_arc_int__baselibs__bit_manipulation--><g id="link_Feature_User_logic_arc_int__baselibs__bit_manipulation"><path codeLine="19" d="M3101,54.28 C3201.96,76.22 3442.1569,128.4157 3574.4869,157.1757 " fill="transparent" id="Feature_User-to-logic_arc_int__baselibs__bit_manipulation" style="stroke:#181818;stroke-width:1;"/><polygon fill="#181818" points="3580.35,158.45,3572.4048,152.6299,3575.4641,157.3881,3570.7058,160.4474,3580.35,158.45" style="stroke:#181818;stroke-width:1;"/><text fill="#000000" font-family="sans-serif" font-size="13" lengthAdjust="spacing" textLength="23.0103" x="3435" y="124.5669">use</text></g><!--link Feature_User to logic_arc_int__baselibs__utils_scoped_op--><g id="link_Feature_User_logic_arc_int__baselibs__utils_scoped_op"><path codeLine="20" d="M3101.08,45.68 C3302.21,51.08 4137.86,74.67 4823,111.5 C5123.29,127.64 5198.46,131.82 5498,158.5 C5503.63,159 5503.3869,158.9626 5509.1769,159.5126 " fill="transparent" id="Feature_User-to-logic_arc_int__baselibs__utils_scoped_op" style="stroke:#181818;stroke-width:1;"/><polygon fill="#181818" points="5515.15,160.08,5506.5686,155.2468,5510.1724,159.6072,5505.8121,163.211,5515.15,160.08" style="stroke:#181818;stroke-width:1;"/><text fill="#000000" font-family="sans-serif" font-size="13" lengthAdjust="spacing" textLength="23.0103" x="5116" y="124.5669">use</text></g><!--reverse link logic_arc_int__baselibs__shared_future to comp_arc_sta__baselibs__concurrency--><g id="link_logic_arc_int__baselibs__shared_future_comp_arc_sta__baselibs__concurrency"><path codeLine="21" d="M2019.6614,202.0188 C2052.4314,223.3088 2099.88,254.14 2132.57,275.38 " fill="transparent" id="logic_arc_int__baselibs__shared_future-backto-comp_arc_sta__baselibs__concurrency" style="stroke:#181818;stroke-width:1;"/><polygon fill="#181818" points="2014.63,198.75,2019.9979,207.0075,2018.8228,201.474,2024.3563,200.2989,2014.63,198.75" style="stroke:#181818;stroke-width:1;"/><text fill="#000000" font-family="sans-serif" font-size="13" lengthAdjust="spacing" textLength="76.9082" x="2086" y="241.5669">implements</text></g><!--link Feature_User to logic_arc_int__baselibs__message_passing--><g id="link_Feature_User_logic_arc_int__baselibs__message_passing"><path codeLine="22" d="M3101.15,46.64 C3258.29,54.16 3795.74,80.65 4239,111.5 C4492.14,129.12 4555.36,134.81 4808,158.5 C4813.51,159.02 4813.1281,158.9697 4818.7881,159.5197 " fill="transparent" id="Feature_User-to-logic_arc_int__baselibs__message_passing" style="stroke:#181818;stroke-width:1;"/><polygon fill="#181818" points="4824.76,160.1,4816.1891,155.2483,4819.7834,159.6164,4815.4153,163.2108,4824.76,160.1" style="stroke:#181818;stroke-width:1;"/><text fill="#000000" font-family="sans-serif" font-size="13" lengthAdjust="spacing" textLength="23.0103" x="4467" y="124.5669">use</text></g><!--link Feature_User to logic_arc_int__baselibs__intrusive_list--><g id="link_Feature_User_logic_arc_int__baselibs__intrusive_list"><path codeLine="23" d="M3010.75,46.04 C2828.87,52.31 2133.47,77.31 1562,111.5 C1282.61,128.22 1212.63,131.94 934,158.5 C928.29,159.04 928.449,159.0109 922.569,159.6109 " fill="transparent" id="Feature_User-to-logic_arc_int__baselibs__intrusive_list" style="stroke:#181818;stroke-width:1;"/><polygon fill="#181818" points="916.6,160.22,925.9596,163.2857,921.5742,159.7124,925.1475,155.327,916.6,160.22" style="stroke:#181818;stroke-width:1;"/><text fill="#000000" font-family="sans-serif" font-size="13" lengthAdjust="spacing" textLength="23.0103" x="1563" y="124.5669">use</text></g><!--link Feature_User to logic_arc_int__baselibs__task--><g id="link_Feature_User_logic_arc_int__baselibs__task"><path codeLine="24" d="M3010.97,46.62 C2826.12,55.58 2107.64,92.93 1520,158.5 C1514.12,159.16 1514.056,159.1451 1507.976,159.8851 " fill="transparent" id="Feature_User-to-logic_arc_int__baselibs__task" style="stroke:#181818;stroke-width:1;"/><polygon fill="#181818" points="1502.02,160.61,1511.4373,163.4933,1506.9834,160.0059,1510.4708,155.5519,1502.02,160.61" style="stroke:#181818;stroke-width:1;"/><text fill="#000000" font-family="sans-serif" font-size="13" lengthAdjust="spacing" textLength="23.0103" x="1985" y="124.5669">use</text></g><!--reverse link logic_arc_int__baselibs__bit_mask_operator to comp_arc_sta__baselibs__bit_manipulation--><g id="link_logic_arc_int__baselibs__bit_mask_operator_comp_arc_sta__baselibs__bit_manipulation"><path codeLine="25" d="M3991.0701,201.6001 C3951.6301,222.8901 3893.75,254.14 3854.41,275.38 " fill="transparent" id="logic_arc_int__baselibs__bit_mask_operator-backto-comp_arc_sta__baselibs__bit_manipulation" style="stroke:#181818;stroke-width:1;"/><polygon fill="#181818" points="3996.35,198.75,3986.5301,199.5053,3991.9501,201.1251,3990.3303,206.5451,3996.35,198.75" style="stroke:#181818;stroke-width:1;"/><text fill="#000000" font-family="sans-serif" font-size="13" lengthAdjust="spacing" textLength="76.9082" x="3939" y="241.5669">implements</text></g><!--reverse link logic_arc_int__baselibs__task to comp_arc_sta__baselibs__concurrency--><g id="link_logic_arc_int__baselibs__task_comp_arc_sta__baselibs__concurrency"><path codeLine="26" d="M1506.1917,199.5363 C1589.4117,213.1163 1698.59,230.58 1800,245.5 C1870.9,255.94 1949.74,266.71 2015.7,275.48 " fill="transparent" id="logic_arc_int__baselibs__task-backto-comp_arc_sta__baselibs__concurrency" style="stroke:#181818;stroke-width:1;"/><polygon fill="#181818" points="1500.27,198.57,1508.5083,203.9672,1505.2047,199.3753,1509.7967,196.0717,1500.27,198.57" style="stroke:#181818;stroke-width:1;"/><text fill="#000000" font-family="sans-serif" font-size="13" lengthAdjust="spacing" textLength="76.9082" x="1801" y="241.5669">implements</text></g><!--reverse link logic_arc_int__baselibs__memory_shared to comp_arc_sta__baselibs__memory_shared--><g id="link_logic_arc_int__baselibs__memory_shared_comp_arc_sta__baselibs__memory_shared"><path codeLine="27" d="M6025,204.75 C6025,225.98 6025,253.94 6025,275.19 " fill="transparent" id="logic_arc_int__baselibs__memory_shared-backto-comp_arc_sta__baselibs__memory_shared" style="stroke:#181818;stroke-width:1;"/><polygon fill="#181818" points="6025,198.75,6021,207.75,6025,203.75,6029,207.75,6025,198.75" style="stroke:#181818;stroke-width:1;"/><text fill="#000000" font-family="sans-serif" font-size="13" lengthAdjust="spacing" textLength="76.9082" x="6026" y="241.5669">implements</text></g><!--reverse link logic_arc_int__baselibs__message_passing to comp_arc_sta__baselibs__message_passing--><g id="link_logic_arc_int__baselibs__message_passing_comp_arc_sta__baselibs__message_passing"><path codeLine="28" d="M4990.9777,204.7317 C4992.6377,225.9617 4994.83,253.94 4996.49,275.19 " fill="transparent" id="logic_arc_int__baselibs__message_passing-backto-comp_arc_sta__baselibs__message_passing" style="stroke:#181818;stroke-width:1;"/><polygon fill="#181818" points="4990.51,198.75,4987.2238,208.0344,4990.8998,203.7348,4995.1994,207.4108,4990.51,198.75" style="stroke:#181818;stroke-width:1;"/><text fill="#000000" font-family="sans-serif" font-size="13" lengthAdjust="spacing" textLength="76.9082" x="4995" y="241.5669">implements</text></g><!--link Feature_User to logic_arc_int__baselibs__dynamic_array--><g id="link_Feature_User_logic_arc_int__baselibs__dynamic_array"><path codeLine="29" d="M3010.79,45.6 C2807.22,50.69 1955.27,73.3 1257,111.5 C967.35,127.34 894.88,132.13 606,158.5 C600.17,159.03 600.1912,159.0028 594.1912,159.5928 " fill="transparent" id="Feature_User-to-logic_arc_int__baselibs__dynamic_array" style="stroke:#181818;stroke-width:1;"/><polygon fill="#181818" points="588.22,160.18,597.5682,163.28,593.196,159.6907,596.7854,155.3184,588.22,160.18" style="stroke:#181818;stroke-width:1;"/><text fill="#000000" font-family="sans-serif" font-size="13" lengthAdjust="spacing" textLength="23.0103" x="1258" y="124.5669">use</text></g><!--link Feature_User to logic_arc_int__baselibs__future--><g id="link_Feature_User_logic_arc_int__baselibs__future"><path codeLine="30" d="M3101.3,65.14 C3157.21,90.6 3246.0596,131.0732 3300.4496,155.8432 " fill="transparent" id="Feature_User-to-logic_arc_int__baselibs__future" style="stroke:#181818;stroke-width:1;"/><polygon fill="#181818" points="3305.91,158.33,3299.3772,150.9596,3301.3597,156.2577,3296.0616,158.2401,3305.91,158.33" style="stroke:#181818;stroke-width:1;"/><text fill="#000000" font-family="sans-serif" font-size="13" lengthAdjust="spacing" textLength="23.0103" x="3237" y="124.5669">use</text></g><!--reverse link logic_arc_int__baselibs__executor to comp_arc_sta__baselibs__concurrency--><g id="link_logic_arc_int__baselibs__executor_comp_arc_sta__baselibs__concurrency"><path codeLine="31" d="M2916.9229,198.2053 C2816.4229,211.6453 2681.06,229.6 2557,245.5 C2476.12,255.87 2385.88,267.09 2312.09,276.17 " fill="transparent" id="logic_arc_int__baselibs__executor-backto-comp_arc_sta__baselibs__concurrency" style="stroke:#181818;stroke-width:1;"/><polygon fill="#181818" points="2922.87,197.41,2913.4192,194.6383,2917.9141,198.0728,2914.4796,202.5677,2922.87,197.41" style="stroke:#181818;stroke-width:1;"/><text fill="#000000" font-family="sans-serif" font-size="13" lengthAdjust="spacing" textLength="76.9082" x="2681" y="241.5669">implements</text></g><!--link Feature_User to logic_arc_int__baselibs__promise--><g id="link_Feature_User_logic_arc_int__baselibs__promise"><path codeLine="32" d="M3010.9,48.06 C2849.04,60.94 2282.3,107.15 1816,158.5 C1810.34,159.12 1810.5097,159.0861 1804.6697,159.7661 " fill="transparent" id="Feature_User-to-logic_arc_int__baselibs__promise" style="stroke:#181818;stroke-width:1;"/><polygon fill="#181818" points="1798.71,160.46,1808.1122,163.3922,1803.6764,159.8817,1807.187,155.4459,1798.71,160.46" style="stroke:#181818;stroke-width:1;"/><text fill="#000000" font-family="sans-serif" font-size="13" lengthAdjust="spacing" textLength="23.0103" x="2259" y="124.5669">use</text></g><!--reverse link logic_arc_int__baselibs__result to comp_arc_sta__baselibs__result--><g id="link_logic_arc_int__baselibs__result_comp_arc_sta__baselibs__result"><path codeLine="33" d="M4668,204.75 C4668,225.98 4668,253.94 4668,275.19 " fill="transparent" id="logic_arc_int__baselibs__result-backto-comp_arc_sta__baselibs__result" style="stroke:#181818;stroke-width:1;"/><polygon fill="#181818" points="4668,198.75,4664,207.75,4668,203.75,4672,207.75,4668,198.75" style="stroke:#181818;stroke-width:1;"/><text fill="#000000" font-family="sans-serif" font-size="13" lengthAdjust="spacing" textLength="76.9082" x="4669" y="241.5669">implements</text></g><!--link Feature_User to logic_arc_int__baselibs__filesystem--><g id="link_Feature_User_logic_arc_int__baselibs__filesystem"><path codeLine="34" d="M3101.13,48.55 C3256.41,62.56 3782.91,110.76 4217,158.5 C4222.83,159.14 4222.818,159.1354 4228.828,159.8154 " fill="transparent" id="Feature_User-to-logic_arc_int__baselibs__filesystem" style="stroke:#181818;stroke-width:1;"/><polygon fill="#181818" points="4234.79,160.49,4226.2968,155.5035,4229.8217,159.9279,4225.3974,163.4528,4234.79,160.49" style="stroke:#181818;stroke-width:1;"/><text fill="#000000" font-family="sans-serif" font-size="13" lengthAdjust="spacing" textLength="23.0103" x="3931" y="124.5669">use</text></g><!--link Feature_User to logic_arc_int__baselibs__executor--><g id="link_Feature_User_logic_arc_int__baselibs__executor"><path codeLine="35" d="M3056,81.55 C3056,106.45 3056,132.26 3056,152.26 " fill="transparent" id="Feature_User-to-logic_arc_int__baselibs__executor" style="stroke:#181818;stroke-width:1;"/><polygon fill="#181818" points="3056,158.26,3060,149.26,3056,153.26,3052,149.26,3056,158.26" style="stroke:#181818;stroke-width:1;"/><text fill="#000000" font-family="sans-serif" font-size="13" lengthAdjust="spacing" textLength="23.0103" x="3057" y="124.5669">use</text></g><!--link Feature_User to logic_arc_int__baselibs__utils_base64--><g id="link_Feature_User_logic_arc_int__baselibs__utils_base64"><path codeLine="36" d="M3101.21,46.21 C3279.15,53.04 3948.5,79.47 4499,111.5 C4797.89,128.89 4872.9,130.72 5171,158.5 C5176.53,159.02 5176.1999,158.9619 5181.8899,159.5319 " fill="transparent" id="Feature_User-to-logic_arc_int__baselibs__utils_base64" style="stroke:#181818;stroke-width:1;"/><polygon fill="#181818" points="5187.86,160.13,5179.3035,155.2528,5182.8849,159.6316,5178.5061,163.213,5187.86,160.13" style="stroke:#181818;stroke-width:1;"/><text fill="#000000" font-family="sans-serif" font-size="13" lengthAdjust="spacing" textLength="23.0103" x="4791" y="124.5669">use</text></g><!--reverse link logic_arc_int__baselibs__condition_variable to comp_arc_sta__baselibs__concurrency--><g id="link_logic_arc_int__baselibs__condition_variable_comp_arc_sta__baselibs__concurrency"><path codeLine="37" d="M2303.5173,202.0322 C2270.9373,223.3222 2223.77,254.14 2191.26,275.38 " fill="transparent" id="logic_arc_int__baselibs__condition_variable-backto-comp_arc_sta__baselibs__concurrency" style="stroke:#181818;stroke-width:1;"/><polygon fill="#181818" points="2308.54,198.75,2298.8179,200.3248,2304.3544,201.4851,2303.1941,207.0217,2308.54,198.75" style="stroke:#181818;stroke-width:1;"/><text fill="#000000" font-family="sans-serif" font-size="13" lengthAdjust="spacing" textLength="76.9082" x="2261" y="241.5669">implements</text></g><!--reverse link logic_arc_int__baselibs__filesystem to comp_arc_sta__baselibs__filesystem--><g id="link_logic_arc_int__baselibs__filesystem_comp_arc_sta__baselibs__filesystem"><path codeLine="38" d="M4371.0223,204.7317 C4369.3623,225.9617 4367.17,253.94 4365.51,275.19 " fill="transparent" id="logic_arc_int__baselibs__filesystem-backto-comp_arc_sta__baselibs__filesystem" style="stroke:#181818;stroke-width:1;"/><polygon fill="#181818" points="4371.49,198.75,4366.8006,207.4108,4371.1002,203.7348,4374.7762,208.0344,4371.49,198.75" style="stroke:#181818;stroke-width:1;"/><text fill="#000000" font-family="sans-serif" font-size="13" lengthAdjust="spacing" textLength="76.9082" x="4370" y="241.5669">implements</text></g><!--link Feature_User to logic_arc_int__baselibs__synchronized_queue--><g id="link_Feature_User_logic_arc_int__baselibs__synchronized_queue"><path codeLine="39" d="M3010.94,62.02 C2946.73,86.99 2834.9521,130.4654 2768.6321,156.2554 " fill="transparent" id="Feature_User-to-logic_arc_int__baselibs__synchronized_queue" style="stroke:#181818;stroke-width:1;"/><polygon fill="#181818" points="2763.04,158.43,2772.8778,158.8961,2767.7,156.6178,2769.9784,151.4401,2763.04,158.43" style="stroke:#181818;stroke-width:1;"/><text fill="#000000" font-family="sans-serif" font-size="13" lengthAdjust="spacing" textLength="23.0103" x="2875" y="124.5669">use</text></g><!--link Feature_User to logic_arc_int__baselibs__task_result--><g id="link_Feature_User_logic_arc_int__baselibs__task_result"><path codeLine="40" d="M3010.88,46.09 C2806.8,53.56 1949.77,87.75 1250,158.5 C1244.36,159.07 1244.586,159.0323 1238.786,159.6523 " fill="transparent" id="Feature_User-to-logic_arc_int__baselibs__task_result" style="stroke:#181818;stroke-width:1;"/><polygon fill="#181818" points="1232.82,160.29,1242.1942,163.3107,1237.7917,159.7585,1241.3439,155.356,1232.82,160.29" style="stroke:#181818;stroke-width:1;"/><text fill="#000000" font-family="sans-serif" font-size="13" lengthAdjust="spacing" textLength="23.0103" x="1797" y="124.5669">use</text></g><!--reverse link logic_arc_int__baselibs__utils_base64 to comp_arc_sta__baselibs__utils--><g id="link_logic_arc_int__baselibs__utils_base64_comp_arc_sta__baselibs__utils"><path codeLine="41" d="M5362.4324,202.5265 C5388.6424,223.7565 5425.91,253.94 5452.15,275.19 " fill="transparent" id="logic_arc_int__baselibs__utils_base64-backto-comp_arc_sta__baselibs__utils" style="stroke:#181818;stroke-width:1;"/><polygon fill="#181818" points="5357.77,198.75,5362.2459,207.523,5361.6553,201.8971,5367.2813,201.3065,5357.77,198.75" style="stroke:#181818;stroke-width:1;"/><text fill="#000000" font-family="sans-serif" font-size="13" lengthAdjust="spacing" textLength="76.9082" x="5414" y="241.5669">implements</text></g><!--reverse link logic_arc_int__baselibs__intrusive_list to comp_arc_sta__baselibs__containers--><g id="link_logic_arc_int__baselibs__intrusive_list_comp_arc_sta__baselibs__containers"><path codeLine="42" d="M732.1918,201.7979 C696.0918,223.0879 643.44,254.14 607.42,275.38 " fill="transparent" id="logic_arc_int__baselibs__intrusive_list-backto-comp_arc_sta__baselibs__containers" style="stroke:#181818;stroke-width:1;"/><polygon fill="#181818" points="737.36,198.75,727.5758,199.8765,733.0532,201.2899,731.6397,206.7674,737.36,198.75" style="stroke:#181818;stroke-width:1;"/><text fill="#000000" font-family="sans-serif" font-size="13" lengthAdjust="spacing" textLength="76.9082" x="686" y="241.5669">implements</text></g><!--reverse link logic_arc_int__baselibs__future to comp_arc_sta__baselibs__concurrency--><g id="link_logic_arc_int__baselibs__future_comp_arc_sta__baselibs__concurrency"><path codeLine="43" d="M3218.2766,197.1267 C3212.4566,197.8567 3212.64,197.82 3207,198.5 C3011.31,222.11 2962.25,227.08 2766,245.5 C2611.5,260 2434.53,274.06 2312.26,283.37 " fill="transparent" id="logic_arc_int__baselibs__future-backto-comp_arc_sta__baselibs__concurrency" style="stroke:#181818;stroke-width:1;"/><polygon fill="#181818" points="3224.23,196.38,3214.8022,193.5312,3219.2689,197.0023,3215.7978,201.469,3224.23,196.38" style="stroke:#181818;stroke-width:1;"/><text fill="#000000" font-family="sans-serif" font-size="13" lengthAdjust="spacing" textLength="76.9082" x="2943" y="241.5669">implements</text></g><!--reverse link logic_arc_int__baselibs__synchronized_queue to comp_arc_sta__baselibs__concurrency--><g id="link_logic_arc_int__baselibs__synchronized_queue_comp_arc_sta__baselibs__concurrency"><path codeLine="44" d="M2616.6661,199.7739 C2514.4861,221.0639 2355.89,254.11 2253.64,275.41 " fill="transparent" id="logic_arc_int__baselibs__synchronized_queue-backto-comp_arc_sta__baselibs__concurrency" style="stroke:#181818;stroke-width:1;"/><polygon fill="#181818" points="2622.54,198.55,2612.9133,196.4699,2617.6451,199.5699,2614.5451,204.3017,2622.54,198.55" style="stroke:#181818;stroke-width:1;"/><text fill="#000000" font-family="sans-serif" font-size="13" lengthAdjust="spacing" textLength="76.9082" x="2472" y="241.5669">implements</text></g><!--reverse link logic_arc_int__baselibs__dynamic_array to comp_arc_sta__baselibs__containers--><g id="link_logic_arc_int__baselibs__dynamic_array_comp_arc_sta__baselibs__containers"><path codeLine="45" d="M462.2496,202.5422 C488.2796,223.7722 525.26,253.94 551.32,275.19 " fill="transparent" id="logic_arc_int__baselibs__dynamic_array-backto-comp_arc_sta__baselibs__containers" style="stroke:#181818;stroke-width:1;"/><polygon fill="#181818" points="457.6,198.75,462.0463,207.5381,461.4747,201.9102,467.1026,201.3386,457.6,198.75" style="stroke:#181818;stroke-width:1;"/><text fill="#000000" font-family="sans-serif" font-size="13" lengthAdjust="spacing" textLength="76.9082" x="514" y="241.5669">implements</text></g><!--link Feature_User to logic_arc_int__baselibs__result--><g id="link_Feature_User_logic_arc_int__baselibs__result"><path codeLine="46" d="M3101.3,46.94 C3281.84,56.9 3967.45,96.85 4529,158.5 C4534.45,159.1 4534.0522,159.0297 4539.6722,159.6997 " fill="transparent" id="Feature_User-to-logic_arc_int__baselibs__result" style="stroke:#181818;stroke-width:1;"/><polygon fill="#181818" points="4545.63,160.41,4537.1668,155.3727,4540.6652,159.8181,4536.2198,163.3165,4545.63,160.41" style="stroke:#181818;stroke-width:1;"/><text fill="#000000" font-family="sans-serif" font-size="13" lengthAdjust="spacing" textLength="23.0103" x="4207" y="124.5669">use</text></g><!--reverse link logic_arc_int__baselibs__promise to comp_arc_sta__baselibs__concurrency--><g id="link_logic_arc_int__baselibs__promise_comp_arc_sta__baselibs__concurrency"><path codeLine="47" d="M1755.6937,199.9104 C1847.1437,221.2004 1988.48,254.11 2079.99,275.41 " fill="transparent" id="logic_arc_int__baselibs__promise-backto-comp_arc_sta__baselibs__concurrency" style="stroke:#181818;stroke-width:1;"/><polygon fill="#181818" points="1749.85,198.55,1757.7086,204.4865,1754.7198,199.6837,1759.5226,196.6949,1749.85,198.55" style="stroke:#181818;stroke-width:1;"/><text fill="#000000" font-family="sans-serif" font-size="13" lengthAdjust="spacing" textLength="76.9082" x="1946" y="241.5669">implements</text></g><!--reverse link logic_arc_int__baselibs__json to comp_arc_sta__baselibs__json--><g id="link_logic_arc_int__baselibs__json_comp_arc_sta__baselibs__json"><path codeLine="48" d="M128,204.75 C128,225.98 128,253.94 128,275.19 " fill="transparent" id="logic_arc_int__baselibs__json-backto-comp_arc_sta__baselibs__json" style="stroke:#181818;stroke-width:1;"/><polygon fill="#181818" points="128,198.75,124,207.75,128,203.75,132,207.75,128,198.75" style="stroke:#181818;stroke-width:1;"/><text fill="#000000" font-family="sans-serif" font-size="13" lengthAdjust="spacing" textLength="76.9082" x="129" y="241.5669">implements</text></g><!--link Feature_User to logic_arc_int__baselibs__shared_future--><g id="link_Feature_User_logic_arc_int__baselibs__shared_future"><path codeLine="49" d="M3010.66,50.13 C2861.86,68.61 2389.7143,127.2405 2142.3643,157.9605 " fill="transparent" id="Feature_User-to-logic_arc_int__baselibs__shared_future" style="stroke:#181818;stroke-width:1;"/><polygon fill="#181818" points="2136.41,158.7,2145.8344,161.5603,2141.3719,158.0838,2144.8484,153.6213,2136.41,158.7" style="stroke:#181818;stroke-width:1;"/><text fill="#000000" font-family="sans-serif" font-size="13" lengthAdjust="spacing" textLength="23.0103" x="2489" y="124.5669">use</text></g><!--reverse link logic_arc_int__baselibs__bit_manipulation to comp_arc_sta__baselibs__bit_manipulation--><g id="link_logic_arc_int__baselibs__bit_manipulation_comp_arc_sta__baselibs__bit_manipulation"><path codeLine="50" d="M3698.0436,202.3849 C3726.0036,223.6749 3766.01,254.14 3793.9,275.38 " fill="transparent" id="logic_arc_int__baselibs__bit_manipulation-backto-comp_arc_sta__baselibs__bit_manipulation" style="stroke:#181818;stroke-width:1;"/><polygon fill="#181818" points="3693.27,198.75,3698.0072,207.3847,3697.248,201.7791,3702.8537,201.0199,3693.27,198.75" style="stroke:#181818;stroke-width:1;"/><text fill="#000000" font-family="sans-serif" font-size="13" lengthAdjust="spacing" textLength="76.9082" x="3753" y="241.5669">implements</text></g><!--reverse link logic_arc_int__baselibs__task_result to comp_arc_sta__baselibs__concurrency--><g id="link_logic_arc_int__baselibs__task_result_comp_arc_sta__baselibs__concurrency"><path codeLine="51" d="M1236.5569,199.3166 C1341.2169,213.3366 1482.51,231.52 1612,245.5 C1747.1,260.09 1901.22,273.54 2011.87,282.65 " fill="transparent" id="logic_arc_int__baselibs__task_result-backto-comp_arc_sta__baselibs__concurrency" style="stroke:#181818;stroke-width:1;"/><polygon fill="#181818" points="1230.61,198.52,1238.9992,203.6795,1235.5657,199.1839,1240.0614,195.7504,1230.61,198.52" style="stroke:#181818;stroke-width:1;"/><text fill="#000000" font-family="sans-serif" font-size="13" lengthAdjust="spacing" textLength="76.9082" x="1613" y="241.5669">implements</text></g><!--link Feature_User to logic_arc_int__baselibs__json--><g id="link_Feature_User_logic_arc_int__baselibs__json"><path codeLine="52" d="M3010.97,45.3 C2787.18,49.43 1772.19,69.67 942,111.5 C639.44,126.75 563.28,126.77 262,158.5 C256.27,159.1 256.3772,159.0443 250.4672,159.7543 " fill="transparent" id="Feature_User-to-logic_arc_int__baselibs__json" style="stroke:#181818;stroke-width:1;"/><polygon fill="#181818" points="244.51,160.47,253.9229,163.3679,249.4743,159.8736,252.9686,155.4251,244.51,160.47" style="stroke:#181818;stroke-width:1;"/><text fill="#000000" font-family="sans-serif" font-size="13" lengthAdjust="spacing" textLength="23.0103" x="943" y="124.5669">use</text></g><!--SRC=[hLOzRzmm3DtzAuJibnP5qI48iXJebB6T1LfcxjZemnMfD6xH_rxPlYHtbqDaEnvfKnJVU_mGM1j-QqUFvBULX5P9K7KG2Kur5D481L_jg475WX63T2sEDhfMEWKYaUeaoDKrIsVnfhe49bkhlzKjUVmQR8WgOZDOttTaxZqogq-N7wj_rVM7_PaAZ6I_Ysy8aYAg7upnGW6h_GVTVr1LTMHkcisDic5BHaCqchneNGEZfPgrTkX2x3Jl8Dz-fHAZcdFS1DzGZru_G2IeBSwFKPDe1tolGuiHCi1z21DSE_YpmA5_4hAiDkcjc8EFPfD3DZdkbIBNMdJeXHVavgbD5dgOyz6zokHDR9bFas94Rxe2mb4nVPVwH1RZSxdAO8kw1UPSs_FXPJCcfWVKbbZcdvSiV86JKmqAn9mffqDoti_ycFAKc4VDLOXwqeZJmX-9LxpWHEg59TDq7jpmAq8tN_2dWbsf3V0HJNebyenysXWSSIcXY9oi578PdHPdSaSMkSiBnCrdzOM6PVEfjxzyNasLSsjXIaM_K52uu92hXNHpvyqk1az_yXZzbJ3XikdrBFjAI-j9Yeb3Io2_668fzEcONdSYdbj2AsouCmAjIih995jOHvFaduxwUHvDWVgJY-kmTrdU8yUFZFNNzE7BQlqj_Tw9F78teFuF]--></g></svg>