<svg xmlns="http://www.w3.org/2000/svg" xmlns:xlink="http://www.w3.org/1999/xlink" contentStyleType="text/css" data-diagram-type="CLASS" height="322px" preserveAspectRatio="none" style="width:6191px;height:322px;background:#FFFFFF;" version="1.1" viewBox="0 0 6191 322" width="6191px" zoomAndPan="magnify"><defs/><g><!--entity Feature_User--><g id="elem_Feature_User"><ellipse cx="3065.6685" cy="14" fill="#F1F1F1" rx="8" ry="8" style="stroke:#181818;stroke-width:0.5;"/><path d="M3065.6685,22 L3065.6685,49 M3052.6685,30 L3078.6685,30 M3065.6685,49 L3052.6685,64 M3065.6685,49 L3078.6685,64 " fill="transparent" style="stroke:#181818;stroke-width:0.5;"/><text fill="#000000" font-family="sans-serif" font-size="14" lengthAdjust="spacing" textLength="90.3369" x="3020.5" y="78.4951">Feature User</text></g><!--class comp_arc_sta__baselibs__bit_manipulation--><g id="elem_comp_arc_sta__baselibs__bit_manipulation"><rect fill="#F1F1F1" height="40" id="comp_arc_sta__baselibs__bit_manipulation" rx="2.5" ry="2.5" style="stroke:#181818;stroke-width:0.5;" width="330.8057" x="5393" y="275.5"/><ellipse cx="5408" cy="291.5" fill="#ADD1B2" rx="11" ry="11" style="stroke:#181818;stroke-width:1;"/><path d="M5410.9688,297.1406 Q5410.3906,297.4375 5409.75,297.5781 Q5409.1094,297.7344 5408.4063,297.7344 Q5405.9063,297.7344 5404.5781,296.0938 Q5403.2656,294.4375 5403.2656,291.3125 Q5403.2656,288.1875 5404.5781,286.5313 Q5405.9063,284.875 5408.4063,284.875 Q5409.1094,284.875 5409.75,285.0313 Q5410.4063,285.1875 5410.9688,285.4844 L5410.9688,288.2031 Q5410.3438,287.625 5409.75,287.3594 Q5409.1563,287.0781 5408.5313,287.0781 Q5407.1875,287.0781 5406.5,288.1563 Q5405.8125,289.2188 5405.8125,291.3125 Q5405.8125,293.4063 5406.5,294.4844 Q5407.1875,295.5469 5408.5313,295.5469 Q5409.1563,295.5469 5409.75,295.2813 Q5410.3438,295 5410.9688,294.4219 L5410.9688,297.1406 Z " fill="#000000"/><text fill="#000000" font-family="sans-serif" font-size="14" lengthAdjust="spacing" textLength="298.8057" x="5422" y="296.3467">comp_arc_sta__baselibs__bit_manipulation</text><line style="stroke:#181818;stroke-width:0.5;" x1="5394" x2="5722.8057" y1="307.5" y2="307.5"/></g><!--class logic_arc_int__baselibs__bit_mask_operator--><g id="elem_logic_arc_int__baselibs__bit_mask_operator"><rect fill="#F1F1F1" height="40" id="logic_arc_int__baselibs__bit_mask_operator" rx="2.5" ry="2.5" style="stroke:#181818;stroke-width:0.5;" width="334.6406" x="5565" y="158.5"/><ellipse cx="5580" cy="174.5" fill="#ADD1B2" rx="11" ry="11" style="stroke:#181818;stroke-width:1;"/><path d="M5582.9688,180.1406 Q5582.3906,180.4375 5581.75,180.5781 Q5581.1094,180.7344 5580.4063,180.7344 Q5577.9063,180.7344 5576.5781,179.0938 Q5575.2656,177.4375 5575.2656,174.3125 Q5575.2656,171.1875 5576.5781,169.5313 Q5577.9063,167.875 5580.4063,167.875 Q5581.1094,167.875 5581.75,168.0313 Q5582.4063,168.1875 5582.9688,168.4844 L5582.9688,171.2031 Q5582.3438,170.625 5581.75,170.3594 Q5581.1563,170.0781 5580.5313,170.0781 Q5579.1875,170.0781 5578.5,171.1563 Q5577.8125,172.2188 5577.8125,174.3125 Q5577.8125,176.4063 5578.5,177.4844 Q5579.1875,178.5469 5580.5313,178.5469 Q5581.1563,178.5469 5581.75,178.2813 Q5582.3438,178 5582.9688,177.4219 L5582.9688,180.1406 Z " fill="#000000"/><text fill="#000000" font-family="sans-serif" font-size="14" lengthAdjust="spacing" textLength="302.6406" x="5594" y="179.3467">logic_arc_int__baselibs__bit_mask_operator</text><line style="stroke:#181818;stroke-width:0.5;" x1="5566" x2="5898.6406" y1="190.5" y2="190.5"/></g><!--class logic_arc_int__baselibs__executor--><g id="elem_logic_arc_int__baselibs__executor"><rect fill="#F1F1F1" height="40" id="logic_arc_int__baselibs__executor" rx="2.5" ry="2.5" style="stroke:#181818;stroke-width:0.5;" width="266.4385" x="2932.5" y="158.5"/><ellipse cx="2947.5" cy="174.5" fill="#ADD1B2" rx="11" ry="11" style="stroke:#181818;stroke-width:1;"/><path d="M2950.4688,180.1406 Q2949.8906,180.4375 2949.25,180.5781 Q2948.6094,180.7344 2947.9063,180.7344 Q2945.4063,180.7344 2944.0781,179.0938 Q2942.7656,177.4375 2942.7656,174.3125 Q2942.7656,171.1875 2944.0781,169.5313 Q2945.4063,167.875 2947.9063,167.875 Q2948.6094,167.875 2949.25,168.0313 Q2949.9063,168.1875 2950.4688,168.4844 L2950.4688,171.2031 Q2949.8438,170.625 2949.25,170.3594 Q2948.6563,170.0781 2948.0313,170.0781 Q2946.6875,170.0781 2946,171.1563 Q2945.3125,172.2188 2945.3125,174.3125 Q2945.3125,176.4063 2946,177.4844 Q2946.6875,178.5469 2948.0313,178.5469 Q2948.6563,178.5469 2949.25,178.2813 Q2949.8438,178 2950.4688,177.4219 L2950.4688,180.1406 Z " fill="#000000"/><text fill="#000000" font-family="sans-serif" font-size="14" lengthAdjust="spacing" textLength="234.4385" x="2961.5" y="179.3467">logic_arc_int__baselibs__executor</text><line style="stroke:#181818;stroke-width:0.5;" x1="2933.5" x2="3197.9385" y1="190.5" y2="190.5"/></g><!--class comp_arc_sta__baselibs__result--><g id="elem_comp_arc_sta__baselibs__result"><rect fill="#F1F1F1" height="40" id="comp_arc_sta__baselibs__result" rx="2.5" ry="2.5" style="stroke:#181818;stroke-width:0.5;" width="253.4297" x="5931" y="275.5"/><ellipse cx="5946" cy="291.5" fill="#ADD1B2" rx="11" ry="11" style="stroke:#181818;stroke-width:1;"/><path d="M5948.9688,297.1406 Q5948.3906,297.4375 5947.75,297.5781 Q5947.1094,297.7344 5946.4063,297.7344 Q5943.9063,297.7344 5942.5781,296.0938 Q5941.2656,294.4375 5941.2656,291.3125 Q5941.2656,288.1875 5942.5781,286.5313 Q5943.9063,284.875 5946.4063,284.875 Q5947.1094,284.875 5947.75,285.0313 Q5948.4063,285.1875 5948.9688,285.4844 L5948.9688,288.2031 Q5948.3438,287.625 5947.75,287.3594 Q5947.1563,287.0781 5946.5313,287.0781 Q5945.1875,287.0781 5944.5,288.1563 Q5943.8125,289.2188 5943.8125,291.3125 Q5943.8125,293.4063 5944.5,294.4844 Q5945.1875,295.5469 5946.5313,295.5469 Q5947.1563,295.5469 5947.75,295.2813 Q5948.3438,295 5948.9688,294.4219 L5948.9688,297.1406 Z " fill="#000000"/><text fill="#000000" font-family="sans-serif" font-size="14" lengthAdjust="spacing" textLength="221.4297" x="5960" y="296.3467">comp_arc_sta__baselibs__result</text><line style="stroke:#181818;stroke-width:0.5;" x1="5932" x2="6183.4297" y1="307.5" y2="307.5"/></g><!--class logic_arc_int__baselibs__result--><g id="elem_logic_arc_int__baselibs__result"><rect fill="#F1F1F1" height="40" id="logic_arc_int__baselibs__result" rx="2.5" ry="2.5" style="stroke:#181818;stroke-width:0.5;" width="244.4609" x="5935.5" y="158.5"/><ellipse cx="5950.5" cy="174.5" fill="#ADD1B2" rx="11" ry="11" style="stroke:#181818;stroke-width:1;"/><path d="M5953.4688,180.1406 Q5952.8906,180.4375 5952.25,180.5781 Q5951.6094,180.7344 5950.9063,180.7344 Q5948.4063,180.7344 5947.0781,179.0938 Q5945.7656,177.4375 5945.7656,174.3125 Q5945.7656,171.1875 5947.0781,169.5313 Q5948.4063,167.875 5950.9063,167.875 Q5951.6094,167.875 5952.25,168.0313 Q5952.9063,168.1875 5953.4688,168.4844 L5953.4688,171.2031 Q5952.8438,170.625 5952.25,170.3594 Q5951.6563,170.0781 5951.0313,170.0781 Q5949.6875,170.0781 5949,171.1563 Q5948.3125,172.2188 5948.3125,174.3125 Q5948.3125,176.4063 5949,177.4844 Q5949.6875,178.5469 5951.0313,178.5469 Q5951.6563,178.5469 5952.25,178.2813 Q5952.8438,178 5953.4688,177.4219 L5953.4688,180.1406 Z " fill="#000000"/><text fill="#000000" font-family="sans-serif" font-size="14" lengthAdjust="spacing" textLength="212.4609" x="5964.5" y="179.3467">logic_arc_int__baselibs__result</text><line style="stroke:#181818;stroke-width:0.5;" x1="5936.5" x2="6178.9609" y1="190.5" y2="190.5"/></g><!--class logic_arc_int__baselibs__synchronized_queue--><g id="elem_logic_arc_int__baselibs__synchronized_queue"><rect fill="#F1F1F1" height="40" id="logic_arc_int__baselibs__synchronized_queue" rx="2.5" ry="2.5" style="stroke:#181818;stroke-width:0.5;" width="348.3604" x="1264.5" y="158.5"/><ellipse cx="1279.5" cy="174.5" fill="#ADD1B2" rx="11" ry="11" style="stroke:#181818;stroke-width:1;"/><path d="M1282.4688,180.1406 Q1281.8906,180.4375 1281.25,180.5781 Q1280.6094,180.7344 1279.9063,180.7344 Q1277.4063,180.7344 1276.0781,179.0938 Q1274.7656,177.4375 1274.7656,174.3125 Q1274.7656,171.1875 1276.0781,169.5313 Q1277.4063,167.875 1279.9063,167.875 Q1280.6094,167.875 1281.25,168.0313 Q1281.9063,168.1875 1282.4688,168.4844 L1282.4688,171.2031 Q1281.8438,170.625 1281.25,170.3594 Q1280.6563,170.0781 1280.0313,170.0781 Q1278.6875,170.0781 1278,171.1563 Q1277.3125,172.2188 1277.3125,174.3125 Q1277.3125,176.4063 1278,177.4844 Q1278.6875,178.5469 1280.0313,178.5469 Q1280.6563,178.5469 1281.25,178.2813 Q1281.8438,178 1282.4688,177.4219 L1282.4688,180.1406 Z " fill="#000000"/><text fill="#000000" font-family="sans-serif" font-size="14" lengthAdjust="spacing" textLength="316.3604" x="1293.5" y="179.3467">logic_arc_int__baselibs__synchronized_queue</text><line style="stroke:#181818;stroke-width:0.5;" x1="1265.5" x2="1611.8604" y1="190.5" y2="190.5"/></g><!--class logic_arc_int__baselibs__shared_future--><g id="elem_logic_arc_int__baselibs__shared_future"><rect fill="#F1F1F1" height="40" id="logic_arc_int__baselibs__shared_future" rx="2.5" ry="2.5" style="stroke:#181818;stroke-width:0.5;" width="302.0811" x="2226.5" y="158.5"/><ellipse cx="2241.5" cy="174.5" fill="#ADD1B2" rx="11" ry="11" style="stroke:#181818;stroke-width:1;"/><path d="M2244.4688,180.1406 Q2243.8906,180.4375 2243.25,180.5781 Q2242.6094,180.7344 2241.9063,180.7344 Q2239.4063,180.7344 2238.0781,179.0938 Q2236.7656,177.4375 2236.7656,174.3125 Q2236.7656,171.1875 2238.0781,169.5313 Q2239.4063,167.875 2241.9063,167.875 Q2242.6094,167.875 2243.25,168.0313 Q2243.9063,168.1875 2244.4688,168.4844 L2244.4688,171.2031 Q2243.8438,170.625 2243.25,170.3594 Q2242.6563,170.0781 2242.0313,170.0781 Q2240.6875,170.0781 2240,171.1563 Q2239.3125,172.2188 2239.3125,174.3125 Q2239.3125,176.4063 2240,177.4844 Q2240.6875,178.5469 2242.0313,178.5469 Q2242.6563,178.5469 2243.25,178.2813 Q2243.8438,178 2244.4688,177.4219 L2244.4688,180.1406 Z " fill="#000000"/><text fill="#000000" font-family="sans-serif" font-size="14" lengthAdjust="spacing" textLength="270.0811" x="2255.5" y="179.3467">logic_arc_int__baselibs__shared_future</text><line style="stroke:#181818;stroke-width:0.5;" x1="2227.5" x2="2527.5811" y1="190.5" y2="190.5"/></g><!--class logic_arc_int__baselibs__task_result--><g id="elem_logic_arc_int__baselibs__task_result"><rect fill="#F1F1F1" height="40" id="logic_arc_int__baselibs__task_result" rx="2.5" ry="2.5" style="stroke:#181818;stroke-width:0.5;" width="280.9307" x="948" y="158.5"/><ellipse cx="963" cy="174.5" fill="#ADD1B2" rx="11" ry="11" style="stroke:#181818;stroke-width:1;"/><path d="M965.9688,180.1406 Q965.3906,180.4375 964.75,180.5781 Q964.1094,180.7344 963.4063,180.7344 Q960.9063,180.7344 959.5781,179.0938 Q958.2656,177.4375 958.2656,174.3125 Q958.2656,171.1875 959.5781,169.5313 Q960.9063,167.875 963.4063,167.875 Q964.1094,167.875 964.75,168.0313 Q965.4063,168.1875 965.9688,168.4844 L965.9688,171.2031 Q965.3438,170.625 964.75,170.3594 Q964.1563,170.0781 963.5313,170.0781 Q962.1875,170.0781 961.5,171.1563 Q960.8125,172.2188 960.8125,174.3125 Q960.8125,176.4063 961.5,177.4844 Q962.1875,178.5469 963.5313,178.5469 Q964.1563,178.5469 964.75,178.2813 Q965.3438,178 965.9688,177.4219 L965.9688,180.1406 Z " fill="#000000"/><text fill="#000000" font-family="sans-serif" font-size="14" lengthAdjust="spacing" textLength="248.9307" x="977" y="179.3467">logic_arc_int__baselibs__task_result</text><line style="stroke:#181818;stroke-width:0.5;" x1="949" x2="1227.9307" y1="190.5" y2="190.5"/></g><!--class logic_arc_int__baselibs__filesystem--><g id="elem_logic_arc_int__baselibs__filesystem"><rect fill="#F1F1F1" height="40" id="logic_arc_int__baselibs__filesystem" rx="2.5" ry="2.5" style="stroke:#181818;stroke-width:0.5;" width="276.4805" x="4264.5" y="158.5"/><ellipse cx="4279.5" cy="174.5" fill="#ADD1B2" rx="11" ry="11" style="stroke:#181818;stroke-width:1;"/><path d="M4282.4688,180.1406 Q4281.8906,180.4375 4281.25,180.5781 Q4280.6094,180.7344 4279.9063,180.7344 Q4277.4063,180.7344 4276.0781,179.0938 Q4274.7656,177.4375 4274.7656,174.3125 Q4274.7656,171.1875 4276.0781,169.5313 Q4277.4063,167.875 4279.9063,167.875 Q4280.6094,167.875 4281.25,168.0313 Q4281.9063,168.1875 4282.4688,168.4844 L4282.4688,171.2031 Q4281.8438,170.625 4281.25,170.3594 Q4280.6563,170.0781 4280.0313,170.0781 Q4278.6875,170.0781 4278,171.1563 Q4277.3125,172.2188 4277.3125,174.3125 Q4277.3125,176.4063 4278,177.4844 Q4278.6875,178.5469 4280.0313,178.5469 Q4280.6563,178.5469 4281.25,178.2813 Q4281.8438,178 4282.4688,177.4219 L4282.4688,180.1406 Z " fill="#000000"/><text fill="#000000" font-family="sans-serif" font-size="14" lengthAdjust="spacing" textLength="244.4805" x="4293.5" y="179.3467">logic_arc_int__baselibs__filesystem</text><line style="stroke:#181818;stroke-width:0.5;" x1="4265.5" x2="4539.9805" y1="190.5" y2="190.5"/></g><!--class logic_arc_int__baselibs__json--><g id="elem_logic_arc_int__baselibs__json"><rect fill="#F1F1F1" height="40" id="logic_arc_int__baselibs__json" rx="2.5" ry="2.5" style="stroke:#181818;stroke-width:0.5;" width="233.168" x="4939" y="158.5"/><ellipse cx="4954" cy="174.5" fill="#ADD1B2" rx="11" ry="11" style="stroke:#181818;stroke-width:1;"/><path d="M4956.9688,180.1406 Q4956.3906,180.4375 4955.75,180.5781 Q4955.1094,180.7344 4954.4063,180.7344 Q4951.9063,180.7344 4950.5781,179.0938 Q4949.2656,177.4375 4949.2656,174.3125 Q4949.2656,171.1875 4950.5781,169.5313 Q4951.9063,167.875 4954.4063,167.875 Q4955.1094,167.875 4955.75,168.0313 Q4956.4063,168.1875 4956.9688,168.4844 L4956.9688,171.2031 Q4956.3438,170.625 4955.75,170.3594 Q4955.1563,170.0781 4954.5313,170.0781 Q4953.1875,170.0781 4952.5,171.1563 Q4951.8125,172.2188 4951.8125,174.3125 Q4951.8125,176.4063 4952.5,177.4844 Q4953.1875,178.5469 4954.5313,178.5469 Q4955.1563,178.5469 4955.75,178.2813 Q4956.3438,178 4956.9688,177.4219 L4956.9688,180.1406 Z " fill="#000000"/><text fill="#000000" font-family="sans-serif" font-size="14" lengthAdjust="spacing" textLength="201.168" x="4968" y="179.3467">logic_arc_int__baselibs__json</text><line style="stroke:#181818;stroke-width:0.5;" x1="4940" x2="5171.168" y1="190.5" y2="190.5"/></g><!--class logic_arc_int__baselibs__utils_base64--><g id="elem_logic_arc_int__baselibs__utils_base64"><rect fill="#F1F1F1" height="40" id="logic_arc_int__baselibs__utils_base64" rx="2.5" ry="2.5" style="stroke:#181818;stroke-width:0.5;" width="292.1689" x="3937.5" y="158.5"/><ellipse cx="3952.5" cy="174.5" fill="#ADD1B2" rx="11" ry="11" style="stroke:#181818;stroke-width:1;"/><path d="M3955.4688,180.1406 Q3954.8906,180.4375 3954.25,180.5781 Q3953.6094,180.7344 3952.9063,180.7344 Q3950.4063,180.7344 3949.0781,179.0938 Q3947.7656,177.4375 3947.7656,174.3125 Q3947.7656,171.1875 3949.0781,169.5313 Q3950.4063,167.875 3952.9063,167.875 Q3953.6094,167.875 3954.25,168.0313 Q3954.9063,168.1875 3955.4688,168.4844 L3955.4688,171.2031 Q3954.8438,170.625 3954.25,170.3594 Q3953.6563,170.0781 3953.0313,170.0781 Q3951.6875,170.0781 3951,171.1563 Q3950.3125,172.2188 3950.3125,174.3125 Q3950.3125,176.4063 3951,177.4844 Q3951.6875,178.5469 3953.0313,178.5469 Q3953.6563,178.5469 3954.25,178.2813 Q3954.8438,178 3955.4688,177.4219 L3955.4688,180.1406 Z " fill="#000000"/><text fill="#000000" font-family="sans-serif" font-size="14" lengthAdjust="spacing" textLength="260.1689" x="3966.5" y="179.3467">logic_arc_int__baselibs__utils_base64</text><line style="stroke:#181818;stroke-width:0.5;" x1="3938.5" x2="4228.6689" y1="190.5" y2="190.5"/></g><!--class logic_arc_int__baselibs__bit_manipulation--><g id="elem_logic_arc_int__baselibs__bit_manipulation"><rect fill="#F1F1F1" height="40" id="logic_arc_int__baselibs__bit_manipulation" rx="2.5" ry="2.5" style="stroke:#181818;stroke-width:0.5;" width="321.8369" x="5207.5" y="158.5"/><ellipse cx="5222.5" cy="174.5" fill="#ADD1B2" rx="11" ry="11" style="stroke:#181818;stroke-width:1;"/><path d="M5225.4688,180.1406 Q5224.8906,180.4375 5224.25,180.5781 Q5223.6094,180.7344 5222.9063,180.7344 Q5220.4063,180.7344 5219.0781,179.0938 Q5217.7656,177.4375 5217.7656,174.3125 Q5217.7656,171.1875 5219.0781,169.5313 Q5220.4063,167.875 5222.9063,167.875 Q5223.6094,167.875 5224.25,168.0313 Q5224.9063,168.1875 5225.4688,168.4844 L5225.4688,171.2031 Q5224.8438,170.625 5224.25,170.3594 Q5223.6563,170.0781 5223.0313,170.0781 Q5221.6875,170.0781 5221,171.1563 Q5220.3125,172.2188 5220.3125,174.3125 Q5220.3125,176.4063 5221,177.4844 Q5221.6875,178.5469 5223.0313,178.5469 Q5223.6563,178.5469 5224.25,178.2813 Q5224.8438,178 5225.4688,177.4219 L5225.4688,180.1406 Z " fill="#000000"/><text fill="#000000" font-family="sans-serif" font-size="14" lengthAdjust="spacing" textLength="289.8369" x="5236.5" y="179.3467">logic_arc_int__baselibs__bit_manipulation</text><line style="stroke:#181818;stroke-width:0.5;" x1="5208.5" x2="5528.3369" y1="190.5" y2="190.5"/></g><!--class comp_arc_sta__baselibs__utils--><g id="elem_comp_arc_sta__baselibs__utils"><rect fill="#F1F1F1" height="40" id="comp_arc_sta__baselibs__utils" rx="2.5" ry="2.5" style="stroke:#181818;stroke-width:0.5;" width="242.9502" x="3792" y="275.5"/><ellipse cx="3807" cy="291.5" fill="#ADD1B2" rx="11" ry="11" style="stroke:#181818;stroke-width:1;"/><path d="M3809.9688,297.1406 Q3809.3906,297.4375 3808.75,297.5781 Q3808.1094,297.7344 3807.4063,297.7344 Q3804.9063,297.7344 3803.5781,296.0938 Q3802.2656,294.4375 3802.2656,291.3125 Q3802.2656,288.1875 3803.5781,286.5313 Q3804.9063,284.875 3807.4063,284.875 Q3808.1094,284.875 3808.75,285.0313 Q3809.4063,285.1875 3809.9688,285.4844 L3809.9688,288.2031 Q3809.3438,287.625 3808.75,287.3594 Q3808.1563,287.0781 3807.5313,287.0781 Q3806.1875,287.0781 3805.5,288.1563 Q3804.8125,289.2188 3804.8125,291.3125 Q3804.8125,293.4063 3805.5,294.4844 Q3806.1875,295.5469 3807.5313,295.5469 Q3808.1563,295.5469 3808.75,295.2813 Q3809.3438,295 3809.9688,294.4219 L3809.9688,297.1406 Z " fill="#000000"/><text fill="#000000" font-family="sans-serif" font-size="14" lengthAdjust="spacing" textLength="210.9502" x="3821" y="296.3467">comp_arc_sta__baselibs__utils</text><line style="stroke:#181818;stroke-width:0.5;" x1="3793" x2="4033.9502" y1="307.5" y2="307.5"/></g><!--class logic_arc_int__baselibs__utils_scoped_op--><g id="elem_logic_arc_int__baselibs__utils_scoped_op"><rect fill="#F1F1F1" height="40" id="logic_arc_int__baselibs__utils_scoped_op" rx="2.5" ry="2.5" style="stroke:#181818;stroke-width:0.5;" width="315.377" x="3587" y="158.5"/><ellipse cx="3602" cy="174.5" fill="#ADD1B2" rx="11" ry="11" style="stroke:#181818;stroke-width:1;"/><path d="M3604.9688,180.1406 Q3604.3906,180.4375 3603.75,180.5781 Q3603.1094,180.7344 3602.4063,180.7344 Q3599.9063,180.7344 3598.5781,179.0938 Q3597.2656,177.4375 3597.2656,174.3125 Q3597.2656,171.1875 3598.5781,169.5313 Q3599.9063,167.875 3602.4063,167.875 Q3603.1094,167.875 3603.75,168.0313 Q3604.4063,168.1875 3604.9688,168.4844 L3604.9688,171.2031 Q3604.3438,170.625 3603.75,170.3594 Q3603.1563,170.0781 3602.5313,170.0781 Q3601.1875,170.0781 3600.5,171.1563 Q3599.8125,172.2188 3599.8125,174.3125 Q3599.8125,176.4063 3600.5,177.4844 Q3601.1875,178.5469 3602.5313,178.5469 Q3603.1563,178.5469 3603.75,178.2813 Q3604.3438,178 3604.9688,177.4219 L3604.9688,180.1406 Z " fill="#000000"/><text fill="#000000" font-family="sans-serif" font-size="14" lengthAdjust="spacing" textLength="283.377" x="3616" y="179.3467">logic_arc_int__baselibs__utils_scoped_op</text><line style="stroke:#181818;stroke-width:0.5;" x1="3588" x2="3901.377" y1="190.5" y2="190.5"/></g><!--class comp_arc_sta__baselibs__concurrency--><g id="elem_comp_arc_sta__baselibs__concurrency"><rect fill="#F1F1F1" height="40" id="comp_arc_sta__baselibs__concurrency" rx="2.5" ry="2.5" style="stroke:#181818;stroke-width:0.5;" width="300.2012" x="1766.5" y="275.5"/><ellipse cx="1781.5" cy="291.5" fill="#ADD1B2" rx="11" ry="11" style="stroke:#181818;stroke-width:1;"/><path d="M1784.4688,297.1406 Q1783.8906,297.4375 1783.25,297.5781 Q1782.6094,297.7344 1781.9063,297.7344 Q1779.4063,297.7344 1778.0781,296.0938 Q1776.7656,294.4375 1776.7656,291.3125 Q1776.7656,288.1875 1778.0781,286.5313 Q1779.4063,284.875 1781.9063,284.875 Q1782.6094,284.875 1783.25,285.0313 Q1783.9063,285.1875 1784.4688,285.4844 L1784.4688,288.2031 Q1783.8438,287.625 1783.25,287.3594 Q1782.6563,287.0781 1782.0313,287.0781 Q1780.6875,287.0781 1780,288.1563 Q1779.3125,289.2188 1779.3125,291.3125 Q1779.3125,293.4063 1780,294.4844 Q1780.6875,295.5469 1782.0313,295.5469 Q1782.6563,295.5469 1783.25,295.2813 Q1783.8438,295 1784.4688,294.4219 L1784.4688,297.1406 Z " fill="#000000"/><text fill="#000000" font-family="sans-serif" font-size="14" lengthAdjust="spacing" textLength="268.2012" x="1795.5" y="296.3467">comp_arc_sta__baselibs__concurrency</text><line style="stroke:#181818;stroke-width:0.5;" x1="1767.5" x2="2065.7012" y1="307.5" y2="307.5"/></g><!--class comp_arc_sta__baselibs__json--><g id="elem_comp_arc_sta__baselibs__json"><rect fill="#F1F1F1" height="40" id="comp_arc_sta__baselibs__json" rx="2.5" ry="2.5" style="stroke:#181818;stroke-width:0.5;" width="242.1367" x="4943.5" y="275.5"/><ellipse cx="4958.5" cy="291.5" fill="#ADD1B2" rx="11" ry="11" style="stroke:#181818;stroke-width:1;"/><path d="M4961.4688,297.1406 Q4960.8906,297.4375 4960.25,297.5781 Q4959.6094,297.7344 4958.9063,297.7344 Q4956.4063,297.7344 4955.0781,296.0938 Q4953.7656,294.4375 4953.7656,291.3125 Q4953.7656,288.1875 4955.0781,286.5313 Q4956.4063,284.875 4958.9063,284.875 Q4959.6094,284.875 4960.25,285.0313 Q4960.9063,285.1875 4961.4688,285.4844 L4961.4688,288.2031 Q4960.8438,287.625 4960.25,287.3594 Q4959.6563,287.0781 4959.0313,287.0781 Q4957.6875,287.0781 4957,288.1563 Q4956.3125,289.2188 4956.3125,291.3125 Q4956.3125,293.4063 4957,294.4844 Q4957.6875,295.5469 4959.0313,295.5469 Q4959.6563,295.5469 4960.25,295.2813 Q4960.8438,295 4961.4688,294.4219 L4961.4688,297.1406 Z " fill="#000000"/><text fill="#000000" font-family="sans-serif" font-size="14" lengthAdjust="spacing" textLength="210.1367" x="4972.5" y="296.3467">comp_arc_sta__baselibs__json</text><line style="stroke:#181818;stroke-width:0.5;" x1="4944.5" x2="5184.6367" y1="307.5" y2="307.5"/></g><!--class comp_arc_sta__baselibs__message_passing--><g id="elem_comp_arc_sta__baselibs__message_passing"><rect fill="#F1F1F1" height="40" id="comp_arc_sta__baselibs__message_passing" rx="2.5" ry="2.5" style="stroke:#181818;stroke-width:0.5;" width="337.1357" x="4571" y="275.5"/><ellipse cx="4586" cy="291.5" fill="#ADD1B2" rx="11" ry="11" style="stroke:#181818;stroke-width:1;"/><path d="M4588.9688,297.1406 Q4588.3906,297.4375 4587.75,297.5781 Q4587.1094,297.7344 4586.4063,297.7344 Q4583.9063,297.7344 4582.5781,296.0938 Q4581.2656,294.4375 4581.2656,291.3125 Q4581.2656,288.1875 4582.5781,286.5313 Q4583.9063,284.875 4586.4063,284.875 Q4587.1094,284.875 4587.75,285.0313 Q4588.4063,285.1875 4588.9688,285.4844 L4588.9688,288.2031 Q4588.3438,287.625 4587.75,287.3594 Q4587.1563,287.0781 4586.5313,287.0781 Q4585.1875,287.0781 4584.5,288.1563 Q4583.8125,289.2188 4583.8125,291.3125 Q4583.8125,293.4063 4584.5,294.4844 Q4585.1875,295.5469 4586.5313,295.5469 Q4587.1563,295.5469 4587.75,295.2813 Q4588.3438,295 4588.9688,294.4219 L4588.9688,297.1406 Z " fill="#000000"/><text fill="#000000" font-family="sans-serif" font-size="14" lengthAdjust="spacing" textLength="305.1357" x="4600" y="296.3467">comp_arc_sta__baselibs__message_passing</text><line style="stroke:#181818;stroke-width:0.5;" x1="4572" x2="4907.1357" y1="307.5" y2="307.5"/></g><!--class logic_arc_int__baselibs__message_passing--><g id="elem_logic_arc_int__baselibs__message_passing"><rect fill="#F1F1F1" height="40" id="logic_arc_int__baselibs__message_passing" rx="2.5" ry="2.5" style="stroke:#181818;stroke-width:0.5;" width="328.167" x="4575.5" y="158.5"/><ellipse cx="4590.5" cy="174.5" fill="#ADD1B2" rx="11" ry="11" style="stroke:#181818;stroke-width:1;"/><path d="M4593.4688,180.1406 Q4592.8906,180.4375 4592.25,180.5781 Q4591.6094,180.7344 4590.9063,180.7344 Q4588.4063,180.7344 4587.0781,179.0938 Q4585.7656,177.4375 4585.7656,174.3125 Q4585.7656,171.1875 4587.0781,169.5313 Q4588.4063,167.875 4590.9063,167.875 Q4591.6094,167.875 4592.25,168.0313 Q4592.9063,168.1875 4593.4688,168.4844 L4593.4688,171.2031 Q4592.8438,170.625 4592.25,170.3594 Q4591.6563,170.0781 4591.0313,170.0781 Q4589.6875,170.0781 4589,171.1563 Q4588.3125,172.2188 4588.3125,174.3125 Q4588.3125,176.4063 4589,177.4844 Q4589.6875,178.5469 4591.0313,178.5469 Q4591.6563,178.5469 4592.25,178.2813 Q4592.8438,178 4593.4688,177.4219 L4593.4688,180.1406 Z " fill="#000000"/><text fill="#000000" font-family="sans-serif" font-size="14" lengthAdjust="spacing" textLength="296.167" x="4604.5" y="179.3467">logic_arc_int__baselibs__message_passing</text><line style="stroke:#181818;stroke-width:0.5;" x1="4576.5" x2="4902.667" y1="190.5" y2="190.5"/></g><!--class comp_arc_sta__baselibs__filesystem--><g id="elem_comp_arc_sta__baselibs__filesystem"><rect fill="#F1F1F1" height="40" id="comp_arc_sta__baselibs__filesystem" rx="2.5" ry="2.5" style="stroke:#181818;stroke-width:0.5;" width="285.4492" x="4251" y="275.5"/><ellipse cx="4266" cy="291.5" fill="#ADD1B2" rx="11" ry="11" style="stroke:#181818;stroke-width:1;"/><path d="M4268.9688,297.1406 Q4268.3906,297.4375 4267.75,297.5781 Q4267.1094,297.7344 4266.4063,297.7344 Q4263.9063,297.7344 4262.5781,296.0938 Q4261.2656,294.4375 4261.2656,291.3125 Q4261.2656,288.1875 4262.5781,286.5313 Q4263.9063,284.875 4266.4063,284.875 Q4267.1094,284.875 4267.75,285.0313 Q4268.4063,285.1875 4268.9688,285.4844 L4268.9688,288.2031 Q4268.3438,287.625 4267.75,287.3594 Q4267.1563,287.0781 4266.5313,287.0781 Q4265.1875,287.0781 4264.5,288.1563 Q4263.8125,289.2188 4263.8125,291.3125 Q4263.8125,293.4063 4264.5,294.4844 Q4265.1875,295.5469 4266.5313,295.5469 Q4267.1563,295.5469 4267.75,295.2813 Q4268.3438,295 4268.9688,294.4219 L4268.9688,297.1406 Z " fill="#000000"/><text fill="#000000" font-family="sans-serif" font-size="14" lengthAdjust="spacing" textLength="253.4492" x="4280" y="296.3467">comp_arc_sta__baselibs__filesystem</text><line style="stroke:#181818;stroke-width:0.5;" x1="4252" x2="4535.4492" y1="307.5" y2="307.5"/></g><!--class logic_arc_int__baselibs__dynamic_array--><g id="elem_logic_arc_int__baselibs__dynamic_array"><rect fill="#F1F1F1" height="40" id="logic_arc_int__baselibs__dynamic_array" rx="2.5" ry="2.5" style="stroke:#181818;stroke-width:0.5;" width="308.3496" x="335.5" y="158.5"/><ellipse cx="350.5" cy="174.5" fill="#ADD1B2" rx="11" ry="11" style="stroke:#181818;stroke-width:1;"/><path d="M353.4688,180.1406 Q352.8906,180.4375 352.25,180.5781 Q351.6094,180.7344 350.9063,180.7344 Q348.4063,180.7344 347.0781,179.0938 Q345.7656,177.4375 345.7656,174.3125 Q345.7656,171.1875 347.0781,169.5313 Q348.4063,167.875 350.9063,167.875 Q351.6094,167.875 352.25,168.0313 Q352.9063,168.1875 353.4688,168.4844 L353.4688,171.2031 Q352.8438,170.625 352.25,170.3594 Q351.6563,170.0781 351.0313,170.0781 Q349.6875,170.0781 349,171.1563 Q348.3125,172.2188 348.3125,174.3125 Q348.3125,176.4063 349,177.4844 Q349.6875,178.5469 351.0313,178.5469 Q351.6563,178.5469 352.25,178.2813 Q352.8438,178 353.4688,177.4219 L353.4688,180.1406 Z " fill="#000000"/><text fill="#000000" font-family="sans-serif" font-size="14" lengthAdjust="spacing" textLength="276.3496" x="364.5" y="179.3467">logic_arc_int__baselibs__dynamic_array</text><line style="stroke:#181818;stroke-width:0.5;" x1="336.5" x2="642.8496" y1="190.5" y2="190.5"/></g><!--class logic_arc_int__baselibs__condition_variable--><g id="elem_logic_arc_int__baselibs__condition_variable"><rect fill="#F1F1F1" height="40" id="logic_arc_int__baselibs__condition_variable" rx="2.5" ry="2.5" style="stroke:#181818;stroke-width:0.5;" width="332.7539" x="2564" y="158.5"/><ellipse cx="2579" cy="174.5" fill="#ADD1B2" rx="11" ry="11" style="stroke:#181818;stroke-width:1;"/><path d="M2581.9688,180.1406 Q2581.3906,180.4375 2580.75,180.5781 Q2580.1094,180.7344 2579.4063,180.7344 Q2576.9063,180.7344 2575.5781,179.0938 Q2574.2656,177.4375 2574.2656,174.3125 Q2574.2656,171.1875 2575.5781,169.5313 Q2576.9063,167.875 2579.4063,167.875 Q2580.1094,167.875 2580.75,168.0313 Q2581.4063,168.1875 2581.9688,168.4844 L2581.9688,171.2031 Q2581.3438,170.625 2580.75,170.3594 Q2580.1563,170.0781 2579.5313,170.0781 Q2578.1875,170.0781 2577.5,171.1563 Q2576.8125,172.2188 2576.8125,174.3125 Q2576.8125,176.4063 2577.5,177.4844 Q2578.1875,178.5469 2579.5313,178.5469 Q2580.1563,178.5469 2580.75,178.2813 Q2581.3438,178 2581.9688,177.4219 L2581.9688,180.1406 Z " fill="#000000"/><text fill="#000000" font-family="sans-serif" font-size="14" lengthAdjust="spacing" textLength="300.7539" x="2593" y="179.3467">logic_arc_int__baselibs__condition_variable</text><line style="stroke:#181818;stroke-width:0.5;" x1="2565" x2="2895.7539" y1="190.5" y2="190.5"/></g><!--class comp_arc_sta__baselibs__containers--><g id="elem_comp_arc_sta__baselibs__containers"><rect fill="#F1F1F1" height="40" id="comp_arc_sta__baselibs__containers" rx="2.5" ry="2.5" style="stroke:#181818;stroke-width:0.5;" width="287.1445" x="151" y="275.5"/><ellipse cx="166" cy="291.5" fill="#ADD1B2" rx="11" ry="11" style="stroke:#181818;stroke-width:1;"/><path d="M168.9688,297.1406 Q168.3906,297.4375 167.75,297.5781 Q167.1094,297.7344 166.4063,297.7344 Q163.9063,297.7344 162.5781,296.0938 Q161.2656,294.4375 161.2656,291.3125 Q161.2656,288.1875 162.5781,286.5313 Q163.9063,284.875 166.4063,284.875 Q167.1094,284.875 167.75,285.0313 Q168.4063,285.1875 168.9688,285.4844 L168.9688,288.2031 Q168.3438,287.625 167.75,287.3594 Q167.1563,287.0781 166.5313,287.0781 Q165.1875,287.0781 164.5,288.1563 Q163.8125,289.2188 163.8125,291.3125 Q163.8125,293.4063 164.5,294.4844 Q165.1875,295.5469 166.5313,295.5469 Q167.1563,295.5469 167.75,295.2813 Q168.3438,295 168.9688,294.4219 L168.9688,297.1406 Z " fill="#000000"/><text fill="#000000" font-family="sans-serif" font-size="14" lengthAdjust="spacing" textLength="255.1445" x="180" y="296.3467">comp_arc_sta__baselibs__containers</text><line style="stroke:#181818;stroke-width:0.5;" x1="152" x2="437.1445" y1="307.5" y2="307.5"/></g><!--class logic_arc_int__baselibs__intrusive_list--><g id="elem_logic_arc_int__baselibs__intrusive_list"><rect fill="#F1F1F1" height="40" id="logic_arc_int__baselibs__intrusive_list" rx="2.5" ry="2.5" style="stroke:#181818;stroke-width:0.5;" width="293.0713" x="7" y="158.5"/><ellipse cx="22" cy="174.5" fill="#ADD1B2" rx="11" ry="11" style="stroke:#181818;stroke-width:1;"/><path d="M24.9688,180.1406 Q24.3906,180.4375 23.75,180.5781 Q23.1094,180.7344 22.4063,180.7344 Q19.9063,180.7344 18.5781,179.0938 Q17.2656,177.4375 17.2656,174.3125 Q17.2656,171.1875 18.5781,169.5313 Q19.9063,167.875 22.4063,167.875 Q23.1094,167.875 23.75,168.0313 Q24.4063,168.1875 24.9688,168.4844 L24.9688,171.2031 Q24.3438,170.625 23.75,170.3594 Q23.1563,170.0781 22.5313,170.0781 Q21.1875,170.0781 20.5,171.1563 Q19.8125,172.2188 19.8125,174.3125 Q19.8125,176.4063 20.5,177.4844 Q21.1875,178.5469 22.5313,178.5469 Q23.1563,178.5469 23.75,178.2813 Q24.3438,178 24.9688,177.4219 L24.9688,180.1406 Z " fill="#000000"/><text fill="#000000" font-family="sans-serif" font-size="14" lengthAdjust="spacing" textLength="261.0713" x="36" y="179.3467">logic_arc_int__baselibs__intrusive_list</text><line style="stroke:#181818;stroke-width:0.5;" x1="8" x2="299.0713" y1="190.5" y2="190.5"/></g><!--class logic_arc_int__baselibs__promise--><g id="elem_logic_arc_int__baselibs__promise"><rect fill="#F1F1F1" height="40" id="logic_arc_int__baselibs__promise" rx="2.5" ry="2.5" style="stroke:#181818;stroke-width:0.5;" width="261.1885" x="1930" y="158.5"/><ellipse cx="1945" cy="174.5" fill="#ADD1B2" rx="11" ry="11" style="stroke:#181818;stroke-width:1;"/><path d="M1947.9688,180.1406 Q1947.3906,180.4375 1946.75,180.5781 Q1946.1094,180.7344 1945.4063,180.7344 Q1942.9063,180.7344 1941.5781,179.0938 Q1940.2656,177.4375 1940.2656,174.3125 Q1940.2656,171.1875 1941.5781,169.5313 Q1942.9063,167.875 1945.4063,167.875 Q1946.1094,167.875 1946.75,168.0313 Q1947.4063,168.1875 1947.9688,168.4844 L1947.9688,171.2031 Q1947.3438,170.625 1946.75,170.3594 Q1946.1563,170.0781 1945.5313,170.0781 Q1944.1875,170.0781 1943.5,171.1563 Q1942.8125,172.2188 1942.8125,174.3125 Q1942.8125,176.4063 1943.5,177.4844 Q1944.1875,178.5469 1945.5313,178.5469 Q1946.1563,178.5469 1946.75,178.2813 Q1947.3438,178 1947.9688,177.4219 L1947.9688,180.1406 Z " fill="#000000"/><text fill="#000000" font-family="sans-serif" font-size="14" lengthAdjust="spacing" textLength="229.1885" x="1959" y="179.3467">logic_arc_int__baselibs__promise</text><line style="stroke:#181818;stroke-width:0.5;" x1="1931" x2="2190.1885" y1="190.5" y2="190.5"/></g><!--class comp_arc_sta__baselibs__memory_shared--><g id="elem_comp_arc_sta__baselibs__memory_shared"><rect fill="#F1F1F1" height="40" id="comp_arc_sta__baselibs__memory_shared" rx="2.5" ry="2.5" style="stroke:#181818;stroke-width:0.5;" width="327.0117" x="3229" y="275.5"/><ellipse cx="3244" cy="291.5" fill="#ADD1B2" rx="11" ry="11" style="stroke:#181818;stroke-width:1;"/><path d="M3246.9688,297.1406 Q3246.3906,297.4375 3245.75,297.5781 Q3245.1094,297.7344 3244.4063,297.7344 Q3241.9063,297.7344 3240.5781,296.0938 Q3239.2656,294.4375 3239.2656,291.3125 Q3239.2656,288.1875 3240.5781,286.5313 Q3241.9063,284.875 3244.4063,284.875 Q3245.1094,284.875 3245.75,285.0313 Q3246.4063,285.1875 3246.9688,285.4844 L3246.9688,288.2031 Q3246.3438,287.625 3245.75,287.3594 Q3245.1563,287.0781 3244.5313,287.0781 Q3243.1875,287.0781 3242.5,288.1563 Q3241.8125,289.2188 3241.8125,291.3125 Q3241.8125,293.4063 3242.5,294.4844 Q3243.1875,295.5469 3244.5313,295.5469 Q3245.1563,295.5469 3245.75,295.2813 Q3246.3438,295 3246.9688,294.4219 L3246.9688,297.1406 Z " fill="#000000"/><text fill="#000000" font-family="sans-serif" font-size="14" lengthAdjust="spacing" textLength="295.0117" x="3258" y="296.3467">comp_arc_sta__baselibs__memory_shared</text><line style="stroke:#181818;stroke-width:0.5;" x1="3230" x2="3555.0117" y1="307.5" y2="307.5"/></g><!--class logic_arc_int__baselibs__memory_shared--><g id="elem_logic_arc_int__baselibs__memory_shared"><rect fill="#F1F1F1" height="40" id="logic_arc_int__baselibs__memory_shared" rx="2.5" ry="2.5" style="stroke:#181818;stroke-width:0.5;" width="318.043" x="3233.5" y="158.5"/><ellipse cx="3248.5" cy="174.5" fill="#ADD1B2" rx="11" ry="11" style="stroke:#181818;stroke-width:1;"/><path d="M3251.4688,180.1406 Q3250.8906,180.4375 3250.25,180.5781 Q3249.6094,180.7344 3248.9063,180.7344 Q3246.4063,180.7344 3245.0781,179.0938 Q3243.7656,177.4375 3243.7656,174.3125 Q3243.7656,171.1875 3245.0781,169.5313 Q3246.4063,167.875 3248.9063,167.875 Q3249.6094,167.875 3250.25,168.0313 Q3250.9063,168.1875 3251.4688,168.4844 L3251.4688,171.2031 Q3250.8438,170.625 3250.25,170.3594 Q3249.6563,170.0781 3249.0313,170.0781 Q3247.6875,170.0781 3247,171.1563 Q3246.3125,172.2188 3246.3125,174.3125 Q3246.3125,176.4063 3247,177.4844 Q3247.6875,178.5469 3249.0313,178.5469 Q3249.6563,178.5469 3250.25,178.2813 Q3250.8438,178 3251.4688,177.4219 L3251.4688,180.1406 Z " fill="#000000"/><text fill="#000000" font-family="sans-serif" font-size="14" lengthAdjust="spacing" textLength="286.043" x="3262.5" y="179.3467">logic_arc_int__baselibs__memory_shared</text><line style="stroke:#181818;stroke-width:0.5;" x1="3234.5" x2="3550.543" y1="190.5" y2="190.5"/></g><!--class logic_arc_int__baselibs__task--><g id="elem_logic_arc_int__baselibs__task"><rect fill="#F1F1F1" height="40" id="logic_arc_int__baselibs__task" rx="2.5" ry="2.5" style="stroke:#181818;stroke-width:0.5;" width="234.0156" x="678.5" y="158.5"/><ellipse cx="693.5" cy="174.5" fill="#ADD1B2" rx="11" ry="11" style="stroke:#181818;stroke-width:1;"/><path d="M696.4688,180.1406 Q695.8906,180.4375 695.25,180.5781 Q694.6094,180.7344 693.9063,180.7344 Q691.4063,180.7344 690.0781,179.0938 Q688.7656,177.4375 688.7656,174.3125 Q688.7656,171.1875 690.0781,169.5313 Q691.4063,167.875 693.9063,167.875 Q694.6094,167.875 695.25,168.0313 Q695.9063,168.1875 696.4688,168.4844 L696.4688,171.2031 Q695.8438,170.625 695.25,170.3594 Q694.6563,170.0781 694.0313,170.0781 Q692.6875,170.0781 692,171.1563 Q691.3125,172.2188 691.3125,174.3125 Q691.3125,176.4063 692,177.4844 Q692.6875,178.5469 694.0313,178.5469 Q694.6563,178.5469 695.25,178.2813 Q695.8438,178 696.4688,177.4219 L696.4688,180.1406 Z " fill="#000000"/><text fill="#000000" font-family="sans-serif" font-size="14" lengthAdjust="spacing" textLength="202.0156" x="707.5" y="179.3467">logic_arc_int__baselibs__task</text><line style="stroke:#181818;stroke-width:0.5;" x1="679.5" x2="911.5156" y1="190.5" y2="190.5"/></g><!--class logic_arc_int__baselibs__future--><g id="elem_logic_arc_int__baselibs__future"><rect fill="#F1F1F1" height="40" id="logic_arc_int__baselibs__future" rx="2.5" ry="2.5" style="stroke:#181818;stroke-width:0.5;" width="247.0791" x="1648" y="158.5"/><ellipse cx="1663" cy="174.5" fill="#ADD1B2" rx="11" ry="11" style="stroke:#181818;stroke-width:1;"/><path d="M1665.9688,180.1406 Q1665.3906,180.4375 1664.75,180.5781 Q1664.1094,180.7344 1663.4063,180.7344 Q1660.9063,180.7344 1659.5781,179.0938 Q1658.2656,177.4375 1658.2656,174.3125 Q1658.2656,171.1875 1659.5781,169.5313 Q1660.9063,167.875 1663.4063,167.875 Q1664.1094,167.875 1664.75,168.0313 Q1665.4063,168.1875 1665.9688,168.4844 L1665.9688,171.2031 Q1665.3438,170.625 1664.75,170.3594 Q1664.1563,170.0781 1663.5313,170.0781 Q1662.1875,170.0781 1661.5,171.1563 Q1660.8125,172.2188 1660.8125,174.3125 Q1660.8125,176.4063 1661.5,177.4844 Q1662.1875,178.5469 1663.5313,178.5469 Q1664.1563,178.5469 1664.75,178.2813 Q1665.3438,178 1665.9688,177.4219 L1665.9688,180.1406 Z " fill="#000000"/><text fill="#000000" font-family="sans-serif" font-size="14" lengthAdjust="spacing" textLength="215.0791" x="1677" y="179.3467">logic_arc_int__baselibs__future</text><line style="stroke:#181818;stroke-width:0.5;" x1="1649" x2="1894.0791" y1="190.5" y2="190.5"/></g><!--reverse link logic_arc_int__baselibs__bit_mask_operator to comp_arc_sta__baselibs__bit_manipulation--><g id="link_logic_arc_int__baselibs__bit_mask_operator_comp_arc_sta__baselibs__bit_manipulation"><path codeLine="14" d="M5698.3741,202.0577 C5666.1541,223.3477 5619.57,254.14 5587.43,275.38 " fill="transparent" id="logic_arc_int__baselibs__bit_mask_operator-backto-comp_arc_sta__baselibs__bit_manipulation" style="stroke:#181818;stroke-width:1;"/><polygon fill="#181818" points="5703.38,198.75,5693.666,200.3743,5699.2084,201.5064,5698.0763,207.0489,5703.38,198.75" style="stroke:#181818;stroke-width:1;"/><text fill="#000000" font-family="sans-serif" font-size="13" lengthAdjust="spacing" textLength="76.9082" x="5657.5" y="241.5669">implements</text></g><!--link Feature_User to logic_arc_int__baselibs__executor--><g id="link_Feature_User_logic_arc_int__baselibs__executor"><path codeLine="16" d="M3065.5,81.55 C3065.5,106.45 3065.5,132.26 3065.5,152.26 " fill="transparent" id="Feature_User-to-logic_arc_int__baselibs__executor" style="stroke:#181818;stroke-width:1;"/><polygon fill="#181818" points="3065.5,158.26,3069.5,149.26,3065.5,153.26,3061.5,149.26,3065.5,158.26" style="stroke:#181818;stroke-width:1;"/><text fill="#000000" font-family="sans-serif" font-size="13" lengthAdjust="spacing" textLength="23.0103" x="3066.5" y="124.5669">use</text></g><!--reverse link logic_arc_int__baselibs__result to comp_arc_sta__baselibs__result--><g id="link_logic_arc_int__baselibs__result_comp_arc_sta__baselibs__result"><path codeLine="17" d="M6057.5,204.75 C6057.5,225.98 6057.5,253.94 6057.5,275.19 " fill="transparent" id="logic_arc_int__baselibs__result-backto-comp_arc_sta__baselibs__result" style="stroke:#181818;stroke-width:1;"/><polygon fill="#181818" points="6057.5,198.75,6053.5,207.75,6057.5,203.75,6061.5,207.75,6057.5,198.75" style="stroke:#181818;stroke-width:1;"/><text fill="#000000" font-family="sans-serif" font-size="13" lengthAdjust="spacing" textLength="76.9082" x="6058.5" y="241.5669">implements</text></g><!--link Feature_User to logic_arc_int__baselibs__synchronized_queue--><g id="link_Feature_User_logic_arc_int__baselibs__synchronized_queue"><path codeLine="18" d="M3020.48,47.63 C2888.78,56.84 2492.82,84.85 2164.5,111.5 C1927.03,130.78 1867.72,136.32 1630.5,158.5 C1624.66,159.05 1624.704,159.0524 1618.704,159.6124 " fill="transparent" id="Feature_User-to-logic_arc_int__baselibs__synchronized_queue" style="stroke:#181818;stroke-width:1;"/><polygon fill="#181818" points="1612.73,160.17,1622.0628,163.3163,1617.7084,159.7054,1621.3193,155.3509,1612.73,160.17" style="stroke:#181818;stroke-width:1;"/><text fill="#000000" font-family="sans-serif" font-size="13" lengthAdjust="spacing" textLength="23.0103" x="2165.5" y="124.5669">use</text></g><!--link Feature_User to logic_arc_int__baselibs__shared_future--><g id="link_Feature_User_logic_arc_int__baselibs__shared_future"><path codeLine="19" d="M3020.36,53.23 C2910.49,74.46 2633.0409,128.1011 2481.8509,157.3311 " fill="transparent" id="Feature_User-to-logic_arc_int__baselibs__shared_future" style="stroke:#181818;stroke-width:1;"/><polygon fill="#181818" points="2475.96,158.47,2485.5556,160.6889,2480.8691,157.5209,2484.0371,152.8344,2475.96,158.47" style="stroke:#181818;stroke-width:1;"/><text fill="#000000" font-family="sans-serif" font-size="13" lengthAdjust="spacing" textLength="23.0103" x="2702.5" y="124.5669">use</text></g><!--link Feature_User to logic_arc_int__baselibs__task_result--><g id="link_Feature_User_logic_arc_int__baselibs__task_result"><path codeLine="20" d="M3020.42,46.27 C2815.58,54.54 1952.13,91.8 1246.5,158.5 C1240.86,159.03 1241.0782,158.9826 1235.2782,159.5826 " fill="transparent" id="Feature_User-to-logic_arc_int__baselibs__task_result" style="stroke:#181818;stroke-width:1;"/><polygon fill="#181818" points="1229.31,160.2,1238.6738,163.2527,1234.2835,159.6855,1237.8506,155.2951,1229.31,160.2" style="stroke:#181818;stroke-width:1;"/><text fill="#000000" font-family="sans-serif" font-size="13" lengthAdjust="spacing" textLength="23.0103" x="1797.5" y="124.5669">use</text></g><!--link Feature_User to logic_arc_int__baselibs__filesystem--><g id="link_Feature_User_logic_arc_int__baselibs__filesystem"><path codeLine="21" d="M3110.59,48.44 C3267.51,62.26 3804.19,110.22 4246.5,158.5 C4252.33,159.14 4252.3179,159.1265 4258.3379,159.8065 " fill="transparent" id="Feature_User-to-logic_arc_int__baselibs__filesystem" style="stroke:#181818;stroke-width:1;"/><polygon fill="#181818" points="4264.3,160.48,4255.8058,155.4951,4259.3316,159.9188,4254.9079,163.4445,4264.3,160.48" style="stroke:#181818;stroke-width:1;"/><text fill="#000000" font-family="sans-serif" font-size="13" lengthAdjust="spacing" textLength="23.0103" x="3956.5" y="124.5669">use</text></g><!--link Feature_User to logic_arc_int__baselibs__json--><g id="link_Feature_User_logic_arc_int__baselibs__json"><path codeLine="22" d="M3110.81,45.88 C3318.58,52.48 4200.82,83.73 4920.5,158.5 C4926.5,159.12 4926.6912,159.1084 4932.8912,159.8384 " fill="transparent" id="Feature_User-to-logic_arc_int__baselibs__json" style="stroke:#181818;stroke-width:1;"/><polygon fill="#181818" points="4938.85,160.54,4930.3795,155.515,4933.8843,159.9553,4929.444,163.4602,4938.85,160.54" style="stroke:#181818;stroke-width:1;"/><text fill="#000000" font-family="sans-serif" font-size="13" lengthAdjust="spacing" textLength="23.0103" x="4567.5" y="124.5669">use</text></g><!--link Feature_User to logic_arc_int__baselibs__utils_base64--><g id="link_Feature_User_logic_arc_int__baselibs__utils_base64"><path codeLine="23" d="M3110.56,50.39 C3253.79,69.1 3697.1006,127.0127 3931.6806,157.6627 " fill="transparent" id="Feature_User-to-logic_arc_int__baselibs__utils_base64" style="stroke:#181818;stroke-width:1;"/><polygon fill="#181818" points="3937.63,158.44,3929.2241,153.3077,3932.6721,157.7922,3928.1876,161.2403,3937.63,158.44" style="stroke:#181818;stroke-width:1;"/><text fill="#000000" font-family="sans-serif" font-size="13" lengthAdjust="spacing" textLength="23.0103" x="3697.5" y="124.5669">use</text></g><!--link Feature_User to logic_arc_int__baselibs__bit_manipulation--><g id="link_Feature_User_logic_arc_int__baselibs__bit_manipulation"><path codeLine="24" d="M3110.71,45.88 C3295.5,51.66 4011.49,75.25 4599.5,111.5 C4862.05,127.69 4927.57,134.17 5189.5,158.5 C5195.26,159.03 5195.1477,159.014 5201.0577,159.584 " fill="transparent" id="Feature_User-to-logic_arc_int__baselibs__bit_manipulation" style="stroke:#181818;stroke-width:1;"/><polygon fill="#181818" points="5207.03,160.16,5198.4556,155.3145,5202.0531,159.68,5197.6876,163.2775,5207.03,160.16" style="stroke:#181818;stroke-width:1;"/><text fill="#000000" font-family="sans-serif" font-size="13" lengthAdjust="spacing" textLength="23.0103" x="4846.5" y="124.5669">use</text></g><!--reverse link logic_arc_int__baselibs__utils_scoped_op to comp_arc_sta__baselibs__utils--><g id="link_logic_arc_int__baselibs__utils_scoped_op_comp_arc_sta__baselibs__utils"><path codeLine="25" d="M3777.7506,202.1252 C3809.0406,223.4152 3854.19,254.14 3885.4,275.38 " fill="transparent" id="logic_arc_int__baselibs__utils_scoped_op-backto-comp_arc_sta__baselibs__utils" style="stroke:#181818;stroke-width:1;"/><polygon fill="#181818" points="3772.79,198.75,3777.9808,207.1199,3776.9238,201.5627,3782.4811,200.5058,3772.79,198.75" style="stroke:#181818;stroke-width:1;"/><text fill="#000000" font-family="sans-serif" font-size="13" lengthAdjust="spacing" textLength="76.9082" x="3840.5" y="241.5669">implements</text></g><!--reverse link logic_arc_int__baselibs__synchronized_queue to comp_arc_sta__baselibs__concurrency--><g id="link_logic_arc_int__baselibs__synchronized_queue_comp_arc_sta__baselibs__concurrency"><path codeLine="26" d="M1523.5335,199.9537 C1612.0135,221.2437 1748.6,254.11 1837.15,275.41 " fill="transparent" id="logic_arc_int__baselibs__synchronized_queue-backto-comp_arc_sta__baselibs__concurrency" style="stroke:#181818;stroke-width:1;"/><polygon fill="#181818" points="1517.7,198.55,1525.5145,204.5445,1522.5613,199.7197,1527.386,196.7665,1517.7,198.55" style="stroke:#181818;stroke-width:1;"/><text fill="#000000" font-family="sans-serif" font-size="13" lengthAdjust="spacing" textLength="76.9082" x="1707.5" y="241.5669">implements</text></g><!--reverse link logic_arc_int__baselibs__task_result to comp_arc_sta__baselibs__concurrency--><g id="link_logic_arc_int__baselibs__task_result_comp_arc_sta__baselibs__concurrency"><path codeLine="27" d="M1231.3729,199.3561 C1326.2629,212.5461 1449.59,229.68 1563.5,245.5 C1634.74,255.39 1714.07,266.41 1779.46,275.48 " fill="transparent" id="logic_arc_int__baselibs__task_result-backto-comp_arc_sta__baselibs__concurrency" style="stroke:#181818;stroke-width:1;"/><polygon fill="#181818" points="1225.43,198.53,1233.7936,203.731,1230.3824,199.2184,1234.895,195.8072,1225.43,198.53" style="stroke:#181818;stroke-width:1;"/><text fill="#000000" font-family="sans-serif" font-size="13" lengthAdjust="spacing" textLength="76.9082" x="1564.5" y="241.5669">implements</text></g><!--reverse link logic_arc_int__baselibs__json to comp_arc_sta__baselibs__json--><g id="link_logic_arc_int__baselibs__json_comp_arc_sta__baselibs__json"><path codeLine="28" d="M5057.4777,204.7317 C5059.1377,225.9617 5061.33,253.94 5062.99,275.19 " fill="transparent" id="logic_arc_int__baselibs__json-backto-comp_arc_sta__baselibs__json" style="stroke:#181818;stroke-width:1;"/><polygon fill="#181818" points="5057.01,198.75,5053.7238,208.0344,5057.3998,203.7348,5061.6994,207.4108,5057.01,198.75" style="stroke:#181818;stroke-width:1;"/><text fill="#000000" font-family="sans-serif" font-size="13" lengthAdjust="spacing" textLength="76.9082" x="5062.5" y="241.5669">implements</text></g><!--reverse link logic_arc_int__baselibs__message_passing to comp_arc_sta__baselibs__message_passing--><g id="link_logic_arc_int__baselibs__message_passing_comp_arc_sta__baselibs__message_passing"><path codeLine="29" d="M4739.5,204.75 C4739.5,225.98 4739.5,253.94 4739.5,275.19 " fill="transparent" id="logic_arc_int__baselibs__message_passing-backto-comp_arc_sta__baselibs__message_passing" style="stroke:#181818;stroke-width:1;"/><polygon fill="#181818" points="4739.5,198.75,4735.5,207.75,4739.5,203.75,4743.5,207.75,4739.5,198.75" style="stroke:#181818;stroke-width:1;"/><text fill="#000000" font-family="sans-serif" font-size="13" lengthAdjust="spacing" textLength="76.9082" x="4740.5" y="241.5669">implements</text></g><!--link Feature_User to logic_arc_int__baselibs__bit_mask_operator--><g id="link_Feature_User_logic_arc_int__baselibs__bit_mask_operator"><path codeLine="30" d="M3110.72,45.62 C3315.25,50.78 4174.37,73.73 4878.5,111.5 C5175.7,127.44 5249.98,132.93 5546.5,158.5 C5552.48,159.02 5552.5947,159.0159 5558.7447,159.5759 " fill="transparent" id="Feature_User-to-logic_arc_int__baselibs__bit_mask_operator" style="stroke:#181818;stroke-width:1;"/><polygon fill="#181818" points="5564.72,160.12,5556.1198,155.3203,5559.7406,159.6666,5555.3944,163.2874,5564.72,160.12" style="stroke:#181818;stroke-width:1;"/><text fill="#000000" font-family="sans-serif" font-size="13" lengthAdjust="spacing" textLength="23.0103" x="5169.5" y="124.5669">use</text></g><!--reverse link logic_arc_int__baselibs__filesystem to comp_arc_sta__baselibs__filesystem--><g id="link_logic_arc_int__baselibs__filesystem_comp_arc_sta__baselibs__filesystem"><path codeLine="31" d="M4400.5223,204.7317 C4398.8623,225.9617 4396.67,253.94 4395.01,275.19 " fill="transparent" id="logic_arc_int__baselibs__filesystem-backto-comp_arc_sta__baselibs__filesystem" style="stroke:#181818;stroke-width:1;"/><polygon fill="#181818" points="4400.99,198.75,4396.3006,207.4108,4400.6002,203.7348,4404.2762,208.0344,4400.99,198.75" style="stroke:#181818;stroke-width:1;"/><text fill="#000000" font-family="sans-serif" font-size="13" lengthAdjust="spacing" textLength="76.9082" x="4400.5" y="241.5669">implements</text></g><!--reverse link logic_arc_int__baselibs__bit_manipulation to comp_arc_sta__baselibs__bit_manipulation--><g id="link_logic_arc_int__baselibs__bit_manipulation_comp_arc_sta__baselibs__bit_manipulation"><path codeLine="32" d="M5405.4332,201.8565 C5440.6132,223.1465 5491.82,254.14 5526.91,275.38 " fill="transparent" id="logic_arc_int__baselibs__bit_manipulation-backto-comp_arc_sta__baselibs__bit_manipulation" style="stroke:#181818;stroke-width:1;"/><polygon fill="#181818" points="5400.3,198.75,5405.9288,206.8319,5404.5777,201.3387,5410.0708,199.9876,5400.3,198.75" style="stroke:#181818;stroke-width:1;"/><text fill="#000000" font-family="sans-serif" font-size="13" lengthAdjust="spacing" textLength="76.9082" x="5476.5" y="241.5669">implements</text></g><!--link Feature_User to logic_arc_int__baselibs__dynamic_array--><g id="link_Feature_User_logic_arc_int__baselibs__dynamic_array"><path codeLine="33" d="M3020.47,45.49 C2816.81,50.11 1961.37,71.06 1260.5,111.5 C993.46,126.91 926.79,133.28 660.5,158.5 C655,159.02 655.3707,158.9782 649.7207,159.5382 " fill="transparent" id="Feature_User-to-logic_arc_int__baselibs__dynamic_array" style="stroke:#181818;stroke-width:1;"/><polygon fill="#181818" points="643.75,160.13,653.1006,163.2228,648.7256,159.6368,652.3116,155.2618,643.75,160.13" style="stroke:#181818;stroke-width:1;"/><text fill="#000000" font-family="sans-serif" font-size="13" lengthAdjust="spacing" textLength="23.0103" x="1261.5" y="124.5669">use</text></g><!--link Feature_User to logic_arc_int__baselibs__condition_variable--><g id="link_Feature_User_logic_arc_int__baselibs__condition_variable"><path codeLine="34" d="M3020.32,62.44 C2957.19,87.5 2848.6568,130.5965 2784.0568,156.2365 " fill="transparent" id="Feature_User-to-logic_arc_int__baselibs__condition_variable" style="stroke:#181818;stroke-width:1;"/><polygon fill="#181818" points="2778.48,158.45,2788.3208,158.8477,2783.1273,156.6055,2785.3696,151.412,2778.48,158.45" style="stroke:#181818;stroke-width:1;"/><text fill="#000000" font-family="sans-serif" font-size="13" lengthAdjust="spacing" textLength="23.0103" x="2889.5" y="124.5669">use</text></g><!--reverse link logic_arc_int__baselibs__intrusive_list to comp_arc_sta__baselibs__containers--><g id="link_logic_arc_int__baselibs__intrusive_list_comp_arc_sta__baselibs__containers"><path codeLine="35" d="M181.7496,202.5422 C207.7796,223.7722 244.76,253.94 270.82,275.19 " fill="transparent" id="logic_arc_int__baselibs__intrusive_list-backto-comp_arc_sta__baselibs__containers" style="stroke:#181818;stroke-width:1;"/><polygon fill="#181818" points="177.1,198.75,181.5463,207.5381,180.9747,201.9102,186.6026,201.3386,177.1,198.75" style="stroke:#181818;stroke-width:1;"/><text fill="#000000" font-family="sans-serif" font-size="13" lengthAdjust="spacing" textLength="76.9082" x="233.5" y="241.5669">implements</text></g><!--link Feature_User to logic_arc_int__baselibs__promise--><g id="link_Feature_User_logic_arc_int__baselibs__promise"><path codeLine="36" d="M3020.36,50.47 C2875.51,69.64 2424.5481,129.3227 2197.3581,159.3927 " fill="transparent" id="Feature_User-to-logic_arc_int__baselibs__promise" style="stroke:#181818;stroke-width:1;"/><polygon fill="#181818" points="2191.41,160.18,2200.857,162.9645,2196.3668,159.5239,2199.8073,155.0337,2191.41,160.18" style="stroke:#181818;stroke-width:1;"/><text fill="#000000" font-family="sans-serif" font-size="13" lengthAdjust="spacing" textLength="23.0103" x="2534.5" y="124.5669">use</text></g><!--link Feature_User to logic_arc_int__baselibs__message_passing--><g id="link_Feature_User_logic_arc_int__baselibs__message_passing"><path codeLine="37" d="M3110.71,47.39 C3292.43,59.14 3987.17,105.18 4557.5,158.5 C4563.35,159.05 4563.3387,159.0238 4569.3487,159.6138 " fill="transparent" id="Feature_User-to-logic_arc_int__baselibs__message_passing" style="stroke:#181818;stroke-width:1;"/><polygon fill="#181818" points="4575.32,160.2,4566.7539,155.3398,4570.3439,159.7115,4565.9723,163.3016,4575.32,160.2" style="stroke:#181818;stroke-width:1;"/><text fill="#000000" font-family="sans-serif" font-size="13" lengthAdjust="spacing" textLength="23.0103" x="4190.5" y="124.5669">use</text></g><!--reverse link logic_arc_int__baselibs__promise to comp_arc_sta__baselibs__concurrency--><g id="link_logic_arc_int__baselibs__promise_comp_arc_sta__baselibs__concurrency"><path codeLine="38" d="M2031.7119,202.4945 C2005.1319,223.7245 1967.29,253.94 1940.68,275.19 " fill="transparent" id="logic_arc_int__baselibs__promise-backto-comp_arc_sta__baselibs__concurrency" style="stroke:#181818;stroke-width:1;"/><polygon fill="#181818" points="2036.4,198.75,2026.8715,201.2413,2032.4932,201.8704,2031.8641,207.4922,2036.4,198.75" style="stroke:#181818;stroke-width:1;"/><text fill="#000000" font-family="sans-serif" font-size="13" lengthAdjust="spacing" textLength="76.9082" x="1998.5" y="241.5669">implements</text></g><!--reverse link logic_arc_int__baselibs__memory_shared to comp_arc_sta__baselibs__memory_shared--><g id="link_logic_arc_int__baselibs__memory_shared_comp_arc_sta__baselibs__memory_shared"><path codeLine="39" d="M3392.5,204.75 C3392.5,225.98 3392.5,253.94 3392.5,275.19 " fill="transparent" id="logic_arc_int__baselibs__memory_shared-backto-comp_arc_sta__baselibs__memory_shared" style="stroke:#181818;stroke-width:1;"/><polygon fill="#181818" points="3392.5,198.75,3388.5,207.75,3392.5,203.75,3396.5,207.75,3392.5,198.75" style="stroke:#181818;stroke-width:1;"/><text fill="#000000" font-family="sans-serif" font-size="13" lengthAdjust="spacing" textLength="76.9082" x="3393.5" y="241.5669">implements</text></g><!--reverse link logic_arc_int__baselibs__task to comp_arc_sta__baselibs__concurrency--><g id="link_logic_arc_int__baselibs__task_comp_arc_sta__baselibs__concurrency"><path codeLine="40" d="M918.4998,196.9744 C924.5698,197.7644 924.63,197.77 930.5,198.5 C1225.96,235.43 1572.74,266.32 1766.3,282.44 " fill="transparent" id="logic_arc_int__baselibs__task-backto-comp_arc_sta__baselibs__concurrency" style="stroke:#181818;stroke-width:1;"/><polygon fill="#181818" points="912.55,196.2,920.9585,201.3281,917.5082,196.8453,921.991,193.395,912.55,196.2" style="stroke:#181818;stroke-width:1;"/><text fill="#000000" font-family="sans-serif" font-size="13" lengthAdjust="spacing" textLength="76.9082" x="1337.5" y="241.5669">implements</text></g><!--reverse link logic_arc_int__baselibs__executor to comp_arc_sta__baselibs__concurrency--><g id="link_logic_arc_int__baselibs__executor_comp_arc_sta__baselibs__concurrency"><path codeLine="41" d="M2926.171,197.1499 C2920.211,197.8499 2920.28,197.84 2914.5,198.5 C2614.24,232.86 2262.2,264.77 2066.73,281.75 " fill="transparent" id="logic_arc_int__baselibs__executor-backto-comp_arc_sta__baselibs__concurrency" style="stroke:#181818;stroke-width:1;"/><polygon fill="#181818" points="2932.13,196.45,2922.7248,193.5271,2927.1641,197.0332,2923.658,201.4725,2932.13,196.45" style="stroke:#181818;stroke-width:1;"/><text fill="#000000" font-family="sans-serif" font-size="13" lengthAdjust="spacing" textLength="76.9082" x="2614.5" y="241.5669">implements</text></g><!--reverse link logic_arc_int__baselibs__condition_variable to comp_arc_sta__baselibs__concurrency--><g id="link_logic_arc_int__baselibs__condition_variable_comp_arc_sta__baselibs__concurrency"><path codeLine="42" d="M2589.689,199.3895 C2438.889,220.6995 2202.06,254.16 2051.3,275.46 " fill="transparent" id="logic_arc_int__baselibs__condition_variable-backto-comp_arc_sta__baselibs__concurrency" style="stroke:#181818;stroke-width:1;"/><polygon fill="#181818" points="2595.63,198.55,2586.1588,195.8487,2590.6792,199.2496,2587.2782,203.77,2595.63,198.55" style="stroke:#181818;stroke-width:1;"/><text fill="#000000" font-family="sans-serif" font-size="13" lengthAdjust="spacing" textLength="76.9082" x="2373.5" y="241.5669">implements</text></g><!--reverse link logic_arc_int__baselibs__utils_base64 to comp_arc_sta__baselibs__utils--><g id="link_logic_arc_int__baselibs__utils_base64_comp_arc_sta__baselibs__utils"><path codeLine="43" d="M4050.0799,202.1113 C4018.5999,223.4013 3973.16,254.14 3941.76,275.38 " fill="transparent" id="logic_arc_int__baselibs__utils_base64-backto-comp_arc_sta__baselibs__utils" style="stroke:#181818;stroke-width:1;"/><polygon fill="#181818" points="4055.05,198.75,4045.354,200.4785,4050.9083,201.5511,4049.8357,207.1053,4055.05,198.75" style="stroke:#181818;stroke-width:1;"/><text fill="#000000" font-family="sans-serif" font-size="13" lengthAdjust="spacing" textLength="76.9082" x="4010.5" y="241.5669">implements</text></g><!--reverse link logic_arc_int__baselibs__future to comp_arc_sta__baselibs__concurrency--><g id="link_logic_arc_int__baselibs__future_comp_arc_sta__baselibs__concurrency"><path codeLine="44" d="M1800.4711,202.4782 C1827.2411,223.7082 1865.35,253.94 1892.15,275.19 " fill="transparent" id="logic_arc_int__baselibs__future-backto-comp_arc_sta__baselibs__concurrency" style="stroke:#181818;stroke-width:1;"/><polygon fill="#181818" points="1795.77,198.75,1800.3362,207.4764,1799.6876,201.8568,1805.3071,201.2083,1795.77,198.75" style="stroke:#181818;stroke-width:1;"/><text fill="#000000" font-family="sans-serif" font-size="13" lengthAdjust="spacing" textLength="76.9082" x="1854.5" y="241.5669">implements</text></g><!--link Feature_User to logic_arc_int__baselibs__intrusive_list--><g id="link_Feature_User_logic_arc_int__baselibs__intrusive_list"><path codeLine="45" d="M3020.44,45.27 C2797.59,49.2 1790.89,68.6 967.5,111.5 C678.25,126.57 605.87,131.38 317.5,158.5 C311.79,159.04 311.95,159.011 306.07,159.601 " fill="transparent" id="Feature_User-to-logic_arc_int__baselibs__intrusive_list" style="stroke:#181818;stroke-width:1;"/><polygon fill="#181818" points="300.1,160.2,309.4544,163.2815,305.075,159.7008,308.6557,155.3214,300.1,160.2" style="stroke:#181818;stroke-width:1;"/><text fill="#000000" font-family="sans-serif" font-size="13" lengthAdjust="spacing" textLength="23.0103" x="968.5" y="124.5669">use</text></g><!--reverse link logic_arc_int__baselibs__shared_future to comp_arc_sta__baselibs__concurrency--><g id="link_logic_arc_int__baselibs__shared_future_comp_arc_sta__baselibs__concurrency"><path codeLine="46" d="M2295.2984,200.0023 C2209.9584,221.2923 2078.43,254.11 1993.03,275.41 " fill="transparent" id="logic_arc_int__baselibs__shared_future-backto-comp_arc_sta__baselibs__concurrency" style="stroke:#181818;stroke-width:1;"/><polygon fill="#181818" points="2301.12,198.55,2291.4194,196.8474,2296.2687,199.7603,2293.3559,204.6095,2301.12,198.55" style="stroke:#181818;stroke-width:1;"/><text fill="#000000" font-family="sans-serif" font-size="13" lengthAdjust="spacing" textLength="76.9082" x="2176.5" y="241.5669">implements</text></g><!--link Feature_User to logic_arc_int__baselibs__future--><g id="link_Feature_User_logic_arc_int__baselibs__future"><path codeLine="47" d="M3020.39,48.38 C2865.77,61.81 2343.05,108.22 1912.5,158.5 C1906.86,159.16 1907.0446,159.1133 1901.2246,159.8333 " fill="transparent" id="Feature_User-to-logic_arc_int__baselibs__future" style="stroke:#181818;stroke-width:1;"/><polygon fill="#181818" points="1895.27,160.57,1904.693,163.4348,1900.2322,159.9561,1903.7108,155.4953,1895.27,160.57" style="stroke:#181818;stroke-width:1;"/><text fill="#000000" font-family="sans-serif" font-size="13" lengthAdjust="spacing" textLength="23.0103" x="2325.5" y="124.5669">use</text></g><!--reverse link logic_arc_int__baselibs__dynamic_array to comp_arc_sta__baselibs__containers--><g id="link_logic_arc_int__baselibs__dynamic_array_comp_arc_sta__baselibs__containers"><path codeLine="48" d="M451.6918,201.7979 C415.5918,223.0879 362.94,254.14 326.92,275.38 " fill="transparent" id="logic_arc_int__baselibs__dynamic_array-backto-comp_arc_sta__baselibs__containers" style="stroke:#181818;stroke-width:1;"/><polygon fill="#181818" points="456.86,198.75,447.0758,199.8765,452.5532,201.2899,451.1397,206.7674,456.86,198.75" style="stroke:#181818;stroke-width:1;"/><text fill="#000000" font-family="sans-serif" font-size="13" lengthAdjust="spacing" textLength="76.9082" x="405.5" y="241.5669">implements</text></g><!--link Feature_User to logic_arc_int__baselibs__utils_scoped_op--><g id="link_Feature_User_logic_arc_int__baselibs__utils_scoped_op"><path codeLine="49" d="M3110.58,53.33 C3219.35,74.64 3492.3519,128.1064 3641.3419,157.2964 " fill="transparent" id="Feature_User-to-logic_arc_int__baselibs__utils_scoped_op" style="stroke:#181818;stroke-width:1;"/><polygon fill="#181818" points="3647.23,158.45,3639.167,152.7943,3642.3233,157.4887,3637.6289,160.645,3647.23,158.45" style="stroke:#181818;stroke-width:1;"/><text fill="#000000" font-family="sans-serif" font-size="13" lengthAdjust="spacing" textLength="23.0103" x="3487.5" y="124.5669">use</text></g><!--link Feature_User to logic_arc_int__baselibs__task--><g id="link_Feature_User_logic_arc_int__baselibs__task"><path codeLine="50" d="M3020.25,46.21 C2841.41,53.04 2166.52,79.56 1611.5,111.5 C1308.61,128.93 1232.24,126.89 930.5,158.5 C924.62,159.12 924.5484,159.0844 918.4684,159.8044 " fill="transparent" id="Feature_User-to-logic_arc_int__baselibs__task" style="stroke:#181818;stroke-width:1;"/><polygon fill="#181818" points="912.51,160.51,921.9179,163.4239,917.4753,159.922,920.9772,155.4794,912.51,160.51" style="stroke:#181818;stroke-width:1;"/><text fill="#000000" font-family="sans-serif" font-size="13" lengthAdjust="spacing" textLength="23.0103" x="1612.5" y="124.5669">use</text></g><!--link Feature_User to logic_arc_int__baselibs__memory_shared--><g id="link_Feature_User_logic_arc_int__baselibs__memory_shared"><path codeLine="51" d="M3110.62,62.85 C3172.47,88.01 3277.4724,130.7088 3340.1724,156.2188 " fill="transparent" id="Feature_User-to-logic_arc_int__baselibs__memory_shared" style="stroke:#181818;stroke-width:1;"/><polygon fill="#181818" points="3345.73,158.48,3338.901,151.3832,3341.0986,156.5957,3335.8861,158.7933,3345.73,158.48" style="stroke:#181818;stroke-width:1;"/><text fill="#000000" font-family="sans-serif" font-size="13" lengthAdjust="spacing" textLength="23.0103" x="3269.5" y="124.5669">use</text></g><!--link Feature_User to logic_arc_int__baselibs__result--><g id="link_Feature_User_logic_arc_int__baselibs__result"><path codeLine="52" d="M3110.62,45.34 C3335.97,49.67 4362.14,70.8 5201.5,111.5 C5520.03,126.95 5600.19,126.59 5917.5,158.5 C5923.36,159.09 5923.3888,159.049 5929.4288,159.739 " fill="transparent" id="Feature_User-to-logic_arc_int__baselibs__result" style="stroke:#181818;stroke-width:1;"/><polygon fill="#181818" points="5935.39,160.42,5926.9022,155.4243,5930.4223,159.8525,5925.9942,163.3727,5935.39,160.42" style="stroke:#181818;stroke-width:1;"/><text fill="#000000" font-family="sans-serif" font-size="13" lengthAdjust="spacing" textLength="23.0103" x="5549.5" y="124.5669">use</text></g><!--SRC=[jLPDSzCm4BthLsXwJs4OXWFJwOKPJZt2MIFBssIfFensLMeO_Zkoaz3OIIlRc5laxBvzajw-bROs_50Edz1l1OT6Sf1LO0vErXZ1C0OlTbY398O8WTi6zcjm3RTICqUi4WE96-BMmgsureIsah_47Nhu56o8CaBThxxiq3nu89Blhj-At-BcpI57QCCvxkepQ4uHv5U2U2KroSC7rNsGmWJNA1sD8jPALPh0OaNv5x9oscEJhEuOoqtQt4eRjcZwSFHy7auFAZGGTIxyKQ9hB3ZmJ5A8GT5D_HeKF859FK8YU9bW14gM2xJsGKCkCwXGwyqk1ey_eLRV4oGua9g3iTFvhjHzwXBcftDtgCTjp4s-HmlKPfcv-RdVAFZvMOdHKh_-y7v-zbXq1GdqnGeAs1CYatLPPt4EfV0Ii0dUf1Z1cxO0VqaXwrOO260AT7Tn1SpztKu1SzbPz1PKeucodnLmHz6B- -w2cxmgX6UT5mYUDiIKxIzomLFzBZo0klNQzNz5tSxlewok6Zi2wb57r9M5mW7c1DPvciHIE-LbJ8IFe2pIScDjOd182-pmJ66bRKtiih-4fZM52x4zE7kn9KvY_uSth8tvF7xNnRsaoIaLfflySUgio_iuk1SgVTmmA-brzAfOI6xmAFbdRnYPra9EPmDxoOjfYR4C-dHk-k25zWS0]--></g></svg>