<svg xmlns="http://www.w3.org/2000/svg" xmlns:xlink="http://www.w3.org/1999/xlink" contentStyleType="text/css" data-diagram-type="CLASS" height="322px" preserveAspectRatio="none" style="width:6190px;height:322px;background:#FFFFFF;" version="1.1" viewBox="0 0 6190 322" width="6190px" zoomAndPan="magnify"><defs/><g><!--entity Feature_User--><g id="elem_Feature_User"><ellipse cx="3138.6685" cy="14" fill="#F1F1F1" rx="8" ry="8" style="stroke:#181818;stroke-width:0.5;"/><path d="M3138.6685,22 L3138.6685,49 M3125.6685,30 L3151.6685,30 M3138.6685,49 L3125.6685,64 M3138.6685,49 L3151.6685,64 " fill="transparent" style="stroke:#181818;stroke-width:0.5;"/><text fill="#000000" font-family="sans-serif" font-size="14" lengthAdjust="spacing" textLength="90.3369" x="3093.5" y="78.4951">Feature User</text></g><!--class logic_arc_int__baselibs__result--><g id="elem_logic_arc_int__baselibs__result"><rect fill="#F1F1F1" height="40" id="logic_arc_int__baselibs__result" rx="2.5" ry="2.5" style="stroke:#181818;stroke-width:0.5;" width="244.4609" x="11.5" y="158.5"/><ellipse cx="26.5" cy="174.5" fill="#ADD1B2" rx="11" ry="11" style="stroke:#181818;stroke-width:1;"/><path d="M29.4688,180.1406 Q28.8906,180.4375 28.25,180.5781 Q27.6094,180.7344 26.9063,180.7344 Q24.4063,180.7344 23.0781,179.0938 Q21.7656,177.4375 21.7656,174.3125 Q21.7656,171.1875 23.0781,169.5313 Q24.4063,167.875 26.9063,167.875 Q27.6094,167.875 28.25,168.0313 Q28.9063,168.1875 29.4688,168.4844 L29.4688,171.2031 Q28.8438,170.625 28.25,170.3594 Q27.6563,170.0781 27.0313,170.0781 Q25.6875,170.0781 25,171.1563 Q24.3125,172.2188 24.3125,174.3125 Q24.3125,176.4063 25,177.4844 Q25.6875,178.5469 27.0313,178.5469 Q27.6563,178.5469 28.25,178.2813 Q28.8438,178 29.4688,177.4219 L29.4688,180.1406 Z " fill="#000000"/><text fill="#000000" font-family="sans-serif" font-size="14" lengthAdjust="spacing" textLength="212.4609" x="40.5" y="179.3467">logic_arc_int__baselibs__result</text><line style="stroke:#181818;stroke-width:0.5;" x1="12.5" x2="254.9609" y1="190.5" y2="190.5"/></g><!--class comp_arc_sta__baselibs__containers--><g id="elem_comp_arc_sta__baselibs__containers"><rect fill="#F1F1F1" height="40" id="comp_arc_sta__baselibs__containers" rx="2.5" ry="2.5" style="stroke:#181818;stroke-width:0.5;" width="287.1445" x="5719" y="275.5"/><ellipse cx="5734" cy="291.5" fill="#ADD1B2" rx="11" ry="11" style="stroke:#181818;stroke-width:1;"/><path d="M5736.9688,297.1406 Q5736.3906,297.4375 5735.75,297.5781 Q5735.1094,297.7344 5734.4063,297.7344 Q5731.9063,297.7344 5730.5781,296.0938 Q5729.2656,294.4375 5729.2656,291.3125 Q5729.2656,288.1875 5730.5781,286.5313 Q5731.9063,284.875 5734.4063,284.875 Q5735.1094,284.875 5735.75,285.0313 Q5736.4063,285.1875 5736.9688,285.4844 L5736.9688,288.2031 Q5736.3438,287.625 5735.75,287.3594 Q5735.1563,287.0781 5734.5313,287.0781 Q5733.1875,287.0781 5732.5,288.1563 Q5731.8125,289.2188 5731.8125,291.3125 Q5731.8125,293.4063 5732.5,294.4844 Q5733.1875,295.5469 5734.5313,295.5469 Q5735.1563,295.5469 5735.75,295.2813 Q5736.3438,295 5736.9688,294.4219 L5736.9688,297.1406 Z " fill="#000000"/><text fill="#000000" font-family="sans-serif" font-size="14" lengthAdjust="spacing" textLength="255.1445" x="5748" y="296.3467">comp_arc_sta__baselibs__containers</text><line style="stroke:#181818;stroke-width:0.5;" x1="5720" x2="6005.1445" y1="307.5" y2="307.5"/></g><!--class logic_arc_int__baselibs__intrusive_list--><g id="elem_logic_arc_int__baselibs__intrusive_list"><rect fill="#F1F1F1" height="40" id="logic_arc_int__baselibs__intrusive_list" rx="2.5" ry="2.5" style="stroke:#181818;stroke-width:0.5;" width="293.0713" x="5547" y="158.5"/><ellipse cx="5562" cy="174.5" fill="#ADD1B2" rx="11" ry="11" style="stroke:#181818;stroke-width:1;"/><path d="M5564.9688,180.1406 Q5564.3906,180.4375 5563.75,180.5781 Q5563.1094,180.7344 5562.4063,180.7344 Q5559.9063,180.7344 5558.5781,179.0938 Q5557.2656,177.4375 5557.2656,174.3125 Q5557.2656,171.1875 5558.5781,169.5313 Q5559.9063,167.875 5562.4063,167.875 Q5563.1094,167.875 5563.75,168.0313 Q5564.4063,168.1875 5564.9688,168.4844 L5564.9688,171.2031 Q5564.3438,170.625 5563.75,170.3594 Q5563.1563,170.0781 5562.5313,170.0781 Q5561.1875,170.0781 5560.5,171.1563 Q5559.8125,172.2188 5559.8125,174.3125 Q5559.8125,176.4063 5560.5,177.4844 Q5561.1875,178.5469 5562.5313,178.5469 Q5563.1563,178.5469 5563.75,178.2813 Q5564.3438,178 5564.9688,177.4219 L5564.9688,180.1406 Z " fill="#000000"/><text fill="#000000" font-family="sans-serif" font-size="14" lengthAdjust="spacing" textLength="261.0713" x="5576" y="179.3467">logic_arc_int__baselibs__intrusive_list</text><line style="stroke:#181818;stroke-width:0.5;" x1="5548" x2="5839.0713" y1="190.5" y2="190.5"/></g><!--class logic_arc_int__baselibs__memory_shared--><g id="elem_logic_arc_int__baselibs__memory_shared"><rect fill="#F1F1F1" height="40" id="logic_arc_int__baselibs__memory_shared" rx="2.5" ry="2.5" style="stroke:#181818;stroke-width:0.5;" width="318.043" x="3936.5" y="158.5"/><ellipse cx="3951.5" cy="174.5" fill="#ADD1B2" rx="11" ry="11" style="stroke:#181818;stroke-width:1;"/><path d="M3954.4688,180.1406 Q3953.8906,180.4375 3953.25,180.5781 Q3952.6094,180.7344 3951.9063,180.7344 Q3949.4063,180.7344 3948.0781,179.0938 Q3946.7656,177.4375 3946.7656,174.3125 Q3946.7656,171.1875 3948.0781,169.5313 Q3949.4063,167.875 3951.9063,167.875 Q3952.6094,167.875 3953.25,168.0313 Q3953.9063,168.1875 3954.4688,168.4844 L3954.4688,171.2031 Q3953.8438,170.625 3953.25,170.3594 Q3952.6563,170.0781 3952.0313,170.0781 Q3950.6875,170.0781 3950,171.1563 Q3949.3125,172.2188 3949.3125,174.3125 Q3949.3125,176.4063 3950,177.4844 Q3950.6875,178.5469 3952.0313,178.5469 Q3952.6563,178.5469 3953.25,178.2813 Q3953.8438,178 3954.4688,177.4219 L3954.4688,180.1406 Z " fill="#000000"/><text fill="#000000" font-family="sans-serif" font-size="14" lengthAdjust="spacing" textLength="286.043" x="3965.5" y="179.3467">logic_arc_int__baselibs__memory_shared</text><line style="stroke:#181818;stroke-width:0.5;" x1="3937.5" x2="4253.543" y1="190.5" y2="190.5"/></g><!--class logic_arc_int__baselibs__message_passing--><g id="elem_logic_arc_int__baselibs__message_passing"><rect fill="#F1F1F1" height="40" id="logic_arc_int__baselibs__message_passing" rx="2.5" ry="2.5" style="stroke:#181818;stroke-width:0.5;" width="328.167" x="3573.5" y="158.5"/><ellipse cx="3588.5" cy="174.5" fill="#ADD1B2" rx="11" ry="11" style="stroke:#181818;stroke-width:1;"/><path d="M3591.4688,180.1406 Q3590.8906,180.4375 3590.25,180.5781 Q3589.6094,180.7344 3588.9063,180.7344 Q3586.4063,180.7344 3585.0781,179.0938 Q3583.7656,177.4375 3583.7656,174.3125 Q3583.7656,171.1875 3585.0781,169.5313 Q3586.4063,167.875 3588.9063,167.875 Q3589.6094,167.875 3590.25,168.0313 Q3590.9063,168.1875 3591.4688,168.4844 L3591.4688,171.2031 Q3590.8438,170.625 3590.25,170.3594 Q3589.6563,170.0781 3589.0313,170.0781 Q3587.6875,170.0781 3587,171.1563 Q3586.3125,172.2188 3586.3125,174.3125 Q3586.3125,176.4063 3587,177.4844 Q3587.6875,178.5469 3589.0313,178.5469 Q3589.6563,178.5469 3590.25,178.2813 Q3590.8438,178 3591.4688,177.4219 L3591.4688,180.1406 Z " fill="#000000"/><text fill="#000000" font-family="sans-serif" font-size="14" lengthAdjust="spacing" textLength="296.167" x="3602.5" y="179.3467">logic_arc_int__baselibs__message_passing</text><line style="stroke:#181818;stroke-width:0.5;" x1="3574.5" x2="3900.667" y1="190.5" y2="190.5"/></g><!--class comp_arc_sta__baselibs__concurrency--><g id="elem_comp_arc_sta__baselibs__concurrency"><rect fill="#F1F1F1" height="40" id="comp_arc_sta__baselibs__concurrency" rx="2.5" ry="2.5" style="stroke:#181818;stroke-width:0.5;" width="300.2012" x="2194.5" y="275.5"/><ellipse cx="2209.5" cy="291.5" fill="#ADD1B2" rx="11" ry="11" style="stroke:#181818;stroke-width:1;"/><path d="M2212.4688,297.1406 Q2211.8906,297.4375 2211.25,297.5781 Q2210.6094,297.7344 2209.9063,297.7344 Q2207.4063,297.7344 2206.0781,296.0938 Q2204.7656,294.4375 2204.7656,291.3125 Q2204.7656,288.1875 2206.0781,286.5313 Q2207.4063,284.875 2209.9063,284.875 Q2210.6094,284.875 2211.25,285.0313 Q2211.9063,285.1875 2212.4688,285.4844 L2212.4688,288.2031 Q2211.8438,287.625 2211.25,287.3594 Q2210.6563,287.0781 2210.0313,287.0781 Q2208.6875,287.0781 2208,288.1563 Q2207.3125,289.2188 2207.3125,291.3125 Q2207.3125,293.4063 2208,294.4844 Q2208.6875,295.5469 2210.0313,295.5469 Q2210.6563,295.5469 2211.25,295.2813 Q2211.8438,295 2212.4688,294.4219 L2212.4688,297.1406 Z " fill="#000000"/><text fill="#000000" font-family="sans-serif" font-size="14" lengthAdjust="spacing" textLength="268.2012" x="2223.5" y="296.3467">comp_arc_sta__baselibs__concurrency</text><line style="stroke:#181818;stroke-width:0.5;" x1="2195.5" x2="2493.7012" y1="307.5" y2="307.5"/></g><!--class logic_arc_int__baselibs__future--><g id="elem_logic_arc_int__baselibs__future"><rect fill="#F1F1F1" height="40" id="logic_arc_int__baselibs__future" rx="2.5" ry="2.5" style="stroke:#181818;stroke-width:0.5;" width="247.0791" x="2072" y="158.5"/><ellipse cx="2087" cy="174.5" fill="#ADD1B2" rx="11" ry="11" style="stroke:#181818;stroke-width:1;"/><path d="M2089.9688,180.1406 Q2089.3906,180.4375 2088.75,180.5781 Q2088.1094,180.7344 2087.4063,180.7344 Q2084.9063,180.7344 2083.5781,179.0938 Q2082.2656,177.4375 2082.2656,174.3125 Q2082.2656,171.1875 2083.5781,169.5313 Q2084.9063,167.875 2087.4063,167.875 Q2088.1094,167.875 2088.75,168.0313 Q2089.4063,168.1875 2089.9688,168.4844 L2089.9688,171.2031 Q2089.3438,170.625 2088.75,170.3594 Q2088.1563,170.0781 2087.5313,170.0781 Q2086.1875,170.0781 2085.5,171.1563 Q2084.8125,172.2188 2084.8125,174.3125 Q2084.8125,176.4063 2085.5,177.4844 Q2086.1875,178.5469 2087.5313,178.5469 Q2088.1563,178.5469 2088.75,178.2813 Q2089.3438,178 2089.9688,177.4219 L2089.9688,180.1406 Z " fill="#000000"/><text fill="#000000" font-family="sans-serif" font-size="14" lengthAdjust="spacing" textLength="215.0791" x="2101" y="179.3467">logic_arc_int__baselibs__future</text><line style="stroke:#181818;stroke-width:0.5;" x1="2073" x2="2318.0791" y1="190.5" y2="190.5"/></g><!--class logic_arc_int__baselibs__executor--><g id="elem_logic_arc_int__baselibs__executor"><rect fill="#F1F1F1" height="40" id="logic_arc_int__baselibs__executor" rx="2.5" ry="2.5" style="stroke:#181818;stroke-width:0.5;" width="266.4385" x="1387.5" y="158.5"/><ellipse cx="1402.5" cy="174.5" fill="#ADD1B2" rx="11" ry="11" style="stroke:#181818;stroke-width:1;"/><path d="M1405.4688,180.1406 Q1404.8906,180.4375 1404.25,180.5781 Q1403.6094,180.7344 1402.9063,180.7344 Q1400.4063,180.7344 1399.0781,179.0938 Q1397.7656,177.4375 1397.7656,174.3125 Q1397.7656,171.1875 1399.0781,169.5313 Q1400.4063,167.875 1402.9063,167.875 Q1403.6094,167.875 1404.25,168.0313 Q1404.9063,168.1875 1405.4688,168.4844 L1405.4688,171.2031 Q1404.8438,170.625 1404.25,170.3594 Q1403.6563,170.0781 1403.0313,170.0781 Q1401.6875,170.0781 1401,171.1563 Q1400.3125,172.2188 1400.3125,174.3125 Q1400.3125,176.4063 1401,177.4844 Q1401.6875,178.5469 1403.0313,178.5469 Q1403.6563,178.5469 1404.25,178.2813 Q1404.8438,178 1405.4688,177.4219 L1405.4688,180.1406 Z " fill="#000000"/><text fill="#000000" font-family="sans-serif" font-size="14" lengthAdjust="spacing" textLength="234.4385" x="1416.5" y="179.3467">logic_arc_int__baselibs__executor</text><line style="stroke:#181818;stroke-width:0.5;" x1="1388.5" x2="1652.9385" y1="190.5" y2="190.5"/></g><!--class comp_arc_sta__baselibs__json--><g id="elem_comp_arc_sta__baselibs__json"><rect fill="#F1F1F1" height="40" id="comp_arc_sta__baselibs__json" rx="2.5" ry="2.5" style="stroke:#181818;stroke-width:0.5;" width="242.1367" x="5278.5" y="275.5"/><ellipse cx="5293.5" cy="291.5" fill="#ADD1B2" rx="11" ry="11" style="stroke:#181818;stroke-width:1;"/><path d="M5296.4688,297.1406 Q5295.8906,297.4375 5295.25,297.5781 Q5294.6094,297.7344 5293.9063,297.7344 Q5291.4063,297.7344 5290.0781,296.0938 Q5288.7656,294.4375 5288.7656,291.3125 Q5288.7656,288.1875 5290.0781,286.5313 Q5291.4063,284.875 5293.9063,284.875 Q5294.6094,284.875 5295.25,285.0313 Q5295.9063,285.1875 5296.4688,285.4844 L5296.4688,288.2031 Q5295.8438,287.625 5295.25,287.3594 Q5294.6563,287.0781 5294.0313,287.0781 Q5292.6875,287.0781 5292,288.1563 Q5291.3125,289.2188 5291.3125,291.3125 Q5291.3125,293.4063 5292,294.4844 Q5292.6875,295.5469 5294.0313,295.5469 Q5294.6563,295.5469 5295.25,295.2813 Q5295.8438,295 5296.4688,294.4219 L5296.4688,297.1406 Z " fill="#000000"/><text fill="#000000" font-family="sans-serif" font-size="14" lengthAdjust="spacing" textLength="210.1367" x="5307.5" y="296.3467">comp_arc_sta__baselibs__json</text><line style="stroke:#181818;stroke-width:0.5;" x1="5279.5" x2="5519.6367" y1="307.5" y2="307.5"/></g><!--class logic_arc_int__baselibs__json--><g id="elem_logic_arc_int__baselibs__json"><rect fill="#F1F1F1" height="40" id="logic_arc_int__baselibs__json" rx="2.5" ry="2.5" style="stroke:#181818;stroke-width:0.5;" width="233.168" x="5279" y="158.5"/><ellipse cx="5294" cy="174.5" fill="#ADD1B2" rx="11" ry="11" style="stroke:#181818;stroke-width:1;"/><path d="M5296.9688,180.1406 Q5296.3906,180.4375 5295.75,180.5781 Q5295.1094,180.7344 5294.4063,180.7344 Q5291.9063,180.7344 5290.5781,179.0938 Q5289.2656,177.4375 5289.2656,174.3125 Q5289.2656,171.1875 5290.5781,169.5313 Q5291.9063,167.875 5294.4063,167.875 Q5295.1094,167.875 5295.75,168.0313 Q5296.4063,168.1875 5296.9688,168.4844 L5296.9688,171.2031 Q5296.3438,170.625 5295.75,170.3594 Q5295.1563,170.0781 5294.5313,170.0781 Q5293.1875,170.0781 5292.5,171.1563 Q5291.8125,172.2188 5291.8125,174.3125 Q5291.8125,176.4063 5292.5,177.4844 Q5293.1875,178.5469 5294.5313,178.5469 Q5295.1563,178.5469 5295.75,178.2813 Q5296.3438,178 5296.9688,177.4219 L5296.9688,180.1406 Z " fill="#000000"/><text fill="#000000" font-family="sans-serif" font-size="14" lengthAdjust="spacing" textLength="201.168" x="5308" y="179.3467">logic_arc_int__baselibs__json</text><line style="stroke:#181818;stroke-width:0.5;" x1="5280" x2="5511.168" y1="190.5" y2="190.5"/></g><!--class logic_arc_int__baselibs__dynamic_array--><g id="elem_logic_arc_int__baselibs__dynamic_array"><rect fill="#F1F1F1" height="40" id="logic_arc_int__baselibs__dynamic_array" rx="2.5" ry="2.5" style="stroke:#181818;stroke-width:0.5;" width="308.3496" x="5875.5" y="158.5"/><ellipse cx="5890.5" cy="174.5" fill="#ADD1B2" rx="11" ry="11" style="stroke:#181818;stroke-width:1;"/><path d="M5893.4688,180.1406 Q5892.8906,180.4375 5892.25,180.5781 Q5891.6094,180.7344 5890.9063,180.7344 Q5888.4063,180.7344 5887.0781,179.0938 Q5885.7656,177.4375 5885.7656,174.3125 Q5885.7656,171.1875 5887.0781,169.5313 Q5888.4063,167.875 5890.9063,167.875 Q5891.6094,167.875 5892.25,168.0313 Q5892.9063,168.1875 5893.4688,168.4844 L5893.4688,171.2031 Q5892.8438,170.625 5892.25,170.3594 Q5891.6563,170.0781 5891.0313,170.0781 Q5889.6875,170.0781 5889,171.1563 Q5888.3125,172.2188 5888.3125,174.3125 Q5888.3125,176.4063 5889,177.4844 Q5889.6875,178.5469 5891.0313,178.5469 Q5891.6563,178.5469 5892.25,178.2813 Q5892.8438,178 5893.4688,177.4219 L5893.4688,180.1406 Z " fill="#000000"/><text fill="#000000" font-family="sans-serif" font-size="14" lengthAdjust="spacing" textLength="276.3496" x="5904.5" y="179.3467">logic_arc_int__baselibs__dynamic_array</text><line style="stroke:#181818;stroke-width:0.5;" x1="5876.5" x2="6182.8496" y1="190.5" y2="190.5"/></g><!--class comp_arc_sta__baselibs__filesystem--><g id="elem_comp_arc_sta__baselibs__filesystem"><rect fill="#F1F1F1" height="40" id="comp_arc_sta__baselibs__filesystem" rx="2.5" ry="2.5" style="stroke:#181818;stroke-width:0.5;" width="285.4492" x="4958" y="275.5"/><ellipse cx="4973" cy="291.5" fill="#ADD1B2" rx="11" ry="11" style="stroke:#181818;stroke-width:1;"/><path d="M4975.9688,297.1406 Q4975.3906,297.4375 4974.75,297.5781 Q4974.1094,297.7344 4973.4063,297.7344 Q4970.9063,297.7344 4969.5781,296.0938 Q4968.2656,294.4375 4968.2656,291.3125 Q4968.2656,288.1875 4969.5781,286.5313 Q4970.9063,284.875 4973.4063,284.875 Q4974.1094,284.875 4974.75,285.0313 Q4975.4063,285.1875 4975.9688,285.4844 L4975.9688,288.2031 Q4975.3438,287.625 4974.75,287.3594 Q4974.1563,287.0781 4973.5313,287.0781 Q4972.1875,287.0781 4971.5,288.1563 Q4970.8125,289.2188 4970.8125,291.3125 Q4970.8125,293.4063 4971.5,294.4844 Q4972.1875,295.5469 4973.5313,295.5469 Q4974.1563,295.5469 4974.75,295.2813 Q4975.3438,295 4975.9688,294.4219 L4975.9688,297.1406 Z " fill="#000000"/><text fill="#000000" font-family="sans-serif" font-size="14" lengthAdjust="spacing" textLength="253.4492" x="4987" y="296.3467">comp_arc_sta__baselibs__filesystem</text><line style="stroke:#181818;stroke-width:0.5;" x1="4959" x2="5242.4492" y1="307.5" y2="307.5"/></g><!--class logic_arc_int__baselibs__filesystem--><g id="elem_logic_arc_int__baselibs__filesystem"><rect fill="#F1F1F1" height="40" id="logic_arc_int__baselibs__filesystem" rx="2.5" ry="2.5" style="stroke:#181818;stroke-width:0.5;" width="276.4805" x="4967.5" y="158.5"/><ellipse cx="4982.5" cy="174.5" fill="#ADD1B2" rx="11" ry="11" style="stroke:#181818;stroke-width:1;"/><path d="M4985.4688,180.1406 Q4984.8906,180.4375 4984.25,180.5781 Q4983.6094,180.7344 4982.9063,180.7344 Q4980.4063,180.7344 4979.0781,179.0938 Q4977.7656,177.4375 4977.7656,174.3125 Q4977.7656,171.1875 4979.0781,169.5313 Q4980.4063,167.875 4982.9063,167.875 Q4983.6094,167.875 4984.25,168.0313 Q4984.9063,168.1875 4985.4688,168.4844 L4985.4688,171.2031 Q4984.8438,170.625 4984.25,170.3594 Q4983.6563,170.0781 4983.0313,170.0781 Q4981.6875,170.0781 4981,171.1563 Q4980.3125,172.2188 4980.3125,174.3125 Q4980.3125,176.4063 4981,177.4844 Q4981.6875,178.5469 4983.0313,178.5469 Q4983.6563,178.5469 4984.25,178.2813 Q4984.8438,178 4985.4688,177.4219 L4985.4688,180.1406 Z " fill="#000000"/><text fill="#000000" font-family="sans-serif" font-size="14" lengthAdjust="spacing" textLength="244.4805" x="4996.5" y="179.3467">logic_arc_int__baselibs__filesystem</text><line style="stroke:#181818;stroke-width:0.5;" x1="4968.5" x2="5242.9805" y1="190.5" y2="190.5"/></g><!--class logic_arc_int__baselibs__task--><g id="elem_logic_arc_int__baselibs__task"><rect fill="#F1F1F1" height="40" id="logic_arc_int__baselibs__task" rx="2.5" ry="2.5" style="stroke:#181818;stroke-width:0.5;" width="234.0156" x="3304.5" y="158.5"/><ellipse cx="3319.5" cy="174.5" fill="#ADD1B2" rx="11" ry="11" style="stroke:#181818;stroke-width:1;"/><path d="M3322.4688,180.1406 Q3321.8906,180.4375 3321.25,180.5781 Q3320.6094,180.7344 3319.9063,180.7344 Q3317.4063,180.7344 3316.0781,179.0938 Q3314.7656,177.4375 3314.7656,174.3125 Q3314.7656,171.1875 3316.0781,169.5313 Q3317.4063,167.875 3319.9063,167.875 Q3320.6094,167.875 3321.25,168.0313 Q3321.9063,168.1875 3322.4688,168.4844 L3322.4688,171.2031 Q3321.8438,170.625 3321.25,170.3594 Q3320.6563,170.0781 3320.0313,170.0781 Q3318.6875,170.0781 3318,171.1563 Q3317.3125,172.2188 3317.3125,174.3125 Q3317.3125,176.4063 3318,177.4844 Q3318.6875,178.5469 3320.0313,178.5469 Q3320.6563,178.5469 3321.25,178.2813 Q3321.8438,178 3322.4688,177.4219 L3322.4688,180.1406 Z " fill="#000000"/><text fill="#000000" font-family="sans-serif" font-size="14" lengthAdjust="spacing" textLength="202.0156" x="3333.5" y="179.3467">logic_arc_int__baselibs__task</text><line style="stroke:#181818;stroke-width:0.5;" x1="3305.5" x2="3537.5156" y1="190.5" y2="190.5"/></g><!--class logic_arc_int__baselibs__bit_manipulation--><g id="elem_logic_arc_int__baselibs__bit_manipulation"><rect fill="#F1F1F1" height="40" id="logic_arc_int__baselibs__bit_manipulation" rx="2.5" ry="2.5" style="stroke:#181818;stroke-width:0.5;" width="321.8369" x="661.5" y="158.5"/><ellipse cx="676.5" cy="174.5" fill="#ADD1B2" rx="11" ry="11" style="stroke:#181818;stroke-width:1;"/><path d="M679.4688,180.1406 Q678.8906,180.4375 678.25,180.5781 Q677.6094,180.7344 676.9063,180.7344 Q674.4063,180.7344 673.0781,179.0938 Q671.7656,177.4375 671.7656,174.3125 Q671.7656,171.1875 673.0781,169.5313 Q674.4063,167.875 676.9063,167.875 Q677.6094,167.875 678.25,168.0313 Q678.9063,168.1875 679.4688,168.4844 L679.4688,171.2031 Q678.8438,170.625 678.25,170.3594 Q677.6563,170.0781 677.0313,170.0781 Q675.6875,170.0781 675,171.1563 Q674.3125,172.2188 674.3125,174.3125 Q674.3125,176.4063 675,177.4844 Q675.6875,178.5469 677.0313,178.5469 Q677.6563,178.5469 678.25,178.2813 Q678.8438,178 679.4688,177.4219 L679.4688,180.1406 Z " fill="#000000"/><text fill="#000000" font-family="sans-serif" font-size="14" lengthAdjust="spacing" textLength="289.8369" x="690.5" y="179.3467">logic_arc_int__baselibs__bit_manipulation</text><line style="stroke:#181818;stroke-width:0.5;" x1="662.5" x2="982.3369" y1="190.5" y2="190.5"/></g><!--class logic_arc_int__baselibs__utils_base64--><g id="elem_logic_arc_int__baselibs__utils_base64"><rect fill="#F1F1F1" height="40" id="logic_arc_int__baselibs__utils_base64" rx="2.5" ry="2.5" style="stroke:#181818;stroke-width:0.5;" width="292.1689" x="4640.5" y="158.5"/><ellipse cx="4655.5" cy="174.5" fill="#ADD1B2" rx="11" ry="11" style="stroke:#181818;stroke-width:1;"/><path d="M4658.4688,180.1406 Q4657.8906,180.4375 4657.25,180.5781 Q4656.6094,180.7344 4655.9063,180.7344 Q4653.4063,180.7344 4652.0781,179.0938 Q4650.7656,177.4375 4650.7656,174.3125 Q4650.7656,171.1875 4652.0781,169.5313 Q4653.4063,167.875 4655.9063,167.875 Q4656.6094,167.875 4657.25,168.0313 Q4657.9063,168.1875 4658.4688,168.4844 L4658.4688,171.2031 Q4657.8438,170.625 4657.25,170.3594 Q4656.6563,170.0781 4656.0313,170.0781 Q4654.6875,170.0781 4654,171.1563 Q4653.3125,172.2188 4653.3125,174.3125 Q4653.3125,176.4063 4654,177.4844 Q4654.6875,178.5469 4656.0313,178.5469 Q4656.6563,178.5469 4657.25,178.2813 Q4657.8438,178 4658.4688,177.4219 L4658.4688,180.1406 Z " fill="#000000"/><text fill="#000000" font-family="sans-serif" font-size="14" lengthAdjust="spacing" textLength="260.1689" x="4669.5" y="179.3467">logic_arc_int__baselibs__utils_base64</text><line style="stroke:#181818;stroke-width:0.5;" x1="4641.5" x2="4931.6689" y1="190.5" y2="190.5"/></g><!--class logic_arc_int__baselibs__condition_variable--><g id="elem_logic_arc_int__baselibs__condition_variable"><rect fill="#F1F1F1" height="40" id="logic_arc_int__baselibs__condition_variable" rx="2.5" ry="2.5" style="stroke:#181818;stroke-width:0.5;" width="332.7539" x="1019" y="158.5"/><ellipse cx="1034" cy="174.5" fill="#ADD1B2" rx="11" ry="11" style="stroke:#181818;stroke-width:1;"/><path d="M1036.9688,180.1406 Q1036.3906,180.4375 1035.75,180.5781 Q1035.1094,180.7344 1034.4063,180.7344 Q1031.9063,180.7344 1030.5781,179.0938 Q1029.2656,177.4375 1029.2656,174.3125 Q1029.2656,171.1875 1030.5781,169.5313 Q1031.9063,167.875 1034.4063,167.875 Q1035.1094,167.875 1035.75,168.0313 Q1036.4063,168.1875 1036.9688,168.4844 L1036.9688,171.2031 Q1036.3438,170.625 1035.75,170.3594 Q1035.1563,170.0781 1034.5313,170.0781 Q1033.1875,170.0781 1032.5,171.1563 Q1031.8125,172.2188 1031.8125,174.3125 Q1031.8125,176.4063 1032.5,177.4844 Q1033.1875,178.5469 1034.5313,178.5469 Q1035.1563,178.5469 1035.75,178.2813 Q1036.3438,178 1036.9688,177.4219 L1036.9688,180.1406 Z " fill="#000000"/><text fill="#000000" font-family="sans-serif" font-size="14" lengthAdjust="spacing" textLength="300.7539" x="1048" y="179.3467">logic_arc_int__baselibs__condition_variable</text><line style="stroke:#181818;stroke-width:0.5;" x1="1020" x2="1350.7539" y1="190.5" y2="190.5"/></g><!--class comp_arc_sta__baselibs__utils--><g id="elem_comp_arc_sta__baselibs__utils"><rect fill="#F1F1F1" height="40" id="comp_arc_sta__baselibs__utils" rx="2.5" ry="2.5" style="stroke:#181818;stroke-width:0.5;" width="242.9502" x="4495" y="275.5"/><ellipse cx="4510" cy="291.5" fill="#ADD1B2" rx="11" ry="11" style="stroke:#181818;stroke-width:1;"/><path d="M4512.9688,297.1406 Q4512.3906,297.4375 4511.75,297.5781 Q4511.1094,297.7344 4510.4063,297.7344 Q4507.9063,297.7344 4506.5781,296.0938 Q4505.2656,294.4375 4505.2656,291.3125 Q4505.2656,288.1875 4506.5781,286.5313 Q4507.9063,284.875 4510.4063,284.875 Q4511.1094,284.875 4511.75,285.0313 Q4512.4063,285.1875 4512.9688,285.4844 L4512.9688,288.2031 Q4512.3438,287.625 4511.75,287.3594 Q4511.1563,287.0781 4510.5313,287.0781 Q4509.1875,287.0781 4508.5,288.1563 Q4507.8125,289.2188 4507.8125,291.3125 Q4507.8125,293.4063 4508.5,294.4844 Q4509.1875,295.5469 4510.5313,295.5469 Q4511.1563,295.5469 4511.75,295.2813 Q4512.3438,295 4512.9688,294.4219 L4512.9688,297.1406 Z " fill="#000000"/><text fill="#000000" font-family="sans-serif" font-size="14" lengthAdjust="spacing" textLength="210.9502" x="4524" y="296.3467">comp_arc_sta__baselibs__utils</text><line style="stroke:#181818;stroke-width:0.5;" x1="4496" x2="4736.9502" y1="307.5" y2="307.5"/></g><!--class logic_arc_int__baselibs__utils_scoped_op--><g id="elem_logic_arc_int__baselibs__utils_scoped_op"><rect fill="#F1F1F1" height="40" id="logic_arc_int__baselibs__utils_scoped_op" rx="2.5" ry="2.5" style="stroke:#181818;stroke-width:0.5;" width="315.377" x="4290" y="158.5"/><ellipse cx="4305" cy="174.5" fill="#ADD1B2" rx="11" ry="11" style="stroke:#181818;stroke-width:1;"/><path d="M4307.9688,180.1406 Q4307.3906,180.4375 4306.75,180.5781 Q4306.1094,180.7344 4305.4063,180.7344 Q4302.9063,180.7344 4301.5781,179.0938 Q4300.2656,177.4375 4300.2656,174.3125 Q4300.2656,171.1875 4301.5781,169.5313 Q4302.9063,167.875 4305.4063,167.875 Q4306.1094,167.875 4306.75,168.0313 Q4307.4063,168.1875 4307.9688,168.4844 L4307.9688,171.2031 Q4307.3438,170.625 4306.75,170.3594 Q4306.1563,170.0781 4305.5313,170.0781 Q4304.1875,170.0781 4303.5,171.1563 Q4302.8125,172.2188 4302.8125,174.3125 Q4302.8125,176.4063 4303.5,177.4844 Q4304.1875,178.5469 4305.5313,178.5469 Q4306.1563,178.5469 4306.75,178.2813 Q4307.3438,178 4307.9688,177.4219 L4307.9688,180.1406 Z " fill="#000000"/><text fill="#000000" font-family="sans-serif" font-size="14" lengthAdjust="spacing" textLength="283.377" x="4319" y="179.3467">logic_arc_int__baselibs__utils_scoped_op</text><line style="stroke:#181818;stroke-width:0.5;" x1="4291" x2="4604.377" y1="190.5" y2="190.5"/></g><!--class logic_arc_int__baselibs__task_result--><g id="elem_logic_arc_int__baselibs__task_result"><rect fill="#F1F1F1" height="40" id="logic_arc_int__baselibs__task_result" rx="2.5" ry="2.5" style="stroke:#181818;stroke-width:0.5;" width="280.9307" x="2354" y="158.5"/><ellipse cx="2369" cy="174.5" fill="#ADD1B2" rx="11" ry="11" style="stroke:#181818;stroke-width:1;"/><path d="M2371.9688,180.1406 Q2371.3906,180.4375 2370.75,180.5781 Q2370.1094,180.7344 2369.4063,180.7344 Q2366.9063,180.7344 2365.5781,179.0938 Q2364.2656,177.4375 2364.2656,174.3125 Q2364.2656,171.1875 2365.5781,169.5313 Q2366.9063,167.875 2369.4063,167.875 Q2370.1094,167.875 2370.75,168.0313 Q2371.4063,168.1875 2371.9688,168.4844 L2371.9688,171.2031 Q2371.3438,170.625 2370.75,170.3594 Q2370.1563,170.0781 2369.5313,170.0781 Q2368.1875,170.0781 2367.5,171.1563 Q2366.8125,172.2188 2366.8125,174.3125 Q2366.8125,176.4063 2367.5,177.4844 Q2368.1875,178.5469 2369.5313,178.5469 Q2370.1563,178.5469 2370.75,178.2813 Q2371.3438,178 2371.9688,177.4219 L2371.9688,180.1406 Z " fill="#000000"/><text fill="#000000" font-family="sans-serif" font-size="14" lengthAdjust="spacing" textLength="248.9307" x="2383" y="179.3467">logic_arc_int__baselibs__task_result</text><line style="stroke:#181818;stroke-width:0.5;" x1="2355" x2="2633.9307" y1="190.5" y2="190.5"/></g><!--class logic_arc_int__baselibs__promise--><g id="elem_logic_arc_int__baselibs__promise"><rect fill="#F1F1F1" height="40" id="logic_arc_int__baselibs__promise" rx="2.5" ry="2.5" style="stroke:#181818;stroke-width:0.5;" width="261.1885" x="3008" y="158.5"/><ellipse cx="3023" cy="174.5" fill="#ADD1B2" rx="11" ry="11" style="stroke:#181818;stroke-width:1;"/><path d="M3025.9688,180.1406 Q3025.3906,180.4375 3024.75,180.5781 Q3024.1094,180.7344 3023.4063,180.7344 Q3020.9063,180.7344 3019.5781,179.0938 Q3018.2656,177.4375 3018.2656,174.3125 Q3018.2656,171.1875 3019.5781,169.5313 Q3020.9063,167.875 3023.4063,167.875 Q3024.1094,167.875 3024.75,168.0313 Q3025.4063,168.1875 3025.9688,168.4844 L3025.9688,171.2031 Q3025.3438,170.625 3024.75,170.3594 Q3024.1563,170.0781 3023.5313,170.0781 Q3022.1875,170.0781 3021.5,171.1563 Q3020.8125,172.2188 3020.8125,174.3125 Q3020.8125,176.4063 3021.5,177.4844 Q3022.1875,178.5469 3023.5313,178.5469 Q3024.1563,178.5469 3024.75,178.2813 Q3025.3438,178 3025.9688,177.4219 L3025.9688,180.1406 Z " fill="#000000"/><text fill="#000000" font-family="sans-serif" font-size="14" lengthAdjust="spacing" textLength="229.1885" x="3037" y="179.3467">logic_arc_int__baselibs__promise</text><line style="stroke:#181818;stroke-width:0.5;" x1="3009" x2="3268.1885" y1="190.5" y2="190.5"/></g><!--class logic_arc_int__baselibs__shared_future--><g id="elem_logic_arc_int__baselibs__shared_future"><rect fill="#F1F1F1" height="40" id="logic_arc_int__baselibs__shared_future" rx="2.5" ry="2.5" style="stroke:#181818;stroke-width:0.5;" width="302.0811" x="2670.5" y="158.5"/><ellipse cx="2685.5" cy="174.5" fill="#ADD1B2" rx="11" ry="11" style="stroke:#181818;stroke-width:1;"/><path d="M2688.4688,180.1406 Q2687.8906,180.4375 2687.25,180.5781 Q2686.6094,180.7344 2685.9063,180.7344 Q2683.4063,180.7344 2682.0781,179.0938 Q2680.7656,177.4375 2680.7656,174.3125 Q2680.7656,171.1875 2682.0781,169.5313 Q2683.4063,167.875 2685.9063,167.875 Q2686.6094,167.875 2687.25,168.0313 Q2687.9063,168.1875 2688.4688,168.4844 L2688.4688,171.2031 Q2687.8438,170.625 2687.25,170.3594 Q2686.6563,170.0781 2686.0313,170.0781 Q2684.6875,170.0781 2684,171.1563 Q2683.3125,172.2188 2683.3125,174.3125 Q2683.3125,176.4063 2684,177.4844 Q2684.6875,178.5469 2686.0313,178.5469 Q2686.6563,178.5469 2687.25,178.2813 Q2687.8438,178 2688.4688,177.4219 L2688.4688,180.1406 Z " fill="#000000"/><text fill="#000000" font-family="sans-serif" font-size="14" lengthAdjust="spacing" textLength="270.0811" x="2699.5" y="179.3467">logic_arc_int__baselibs__shared_future</text><line style="stroke:#181818;stroke-width:0.5;" x1="2671.5" x2="2971.5811" y1="190.5" y2="190.5"/></g><!--class comp_arc_sta__baselibs__memory_shared--><g id="elem_comp_arc_sta__baselibs__memory_shared"><rect fill="#F1F1F1" height="40" id="comp_arc_sta__baselibs__memory_shared" rx="2.5" ry="2.5" style="stroke:#181818;stroke-width:0.5;" width="327.0117" x="3936" y="275.5"/><ellipse cx="3951" cy="291.5" fill="#ADD1B2" rx="11" ry="11" style="stroke:#181818;stroke-width:1;"/><path d="M3953.9688,297.1406 Q3953.3906,297.4375 3952.75,297.5781 Q3952.1094,297.7344 3951.4063,297.7344 Q3948.9063,297.7344 3947.5781,296.0938 Q3946.2656,294.4375 3946.2656,291.3125 Q3946.2656,288.1875 3947.5781,286.5313 Q3948.9063,284.875 3951.4063,284.875 Q3952.1094,284.875 3952.75,285.0313 Q3953.4063,285.1875 3953.9688,285.4844 L3953.9688,288.2031 Q3953.3438,287.625 3952.75,287.3594 Q3952.1563,287.0781 3951.5313,287.0781 Q3950.1875,287.0781 3949.5,288.1563 Q3948.8125,289.2188 3948.8125,291.3125 Q3948.8125,293.4063 3949.5,294.4844 Q3950.1875,295.5469 3951.5313,295.5469 Q3952.1563,295.5469 3952.75,295.2813 Q3953.3438,295 3953.9688,294.4219 L3953.9688,297.1406 Z " fill="#000000"/><text fill="#000000" font-family="sans-serif" font-size="14" lengthAdjust="spacing" textLength="295.0117" x="3965" y="296.3467">comp_arc_sta__baselibs__memory_shared</text><line style="stroke:#181818;stroke-width:0.5;" x1="3937" x2="4262.0117" y1="307.5" y2="307.5"/></g><!--class logic_arc_int__baselibs__bit_mask_operator--><g id="elem_logic_arc_int__baselibs__bit_mask_operator"><rect fill="#F1F1F1" height="40" id="logic_arc_int__baselibs__bit_mask_operator" rx="2.5" ry="2.5" style="stroke:#181818;stroke-width:0.5;" width="334.6406" x="291" y="158.5"/><ellipse cx="306" cy="174.5" fill="#ADD1B2" rx="11" ry="11" style="stroke:#181818;stroke-width:1;"/><path d="M308.9688,180.1406 Q308.3906,180.4375 307.75,180.5781 Q307.1094,180.7344 306.4063,180.7344 Q303.9063,180.7344 302.5781,179.0938 Q301.2656,177.4375 301.2656,174.3125 Q301.2656,171.1875 302.5781,169.5313 Q303.9063,167.875 306.4063,167.875 Q307.1094,167.875 307.75,168.0313 Q308.4063,168.1875 308.9688,168.4844 L308.9688,171.2031 Q308.3438,170.625 307.75,170.3594 Q307.1563,170.0781 306.5313,170.0781 Q305.1875,170.0781 304.5,171.1563 Q303.8125,172.2188 303.8125,174.3125 Q303.8125,176.4063 304.5,177.4844 Q305.1875,178.5469 306.5313,178.5469 Q307.1563,178.5469 307.75,178.2813 Q308.3438,178 308.9688,177.4219 L308.9688,180.1406 Z " fill="#000000"/><text fill="#000000" font-family="sans-serif" font-size="14" lengthAdjust="spacing" textLength="302.6406" x="320" y="179.3467">logic_arc_int__baselibs__bit_mask_operator</text><line style="stroke:#181818;stroke-width:0.5;" x1="292" x2="624.6406" y1="190.5" y2="190.5"/></g><!--class comp_arc_sta__baselibs__message_passing--><g id="elem_comp_arc_sta__baselibs__message_passing"><rect fill="#F1F1F1" height="40" id="comp_arc_sta__baselibs__message_passing" rx="2.5" ry="2.5" style="stroke:#181818;stroke-width:0.5;" width="337.1357" x="3564" y="275.5"/><ellipse cx="3579" cy="291.5" fill="#ADD1B2" rx="11" ry="11" style="stroke:#181818;stroke-width:1;"/><path d="M3581.9688,297.1406 Q3581.3906,297.4375 3580.75,297.5781 Q3580.1094,297.7344 3579.4063,297.7344 Q3576.9063,297.7344 3575.5781,296.0938 Q3574.2656,294.4375 3574.2656,291.3125 Q3574.2656,288.1875 3575.5781,286.5313 Q3576.9063,284.875 3579.4063,284.875 Q3580.1094,284.875 3580.75,285.0313 Q3581.4063,285.1875 3581.9688,285.4844 L3581.9688,288.2031 Q3581.3438,287.625 3580.75,287.3594 Q3580.1563,287.0781 3579.5313,287.0781 Q3578.1875,287.0781 3577.5,288.1563 Q3576.8125,289.2188 3576.8125,291.3125 Q3576.8125,293.4063 3577.5,294.4844 Q3578.1875,295.5469 3579.5313,295.5469 Q3580.1563,295.5469 3580.75,295.2813 Q3581.3438,295 3581.9688,294.4219 L3581.9688,297.1406 Z " fill="#000000"/><text fill="#000000" font-family="sans-serif" font-size="14" lengthAdjust="spacing" textLength="305.1357" x="3593" y="296.3467">comp_arc_sta__baselibs__message_passing</text><line style="stroke:#181818;stroke-width:0.5;" x1="3565" x2="3900.1357" y1="307.5" y2="307.5"/></g><!--class logic_arc_int__baselibs__synchronized_queue--><g id="elem_logic_arc_int__baselibs__synchronized_queue"><rect fill="#F1F1F1" height="40" id="logic_arc_int__baselibs__synchronized_queue" rx="2.5" ry="2.5" style="stroke:#181818;stroke-width:0.5;" width="348.3604" x="1688.5" y="158.5"/><ellipse cx="1703.5" cy="174.5" fill="#ADD1B2" rx="11" ry="11" style="stroke:#181818;stroke-width:1;"/><path d="M1706.4688,180.1406 Q1705.8906,180.4375 1705.25,180.5781 Q1704.6094,180.7344 1703.9063,180.7344 Q1701.4063,180.7344 1700.0781,179.0938 Q1698.7656,177.4375 1698.7656,174.3125 Q1698.7656,171.1875 1700.0781,169.5313 Q1701.4063,167.875 1703.9063,167.875 Q1704.6094,167.875 1705.25,168.0313 Q1705.9063,168.1875 1706.4688,168.4844 L1706.4688,171.2031 Q1705.8438,170.625 1705.25,170.3594 Q1704.6563,170.0781 1704.0313,170.0781 Q1702.6875,170.0781 1702,171.1563 Q1701.3125,172.2188 1701.3125,174.3125 Q1701.3125,176.4063 1702,177.4844 Q1702.6875,178.5469 1704.0313,178.5469 Q1704.6563,178.5469 1705.25,178.2813 Q1705.8438,178 1706.4688,177.4219 L1706.4688,180.1406 Z " fill="#000000"/><text fill="#000000" font-family="sans-serif" font-size="14" lengthAdjust="spacing" textLength="316.3604" x="1717.5" y="179.3467">logic_arc_int__baselibs__synchronized_queue</text><line style="stroke:#181818;stroke-width:0.5;" x1="1689.5" x2="2035.8604" y1="190.5" y2="190.5"/></g><!--class comp_arc_sta__baselibs__bit_manipulation--><g id="elem_comp_arc_sta__baselibs__bit_manipulation"><rect fill="#F1F1F1" height="40" id="comp_arc_sta__baselibs__bit_manipulation" rx="2.5" ry="2.5" style="stroke:#181818;stroke-width:0.5;" width="330.8057" x="444" y="275.5"/><ellipse cx="459" cy="291.5" fill="#ADD1B2" rx="11" ry="11" style="stroke:#181818;stroke-width:1;"/><path d="M461.9688,297.1406 Q461.3906,297.4375 460.75,297.5781 Q460.1094,297.7344 459.4063,297.7344 Q456.9063,297.7344 455.5781,296.0938 Q454.2656,294.4375 454.2656,291.3125 Q454.2656,288.1875 455.5781,286.5313 Q456.9063,284.875 459.4063,284.875 Q460.1094,284.875 460.75,285.0313 Q461.4063,285.1875 461.9688,285.4844 L461.9688,288.2031 Q461.3438,287.625 460.75,287.3594 Q460.1563,287.0781 459.5313,287.0781 Q458.1875,287.0781 457.5,288.1563 Q456.8125,289.2188 456.8125,291.3125 Q456.8125,293.4063 457.5,294.4844 Q458.1875,295.5469 459.5313,295.5469 Q460.1563,295.5469 460.75,295.2813 Q461.3438,295 461.9688,294.4219 L461.9688,297.1406 Z " fill="#000000"/><text fill="#000000" font-family="sans-serif" font-size="14" lengthAdjust="spacing" textLength="298.8057" x="473" y="296.3467">comp_arc_sta__baselibs__bit_manipulation</text><line style="stroke:#181818;stroke-width:0.5;" x1="445" x2="773.8057" y1="307.5" y2="307.5"/></g><!--class comp_arc_sta__baselibs__result--><g id="elem_comp_arc_sta__baselibs__result"><rect fill="#F1F1F1" height="40" id="comp_arc_sta__baselibs__result" rx="2.5" ry="2.5" style="stroke:#181818;stroke-width:0.5;" width="253.4297" x="7" y="275.5"/><ellipse cx="22" cy="291.5" fill="#ADD1B2" rx="11" ry="11" style="stroke:#181818;stroke-width:1;"/><path d="M24.9688,297.1406 Q24.3906,297.4375 23.75,297.5781 Q23.1094,297.7344 22.4063,297.7344 Q19.9063,297.7344 18.5781,296.0938 Q17.2656,294.4375 17.2656,291.3125 Q17.2656,288.1875 18.5781,286.5313 Q19.9063,284.875 22.4063,284.875 Q23.1094,284.875 23.75,285.0313 Q24.4063,285.1875 24.9688,285.4844 L24.9688,288.2031 Q24.3438,287.625 23.75,287.3594 Q23.1563,287.0781 22.5313,287.0781 Q21.1875,287.0781 20.5,288.1563 Q19.8125,289.2188 19.8125,291.3125 Q19.8125,293.4063 20.5,294.4844 Q21.1875,295.5469 22.5313,295.5469 Q23.1563,295.5469 23.75,295.2813 Q24.3438,295 24.9688,294.4219 L24.9688,297.1406 Z " fill="#000000"/><text fill="#000000" font-family="sans-serif" font-size="14" lengthAdjust="spacing" textLength="221.4297" x="36" y="296.3467">comp_arc_sta__baselibs__result</text><line style="stroke:#181818;stroke-width:0.5;" x1="8" x2="259.4297" y1="307.5" y2="307.5"/></g><!--link Feature_User to logic_arc_int__baselibs__result--><g id="link_Feature_User_logic_arc_int__baselibs__result"><path codeLine="14" d="M3093.15,45.42 C2868.84,50.1 1855.58,72.48 1026.5,111.5 C691.55,127.26 607.19,125.49 273.5,158.5 C267.64,159.08 267.6123,159.0487 261.5723,159.7287 " fill="transparent" id="Feature_User-to-logic_arc_int__baselibs__result" style="stroke:#181818;stroke-width:1;"/><polygon fill="#181818" points="255.61,160.4,265.001,163.368,260.5786,159.8406,264.106,155.4182,255.61,160.4" style="stroke:#181818;stroke-width:1;"/><text fill="#000000" font-family="sans-serif" font-size="13" lengthAdjust="spacing" textLength="23.0103" x="1027.5" y="124.5669">use</text></g><!--reverse link logic_arc_int__baselibs__intrusive_list to comp_arc_sta__baselibs__containers--><g id="link_logic_arc_int__baselibs__intrusive_list_comp_arc_sta__baselibs__containers"><path codeLine="15" d="M5726.7506,202.1252 C5758.0406,223.4152 5803.19,254.14 5834.4,275.38 " fill="transparent" id="logic_arc_int__baselibs__intrusive_list-backto-comp_arc_sta__baselibs__containers" style="stroke:#181818;stroke-width:1;"/><polygon fill="#181818" points="5721.79,198.75,5726.9808,207.1199,5725.9238,201.5627,5731.4811,200.5058,5721.79,198.75" style="stroke:#181818;stroke-width:1;"/><text fill="#000000" font-family="sans-serif" font-size="13" lengthAdjust="spacing" textLength="76.9082" x="5788.5" y="241.5669">implements</text></g><!--link Feature_User to logic_arc_int__baselibs__memory_shared--><g id="link_Feature_User_logic_arc_int__baselibs__memory_shared"><path codeLine="17" d="M3183.69,50.78 C3321.43,69.92 3733.8971,127.2441 3952.7871,157.6641 " fill="transparent" id="Feature_User-to-logic_arc_int__baselibs__memory_shared" style="stroke:#181818;stroke-width:1;"/><polygon fill="#181818" points="3958.73,158.49,3950.3663,153.2892,3953.7776,157.8017,3949.2651,161.2131,3958.73,158.49" style="stroke:#181818;stroke-width:1;"/><text fill="#000000" font-family="sans-serif" font-size="13" lengthAdjust="spacing" textLength="23.0103" x="3731.5" y="124.5669">use</text></g><!--link Feature_User to logic_arc_int__baselibs__message_passing--><g id="link_Feature_User_logic_arc_int__baselibs__message_passing"><path codeLine="18" d="M3183.52,54.5 C3282.97,76.58 3516.8826,128.5198 3645.9526,157.1698 " fill="transparent" id="Feature_User-to-logic_arc_int__baselibs__message_passing" style="stroke:#181818;stroke-width:1;"/><polygon fill="#181818" points="3651.81,158.47,3643.8906,152.6148,3646.9288,157.3865,3642.1571,160.4247,3651.81,158.47" style="stroke:#181818;stroke-width:1;"/><text fill="#000000" font-family="sans-serif" font-size="13" lengthAdjust="spacing" textLength="23.0103" x="3509.5" y="124.5669">use</text></g><!--reverse link logic_arc_int__baselibs__future to comp_arc_sta__baselibs__concurrency--><g id="link_logic_arc_int__baselibs__future_comp_arc_sta__baselibs__concurrency"><path codeLine="19" d="M2225.1894,202.4165 C2252.6894,223.6465 2291.94,253.94 2319.48,275.19 " fill="transparent" id="logic_arc_int__baselibs__future-backto-comp_arc_sta__baselibs__concurrency" style="stroke:#181818;stroke-width:1;"/><polygon fill="#181818" points="2220.44,198.75,2225.1197,207.416,2224.3978,201.8054,2230.0084,201.0835,2220.44,198.75" style="stroke:#181818;stroke-width:1;"/><text fill="#000000" font-family="sans-serif" font-size="13" lengthAdjust="spacing" textLength="76.9082" x="2279.5" y="241.5669">implements</text></g><!--link Feature_User to logic_arc_int__baselibs__future--><g id="link_Feature_User_logic_arc_int__baselibs__future"><path codeLine="20" d="M3093.33,50.87 C2954.62,70.43 2537.2912,129.292 2325.2412,159.202 " fill="transparent" id="Feature_User-to-logic_arc_int__baselibs__future" style="stroke:#181818;stroke-width:1;"/><polygon fill="#181818" points="2319.3,160.04,2328.7705,162.7438,2324.251,159.3417,2327.6531,154.8222,2319.3,160.04" style="stroke:#181818;stroke-width:1;"/><text fill="#000000" font-family="sans-serif" font-size="13" lengthAdjust="spacing" textLength="23.0103" x="2639.5" y="124.5669">use</text></g><!--link Feature_User to logic_arc_int__baselibs__executor--><g id="link_Feature_User_logic_arc_int__baselibs__executor"><path codeLine="21" d="M3093.38,47.2 C2913.56,58.14 2230.61,101.31 1670.5,158.5 C1665.02,159.06 1665.3842,159.0055 1659.7342,159.6255 " fill="transparent" id="Feature_User-to-logic_arc_int__baselibs__executor" style="stroke:#181818;stroke-width:1;"/><polygon fill="#181818" points="1653.77,160.28,1663.1526,163.2744,1658.7402,159.7346,1662.28,155.3222,1653.77,160.28" style="stroke:#181818;stroke-width:1;"/><text fill="#000000" font-family="sans-serif" font-size="13" lengthAdjust="spacing" textLength="23.0103" x="2155.5" y="124.5669">use</text></g><!--reverse link logic_arc_int__baselibs__json to comp_arc_sta__baselibs__json--><g id="link_logic_arc_int__baselibs__json_comp_arc_sta__baselibs__json"><path codeLine="22" d="M5396.379,204.7464 C5397.119,225.9764 5398.09,253.94 5398.83,275.19 " fill="transparent" id="logic_arc_int__baselibs__json-backto-comp_arc_sta__baselibs__json" style="stroke:#181818;stroke-width:1;"/><polygon fill="#181818" points="5396.17,198.75,5392.4859,207.8839,5396.3442,203.747,5400.4811,207.6052,5396.17,198.75" style="stroke:#181818;stroke-width:1;"/><text fill="#000000" font-family="sans-serif" font-size="13" lengthAdjust="spacing" textLength="76.9082" x="5398.5" y="241.5669">implements</text></g><!--reverse link logic_arc_int__baselibs__dynamic_array to comp_arc_sta__baselibs__containers--><g id="link_logic_arc_int__baselibs__dynamic_array_comp_arc_sta__baselibs__containers"><path codeLine="23" d="M5996.6082,202.1527 C5965.6882,223.4427 5921.11,254.14 5890.26,275.38 " fill="transparent" id="logic_arc_int__baselibs__dynamic_array-backto-comp_arc_sta__baselibs__containers" style="stroke:#181818;stroke-width:1;"/><polygon fill="#181818" points="6001.55,198.75,5991.8688,200.5595,5997.4318,201.5856,5996.4057,207.1486,6001.55,198.75" style="stroke:#181818;stroke-width:1;"/><text fill="#000000" font-family="sans-serif" font-size="13" lengthAdjust="spacing" textLength="76.9082" x="5956.5" y="241.5669">implements</text></g><!--reverse link logic_arc_int__baselibs__filesystem to comp_arc_sta__baselibs__filesystem--><g id="link_logic_arc_int__baselibs__filesystem_comp_arc_sta__baselibs__filesystem"><path codeLine="24" d="M5104.4002,204.7444 C5103.4802,225.9744 5102.26,253.94 5101.34,275.19 " fill="transparent" id="logic_arc_int__baselibs__filesystem-backto-comp_arc_sta__baselibs__filesystem" style="stroke:#181818;stroke-width:1;"/><polygon fill="#181818" points="5104.66,198.75,5100.2741,207.5684,5104.4435,203.7453,5108.2666,207.9147,5104.66,198.75" style="stroke:#181818;stroke-width:1;"/><text fill="#000000" font-family="sans-serif" font-size="13" lengthAdjust="spacing" textLength="76.9082" x="5103.5" y="241.5669">implements</text></g><!--reverse link logic_arc_int__baselibs__task to comp_arc_sta__baselibs__concurrency--><g id="link_logic_arc_int__baselibs__task_comp_arc_sta__baselibs__concurrency"><path codeLine="25" d="M3298.4929,196.9249 C3292.4329,197.7349 3292.37,197.74 3286.5,198.5 C3111.18,221.27 3067.34,227.17 2891.5,245.5 C2757.43,259.48 2604.62,272.96 2494.65,282.23 " fill="transparent" id="logic_arc_int__baselibs__task-backto-comp_arc_sta__baselibs__concurrency" style="stroke:#181818;stroke-width:1;"/><polygon fill="#181818" points="3304.44,196.13,3294.9894,193.3576,3299.4841,196.7924,3296.0493,201.2871,3304.44,196.13" style="stroke:#181818;stroke-width:1;"/><text fill="#000000" font-family="sans-serif" font-size="13" lengthAdjust="spacing" textLength="76.9082" x="3042.5" y="241.5669">implements</text></g><!--link Feature_User to logic_arc_int__baselibs__filesystem--><g id="link_Feature_User_logic_arc_int__baselibs__filesystem"><path codeLine="26" d="M3183.76,46.23 C3388.45,54.27 4248.11,90.56 4950.5,158.5 C4956.03,159.04 4955.7019,158.9922 4961.4019,159.5822 " fill="transparent" id="Feature_User-to-logic_arc_int__baselibs__filesystem" style="stroke:#181818;stroke-width:1;"/><polygon fill="#181818" points="4967.37,160.2,4958.8297,155.2946,4962.3966,159.6852,4958.006,163.2521,4967.37,160.2" style="stroke:#181818;stroke-width:1;"/><text fill="#000000" font-family="sans-serif" font-size="13" lengthAdjust="spacing" textLength="23.0103" x="4604.5" y="124.5669">use</text></g><!--link Feature_User to logic_arc_int__baselibs__bit_manipulation--><g id="link_Feature_User_logic_arc_int__baselibs__bit_manipulation"><path codeLine="27" d="M3093.31,45.78 C2867.58,52.43 1839.85,85.48 1001.5,158.5 C995.74,159 995.8543,158.975 989.9343,159.525 " fill="transparent" id="Feature_User-to-logic_arc_int__baselibs__bit_manipulation" style="stroke:#181818;stroke-width:1;"/><polygon fill="#181818" points="983.96,160.08,993.2914,163.2303,988.9386,159.6175,992.5514,155.2646,983.96,160.08" style="stroke:#181818;stroke-width:1;"/><text fill="#000000" font-family="sans-serif" font-size="13" lengthAdjust="spacing" textLength="23.0103" x="1589.5" y="124.5669">use</text></g><!--link Feature_User to logic_arc_int__baselibs__utils_base64--><g id="link_Feature_User_logic_arc_int__baselibs__utils_base64"><path codeLine="28" d="M3183.79,47.34 C3365.03,58.83 4055.68,103.91 4622.5,158.5 C4628.35,159.06 4628.3415,159.0463 4634.3715,159.6663 " fill="transparent" id="Feature_User-to-logic_arc_int__baselibs__utils_base64" style="stroke:#181818;stroke-width:1;"/><polygon fill="#181818" points="4640.34,160.28,4631.7963,155.3805,4635.3662,159.7686,4630.9781,163.3385,4640.34,160.28" style="stroke:#181818;stroke-width:1;"/><text fill="#000000" font-family="sans-serif" font-size="13" lengthAdjust="spacing" textLength="23.0103" x="4256.5" y="124.5669">use</text></g><!--link Feature_User to logic_arc_int__baselibs__condition_variable--><g id="link_Feature_User_logic_arc_int__baselibs__condition_variable"><path codeLine="29" d="M3093.23,46.7 C2936.29,54.41 2401.06,81.37 1959.5,111.5 C1697.06,129.41 1631.46,134.54 1369.5,158.5 C1363.9,159.01 1364.1826,158.9677 1358.4426,159.5177 " fill="transparent" id="Feature_User-to-logic_arc_int__baselibs__condition_variable" style="stroke:#181818;stroke-width:1;"/><polygon fill="#181818" points="1352.47,160.09,1361.8105,163.2133,1357.4472,159.6131,1361.0474,155.2498,1352.47,160.09" style="stroke:#181818;stroke-width:1;"/><text fill="#000000" font-family="sans-serif" font-size="13" lengthAdjust="spacing" textLength="23.0103" x="1960.5" y="124.5669">use</text></g><!--reverse link logic_arc_int__baselibs__utils_scoped_op to comp_arc_sta__baselibs__utils--><g id="link_logic_arc_int__baselibs__utils_scoped_op_comp_arc_sta__baselibs__utils"><path codeLine="30" d="M4480.7506,202.1252 C4512.0406,223.4152 4557.19,254.14 4588.4,275.38 " fill="transparent" id="logic_arc_int__baselibs__utils_scoped_op-backto-comp_arc_sta__baselibs__utils" style="stroke:#181818;stroke-width:1;"/><polygon fill="#181818" points="4475.79,198.75,4480.9808,207.1199,4479.9238,201.5627,4485.4811,200.5058,4475.79,198.75" style="stroke:#181818;stroke-width:1;"/><text fill="#000000" font-family="sans-serif" font-size="13" lengthAdjust="spacing" textLength="76.9082" x="4542.5" y="241.5669">implements</text></g><!--link Feature_User to logic_arc_int__baselibs__task_result--><g id="link_Feature_User_logic_arc_int__baselibs__task_result"><path codeLine="31" d="M3093.47,53.8 C2988.73,75.43 2732.906,128.2665 2592.626,157.2365 " fill="transparent" id="Feature_User-to-logic_arc_int__baselibs__task_result" style="stroke:#181818;stroke-width:1;"/><polygon fill="#181818" points="2586.75,158.45,2596.373,160.5471,2591.6467,157.4388,2594.755,152.7124,2586.75,158.45" style="stroke:#181818;stroke-width:1;"/><text fill="#000000" font-family="sans-serif" font-size="13" lengthAdjust="spacing" textLength="23.0103" x="2797.5" y="124.5669">use</text></g><!--link Feature_User to logic_arc_int__baselibs__promise--><g id="link_Feature_User_logic_arc_int__baselibs__promise"><path codeLine="32" d="M3138.5,81.55 C3138.5,106.45 3138.5,132.26 3138.5,152.26 " fill="transparent" id="Feature_User-to-logic_arc_int__baselibs__promise" style="stroke:#181818;stroke-width:1;"/><polygon fill="#181818" points="3138.5,158.26,3142.5,149.26,3138.5,153.26,3134.5,149.26,3138.5,158.26" style="stroke:#181818;stroke-width:1;"/><text fill="#000000" font-family="sans-serif" font-size="13" lengthAdjust="spacing" textLength="23.0103" x="3139.5" y="124.5669">use</text></g><!--reverse link logic_arc_int__baselibs__shared_future to comp_arc_sta__baselibs__concurrency--><g id="link_logic_arc_int__baselibs__shared_future_comp_arc_sta__baselibs__concurrency"><path codeLine="33" d="M2736.6371,199.9564 C2648.3371,221.2464 2512.05,254.11 2423.69,275.41 " fill="transparent" id="logic_arc_int__baselibs__shared_future-backto-comp_arc_sta__baselibs__concurrency" style="stroke:#181818;stroke-width:1;"/><polygon fill="#181818" points="2742.47,198.55,2732.7832,196.771,2737.6093,199.722,2734.6583,204.5481,2742.47,198.55" style="stroke:#181818;stroke-width:1;"/><text fill="#000000" font-family="sans-serif" font-size="13" lengthAdjust="spacing" textLength="76.9082" x="2612.5" y="241.5669">implements</text></g><!--reverse link logic_arc_int__baselibs__utils_base64 to comp_arc_sta__baselibs__utils--><g id="link_logic_arc_int__baselibs__utils_base64_comp_arc_sta__baselibs__utils"><path codeLine="34" d="M4753.0799,202.1113 C4721.5999,223.4013 4676.16,254.14 4644.76,275.38 " fill="transparent" id="logic_arc_int__baselibs__utils_base64-backto-comp_arc_sta__baselibs__utils" style="stroke:#181818;stroke-width:1;"/><polygon fill="#181818" points="4758.05,198.75,4748.354,200.4785,4753.9083,201.5511,4752.8357,207.1053,4758.05,198.75" style="stroke:#181818;stroke-width:1;"/><text fill="#000000" font-family="sans-serif" font-size="13" lengthAdjust="spacing" textLength="76.9082" x="4712.5" y="241.5669">implements</text></g><!--reverse link logic_arc_int__baselibs__memory_shared to comp_arc_sta__baselibs__memory_shared--><g id="link_logic_arc_int__baselibs__memory_shared_comp_arc_sta__baselibs__memory_shared"><path codeLine="35" d="M4096.379,204.7464 C4097.119,225.9764 4098.09,253.94 4098.83,275.19 " fill="transparent" id="logic_arc_int__baselibs__memory_shared-backto-comp_arc_sta__baselibs__memory_shared" style="stroke:#181818;stroke-width:1;"/><polygon fill="#181818" points="4096.17,198.75,4092.4859,207.8839,4096.3442,203.747,4100.4811,207.6052,4096.17,198.75" style="stroke:#181818;stroke-width:1;"/><text fill="#000000" font-family="sans-serif" font-size="13" lengthAdjust="spacing" textLength="76.9082" x="4098.5" y="241.5669">implements</text></g><!--link Feature_User to logic_arc_int__baselibs__bit_mask_operator--><g id="link_Feature_User_logic_arc_int__baselibs__bit_mask_operator"><path codeLine="36" d="M3093.24,45.79 C2892.22,51.61 2060.03,76.67 1377.5,111.5 C1051.03,128.16 969.26,131.35 643.5,158.5 C637.87,158.97 638.1159,158.9224 632.3359,159.4424 " fill="transparent" id="Feature_User-to-logic_arc_int__baselibs__bit_mask_operator" style="stroke:#181818;stroke-width:1;"/><polygon fill="#181818" points="626.36,159.98,635.6822,163.1575,631.3399,159.532,634.9654,155.1897,626.36,159.98" style="stroke:#181818;stroke-width:1;"/><text fill="#000000" font-family="sans-serif" font-size="13" lengthAdjust="spacing" textLength="23.0103" x="1378.5" y="124.5669">use</text></g><!--reverse link logic_arc_int__baselibs__message_passing to comp_arc_sta__baselibs__message_passing--><g id="link_logic_arc_int__baselibs__message_passing_comp_arc_sta__baselibs__message_passing"><path codeLine="37" d="M3736.4002,204.7444 C3735.4802,225.9744 3734.26,253.94 3733.34,275.19 " fill="transparent" id="logic_arc_int__baselibs__message_passing-backto-comp_arc_sta__baselibs__message_passing" style="stroke:#181818;stroke-width:1;"/><polygon fill="#181818" points="3736.66,198.75,3732.2741,207.5684,3736.4435,203.7453,3740.2666,207.9147,3736.66,198.75" style="stroke:#181818;stroke-width:1;"/><text fill="#000000" font-family="sans-serif" font-size="13" lengthAdjust="spacing" textLength="76.9082" x="3735.5" y="241.5669">implements</text></g><!--link Feature_User to logic_arc_int__baselibs__synchronized_queue--><g id="link_Feature_User_logic_arc_int__baselibs__synchronized_queue"><path codeLine="38" d="M3093.46,49.19 C2926.13,66.64 2340.5277,127.678 2042.6177,158.728 " fill="transparent" id="Feature_User-to-logic_arc_int__baselibs__synchronized_queue" style="stroke:#181818;stroke-width:1;"/><polygon fill="#181818" points="2036.65,159.35,2046.0162,162.3955,2041.6231,158.8317,2045.1869,154.4386,2036.65,159.35" style="stroke:#181818;stroke-width:1;"/><text fill="#000000" font-family="sans-serif" font-size="13" lengthAdjust="spacing" textLength="23.0103" x="2462.5" y="124.5669">use</text></g><!--reverse link logic_arc_int__baselibs__condition_variable to comp_arc_sta__baselibs__concurrency--><g id="link_logic_arc_int__baselibs__condition_variable_comp_arc_sta__baselibs__concurrency"><path codeLine="39" d="M1356.4419,199.1852 C1477.5819,212.9052 1640.2,230.85 1788.5,245.5 C1925.8,259.06 2082.35,272.69 2194.28,282.13 " fill="transparent" id="logic_arc_int__baselibs__condition_variable-backto-comp_arc_sta__baselibs__concurrency" style="stroke:#181818;stroke-width:1;"/><polygon fill="#181818" points="1350.48,198.51,1358.9727,203.4974,1355.4482,199.0727,1359.873,195.5483,1350.48,198.51" style="stroke:#181818;stroke-width:1;"/><text fill="#000000" font-family="sans-serif" font-size="13" lengthAdjust="spacing" textLength="76.9082" x="1789.5" y="241.5669">implements</text></g><!--link Feature_User to logic_arc_int__baselibs__utils_scoped_op--><g id="link_Feature_User_logic_arc_int__baselibs__utils_scoped_op"><path codeLine="40" d="M3183.62,48.91 C3336.52,63.86 3849.15,114.24 4272.5,158.5 C4278.12,159.09 4277.8831,159.0603 4283.6631,159.6703 " fill="transparent" id="Feature_User-to-logic_arc_int__baselibs__utils_scoped_op" style="stroke:#181818;stroke-width:1;"/><polygon fill="#181818" points="4289.63,160.3,4281.0995,155.3775,4284.6576,159.7752,4280.2599,163.3333,4289.63,160.3" style="stroke:#181818;stroke-width:1;"/><text fill="#000000" font-family="sans-serif" font-size="13" lengthAdjust="spacing" textLength="23.0103" x="3961.5" y="124.5669">use</text></g><!--reverse link logic_arc_int__baselibs__promise to comp_arc_sta__baselibs__concurrency--><g id="link_logic_arc_int__baselibs__promise_comp_arc_sta__baselibs__concurrency"><path codeLine="41" d="M3007.6378,199.4592 C2919.3678,212.8392 2804.2,230.11 2697.5,245.5 C2627.23,255.64 2549.03,266.53 2484.13,275.47 " fill="transparent" id="logic_arc_int__baselibs__promise-backto-comp_arc_sta__baselibs__concurrency" style="stroke:#181818;stroke-width:1;"/><polygon fill="#181818" points="3013.57,198.56,3004.0722,195.954,3008.6265,199.3093,3005.2711,203.8636,3013.57,198.56" style="stroke:#181818;stroke-width:1;"/><text fill="#000000" font-family="sans-serif" font-size="13" lengthAdjust="spacing" textLength="76.9082" x="2806.5" y="241.5669">implements</text></g><!--link Feature_User to logic_arc_int__baselibs__intrusive_list--><g id="link_Feature_User_logic_arc_int__baselibs__intrusive_list"><path codeLine="42" d="M3183.7,45.44 C3388.17,49.83 4246.97,69.96 4950.5,111.5 C5208.23,126.72 5272.56,133.2 5529.5,158.5 C5535.2,159.06 5535.0521,159.0298 5540.9221,159.6398 " fill="transparent" id="Feature_User-to-logic_arc_int__baselibs__intrusive_list" style="stroke:#181818;stroke-width:1;"/><polygon fill="#181818" points="5546.89,160.26,5538.3517,155.3512,5541.9168,159.7432,5537.5248,163.3083,5546.89,160.26" style="stroke:#181818;stroke-width:1;"/><text fill="#000000" font-family="sans-serif" font-size="13" lengthAdjust="spacing" textLength="23.0103" x="5201.5" y="124.5669">use</text></g><!--reverse link logic_arc_int__baselibs__task_result to comp_arc_sta__baselibs__concurrency--><g id="link_logic_arc_int__baselibs__task_result_comp_arc_sta__baselibs__concurrency"><path codeLine="43" d="M2464.6284,202.4007 C2436.9384,223.6307 2397.41,253.94 2369.69,275.19 " fill="transparent" id="logic_arc_int__baselibs__task_result-backto-comp_arc_sta__baselibs__concurrency" style="stroke:#181818;stroke-width:1;"/><polygon fill="#181818" points="2469.39,198.75,2459.8139,201.0517,2465.422,201.7922,2464.6815,207.4004,2469.39,198.75" style="stroke:#181818;stroke-width:1;"/><text fill="#000000" font-family="sans-serif" font-size="13" lengthAdjust="spacing" textLength="76.9082" x="2428.5" y="241.5669">implements</text></g><!--link Feature_User to logic_arc_int__baselibs__task--><g id="link_Feature_User_logic_arc_int__baselibs__task"><path codeLine="44" d="M3183.66,65.72 C3237.96,91.24 3322.8898,131.1579 3375.2098,155.7479 " fill="transparent" id="Feature_User-to-logic_arc_int__baselibs__task" style="stroke:#181818;stroke-width:1;"/><polygon fill="#181818" points="3380.64,158.3,3374.1962,150.8517,3376.1149,156.1732,3370.7933,158.0919,3380.64,158.3" style="stroke:#181818;stroke-width:1;"/><text fill="#000000" font-family="sans-serif" font-size="13" lengthAdjust="spacing" textLength="23.0103" x="3314.5" y="124.5669">use</text></g><!--reverse link logic_arc_int__baselibs__synchronized_queue to comp_arc_sta__baselibs__concurrency--><g id="link_logic_arc_int__baselibs__synchronized_queue_comp_arc_sta__baselibs__concurrency"><path codeLine="45" d="M1948.1962,199.9425 C2037.4262,221.2325 2175.19,254.11 2264.48,275.41 " fill="transparent" id="logic_arc_int__baselibs__synchronized_queue-backto-comp_arc_sta__baselibs__concurrency" style="stroke:#181818;stroke-width:1;"/><polygon fill="#181818" points="1942.36,198.55,1950.1859,204.5295,1947.2235,199.7104,1952.0426,196.748,1942.36,198.55" style="stroke:#181818;stroke-width:1;"/><text fill="#000000" font-family="sans-serif" font-size="13" lengthAdjust="spacing" textLength="76.9082" x="2133.5" y="241.5669">implements</text></g><!--link Feature_User to logic_arc_int__baselibs__dynamic_array--><g id="link_Feature_User_logic_arc_int__baselibs__dynamic_array"><path codeLine="46" d="M3183.86,45.22 C3407.16,48.94 4411.81,67.44 5233.5,111.5 C5511.22,126.39 5580.57,132.78 5857.5,158.5 C5863.33,159.04 5863.3088,159.0228 5869.3088,159.6128 " fill="transparent" id="Feature_User-to-logic_arc_int__baselibs__dynamic_array" style="stroke:#181818;stroke-width:1;"/><polygon fill="#181818" points="5875.28,160.2,5866.7146,155.3384,5870.304,159.7107,5865.9318,163.3,5875.28,160.2" style="stroke:#181818;stroke-width:1;"/><text fill="#000000" font-family="sans-serif" font-size="13" lengthAdjust="spacing" textLength="23.0103" x="5504.5" y="124.5669">use</text></g><!--link Feature_User to logic_arc_int__baselibs__shared_future--><g id="link_Feature_User_logic_arc_int__baselibs__shared_future"><path codeLine="47" d="M3093.42,63.41 C3033.25,88.66 2932.8228,130.7987 2872.4728,156.1187 " fill="transparent" id="Feature_User-to-logic_arc_int__baselibs__shared_future" style="stroke:#181818;stroke-width:1;"/><polygon fill="#181818" points="2866.94,158.44,2876.7867,158.6466,2871.5506,156.5056,2873.6916,151.2695,2866.94,158.44" style="stroke:#181818;stroke-width:1;"/><text fill="#000000" font-family="sans-serif" font-size="13" lengthAdjust="spacing" textLength="23.0103" x="2970.5" y="124.5669">use</text></g><!--reverse link logic_arc_int__baselibs__bit_manipulation to comp_arc_sta__baselibs__bit_manipulation--><g id="link_logic_arc_int__baselibs__bit_manipulation_comp_arc_sta__baselibs__bit_manipulation"><path codeLine="48" d="M781.5701,201.6001 C742.1301,222.8901 684.25,254.14 644.91,275.38 " fill="transparent" id="logic_arc_int__baselibs__bit_manipulation-backto-comp_arc_sta__baselibs__bit_manipulation" style="stroke:#181818;stroke-width:1;"/><polygon fill="#181818" points="786.85,198.75,777.0301,199.5053,782.4501,201.1251,780.8303,206.5451,786.85,198.75" style="stroke:#181818;stroke-width:1;"/><text fill="#000000" font-family="sans-serif" font-size="13" lengthAdjust="spacing" textLength="76.9082" x="730.5" y="241.5669">implements</text></g><!--reverse link logic_arc_int__baselibs__bit_mask_operator to comp_arc_sta__baselibs__bit_manipulation--><g id="link_logic_arc_int__baselibs__bit_mask_operator_comp_arc_sta__baselibs__bit_manipulation"><path codeLine="49" d="M488.5436,202.3849 C516.5036,223.6749 556.51,254.14 584.4,275.38 " fill="transparent" id="logic_arc_int__baselibs__bit_mask_operator-backto-comp_arc_sta__baselibs__bit_manipulation" style="stroke:#181818;stroke-width:1;"/><polygon fill="#181818" points="483.77,198.75,488.5072,207.3847,487.748,201.7791,493.3537,201.0199,483.77,198.75" style="stroke:#181818;stroke-width:1;"/><text fill="#000000" font-family="sans-serif" font-size="13" lengthAdjust="spacing" textLength="76.9082" x="544.5" y="241.5669">implements</text></g><!--link Feature_User to logic_arc_int__baselibs__json--><g id="link_Feature_User_logic_arc_int__baselibs__json"><path codeLine="50" d="M3183.56,46.02 C3365.45,52.24 4063.18,77.13 4636.5,111.5 C4914.56,128.17 4984.56,128.49 5261.5,158.5 C5267.22,159.12 5267.1228,159.0843 5273.0328,159.7943 " fill="transparent" id="Feature_User-to-logic_arc_int__baselibs__json" style="stroke:#181818;stroke-width:1;"/><polygon fill="#181818" points="5278.99,160.51,5270.5314,155.4651,5274.0257,159.9136,5269.5771,163.4079,5278.99,160.51" style="stroke:#181818;stroke-width:1;"/><text fill="#000000" font-family="sans-serif" font-size="13" lengthAdjust="spacing" textLength="23.0103" x="4918.5" y="124.5669">use</text></g><!--reverse link logic_arc_int__baselibs__result to comp_arc_sta__baselibs__result--><g id="link_logic_arc_int__baselibs__result_comp_arc_sta__baselibs__result"><path codeLine="51" d="M133.5,204.75 C133.5,225.98 133.5,253.94 133.5,275.19 " fill="transparent" id="logic_arc_int__baselibs__result-backto-comp_arc_sta__baselibs__result" style="stroke:#181818;stroke-width:1;"/><polygon fill="#181818" points="133.5,198.75,129.5,207.75,133.5,203.75,137.5,207.75,133.5,198.75" style="stroke:#181818;stroke-width:1;"/><text fill="#000000" font-family="sans-serif" font-size="13" lengthAdjust="spacing" textLength="76.9082" x="134.5" y="241.5669">implements</text></g><!--reverse link logic_arc_int__baselibs__executor to comp_arc_sta__baselibs__concurrency--><g id="link_logic_arc_int__baselibs__executor_comp_arc_sta__baselibs__concurrency"><path codeLine="52" d="M1659.601,199.1692 C1753.471,212.4292 1876.2,229.71 1989.5,245.5 C2060.83,255.44 2140.23,266.41 2205.82,275.44 " fill="transparent" id="logic_arc_int__baselibs__executor-backto-comp_arc_sta__baselibs__concurrency" style="stroke:#181818;stroke-width:1;"/><polygon fill="#181818" points="1653.66,198.33,1662.012,203.5495,1658.6108,199.0294,1663.131,195.6282,1653.66,198.33" style="stroke:#181818;stroke-width:1;"/><text fill="#000000" font-family="sans-serif" font-size="13" lengthAdjust="spacing" textLength="76.9082" x="1990.5" y="241.5669">implements</text></g><!--SRC=[hLPDRzim3BthLmYzfnk6OeUXw6N0JZrkPq6MsOIhFZoHQkiD- - -JuxIBtI2o7HzfazGZ7_aaRMruLWvVq6y5XqPoa5LW3axM6C4m1YzsM8CaXWY1smPw6rp3hTJC4Ql4GEAMkBLm9wureQta7t6F7hu66wACKE-jxpiqZnw8vAVhZ-AlkFrmY17QSFQx-WQQKmJvWo1UIKtoy45r7wGOM9jwSoTjsA9HEXg5dfMgD875YfIAGCdo5va8f331DNidOdtiP89ddN55afjqBbisOo9y0cMHSbPqZGK7dacAEQWSk11RHJkTMt80DokSI6z1DPee4rQkpgGOmPksKDv3wX0Cove1wpLyRZdm0YPbtWjr_AJW2mLqBaFu5rDUjrwx_Q-esscv7z02jNbHNAdVRuwJGKzaaZKzBkVn2DPSBYjavRJ79bdTYSRy38dHqjx-V3C_EhUenkvWzQGZwif2OQhsnnMwsKCY4ngeLMWMDxPZPQX8CuAR61mIhBRilVYStFdBU_LAtvIi0p4iP1y9vq8U-Y7DN6H2eouhpqXlYnX7whmG9RNUx6Bm-3lJz2j1Me_xKrko4EMxtLW9ujkuByGrlgfNWZLOuGjaOBqrFZ4b2t6Dhhgv0ZKIbBFrZQ-9Gf7lRvKfmhBea84gB6na_mmvsu1-X0g8JitPvHFp_xbrdFSV]--></g></svg>