<svg xmlns="http://www.w3.org/2000/svg" xmlns:xlink="http://www.w3.org/1999/xlink" contentStyleType="text/css" data-diagram-type="CLASS" height="322px" preserveAspectRatio="none" style="width:6195px;height:322px;background:#FFFFFF;" version="1.1" viewBox="0 0 6195 322" width="6195px" zoomAndPan="magnify"><defs/><g><!--entity Feature_User--><g id="elem_Feature_User"><ellipse cx="3035.6685" cy="14" fill="#F1F1F1" rx="8" ry="8" style="stroke:#181818;stroke-width:0.5;"/><path d="M3035.6685,22 L3035.6685,49 M3022.6685,30 L3048.6685,30 M3035.6685,49 L3022.6685,64 M3035.6685,49 L3048.6685,64 " fill="transparent" style="stroke:#181818;stroke-width:0.5;"/><text fill="#000000" font-family="sans-serif" font-size="14" lengthAdjust="spacing" textLength="90.3369" x="2990.5" y="78.4951">Feature User</text></g><!--class comp_arc_sta__baselibs__message_passing--><g id="elem_comp_arc_sta__baselibs__message_passing"><rect fill="#F1F1F1" height="40" id="comp_arc_sta__baselibs__message_passing" rx="2.5" ry="2.5" style="stroke:#181818;stroke-width:0.5;" width="337.1357" x="5851" y="275.5"/><ellipse cx="5866" cy="291.5" fill="#ADD1B2" rx="11" ry="11" style="stroke:#181818;stroke-width:1;"/><path d="M5868.9688,297.1406 Q5868.3906,297.4375 5867.75,297.5781 Q5867.1094,297.7344 5866.4063,297.7344 Q5863.9063,297.7344 5862.5781,296.0938 Q5861.2656,294.4375 5861.2656,291.3125 Q5861.2656,288.1875 5862.5781,286.5313 Q5863.9063,284.875 5866.4063,284.875 Q5867.1094,284.875 5867.75,285.0313 Q5868.4063,285.1875 5868.9688,285.4844 L5868.9688,288.2031 Q5868.3438,287.625 5867.75,287.3594 Q5867.1563,287.0781 5866.5313,287.0781 Q5865.1875,287.0781 5864.5,288.1563 Q5863.8125,289.2188 5863.8125,291.3125 Q5863.8125,293.4063 5864.5,294.4844 Q5865.1875,295.5469 5866.5313,295.5469 Q5867.1563,295.5469 5867.75,295.2813 Q5868.3438,295 5868.9688,294.4219 L5868.9688,297.1406 Z " fill="#000000"/><text fill="#000000" font-family="sans-serif" font-size="14" lengthAdjust="spacing" textLength="305.1357" x="5880" y="296.3467">comp_arc_sta__baselibs__message_passing</text><line style="stroke:#181818;stroke-width:0.5;" x1="5852" x2="6187.1357" y1="307.5" y2="307.5"/></g><!--class logic_arc_int__baselibs__message_passing--><g id="elem_logic_arc_int__baselibs__message_passing"><rect fill="#F1F1F1" height="40" id="logic_arc_int__baselibs__message_passing" rx="2.5" ry="2.5" style="stroke:#181818;stroke-width:0.5;" width="328.167" x="5853.5" y="158.5"/><ellipse cx="5868.5" cy="174.5" fill="#ADD1B2" rx="11" ry="11" style="stroke:#181818;stroke-width:1;"/><path d="M5871.4688,180.1406 Q5870.8906,180.4375 5870.25,180.5781 Q5869.6094,180.7344 5868.9063,180.7344 Q5866.4063,180.7344 5865.0781,179.0938 Q5863.7656,177.4375 5863.7656,174.3125 Q5863.7656,171.1875 5865.0781,169.5313 Q5866.4063,167.875 5868.9063,167.875 Q5869.6094,167.875 5870.25,168.0313 Q5870.9063,168.1875 5871.4688,168.4844 L5871.4688,171.2031 Q5870.8438,170.625 5870.25,170.3594 Q5869.6563,170.0781 5869.0313,170.0781 Q5867.6875,170.0781 5867,171.1563 Q5866.3125,172.2188 5866.3125,174.3125 Q5866.3125,176.4063 5867,177.4844 Q5867.6875,178.5469 5869.0313,178.5469 Q5869.6563,178.5469 5870.25,178.2813 Q5870.8438,178 5871.4688,177.4219 L5871.4688,180.1406 Z " fill="#000000"/><text fill="#000000" font-family="sans-serif" font-size="14" lengthAdjust="spacing" textLength="296.167" x="5882.5" y="179.3467">logic_arc_int__baselibs__message_passing</text><line style="stroke:#181818;stroke-width:0.5;" x1="5854.5" x2="6180.667" y1="190.5" y2="190.5"/></g><!--class comp_arc_sta__baselibs__json--><g id="elem_comp_arc_sta__baselibs__json"><rect fill="#F1F1F1" height="40" id="comp_arc_sta__baselibs__json" rx="2.5" ry="2.5" style="stroke:#181818;stroke-width:0.5;" width="242.1367" x="5573.5" y="275.5"/><ellipse cx="5588.5" cy="291.5" fill="#ADD1B2" rx="11" ry="11" style="stroke:#181818;stroke-width:1;"/><path d="M5591.4688,297.1406 Q5590.8906,297.4375 5590.25,297.5781 Q5589.6094,297.7344 5588.9063,297.7344 Q5586.4063,297.7344 5585.0781,296.0938 Q5583.7656,294.4375 5583.7656,291.3125 Q5583.7656,288.1875 5585.0781,286.5313 Q5586.4063,284.875 5588.9063,284.875 Q5589.6094,284.875 5590.25,285.0313 Q5590.9063,285.1875 5591.4688,285.4844 L5591.4688,288.2031 Q5590.8438,287.625 5590.25,287.3594 Q5589.6563,287.0781 5589.0313,287.0781 Q5587.6875,287.0781 5587,288.1563 Q5586.3125,289.2188 5586.3125,291.3125 Q5586.3125,293.4063 5587,294.4844 Q5587.6875,295.5469 5589.0313,295.5469 Q5589.6563,295.5469 5590.25,295.2813 Q5590.8438,295 5591.4688,294.4219 L5591.4688,297.1406 Z " fill="#000000"/><text fill="#000000" font-family="sans-serif" font-size="14" lengthAdjust="spacing" textLength="210.1367" x="5602.5" y="296.3467">comp_arc_sta__baselibs__json</text><line style="stroke:#181818;stroke-width:0.5;" x1="5574.5" x2="5814.6367" y1="307.5" y2="307.5"/></g><!--class logic_arc_int__baselibs__json--><g id="elem_logic_arc_int__baselibs__json"><rect fill="#F1F1F1" height="40" id="logic_arc_int__baselibs__json" rx="2.5" ry="2.5" style="stroke:#181818;stroke-width:0.5;" width="233.168" x="5581" y="158.5"/><ellipse cx="5596" cy="174.5" fill="#ADD1B2" rx="11" ry="11" style="stroke:#181818;stroke-width:1;"/><path d="M5598.9688,180.1406 Q5598.3906,180.4375 5597.75,180.5781 Q5597.1094,180.7344 5596.4063,180.7344 Q5593.9063,180.7344 5592.5781,179.0938 Q5591.2656,177.4375 5591.2656,174.3125 Q5591.2656,171.1875 5592.5781,169.5313 Q5593.9063,167.875 5596.4063,167.875 Q5597.1094,167.875 5597.75,168.0313 Q5598.4063,168.1875 5598.9688,168.4844 L5598.9688,171.2031 Q5598.3438,170.625 5597.75,170.3594 Q5597.1563,170.0781 5596.5313,170.0781 Q5595.1875,170.0781 5594.5,171.1563 Q5593.8125,172.2188 5593.8125,174.3125 Q5593.8125,176.4063 5594.5,177.4844 Q5595.1875,178.5469 5596.5313,178.5469 Q5597.1563,178.5469 5597.75,178.2813 Q5598.3438,178 5598.9688,177.4219 L5598.9688,180.1406 Z " fill="#000000"/><text fill="#000000" font-family="sans-serif" font-size="14" lengthAdjust="spacing" textLength="201.168" x="5610" y="179.3467">logic_arc_int__baselibs__json</text><line style="stroke:#181818;stroke-width:0.5;" x1="5582" x2="5813.168" y1="190.5" y2="190.5"/></g><!--class logic_arc_int__baselibs__dynamic_array--><g id="elem_logic_arc_int__baselibs__dynamic_array"><rect fill="#F1F1F1" height="40" id="logic_arc_int__baselibs__dynamic_array" rx="2.5" ry="2.5" style="stroke:#181818;stroke-width:0.5;" width="308.3496" x="4909.5" y="158.5"/><ellipse cx="4924.5" cy="174.5" fill="#ADD1B2" rx="11" ry="11" style="stroke:#181818;stroke-width:1;"/><path d="M4927.4688,180.1406 Q4926.8906,180.4375 4926.25,180.5781 Q4925.6094,180.7344 4924.9063,180.7344 Q4922.4063,180.7344 4921.0781,179.0938 Q4919.7656,177.4375 4919.7656,174.3125 Q4919.7656,171.1875 4921.0781,169.5313 Q4922.4063,167.875 4924.9063,167.875 Q4925.6094,167.875 4926.25,168.0313 Q4926.9063,168.1875 4927.4688,168.4844 L4927.4688,171.2031 Q4926.8438,170.625 4926.25,170.3594 Q4925.6563,170.0781 4925.0313,170.0781 Q4923.6875,170.0781 4923,171.1563 Q4922.3125,172.2188 4922.3125,174.3125 Q4922.3125,176.4063 4923,177.4844 Q4923.6875,178.5469 4925.0313,178.5469 Q4925.6563,178.5469 4926.25,178.2813 Q4926.8438,178 4927.4688,177.4219 L4927.4688,180.1406 Z " fill="#000000"/><text fill="#000000" font-family="sans-serif" font-size="14" lengthAdjust="spacing" textLength="276.3496" x="4938.5" y="179.3467">logic_arc_int__baselibs__dynamic_array</text><line style="stroke:#181818;stroke-width:0.5;" x1="4910.5" x2="5216.8496" y1="190.5" y2="190.5"/></g><!--class comp_arc_sta__baselibs__containers--><g id="elem_comp_arc_sta__baselibs__containers"><rect fill="#F1F1F1" height="40" id="comp_arc_sta__baselibs__containers" rx="2.5" ry="2.5" style="stroke:#181818;stroke-width:0.5;" width="287.1445" x="5087" y="275.5"/><ellipse cx="5102" cy="291.5" fill="#ADD1B2" rx="11" ry="11" style="stroke:#181818;stroke-width:1;"/><path d="M5104.9688,297.1406 Q5104.3906,297.4375 5103.75,297.5781 Q5103.1094,297.7344 5102.4063,297.7344 Q5099.9063,297.7344 5098.5781,296.0938 Q5097.2656,294.4375 5097.2656,291.3125 Q5097.2656,288.1875 5098.5781,286.5313 Q5099.9063,284.875 5102.4063,284.875 Q5103.1094,284.875 5103.75,285.0313 Q5104.4063,285.1875 5104.9688,285.4844 L5104.9688,288.2031 Q5104.3438,287.625 5103.75,287.3594 Q5103.1563,287.0781 5102.5313,287.0781 Q5101.1875,287.0781 5100.5,288.1563 Q5099.8125,289.2188 5099.8125,291.3125 Q5099.8125,293.4063 5100.5,294.4844 Q5101.1875,295.5469 5102.5313,295.5469 Q5103.1563,295.5469 5103.75,295.2813 Q5104.3438,295 5104.9688,294.4219 L5104.9688,297.1406 Z " fill="#000000"/><text fill="#000000" font-family="sans-serif" font-size="14" lengthAdjust="spacing" textLength="255.1445" x="5116" y="296.3467">comp_arc_sta__baselibs__containers</text><line style="stroke:#181818;stroke-width:0.5;" x1="5088" x2="5373.1445" y1="307.5" y2="307.5"/></g><!--class logic_arc_int__baselibs__result--><g id="elem_logic_arc_int__baselibs__result"><rect fill="#F1F1F1" height="40" id="logic_arc_int__baselibs__result" rx="2.5" ry="2.5" style="stroke:#181818;stroke-width:0.5;" width="244.4609" x="2913.5" y="158.5"/><ellipse cx="2928.5" cy="174.5" fill="#ADD1B2" rx="11" ry="11" style="stroke:#181818;stroke-width:1;"/><path d="M2931.4688,180.1406 Q2930.8906,180.4375 2930.25,180.5781 Q2929.6094,180.7344 2928.9063,180.7344 Q2926.4063,180.7344 2925.0781,179.0938 Q2923.7656,177.4375 2923.7656,174.3125 Q2923.7656,171.1875 2925.0781,169.5313 Q2926.4063,167.875 2928.9063,167.875 Q2929.6094,167.875 2930.25,168.0313 Q2930.9063,168.1875 2931.4688,168.4844 L2931.4688,171.2031 Q2930.8438,170.625 2930.25,170.3594 Q2929.6563,170.0781 2929.0313,170.0781 Q2927.6875,170.0781 2927,171.1563 Q2926.3125,172.2188 2926.3125,174.3125 Q2926.3125,176.4063 2927,177.4844 Q2927.6875,178.5469 2929.0313,178.5469 Q2929.6563,178.5469 2930.25,178.2813 Q2930.8438,178 2931.4688,177.4219 L2931.4688,180.1406 Z " fill="#000000"/><text fill="#000000" font-family="sans-serif" font-size="14" lengthAdjust="spacing" textLength="212.4609" x="2942.5" y="179.3467">logic_arc_int__baselibs__result</text><line style="stroke:#181818;stroke-width:0.5;" x1="2914.5" x2="3156.9609" y1="190.5" y2="190.5"/></g><!--class comp_arc_sta__baselibs__bit_manipulation--><g id="elem_comp_arc_sta__baselibs__bit_manipulation"><rect fill="#F1F1F1" height="40" id="comp_arc_sta__baselibs__bit_manipulation" rx="2.5" ry="2.5" style="stroke:#181818;stroke-width:0.5;" width="330.8057" x="4046" y="275.5"/><ellipse cx="4061" cy="291.5" fill="#ADD1B2" rx="11" ry="11" style="stroke:#181818;stroke-width:1;"/><path d="M4063.9688,297.1406 Q4063.3906,297.4375 4062.75,297.5781 Q4062.1094,297.7344 4061.4063,297.7344 Q4058.9063,297.7344 4057.5781,296.0938 Q4056.2656,294.4375 4056.2656,291.3125 Q4056.2656,288.1875 4057.5781,286.5313 Q4058.9063,284.875 4061.4063,284.875 Q4062.1094,284.875 4062.75,285.0313 Q4063.4063,285.1875 4063.9688,285.4844 L4063.9688,288.2031 Q4063.3438,287.625 4062.75,287.3594 Q4062.1563,287.0781 4061.5313,287.0781 Q4060.1875,287.0781 4059.5,288.1563 Q4058.8125,289.2188 4058.8125,291.3125 Q4058.8125,293.4063 4059.5,294.4844 Q4060.1875,295.5469 4061.5313,295.5469 Q4062.1563,295.5469 4062.75,295.2813 Q4063.3438,295 4063.9688,294.4219 L4063.9688,297.1406 Z " fill="#000000"/><text fill="#000000" font-family="sans-serif" font-size="14" lengthAdjust="spacing" textLength="298.8057" x="4075" y="296.3467">comp_arc_sta__baselibs__bit_manipulation</text><line style="stroke:#181818;stroke-width:0.5;" x1="4047" x2="4375.8057" y1="307.5" y2="307.5"/></g><!--class logic_arc_int__baselibs__bit_manipulation--><g id="elem_logic_arc_int__baselibs__bit_manipulation"><rect fill="#F1F1F1" height="40" id="logic_arc_int__baselibs__bit_manipulation" rx="2.5" ry="2.5" style="stroke:#181818;stroke-width:0.5;" width="321.8369" x="3870.5" y="158.5"/><ellipse cx="3885.5" cy="174.5" fill="#ADD1B2" rx="11" ry="11" style="stroke:#181818;stroke-width:1;"/><path d="M3888.4688,180.1406 Q3887.8906,180.4375 3887.25,180.5781 Q3886.6094,180.7344 3885.9063,180.7344 Q3883.4063,180.7344 3882.0781,179.0938 Q3880.7656,177.4375 3880.7656,174.3125 Q3880.7656,171.1875 3882.0781,169.5313 Q3883.4063,167.875 3885.9063,167.875 Q3886.6094,167.875 3887.25,168.0313 Q3887.9063,168.1875 3888.4688,168.4844 L3888.4688,171.2031 Q3887.8438,170.625 3887.25,170.3594 Q3886.6563,170.0781 3886.0313,170.0781 Q3884.6875,170.0781 3884,171.1563 Q3883.3125,172.2188 3883.3125,174.3125 Q3883.3125,176.4063 3884,177.4844 Q3884.6875,178.5469 3886.0313,178.5469 Q3886.6563,178.5469 3887.25,178.2813 Q3887.8438,178 3888.4688,177.4219 L3888.4688,180.1406 Z " fill="#000000"/><text fill="#000000" font-family="sans-serif" font-size="14" lengthAdjust="spacing" textLength="289.8369" x="3899.5" y="179.3467">logic_arc_int__baselibs__bit_manipulation</text><line style="stroke:#181818;stroke-width:0.5;" x1="3871.5" x2="4191.3369" y1="190.5" y2="190.5"/></g><!--class comp_arc_sta__baselibs__concurrency--><g id="elem_comp_arc_sta__baselibs__concurrency"><rect fill="#F1F1F1" height="40" id="comp_arc_sta__baselibs__concurrency" rx="2.5" ry="2.5" style="stroke:#181818;stroke-width:0.5;" width="300.2012" x="1053.5" y="275.5"/><ellipse cx="1068.5" cy="291.5" fill="#ADD1B2" rx="11" ry="11" style="stroke:#181818;stroke-width:1;"/><path d="M1071.4688,297.1406 Q1070.8906,297.4375 1070.25,297.5781 Q1069.6094,297.7344 1068.9063,297.7344 Q1066.4063,297.7344 1065.0781,296.0938 Q1063.7656,294.4375 1063.7656,291.3125 Q1063.7656,288.1875 1065.0781,286.5313 Q1066.4063,284.875 1068.9063,284.875 Q1069.6094,284.875 1070.25,285.0313 Q1070.9063,285.1875 1071.4688,285.4844 L1071.4688,288.2031 Q1070.8438,287.625 1070.25,287.3594 Q1069.6563,287.0781 1069.0313,287.0781 Q1067.6875,287.0781 1067,288.1563 Q1066.3125,289.2188 1066.3125,291.3125 Q1066.3125,293.4063 1067,294.4844 Q1067.6875,295.5469 1069.0313,295.5469 Q1069.6563,295.5469 1070.25,295.2813 Q1070.8438,295 1071.4688,294.4219 L1071.4688,297.1406 Z " fill="#000000"/><text fill="#000000" font-family="sans-serif" font-size="14" lengthAdjust="spacing" textLength="268.2012" x="1082.5" y="296.3467">comp_arc_sta__baselibs__concurrency</text><line style="stroke:#181818;stroke-width:0.5;" x1="1054.5" x2="1352.7012" y1="307.5" y2="307.5"/></g><!--class logic_arc_int__baselibs__executor--><g id="elem_logic_arc_int__baselibs__executor"><rect fill="#F1F1F1" height="40" id="logic_arc_int__baselibs__executor" rx="2.5" ry="2.5" style="stroke:#181818;stroke-width:0.5;" width="266.4385" x="854.5" y="158.5"/><ellipse cx="869.5" cy="174.5" fill="#ADD1B2" rx="11" ry="11" style="stroke:#181818;stroke-width:1;"/><path d="M872.4688,180.1406 Q871.8906,180.4375 871.25,180.5781 Q870.6094,180.7344 869.9063,180.7344 Q867.4063,180.7344 866.0781,179.0938 Q864.7656,177.4375 864.7656,174.3125 Q864.7656,171.1875 866.0781,169.5313 Q867.4063,167.875 869.9063,167.875 Q870.6094,167.875 871.25,168.0313 Q871.9063,168.1875 872.4688,168.4844 L872.4688,171.2031 Q871.8438,170.625 871.25,170.3594 Q870.6563,170.0781 870.0313,170.0781 Q868.6875,170.0781 868,171.1563 Q867.3125,172.2188 867.3125,174.3125 Q867.3125,176.4063 868,177.4844 Q868.6875,178.5469 870.0313,178.5469 Q870.6563,178.5469 871.25,178.2813 Q871.8438,178 872.4688,177.4219 L872.4688,180.1406 Z " fill="#000000"/><text fill="#000000" font-family="sans-serif" font-size="14" lengthAdjust="spacing" textLength="234.4385" x="883.5" y="179.3467">logic_arc_int__baselibs__executor</text><line style="stroke:#181818;stroke-width:0.5;" x1="855.5" x2="1119.9385" y1="190.5" y2="190.5"/></g><!--class logic_arc_int__baselibs__intrusive_list--><g id="elem_logic_arc_int__baselibs__intrusive_list"><rect fill="#F1F1F1" height="40" id="logic_arc_int__baselibs__intrusive_list" rx="2.5" ry="2.5" style="stroke:#181818;stroke-width:0.5;" width="293.0713" x="5253" y="158.5"/><ellipse cx="5268" cy="174.5" fill="#ADD1B2" rx="11" ry="11" style="stroke:#181818;stroke-width:1;"/><path d="M5270.9688,180.1406 Q5270.3906,180.4375 5269.75,180.5781 Q5269.1094,180.7344 5268.4063,180.7344 Q5265.9063,180.7344 5264.5781,179.0938 Q5263.2656,177.4375 5263.2656,174.3125 Q5263.2656,171.1875 5264.5781,169.5313 Q5265.9063,167.875 5268.4063,167.875 Q5269.1094,167.875 5269.75,168.0313 Q5270.4063,168.1875 5270.9688,168.4844 L5270.9688,171.2031 Q5270.3438,170.625 5269.75,170.3594 Q5269.1563,170.0781 5268.5313,170.0781 Q5267.1875,170.0781 5266.5,171.1563 Q5265.8125,172.2188 5265.8125,174.3125 Q5265.8125,176.4063 5266.5,177.4844 Q5267.1875,178.5469 5268.5313,178.5469 Q5269.1563,178.5469 5269.75,178.2813 Q5270.3438,178 5270.9688,177.4219 L5270.9688,180.1406 Z " fill="#000000"/><text fill="#000000" font-family="sans-serif" font-size="14" lengthAdjust="spacing" textLength="261.0713" x="5282" y="179.3467">logic_arc_int__baselibs__intrusive_list</text><line style="stroke:#181818;stroke-width:0.5;" x1="5254" x2="5545.0713" y1="190.5" y2="190.5"/></g><!--class comp_arc_sta__baselibs__filesystem--><g id="elem_comp_arc_sta__baselibs__filesystem"><rect fill="#F1F1F1" height="40" id="comp_arc_sta__baselibs__filesystem" rx="2.5" ry="2.5" style="stroke:#181818;stroke-width:0.5;" width="285.4492" x="4594" y="275.5"/><ellipse cx="4609" cy="291.5" fill="#ADD1B2" rx="11" ry="11" style="stroke:#181818;stroke-width:1;"/><path d="M4611.9688,297.1406 Q4611.3906,297.4375 4610.75,297.5781 Q4610.1094,297.7344 4609.4063,297.7344 Q4606.9063,297.7344 4605.5781,296.0938 Q4604.2656,294.4375 4604.2656,291.3125 Q4604.2656,288.1875 4605.5781,286.5313 Q4606.9063,284.875 4609.4063,284.875 Q4610.1094,284.875 4610.75,285.0313 Q4611.4063,285.1875 4611.9688,285.4844 L4611.9688,288.2031 Q4611.3438,287.625 4610.75,287.3594 Q4610.1563,287.0781 4609.5313,287.0781 Q4608.1875,287.0781 4607.5,288.1563 Q4606.8125,289.2188 4606.8125,291.3125 Q4606.8125,293.4063 4607.5,294.4844 Q4608.1875,295.5469 4609.5313,295.5469 Q4610.1563,295.5469 4610.75,295.2813 Q4611.3438,295 4611.9688,294.4219 L4611.9688,297.1406 Z " fill="#000000"/><text fill="#000000" font-family="sans-serif" font-size="14" lengthAdjust="spacing" textLength="253.4492" x="4623" y="296.3467">comp_arc_sta__baselibs__filesystem</text><line style="stroke:#181818;stroke-width:0.5;" x1="4595" x2="4878.4492" y1="307.5" y2="307.5"/></g><!--class logic_arc_int__baselibs__filesystem--><g id="elem_logic_arc_int__baselibs__filesystem"><rect fill="#F1F1F1" height="40" id="logic_arc_int__baselibs__filesystem" rx="2.5" ry="2.5" style="stroke:#181818;stroke-width:0.5;" width="276.4805" x="4598.5" y="158.5"/><ellipse cx="4613.5" cy="174.5" fill="#ADD1B2" rx="11" ry="11" style="stroke:#181818;stroke-width:1;"/><path d="M4616.4688,180.1406 Q4615.8906,180.4375 4615.25,180.5781 Q4614.6094,180.7344 4613.9063,180.7344 Q4611.4063,180.7344 4610.0781,179.0938 Q4608.7656,177.4375 4608.7656,174.3125 Q4608.7656,171.1875 4610.0781,169.5313 Q4611.4063,167.875 4613.9063,167.875 Q4614.6094,167.875 4615.25,168.0313 Q4615.9063,168.1875 4616.4688,168.4844 L4616.4688,171.2031 Q4615.8438,170.625 4615.25,170.3594 Q4614.6563,170.0781 4614.0313,170.0781 Q4612.6875,170.0781 4612,171.1563 Q4611.3125,172.2188 4611.3125,174.3125 Q4611.3125,176.4063 4612,177.4844 Q4612.6875,178.5469 4614.0313,178.5469 Q4614.6563,178.5469 4615.25,178.2813 Q4615.8438,178 4616.4688,177.4219 L4616.4688,180.1406 Z " fill="#000000"/><text fill="#000000" font-family="sans-serif" font-size="14" lengthAdjust="spacing" textLength="244.4805" x="4627.5" y="179.3467">logic_arc_int__baselibs__filesystem</text><line style="stroke:#181818;stroke-width:0.5;" x1="4599.5" x2="4873.9805" y1="190.5" y2="190.5"/></g><!--class logic_arc_int__baselibs__future--><g id="elem_logic_arc_int__baselibs__future"><rect fill="#F1F1F1" height="40" id="logic_arc_int__baselibs__future" rx="2.5" ry="2.5" style="stroke:#181818;stroke-width:0.5;" width="247.0791" x="7" y="158.5"/><ellipse cx="22" cy="174.5" fill="#ADD1B2" rx="11" ry="11" style="stroke:#181818;stroke-width:1;"/><path d="M24.9688,180.1406 Q24.3906,180.4375 23.75,180.5781 Q23.1094,180.7344 22.4063,180.7344 Q19.9063,180.7344 18.5781,179.0938 Q17.2656,177.4375 17.2656,174.3125 Q17.2656,171.1875 18.5781,169.5313 Q19.9063,167.875 22.4063,167.875 Q23.1094,167.875 23.75,168.0313 Q24.4063,168.1875 24.9688,168.4844 L24.9688,171.2031 Q24.3438,170.625 23.75,170.3594 Q23.1563,170.0781 22.5313,170.0781 Q21.1875,170.0781 20.5,171.1563 Q19.8125,172.2188 19.8125,174.3125 Q19.8125,176.4063 20.5,177.4844 Q21.1875,178.5469 22.5313,178.5469 Q23.1563,178.5469 23.75,178.2813 Q24.3438,178 24.9688,177.4219 L24.9688,180.1406 Z " fill="#000000"/><text fill="#000000" font-family="sans-serif" font-size="14" lengthAdjust="spacing" textLength="215.0791" x="36" y="179.3467">logic_arc_int__baselibs__future</text><line style="stroke:#181818;stroke-width:0.5;" x1="8" x2="253.0791" y1="190.5" y2="190.5"/></g><!--class comp_arc_sta__baselibs__utils--><g id="elem_comp_arc_sta__baselibs__utils"><rect fill="#F1F1F1" height="40" id="comp_arc_sta__baselibs__utils" rx="2.5" ry="2.5" style="stroke:#181818;stroke-width:0.5;" width="242.9502" x="3371" y="275.5"/><ellipse cx="3386" cy="291.5" fill="#ADD1B2" rx="11" ry="11" style="stroke:#181818;stroke-width:1;"/><path d="M3388.9688,297.1406 Q3388.3906,297.4375 3387.75,297.5781 Q3387.1094,297.7344 3386.4063,297.7344 Q3383.9063,297.7344 3382.5781,296.0938 Q3381.2656,294.4375 3381.2656,291.3125 Q3381.2656,288.1875 3382.5781,286.5313 Q3383.9063,284.875 3386.4063,284.875 Q3387.1094,284.875 3387.75,285.0313 Q3388.4063,285.1875 3388.9688,285.4844 L3388.9688,288.2031 Q3388.3438,287.625 3387.75,287.3594 Q3387.1563,287.0781 3386.5313,287.0781 Q3385.1875,287.0781 3384.5,288.1563 Q3383.8125,289.2188 3383.8125,291.3125 Q3383.8125,293.4063 3384.5,294.4844 Q3385.1875,295.5469 3386.5313,295.5469 Q3387.1563,295.5469 3387.75,295.2813 Q3388.3438,295 3388.9688,294.4219 L3388.9688,297.1406 Z " fill="#000000"/><text fill="#000000" font-family="sans-serif" font-size="14" lengthAdjust="spacing" textLength="210.9502" x="3400" y="296.3467">comp_arc_sta__baselibs__utils</text><line style="stroke:#181818;stroke-width:0.5;" x1="3372" x2="3612.9502" y1="307.5" y2="307.5"/></g><!--class logic_arc_int__baselibs__utils_base64--><g id="elem_logic_arc_int__baselibs__utils_base64"><rect fill="#F1F1F1" height="40" id="logic_arc_int__baselibs__utils_base64" rx="2.5" ry="2.5" style="stroke:#181818;stroke-width:0.5;" width="292.1689" x="3543.5" y="158.5"/><ellipse cx="3558.5" cy="174.5" fill="#ADD1B2" rx="11" ry="11" style="stroke:#181818;stroke-width:1;"/><path d="M3561.4688,180.1406 Q3560.8906,180.4375 3560.25,180.5781 Q3559.6094,180.7344 3558.9063,180.7344 Q3556.4063,180.7344 3555.0781,179.0938 Q3553.7656,177.4375 3553.7656,174.3125 Q3553.7656,171.1875 3555.0781,169.5313 Q3556.4063,167.875 3558.9063,167.875 Q3559.6094,167.875 3560.25,168.0313 Q3560.9063,168.1875 3561.4688,168.4844 L3561.4688,171.2031 Q3560.8438,170.625 3560.25,170.3594 Q3559.6563,170.0781 3559.0313,170.0781 Q3557.6875,170.0781 3557,171.1563 Q3556.3125,172.2188 3556.3125,174.3125 Q3556.3125,176.4063 3557,177.4844 Q3557.6875,178.5469 3559.0313,178.5469 Q3559.6563,178.5469 3560.25,178.2813 Q3560.8438,178 3561.4688,177.4219 L3561.4688,180.1406 Z " fill="#000000"/><text fill="#000000" font-family="sans-serif" font-size="14" lengthAdjust="spacing" textLength="260.1689" x="3572.5" y="179.3467">logic_arc_int__baselibs__utils_base64</text><line style="stroke:#181818;stroke-width:0.5;" x1="3544.5" x2="3834.6689" y1="190.5" y2="190.5"/></g><!--class logic_arc_int__baselibs__bit_mask_operator--><g id="elem_logic_arc_int__baselibs__bit_mask_operator"><rect fill="#F1F1F1" height="40" id="logic_arc_int__baselibs__bit_mask_operator" rx="2.5" ry="2.5" style="stroke:#181818;stroke-width:0.5;" width="334.6406" x="4228" y="158.5"/><ellipse cx="4243" cy="174.5" fill="#ADD1B2" rx="11" ry="11" style="stroke:#181818;stroke-width:1;"/><path d="M4245.9688,180.1406 Q4245.3906,180.4375 4244.75,180.5781 Q4244.1094,180.7344 4243.4063,180.7344 Q4240.9063,180.7344 4239.5781,179.0938 Q4238.2656,177.4375 4238.2656,174.3125 Q4238.2656,171.1875 4239.5781,169.5313 Q4240.9063,167.875 4243.4063,167.875 Q4244.1094,167.875 4244.75,168.0313 Q4245.4063,168.1875 4245.9688,168.4844 L4245.9688,171.2031 Q4245.3438,170.625 4244.75,170.3594 Q4244.1563,170.0781 4243.5313,170.0781 Q4242.1875,170.0781 4241.5,171.1563 Q4240.8125,172.2188 4240.8125,174.3125 Q4240.8125,176.4063 4241.5,177.4844 Q4242.1875,178.5469 4243.5313,178.5469 Q4244.1563,178.5469 4244.75,178.2813 Q4245.3438,178 4245.9688,177.4219 L4245.9688,180.1406 Z " fill="#000000"/><text fill="#000000" font-family="sans-serif" font-size="14" lengthAdjust="spacing" textLength="302.6406" x="4257" y="179.3467">logic_arc_int__baselibs__bit_mask_operator</text><line style="stroke:#181818;stroke-width:0.5;" x1="4229" x2="4561.6406" y1="190.5" y2="190.5"/></g><!--class logic_arc_int__baselibs__condition_variable--><g id="elem_logic_arc_int__baselibs__condition_variable"><rect fill="#F1F1F1" height="40" id="logic_arc_int__baselibs__condition_variable" rx="2.5" ry="2.5" style="stroke:#181818;stroke-width:0.5;" width="332.7539" x="1876" y="158.5"/><ellipse cx="1891" cy="174.5" fill="#ADD1B2" rx="11" ry="11" style="stroke:#181818;stroke-width:1;"/><path d="M1893.9688,180.1406 Q1893.3906,180.4375 1892.75,180.5781 Q1892.1094,180.7344 1891.4063,180.7344 Q1888.9063,180.7344 1887.5781,179.0938 Q1886.2656,177.4375 1886.2656,174.3125 Q1886.2656,171.1875 1887.5781,169.5313 Q1888.9063,167.875 1891.4063,167.875 Q1892.1094,167.875 1892.75,168.0313 Q1893.4063,168.1875 1893.9688,168.4844 L1893.9688,171.2031 Q1893.3438,170.625 1892.75,170.3594 Q1892.1563,170.0781 1891.5313,170.0781 Q1890.1875,170.0781 1889.5,171.1563 Q1888.8125,172.2188 1888.8125,174.3125 Q1888.8125,176.4063 1889.5,177.4844 Q1890.1875,178.5469 1891.5313,178.5469 Q1892.1563,178.5469 1892.75,178.2813 Q1893.3438,178 1893.9688,177.4219 L1893.9688,180.1406 Z " fill="#000000"/><text fill="#000000" font-family="sans-serif" font-size="14" lengthAdjust="spacing" textLength="300.7539" x="1905" y="179.3467">logic_arc_int__baselibs__condition_variable</text><line style="stroke:#181818;stroke-width:0.5;" x1="1877" x2="2207.7539" y1="190.5" y2="190.5"/></g><!--class comp_arc_sta__baselibs__result--><g id="elem_comp_arc_sta__baselibs__result"><rect fill="#F1F1F1" height="40" id="comp_arc_sta__baselibs__result" rx="2.5" ry="2.5" style="stroke:#181818;stroke-width:0.5;" width="253.4297" x="2913" y="275.5"/><ellipse cx="2928" cy="291.5" fill="#ADD1B2" rx="11" ry="11" style="stroke:#181818;stroke-width:1;"/><path d="M2930.9688,297.1406 Q2930.3906,297.4375 2929.75,297.5781 Q2929.1094,297.7344 2928.4063,297.7344 Q2925.9063,297.7344 2924.5781,296.0938 Q2923.2656,294.4375 2923.2656,291.3125 Q2923.2656,288.1875 2924.5781,286.5313 Q2925.9063,284.875 2928.4063,284.875 Q2929.1094,284.875 2929.75,285.0313 Q2930.4063,285.1875 2930.9688,285.4844 L2930.9688,288.2031 Q2930.3438,287.625 2929.75,287.3594 Q2929.1563,287.0781 2928.5313,287.0781 Q2927.1875,287.0781 2926.5,288.1563 Q2925.8125,289.2188 2925.8125,291.3125 Q2925.8125,293.4063 2926.5,294.4844 Q2927.1875,295.5469 2928.5313,295.5469 Q2929.1563,295.5469 2929.75,295.2813 Q2930.3438,295 2930.9688,294.4219 L2930.9688,297.1406 Z " fill="#000000"/><text fill="#000000" font-family="sans-serif" font-size="14" lengthAdjust="spacing" textLength="221.4297" x="2942" y="296.3467">comp_arc_sta__baselibs__result</text><line style="stroke:#181818;stroke-width:0.5;" x1="2914" x2="3165.4297" y1="307.5" y2="307.5"/></g><!--class logic_arc_int__baselibs__utils_scoped_op--><g id="elem_logic_arc_int__baselibs__utils_scoped_op"><rect fill="#F1F1F1" height="40" id="logic_arc_int__baselibs__utils_scoped_op" rx="2.5" ry="2.5" style="stroke:#181818;stroke-width:0.5;" width="315.377" x="3193" y="158.5"/><ellipse cx="3208" cy="174.5" fill="#ADD1B2" rx="11" ry="11" style="stroke:#181818;stroke-width:1;"/><path d="M3210.9688,180.1406 Q3210.3906,180.4375 3209.75,180.5781 Q3209.1094,180.7344 3208.4063,180.7344 Q3205.9063,180.7344 3204.5781,179.0938 Q3203.2656,177.4375 3203.2656,174.3125 Q3203.2656,171.1875 3204.5781,169.5313 Q3205.9063,167.875 3208.4063,167.875 Q3209.1094,167.875 3209.75,168.0313 Q3210.4063,168.1875 3210.9688,168.4844 L3210.9688,171.2031 Q3210.3438,170.625 3209.75,170.3594 Q3209.1563,170.0781 3208.5313,170.0781 Q3207.1875,170.0781 3206.5,171.1563 Q3205.8125,172.2188 3205.8125,174.3125 Q3205.8125,176.4063 3206.5,177.4844 Q3207.1875,178.5469 3208.5313,178.5469 Q3209.1563,178.5469 3209.75,178.2813 Q3210.3438,178 3210.9688,177.4219 L3210.9688,180.1406 Z " fill="#000000"/><text fill="#000000" font-family="sans-serif" font-size="14" lengthAdjust="spacing" textLength="283.377" x="3222" y="179.3467">logic_arc_int__baselibs__utils_scoped_op</text><line style="stroke:#181818;stroke-width:0.5;" x1="3194" x2="3507.377" y1="190.5" y2="190.5"/></g><!--class logic_arc_int__baselibs__synchronized_queue--><g id="elem_logic_arc_int__baselibs__synchronized_queue"><rect fill="#F1F1F1" height="40" id="logic_arc_int__baselibs__synchronized_queue" rx="2.5" ry="2.5" style="stroke:#181818;stroke-width:0.5;" width="348.3604" x="1492.5" y="158.5"/><ellipse cx="1507.5" cy="174.5" fill="#ADD1B2" rx="11" ry="11" style="stroke:#181818;stroke-width:1;"/><path d="M1510.4688,180.1406 Q1509.8906,180.4375 1509.25,180.5781 Q1508.6094,180.7344 1507.9063,180.7344 Q1505.4063,180.7344 1504.0781,179.0938 Q1502.7656,177.4375 1502.7656,174.3125 Q1502.7656,171.1875 1504.0781,169.5313 Q1505.4063,167.875 1507.9063,167.875 Q1508.6094,167.875 1509.25,168.0313 Q1509.9063,168.1875 1510.4688,168.4844 L1510.4688,171.2031 Q1509.8438,170.625 1509.25,170.3594 Q1508.6563,170.0781 1508.0313,170.0781 Q1506.6875,170.0781 1506,171.1563 Q1505.3125,172.2188 1505.3125,174.3125 Q1505.3125,176.4063 1506,177.4844 Q1506.6875,178.5469 1508.0313,178.5469 Q1508.6563,178.5469 1509.25,178.2813 Q1509.8438,178 1510.4688,177.4219 L1510.4688,180.1406 Z " fill="#000000"/><text fill="#000000" font-family="sans-serif" font-size="14" lengthAdjust="spacing" textLength="316.3604" x="1521.5" y="179.3467">logic_arc_int__baselibs__synchronized_queue</text><line style="stroke:#181818;stroke-width:0.5;" x1="1493.5" x2="1839.8604" y1="190.5" y2="190.5"/></g><!--class logic_arc_int__baselibs__task--><g id="elem_logic_arc_int__baselibs__task"><rect fill="#F1F1F1" height="40" id="logic_arc_int__baselibs__task" rx="2.5" ry="2.5" style="stroke:#181818;stroke-width:0.5;" width="234.0156" x="585.5" y="158.5"/><ellipse cx="600.5" cy="174.5" fill="#ADD1B2" rx="11" ry="11" style="stroke:#181818;stroke-width:1;"/><path d="M603.4688,180.1406 Q602.8906,180.4375 602.25,180.5781 Q601.6094,180.7344 600.9063,180.7344 Q598.4063,180.7344 597.0781,179.0938 Q595.7656,177.4375 595.7656,174.3125 Q595.7656,171.1875 597.0781,169.5313 Q598.4063,167.875 600.9063,167.875 Q601.6094,167.875 602.25,168.0313 Q602.9063,168.1875 603.4688,168.4844 L603.4688,171.2031 Q602.8438,170.625 602.25,170.3594 Q601.6563,170.0781 601.0313,170.0781 Q599.6875,170.0781 599,171.1563 Q598.3125,172.2188 598.3125,174.3125 Q598.3125,176.4063 599,177.4844 Q599.6875,178.5469 601.0313,178.5469 Q601.6563,178.5469 602.25,178.2813 Q602.8438,178 603.4688,177.4219 L603.4688,180.1406 Z " fill="#000000"/><text fill="#000000" font-family="sans-serif" font-size="14" lengthAdjust="spacing" textLength="202.0156" x="614.5" y="179.3467">logic_arc_int__baselibs__task</text><line style="stroke:#181818;stroke-width:0.5;" x1="586.5" x2="818.5156" y1="190.5" y2="190.5"/></g><!--class logic_arc_int__baselibs__task_result--><g id="elem_logic_arc_int__baselibs__task_result"><rect fill="#F1F1F1" height="40" id="logic_arc_int__baselibs__task_result" rx="2.5" ry="2.5" style="stroke:#181818;stroke-width:0.5;" width="280.9307" x="2244" y="158.5"/><ellipse cx="2259" cy="174.5" fill="#ADD1B2" rx="11" ry="11" style="stroke:#181818;stroke-width:1;"/><path d="M2261.9688,180.1406 Q2261.3906,180.4375 2260.75,180.5781 Q2260.1094,180.7344 2259.4063,180.7344 Q2256.9063,180.7344 2255.5781,179.0938 Q2254.2656,177.4375 2254.2656,174.3125 Q2254.2656,171.1875 2255.5781,169.5313 Q2256.9063,167.875 2259.4063,167.875 Q2260.1094,167.875 2260.75,168.0313 Q2261.4063,168.1875 2261.9688,168.4844 L2261.9688,171.2031 Q2261.3438,170.625 2260.75,170.3594 Q2260.1563,170.0781 2259.5313,170.0781 Q2258.1875,170.0781 2257.5,171.1563 Q2256.8125,172.2188 2256.8125,174.3125 Q2256.8125,176.4063 2257.5,177.4844 Q2258.1875,178.5469 2259.5313,178.5469 Q2260.1563,178.5469 2260.75,178.2813 Q2261.3438,178 2261.9688,177.4219 L2261.9688,180.1406 Z " fill="#000000"/><text fill="#000000" font-family="sans-serif" font-size="14" lengthAdjust="spacing" textLength="248.9307" x="2273" y="179.3467">logic_arc_int__baselibs__task_result</text><line style="stroke:#181818;stroke-width:0.5;" x1="2245" x2="2523.9307" y1="190.5" y2="190.5"/></g><!--class comp_arc_sta__baselibs__memory_shared--><g id="elem_comp_arc_sta__baselibs__memory_shared"><rect fill="#F1F1F1" height="40" id="comp_arc_sta__baselibs__memory_shared" rx="2.5" ry="2.5" style="stroke:#181818;stroke-width:0.5;" width="327.0117" x="2551" y="275.5"/><ellipse cx="2566" cy="291.5" fill="#ADD1B2" rx="11" ry="11" style="stroke:#181818;stroke-width:1;"/><path d="M2568.9688,297.1406 Q2568.3906,297.4375 2567.75,297.5781 Q2567.1094,297.7344 2566.4063,297.7344 Q2563.9063,297.7344 2562.5781,296.0938 Q2561.2656,294.4375 2561.2656,291.3125 Q2561.2656,288.1875 2562.5781,286.5313 Q2563.9063,284.875 2566.4063,284.875 Q2567.1094,284.875 2567.75,285.0313 Q2568.4063,285.1875 2568.9688,285.4844 L2568.9688,288.2031 Q2568.3438,287.625 2567.75,287.3594 Q2567.1563,287.0781 2566.5313,287.0781 Q2565.1875,287.0781 2564.5,288.1563 Q2563.8125,289.2188 2563.8125,291.3125 Q2563.8125,293.4063 2564.5,294.4844 Q2565.1875,295.5469 2566.5313,295.5469 Q2567.1563,295.5469 2567.75,295.2813 Q2568.3438,295 2568.9688,294.4219 L2568.9688,297.1406 Z " fill="#000000"/><text fill="#000000" font-family="sans-serif" font-size="14" lengthAdjust="spacing" textLength="295.0117" x="2580" y="296.3467">comp_arc_sta__baselibs__memory_shared</text><line style="stroke:#181818;stroke-width:0.5;" x1="2552" x2="2877.0117" y1="307.5" y2="307.5"/></g><!--class logic_arc_int__baselibs__memory_shared--><g id="elem_logic_arc_int__baselibs__memory_shared"><rect fill="#F1F1F1" height="40" id="logic_arc_int__baselibs__memory_shared" rx="2.5" ry="2.5" style="stroke:#181818;stroke-width:0.5;" width="318.043" x="2560.5" y="158.5"/><ellipse cx="2575.5" cy="174.5" fill="#ADD1B2" rx="11" ry="11" style="stroke:#181818;stroke-width:1;"/><path d="M2578.4688,180.1406 Q2577.8906,180.4375 2577.25,180.5781 Q2576.6094,180.7344 2575.9063,180.7344 Q2573.4063,180.7344 2572.0781,179.0938 Q2570.7656,177.4375 2570.7656,174.3125 Q2570.7656,171.1875 2572.0781,169.5313 Q2573.4063,167.875 2575.9063,167.875 Q2576.6094,167.875 2577.25,168.0313 Q2577.9063,168.1875 2578.4688,168.4844 L2578.4688,171.2031 Q2577.8438,170.625 2577.25,170.3594 Q2576.6563,170.0781 2576.0313,170.0781 Q2574.6875,170.0781 2574,171.1563 Q2573.3125,172.2188 2573.3125,174.3125 Q2573.3125,176.4063 2574,177.4844 Q2574.6875,178.5469 2576.0313,178.5469 Q2576.6563,178.5469 2577.25,178.2813 Q2577.8438,178 2578.4688,177.4219 L2578.4688,180.1406 Z " fill="#000000"/><text fill="#000000" font-family="sans-serif" font-size="14" lengthAdjust="spacing" textLength="286.043" x="2589.5" y="179.3467">logic_arc_int__baselibs__memory_shared</text><line style="stroke:#181818;stroke-width:0.5;" x1="2561.5" x2="2877.543" y1="190.5" y2="190.5"/></g><!--class logic_arc_int__baselibs__shared_future--><g id="elem_logic_arc_int__baselibs__shared_future"><rect fill="#F1F1F1" height="40" id="logic_arc_int__baselibs__shared_future" rx="2.5" ry="2.5" style="stroke:#181818;stroke-width:0.5;" width="302.0811" x="1155.5" y="158.5"/><ellipse cx="1170.5" cy="174.5" fill="#ADD1B2" rx="11" ry="11" style="stroke:#181818;stroke-width:1;"/><path d="M1173.4688,180.1406 Q1172.8906,180.4375 1172.25,180.5781 Q1171.6094,180.7344 1170.9063,180.7344 Q1168.4063,180.7344 1167.0781,179.0938 Q1165.7656,177.4375 1165.7656,174.3125 Q1165.7656,171.1875 1167.0781,169.5313 Q1168.4063,167.875 1170.9063,167.875 Q1171.6094,167.875 1172.25,168.0313 Q1172.9063,168.1875 1173.4688,168.4844 L1173.4688,171.2031 Q1172.8438,170.625 1172.25,170.3594 Q1171.6563,170.0781 1171.0313,170.0781 Q1169.6875,170.0781 1169,171.1563 Q1168.3125,172.2188 1168.3125,174.3125 Q1168.3125,176.4063 1169,177.4844 Q1169.6875,178.5469 1171.0313,178.5469 Q1171.6563,178.5469 1172.25,178.2813 Q1172.8438,178 1173.4688,177.4219 L1173.4688,180.1406 Z " fill="#000000"/><text fill="#000000" font-family="sans-serif" font-size="14" lengthAdjust="spacing" textLength="270.0811" x="1184.5" y="179.3467">logic_arc_int__baselibs__shared_future</text><line style="stroke:#181818;stroke-width:0.5;" x1="1156.5" x2="1456.5811" y1="190.5" y2="190.5"/></g><!--class logic_arc_int__baselibs__promise--><g id="elem_logic_arc_int__baselibs__promise"><rect fill="#F1F1F1" height="40" id="logic_arc_int__baselibs__promise" rx="2.5" ry="2.5" style="stroke:#181818;stroke-width:0.5;" width="261.1885" x="289" y="158.5"/><ellipse cx="304" cy="174.5" fill="#ADD1B2" rx="11" ry="11" style="stroke:#181818;stroke-width:1;"/><path d="M306.9688,180.1406 Q306.3906,180.4375 305.75,180.5781 Q305.1094,180.7344 304.4063,180.7344 Q301.9063,180.7344 300.5781,179.0938 Q299.2656,177.4375 299.2656,174.3125 Q299.2656,171.1875 300.5781,169.5313 Q301.9063,167.875 304.4063,167.875 Q305.1094,167.875 305.75,168.0313 Q306.4063,168.1875 306.9688,168.4844 L306.9688,171.2031 Q306.3438,170.625 305.75,170.3594 Q305.1563,170.0781 304.5313,170.0781 Q303.1875,170.0781 302.5,171.1563 Q301.8125,172.2188 301.8125,174.3125 Q301.8125,176.4063 302.5,177.4844 Q303.1875,178.5469 304.5313,178.5469 Q305.1563,178.5469 305.75,178.2813 Q306.3438,178 306.9688,177.4219 L306.9688,180.1406 Z " fill="#000000"/><text fill="#000000" font-family="sans-serif" font-size="14" lengthAdjust="spacing" textLength="229.1885" x="318" y="179.3467">logic_arc_int__baselibs__promise</text><line style="stroke:#181818;stroke-width:0.5;" x1="290" x2="549.1885" y1="190.5" y2="190.5"/></g><!--reverse link logic_arc_int__baselibs__message_passing to comp_arc_sta__baselibs__message_passing--><g id="link_logic_arc_int__baselibs__message_passing_comp_arc_sta__baselibs__message_passing"><path codeLine="14" d="M6017.9346,204.7491 C6018.3046,225.9791 6018.79,253.94 6019.16,275.19 " fill="transparent" id="logic_arc_int__baselibs__message_passing-backto-comp_arc_sta__baselibs__message_passing" style="stroke:#181818;stroke-width:1;"/><polygon fill="#181818" points="6017.83,198.75,6013.9874,207.8183,6017.9171,203.7492,6021.9862,207.6789,6017.83,198.75" style="stroke:#181818;stroke-width:1;"/><text fill="#000000" font-family="sans-serif" font-size="13" lengthAdjust="spacing" textLength="76.9082" x="6019.5" y="241.5669">implements</text></g><!--reverse link logic_arc_int__baselibs__json to comp_arc_sta__baselibs__json--><g id="link_logic_arc_int__baselibs__json_comp_arc_sta__baselibs__json"><path codeLine="15" d="M5696.8418,204.7479 C5696.2818,225.9779 5695.56,253.94 5695,275.19 " fill="transparent" id="logic_arc_int__baselibs__json-backto-comp_arc_sta__baselibs__json" style="stroke:#181818;stroke-width:1;"/><polygon fill="#181818" points="5697,198.75,5692.7641,207.6414,5696.8682,203.7483,5700.7613,207.8523,5697,198.75" style="stroke:#181818;stroke-width:1;"/><text fill="#000000" font-family="sans-serif" font-size="13" lengthAdjust="spacing" textLength="76.9082" x="5697.5" y="241.5669">implements</text></g><!--link Feature_User to logic_arc_int__baselibs__json--><g id="link_Feature_User_logic_arc_int__baselibs__json"><path codeLine="16" d="M3080.72,45.65 C3286.2,51 4152.48,74.69 4862.5,111.5 C5174.34,127.67 5252.93,126.12 5563.5,158.5 C5569.23,159.1 5569.1216,159.0443 5575.0316,159.7443 " fill="transparent" id="Feature_User-to-logic_arc_int__baselibs__json" style="stroke:#181818;stroke-width:1;"/><polygon fill="#181818" points="5580.99,160.45,5572.523,155.4192,5576.0247,159.8619,5571.582,163.3636,5580.99,160.45" style="stroke:#181818;stroke-width:1;"/><text fill="#000000" font-family="sans-serif" font-size="13" lengthAdjust="spacing" textLength="23.0103" x="5203.5" y="124.5669">use</text></g><!--link Feature_User to logic_arc_int__baselibs__dynamic_array--><g id="link_Feature_User_logic_arc_int__baselibs__dynamic_array"><path codeLine="18" d="M3080.8,46.22 C3288.53,54.33 4170.69,91.21 4891.5,158.5 C4897.33,159.04 4897.3088,159.0328 4903.3088,159.6228 " fill="transparent" id="Feature_User-to-logic_arc_int__baselibs__dynamic_array" style="stroke:#181818;stroke-width:1;"/><polygon fill="#181818" points="4909.28,160.21,4900.7146,155.3484,4904.304,159.7207,4899.9318,163.31,4909.28,160.21" style="stroke:#181818;stroke-width:1;"/><text fill="#000000" font-family="sans-serif" font-size="13" lengthAdjust="spacing" textLength="23.0103" x="4486.5" y="124.5669">use</text></g><!--reverse link logic_arc_int__baselibs__dynamic_array to comp_arc_sta__baselibs__containers--><g id="link_logic_arc_int__baselibs__dynamic_array_comp_arc_sta__baselibs__containers"><path codeLine="19" d="M5096.3918,202.1527 C5127.3118,223.4427 5171.89,254.14 5202.74,275.38 " fill="transparent" id="logic_arc_int__baselibs__dynamic_array-backto-comp_arc_sta__baselibs__containers" style="stroke:#181818;stroke-width:1;"/><polygon fill="#181818" points="5091.45,198.75,5096.5943,207.1486,5095.5682,201.5856,5101.1312,200.5595,5091.45,198.75" style="stroke:#181818;stroke-width:1;"/><text fill="#000000" font-family="sans-serif" font-size="13" lengthAdjust="spacing" textLength="76.9082" x="5158.5" y="241.5669">implements</text></g><!--link Feature_User to logic_arc_int__baselibs__message_passing--><g id="link_Feature_User_logic_arc_int__baselibs__message_passing"><path codeLine="20" d="M3080.83,45.07 C3310.64,48.12 4369.85,64.21 5235.5,111.5 C5500.82,125.99 5566.87,134.55 5831.5,158.5 C5838.69,159.15 5840.0665,159.2665 5847.4865,159.9665 " fill="transparent" id="Feature_User-to-logic_arc_int__baselibs__message_passing" style="stroke:#181818;stroke-width:1;"/><polygon fill="#181818" points="5853.46,160.53,5844.8755,155.7024,5848.4821,160.0604,5844.1241,163.667,5853.46,160.53" style="stroke:#181818;stroke-width:1;"/><text fill="#000000" font-family="sans-serif" font-size="13" lengthAdjust="spacing" textLength="23.0103" x="5495.5" y="124.5669">use</text></g><!--link Feature_User to logic_arc_int__baselibs__result--><g id="link_Feature_User_logic_arc_int__baselibs__result"><path codeLine="21" d="M3035.5,81.55 C3035.5,106.45 3035.5,132.26 3035.5,152.26 " fill="transparent" id="Feature_User-to-logic_arc_int__baselibs__result" style="stroke:#181818;stroke-width:1;"/><polygon fill="#181818" points="3035.5,158.26,3039.5,149.26,3035.5,153.26,3031.5,149.26,3035.5,158.26" style="stroke:#181818;stroke-width:1;"/><text fill="#000000" font-family="sans-serif" font-size="13" lengthAdjust="spacing" textLength="23.0103" x="3036.5" y="124.5669">use</text></g><!--reverse link logic_arc_int__baselibs__bit_manipulation to comp_arc_sta__baselibs__bit_manipulation--><g id="link_logic_arc_int__baselibs__bit_manipulation_comp_arc_sta__baselibs__bit_manipulation"><path codeLine="22" d="M4066.6865,201.9799 C4100.0165,223.2699 4148.33,254.14 4181.57,275.38 " fill="transparent" id="logic_arc_int__baselibs__bit_manipulation-backto-comp_arc_sta__baselibs__bit_manipulation" style="stroke:#181818;stroke-width:1;"/><polygon fill="#181818" points="4061.63,198.75,4067.0614,206.9658,4065.8437,201.4416,4071.368,200.2239,4061.63,198.75" style="stroke:#181818;stroke-width:1;"/><text fill="#000000" font-family="sans-serif" font-size="13" lengthAdjust="spacing" textLength="76.9082" x="4133.5" y="241.5669">implements</text></g><!--reverse link logic_arc_int__baselibs__executor to comp_arc_sta__baselibs__concurrency--><g id="link_logic_arc_int__baselibs__executor_comp_arc_sta__baselibs__concurrency"><path codeLine="23" d="M1028.9465,201.5691 C1068.9465,222.8591 1127.69,254.14 1167.59,275.38 " fill="transparent" id="logic_arc_int__baselibs__executor-backto-comp_arc_sta__baselibs__concurrency" style="stroke:#181818;stroke-width:1;"/><polygon fill="#181818" points="1023.65,198.75,1029.7154,206.5096,1028.0637,201.0992,1033.4741,199.4476,1023.65,198.75" style="stroke:#181818;stroke-width:1;"/><text fill="#000000" font-family="sans-serif" font-size="13" lengthAdjust="spacing" textLength="76.9082" x="1109.5" y="241.5669">implements</text></g><!--reverse link logic_arc_int__baselibs__intrusive_list to comp_arc_sta__baselibs__containers--><g id="link_logic_arc_int__baselibs__intrusive_list_comp_arc_sta__baselibs__containers"><path codeLine="24" d="M5366.2494,202.1252 C5334.9594,223.4152 5289.81,254.14 5258.6,275.38 " fill="transparent" id="logic_arc_int__baselibs__intrusive_list-backto-comp_arc_sta__baselibs__containers" style="stroke:#181818;stroke-width:1;"/><polygon fill="#181818" points="5371.21,198.75,5361.5189,200.5058,5367.0762,201.5627,5366.0192,207.1199,5371.21,198.75" style="stroke:#181818;stroke-width:1;"/><text fill="#000000" font-family="sans-serif" font-size="13" lengthAdjust="spacing" textLength="76.9082" x="5326.5" y="241.5669">implements</text></g><!--reverse link logic_arc_int__baselibs__filesystem to comp_arc_sta__baselibs__filesystem--><g id="link_logic_arc_int__baselibs__filesystem_comp_arc_sta__baselibs__filesystem"><path codeLine="25" d="M4736.5,204.75 C4736.5,225.98 4736.5,253.94 4736.5,275.19 " fill="transparent" id="logic_arc_int__baselibs__filesystem-backto-comp_arc_sta__baselibs__filesystem" style="stroke:#181818;stroke-width:1;"/><polygon fill="#181818" points="4736.5,198.75,4732.5,207.75,4736.5,203.75,4740.5,207.75,4736.5,198.75" style="stroke:#181818;stroke-width:1;"/><text fill="#000000" font-family="sans-serif" font-size="13" lengthAdjust="spacing" textLength="76.9082" x="4737.5" y="241.5669">implements</text></g><!--reverse link logic_arc_int__baselibs__future to comp_arc_sta__baselibs__concurrency--><g id="link_logic_arc_int__baselibs__future_comp_arc_sta__baselibs__concurrency"><path codeLine="26" d="M260.2382,197.037 C266.0582,197.807 265.87,197.77 271.5,198.5 C438.95,220.22 480.6,227.63 648.5,245.5 C785.44,260.08 941.73,273.6 1053.48,282.72 " fill="transparent" id="logic_arc_int__baselibs__future-backto-comp_arc_sta__baselibs__concurrency" style="stroke:#181818;stroke-width:1;"/><polygon fill="#181818" points="254.29,196.25,262.6876,201.3959,259.2468,196.9058,263.7369,193.465,254.29,196.25" style="stroke:#181818;stroke-width:1;"/><text fill="#000000" font-family="sans-serif" font-size="13" lengthAdjust="spacing" textLength="76.9082" x="649.5" y="241.5669">implements</text></g><!--reverse link logic_arc_int__baselibs__utils_base64 to comp_arc_sta__baselibs__utils--><g id="link_logic_arc_int__baselibs__utils_base64_comp_arc_sta__baselibs__utils"><path codeLine="27" d="M3651.3479,201.7743 C3614.8679,223.0643 3561.64,254.14 3525.25,275.38 " fill="transparent" id="logic_arc_int__baselibs__utils_base64-backto-comp_arc_sta__baselibs__utils" style="stroke:#181818;stroke-width:1;"/><polygon fill="#181818" points="3656.53,198.75,3646.7407,199.8317,3652.2116,201.2702,3650.7731,206.7411,3656.53,198.75" style="stroke:#181818;stroke-width:1;"/><text fill="#000000" font-family="sans-serif" font-size="13" lengthAdjust="spacing" textLength="76.9082" x="3604.5" y="241.5669">implements</text></g><!--link Feature_User to logic_arc_int__baselibs__executor--><g id="link_Feature_User_logic_arc_int__baselibs__executor"><path codeLine="28" d="M2990.22,45.98 C2779.68,53.13 1875.52,86.68 1137.5,158.5 C1132.01,159.03 1132.3865,158.9764 1126.7365,159.5764 " fill="transparent" id="Feature_User-to-logic_arc_int__baselibs__executor" style="stroke:#181818;stroke-width:1;"/><polygon fill="#181818" points="1120.77,160.21,1130.1421,163.2372,1125.742,159.682,1129.2973,155.282,1120.77,160.21" style="stroke:#181818;stroke-width:1;"/><text fill="#000000" font-family="sans-serif" font-size="13" lengthAdjust="spacing" textLength="23.0103" x="1711.5" y="124.5669">use</text></g><!--link Feature_User to logic_arc_int__baselibs__bit_mask_operator--><g id="link_Feature_User_logic_arc_int__baselibs__bit_mask_operator"><path codeLine="29" d="M3080.56,48.79 C3236.79,63.7 3769.61,114.68 4209.5,158.5 C4215.48,159.1 4215.5904,159.0972 4221.7304,159.7172 " fill="transparent" id="Feature_User-to-logic_arc_int__baselibs__bit_mask_operator" style="stroke:#181818;stroke-width:1;"/><polygon fill="#181818" points="4227.7,160.32,4219.1474,155.436,4222.7253,159.8177,4218.3437,163.3956,4227.7,160.32" style="stroke:#181818;stroke-width:1;"/><text fill="#000000" font-family="sans-serif" font-size="13" lengthAdjust="spacing" textLength="23.0103" x="3888.5" y="124.5669">use</text></g><!--link Feature_User to logic_arc_int__baselibs__utils_base64--><g id="link_Feature_User_logic_arc_int__baselibs__utils_base64"><path codeLine="30" d="M3080.71,53.69 C3186.75,75.26 3447.3604,128.2541 3590.0304,157.2741 " fill="transparent" id="Feature_User-to-logic_arc_int__baselibs__utils_base64" style="stroke:#181818;stroke-width:1;"/><polygon fill="#181818" points="3595.91,158.47,3587.8879,152.7563,3591.0103,157.4734,3586.2933,160.5958,3595.91,158.47" style="stroke:#181818;stroke-width:1;"/><text fill="#000000" font-family="sans-serif" font-size="13" lengthAdjust="spacing" textLength="23.0103" x="3441.5" y="124.5669">use</text></g><!--reverse link logic_arc_int__baselibs__condition_variable to comp_arc_sta__baselibs__concurrency--><g id="link_logic_arc_int__baselibs__condition_variable_comp_arc_sta__baselibs__concurrency"><path codeLine="31" d="M1897.5456,199.365 C1742.1156,220.675 1497.83,254.16 1342.44,275.46 " fill="transparent" id="logic_arc_int__baselibs__condition_variable-backto-comp_arc_sta__baselibs__concurrency" style="stroke:#181818;stroke-width:1;"/><polygon fill="#181818" points="1903.49,198.55,1894.0301,195.8096,1898.5363,199.2292,1895.1167,203.7354,1903.49,198.55" style="stroke:#181818;stroke-width:1;"/><text fill="#000000" font-family="sans-serif" font-size="13" lengthAdjust="spacing" textLength="76.9082" x="1674.5" y="241.5669">implements</text></g><!--reverse link logic_arc_int__baselibs__result to comp_arc_sta__baselibs__result--><g id="link_logic_arc_int__baselibs__result_comp_arc_sta__baselibs__result"><path codeLine="32" d="M3036.379,204.7464 C3037.119,225.9764 3038.09,253.94 3038.83,275.19 " fill="transparent" id="logic_arc_int__baselibs__result-backto-comp_arc_sta__baselibs__result" style="stroke:#181818;stroke-width:1;"/><polygon fill="#181818" points="3036.17,198.75,3032.4859,207.8839,3036.3442,203.747,3040.4811,207.6052,3036.17,198.75" style="stroke:#181818;stroke-width:1;"/><text fill="#000000" font-family="sans-serif" font-size="13" lengthAdjust="spacing" textLength="76.9082" x="3039.5" y="241.5669">implements</text></g><!--link Feature_User to logic_arc_int__baselibs__bit_manipulation--><g id="link_Feature_User_logic_arc_int__baselibs__bit_manipulation"><path codeLine="33" d="M3080.56,50.52 C3221.84,69.38 3654.4128,127.1458 3883.2628,157.7058 " fill="transparent" id="Feature_User-to-logic_arc_int__baselibs__bit_manipulation" style="stroke:#181818;stroke-width:1;"/><polygon fill="#181818" points="3889.21,158.5,3880.8186,153.3439,3884.254,157.8382,3879.7597,161.2735,3889.21,158.5" style="stroke:#181818;stroke-width:1;"/><text fill="#000000" font-family="sans-serif" font-size="13" lengthAdjust="spacing" textLength="23.0103" x="3653.5" y="124.5669">use</text></g><!--reverse link logic_arc_int__baselibs__utils_scoped_op to comp_arc_sta__baselibs__utils--><g id="link_logic_arc_int__baselibs__utils_scoped_op_comp_arc_sta__baselibs__utils"><path codeLine="34" d="M3378.9324,202.5265 C3405.1424,223.7565 3442.41,253.94 3468.65,275.19 " fill="transparent" id="logic_arc_int__baselibs__utils_scoped_op-backto-comp_arc_sta__baselibs__utils" style="stroke:#181818;stroke-width:1;"/><polygon fill="#181818" points="3374.27,198.75,3378.7459,207.523,3378.1553,201.8971,3383.7813,201.3065,3374.27,198.75" style="stroke:#181818;stroke-width:1;"/><text fill="#000000" font-family="sans-serif" font-size="13" lengthAdjust="spacing" textLength="76.9082" x="3431.5" y="241.5669">implements</text></g><!--reverse link logic_arc_int__baselibs__bit_mask_operator to comp_arc_sta__baselibs__bit_manipulation--><g id="link_logic_arc_int__baselibs__bit_mask_operator_comp_arc_sta__baselibs__bit_manipulation"><path codeLine="35" d="M4359.6118,201.9296 C4325.5418,223.2196 4276.08,254.14 4242.09,275.38 " fill="transparent" id="logic_arc_int__baselibs__bit_mask_operator-backto-comp_arc_sta__baselibs__bit_manipulation" style="stroke:#181818;stroke-width:1;"/><polygon fill="#181818" points="4364.7,198.75,4354.9479,200.1272,4360.4598,201.3997,4359.1874,206.9115,4364.7,198.75" style="stroke:#181818;stroke-width:1;"/><text fill="#000000" font-family="sans-serif" font-size="13" lengthAdjust="spacing" textLength="76.9082" x="4316.5" y="241.5669">implements</text></g><!--link Feature_User to logic_arc_int__baselibs__condition_variable--><g id="link_Feature_User_logic_arc_int__baselibs__condition_variable"><path codeLine="36" d="M2990.25,50.56 C2849.11,69.46 2418.6969,127.1134 2190.6169,157.6634 " fill="transparent" id="Feature_User-to-logic_arc_int__baselibs__condition_variable" style="stroke:#181818;stroke-width:1;"/><polygon fill="#181818" points="2184.67,158.46,2194.1214,161.2298,2189.6257,157.7962,2193.0593,153.3006,2184.67,158.46" style="stroke:#181818;stroke-width:1;"/><text fill="#000000" font-family="sans-serif" font-size="13" lengthAdjust="spacing" textLength="23.0103" x="2510.5" y="124.5669">use</text></g><!--link Feature_User to logic_arc_int__baselibs__synchronized_queue--><g id="link_Feature_User_logic_arc_int__baselibs__synchronized_queue"><path codeLine="37" d="M2990.33,48.84 C2833.72,63.9 2299.57,115.32 1858.5,158.5 C1852.67,159.07 1852.7011,159.0619 1846.7111,159.6519 " fill="transparent" id="Feature_User-to-logic_arc_int__baselibs__synchronized_queue" style="stroke:#181818;stroke-width:1;"/><polygon fill="#181818" points="1840.74,160.24,1850.0887,163.3385,1845.7159,159.7499,1849.3046,155.3771,1840.74,160.24" style="stroke:#181818;stroke-width:1;"/><text fill="#000000" font-family="sans-serif" font-size="13" lengthAdjust="spacing" textLength="23.0103" x="2312.5" y="124.5669">use</text></g><!--link Feature_User to logic_arc_int__baselibs__task--><g id="link_Feature_User_logic_arc_int__baselibs__task"><path codeLine="38" d="M2990.25,45.91 C2802.91,51.85 2069.65,76.22 1467.5,111.5 C1186.76,127.95 1116.09,128.3 836.5,158.5 C831.01,159.09 831.3572,159.0243 825.6972,159.7043 " fill="transparent" id="Feature_User-to-logic_arc_int__baselibs__task" style="stroke:#181818;stroke-width:1;"/><polygon fill="#181818" points="819.74,160.42,829.1529,163.3179,824.7043,159.8236,828.1986,155.375,819.74,160.42" style="stroke:#181818;stroke-width:1;"/><text fill="#000000" font-family="sans-serif" font-size="13" lengthAdjust="spacing" textLength="23.0103" x="1468.5" y="124.5669">use</text></g><!--link Feature_User to logic_arc_int__baselibs__intrusive_list--><g id="link_Feature_User_logic_arc_int__baselibs__intrusive_list"><path codeLine="39" d="M3080.72,46.21 C3261.69,53.11 3951.4,80.08 4518.5,111.5 C4836.92,129.14 4916.89,129.81 5234.5,158.5 C5240.53,159.04 5240.7087,159.0435 5246.9187,159.6535 " fill="transparent" id="Feature_User-to-logic_arc_int__baselibs__intrusive_list" style="stroke:#181818;stroke-width:1;"/><polygon fill="#181818" points="5252.89,160.24,5244.3241,155.3793,5247.9139,159.7512,5243.5421,163.341,5252.89,160.24" style="stroke:#181818;stroke-width:1;"/><text fill="#000000" font-family="sans-serif" font-size="13" lengthAdjust="spacing" textLength="23.0103" x="4830.5" y="124.5669">use</text></g><!--link Feature_User to logic_arc_int__baselibs__future--><g id="link_Feature_User_logic_arc_int__baselibs__future"><path codeLine="40" d="M2990.45,45.04 C2762.1,47.93 1709.58,63.38 849.5,111.5 C592.17,125.9 527.75,130.84 271.5,158.5 C265.85,159.11 266.0384,159.0548 260.2084,159.7448 " fill="transparent" id="Feature_User-to-logic_arc_int__baselibs__future" style="stroke:#181818;stroke-width:1;"/><polygon fill="#181818" points="254.25,160.45,263.6578,163.3645,259.2153,159.8623,262.7175,155.4199,254.25,160.45" style="stroke:#181818;stroke-width:1;"/><text fill="#000000" font-family="sans-serif" font-size="13" lengthAdjust="spacing" textLength="23.0103" x="850.5" y="124.5669">use</text></g><!--link Feature_User to logic_arc_int__baselibs__task_result--><g id="link_Feature_User_logic_arc_int__baselibs__task_result"><path codeLine="41" d="M2990.5,53.69 C2884.94,75.26 2625.5485,128.2487 2483.5385,157.2687 " fill="transparent" id="Feature_User-to-logic_arc_int__baselibs__task_result" style="stroke:#181818;stroke-width:1;"/><polygon fill="#181818" points="2477.66,158.47,2487.2786,160.5871,2482.5588,157.4689,2485.6769,152.7491,2477.66,158.47" style="stroke:#181818;stroke-width:1;"/><text fill="#000000" font-family="sans-serif" font-size="13" lengthAdjust="spacing" textLength="23.0103" x="2691.5" y="124.5669">use</text></g><!--reverse link logic_arc_int__baselibs__memory_shared to comp_arc_sta__baselibs__memory_shared--><g id="link_logic_arc_int__baselibs__memory_shared_comp_arc_sta__baselibs__memory_shared"><path codeLine="42" d="M2718.4002,204.7444 C2717.4802,225.9744 2716.26,253.94 2715.34,275.19 " fill="transparent" id="logic_arc_int__baselibs__memory_shared-backto-comp_arc_sta__baselibs__memory_shared" style="stroke:#181818;stroke-width:1;"/><polygon fill="#181818" points="2718.66,198.75,2714.2741,207.5684,2718.4435,203.7453,2722.2666,207.9147,2718.66,198.75" style="stroke:#181818;stroke-width:1;"/><text fill="#000000" font-family="sans-serif" font-size="13" lengthAdjust="spacing" textLength="76.9082" x="2718.5" y="241.5669">implements</text></g><!--reverse link logic_arc_int__baselibs__task_result to comp_arc_sta__baselibs__concurrency--><g id="link_logic_arc_int__baselibs__task_result_comp_arc_sta__baselibs__concurrency"><path codeLine="43" d="M2237.7073,197.2482 C2231.9073,197.8982 2232.13,197.88 2226.5,198.5 C1916.66,232.72 1553.14,264.95 1353.6,281.97 " fill="transparent" id="logic_arc_int__baselibs__task_result-backto-comp_arc_sta__baselibs__concurrency" style="stroke:#181818;stroke-width:1;"/><polygon fill="#181818" points="2243.67,196.58,2234.2805,193.6072,2238.7011,197.1369,2235.1715,201.5575,2243.67,196.58" style="stroke:#181818;stroke-width:1;"/><text fill="#000000" font-family="sans-serif" font-size="13" lengthAdjust="spacing" textLength="76.9082" x="1918.5" y="241.5669">implements</text></g><!--reverse link logic_arc_int__baselibs__synchronized_queue to comp_arc_sta__baselibs__concurrency--><g id="link_logic_arc_int__baselibs__synchronized_queue_comp_arc_sta__baselibs__concurrency"><path codeLine="44" d="M1583.967,199.9964 C1498.257,221.2864 1366.13,254.11 1280.36,275.41 " fill="transparent" id="logic_arc_int__baselibs__synchronized_queue-backto-comp_arc_sta__baselibs__concurrency" style="stroke:#181818;stroke-width:1;"/><polygon fill="#181818" points="1589.79,198.55,1580.0912,196.8376,1584.9375,199.7553,1582.0197,204.6017,1589.79,198.55" style="stroke:#181818;stroke-width:1;"/><text fill="#000000" font-family="sans-serif" font-size="13" lengthAdjust="spacing" textLength="76.9082" x="1464.5" y="241.5669">implements</text></g><!--link Feature_User to logic_arc_int__baselibs__filesystem--><g id="link_Feature_User_logic_arc_int__baselibs__filesystem"><path codeLine="45" d="M3080.75,47.05 C3266.51,57.68 3988.59,100.65 4580.5,158.5 C4586.34,159.07 4586.3337,159.0447 4592.3437,159.6847 " fill="transparent" id="Feature_User-to-logic_arc_int__baselibs__filesystem" style="stroke:#181818;stroke-width:1;"/><polygon fill="#181818" points="4598.31,160.32,4589.7842,155.3895,4593.3381,159.7905,4588.937,163.3445,4598.31,160.32" style="stroke:#181818;stroke-width:1;"/><text fill="#000000" font-family="sans-serif" font-size="13" lengthAdjust="spacing" textLength="23.0103" x="4243.5" y="124.5669">use</text></g><!--reverse link logic_arc_int__baselibs__shared_future to comp_arc_sta__baselibs__concurrency--><g id="link_logic_arc_int__baselibs__shared_future_comp_arc_sta__baselibs__concurrency"><path codeLine="46" d="M1285.2575,203.2199 C1266.2475,224.4499 1239.83,253.94 1220.8,275.19 " fill="transparent" id="logic_arc_int__baselibs__shared_future-backto-comp_arc_sta__baselibs__concurrency" style="stroke:#181818;stroke-width:1;"/><polygon fill="#181818" points="1289.26,198.75,1280.2763,202.7865,1285.9246,202.4749,1286.2362,208.1232,1289.26,198.75" style="stroke:#181818;stroke-width:1;"/><text fill="#000000" font-family="sans-serif" font-size="13" lengthAdjust="spacing" textLength="76.9082" x="1262.5" y="241.5669">implements</text></g><!--reverse link logic_arc_int__baselibs__task to comp_arc_sta__baselibs__concurrency--><g id="link_logic_arc_int__baselibs__task_comp_arc_sta__baselibs__concurrency"><path codeLine="47" d="M791.3579,199.8925 C884.0979,221.1825 1027.52,254.11 1120.33,275.41 " fill="transparent" id="logic_arc_int__baselibs__task-backto-comp_arc_sta__baselibs__concurrency" style="stroke:#181818;stroke-width:1;"/><polygon fill="#181818" points="785.51,198.55,793.3868,204.4623,790.3832,199.6687,795.1768,196.6651,785.51,198.55" style="stroke:#181818;stroke-width:1;"/><text fill="#000000" font-family="sans-serif" font-size="13" lengthAdjust="spacing" textLength="76.9082" x="984.5" y="241.5669">implements</text></g><!--link Feature_User to logic_arc_int__baselibs__utils_scoped_op--><g id="link_Feature_User_logic_arc_int__baselibs__utils_scoped_op"><path codeLine="48" d="M3080.63,63.56 C3140.51,88.84 3240.0826,130.8758 3299.9226,156.1458 " fill="transparent" id="Feature_User-to-logic_arc_int__baselibs__utils_scoped_op" style="stroke:#181818;stroke-width:1;"/><polygon fill="#181818" points="3305.45,158.48,3298.7151,151.2939,3300.8439,156.5349,3295.6029,158.6637,3305.45,158.48" style="stroke:#181818;stroke-width:1;"/><text fill="#000000" font-family="sans-serif" font-size="13" lengthAdjust="spacing" textLength="23.0103" x="3231.5" y="124.5669">use</text></g><!--link Feature_User to logic_arc_int__baselibs__memory_shared--><g id="link_Feature_User_logic_arc_int__baselibs__memory_shared"><path codeLine="49" d="M2990.22,63.56 C2930.15,88.84 2830.25,130.8821 2770.22,156.1521 " fill="transparent" id="Feature_User-to-logic_arc_int__baselibs__memory_shared" style="stroke:#181818;stroke-width:1;"/><polygon fill="#181818" points="2764.69,158.48,2774.5369,158.6748,2769.2983,156.5401,2771.4331,151.3015,2764.69,158.48" style="stroke:#181818;stroke-width:1;"/><text fill="#000000" font-family="sans-serif" font-size="13" lengthAdjust="spacing" textLength="23.0103" x="2869.5" y="124.5669">use</text></g><!--link Feature_User to logic_arc_int__baselibs__promise--><g id="link_Feature_User_logic_arc_int__baselibs__promise"><path codeLine="50" d="M2990.35,45.32 C2780.41,49.3 1878.69,68.2 1140.5,111.5 C885.42,126.46 821.62,131.78 567.5,158.5 C561.83,159.1 562.0122,159.0573 556.1622,159.7173 " fill="transparent" id="Feature_User-to-logic_arc_int__baselibs__promise" style="stroke:#181818;stroke-width:1;"/><polygon fill="#181818" points="550.2,160.39,559.5917,163.3558,555.1685,159.8295,558.6948,155.4062,550.2,160.39" style="stroke:#181818;stroke-width:1;"/><text fill="#000000" font-family="sans-serif" font-size="13" lengthAdjust="spacing" textLength="23.0103" x="1141.5" y="124.5669">use</text></g><!--link Feature_User to logic_arc_int__baselibs__shared_future--><g id="link_Feature_User_logic_arc_int__baselibs__shared_future"><path codeLine="51" d="M2990.43,47.13 C2803.82,58.18 2073.45,102.78 1474.5,158.5 C1468.95,159.02 1469.2603,158.964 1463.5503,159.534 " fill="transparent" id="Feature_User-to-logic_arc_int__baselibs__shared_future" style="stroke:#181818;stroke-width:1;"/><polygon fill="#181818" points="1457.58,160.13,1466.9328,163.2162,1462.5553,159.6333,1466.1382,155.2558,1457.58,160.13" style="stroke:#181818;stroke-width:1;"/><text fill="#000000" font-family="sans-serif" font-size="13" lengthAdjust="spacing" textLength="23.0103" x="2033.5" y="124.5669">use</text></g><!--reverse link logic_arc_int__baselibs__promise to comp_arc_sta__baselibs__concurrency--><g id="link_logic_arc_int__baselibs__promise_comp_arc_sta__baselibs__concurrency"><path codeLine="52" d="M541.0826,199.4706 C624.9326,213.0706 735.18,230.57 837.5,245.5 C909.03,255.93 988.54,266.68 1055.14,275.44 " fill="transparent" id="logic_arc_int__baselibs__promise-backto-comp_arc_sta__baselibs__concurrency" style="stroke:#181818;stroke-width:1;"/><polygon fill="#181818" points="535.16,198.51,543.4035,203.8993,540.0955,199.3105,544.6843,196.0025,535.16,198.51" style="stroke:#181818;stroke-width:1;"/><text fill="#000000" font-family="sans-serif" font-size="13" lengthAdjust="spacing" textLength="76.9082" x="838.5" y="241.5669">implements</text></g><!--SRC=[hLOxRzim4DxrAuZiJekYw504MGfqojZC14LTx6luK7Z7D6hH_rvATXhBJaAAq4ZvxZE_nvsaZF6_fCKdTDk6VI_OYzOpUoiw3A0PlMjss84WXW2UXnxsPx0z3q8n1smZ0pLNn8E1w-PI4PfM_6bkqC4tRtmG0Rhfz6E7-ju1aVXq-R7vsrnzEFGqIdEgk_WEYcC0SKiGBeGYSNWWnmUYqTxsKWKjYPMKhI8ms9AKDa6gBSXU4IKYOXCtryBuBUgf6Xs_K_rLeEqDM71CR__5J_8kWpkMpC5cjzzq-UP889ebRTtWb9r-2ceuzBz5GNl7AhaGA4Fa1BIIqPdCq-KM00IWQ3X3gaMMLZdier5ZM3FKJilBp4_AwHW2E3rayE49T4nHBiOjSoGTGoHy16cGk0py3WtGaCRMPi1V2jTMuowENfUXHaQJas6gcSvVFbVdyiMYfO7SXuVkfUyXg2g8EOFSk1RAd2ex7DCi7rL0rPf2oVS3bW5_di9AjSy7xbtIvIaWdLpeaXLbNAlsnCpgIW5UCsTfQcXmUXUymz-9yKE4M871YStohjF5ixJ_UGFKtBRi1M31-Z18sgdqbP5zyn_LhhtiPbTU5_er_olZUBpiLre_UpaNBVjbgbQJFTiKIsDu4fYbxNtm5gbcuEUIhcJK_-iSo_aF]--></g></svg>