<svg xmlns="http://www.w3.org/2000/svg" xmlns:xlink="http://www.w3.org/1999/xlink" contentStyleType="text/css" data-diagram-type="CLASS" height="322px" preserveAspectRatio="none" style="width:6209px;height:322px;background:#FFFFFF;" version="1.1" viewBox="0 0 6209 322" width="6209px" zoomAndPan="magnify"><defs/><g><!--entity Feature_User--><g id="elem_Feature_User"><ellipse cx="3114.6685" cy="14" fill="#F1F1F1" rx="8" ry="8" style="stroke:#181818;stroke-width:0.5;"/><path d="M3114.6685,22 L3114.6685,49 M3101.6685,30 L3127.6685,30 M3114.6685,49 L3101.6685,64 M3114.6685,49 L3127.6685,64 " fill="transparent" style="stroke:#181818;stroke-width:0.5;"/><text fill="#000000" font-family="sans-serif" font-size="14" lengthAdjust="spacing" textLength="90.3369" x="3069.5" y="78.4951">Feature User</text></g><!--class logic_arc_int__baselibs__task_result--><g id="elem_logic_arc_int__baselibs__task_result"><rect fill="#F1F1F1" height="40" id="logic_arc_int__baselibs__task_result" rx="2.5" ry="2.5" style="stroke:#181818;stroke-width:0.5;" width="280.9307" x="2373" y="158.5"/><ellipse cx="2388" cy="174.5" fill="#ADD1B2" rx="11" ry="11" style="stroke:#181818;stroke-width:1;"/><path d="M2390.9688,180.1406 Q2390.3906,180.4375 2389.75,180.5781 Q2389.1094,180.7344 2388.4063,180.7344 Q2385.9063,180.7344 2384.5781,179.0938 Q2383.2656,177.4375 2383.2656,174.3125 Q2383.2656,171.1875 2384.5781,169.5313 Q2385.9063,167.875 2388.4063,167.875 Q2389.1094,167.875 2389.75,168.0313 Q2390.4063,168.1875 2390.9688,168.4844 L2390.9688,171.2031 Q2390.3438,170.625 2389.75,170.3594 Q2389.1563,170.0781 2388.5313,170.0781 Q2387.1875,170.0781 2386.5,171.1563 Q2385.8125,172.2188 2385.8125,174.3125 Q2385.8125,176.4063 2386.5,177.4844 Q2387.1875,178.5469 2388.5313,178.5469 Q2389.1563,178.5469 2389.75,178.2813 Q2390.3438,178 2390.9688,177.4219 L2390.9688,180.1406 Z " fill="#000000"/><text fill="#000000" font-family="sans-serif" font-size="14" lengthAdjust="spacing" textLength="248.9307" x="2402" y="179.3467">logic_arc_int__baselibs__task_result</text><line style="stroke:#181818;stroke-width:0.5;" x1="2374" x2="2652.9307" y1="190.5" y2="190.5"/></g><!--class logic_arc_int__baselibs__bit_mask_operator--><g id="elem_logic_arc_int__baselibs__bit_mask_operator"><rect fill="#F1F1F1" height="40" id="logic_arc_int__baselibs__bit_mask_operator" rx="2.5" ry="2.5" style="stroke:#181818;stroke-width:0.5;" width="334.6406" x="974" y="158.5"/><ellipse cx="989" cy="174.5" fill="#ADD1B2" rx="11" ry="11" style="stroke:#181818;stroke-width:1;"/><path d="M991.9688,180.1406 Q991.3906,180.4375 990.75,180.5781 Q990.1094,180.7344 989.4063,180.7344 Q986.9063,180.7344 985.5781,179.0938 Q984.2656,177.4375 984.2656,174.3125 Q984.2656,171.1875 985.5781,169.5313 Q986.9063,167.875 989.4063,167.875 Q990.1094,167.875 990.75,168.0313 Q991.4063,168.1875 991.9688,168.4844 L991.9688,171.2031 Q991.3438,170.625 990.75,170.3594 Q990.1563,170.0781 989.5313,170.0781 Q988.1875,170.0781 987.5,171.1563 Q986.8125,172.2188 986.8125,174.3125 Q986.8125,176.4063 987.5,177.4844 Q988.1875,178.5469 989.5313,178.5469 Q990.1563,178.5469 990.75,178.2813 Q991.3438,178 991.9688,177.4219 L991.9688,180.1406 Z " fill="#000000"/><text fill="#000000" font-family="sans-serif" font-size="14" lengthAdjust="spacing" textLength="302.6406" x="1003" y="179.3467">logic_arc_int__baselibs__bit_mask_operator</text><line style="stroke:#181818;stroke-width:0.5;" x1="975" x2="1307.6406" y1="190.5" y2="190.5"/></g><!--class comp_arc_sta__baselibs__concurrency--><g id="elem_comp_arc_sta__baselibs__concurrency"><rect fill="#F1F1F1" height="40" id="comp_arc_sta__baselibs__concurrency" rx="2.5" ry="2.5" style="stroke:#181818;stroke-width:0.5;" width="300.2012" x="3341.5" y="275.5"/><ellipse cx="3356.5" cy="291.5" fill="#ADD1B2" rx="11" ry="11" style="stroke:#181818;stroke-width:1;"/><path d="M3359.4688,297.1406 Q3358.8906,297.4375 3358.25,297.5781 Q3357.6094,297.7344 3356.9063,297.7344 Q3354.4063,297.7344 3353.0781,296.0938 Q3351.7656,294.4375 3351.7656,291.3125 Q3351.7656,288.1875 3353.0781,286.5313 Q3354.4063,284.875 3356.9063,284.875 Q3357.6094,284.875 3358.25,285.0313 Q3358.9063,285.1875 3359.4688,285.4844 L3359.4688,288.2031 Q3358.8438,287.625 3358.25,287.3594 Q3357.6563,287.0781 3357.0313,287.0781 Q3355.6875,287.0781 3355,288.1563 Q3354.3125,289.2188 3354.3125,291.3125 Q3354.3125,293.4063 3355,294.4844 Q3355.6875,295.5469 3357.0313,295.5469 Q3357.6563,295.5469 3358.25,295.2813 Q3358.8438,295 3359.4688,294.4219 L3359.4688,297.1406 Z " fill="#000000"/><text fill="#000000" font-family="sans-serif" font-size="14" lengthAdjust="spacing" textLength="268.2012" x="3370.5" y="296.3467">comp_arc_sta__baselibs__concurrency</text><line style="stroke:#181818;stroke-width:0.5;" x1="3342.5" x2="3640.7012" y1="307.5" y2="307.5"/></g><!--class comp_arc_sta__baselibs__json--><g id="elem_comp_arc_sta__baselibs__json"><rect fill="#F1F1F1" height="40" id="comp_arc_sta__baselibs__json" rx="2.5" ry="2.5" style="stroke:#181818;stroke-width:0.5;" width="242.1367" x="5960.5" y="275.5"/><ellipse cx="5975.5" cy="291.5" fill="#ADD1B2" rx="11" ry="11" style="stroke:#181818;stroke-width:1;"/><path d="M5978.4688,297.1406 Q5977.8906,297.4375 5977.25,297.5781 Q5976.6094,297.7344 5975.9063,297.7344 Q5973.4063,297.7344 5972.0781,296.0938 Q5970.7656,294.4375 5970.7656,291.3125 Q5970.7656,288.1875 5972.0781,286.5313 Q5973.4063,284.875 5975.9063,284.875 Q5976.6094,284.875 5977.25,285.0313 Q5977.9063,285.1875 5978.4688,285.4844 L5978.4688,288.2031 Q5977.8438,287.625 5977.25,287.3594 Q5976.6563,287.0781 5976.0313,287.0781 Q5974.6875,287.0781 5974,288.1563 Q5973.3125,289.2188 5973.3125,291.3125 Q5973.3125,293.4063 5974,294.4844 Q5974.6875,295.5469 5976.0313,295.5469 Q5976.6563,295.5469 5977.25,295.2813 Q5977.8438,295 5978.4688,294.4219 L5978.4688,297.1406 Z " fill="#000000"/><text fill="#000000" font-family="sans-serif" font-size="14" lengthAdjust="spacing" textLength="210.1367" x="5989.5" y="296.3467">comp_arc_sta__baselibs__json</text><line style="stroke:#181818;stroke-width:0.5;" x1="5961.5" x2="6201.6367" y1="307.5" y2="307.5"/></g><!--class logic_arc_int__baselibs__json--><g id="elem_logic_arc_int__baselibs__json"><rect fill="#F1F1F1" height="40" id="logic_arc_int__baselibs__json" rx="2.5" ry="2.5" style="stroke:#181818;stroke-width:0.5;" width="233.168" x="5963" y="158.5"/><ellipse cx="5978" cy="174.5" fill="#ADD1B2" rx="11" ry="11" style="stroke:#181818;stroke-width:1;"/><path d="M5980.9688,180.1406 Q5980.3906,180.4375 5979.75,180.5781 Q5979.1094,180.7344 5978.4063,180.7344 Q5975.9063,180.7344 5974.5781,179.0938 Q5973.2656,177.4375 5973.2656,174.3125 Q5973.2656,171.1875 5974.5781,169.5313 Q5975.9063,167.875 5978.4063,167.875 Q5979.1094,167.875 5979.75,168.0313 Q5980.4063,168.1875 5980.9688,168.4844 L5980.9688,171.2031 Q5980.3438,170.625 5979.75,170.3594 Q5979.1563,170.0781 5978.5313,170.0781 Q5977.1875,170.0781 5976.5,171.1563 Q5975.8125,172.2188 5975.8125,174.3125 Q5975.8125,176.4063 5976.5,177.4844 Q5977.1875,178.5469 5978.5313,178.5469 Q5979.1563,178.5469 5979.75,178.2813 Q5980.3438,178 5980.9688,177.4219 L5980.9688,180.1406 Z " fill="#000000"/><text fill="#000000" font-family="sans-serif" font-size="14" lengthAdjust="spacing" textLength="201.168" x="5992" y="179.3467">logic_arc_int__baselibs__json</text><line style="stroke:#181818;stroke-width:0.5;" x1="5964" x2="6195.168" y1="190.5" y2="190.5"/></g><!--class logic_arc_int__baselibs__synchronized_queue--><g id="elem_logic_arc_int__baselibs__synchronized_queue"><rect fill="#F1F1F1" height="40" id="logic_arc_int__baselibs__synchronized_queue" rx="2.5" ry="2.5" style="stroke:#181818;stroke-width:0.5;" width="348.3604" x="4545.5" y="158.5"/><ellipse cx="4560.5" cy="174.5" fill="#ADD1B2" rx="11" ry="11" style="stroke:#181818;stroke-width:1;"/><path d="M4563.4688,180.1406 Q4562.8906,180.4375 4562.25,180.5781 Q4561.6094,180.7344 4560.9063,180.7344 Q4558.4063,180.7344 4557.0781,179.0938 Q4555.7656,177.4375 4555.7656,174.3125 Q4555.7656,171.1875 4557.0781,169.5313 Q4558.4063,167.875 4560.9063,167.875 Q4561.6094,167.875 4562.25,168.0313 Q4562.9063,168.1875 4563.4688,168.4844 L4563.4688,171.2031 Q4562.8438,170.625 4562.25,170.3594 Q4561.6563,170.0781 4561.0313,170.0781 Q4559.6875,170.0781 4559,171.1563 Q4558.3125,172.2188 4558.3125,174.3125 Q4558.3125,176.4063 4559,177.4844 Q4559.6875,178.5469 4561.0313,178.5469 Q4561.6563,178.5469 4562.25,178.2813 Q4562.8438,178 4563.4688,177.4219 L4563.4688,180.1406 Z " fill="#000000"/><text fill="#000000" font-family="sans-serif" font-size="14" lengthAdjust="spacing" textLength="316.3604" x="4574.5" y="179.3467">logic_arc_int__baselibs__synchronized_queue</text><line style="stroke:#181818;stroke-width:0.5;" x1="4546.5" x2="4892.8604" y1="190.5" y2="190.5"/></g><!--class logic_arc_int__baselibs__message_passing--><g id="elem_logic_arc_int__baselibs__message_passing"><rect fill="#F1F1F1" height="40" id="logic_arc_int__baselibs__message_passing" rx="2.5" ry="2.5" style="stroke:#181818;stroke-width:0.5;" width="328.167" x="331.5" y="158.5"/><ellipse cx="346.5" cy="174.5" fill="#ADD1B2" rx="11" ry="11" style="stroke:#181818;stroke-width:1;"/><path d="M349.4688,180.1406 Q348.8906,180.4375 348.25,180.5781 Q347.6094,180.7344 346.9063,180.7344 Q344.4063,180.7344 343.0781,179.0938 Q341.7656,177.4375 341.7656,174.3125 Q341.7656,171.1875 343.0781,169.5313 Q344.4063,167.875 346.9063,167.875 Q347.6094,167.875 348.25,168.0313 Q348.9063,168.1875 349.4688,168.4844 L349.4688,171.2031 Q348.8438,170.625 348.25,170.3594 Q347.6563,170.0781 347.0313,170.0781 Q345.6875,170.0781 345,171.1563 Q344.3125,172.2188 344.3125,174.3125 Q344.3125,176.4063 345,177.4844 Q345.6875,178.5469 347.0313,178.5469 Q347.6563,178.5469 348.25,178.2813 Q348.8438,178 349.4688,177.4219 L349.4688,180.1406 Z " fill="#000000"/><text fill="#000000" font-family="sans-serif" font-size="14" lengthAdjust="spacing" textLength="296.167" x="360.5" y="179.3467">logic_arc_int__baselibs__message_passing</text><line style="stroke:#181818;stroke-width:0.5;" x1="332.5" x2="658.667" y1="190.5" y2="190.5"/></g><!--class logic_arc_int__baselibs__condition_variable--><g id="elem_logic_arc_int__baselibs__condition_variable"><rect fill="#F1F1F1" height="40" id="logic_arc_int__baselibs__condition_variable" rx="2.5" ry="2.5" style="stroke:#181818;stroke-width:0.5;" width="332.7539" x="4177" y="158.5"/><ellipse cx="4192" cy="174.5" fill="#ADD1B2" rx="11" ry="11" style="stroke:#181818;stroke-width:1;"/><path d="M4194.9688,180.1406 Q4194.3906,180.4375 4193.75,180.5781 Q4193.1094,180.7344 4192.4063,180.7344 Q4189.9063,180.7344 4188.5781,179.0938 Q4187.2656,177.4375 4187.2656,174.3125 Q4187.2656,171.1875 4188.5781,169.5313 Q4189.9063,167.875 4192.4063,167.875 Q4193.1094,167.875 4193.75,168.0313 Q4194.4063,168.1875 4194.9688,168.4844 L4194.9688,171.2031 Q4194.3438,170.625 4193.75,170.3594 Q4193.1563,170.0781 4192.5313,170.0781 Q4191.1875,170.0781 4190.5,171.1563 Q4189.8125,172.2188 4189.8125,174.3125 Q4189.8125,176.4063 4190.5,177.4844 Q4191.1875,178.5469 4192.5313,178.5469 Q4193.1563,178.5469 4193.75,178.2813 Q4194.3438,178 4194.9688,177.4219 L4194.9688,180.1406 Z " fill="#000000"/><text fill="#000000" font-family="sans-serif" font-size="14" lengthAdjust="spacing" textLength="300.7539" x="4206" y="179.3467">logic_arc_int__baselibs__condition_variable</text><line style="stroke:#181818;stroke-width:0.5;" x1="4178" x2="4508.7539" y1="190.5" y2="190.5"/></g><!--class comp_arc_sta__baselibs__utils--><g id="elem_comp_arc_sta__baselibs__utils"><rect fill="#F1F1F1" height="40" id="comp_arc_sta__baselibs__utils" rx="2.5" ry="2.5" style="stroke:#181818;stroke-width:0.5;" width="242.9502" x="5107" y="275.5"/><ellipse cx="5122" cy="291.5" fill="#ADD1B2" rx="11" ry="11" style="stroke:#181818;stroke-width:1;"/><path d="M5124.9688,297.1406 Q5124.3906,297.4375 5123.75,297.5781 Q5123.1094,297.7344 5122.4063,297.7344 Q5119.9063,297.7344 5118.5781,296.0938 Q5117.2656,294.4375 5117.2656,291.3125 Q5117.2656,288.1875 5118.5781,286.5313 Q5119.9063,284.875 5122.4063,284.875 Q5123.1094,284.875 5123.75,285.0313 Q5124.4063,285.1875 5124.9688,285.4844 L5124.9688,288.2031 Q5124.3438,287.625 5123.75,287.3594 Q5123.1563,287.0781 5122.5313,287.0781 Q5121.1875,287.0781 5120.5,288.1563 Q5119.8125,289.2188 5119.8125,291.3125 Q5119.8125,293.4063 5120.5,294.4844 Q5121.1875,295.5469 5122.5313,295.5469 Q5123.1563,295.5469 5123.75,295.2813 Q5124.3438,295 5124.9688,294.4219 L5124.9688,297.1406 Z " fill="#000000"/><text fill="#000000" font-family="sans-serif" font-size="14" lengthAdjust="spacing" textLength="210.9502" x="5136" y="296.3467">comp_arc_sta__baselibs__utils</text><line style="stroke:#181818;stroke-width:0.5;" x1="5108" x2="5348.9502" y1="307.5" y2="307.5"/></g><!--class logic_arc_int__baselibs__utils_base64--><g id="elem_logic_arc_int__baselibs__utils_base64"><rect fill="#F1F1F1" height="40" id="logic_arc_int__baselibs__utils_base64" rx="2.5" ry="2.5" style="stroke:#181818;stroke-width:0.5;" width="292.1689" x="5279.5" y="158.5"/><ellipse cx="5294.5" cy="174.5" fill="#ADD1B2" rx="11" ry="11" style="stroke:#181818;stroke-width:1;"/><path d="M5297.4688,180.1406 Q5296.8906,180.4375 5296.25,180.5781 Q5295.6094,180.7344 5294.9063,180.7344 Q5292.4063,180.7344 5291.0781,179.0938 Q5289.7656,177.4375 5289.7656,174.3125 Q5289.7656,171.1875 5291.0781,169.5313 Q5292.4063,167.875 5294.9063,167.875 Q5295.6094,167.875 5296.25,168.0313 Q5296.9063,168.1875 5297.4688,168.4844 L5297.4688,171.2031 Q5296.8438,170.625 5296.25,170.3594 Q5295.6563,170.0781 5295.0313,170.0781 Q5293.6875,170.0781 5293,171.1563 Q5292.3125,172.2188 5292.3125,174.3125 Q5292.3125,176.4063 5293,177.4844 Q5293.6875,178.5469 5295.0313,178.5469 Q5295.6563,178.5469 5296.25,178.2813 Q5296.8438,178 5297.4688,177.4219 L5297.4688,180.1406 Z " fill="#000000"/><text fill="#000000" font-family="sans-serif" font-size="14" lengthAdjust="spacing" textLength="260.1689" x="5308.5" y="179.3467">logic_arc_int__baselibs__utils_base64</text><line style="stroke:#181818;stroke-width:0.5;" x1="5280.5" x2="5570.6689" y1="190.5" y2="190.5"/></g><!--class comp_arc_sta__baselibs__memory_shared--><g id="elem_comp_arc_sta__baselibs__memory_shared"><rect fill="#F1F1F1" height="40" id="comp_arc_sta__baselibs__memory_shared" rx="2.5" ry="2.5" style="stroke:#181818;stroke-width:0.5;" width="327.0117" x="5599" y="275.5"/><ellipse cx="5614" cy="291.5" fill="#ADD1B2" rx="11" ry="11" style="stroke:#181818;stroke-width:1;"/><path d="M5616.9688,297.1406 Q5616.3906,297.4375 5615.75,297.5781 Q5615.1094,297.7344 5614.4063,297.7344 Q5611.9063,297.7344 5610.5781,296.0938 Q5609.2656,294.4375 5609.2656,291.3125 Q5609.2656,288.1875 5610.5781,286.5313 Q5611.9063,284.875 5614.4063,284.875 Q5615.1094,284.875 5615.75,285.0313 Q5616.4063,285.1875 5616.9688,285.4844 L5616.9688,288.2031 Q5616.3438,287.625 5615.75,287.3594 Q5615.1563,287.0781 5614.5313,287.0781 Q5613.1875,287.0781 5612.5,288.1563 Q5611.8125,289.2188 5611.8125,291.3125 Q5611.8125,293.4063 5612.5,294.4844 Q5613.1875,295.5469 5614.5313,295.5469 Q5615.1563,295.5469 5615.75,295.2813 Q5616.3438,295 5616.9688,294.4219 L5616.9688,297.1406 Z " fill="#000000"/><text fill="#000000" font-family="sans-serif" font-size="14" lengthAdjust="spacing" textLength="295.0117" x="5628" y="296.3467">comp_arc_sta__baselibs__memory_shared</text><line style="stroke:#181818;stroke-width:0.5;" x1="5600" x2="5925.0117" y1="307.5" y2="307.5"/></g><!--class logic_arc_int__baselibs__memory_shared--><g id="elem_logic_arc_int__baselibs__memory_shared"><rect fill="#F1F1F1" height="40" id="logic_arc_int__baselibs__memory_shared" rx="2.5" ry="2.5" style="stroke:#181818;stroke-width:0.5;" width="318.043" x="5606.5" y="158.5"/><ellipse cx="5621.5" cy="174.5" fill="#ADD1B2" rx="11" ry="11" style="stroke:#181818;stroke-width:1;"/><path d="M5624.4688,180.1406 Q5623.8906,180.4375 5623.25,180.5781 Q5622.6094,180.7344 5621.9063,180.7344 Q5619.4063,180.7344 5618.0781,179.0938 Q5616.7656,177.4375 5616.7656,174.3125 Q5616.7656,171.1875 5618.0781,169.5313 Q5619.4063,167.875 5621.9063,167.875 Q5622.6094,167.875 5623.25,168.0313 Q5623.9063,168.1875 5624.4688,168.4844 L5624.4688,171.2031 Q5623.8438,170.625 5623.25,170.3594 Q5622.6563,170.0781 5622.0313,170.0781 Q5620.6875,170.0781 5620,171.1563 Q5619.3125,172.2188 5619.3125,174.3125 Q5619.3125,176.4063 5620,177.4844 Q5620.6875,178.5469 5622.0313,178.5469 Q5622.6563,178.5469 5623.25,178.2813 Q5623.8438,178 5624.4688,177.4219 L5624.4688,180.1406 Z " fill="#000000"/><text fill="#000000" font-family="sans-serif" font-size="14" lengthAdjust="spacing" textLength="286.043" x="5635.5" y="179.3467">logic_arc_int__baselibs__memory_shared</text><line style="stroke:#181818;stroke-width:0.5;" x1="5607.5" x2="5923.543" y1="190.5" y2="190.5"/></g><!--class logic_arc_int__baselibs__task--><g id="elem_logic_arc_int__baselibs__task"><rect fill="#F1F1F1" height="40" id="logic_arc_int__baselibs__task" rx="2.5" ry="2.5" style="stroke:#181818;stroke-width:0.5;" width="234.0156" x="3273.5" y="158.5"/><ellipse cx="3288.5" cy="174.5" fill="#ADD1B2" rx="11" ry="11" style="stroke:#181818;stroke-width:1;"/><path d="M3291.4688,180.1406 Q3290.8906,180.4375 3290.25,180.5781 Q3289.6094,180.7344 3288.9063,180.7344 Q3286.4063,180.7344 3285.0781,179.0938 Q3283.7656,177.4375 3283.7656,174.3125 Q3283.7656,171.1875 3285.0781,169.5313 Q3286.4063,167.875 3288.9063,167.875 Q3289.6094,167.875 3290.25,168.0313 Q3290.9063,168.1875 3291.4688,168.4844 L3291.4688,171.2031 Q3290.8438,170.625 3290.25,170.3594 Q3289.6563,170.0781 3289.0313,170.0781 Q3287.6875,170.0781 3287,171.1563 Q3286.3125,172.2188 3286.3125,174.3125 Q3286.3125,176.4063 3287,177.4844 Q3287.6875,178.5469 3289.0313,178.5469 Q3289.6563,178.5469 3290.25,178.2813 Q3290.8438,178 3291.4688,177.4219 L3291.4688,180.1406 Z " fill="#000000"/><text fill="#000000" font-family="sans-serif" font-size="14" lengthAdjust="spacing" textLength="202.0156" x="3302.5" y="179.3467">logic_arc_int__baselibs__task</text><line style="stroke:#181818;stroke-width:0.5;" x1="3274.5" x2="3506.5156" y1="190.5" y2="190.5"/></g><!--class logic_arc_int__baselibs__result--><g id="elem_logic_arc_int__baselibs__result"><rect fill="#F1F1F1" height="40" id="logic_arc_int__baselibs__result" rx="2.5" ry="2.5" style="stroke:#181818;stroke-width:0.5;" width="244.4609" x="694.5" y="158.5"/><ellipse cx="709.5" cy="174.5" fill="#ADD1B2" rx="11" ry="11" style="stroke:#181818;stroke-width:1;"/><path d="M712.4688,180.1406 Q711.8906,180.4375 711.25,180.5781 Q710.6094,180.7344 709.9063,180.7344 Q707.4063,180.7344 706.0781,179.0938 Q704.7656,177.4375 704.7656,174.3125 Q704.7656,171.1875 706.0781,169.5313 Q707.4063,167.875 709.9063,167.875 Q710.6094,167.875 711.25,168.0313 Q711.9063,168.1875 712.4688,168.4844 L712.4688,171.2031 Q711.8438,170.625 711.25,170.3594 Q710.6563,170.0781 710.0313,170.0781 Q708.6875,170.0781 708,171.1563 Q707.3125,172.2188 707.3125,174.3125 Q707.3125,176.4063 708,177.4844 Q708.6875,178.5469 710.0313,178.5469 Q710.6563,178.5469 711.25,178.2813 Q711.8438,178 712.4688,177.4219 L712.4688,180.1406 Z " fill="#000000"/><text fill="#000000" font-family="sans-serif" font-size="14" lengthAdjust="spacing" textLength="212.4609" x="723.5" y="179.3467">logic_arc_int__baselibs__result</text><line style="stroke:#181818;stroke-width:0.5;" x1="695.5" x2="937.9609" y1="190.5" y2="190.5"/></g><!--class logic_arc_int__baselibs__shared_future--><g id="elem_logic_arc_int__baselibs__shared_future"><rect fill="#F1F1F1" height="40" id="logic_arc_int__baselibs__shared_future" rx="2.5" ry="2.5" style="stroke:#181818;stroke-width:0.5;" width="302.0811" x="3839.5" y="158.5"/><ellipse cx="3854.5" cy="174.5" fill="#ADD1B2" rx="11" ry="11" style="stroke:#181818;stroke-width:1;"/><path d="M3857.4688,180.1406 Q3856.8906,180.4375 3856.25,180.5781 Q3855.6094,180.7344 3854.9063,180.7344 Q3852.4063,180.7344 3851.0781,179.0938 Q3849.7656,177.4375 3849.7656,174.3125 Q3849.7656,171.1875 3851.0781,169.5313 Q3852.4063,167.875 3854.9063,167.875 Q3855.6094,167.875 3856.25,168.0313 Q3856.9063,168.1875 3857.4688,168.4844 L3857.4688,171.2031 Q3856.8438,170.625 3856.25,170.3594 Q3855.6563,170.0781 3855.0313,170.0781 Q3853.6875,170.0781 3853,171.1563 Q3852.3125,172.2188 3852.3125,174.3125 Q3852.3125,176.4063 3853,177.4844 Q3853.6875,178.5469 3855.0313,178.5469 Q3855.6563,178.5469 3856.25,178.2813 Q3856.8438,178 3857.4688,177.4219 L3857.4688,180.1406 Z " fill="#000000"/><text fill="#000000" font-family="sans-serif" font-size="14" lengthAdjust="spacing" textLength="270.0811" x="3868.5" y="179.3467">logic_arc_int__baselibs__shared_future</text><line style="stroke:#181818;stroke-width:0.5;" x1="3840.5" x2="4140.5811" y1="190.5" y2="190.5"/></g><!--class logic_arc_int__baselibs__utils_scoped_op--><g id="elem_logic_arc_int__baselibs__utils_scoped_op"><rect fill="#F1F1F1" height="40" id="logic_arc_int__baselibs__utils_scoped_op" rx="2.5" ry="2.5" style="stroke:#181818;stroke-width:0.5;" width="315.377" x="4929" y="158.5"/><ellipse cx="4944" cy="174.5" fill="#ADD1B2" rx="11" ry="11" style="stroke:#181818;stroke-width:1;"/><path d="M4946.9688,180.1406 Q4946.3906,180.4375 4945.75,180.5781 Q4945.1094,180.7344 4944.4063,180.7344 Q4941.9063,180.7344 4940.5781,179.0938 Q4939.2656,177.4375 4939.2656,174.3125 Q4939.2656,171.1875 4940.5781,169.5313 Q4941.9063,167.875 4944.4063,167.875 Q4945.1094,167.875 4945.75,168.0313 Q4946.4063,168.1875 4946.9688,168.4844 L4946.9688,171.2031 Q4946.3438,170.625 4945.75,170.3594 Q4945.1563,170.0781 4944.5313,170.0781 Q4943.1875,170.0781 4942.5,171.1563 Q4941.8125,172.2188 4941.8125,174.3125 Q4941.8125,176.4063 4942.5,177.4844 Q4943.1875,178.5469 4944.5313,178.5469 Q4945.1563,178.5469 4945.75,178.2813 Q4946.3438,178 4946.9688,177.4219 L4946.9688,180.1406 Z " fill="#000000"/><text fill="#000000" font-family="sans-serif" font-size="14" lengthAdjust="spacing" textLength="283.377" x="4958" y="179.3467">logic_arc_int__baselibs__utils_scoped_op</text><line style="stroke:#181818;stroke-width:0.5;" x1="4930" x2="5243.377" y1="190.5" y2="190.5"/></g><!--class logic_arc_int__baselibs__future--><g id="elem_logic_arc_int__baselibs__future"><rect fill="#F1F1F1" height="40" id="logic_arc_int__baselibs__future" rx="2.5" ry="2.5" style="stroke:#181818;stroke-width:0.5;" width="247.0791" x="2991" y="158.5"/><ellipse cx="3006" cy="174.5" fill="#ADD1B2" rx="11" ry="11" style="stroke:#181818;stroke-width:1;"/><path d="M3008.9688,180.1406 Q3008.3906,180.4375 3007.75,180.5781 Q3007.1094,180.7344 3006.4063,180.7344 Q3003.9063,180.7344 3002.5781,179.0938 Q3001.2656,177.4375 3001.2656,174.3125 Q3001.2656,171.1875 3002.5781,169.5313 Q3003.9063,167.875 3006.4063,167.875 Q3007.1094,167.875 3007.75,168.0313 Q3008.4063,168.1875 3008.9688,168.4844 L3008.9688,171.2031 Q3008.3438,170.625 3007.75,170.3594 Q3007.1563,170.0781 3006.5313,170.0781 Q3005.1875,170.0781 3004.5,171.1563 Q3003.8125,172.2188 3003.8125,174.3125 Q3003.8125,176.4063 3004.5,177.4844 Q3005.1875,178.5469 3006.5313,178.5469 Q3007.1563,178.5469 3007.75,178.2813 Q3008.3438,178 3008.9688,177.4219 L3008.9688,180.1406 Z " fill="#000000"/><text fill="#000000" font-family="sans-serif" font-size="14" lengthAdjust="spacing" textLength="215.0791" x="3020" y="179.3467">logic_arc_int__baselibs__future</text><line style="stroke:#181818;stroke-width:0.5;" x1="2992" x2="3237.0791" y1="190.5" y2="190.5"/></g><!--class comp_arc_sta__baselibs__containers--><g id="elem_comp_arc_sta__baselibs__containers"><rect fill="#F1F1F1" height="40" id="comp_arc_sta__baselibs__containers" rx="2.5" ry="2.5" style="stroke:#181818;stroke-width:0.5;" width="287.1445" x="1853" y="275.5"/><ellipse cx="1868" cy="291.5" fill="#ADD1B2" rx="11" ry="11" style="stroke:#181818;stroke-width:1;"/><path d="M1870.9688,297.1406 Q1870.3906,297.4375 1869.75,297.5781 Q1869.1094,297.7344 1868.4063,297.7344 Q1865.9063,297.7344 1864.5781,296.0938 Q1863.2656,294.4375 1863.2656,291.3125 Q1863.2656,288.1875 1864.5781,286.5313 Q1865.9063,284.875 1868.4063,284.875 Q1869.1094,284.875 1869.75,285.0313 Q1870.4063,285.1875 1870.9688,285.4844 L1870.9688,288.2031 Q1870.3438,287.625 1869.75,287.3594 Q1869.1563,287.0781 1868.5313,287.0781 Q1867.1875,287.0781 1866.5,288.1563 Q1865.8125,289.2188 1865.8125,291.3125 Q1865.8125,293.4063 1866.5,294.4844 Q1867.1875,295.5469 1868.5313,295.5469 Q1869.1563,295.5469 1869.75,295.2813 Q1870.3438,295 1870.9688,294.4219 L1870.9688,297.1406 Z " fill="#000000"/><text fill="#000000" font-family="sans-serif" font-size="14" lengthAdjust="spacing" textLength="255.1445" x="1882" y="296.3467">comp_arc_sta__baselibs__containers</text><line style="stroke:#181818;stroke-width:0.5;" x1="1854" x2="2139.1445" y1="307.5" y2="307.5"/></g><!--class logic_arc_int__baselibs__intrusive_list--><g id="elem_logic_arc_int__baselibs__intrusive_list"><rect fill="#F1F1F1" height="40" id="logic_arc_int__baselibs__intrusive_list" rx="2.5" ry="2.5" style="stroke:#181818;stroke-width:0.5;" width="293.0713" x="2045" y="158.5"/><ellipse cx="2060" cy="174.5" fill="#ADD1B2" rx="11" ry="11" style="stroke:#181818;stroke-width:1;"/><path d="M2062.9688,180.1406 Q2062.3906,180.4375 2061.75,180.5781 Q2061.1094,180.7344 2060.4063,180.7344 Q2057.9063,180.7344 2056.5781,179.0938 Q2055.2656,177.4375 2055.2656,174.3125 Q2055.2656,171.1875 2056.5781,169.5313 Q2057.9063,167.875 2060.4063,167.875 Q2061.1094,167.875 2061.75,168.0313 Q2062.4063,168.1875 2062.9688,168.4844 L2062.9688,171.2031 Q2062.3438,170.625 2061.75,170.3594 Q2061.1563,170.0781 2060.5313,170.0781 Q2059.1875,170.0781 2058.5,171.1563 Q2057.8125,172.2188 2057.8125,174.3125 Q2057.8125,176.4063 2058.5,177.4844 Q2059.1875,178.5469 2060.5313,178.5469 Q2061.1563,178.5469 2061.75,178.2813 Q2062.3438,178 2062.9688,177.4219 L2062.9688,180.1406 Z " fill="#000000"/><text fill="#000000" font-family="sans-serif" font-size="14" lengthAdjust="spacing" textLength="261.0713" x="2074" y="179.3467">logic_arc_int__baselibs__intrusive_list</text><line style="stroke:#181818;stroke-width:0.5;" x1="2046" x2="2337.0713" y1="190.5" y2="190.5"/></g><!--class comp_arc_sta__baselibs__bit_manipulation--><g id="elem_comp_arc_sta__baselibs__bit_manipulation"><rect fill="#F1F1F1" height="40" id="comp_arc_sta__baselibs__bit_manipulation" rx="2.5" ry="2.5" style="stroke:#181818;stroke-width:0.5;" width="330.8057" x="1076" y="275.5"/><ellipse cx="1091" cy="291.5" fill="#ADD1B2" rx="11" ry="11" style="stroke:#181818;stroke-width:1;"/><path d="M1093.9688,297.1406 Q1093.3906,297.4375 1092.75,297.5781 Q1092.1094,297.7344 1091.4063,297.7344 Q1088.9063,297.7344 1087.5781,296.0938 Q1086.2656,294.4375 1086.2656,291.3125 Q1086.2656,288.1875 1087.5781,286.5313 Q1088.9063,284.875 1091.4063,284.875 Q1092.1094,284.875 1092.75,285.0313 Q1093.4063,285.1875 1093.9688,285.4844 L1093.9688,288.2031 Q1093.3438,287.625 1092.75,287.3594 Q1092.1563,287.0781 1091.5313,287.0781 Q1090.1875,287.0781 1089.5,288.1563 Q1088.8125,289.2188 1088.8125,291.3125 Q1088.8125,293.4063 1089.5,294.4844 Q1090.1875,295.5469 1091.5313,295.5469 Q1092.1563,295.5469 1092.75,295.2813 Q1093.3438,295 1093.9688,294.4219 L1093.9688,297.1406 Z " fill="#000000"/><text fill="#000000" font-family="sans-serif" font-size="14" lengthAdjust="spacing" textLength="298.8057" x="1105" y="296.3467">comp_arc_sta__baselibs__bit_manipulation</text><line style="stroke:#181818;stroke-width:0.5;" x1="1077" x2="1405.8057" y1="307.5" y2="307.5"/></g><!--class logic_arc_int__baselibs__promise--><g id="elem_logic_arc_int__baselibs__promise"><rect fill="#F1F1F1" height="40" id="logic_arc_int__baselibs__promise" rx="2.5" ry="2.5" style="stroke:#181818;stroke-width:0.5;" width="261.1885" x="3543" y="158.5"/><ellipse cx="3558" cy="174.5" fill="#ADD1B2" rx="11" ry="11" style="stroke:#181818;stroke-width:1;"/><path d="M3560.9688,180.1406 Q3560.3906,180.4375 3559.75,180.5781 Q3559.1094,180.7344 3558.4063,180.7344 Q3555.9063,180.7344 3554.5781,179.0938 Q3553.2656,177.4375 3553.2656,174.3125 Q3553.2656,171.1875 3554.5781,169.5313 Q3555.9063,167.875 3558.4063,167.875 Q3559.1094,167.875 3559.75,168.0313 Q3560.4063,168.1875 3560.9688,168.4844 L3560.9688,171.2031 Q3560.3438,170.625 3559.75,170.3594 Q3559.1563,170.0781 3558.5313,170.0781 Q3557.1875,170.0781 3556.5,171.1563 Q3555.8125,172.2188 3555.8125,174.3125 Q3555.8125,176.4063 3556.5,177.4844 Q3557.1875,178.5469 3558.5313,178.5469 Q3559.1563,178.5469 3559.75,178.2813 Q3560.3438,178 3560.9688,177.4219 L3560.9688,180.1406 Z " fill="#000000"/><text fill="#000000" font-family="sans-serif" font-size="14" lengthAdjust="spacing" textLength="229.1885" x="3572" y="179.3467">logic_arc_int__baselibs__promise</text><line style="stroke:#181818;stroke-width:0.5;" x1="3544" x2="3803.1885" y1="190.5" y2="190.5"/></g><!--class logic_arc_int__baselibs__dynamic_array--><g id="elem_logic_arc_int__baselibs__dynamic_array"><rect fill="#F1F1F1" height="40" id="logic_arc_int__baselibs__dynamic_array" rx="2.5" ry="2.5" style="stroke:#181818;stroke-width:0.5;" width="308.3496" x="1701.5" y="158.5"/><ellipse cx="1716.5" cy="174.5" fill="#ADD1B2" rx="11" ry="11" style="stroke:#181818;stroke-width:1;"/><path d="M1719.4688,180.1406 Q1718.8906,180.4375 1718.25,180.5781 Q1717.6094,180.7344 1716.9063,180.7344 Q1714.4063,180.7344 1713.0781,179.0938 Q1711.7656,177.4375 1711.7656,174.3125 Q1711.7656,171.1875 1713.0781,169.5313 Q1714.4063,167.875 1716.9063,167.875 Q1717.6094,167.875 1718.25,168.0313 Q1718.9063,168.1875 1719.4688,168.4844 L1719.4688,171.2031 Q1718.8438,170.625 1718.25,170.3594 Q1717.6563,170.0781 1717.0313,170.0781 Q1715.6875,170.0781 1715,171.1563 Q1714.3125,172.2188 1714.3125,174.3125 Q1714.3125,176.4063 1715,177.4844 Q1715.6875,178.5469 1717.0313,178.5469 Q1717.6563,178.5469 1718.25,178.2813 Q1718.8438,178 1719.4688,177.4219 L1719.4688,180.1406 Z " fill="#000000"/><text fill="#000000" font-family="sans-serif" font-size="14" lengthAdjust="spacing" textLength="276.3496" x="1730.5" y="179.3467">logic_arc_int__baselibs__dynamic_array</text><line style="stroke:#181818;stroke-width:0.5;" x1="1702.5" x2="2008.8496" y1="190.5" y2="190.5"/></g><!--class comp_arc_sta__baselibs__result--><g id="elem_comp_arc_sta__baselibs__result"><rect fill="#F1F1F1" height="40" id="comp_arc_sta__baselibs__result" rx="2.5" ry="2.5" style="stroke:#181818;stroke-width:0.5;" width="253.4297" x="699" y="275.5"/><ellipse cx="714" cy="291.5" fill="#ADD1B2" rx="11" ry="11" style="stroke:#181818;stroke-width:1;"/><path d="M716.9688,297.1406 Q716.3906,297.4375 715.75,297.5781 Q715.1094,297.7344 714.4063,297.7344 Q711.9063,297.7344 710.5781,296.0938 Q709.2656,294.4375 709.2656,291.3125 Q709.2656,288.1875 710.5781,286.5313 Q711.9063,284.875 714.4063,284.875 Q715.1094,284.875 715.75,285.0313 Q716.4063,285.1875 716.9688,285.4844 L716.9688,288.2031 Q716.3438,287.625 715.75,287.3594 Q715.1563,287.0781 714.5313,287.0781 Q713.1875,287.0781 712.5,288.1563 Q711.8125,289.2188 711.8125,291.3125 Q711.8125,293.4063 712.5,294.4844 Q713.1875,295.5469 714.5313,295.5469 Q715.1563,295.5469 715.75,295.2813 Q716.3438,295 716.9688,294.4219 L716.9688,297.1406 Z " fill="#000000"/><text fill="#000000" font-family="sans-serif" font-size="14" lengthAdjust="spacing" textLength="221.4297" x="728" y="296.3467">comp_arc_sta__baselibs__result</text><line style="stroke:#181818;stroke-width:0.5;" x1="700" x2="951.4297" y1="307.5" y2="307.5"/></g><!--class logic_arc_int__baselibs__bit_manipulation--><g id="elem_logic_arc_int__baselibs__bit_manipulation"><rect fill="#F1F1F1" height="40" id="logic_arc_int__baselibs__bit_manipulation" rx="2.5" ry="2.5" style="stroke:#181818;stroke-width:0.5;" width="321.8369" x="1344.5" y="158.5"/><ellipse cx="1359.5" cy="174.5" fill="#ADD1B2" rx="11" ry="11" style="stroke:#181818;stroke-width:1;"/><path d="M1362.4688,180.1406 Q1361.8906,180.4375 1361.25,180.5781 Q1360.6094,180.7344 1359.9063,180.7344 Q1357.4063,180.7344 1356.0781,179.0938 Q1354.7656,177.4375 1354.7656,174.3125 Q1354.7656,171.1875 1356.0781,169.5313 Q1357.4063,167.875 1359.9063,167.875 Q1360.6094,167.875 1361.25,168.0313 Q1361.9063,168.1875 1362.4688,168.4844 L1362.4688,171.2031 Q1361.8438,170.625 1361.25,170.3594 Q1360.6563,170.0781 1360.0313,170.0781 Q1358.6875,170.0781 1358,171.1563 Q1357.3125,172.2188 1357.3125,174.3125 Q1357.3125,176.4063 1358,177.4844 Q1358.6875,178.5469 1360.0313,178.5469 Q1360.6563,178.5469 1361.25,178.2813 Q1361.8438,178 1362.4688,177.4219 L1362.4688,180.1406 Z " fill="#000000"/><text fill="#000000" font-family="sans-serif" font-size="14" lengthAdjust="spacing" textLength="289.8369" x="1373.5" y="179.3467">logic_arc_int__baselibs__bit_manipulation</text><line style="stroke:#181818;stroke-width:0.5;" x1="1345.5" x2="1665.3369" y1="190.5" y2="190.5"/></g><!--class comp_arc_sta__baselibs__message_passing--><g id="elem_comp_arc_sta__baselibs__message_passing"><rect fill="#F1F1F1" height="40" id="comp_arc_sta__baselibs__message_passing" rx="2.5" ry="2.5" style="stroke:#181818;stroke-width:0.5;" width="337.1357" x="327" y="275.5"/><ellipse cx="342" cy="291.5" fill="#ADD1B2" rx="11" ry="11" style="stroke:#181818;stroke-width:1;"/><path d="M344.9688,297.1406 Q344.3906,297.4375 343.75,297.5781 Q343.1094,297.7344 342.4063,297.7344 Q339.9063,297.7344 338.5781,296.0938 Q337.2656,294.4375 337.2656,291.3125 Q337.2656,288.1875 338.5781,286.5313 Q339.9063,284.875 342.4063,284.875 Q343.1094,284.875 343.75,285.0313 Q344.4063,285.1875 344.9688,285.4844 L344.9688,288.2031 Q344.3438,287.625 343.75,287.3594 Q343.1563,287.0781 342.5313,287.0781 Q341.1875,287.0781 340.5,288.1563 Q339.8125,289.2188 339.8125,291.3125 Q339.8125,293.4063 340.5,294.4844 Q341.1875,295.5469 342.5313,295.5469 Q343.1563,295.5469 343.75,295.2813 Q344.3438,295 344.9688,294.4219 L344.9688,297.1406 Z " fill="#000000"/><text fill="#000000" font-family="sans-serif" font-size="14" lengthAdjust="spacing" textLength="305.1357" x="356" y="296.3467">comp_arc_sta__baselibs__message_passing</text><line style="stroke:#181818;stroke-width:0.5;" x1="328" x2="663.1357" y1="307.5" y2="307.5"/></g><!--class logic_arc_int__baselibs__filesystem--><g id="elem_logic_arc_int__baselibs__filesystem"><rect fill="#F1F1F1" height="40" id="logic_arc_int__baselibs__filesystem" rx="2.5" ry="2.5" style="stroke:#181818;stroke-width:0.5;" width="276.4805" x="16.5" y="158.5"/><ellipse cx="31.5" cy="174.5" fill="#ADD1B2" rx="11" ry="11" style="stroke:#181818;stroke-width:1;"/><path d="M34.4688,180.1406 Q33.8906,180.4375 33.25,180.5781 Q32.6094,180.7344 31.9063,180.7344 Q29.4063,180.7344 28.0781,179.0938 Q26.7656,177.4375 26.7656,174.3125 Q26.7656,171.1875 28.0781,169.5313 Q29.4063,167.875 31.9063,167.875 Q32.6094,167.875 33.25,168.0313 Q33.9063,168.1875 34.4688,168.4844 L34.4688,171.2031 Q33.8438,170.625 33.25,170.3594 Q32.6563,170.0781 32.0313,170.0781 Q30.6875,170.0781 30,171.1563 Q29.3125,172.2188 29.3125,174.3125 Q29.3125,176.4063 30,177.4844 Q30.6875,178.5469 32.0313,178.5469 Q32.6563,178.5469 33.25,178.2813 Q33.8438,178 34.4688,177.4219 L34.4688,180.1406 Z " fill="#000000"/><text fill="#000000" font-family="sans-serif" font-size="14" lengthAdjust="spacing" textLength="244.4805" x="45.5" y="179.3467">logic_arc_int__baselibs__filesystem</text><line style="stroke:#181818;stroke-width:0.5;" x1="17.5" x2="291.9805" y1="190.5" y2="190.5"/></g><!--class logic_arc_int__baselibs__executor--><g id="elem_logic_arc_int__baselibs__executor"><rect fill="#F1F1F1" height="40" id="logic_arc_int__baselibs__executor" rx="2.5" ry="2.5" style="stroke:#181818;stroke-width:0.5;" width="266.4385" x="2689.5" y="158.5"/><ellipse cx="2704.5" cy="174.5" fill="#ADD1B2" rx="11" ry="11" style="stroke:#181818;stroke-width:1;"/><path d="M2707.4688,180.1406 Q2706.8906,180.4375 2706.25,180.5781 Q2705.6094,180.7344 2704.9063,180.7344 Q2702.4063,180.7344 2701.0781,179.0938 Q2699.7656,177.4375 2699.7656,174.3125 Q2699.7656,171.1875 2701.0781,169.5313 Q2702.4063,167.875 2704.9063,167.875 Q2705.6094,167.875 2706.25,168.0313 Q2706.9063,168.1875 2707.4688,168.4844 L2707.4688,171.2031 Q2706.8438,170.625 2706.25,170.3594 Q2705.6563,170.0781 2705.0313,170.0781 Q2703.6875,170.0781 2703,171.1563 Q2702.3125,172.2188 2702.3125,174.3125 Q2702.3125,176.4063 2703,177.4844 Q2703.6875,178.5469 2705.0313,178.5469 Q2705.6563,178.5469 2706.25,178.2813 Q2706.8438,178 2707.4688,177.4219 L2707.4688,180.1406 Z " fill="#000000"/><text fill="#000000" font-family="sans-serif" font-size="14" lengthAdjust="spacing" textLength="234.4385" x="2718.5" y="179.3467">logic_arc_int__baselibs__executor</text><line style="stroke:#181818;stroke-width:0.5;" x1="2690.5" x2="2954.9385" y1="190.5" y2="190.5"/></g><!--class comp_arc_sta__baselibs__filesystem--><g id="elem_comp_arc_sta__baselibs__filesystem"><rect fill="#F1F1F1" height="40" id="comp_arc_sta__baselibs__filesystem" rx="2.5" ry="2.5" style="stroke:#181818;stroke-width:0.5;" width="285.4492" x="7" y="275.5"/><ellipse cx="22" cy="291.5" fill="#ADD1B2" rx="11" ry="11" style="stroke:#181818;stroke-width:1;"/><path d="M24.9688,297.1406 Q24.3906,297.4375 23.75,297.5781 Q23.1094,297.7344 22.4063,297.7344 Q19.9063,297.7344 18.5781,296.0938 Q17.2656,294.4375 17.2656,291.3125 Q17.2656,288.1875 18.5781,286.5313 Q19.9063,284.875 22.4063,284.875 Q23.1094,284.875 23.75,285.0313 Q24.4063,285.1875 24.9688,285.4844 L24.9688,288.2031 Q24.3438,287.625 23.75,287.3594 Q23.1563,287.0781 22.5313,287.0781 Q21.1875,287.0781 20.5,288.1563 Q19.8125,289.2188 19.8125,291.3125 Q19.8125,293.4063 20.5,294.4844 Q21.1875,295.5469 22.5313,295.5469 Q23.1563,295.5469 23.75,295.2813 Q24.3438,295 24.9688,294.4219 L24.9688,297.1406 Z " fill="#000000"/><text fill="#000000" font-family="sans-serif" font-size="14" lengthAdjust="spacing" textLength="253.4492" x="36" y="296.3467">comp_arc_sta__baselibs__filesystem</text><line style="stroke:#181818;stroke-width:0.5;" x1="8" x2="291.4492" y1="307.5" y2="307.5"/></g><!--link Feature_User to logic_arc_int__baselibs__task_result--><g id="link_Feature_User_logic_arc_int__baselibs__task_result"><path codeLine="15" d="M3069.33,54.5 C2969.55,76.58 2734.8384,128.524 2605.3284,157.174 " fill="transparent" id="Feature_User-to-logic_arc_int__baselibs__task_result" style="stroke:#181818;stroke-width:1;"/><polygon fill="#181818" points="2599.47,158.47,2609.1215,160.4316,2604.352,157.39,2607.3936,152.6205,2599.47,158.47" style="stroke:#181818;stroke-width:1;"/><text fill="#000000" font-family="sans-serif" font-size="13" lengthAdjust="spacing" textLength="23.0103" x="2796.5" y="124.5669">use</text></g><!--link Feature_User to logic_arc_int__baselibs__bit_mask_operator--><g id="link_Feature_User_logic_arc_int__baselibs__bit_mask_operator"><path codeLine="16" d="M3069.2,46.65 C2866.14,56.44 2019.52,98.91 1326.5,158.5 C1320.87,158.98 1321.1259,158.9524 1315.3459,159.4724 " fill="transparent" id="Feature_User-to-logic_arc_int__baselibs__bit_mask_operator" style="stroke:#181818;stroke-width:1;"/><polygon fill="#181818" points="1309.37,160.01,1318.6922,163.1875,1314.3499,159.562,1317.9754,155.2197,1309.37,160.01" style="stroke:#181818;stroke-width:1;"/><text fill="#000000" font-family="sans-serif" font-size="13" lengthAdjust="spacing" textLength="23.0103" x="1917.5" y="124.5669">use</text></g><!--reverse link logic_arc_int__baselibs__task_result to comp_arc_sta__baselibs__concurrency--><g id="link_logic_arc_int__baselibs__task_result_comp_arc_sta__baselibs__concurrency"><path codeLine="17" d="M2655.9447,199.3126 C2756.8247,213.1026 2891.64,230.99 3015.5,245.5 C3124.41,258.26 3247.56,270.89 3341.31,280.13 " fill="transparent" id="logic_arc_int__baselibs__task_result-backto-comp_arc_sta__baselibs__concurrency" style="stroke:#181818;stroke-width:1;"/><polygon fill="#181818" points="2650,198.5,2658.3753,203.6821,2654.9539,199.1772,2659.4588,195.7558,2650,198.5" style="stroke:#181818;stroke-width:1;"/><text fill="#000000" font-family="sans-serif" font-size="13" lengthAdjust="spacing" textLength="76.9082" x="3016.5" y="241.5669">implements</text></g><!--reverse link logic_arc_int__baselibs__json to comp_arc_sta__baselibs__json--><g id="link_logic_arc_int__baselibs__json_comp_arc_sta__baselibs__json"><path codeLine="18" d="M6079.9346,204.7491 C6080.3046,225.9791 6080.79,253.94 6081.16,275.19 " fill="transparent" id="logic_arc_int__baselibs__json-backto-comp_arc_sta__baselibs__json" style="stroke:#181818;stroke-width:1;"/><polygon fill="#181818" points="6079.83,198.75,6075.9874,207.8183,6079.9171,203.7492,6083.9862,207.6789,6079.83,198.75" style="stroke:#181818;stroke-width:1;"/><text fill="#000000" font-family="sans-serif" font-size="13" lengthAdjust="spacing" textLength="76.9082" x="6081.5" y="241.5669">implements</text></g><!--link Feature_User to logic_arc_int__baselibs__synchronized_queue--><g id="link_Feature_User_logic_arc_int__baselibs__synchronized_queue"><path codeLine="19" d="M3159.67,47.84 C3335.27,60.91 3989.46,110.18 4527.5,158.5 C4533.34,159.02 4533.3051,159.0214 4539.2951,159.5714 " fill="transparent" id="Feature_User-to-logic_arc_int__baselibs__synchronized_queue" style="stroke:#181818;stroke-width:1;"/><polygon fill="#181818" points="4545.27,160.12,4536.6734,155.3138,4540.2909,159.6628,4535.942,163.2803,4545.27,160.12" style="stroke:#181818;stroke-width:1;"/><text fill="#000000" font-family="sans-serif" font-size="13" lengthAdjust="spacing" textLength="23.0103" x="4179.5" y="124.5669">use</text></g><!--link Feature_User to logic_arc_int__baselibs__message_passing--><g id="link_Feature_User_logic_arc_int__baselibs__message_passing"><path codeLine="20" d="M3069.21,45.57 C2865.29,50.53 2011.9,72.67 1312.5,111.5 C1029.5,127.21 958.81,133.26 676.5,158.5 C670.99,158.99 671.3638,158.9496 665.7138,159.4796 " fill="transparent" id="Feature_User-to-logic_arc_int__baselibs__message_passing" style="stroke:#181818;stroke-width:1;"/><polygon fill="#181818" points="659.74,160.04,669.0742,163.182,664.7181,159.573,668.3271,155.2169,659.74,160.04" style="stroke:#181818;stroke-width:1;"/><text fill="#000000" font-family="sans-serif" font-size="13" lengthAdjust="spacing" textLength="23.0103" x="1313.5" y="124.5669">use</text></g><!--reverse link logic_arc_int__baselibs__condition_variable to comp_arc_sta__baselibs__concurrency--><g id="link_logic_arc_int__baselibs__condition_variable_comp_arc_sta__baselibs__concurrency"><path codeLine="21" d="M4197.6945,199.3069 C4100.3645,212.5169 3973.5,229.72 3856.5,245.5 C3783,255.41 3701.17,266.4 3633.64,275.46 " fill="transparent" id="logic_arc_int__baselibs__condition_variable-backto-comp_arc_sta__baselibs__concurrency" style="stroke:#181818;stroke-width:1;"/><polygon fill="#181818" points="4203.64,198.5,4194.1838,195.7468,4198.6854,199.1725,4195.2597,203.6741,4203.64,198.5" style="stroke:#181818;stroke-width:1;"/><text fill="#000000" font-family="sans-serif" font-size="13" lengthAdjust="spacing" textLength="76.9082" x="3977.5" y="241.5669">implements</text></g><!--link Feature_User to logic_arc_int__baselibs__json--><g id="link_Feature_User_logic_arc_int__baselibs__json"><path codeLine="22" d="M3159.85,45.37 C3384.17,49.79 4397.48,71.15 5226.5,111.5 C5545.03,127 5625.24,126.13 5942.5,158.5 C5949.19,159.18 5950.0916,159.235 5957.0216,160.055 " fill="transparent" id="Feature_User-to-logic_arc_int__baselibs__json" style="stroke:#181818;stroke-width:1;"/><polygon fill="#181818" points="5962.98,160.76,5954.5124,155.7302,5958.0146,160.1725,5953.5723,163.6747,5962.98,160.76" style="stroke:#181818;stroke-width:1;"/><text fill="#000000" font-family="sans-serif" font-size="13" lengthAdjust="spacing" textLength="23.0103" x="5573.5" y="124.5669">use</text></g><!--reverse link logic_arc_int__baselibs__utils_base64 to comp_arc_sta__baselibs__utils--><g id="link_logic_arc_int__baselibs__utils_base64_comp_arc_sta__baselibs__utils"><path codeLine="23" d="M5387.3479,201.7743 C5350.8679,223.0643 5297.64,254.14 5261.25,275.38 " fill="transparent" id="logic_arc_int__baselibs__utils_base64-backto-comp_arc_sta__baselibs__utils" style="stroke:#181818;stroke-width:1;"/><polygon fill="#181818" points="5392.53,198.75,5382.7407,199.8317,5388.2116,201.2702,5386.7731,206.7411,5392.53,198.75" style="stroke:#181818;stroke-width:1;"/><text fill="#000000" font-family="sans-serif" font-size="13" lengthAdjust="spacing" textLength="76.9082" x="5339.5" y="241.5669">implements</text></g><!--reverse link logic_arc_int__baselibs__memory_shared to comp_arc_sta__baselibs__memory_shared--><g id="link_logic_arc_int__baselibs__memory_shared_comp_arc_sta__baselibs__memory_shared"><path codeLine="24" d="M5764.8418,204.7479 C5764.2818,225.9779 5763.56,253.94 5763,275.19 " fill="transparent" id="logic_arc_int__baselibs__memory_shared-backto-comp_arc_sta__baselibs__memory_shared" style="stroke:#181818;stroke-width:1;"/><polygon fill="#181818" points="5765,198.75,5760.7641,207.6414,5764.8682,203.7483,5768.7613,207.8523,5765,198.75" style="stroke:#181818;stroke-width:1;"/><text fill="#000000" font-family="sans-serif" font-size="13" lengthAdjust="spacing" textLength="76.9082" x="5764.5" y="241.5669">implements</text></g><!--reverse link logic_arc_int__baselibs__task to comp_arc_sta__baselibs__concurrency--><g id="link_logic_arc_int__baselibs__task_comp_arc_sta__baselibs__concurrency"><path codeLine="25" d="M3411.3687,203.2587 C3430.0087,224.4887 3455.87,253.94 3474.54,275.19 " fill="transparent" id="logic_arc_int__baselibs__task-backto-comp_arc_sta__baselibs__concurrency" style="stroke:#181818;stroke-width:1;"/><polygon fill="#181818" points="3407.41,198.75,3410.3422,208.1522,3410.7089,202.5073,3416.3539,202.874,3407.41,198.75" style="stroke:#181818;stroke-width:1;"/><text fill="#000000" font-family="sans-serif" font-size="13" lengthAdjust="spacing" textLength="76.9082" x="3447.5" y="241.5669">implements</text></g><!--link Feature_User to logic_arc_int__baselibs__result--><g id="link_Feature_User_logic_arc_int__baselibs__result"><path codeLine="26" d="M3069.44,46.32 C2892.78,53.54 2230.43,81.16 1685.5,111.5 C1361.33,129.55 1279.56,126.2 956.5,158.5 C950.64,159.09 950.6123,159.0587 944.5723,159.7387 " fill="transparent" id="Feature_User-to-logic_arc_int__baselibs__result" style="stroke:#181818;stroke-width:1;"/><polygon fill="#181818" points="938.61,160.41,948.001,163.378,943.5786,159.8506,947.106,155.4282,938.61,160.41" style="stroke:#181818;stroke-width:1;"/><text fill="#000000" font-family="sans-serif" font-size="13" lengthAdjust="spacing" textLength="23.0103" x="1686.5" y="124.5669">use</text></g><!--link Feature_User to logic_arc_int__baselibs__shared_future--><g id="link_Feature_User_logic_arc_int__baselibs__shared_future"><path codeLine="27" d="M3159.75,51.37 C3289.56,71.08 3660.588,127.4093 3859.028,157.5393 " fill="transparent" id="Feature_User-to-logic_arc_int__baselibs__shared_future" style="stroke:#181818;stroke-width:1;"/><polygon fill="#181818" points="3864.96,158.44,3856.6624,153.1343,3860.0167,157.6894,3855.4615,161.0437,3864.96,158.44" style="stroke:#181818;stroke-width:1;"/><text fill="#000000" font-family="sans-serif" font-size="13" lengthAdjust="spacing" textLength="23.0103" x="3657.5" y="124.5669">use</text></g><!--link Feature_User to logic_arc_int__baselibs__utils_scoped_op--><g id="link_Feature_User_logic_arc_int__baselibs__utils_scoped_op"><path codeLine="28" d="M3159.7,46.56 C3363.19,56 4214.73,97.31 4911.5,158.5 C4917.13,158.99 4916.8859,158.9628 4922.6759,159.5028 " fill="transparent" id="Feature_User-to-logic_arc_int__baselibs__utils_scoped_op" style="stroke:#181818;stroke-width:1;"/><polygon fill="#181818" points="4928.65,160.06,4920.0603,155.2415,4923.6716,159.5957,4919.3174,163.207,4928.65,160.06" style="stroke:#181818;stroke-width:1;"/><text fill="#000000" font-family="sans-serif" font-size="13" lengthAdjust="spacing" textLength="23.0103" x="4518.5" y="124.5669">use</text></g><!--reverse link logic_arc_int__baselibs__future to comp_arc_sta__baselibs__concurrency--><g id="link_logic_arc_int__baselibs__future_comp_arc_sta__baselibs__concurrency"><path codeLine="29" d="M3182.9189,200.3708 C3252.7389,221.6708 3359.23,254.15 3428.99,275.43 " fill="transparent" id="logic_arc_int__baselibs__future-backto-comp_arc_sta__baselibs__concurrency" style="stroke:#181818;stroke-width:1;"/><polygon fill="#181818" points="3177.18,198.62,3184.6212,205.0721,3181.9624,200.079,3186.9555,197.4202,3177.18,198.62" style="stroke:#181818;stroke-width:1;"/><text fill="#000000" font-family="sans-serif" font-size="13" lengthAdjust="spacing" textLength="76.9082" x="3326.5" y="241.5669">implements</text></g><!--reverse link logic_arc_int__baselibs__intrusive_list to comp_arc_sta__baselibs__containers--><g id="link_logic_arc_int__baselibs__intrusive_list_comp_arc_sta__baselibs__containers"><path codeLine="30" d="M2153.6918,201.7979 C2117.5918,223.0879 2064.94,254.14 2028.92,275.38 " fill="transparent" id="logic_arc_int__baselibs__intrusive_list-backto-comp_arc_sta__baselibs__containers" style="stroke:#181818;stroke-width:1;"/><polygon fill="#181818" points="2158.86,198.75,2149.0758,199.8765,2154.5532,201.2899,2153.1397,206.7674,2158.86,198.75" style="stroke:#181818;stroke-width:1;"/><text fill="#000000" font-family="sans-serif" font-size="13" lengthAdjust="spacing" textLength="76.9082" x="2107.5" y="241.5669">implements</text></g><!--reverse link logic_arc_int__baselibs__utils_scoped_op to comp_arc_sta__baselibs__utils--><g id="link_logic_arc_int__baselibs__utils_scoped_op_comp_arc_sta__baselibs__utils"><path codeLine="31" d="M5114.9324,202.5265 C5141.1424,223.7565 5178.41,253.94 5204.65,275.19 " fill="transparent" id="logic_arc_int__baselibs__utils_scoped_op-backto-comp_arc_sta__baselibs__utils" style="stroke:#181818;stroke-width:1;"/><polygon fill="#181818" points="5110.27,198.75,5114.7459,207.523,5114.1553,201.8971,5119.7813,201.3065,5110.27,198.75" style="stroke:#181818;stroke-width:1;"/><text fill="#000000" font-family="sans-serif" font-size="13" lengthAdjust="spacing" textLength="76.9082" x="5166.5" y="241.5669">implements</text></g><!--reverse link logic_arc_int__baselibs__synchronized_queue to comp_arc_sta__baselibs__concurrency--><g id="link_logic_arc_int__baselibs__synchronized_queue_comp_arc_sta__baselibs__concurrency"><path codeLine="32" d="M4539.3016,198.3155 C4406.9316,211.9655 4226.29,230.25 4062.5,245.5 C3919.72,258.8 3756.72,272.65 3641.53,282.22 " fill="transparent" id="logic_arc_int__baselibs__synchronized_queue-backto-comp_arc_sta__baselibs__concurrency" style="stroke:#181818;stroke-width:1;"/><polygon fill="#181818" points="4545.27,197.7,4535.9072,194.6443,4540.2964,198.2129,4536.7278,202.6021,4545.27,197.7" style="stroke:#181818;stroke-width:1;"/><text fill="#000000" font-family="sans-serif" font-size="13" lengthAdjust="spacing" textLength="76.9082" x="4225.5" y="241.5669">implements</text></g><!--link Feature_User to logic_arc_int__baselibs__condition_variable--><g id="link_Feature_User_logic_arc_int__baselibs__condition_variable"><path codeLine="33" d="M3159.7,49.39 C3323.5,67.12 3885.4148,127.9244 4170.9248,158.8244 " fill="transparent" id="Feature_User-to-logic_arc_int__baselibs__condition_variable" style="stroke:#181818;stroke-width:1;"/><polygon fill="#181818" points="4176.89,159.47,4168.3726,154.5248,4171.919,158.932,4167.5119,162.4784,4176.89,159.47" style="stroke:#181818;stroke-width:1;"/><text fill="#000000" font-family="sans-serif" font-size="13" lengthAdjust="spacing" textLength="23.0103" x="3875.5" y="124.5669">use</text></g><!--link Feature_User to logic_arc_int__baselibs__intrusive_list--><g id="link_Feature_User_logic_arc_int__baselibs__intrusive_list"><path codeLine="34" d="M3069.36,51 C2934.99,70.37 2539.8687,127.3043 2329.5187,157.6143 " fill="transparent" id="Feature_User-to-logic_arc_int__baselibs__intrusive_list" style="stroke:#181818;stroke-width:1;"/><polygon fill="#181818" points="2323.58,158.47,2333.0585,161.1455,2328.5289,157.7569,2331.9175,153.2273,2323.58,158.47" style="stroke:#181818;stroke-width:1;"/><text fill="#000000" font-family="sans-serif" font-size="13" lengthAdjust="spacing" textLength="23.0103" x="2626.5" y="124.5669">use</text></g><!--reverse link logic_arc_int__baselibs__bit_mask_operator to comp_arc_sta__baselibs__bit_manipulation--><g id="link_logic_arc_int__baselibs__bit_mask_operator_comp_arc_sta__baselibs__bit_manipulation"><path codeLine="35" d="M1162.177,203.2777 C1180.637,224.5077 1206.23,253.94 1224.71,275.19 " fill="transparent" id="logic_arc_int__baselibs__bit_mask_operator-backto-comp_arc_sta__baselibs__bit_manipulation" style="stroke:#181818;stroke-width:1;"/><polygon fill="#181818" points="1158.24,198.75,1161.127,208.1662,1161.5208,202.5231,1167.1639,202.9169,1158.24,198.75" style="stroke:#181818;stroke-width:1;"/><text fill="#000000" font-family="sans-serif" font-size="13" lengthAdjust="spacing" textLength="76.9082" x="1198.5" y="241.5669">implements</text></g><!--reverse link logic_arc_int__baselibs__shared_future to comp_arc_sta__baselibs__concurrency--><g id="link_logic_arc_int__baselibs__shared_future_comp_arc_sta__baselibs__concurrency"><path codeLine="36" d="M3901.9733,199.8976 C3809.6033,221.1876 3666.78,254.11 3574.34,275.41 " fill="transparent" id="logic_arc_int__baselibs__shared_future-backto-comp_arc_sta__baselibs__concurrency" style="stroke:#181818;stroke-width:1;"/><polygon fill="#181818" points="3907.82,198.55,3898.1515,196.6736,3902.9477,199.673,3899.9483,204.4692,3907.82,198.55" style="stroke:#181818;stroke-width:1;"/><text fill="#000000" font-family="sans-serif" font-size="13" lengthAdjust="spacing" textLength="76.9082" x="3771.5" y="241.5669">implements</text></g><!--reverse link logic_arc_int__baselibs__promise to comp_arc_sta__baselibs__concurrency--><g id="link_logic_arc_int__baselibs__promise_comp_arc_sta__baselibs__concurrency"><path codeLine="37" d="M3637.9675,201.9546 C3604.2675,223.2446 3555.37,254.14 3521.76,275.38 " fill="transparent" id="logic_arc_int__baselibs__promise-backto-comp_arc_sta__baselibs__concurrency" style="stroke:#181818;stroke-width:1;"/><polygon fill="#181818" points="3643.04,198.75,3633.2948,200.1752,3638.8129,201.4205,3637.5676,206.9386,3643.04,198.75" style="stroke:#181818;stroke-width:1;"/><text fill="#000000" font-family="sans-serif" font-size="13" lengthAdjust="spacing" textLength="76.9082" x="3593.5" y="241.5669">implements</text></g><!--reverse link logic_arc_int__baselibs__dynamic_array to comp_arc_sta__baselibs__containers--><g id="link_logic_arc_int__baselibs__dynamic_array_comp_arc_sta__baselibs__containers"><path codeLine="38" d="M1883.7496,202.5422 C1909.7796,223.7722 1946.76,253.94 1972.82,275.19 " fill="transparent" id="logic_arc_int__baselibs__dynamic_array-backto-comp_arc_sta__baselibs__containers" style="stroke:#181818;stroke-width:1;"/><polygon fill="#181818" points="1879.1,198.75,1883.5463,207.5381,1882.9747,201.9102,1888.6026,201.3386,1879.1,198.75" style="stroke:#181818;stroke-width:1;"/><text fill="#000000" font-family="sans-serif" font-size="13" lengthAdjust="spacing" textLength="76.9082" x="1935.5" y="241.5669">implements</text></g><!--link Feature_User to logic_arc_int__baselibs__memory_shared--><g id="link_Feature_User_logic_arc_int__baselibs__memory_shared"><path codeLine="39" d="M3159.83,45.72 C3362.1,51.25 4202.45,75.32 4891.5,111.5 C5202,127.8 5279.76,131.36 5589.5,158.5 C5595.01,158.98 5594.6461,158.9306 5600.3061,159.4606 " fill="transparent" id="Feature_User-to-logic_arc_int__baselibs__memory_shared" style="stroke:#181818;stroke-width:1;"/><polygon fill="#181818" points="5606.28,160.02,5597.6921,155.1983,5601.3018,159.5538,5596.9463,163.1635,5606.28,160.02" style="stroke:#181818;stroke-width:1;"/><text fill="#000000" font-family="sans-serif" font-size="13" lengthAdjust="spacing" textLength="23.0103" x="5194.5" y="124.5669">use</text></g><!--link Feature_User to logic_arc_int__baselibs__future--><g id="link_Feature_User_logic_arc_int__baselibs__future"><path codeLine="40" d="M3114.5,81.55 C3114.5,106.45 3114.5,132.26 3114.5,152.26 " fill="transparent" id="Feature_User-to-logic_arc_int__baselibs__future" style="stroke:#181818;stroke-width:1;"/><polygon fill="#181818" points="3114.5,158.26,3118.5,149.26,3114.5,153.26,3110.5,149.26,3114.5,158.26" style="stroke:#181818;stroke-width:1;"/><text fill="#000000" font-family="sans-serif" font-size="13" lengthAdjust="spacing" textLength="23.0103" x="3115.5" y="124.5669">use</text></g><!--link Feature_User to logic_arc_int__baselibs__dynamic_array--><g id="link_Feature_User_logic_arc_int__baselibs__dynamic_array"><path codeLine="41" d="M3069.45,49.13 C2920.7,64.46 2431.7,114.98 2027.5,158.5 C2021.68,159.13 2021.7051,159.1238 2015.7051,159.7738 " fill="transparent" id="Feature_User-to-logic_arc_int__baselibs__dynamic_array" style="stroke:#181818;stroke-width:1;"/><polygon fill="#181818" points="2009.74,160.42,2019.1185,163.4274,2014.7109,159.8815,2018.2568,155.4739,2009.74,160.42" style="stroke:#181818;stroke-width:1;"/><text fill="#000000" font-family="sans-serif" font-size="13" lengthAdjust="spacing" textLength="23.0103" x="2447.5" y="124.5669">use</text></g><!--reverse link logic_arc_int__baselibs__result to comp_arc_sta__baselibs__result--><g id="link_logic_arc_int__baselibs__result_comp_arc_sta__baselibs__result"><path codeLine="42" d="M818.4777,204.7317 C820.1377,225.9617 822.33,253.94 823.99,275.19 " fill="transparent" id="logic_arc_int__baselibs__result-backto-comp_arc_sta__baselibs__result" style="stroke:#181818;stroke-width:1;"/><polygon fill="#181818" points="818.01,198.75,814.7238,208.0344,818.3998,203.7348,822.6994,207.4108,818.01,198.75" style="stroke:#181818;stroke-width:1;"/><text fill="#000000" font-family="sans-serif" font-size="13" lengthAdjust="spacing" textLength="76.9082" x="823.5" y="241.5669">implements</text></g><!--reverse link logic_arc_int__baselibs__bit_manipulation to comp_arc_sta__baselibs__bit_manipulation--><g id="link_logic_arc_int__baselibs__bit_manipulation_comp_arc_sta__baselibs__bit_manipulation"><path codeLine="43" d="M1456.1092,201.0161 C1407.2792,222.2861 1334.36,254.05 1285.5,275.34 " fill="transparent" id="logic_arc_int__baselibs__bit_manipulation-backto-comp_arc_sta__baselibs__bit_manipulation" style="stroke:#181818;stroke-width:1;"/><polygon fill="#181818" points="1461.61,198.62,1451.7614,198.547,1457.026,200.6168,1454.9562,205.8813,1461.61,198.62" style="stroke:#181818;stroke-width:1;"/><text fill="#000000" font-family="sans-serif" font-size="13" lengthAdjust="spacing" textLength="76.9082" x="1390.5" y="241.5669">implements</text></g><!--reverse link logic_arc_int__baselibs__message_passing to comp_arc_sta__baselibs__message_passing--><g id="link_logic_arc_int__baselibs__message_passing_comp_arc_sta__baselibs__message_passing"><path codeLine="44" d="M495.5,204.75 C495.5,225.98 495.5,253.94 495.5,275.19 " fill="transparent" id="logic_arc_int__baselibs__message_passing-backto-comp_arc_sta__baselibs__message_passing" style="stroke:#181818;stroke-width:1;"/><polygon fill="#181818" points="495.5,198.75,491.5,207.75,495.5,203.75,499.5,207.75,495.5,198.75" style="stroke:#181818;stroke-width:1;"/><text fill="#000000" font-family="sans-serif" font-size="13" lengthAdjust="spacing" textLength="76.9082" x="496.5" y="241.5669">implements</text></g><!--link Feature_User to logic_arc_int__baselibs__bit_manipulation--><g id="link_Feature_User_logic_arc_int__baselibs__bit_manipulation"><path codeLine="45" d="M3069.35,47.65 C2892.36,60.11 2228.81,107.68 1683.5,158.5 C1677.93,159.02 1678.2325,158.9857 1672.5125,159.5357 " fill="transparent" id="Feature_User-to-logic_arc_int__baselibs__bit_manipulation" style="stroke:#181818;stroke-width:1;"/><polygon fill="#181818" points="1666.54,160.11,1675.8815,163.2302,1671.517,159.6314,1675.1158,155.267,1666.54,160.11" style="stroke:#181818;stroke-width:1;"/><text fill="#000000" font-family="sans-serif" font-size="13" lengthAdjust="spacing" textLength="23.0103" x="2196.5" y="124.5669">use</text></g><!--link Feature_User to logic_arc_int__baselibs__promise--><g id="link_Feature_User_logic_arc_int__baselibs__promise"><path codeLine="46" d="M3159.77,55.27 C3254.38,77.78 3468.283,128.671 3587.423,157.021 " fill="transparent" id="Feature_User-to-logic_arc_int__baselibs__promise" style="stroke:#181818;stroke-width:1;"/><polygon fill="#181818" points="3593.26,158.41,3585.4304,152.4352,3588.3958,157.2525,3583.5785,160.2179,3593.26,158.41" style="stroke:#181818;stroke-width:1;"/><text fill="#000000" font-family="sans-serif" font-size="13" lengthAdjust="spacing" textLength="23.0103" x="3461.5" y="124.5669">use</text></g><!--link Feature_User to logic_arc_int__baselibs__filesystem--><g id="link_Feature_User_logic_arc_int__baselibs__filesystem"><path codeLine="47" d="M3069.19,45.33 C2845.07,49.57 1832.69,70.2 1004.5,111.5 C697.06,126.83 619.98,129.78 313.5,158.5 C306.72,159.14 305.7477,159.1985 298.7377,159.9285 " fill="transparent" id="Feature_User-to-logic_arc_int__baselibs__filesystem" style="stroke:#181818;stroke-width:1;"/><polygon fill="#181818" points="292.77,160.55,302.1359,163.5963,297.7431,160.0321,301.3073,155.6393,292.77,160.55" style="stroke:#181818;stroke-width:1;"/><text fill="#000000" font-family="sans-serif" font-size="13" lengthAdjust="spacing" textLength="23.0103" x="1005.5" y="124.5669">use</text></g><!--link Feature_User to logic_arc_int__baselibs__executor--><g id="link_Feature_User_logic_arc_int__baselibs__executor"><path codeLine="48" d="M3069.2,65.14 C3013.29,90.6 2924.4404,131.0732 2870.0504,155.8432 " fill="transparent" id="Feature_User-to-logic_arc_int__baselibs__executor" style="stroke:#181818;stroke-width:1;"/><polygon fill="#181818" points="2864.59,158.33,2874.4384,158.2401,2869.1403,156.2577,2871.1228,150.9596,2864.59,158.33" style="stroke:#181818;stroke-width:1;"/><text fill="#000000" font-family="sans-serif" font-size="13" lengthAdjust="spacing" textLength="23.0103" x="2960.5" y="124.5669">use</text></g><!--link Feature_User to logic_arc_int__baselibs__task--><g id="link_Feature_User_logic_arc_int__baselibs__task"><path codeLine="49" d="M3159.77,66.31 C3212.99,91.96 3295.0447,131.5057 3345.6247,155.8757 " fill="transparent" id="Feature_User-to-logic_arc_int__baselibs__task" style="stroke:#181818;stroke-width:1;"/><polygon fill="#181818" points="3351.03,158.48,3344.6583,150.9699,3346.5256,156.3097,3341.1858,158.177,3351.03,158.48" style="stroke:#181818;stroke-width:1;"/><text fill="#000000" font-family="sans-serif" font-size="13" lengthAdjust="spacing" textLength="23.0103" x="3285.5" y="124.5669">use</text></g><!--link Feature_User to logic_arc_int__baselibs__utils_base64--><g id="link_Feature_User_logic_arc_int__baselibs__utils_base64"><path codeLine="50" d="M3159.79,46.29 C3337.31,53.39 4002.92,80.63 4550.5,111.5 C4866.69,129.33 4946.11,129.82 5261.5,158.5 C5267.35,159.03 5267.3496,159.0049 5273.3696,159.6049 " fill="transparent" id="Feature_User-to-logic_arc_int__baselibs__utils_base64" style="stroke:#181818;stroke-width:1;"/><polygon fill="#181818" points="5279.34,160.2,5270.7811,155.3271,5274.3647,159.7041,5269.9877,163.2877,5279.34,160.2" style="stroke:#181818;stroke-width:1;"/><text fill="#000000" font-family="sans-serif" font-size="13" lengthAdjust="spacing" textLength="23.0103" x="4859.5" y="124.5669">use</text></g><!--reverse link logic_arc_int__baselibs__filesystem to comp_arc_sta__baselibs__filesystem--><g id="link_logic_arc_int__baselibs__filesystem_comp_arc_sta__baselibs__filesystem"><path codeLine="51" d="M153.4002,204.7444 C152.4802,225.9744 151.26,253.94 150.34,275.19 " fill="transparent" id="logic_arc_int__baselibs__filesystem-backto-comp_arc_sta__baselibs__filesystem" style="stroke:#181818;stroke-width:1;"/><polygon fill="#181818" points="153.66,198.75,149.2741,207.5684,153.4435,203.7453,157.2666,207.9147,153.66,198.75" style="stroke:#181818;stroke-width:1;"/><text fill="#000000" font-family="sans-serif" font-size="13" lengthAdjust="spacing" textLength="76.9082" x="153.5" y="241.5669">implements</text></g><!--reverse link logic_arc_int__baselibs__executor to comp_arc_sta__baselibs__concurrency--><g id="link_logic_arc_int__baselibs__executor_comp_arc_sta__baselibs__concurrency"><path codeLine="52" d="M2933.4849,199.6341 C3007.7349,213.0141 3103.71,230.13 3193.5,245.5 C3252.8,255.65 3318.82,266.55 3373.61,275.48 " fill="transparent" id="logic_arc_int__baselibs__executor-backto-comp_arc_sta__baselibs__concurrency" style="stroke:#181818;stroke-width:1;"/><polygon fill="#181818" points="2927.58,198.57,2935.728,204.1027,2932.5007,199.4567,2937.1467,196.2295,2927.58,198.57" style="stroke:#181818;stroke-width:1;"/><text fill="#000000" font-family="sans-serif" font-size="13" lengthAdjust="spacing" textLength="76.9082" x="3194.5" y="241.5669">implements</text></g><!--SRC=[hLPDZzD03BtdLupstWMX5GUqsWiI9uxiUUHCJ6jsFiBOisn0_7ScJPSsfJIPA4Udzglz_6mFM1j-Q4SlvBULX5P9K7KG2Kur5D481L_jg475WX63T2qEDhfMEWKYaUeaoDKzIsVneRe59bkhNzLdylWns11Ln6PlVTcHUVB8hDxTlgr-L_Tl3Z4L6Cb-DvyG94LKZupnHW6hmmVTVr1LDJ8tpUP1sR0beo4QJLwqhe7HKirQ2_2JZiZ9oWUL65L9S4sYNGyGMeoGKpj0cE3QlJyBdFgRu4sA4Rtfr2RDJejSQz6X5_u_z3SEVWApTnc35PJAdJUx63pzn4P_JvYmd2wNMmfRr2qmPo6jHbRsRAYNe7w6I51RN5pcmD7Ll9AGvOcCzZvx-_tTlFuvT25scdUGfs02VUGx3xvCUOlfMpf8GodwQ-e3oiC7kjdaCMpoBAuchDTyPZ8ia9TNdD96DcDYUaPjYMTEztpDdP2mhYukBO25AhaqhwKjFsVnQiU7FUsfJHRw_vqezS9QNvdBiTpN1MzZSCHhgxRfFBZzJn6wnPq_srobJL-w7ywIlwgLOOLDi55ocHU9x-W-ztoCJkla0Jaxn0lR-M-kfPtvAzPYAP15xl9hqvN7uWkQT7oj5RuMbvwdrzV0LVKTovewJIVrhxi_ZkoSulu1]--></g></svg>