<svg xmlns="http://www.w3.org/2000/svg" xmlns:xlink="http://www.w3.org/1999/xlink" contentStyleType="text/css" data-diagram-type="CLASS" height="322px" preserveAspectRatio="none" style="width:6202px;height:322px;background:#FFFFFF;" version="1.1" viewBox="0 0 6202 322" width="6202px" zoomAndPan="magnify"><defs/><g><!--entity Feature_User--><g id="elem_Feature_User"><ellipse cx="2955.1685" cy="14" fill="#F1F1F1" rx="8" ry="8" style="stroke:#181818;stroke-width:0.5;"/><path d="M2955.1685,22 L2955.1685,49 M2942.1685,30 L2968.1685,30 M2955.1685,49 L2942.1685,64 M2955.1685,49 L2968.1685,64 " fill="transparent" style="stroke:#181818;stroke-width:0.5;"/><text fill="#000000" font-family="sans-serif" font-size="14" lengthAdjust="spacing" textLength="90.3369" x="2910" y="78.4951">Feature User</text></g><!--class comp_arc_sta__baselibs__bit_manipulation--><g id="elem_comp_arc_sta__baselibs__bit_manipulation"><rect fill="#F1F1F1" height="40" id="comp_arc_sta__baselibs__bit_manipulation" rx="2.5" ry="2.5" style="stroke:#181818;stroke-width:0.5;" width="330.8057" x="4330.5" y="275.5"/><ellipse cx="4345.5" cy="291.5" fill="#ADD1B2" rx="11" ry="11" style="stroke:#181818;stroke-width:1;"/><path d="M4348.4688,297.1406 Q4347.8906,297.4375 4347.25,297.5781 Q4346.6094,297.7344 4345.9063,297.7344 Q4343.4063,297.7344 4342.0781,296.0938 Q4340.7656,294.4375 4340.7656,291.3125 Q4340.7656,288.1875 4342.0781,286.5313 Q4343.4063,284.875 4345.9063,284.875 Q4346.6094,284.875 4347.25,285.0313 Q4347.9063,285.1875 4348.4688,285.4844 L4348.4688,288.2031 Q4347.8438,287.625 4347.25,287.3594 Q4346.6563,287.0781 4346.0313,287.0781 Q4344.6875,287.0781 4344,288.1563 Q4343.3125,289.2188 4343.3125,291.3125 Q4343.3125,293.4063 4344,294.4844 Q4344.6875,295.5469 4346.0313,295.5469 Q4346.6563,295.5469 4347.25,295.2813 Q4347.8438,295 4348.4688,294.4219 L4348.4688,297.1406 Z " fill="#000000"/><text fill="#000000" font-family="sans-serif" font-size="14" lengthAdjust="spacing" textLength="298.8057" x="4359.5" y="296.3467">comp_arc_sta__baselibs__bit_manipulation</text><line style="stroke:#181818;stroke-width:0.5;" x1="4331.5" x2="4660.3057" y1="307.5" y2="307.5"/></g><!--class logic_arc_int__baselibs__bit_manipulation--><g id="elem_logic_arc_int__baselibs__bit_manipulation"><rect fill="#F1F1F1" height="40" id="logic_arc_int__baselibs__bit_manipulation" rx="2.5" ry="2.5" style="stroke:#181818;stroke-width:0.5;" width="321.8369" x="4184" y="158.5"/><ellipse cx="4199" cy="174.5" fill="#ADD1B2" rx="11" ry="11" style="stroke:#181818;stroke-width:1;"/><path d="M4201.9688,180.1406 Q4201.3906,180.4375 4200.75,180.5781 Q4200.1094,180.7344 4199.4063,180.7344 Q4196.9063,180.7344 4195.5781,179.0938 Q4194.2656,177.4375 4194.2656,174.3125 Q4194.2656,171.1875 4195.5781,169.5313 Q4196.9063,167.875 4199.4063,167.875 Q4200.1094,167.875 4200.75,168.0313 Q4201.4063,168.1875 4201.9688,168.4844 L4201.9688,171.2031 Q4201.3438,170.625 4200.75,170.3594 Q4200.1563,170.0781 4199.5313,170.0781 Q4198.1875,170.0781 4197.5,171.1563 Q4196.8125,172.2188 4196.8125,174.3125 Q4196.8125,176.4063 4197.5,177.4844 Q4198.1875,178.5469 4199.5313,178.5469 Q4200.1563,178.5469 4200.75,178.2813 Q4201.3438,178 4201.9688,177.4219 L4201.9688,180.1406 Z " fill="#000000"/><text fill="#000000" font-family="sans-serif" font-size="14" lengthAdjust="spacing" textLength="289.8369" x="4213" y="179.3467">logic_arc_int__baselibs__bit_manipulation</text><line style="stroke:#181818;stroke-width:0.5;" x1="4185" x2="4504.8369" y1="190.5" y2="190.5"/></g><!--class logic_arc_int__baselibs__json--><g id="elem_logic_arc_int__baselibs__json"><rect fill="#F1F1F1" height="40" id="logic_arc_int__baselibs__json" rx="2.5" ry="2.5" style="stroke:#181818;stroke-width:0.5;" width="233.168" x="16.5" y="158.5"/><ellipse cx="31.5" cy="174.5" fill="#ADD1B2" rx="11" ry="11" style="stroke:#181818;stroke-width:1;"/><path d="M34.4688,180.1406 Q33.8906,180.4375 33.25,180.5781 Q32.6094,180.7344 31.9063,180.7344 Q29.4063,180.7344 28.0781,179.0938 Q26.7656,177.4375 26.7656,174.3125 Q26.7656,171.1875 28.0781,169.5313 Q29.4063,167.875 31.9063,167.875 Q32.6094,167.875 33.25,168.0313 Q33.9063,168.1875 34.4688,168.4844 L34.4688,171.2031 Q33.8438,170.625 33.25,170.3594 Q32.6563,170.0781 32.0313,170.0781 Q30.6875,170.0781 30,171.1563 Q29.3125,172.2188 29.3125,174.3125 Q29.3125,176.4063 30,177.4844 Q30.6875,178.5469 32.0313,178.5469 Q32.6563,178.5469 33.25,178.2813 Q33.8438,178 34.4688,177.4219 L34.4688,180.1406 Z " fill="#000000"/><text fill="#000000" font-family="sans-serif" font-size="14" lengthAdjust="spacing" textLength="201.168" x="45.5" y="179.3467">logic_arc_int__baselibs__json</text><line style="stroke:#181818;stroke-width:0.5;" x1="17.5" x2="248.668" y1="190.5" y2="190.5"/></g><!--class logic_arc_int__baselibs__message_passing--><g id="elem_logic_arc_int__baselibs__message_passing"><rect fill="#F1F1F1" height="40" id="logic_arc_int__baselibs__message_passing" rx="2.5" ry="2.5" style="stroke:#181818;stroke-width:0.5;" width="328.167" x="4912" y="158.5"/><ellipse cx="4927" cy="174.5" fill="#ADD1B2" rx="11" ry="11" style="stroke:#181818;stroke-width:1;"/><path d="M4929.9688,180.1406 Q4929.3906,180.4375 4928.75,180.5781 Q4928.1094,180.7344 4927.4063,180.7344 Q4924.9063,180.7344 4923.5781,179.0938 Q4922.2656,177.4375 4922.2656,174.3125 Q4922.2656,171.1875 4923.5781,169.5313 Q4924.9063,167.875 4927.4063,167.875 Q4928.1094,167.875 4928.75,168.0313 Q4929.4063,168.1875 4929.9688,168.4844 L4929.9688,171.2031 Q4929.3438,170.625 4928.75,170.3594 Q4928.1563,170.0781 4927.5313,170.0781 Q4926.1875,170.0781 4925.5,171.1563 Q4924.8125,172.2188 4924.8125,174.3125 Q4924.8125,176.4063 4925.5,177.4844 Q4926.1875,178.5469 4927.5313,178.5469 Q4928.1563,178.5469 4928.75,178.2813 Q4929.3438,178 4929.9688,177.4219 L4929.9688,180.1406 Z " fill="#000000"/><text fill="#000000" font-family="sans-serif" font-size="14" lengthAdjust="spacing" textLength="296.167" x="4941" y="179.3467">logic_arc_int__baselibs__message_passing</text><line style="stroke:#181818;stroke-width:0.5;" x1="4913" x2="5239.167" y1="190.5" y2="190.5"/></g><!--class comp_arc_sta__baselibs__concurrency--><g id="elem_comp_arc_sta__baselibs__concurrency"><rect fill="#F1F1F1" height="40" id="comp_arc_sta__baselibs__concurrency" rx="2.5" ry="2.5" style="stroke:#181818;stroke-width:0.5;" width="300.2012" x="2009" y="275.5"/><ellipse cx="2024" cy="291.5" fill="#ADD1B2" rx="11" ry="11" style="stroke:#181818;stroke-width:1;"/><path d="M2026.9688,297.1406 Q2026.3906,297.4375 2025.75,297.5781 Q2025.1094,297.7344 2024.4063,297.7344 Q2021.9063,297.7344 2020.5781,296.0938 Q2019.2656,294.4375 2019.2656,291.3125 Q2019.2656,288.1875 2020.5781,286.5313 Q2021.9063,284.875 2024.4063,284.875 Q2025.1094,284.875 2025.75,285.0313 Q2026.4063,285.1875 2026.9688,285.4844 L2026.9688,288.2031 Q2026.3438,287.625 2025.75,287.3594 Q2025.1563,287.0781 2024.5313,287.0781 Q2023.1875,287.0781 2022.5,288.1563 Q2021.8125,289.2188 2021.8125,291.3125 Q2021.8125,293.4063 2022.5,294.4844 Q2023.1875,295.5469 2024.5313,295.5469 Q2025.1563,295.5469 2025.75,295.2813 Q2026.3438,295 2026.9688,294.4219 L2026.9688,297.1406 Z " fill="#000000"/><text fill="#000000" font-family="sans-serif" font-size="14" lengthAdjust="spacing" textLength="268.2012" x="2038" y="296.3467">comp_arc_sta__baselibs__concurrency</text><line style="stroke:#181818;stroke-width:0.5;" x1="2010" x2="2308.2012" y1="307.5" y2="307.5"/></g><!--class logic_arc_int__baselibs__promise--><g id="elem_logic_arc_int__baselibs__promise"><rect fill="#F1F1F1" height="40" id="logic_arc_int__baselibs__promise" rx="2.5" ry="2.5" style="stroke:#181818;stroke-width:0.5;" width="261.1885" x="1919.5" y="158.5"/><ellipse cx="1934.5" cy="174.5" fill="#ADD1B2" rx="11" ry="11" style="stroke:#181818;stroke-width:1;"/><path d="M1937.4688,180.1406 Q1936.8906,180.4375 1936.25,180.5781 Q1935.6094,180.7344 1934.9063,180.7344 Q1932.4063,180.7344 1931.0781,179.0938 Q1929.7656,177.4375 1929.7656,174.3125 Q1929.7656,171.1875 1931.0781,169.5313 Q1932.4063,167.875 1934.9063,167.875 Q1935.6094,167.875 1936.25,168.0313 Q1936.9063,168.1875 1937.4688,168.4844 L1937.4688,171.2031 Q1936.8438,170.625 1936.25,170.3594 Q1935.6563,170.0781 1935.0313,170.0781 Q1933.6875,170.0781 1933,171.1563 Q1932.3125,172.2188 1932.3125,174.3125 Q1932.3125,176.4063 1933,177.4844 Q1933.6875,178.5469 1935.0313,178.5469 Q1935.6563,178.5469 1936.25,178.2813 Q1936.8438,178 1937.4688,177.4219 L1937.4688,180.1406 Z " fill="#000000"/><text fill="#000000" font-family="sans-serif" font-size="14" lengthAdjust="spacing" textLength="229.1885" x="1948.5" y="179.3467">logic_arc_int__baselibs__promise</text><line style="stroke:#181818;stroke-width:0.5;" x1="1920.5" x2="2179.6885" y1="190.5" y2="190.5"/></g><!--class logic_arc_int__baselibs__utils_base64--><g id="elem_logic_arc_int__baselibs__utils_base64"><rect fill="#F1F1F1" height="40" id="logic_arc_int__baselibs__utils_base64" rx="2.5" ry="2.5" style="stroke:#181818;stroke-width:0.5;" width="292.1689" x="3506" y="158.5"/><ellipse cx="3521" cy="174.5" fill="#ADD1B2" rx="11" ry="11" style="stroke:#181818;stroke-width:1;"/><path d="M3523.9688,180.1406 Q3523.3906,180.4375 3522.75,180.5781 Q3522.1094,180.7344 3521.4063,180.7344 Q3518.9063,180.7344 3517.5781,179.0938 Q3516.2656,177.4375 3516.2656,174.3125 Q3516.2656,171.1875 3517.5781,169.5313 Q3518.9063,167.875 3521.4063,167.875 Q3522.1094,167.875 3522.75,168.0313 Q3523.4063,168.1875 3523.9688,168.4844 L3523.9688,171.2031 Q3523.3438,170.625 3522.75,170.3594 Q3522.1563,170.0781 3521.5313,170.0781 Q3520.1875,170.0781 3519.5,171.1563 Q3518.8125,172.2188 3518.8125,174.3125 Q3518.8125,176.4063 3519.5,177.4844 Q3520.1875,178.5469 3521.5313,178.5469 Q3522.1563,178.5469 3522.75,178.2813 Q3523.3438,178 3523.9688,177.4219 L3523.9688,180.1406 Z " fill="#000000"/><text fill="#000000" font-family="sans-serif" font-size="14" lengthAdjust="spacing" textLength="260.1689" x="3535" y="179.3467">logic_arc_int__baselibs__utils_base64</text><line style="stroke:#181818;stroke-width:0.5;" x1="3507" x2="3797.1689" y1="190.5" y2="190.5"/></g><!--class logic_arc_int__baselibs__bit_mask_operator--><g id="elem_logic_arc_int__baselibs__bit_mask_operator"><rect fill="#F1F1F1" height="40" id="logic_arc_int__baselibs__bit_mask_operator" rx="2.5" ry="2.5" style="stroke:#181818;stroke-width:0.5;" width="334.6406" x="4541.5" y="158.5"/><ellipse cx="4556.5" cy="174.5" fill="#ADD1B2" rx="11" ry="11" style="stroke:#181818;stroke-width:1;"/><path d="M4559.4688,180.1406 Q4558.8906,180.4375 4558.25,180.5781 Q4557.6094,180.7344 4556.9063,180.7344 Q4554.4063,180.7344 4553.0781,179.0938 Q4551.7656,177.4375 4551.7656,174.3125 Q4551.7656,171.1875 4553.0781,169.5313 Q4554.4063,167.875 4556.9063,167.875 Q4557.6094,167.875 4558.25,168.0313 Q4558.9063,168.1875 4559.4688,168.4844 L4559.4688,171.2031 Q4558.8438,170.625 4558.25,170.3594 Q4557.6563,170.0781 4557.0313,170.0781 Q4555.6875,170.0781 4555,171.1563 Q4554.3125,172.2188 4554.3125,174.3125 Q4554.3125,176.4063 4555,177.4844 Q4555.6875,178.5469 4557.0313,178.5469 Q4557.6563,178.5469 4558.25,178.2813 Q4558.8438,178 4559.4688,177.4219 L4559.4688,180.1406 Z " fill="#000000"/><text fill="#000000" font-family="sans-serif" font-size="14" lengthAdjust="spacing" textLength="302.6406" x="4570.5" y="179.3467">logic_arc_int__baselibs__bit_mask_operator</text><line style="stroke:#181818;stroke-width:0.5;" x1="4542.5" x2="4875.1406" y1="190.5" y2="190.5"/></g><!--class logic_arc_int__baselibs__utils_scoped_op--><g id="elem_logic_arc_int__baselibs__utils_scoped_op"><rect fill="#F1F1F1" height="40" id="logic_arc_int__baselibs__utils_scoped_op" rx="2.5" ry="2.5" style="stroke:#181818;stroke-width:0.5;" width="315.377" x="3833.5" y="158.5"/><ellipse cx="3848.5" cy="174.5" fill="#ADD1B2" rx="11" ry="11" style="stroke:#181818;stroke-width:1;"/><path d="M3851.4688,180.1406 Q3850.8906,180.4375 3850.25,180.5781 Q3849.6094,180.7344 3848.9063,180.7344 Q3846.4063,180.7344 3845.0781,179.0938 Q3843.7656,177.4375 3843.7656,174.3125 Q3843.7656,171.1875 3845.0781,169.5313 Q3846.4063,167.875 3848.9063,167.875 Q3849.6094,167.875 3850.25,168.0313 Q3850.9063,168.1875 3851.4688,168.4844 L3851.4688,171.2031 Q3850.8438,170.625 3850.25,170.3594 Q3849.6563,170.0781 3849.0313,170.0781 Q3847.6875,170.0781 3847,171.1563 Q3846.3125,172.2188 3846.3125,174.3125 Q3846.3125,176.4063 3847,177.4844 Q3847.6875,178.5469 3849.0313,178.5469 Q3849.6563,178.5469 3850.25,178.2813 Q3850.8438,178 3851.4688,177.4219 L3851.4688,180.1406 Z " fill="#000000"/><text fill="#000000" font-family="sans-serif" font-size="14" lengthAdjust="spacing" textLength="283.377" x="3862.5" y="179.3467">logic_arc_int__baselibs__utils_scoped_op</text><line style="stroke:#181818;stroke-width:0.5;" x1="3834.5" x2="4147.877" y1="190.5" y2="190.5"/></g><!--class logic_arc_int__baselibs__intrusive_list--><g id="elem_logic_arc_int__baselibs__intrusive_list"><rect fill="#F1F1F1" height="40" id="logic_arc_int__baselibs__intrusive_list" rx="2.5" ry="2.5" style="stroke:#181818;stroke-width:0.5;" width="293.0713" x="5618.5" y="158.5"/><ellipse cx="5633.5" cy="174.5" fill="#ADD1B2" rx="11" ry="11" style="stroke:#181818;stroke-width:1;"/><path d="M5636.4688,180.1406 Q5635.8906,180.4375 5635.25,180.5781 Q5634.6094,180.7344 5633.9063,180.7344 Q5631.4063,180.7344 5630.0781,179.0938 Q5628.7656,177.4375 5628.7656,174.3125 Q5628.7656,171.1875 5630.0781,169.5313 Q5631.4063,167.875 5633.9063,167.875 Q5634.6094,167.875 5635.25,168.0313 Q5635.9063,168.1875 5636.4688,168.4844 L5636.4688,171.2031 Q5635.8438,170.625 5635.25,170.3594 Q5634.6563,170.0781 5634.0313,170.0781 Q5632.6875,170.0781 5632,171.1563 Q5631.3125,172.2188 5631.3125,174.3125 Q5631.3125,176.4063 5632,177.4844 Q5632.6875,178.5469 5634.0313,178.5469 Q5634.6563,178.5469 5635.25,178.2813 Q5635.8438,178 5636.4688,177.4219 L5636.4688,180.1406 Z " fill="#000000"/><text fill="#000000" font-family="sans-serif" font-size="14" lengthAdjust="spacing" textLength="261.0713" x="5647.5" y="179.3467">logic_arc_int__baselibs__intrusive_list</text><line style="stroke:#181818;stroke-width:0.5;" x1="5619.5" x2="5910.5713" y1="190.5" y2="190.5"/></g><!--class logic_arc_int__baselibs__shared_future--><g id="elem_logic_arc_int__baselibs__shared_future"><rect fill="#F1F1F1" height="40" id="logic_arc_int__baselibs__shared_future" rx="2.5" ry="2.5" style="stroke:#181818;stroke-width:0.5;" width="302.0811" x="2216" y="158.5"/><ellipse cx="2231" cy="174.5" fill="#ADD1B2" rx="11" ry="11" style="stroke:#181818;stroke-width:1;"/><path d="M2233.9688,180.1406 Q2233.3906,180.4375 2232.75,180.5781 Q2232.1094,180.7344 2231.4063,180.7344 Q2228.9063,180.7344 2227.5781,179.0938 Q2226.2656,177.4375 2226.2656,174.3125 Q2226.2656,171.1875 2227.5781,169.5313 Q2228.9063,167.875 2231.4063,167.875 Q2232.1094,167.875 2232.75,168.0313 Q2233.4063,168.1875 2233.9688,168.4844 L2233.9688,171.2031 Q2233.3438,170.625 2232.75,170.3594 Q2232.1563,170.0781 2231.5313,170.0781 Q2230.1875,170.0781 2229.5,171.1563 Q2228.8125,172.2188 2228.8125,174.3125 Q2228.8125,176.4063 2229.5,177.4844 Q2230.1875,178.5469 2231.5313,178.5469 Q2232.1563,178.5469 2232.75,178.2813 Q2233.3438,178 2233.9688,177.4219 L2233.9688,180.1406 Z " fill="#000000"/><text fill="#000000" font-family="sans-serif" font-size="14" lengthAdjust="spacing" textLength="270.0811" x="2245" y="179.3467">logic_arc_int__baselibs__shared_future</text><line style="stroke:#181818;stroke-width:0.5;" x1="2217" x2="2517.0811" y1="190.5" y2="190.5"/></g><!--class comp_arc_sta__baselibs__result--><g id="elem_comp_arc_sta__baselibs__result"><rect fill="#F1F1F1" height="40" id="comp_arc_sta__baselibs__result" rx="2.5" ry="2.5" style="stroke:#181818;stroke-width:0.5;" width="253.4297" x="5942.5" y="275.5"/><ellipse cx="5957.5" cy="291.5" fill="#ADD1B2" rx="11" ry="11" style="stroke:#181818;stroke-width:1;"/><path d="M5960.4688,297.1406 Q5959.8906,297.4375 5959.25,297.5781 Q5958.6094,297.7344 5957.9063,297.7344 Q5955.4063,297.7344 5954.0781,296.0938 Q5952.7656,294.4375 5952.7656,291.3125 Q5952.7656,288.1875 5954.0781,286.5313 Q5955.4063,284.875 5957.9063,284.875 Q5958.6094,284.875 5959.25,285.0313 Q5959.9063,285.1875 5960.4688,285.4844 L5960.4688,288.2031 Q5959.8438,287.625 5959.25,287.3594 Q5958.6563,287.0781 5958.0313,287.0781 Q5956.6875,287.0781 5956,288.1563 Q5955.3125,289.2188 5955.3125,291.3125 Q5955.3125,293.4063 5956,294.4844 Q5956.6875,295.5469 5958.0313,295.5469 Q5958.6563,295.5469 5959.25,295.2813 Q5959.8438,295 5960.4688,294.4219 L5960.4688,297.1406 Z " fill="#000000"/><text fill="#000000" font-family="sans-serif" font-size="14" lengthAdjust="spacing" textLength="221.4297" x="5971.5" y="296.3467">comp_arc_sta__baselibs__result</text><line style="stroke:#181818;stroke-width:0.5;" x1="5943.5" x2="6194.9297" y1="307.5" y2="307.5"/></g><!--class logic_arc_int__baselibs__result--><g id="elem_logic_arc_int__baselibs__result"><rect fill="#F1F1F1" height="40" id="logic_arc_int__baselibs__result" rx="2.5" ry="2.5" style="stroke:#181818;stroke-width:0.5;" width="244.4609" x="5947" y="158.5"/><ellipse cx="5962" cy="174.5" fill="#ADD1B2" rx="11" ry="11" style="stroke:#181818;stroke-width:1;"/><path d="M5964.9688,180.1406 Q5964.3906,180.4375 5963.75,180.5781 Q5963.1094,180.7344 5962.4063,180.7344 Q5959.9063,180.7344 5958.5781,179.0938 Q5957.2656,177.4375 5957.2656,174.3125 Q5957.2656,171.1875 5958.5781,169.5313 Q5959.9063,167.875 5962.4063,167.875 Q5963.1094,167.875 5963.75,168.0313 Q5964.4063,168.1875 5964.9688,168.4844 L5964.9688,171.2031 Q5964.3438,170.625 5963.75,170.3594 Q5963.1563,170.0781 5962.5313,170.0781 Q5961.1875,170.0781 5960.5,171.1563 Q5959.8125,172.2188 5959.8125,174.3125 Q5959.8125,176.4063 5960.5,177.4844 Q5961.1875,178.5469 5962.5313,178.5469 Q5963.1563,178.5469 5963.75,178.2813 Q5964.3438,178 5964.9688,177.4219 L5964.9688,180.1406 Z " fill="#000000"/><text fill="#000000" font-family="sans-serif" font-size="14" lengthAdjust="spacing" textLength="212.4609" x="5976" y="179.3467">logic_arc_int__baselibs__result</text><line style="stroke:#181818;stroke-width:0.5;" x1="5948" x2="6190.4609" y1="190.5" y2="190.5"/></g><!--class comp_arc_sta__baselibs__containers--><g id="elem_comp_arc_sta__baselibs__containers"><rect fill="#F1F1F1" height="40" id="comp_arc_sta__baselibs__containers" rx="2.5" ry="2.5" style="stroke:#181818;stroke-width:0.5;" width="287.1445" x="5452.5" y="275.5"/><ellipse cx="5467.5" cy="291.5" fill="#ADD1B2" rx="11" ry="11" style="stroke:#181818;stroke-width:1;"/><path d="M5470.4688,297.1406 Q5469.8906,297.4375 5469.25,297.5781 Q5468.6094,297.7344 5467.9063,297.7344 Q5465.4063,297.7344 5464.0781,296.0938 Q5462.7656,294.4375 5462.7656,291.3125 Q5462.7656,288.1875 5464.0781,286.5313 Q5465.4063,284.875 5467.9063,284.875 Q5468.6094,284.875 5469.25,285.0313 Q5469.9063,285.1875 5470.4688,285.4844 L5470.4688,288.2031 Q5469.8438,287.625 5469.25,287.3594 Q5468.6563,287.0781 5468.0313,287.0781 Q5466.6875,287.0781 5466,288.1563 Q5465.3125,289.2188 5465.3125,291.3125 Q5465.3125,293.4063 5466,294.4844 Q5466.6875,295.5469 5468.0313,295.5469 Q5468.6563,295.5469 5469.25,295.2813 Q5469.8438,295 5470.4688,294.4219 L5470.4688,297.1406 Z " fill="#000000"/><text fill="#000000" font-family="sans-serif" font-size="14" lengthAdjust="spacing" textLength="255.1445" x="5481.5" y="296.3467">comp_arc_sta__baselibs__containers</text><line style="stroke:#181818;stroke-width:0.5;" x1="5453.5" x2="5738.6445" y1="307.5" y2="307.5"/></g><!--class logic_arc_int__baselibs__dynamic_array--><g id="elem_logic_arc_int__baselibs__dynamic_array"><rect fill="#F1F1F1" height="40" id="logic_arc_int__baselibs__dynamic_array" rx="2.5" ry="2.5" style="stroke:#181818;stroke-width:0.5;" width="308.3496" x="5275" y="158.5"/><ellipse cx="5290" cy="174.5" fill="#ADD1B2" rx="11" ry="11" style="stroke:#181818;stroke-width:1;"/><path d="M5292.9688,180.1406 Q5292.3906,180.4375 5291.75,180.5781 Q5291.1094,180.7344 5290.4063,180.7344 Q5287.9063,180.7344 5286.5781,179.0938 Q5285.2656,177.4375 5285.2656,174.3125 Q5285.2656,171.1875 5286.5781,169.5313 Q5287.9063,167.875 5290.4063,167.875 Q5291.1094,167.875 5291.75,168.0313 Q5292.4063,168.1875 5292.9688,168.4844 L5292.9688,171.2031 Q5292.3438,170.625 5291.75,170.3594 Q5291.1563,170.0781 5290.5313,170.0781 Q5289.1875,170.0781 5288.5,171.1563 Q5287.8125,172.2188 5287.8125,174.3125 Q5287.8125,176.4063 5288.5,177.4844 Q5289.1875,178.5469 5290.5313,178.5469 Q5291.1563,178.5469 5291.75,178.2813 Q5292.3438,178 5292.9688,177.4219 L5292.9688,180.1406 Z " fill="#000000"/><text fill="#000000" font-family="sans-serif" font-size="14" lengthAdjust="spacing" textLength="276.3496" x="5304" y="179.3467">logic_arc_int__baselibs__dynamic_array</text><line style="stroke:#181818;stroke-width:0.5;" x1="5276" x2="5582.3496" y1="190.5" y2="190.5"/></g><!--class logic_arc_int__baselibs__condition_variable--><g id="elem_logic_arc_int__baselibs__condition_variable"><rect fill="#F1F1F1" height="40" id="logic_arc_int__baselibs__condition_variable" rx="2.5" ry="2.5" style="stroke:#181818;stroke-width:0.5;" width="332.7539" x="1551.5" y="158.5"/><ellipse cx="1566.5" cy="174.5" fill="#ADD1B2" rx="11" ry="11" style="stroke:#181818;stroke-width:1;"/><path d="M1569.4688,180.1406 Q1568.8906,180.4375 1568.25,180.5781 Q1567.6094,180.7344 1566.9063,180.7344 Q1564.4063,180.7344 1563.0781,179.0938 Q1561.7656,177.4375 1561.7656,174.3125 Q1561.7656,171.1875 1563.0781,169.5313 Q1564.4063,167.875 1566.9063,167.875 Q1567.6094,167.875 1568.25,168.0313 Q1568.9063,168.1875 1569.4688,168.4844 L1569.4688,171.2031 Q1568.8438,170.625 1568.25,170.3594 Q1567.6563,170.0781 1567.0313,170.0781 Q1565.6875,170.0781 1565,171.1563 Q1564.3125,172.2188 1564.3125,174.3125 Q1564.3125,176.4063 1565,177.4844 Q1565.6875,178.5469 1567.0313,178.5469 Q1567.6563,178.5469 1568.25,178.2813 Q1568.8438,178 1569.4688,177.4219 L1569.4688,180.1406 Z " fill="#000000"/><text fill="#000000" font-family="sans-serif" font-size="14" lengthAdjust="spacing" textLength="300.7539" x="1580.5" y="179.3467">logic_arc_int__baselibs__condition_variable</text><line style="stroke:#181818;stroke-width:0.5;" x1="1552.5" x2="1883.2539" y1="190.5" y2="190.5"/></g><!--class logic_arc_int__baselibs__future--><g id="elem_logic_arc_int__baselibs__future"><rect fill="#F1F1F1" height="40" id="logic_arc_int__baselibs__future" rx="2.5" ry="2.5" style="stroke:#181818;stroke-width:0.5;" width="247.0791" x="953.5" y="158.5"/><ellipse cx="968.5" cy="174.5" fill="#ADD1B2" rx="11" ry="11" style="stroke:#181818;stroke-width:1;"/><path d="M971.4688,180.1406 Q970.8906,180.4375 970.25,180.5781 Q969.6094,180.7344 968.9063,180.7344 Q966.4063,180.7344 965.0781,179.0938 Q963.7656,177.4375 963.7656,174.3125 Q963.7656,171.1875 965.0781,169.5313 Q966.4063,167.875 968.9063,167.875 Q969.6094,167.875 970.25,168.0313 Q970.9063,168.1875 971.4688,168.4844 L971.4688,171.2031 Q970.8438,170.625 970.25,170.3594 Q969.6563,170.0781 969.0313,170.0781 Q967.6875,170.0781 967,171.1563 Q966.3125,172.2188 966.3125,174.3125 Q966.3125,176.4063 967,177.4844 Q967.6875,178.5469 969.0313,178.5469 Q969.6563,178.5469 970.25,178.2813 Q970.8438,178 971.4688,177.4219 L971.4688,180.1406 Z " fill="#000000"/><text fill="#000000" font-family="sans-serif" font-size="14" lengthAdjust="spacing" textLength="215.0791" x="982.5" y="179.3467">logic_arc_int__baselibs__future</text><line style="stroke:#181818;stroke-width:0.5;" x1="954.5" x2="1199.5791" y1="190.5" y2="190.5"/></g><!--class logic_arc_int__baselibs__filesystem--><g id="elem_logic_arc_int__baselibs__filesystem"><rect fill="#F1F1F1" height="40" id="logic_arc_int__baselibs__filesystem" rx="2.5" ry="2.5" style="stroke:#181818;stroke-width:0.5;" width="276.4805" x="642" y="158.5"/><ellipse cx="657" cy="174.5" fill="#ADD1B2" rx="11" ry="11" style="stroke:#181818;stroke-width:1;"/><path d="M659.9688,180.1406 Q659.3906,180.4375 658.75,180.5781 Q658.1094,180.7344 657.4063,180.7344 Q654.9063,180.7344 653.5781,179.0938 Q652.2656,177.4375 652.2656,174.3125 Q652.2656,171.1875 653.5781,169.5313 Q654.9063,167.875 657.4063,167.875 Q658.1094,167.875 658.75,168.0313 Q659.4063,168.1875 659.9688,168.4844 L659.9688,171.2031 Q659.3438,170.625 658.75,170.3594 Q658.1563,170.0781 657.5313,170.0781 Q656.1875,170.0781 655.5,171.1563 Q654.8125,172.2188 654.8125,174.3125 Q654.8125,176.4063 655.5,177.4844 Q656.1875,178.5469 657.5313,178.5469 Q658.1563,178.5469 658.75,178.2813 Q659.3438,178 659.9688,177.4219 L659.9688,180.1406 Z " fill="#000000"/><text fill="#000000" font-family="sans-serif" font-size="14" lengthAdjust="spacing" textLength="244.4805" x="671" y="179.3467">logic_arc_int__baselibs__filesystem</text><line style="stroke:#181818;stroke-width:0.5;" x1="643" x2="917.4805" y1="190.5" y2="190.5"/></g><!--class comp_arc_sta__baselibs__utils--><g id="elem_comp_arc_sta__baselibs__utils"><rect fill="#F1F1F1" height="40" id="comp_arc_sta__baselibs__utils" rx="2.5" ry="2.5" style="stroke:#181818;stroke-width:0.5;" width="242.9502" x="3672.5" y="275.5"/><ellipse cx="3687.5" cy="291.5" fill="#ADD1B2" rx="11" ry="11" style="stroke:#181818;stroke-width:1;"/><path d="M3690.4688,297.1406 Q3689.8906,297.4375 3689.25,297.5781 Q3688.6094,297.7344 3687.9063,297.7344 Q3685.4063,297.7344 3684.0781,296.0938 Q3682.7656,294.4375 3682.7656,291.3125 Q3682.7656,288.1875 3684.0781,286.5313 Q3685.4063,284.875 3687.9063,284.875 Q3688.6094,284.875 3689.25,285.0313 Q3689.9063,285.1875 3690.4688,285.4844 L3690.4688,288.2031 Q3689.8438,287.625 3689.25,287.3594 Q3688.6563,287.0781 3688.0313,287.0781 Q3686.6875,287.0781 3686,288.1563 Q3685.3125,289.2188 3685.3125,291.3125 Q3685.3125,293.4063 3686,294.4844 Q3686.6875,295.5469 3688.0313,295.5469 Q3688.6563,295.5469 3689.25,295.2813 Q3689.8438,295 3690.4688,294.4219 L3690.4688,297.1406 Z " fill="#000000"/><text fill="#000000" font-family="sans-serif" font-size="14" lengthAdjust="spacing" textLength="210.9502" x="3701.5" y="296.3467">comp_arc_sta__baselibs__utils</text><line style="stroke:#181818;stroke-width:0.5;" x1="3673.5" x2="3914.4502" y1="307.5" y2="307.5"/></g><!--class logic_arc_int__baselibs__memory_shared--><g id="elem_logic_arc_int__baselibs__memory_shared"><rect fill="#F1F1F1" height="40" id="logic_arc_int__baselibs__memory_shared" rx="2.5" ry="2.5" style="stroke:#181818;stroke-width:0.5;" width="318.043" x="289" y="158.5"/><ellipse cx="304" cy="174.5" fill="#ADD1B2" rx="11" ry="11" style="stroke:#181818;stroke-width:1;"/><path d="M306.9688,180.1406 Q306.3906,180.4375 305.75,180.5781 Q305.1094,180.7344 304.4063,180.7344 Q301.9063,180.7344 300.5781,179.0938 Q299.2656,177.4375 299.2656,174.3125 Q299.2656,171.1875 300.5781,169.5313 Q301.9063,167.875 304.4063,167.875 Q305.1094,167.875 305.75,168.0313 Q306.4063,168.1875 306.9688,168.4844 L306.9688,171.2031 Q306.3438,170.625 305.75,170.3594 Q305.1563,170.0781 304.5313,170.0781 Q303.1875,170.0781 302.5,171.1563 Q301.8125,172.2188 301.8125,174.3125 Q301.8125,176.4063 302.5,177.4844 Q303.1875,178.5469 304.5313,178.5469 Q305.1563,178.5469 305.75,178.2813 Q306.3438,178 306.9688,177.4219 L306.9688,180.1406 Z " fill="#000000"/><text fill="#000000" font-family="sans-serif" font-size="14" lengthAdjust="spacing" textLength="286.043" x="318" y="179.3467">logic_arc_int__baselibs__memory_shared</text><line style="stroke:#181818;stroke-width:0.5;" x1="290" x2="606.043" y1="190.5" y2="190.5"/></g><!--class logic_arc_int__baselibs__task_result--><g id="elem_logic_arc_int__baselibs__task_result"><rect fill="#F1F1F1" height="40" id="logic_arc_int__baselibs__task_result" rx="2.5" ry="2.5" style="stroke:#181818;stroke-width:0.5;" width="280.9307" x="1235.5" y="158.5"/><ellipse cx="1250.5" cy="174.5" fill="#ADD1B2" rx="11" ry="11" style="stroke:#181818;stroke-width:1;"/><path d="M1253.4688,180.1406 Q1252.8906,180.4375 1252.25,180.5781 Q1251.6094,180.7344 1250.9063,180.7344 Q1248.4063,180.7344 1247.0781,179.0938 Q1245.7656,177.4375 1245.7656,174.3125 Q1245.7656,171.1875 1247.0781,169.5313 Q1248.4063,167.875 1250.9063,167.875 Q1251.6094,167.875 1252.25,168.0313 Q1252.9063,168.1875 1253.4688,168.4844 L1253.4688,171.2031 Q1252.8438,170.625 1252.25,170.3594 Q1251.6563,170.0781 1251.0313,170.0781 Q1249.6875,170.0781 1249,171.1563 Q1248.3125,172.2188 1248.3125,174.3125 Q1248.3125,176.4063 1249,177.4844 Q1249.6875,178.5469 1251.0313,178.5469 Q1251.6563,178.5469 1252.25,178.2813 Q1252.8438,178 1253.4688,177.4219 L1253.4688,180.1406 Z " fill="#000000"/><text fill="#000000" font-family="sans-serif" font-size="14" lengthAdjust="spacing" textLength="248.9307" x="1264.5" y="179.3467">logic_arc_int__baselibs__task_result</text><line style="stroke:#181818;stroke-width:0.5;" x1="1236.5" x2="1515.4307" y1="190.5" y2="190.5"/></g><!--class comp_arc_sta__baselibs__message_passing--><g id="elem_comp_arc_sta__baselibs__message_passing"><rect fill="#F1F1F1" height="40" id="comp_arc_sta__baselibs__message_passing" rx="2.5" ry="2.5" style="stroke:#181818;stroke-width:0.5;" width="337.1357" x="4907.5" y="275.5"/><ellipse cx="4922.5" cy="291.5" fill="#ADD1B2" rx="11" ry="11" style="stroke:#181818;stroke-width:1;"/><path d="M4925.4688,297.1406 Q4924.8906,297.4375 4924.25,297.5781 Q4923.6094,297.7344 4922.9063,297.7344 Q4920.4063,297.7344 4919.0781,296.0938 Q4917.7656,294.4375 4917.7656,291.3125 Q4917.7656,288.1875 4919.0781,286.5313 Q4920.4063,284.875 4922.9063,284.875 Q4923.6094,284.875 4924.25,285.0313 Q4924.9063,285.1875 4925.4688,285.4844 L4925.4688,288.2031 Q4924.8438,287.625 4924.25,287.3594 Q4923.6563,287.0781 4923.0313,287.0781 Q4921.6875,287.0781 4921,288.1563 Q4920.3125,289.2188 4920.3125,291.3125 Q4920.3125,293.4063 4921,294.4844 Q4921.6875,295.5469 4923.0313,295.5469 Q4923.6563,295.5469 4924.25,295.2813 Q4924.8438,295 4925.4688,294.4219 L4925.4688,297.1406 Z " fill="#000000"/><text fill="#000000" font-family="sans-serif" font-size="14" lengthAdjust="spacing" textLength="305.1357" x="4936.5" y="296.3467">comp_arc_sta__baselibs__message_passing</text><line style="stroke:#181818;stroke-width:0.5;" x1="4908.5" x2="5243.6357" y1="307.5" y2="307.5"/></g><!--class comp_arc_sta__baselibs__filesystem--><g id="elem_comp_arc_sta__baselibs__filesystem"><rect fill="#F1F1F1" height="40" id="comp_arc_sta__baselibs__filesystem" rx="2.5" ry="2.5" style="stroke:#181818;stroke-width:0.5;" width="285.4492" x="646.5" y="275.5"/><ellipse cx="661.5" cy="291.5" fill="#ADD1B2" rx="11" ry="11" style="stroke:#181818;stroke-width:1;"/><path d="M664.4688,297.1406 Q663.8906,297.4375 663.25,297.5781 Q662.6094,297.7344 661.9063,297.7344 Q659.4063,297.7344 658.0781,296.0938 Q656.7656,294.4375 656.7656,291.3125 Q656.7656,288.1875 658.0781,286.5313 Q659.4063,284.875 661.9063,284.875 Q662.6094,284.875 663.25,285.0313 Q663.9063,285.1875 664.4688,285.4844 L664.4688,288.2031 Q663.8438,287.625 663.25,287.3594 Q662.6563,287.0781 662.0313,287.0781 Q660.6875,287.0781 660,288.1563 Q659.3125,289.2188 659.3125,291.3125 Q659.3125,293.4063 660,294.4844 Q660.6875,295.5469 662.0313,295.5469 Q662.6563,295.5469 663.25,295.2813 Q663.8438,295 664.4688,294.4219 L664.4688,297.1406 Z " fill="#000000"/><text fill="#000000" font-family="sans-serif" font-size="14" lengthAdjust="spacing" textLength="253.4492" x="675.5" y="296.3467">comp_arc_sta__baselibs__filesystem</text><line style="stroke:#181818;stroke-width:0.5;" x1="647.5" x2="930.9492" y1="307.5" y2="307.5"/></g><!--class comp_arc_sta__baselibs__memory_shared--><g id="elem_comp_arc_sta__baselibs__memory_shared"><rect fill="#F1F1F1" height="40" id="comp_arc_sta__baselibs__memory_shared" rx="2.5" ry="2.5" style="stroke:#181818;stroke-width:0.5;" width="327.0117" x="284.5" y="275.5"/><ellipse cx="299.5" cy="291.5" fill="#ADD1B2" rx="11" ry="11" style="stroke:#181818;stroke-width:1;"/><path d="M302.4688,297.1406 Q301.8906,297.4375 301.25,297.5781 Q300.6094,297.7344 299.9063,297.7344 Q297.4063,297.7344 296.0781,296.0938 Q294.7656,294.4375 294.7656,291.3125 Q294.7656,288.1875 296.0781,286.5313 Q297.4063,284.875 299.9063,284.875 Q300.6094,284.875 301.25,285.0313 Q301.9063,285.1875 302.4688,285.4844 L302.4688,288.2031 Q301.8438,287.625 301.25,287.3594 Q300.6563,287.0781 300.0313,287.0781 Q298.6875,287.0781 298,288.1563 Q297.3125,289.2188 297.3125,291.3125 Q297.3125,293.4063 298,294.4844 Q298.6875,295.5469 300.0313,295.5469 Q300.6563,295.5469 301.25,295.2813 Q301.8438,295 302.4688,294.4219 L302.4688,297.1406 Z " fill="#000000"/><text fill="#000000" font-family="sans-serif" font-size="14" lengthAdjust="spacing" textLength="295.0117" x="313.5" y="296.3467">comp_arc_sta__baselibs__memory_shared</text><line style="stroke:#181818;stroke-width:0.5;" x1="285.5" x2="610.5117" y1="307.5" y2="307.5"/></g><!--class logic_arc_int__baselibs__synchronized_queue--><g id="elem_logic_arc_int__baselibs__synchronized_queue"><rect fill="#F1F1F1" height="40" id="logic_arc_int__baselibs__synchronized_queue" rx="2.5" ry="2.5" style="stroke:#181818;stroke-width:0.5;" width="348.3604" x="3123" y="158.5"/><ellipse cx="3138" cy="174.5" fill="#ADD1B2" rx="11" ry="11" style="stroke:#181818;stroke-width:1;"/><path d="M3140.9688,180.1406 Q3140.3906,180.4375 3139.75,180.5781 Q3139.1094,180.7344 3138.4063,180.7344 Q3135.9063,180.7344 3134.5781,179.0938 Q3133.2656,177.4375 3133.2656,174.3125 Q3133.2656,171.1875 3134.5781,169.5313 Q3135.9063,167.875 3138.4063,167.875 Q3139.1094,167.875 3139.75,168.0313 Q3140.4063,168.1875 3140.9688,168.4844 L3140.9688,171.2031 Q3140.3438,170.625 3139.75,170.3594 Q3139.1563,170.0781 3138.5313,170.0781 Q3137.1875,170.0781 3136.5,171.1563 Q3135.8125,172.2188 3135.8125,174.3125 Q3135.8125,176.4063 3136.5,177.4844 Q3137.1875,178.5469 3138.5313,178.5469 Q3139.1563,178.5469 3139.75,178.2813 Q3140.3438,178 3140.9688,177.4219 L3140.9688,180.1406 Z " fill="#000000"/><text fill="#000000" font-family="sans-serif" font-size="14" lengthAdjust="spacing" textLength="316.3604" x="3152" y="179.3467">logic_arc_int__baselibs__synchronized_queue</text><line style="stroke:#181818;stroke-width:0.5;" x1="3124" x2="3470.3604" y1="190.5" y2="190.5"/></g><!--class logic_arc_int__baselibs__executor--><g id="elem_logic_arc_int__baselibs__executor"><rect fill="#F1F1F1" height="40" id="logic_arc_int__baselibs__executor" rx="2.5" ry="2.5" style="stroke:#181818;stroke-width:0.5;" width="266.4385" x="2822" y="158.5"/><ellipse cx="2837" cy="174.5" fill="#ADD1B2" rx="11" ry="11" style="stroke:#181818;stroke-width:1;"/><path d="M2839.9688,180.1406 Q2839.3906,180.4375 2838.75,180.5781 Q2838.1094,180.7344 2837.4063,180.7344 Q2834.9063,180.7344 2833.5781,179.0938 Q2832.2656,177.4375 2832.2656,174.3125 Q2832.2656,171.1875 2833.5781,169.5313 Q2834.9063,167.875 2837.4063,167.875 Q2838.1094,167.875 2838.75,168.0313 Q2839.4063,168.1875 2839.9688,168.4844 L2839.9688,171.2031 Q2839.3438,170.625 2838.75,170.3594 Q2838.1563,170.0781 2837.5313,170.0781 Q2836.1875,170.0781 2835.5,171.1563 Q2834.8125,172.2188 2834.8125,174.3125 Q2834.8125,176.4063 2835.5,177.4844 Q2836.1875,178.5469 2837.5313,178.5469 Q2838.1563,178.5469 2838.75,178.2813 Q2839.3438,178 2839.9688,177.4219 L2839.9688,180.1406 Z " fill="#000000"/><text fill="#000000" font-family="sans-serif" font-size="14" lengthAdjust="spacing" textLength="234.4385" x="2851" y="179.3467">logic_arc_int__baselibs__executor</text><line style="stroke:#181818;stroke-width:0.5;" x1="2823" x2="3087.4385" y1="190.5" y2="190.5"/></g><!--class logic_arc_int__baselibs__task--><g id="elem_logic_arc_int__baselibs__task"><rect fill="#F1F1F1" height="40" id="logic_arc_int__baselibs__task" rx="2.5" ry="2.5" style="stroke:#181818;stroke-width:0.5;" width="234.0156" x="2553" y="158.5"/><ellipse cx="2568" cy="174.5" fill="#ADD1B2" rx="11" ry="11" style="stroke:#181818;stroke-width:1;"/><path d="M2570.9688,180.1406 Q2570.3906,180.4375 2569.75,180.5781 Q2569.1094,180.7344 2568.4063,180.7344 Q2565.9063,180.7344 2564.5781,179.0938 Q2563.2656,177.4375 2563.2656,174.3125 Q2563.2656,171.1875 2564.5781,169.5313 Q2565.9063,167.875 2568.4063,167.875 Q2569.1094,167.875 2569.75,168.0313 Q2570.4063,168.1875 2570.9688,168.4844 L2570.9688,171.2031 Q2570.3438,170.625 2569.75,170.3594 Q2569.1563,170.0781 2568.5313,170.0781 Q2567.1875,170.0781 2566.5,171.1563 Q2565.8125,172.2188 2565.8125,174.3125 Q2565.8125,176.4063 2566.5,177.4844 Q2567.1875,178.5469 2568.5313,178.5469 Q2569.1563,178.5469 2569.75,178.2813 Q2570.3438,178 2570.9688,177.4219 L2570.9688,180.1406 Z " fill="#000000"/><text fill="#000000" font-family="sans-serif" font-size="14" lengthAdjust="spacing" textLength="202.0156" x="2582" y="179.3467">logic_arc_int__baselibs__task</text><line style="stroke:#181818;stroke-width:0.5;" x1="2554" x2="2786.0156" y1="190.5" y2="190.5"/></g><!--class comp_arc_sta__baselibs__json--><g id="elem_comp_arc_sta__baselibs__json"><rect fill="#F1F1F1" height="40" id="comp_arc_sta__baselibs__json" rx="2.5" ry="2.5" style="stroke:#181818;stroke-width:0.5;" width="242.1367" x="7" y="275.5"/><ellipse cx="22" cy="291.5" fill="#ADD1B2" rx="11" ry="11" style="stroke:#181818;stroke-width:1;"/><path d="M24.9688,297.1406 Q24.3906,297.4375 23.75,297.5781 Q23.1094,297.7344 22.4063,297.7344 Q19.9063,297.7344 18.5781,296.0938 Q17.2656,294.4375 17.2656,291.3125 Q17.2656,288.1875 18.5781,286.5313 Q19.9063,284.875 22.4063,284.875 Q23.1094,284.875 23.75,285.0313 Q24.4063,285.1875 24.9688,285.4844 L24.9688,288.2031 Q24.3438,287.625 23.75,287.3594 Q23.1563,287.0781 22.5313,287.0781 Q21.1875,287.0781 20.5,288.1563 Q19.8125,289.2188 19.8125,291.3125 Q19.8125,293.4063 20.5,294.4844 Q21.1875,295.5469 22.5313,295.5469 Q23.1563,295.5469 23.75,295.2813 Q24.3438,295 24.9688,294.4219 L24.9688,297.1406 Z " fill="#000000"/><text fill="#000000" font-family="sans-serif" font-size="14" lengthAdjust="spacing" textLength="210.1367" x="36" y="296.3467">comp_arc_sta__baselibs__json</text><line style="stroke:#181818;stroke-width:0.5;" x1="8" x2="248.1367" y1="307.5" y2="307.5"/></g><!--reverse link logic_arc_int__baselibs__bit_manipulation to comp_arc_sta__baselibs__bit_manipulation--><g id="link_logic_arc_int__baselibs__bit_manipulation_comp_arc_sta__baselibs__bit_manipulation"><path codeLine="15" d="M4375.0436,202.3849 C4403.0036,223.6749 4443.01,254.14 4470.9,275.38 " fill="transparent" id="logic_arc_int__baselibs__bit_manipulation-backto-comp_arc_sta__baselibs__bit_manipulation" style="stroke:#181818;stroke-width:1;"/><polygon fill="#181818" points="4370.27,198.75,4375.0072,207.3847,4374.248,201.7791,4379.8537,201.0199,4370.27,198.75" style="stroke:#181818;stroke-width:1;"/><text fill="#000000" font-family="sans-serif" font-size="13" lengthAdjust="spacing" textLength="76.9082" x="4431" y="241.5669">implements</text></g><!--link Feature_User to logic_arc_int__baselibs__json--><g id="link_Feature_User_logic_arc_int__baselibs__json"><path codeLine="16" d="M2909.87,45.38 C2691.96,49.73 1726.84,70.53 937,111.5 C640.66,126.87 566.14,127.8 271,158.5 C264.02,159.23 262.818,159.3213 255.588,160.1813 " fill="transparent" id="Feature_User-to-logic_arc_int__baselibs__json" style="stroke:#181818;stroke-width:1;"/><polygon fill="#181818" points="249.63,160.89,259.0395,163.799,254.595,160.2994,258.0945,155.855,249.63,160.89" style="stroke:#181818;stroke-width:1;"/><text fill="#000000" font-family="sans-serif" font-size="13" lengthAdjust="spacing" textLength="23.0103" x="938" y="124.5669">use</text></g><!--link Feature_User to logic_arc_int__baselibs__message_passing--><g id="link_Feature_User_logic_arc_int__baselibs__message_passing"><path codeLine="17" d="M3000.15,46.3 C3213.07,54.94 4137.97,94.52 4894,158.5 C4899.86,159 4899.844,158.9839 4905.864,159.5239 " fill="transparent" id="Feature_User-to-logic_arc_int__baselibs__message_passing" style="stroke:#181818;stroke-width:1;"/><polygon fill="#181818" points="4911.84,160.06,4903.2334,155.2719,4906.86,159.6133,4902.5186,163.2399,4911.84,160.06" style="stroke:#181818;stroke-width:1;"/><text fill="#000000" font-family="sans-serif" font-size="13" lengthAdjust="spacing" textLength="23.0103" x="4471" y="124.5669">use</text></g><!--reverse link logic_arc_int__baselibs__promise to comp_arc_sta__baselibs__concurrency--><g id="link_logic_arc_int__baselibs__promise_comp_arc_sta__baselibs__concurrency"><path codeLine="18" d="M2072.3673,203.105 C2092.4873,224.335 2120.55,253.94 2140.7,275.19 " fill="transparent" id="logic_arc_int__baselibs__promise-backto-comp_arc_sta__baselibs__concurrency" style="stroke:#181818;stroke-width:1;"/><polygon fill="#181818" points="2068.24,198.75,2071.5276,208.034,2071.6794,202.3791,2077.3342,202.5309,2068.24,198.75" style="stroke:#181818;stroke-width:1;"/><text fill="#000000" font-family="sans-serif" font-size="13" lengthAdjust="spacing" textLength="76.9082" x="2113" y="241.5669">implements</text></g><!--link Feature_User to logic_arc_int__baselibs__utils_base64--><g id="link_Feature_User_logic_arc_int__baselibs__utils_base64"><path codeLine="19" d="M3000.2,53.12 C3111.13,74.29 3393.0763,128.0954 3546.4663,157.3654 " fill="transparent" id="Feature_User-to-logic_arc_int__baselibs__utils_base64" style="stroke:#181818;stroke-width:1;"/><polygon fill="#181818" points="3552.36,158.49,3544.2693,152.8739,3547.4486,157.5528,3542.7698,160.7322,3552.36,158.49" style="stroke:#181818;stroke-width:1;"/><text fill="#000000" font-family="sans-serif" font-size="13" lengthAdjust="spacing" textLength="23.0103" x="3388" y="124.5669">use</text></g><!--link Feature_User to logic_arc_int__baselibs__bit_mask_operator--><g id="link_Feature_User_logic_arc_int__baselibs__bit_mask_operator"><path codeLine="20" d="M3000.26,47.3 C3187.65,59.02 3921.07,105.89 4523,158.5 C4528.98,159.02 4529.0947,159.0259 4535.2447,159.5859 " fill="transparent" id="Feature_User-to-logic_arc_int__baselibs__bit_mask_operator" style="stroke:#181818;stroke-width:1;"/><polygon fill="#181818" points="4541.22,160.13,4532.6198,155.3303,4536.2406,159.6766,4531.8944,163.2974,4541.22,160.13" style="stroke:#181818;stroke-width:1;"/><text fill="#000000" font-family="sans-serif" font-size="13" lengthAdjust="spacing" textLength="23.0103" x="4138" y="124.5669">use</text></g><!--link Feature_User to logic_arc_int__baselibs__utils_scoped_op--><g id="link_Feature_User_logic_arc_int__baselibs__utils_scoped_op"><path codeLine="21" d="M3000.18,50.3 C3145.25,68.92 3597.7388,127.0159 3836.7788,157.7059 " fill="transparent" id="Feature_User-to-logic_arc_int__baselibs__utils_scoped_op" style="stroke:#181818;stroke-width:1;"/><polygon fill="#181818" points="3842.73,158.47,3834.3126,153.3565,3837.7707,157.8333,3833.2939,161.2913,3842.73,158.47" style="stroke:#181818;stroke-width:1;"/><text fill="#000000" font-family="sans-serif" font-size="13" lengthAdjust="spacing" textLength="23.0103" x="3598" y="124.5669">use</text></g><!--link Feature_User to logic_arc_int__baselibs__intrusive_list--><g id="link_Feature_User_logic_arc_int__baselibs__intrusive_list"><path codeLine="22" d="M3000.09,45.61 C3210.74,50.88 4118.97,74.72 4863,111.5 C5190.82,127.71 5273.08,129.27 5600,158.5 C5606.03,159.04 5606.2086,159.0344 5612.4286,159.6444 " fill="transparent" id="Feature_User-to-logic_arc_int__baselibs__intrusive_list" style="stroke:#181818;stroke-width:1;"/><polygon fill="#181818" points="5618.4,160.23,5609.8334,155.3707,5613.4239,159.742,5609.0526,163.3325,5618.4,160.23" style="stroke:#181818;stroke-width:1;"/><text fill="#000000" font-family="sans-serif" font-size="13" lengthAdjust="spacing" textLength="23.0103" x="5196" y="124.5669">use</text></g><!--link Feature_User to logic_arc_int__baselibs__shared_future--><g id="link_Feature_User_logic_arc_int__baselibs__shared_future"><path codeLine="23" d="M2909.84,54.72 C2811.61,76.93 2583.1322,128.6163 2456.8622,157.1763 " fill="transparent" id="Feature_User-to-logic_arc_int__baselibs__shared_future" style="stroke:#181818;stroke-width:1;"/><polygon fill="#181818" points="2451.01,158.5,2460.6707,160.416,2455.8868,157.397,2458.9058,152.6131,2451.01,158.5" style="stroke:#181818;stroke-width:1;"/><text fill="#000000" font-family="sans-serif" font-size="13" lengthAdjust="spacing" textLength="23.0103" x="2645" y="124.5669">use</text></g><!--reverse link logic_arc_int__baselibs__result to comp_arc_sta__baselibs__result--><g id="link_logic_arc_int__baselibs__result_comp_arc_sta__baselibs__result"><path codeLine="24" d="M6069,204.75 C6069,225.98 6069,253.94 6069,275.19 " fill="transparent" id="logic_arc_int__baselibs__result-backto-comp_arc_sta__baselibs__result" style="stroke:#181818;stroke-width:1;"/><polygon fill="#181818" points="6069,198.75,6065,207.75,6069,203.75,6073,207.75,6069,198.75" style="stroke:#181818;stroke-width:1;"/><text fill="#000000" font-family="sans-serif" font-size="13" lengthAdjust="spacing" textLength="76.9082" x="6070" y="241.5669">implements</text></g><!--reverse link logic_arc_int__baselibs__dynamic_array to comp_arc_sta__baselibs__containers--><g id="link_logic_arc_int__baselibs__dynamic_array_comp_arc_sta__baselibs__containers"><path codeLine="25" d="M5461.8918,202.1527 C5492.8118,223.4427 5537.39,254.14 5568.24,275.38 " fill="transparent" id="logic_arc_int__baselibs__dynamic_array-backto-comp_arc_sta__baselibs__containers" style="stroke:#181818;stroke-width:1;"/><polygon fill="#181818" points="5456.95,198.75,5462.0943,207.1486,5461.0682,201.5856,5466.6312,200.5595,5456.95,198.75" style="stroke:#181818;stroke-width:1;"/><text fill="#000000" font-family="sans-serif" font-size="13" lengthAdjust="spacing" textLength="76.9082" x="5524" y="241.5669">implements</text></g><!--link Feature_User to logic_arc_int__baselibs__condition_variable--><g id="link_Feature_User_logic_arc_int__baselibs__condition_variable"><path codeLine="26" d="M2909.88,49.35 C2745.3,67.05 2177.9556,128.0487 1890.6856,158.9287 " fill="transparent" id="Feature_User-to-logic_arc_int__baselibs__condition_variable" style="stroke:#181818;stroke-width:1;"/><polygon fill="#181818" points="1884.72,159.57,1894.096,162.5852,1889.6914,159.0356,1893.2409,154.631,1884.72,159.57" style="stroke:#181818;stroke-width:1;"/><text fill="#000000" font-family="sans-serif" font-size="13" lengthAdjust="spacing" textLength="23.0103" x="2301" y="124.5669">use</text></g><!--link Feature_User to logic_arc_int__baselibs__future--><g id="link_Feature_User_logic_arc_int__baselibs__future"><path codeLine="27" d="M2909.94,46.18 C2710.69,53.89 1889.04,88.48 1218,158.5 C1212.35,159.09 1212.5408,159.045 1206.7108,159.715 " fill="transparent" id="Feature_User-to-logic_arc_int__baselibs__future" style="stroke:#181818;stroke-width:1;"/><polygon fill="#181818" points="1200.75,160.4,1210.1478,163.3463,1205.7173,159.8291,1209.2345,155.3986,1200.75,160.4" style="stroke:#181818;stroke-width:1;"/><text fill="#000000" font-family="sans-serif" font-size="13" lengthAdjust="spacing" textLength="23.0103" x="1744" y="124.5669">use</text></g><!--reverse link logic_arc_int__baselibs__future to comp_arc_sta__baselibs__concurrency--><g id="link_logic_arc_int__baselibs__future_comp_arc_sta__baselibs__concurrency"><path codeLine="28" d="M1206.7308,197.0969 C1212.5508,197.8469 1212.36,197.8 1218,198.5 C1403.1,221.4 1449.48,226.37 1635,245.5 C1760.88,258.48 1903.93,271.76 2008.72,281.21 " fill="transparent" id="logic_arc_int__baselibs__future-backto-comp_arc_sta__baselibs__concurrency" style="stroke:#181818;stroke-width:1;"/><polygon fill="#181818" points="1200.78,196.33,1209.195,201.4475,1205.739,196.969,1210.2174,193.5131,1200.78,196.33" style="stroke:#181818;stroke-width:1;"/><text fill="#000000" font-family="sans-serif" font-size="13" lengthAdjust="spacing" textLength="76.9082" x="1636" y="241.5669">implements</text></g><!--link Feature_User to logic_arc_int__baselibs__result--><g id="link_Feature_User_logic_arc_int__baselibs__result"><path codeLine="29" d="M3000.27,45.2 C3234.39,48.97 4331.39,68.24 5228,111.5 C5539.89,126.55 5618.33,127.04 5929,158.5 C5934.86,159.09 5934.8888,159.059 5940.9288,159.749 " fill="transparent" id="Feature_User-to-logic_arc_int__baselibs__result" style="stroke:#181818;stroke-width:1;"/><polygon fill="#181818" points="5946.89,160.43,5938.4022,155.4343,5941.9223,159.8625,5937.4942,163.3827,5946.89,160.43" style="stroke:#181818;stroke-width:1;"/><text fill="#000000" font-family="sans-serif" font-size="13" lengthAdjust="spacing" textLength="23.0103" x="5569" y="124.5669">use</text></g><!--link Feature_User to logic_arc_int__baselibs__filesystem--><g id="link_Feature_User_logic_arc_int__baselibs__filesystem"><path codeLine="30" d="M2909.94,46.04 C2732.57,52.21 2065.41,76.55 1517,111.5 C1258.46,127.98 1193.75,132.39 936,158.5 C930.16,159.09 930.1753,159.0759 924.1553,159.7259 " fill="transparent" id="Feature_User-to-logic_arc_int__baselibs__filesystem" style="stroke:#181818;stroke-width:1;"/><polygon fill="#181818" points="918.19,160.37,927.5674,163.3807,923.1611,159.8333,926.7086,155.427,918.19,160.37" style="stroke:#181818;stroke-width:1;"/><text fill="#000000" font-family="sans-serif" font-size="13" lengthAdjust="spacing" textLength="23.0103" x="1518" y="124.5669">use</text></g><!--reverse link logic_arc_int__baselibs__utils_scoped_op to comp_arc_sta__baselibs__utils--><g id="link_logic_arc_int__baselibs__utils_scoped_op_comp_arc_sta__baselibs__utils"><path codeLine="31" d="M3952.8479,201.7743 C3916.3679,223.0643 3863.14,254.14 3826.75,275.38 " fill="transparent" id="logic_arc_int__baselibs__utils_scoped_op-backto-comp_arc_sta__baselibs__utils" style="stroke:#181818;stroke-width:1;"/><polygon fill="#181818" points="3958.03,198.75,3948.2407,199.8317,3953.7116,201.2702,3952.2731,206.7411,3958.03,198.75" style="stroke:#181818;stroke-width:1;"/><text fill="#000000" font-family="sans-serif" font-size="13" lengthAdjust="spacing" textLength="76.9082" x="3906" y="241.5669">implements</text></g><!--link Feature_User to logic_arc_int__baselibs__memory_shared--><g id="link_Feature_User_logic_arc_int__baselibs__memory_shared"><path codeLine="32" d="M2909.74,45.63 C2711.38,50.7 1899.06,72.85 1233,111.5 C961.98,127.22 894.32,133.48 624,158.5 C618.49,159.01 618.8619,158.9597 613.2019,159.5097 " fill="transparent" id="Feature_User-to-logic_arc_int__baselibs__memory_shared" style="stroke:#181818;stroke-width:1;"/><polygon fill="#181818" points="607.23,160.09,616.5747,163.2008,612.2066,159.6064,615.8009,155.2383,607.23,160.09" style="stroke:#181818;stroke-width:1;"/><text fill="#000000" font-family="sans-serif" font-size="13" lengthAdjust="spacing" textLength="23.0103" x="1234" y="124.5669">use</text></g><!--link Feature_User to logic_arc_int__baselibs__task_result--><g id="link_Feature_User_logic_arc_int__baselibs__task_result"><path codeLine="33" d="M2909.84,47.47 C2733.57,59.19 2074.85,104.31 1534,158.5 C1528.36,159.06 1528.586,159.0223 1522.786,159.6423 " fill="transparent" id="Feature_User-to-logic_arc_int__baselibs__task_result" style="stroke:#181818;stroke-width:1;"/><polygon fill="#181818" points="1516.82,160.28,1526.1942,163.3007,1521.7917,159.7485,1525.3439,155.346,1516.82,160.28" style="stroke:#181818;stroke-width:1;"/><text fill="#000000" font-family="sans-serif" font-size="13" lengthAdjust="spacing" textLength="23.0103" x="2043" y="124.5669">use</text></g><!--reverse link logic_arc_int__baselibs__intrusive_list to comp_arc_sta__baselibs__containers--><g id="link_logic_arc_int__baselibs__intrusive_list_comp_arc_sta__baselibs__containers"><path codeLine="34" d="M5731.7494,202.1252 C5700.4594,223.4152 5655.31,254.14 5624.1,275.38 " fill="transparent" id="logic_arc_int__baselibs__intrusive_list-backto-comp_arc_sta__baselibs__containers" style="stroke:#181818;stroke-width:1;"/><polygon fill="#181818" points="5736.71,198.75,5727.0189,200.5058,5732.5762,201.5627,5731.5192,207.1199,5736.71,198.75" style="stroke:#181818;stroke-width:1;"/><text fill="#000000" font-family="sans-serif" font-size="13" lengthAdjust="spacing" textLength="76.9082" x="5692" y="241.5669">implements</text></g><!--reverse link logic_arc_int__baselibs__message_passing to comp_arc_sta__baselibs__message_passing--><g id="link_logic_arc_int__baselibs__message_passing_comp_arc_sta__baselibs__message_passing"><path codeLine="35" d="M5076,204.75 C5076,225.98 5076,253.94 5076,275.19 " fill="transparent" id="logic_arc_int__baselibs__message_passing-backto-comp_arc_sta__baselibs__message_passing" style="stroke:#181818;stroke-width:1;"/><polygon fill="#181818" points="5076,198.75,5072,207.75,5076,203.75,5080,207.75,5076,198.75" style="stroke:#181818;stroke-width:1;"/><text fill="#000000" font-family="sans-serif" font-size="13" lengthAdjust="spacing" textLength="76.9082" x="5077" y="241.5669">implements</text></g><!--reverse link logic_arc_int__baselibs__shared_future to comp_arc_sta__baselibs__concurrency--><g id="link_logic_arc_int__baselibs__shared_future_comp_arc_sta__baselibs__concurrency"><path codeLine="36" d="M2326.9387,201.6524 C2288.4187,222.9424 2232,254.14 2193.58,275.38 " fill="transparent" id="logic_arc_int__baselibs__shared_future-backto-comp_arc_sta__baselibs__concurrency" style="stroke:#181818;stroke-width:1;"/><polygon fill="#181818" points="2332.19,198.75,2322.3781,199.6027,2327.8139,201.1687,2326.248,206.6045,2332.19,198.75" style="stroke:#181818;stroke-width:1;"/><text fill="#000000" font-family="sans-serif" font-size="13" lengthAdjust="spacing" textLength="76.9082" x="2277" y="241.5669">implements</text></g><!--reverse link logic_arc_int__baselibs__condition_variable to comp_arc_sta__baselibs__concurrency--><g id="link_logic_arc_int__baselibs__condition_variable_comp_arc_sta__baselibs__concurrency"><path codeLine="37" d="M1797.1258,200.134 C1878.8058,221.434 2004.27,254.15 2085.87,275.43 " fill="transparent" id="logic_arc_int__baselibs__condition_variable-backto-comp_arc_sta__baselibs__concurrency" style="stroke:#181818;stroke-width:1;"/><polygon fill="#181818" points="1791.32,198.62,1799.0194,204.7616,1796.1582,199.8817,1801.0381,197.0205,1791.32,198.62" style="stroke:#181818;stroke-width:1;"/><text fill="#000000" font-family="sans-serif" font-size="13" lengthAdjust="spacing" textLength="76.9082" x="1966" y="241.5669">implements</text></g><!--reverse link logic_arc_int__baselibs__task_result to comp_arc_sta__baselibs__concurrency--><g id="link_logic_arc_int__baselibs__task_result_comp_arc_sta__baselibs__concurrency"><path codeLine="38" d="M1511.6763,199.4221 C1656.7263,220.7321 1884.32,254.16 2029.34,275.46 " fill="transparent" id="logic_arc_int__baselibs__task_result-backto-comp_arc_sta__baselibs__concurrency" style="stroke:#181818;stroke-width:1;"/><polygon fill="#181818" points="1505.74,198.55,1514.063,203.8157,1510.6869,199.2768,1515.2258,195.9007,1505.74,198.55" style="stroke:#181818;stroke-width:1;"/><text fill="#000000" font-family="sans-serif" font-size="13" lengthAdjust="spacing" textLength="76.9082" x="1816" y="241.5669">implements</text></g><!--reverse link logic_arc_int__baselibs__filesystem to comp_arc_sta__baselibs__filesystem--><g id="link_logic_arc_int__baselibs__filesystem_comp_arc_sta__baselibs__filesystem"><path codeLine="39" d="M781.9777,204.7317 C783.6377,225.9617 785.83,253.94 787.49,275.19 " fill="transparent" id="logic_arc_int__baselibs__filesystem-backto-comp_arc_sta__baselibs__filesystem" style="stroke:#181818;stroke-width:1;"/><polygon fill="#181818" points="781.51,198.75,778.2238,208.0344,781.8998,203.7348,786.1994,207.4108,781.51,198.75" style="stroke:#181818;stroke-width:1;"/><text fill="#000000" font-family="sans-serif" font-size="13" lengthAdjust="spacing" textLength="76.9082" x="787" y="241.5669">implements</text></g><!--reverse link logic_arc_int__baselibs__memory_shared to comp_arc_sta__baselibs__memory_shared--><g id="link_logic_arc_int__baselibs__memory_shared_comp_arc_sta__baselibs__memory_shared"><path codeLine="40" d="M448,204.75 C448,225.98 448,253.94 448,275.19 " fill="transparent" id="logic_arc_int__baselibs__memory_shared-backto-comp_arc_sta__baselibs__memory_shared" style="stroke:#181818;stroke-width:1;"/><polygon fill="#181818" points="448,198.75,444,207.75,448,203.75,452,207.75,448,198.75" style="stroke:#181818;stroke-width:1;"/><text fill="#000000" font-family="sans-serif" font-size="13" lengthAdjust="spacing" textLength="76.9082" x="449" y="241.5669">implements</text></g><!--reverse link logic_arc_int__baselibs__synchronized_queue to comp_arc_sta__baselibs__concurrency--><g id="link_logic_arc_int__baselibs__synchronized_queue_comp_arc_sta__baselibs__concurrency"><path codeLine="41" d="M3135.8628,199.2453 C3020.4328,213.1053 2864.97,231.17 2723,245.5 C2582.8,259.65 2422.73,273.32 2309.03,282.61 " fill="transparent" id="logic_arc_int__baselibs__synchronized_queue-backto-comp_arc_sta__baselibs__concurrency" style="stroke:#181818;stroke-width:1;"/><polygon fill="#181818" points="3141.82,198.53,3132.4073,195.6315,3136.8557,199.1261,3133.3611,203.5744,3141.82,198.53" style="stroke:#181818;stroke-width:1;"/><text fill="#000000" font-family="sans-serif" font-size="13" lengthAdjust="spacing" textLength="76.9082" x="2882" y="241.5669">implements</text></g><!--link Feature_User to logic_arc_int__baselibs__executor--><g id="link_Feature_User_logic_arc_int__baselibs__executor"><path codeLine="42" d="M2955,81.55 C2955,106.45 2955,132.26 2955,152.26 " fill="transparent" id="Feature_User-to-logic_arc_int__baselibs__executor" style="stroke:#181818;stroke-width:1;"/><polygon fill="#181818" points="2955,158.26,2959,149.26,2955,153.26,2951,149.26,2955,158.26" style="stroke:#181818;stroke-width:1;"/><text fill="#000000" font-family="sans-serif" font-size="13" lengthAdjust="spacing" textLength="23.0103" x="2956" y="124.5669">use</text></g><!--reverse link logic_arc_int__baselibs__utils_base64 to comp_arc_sta__baselibs__utils--><g id="link_logic_arc_int__baselibs__utils_base64_comp_arc_sta__baselibs__utils"><path codeLine="43" d="M3680.4324,202.5265 C3706.6424,223.7565 3743.91,253.94 3770.15,275.19 " fill="transparent" id="logic_arc_int__baselibs__utils_base64-backto-comp_arc_sta__baselibs__utils" style="stroke:#181818;stroke-width:1;"/><polygon fill="#181818" points="3675.77,198.75,3680.2459,207.523,3679.6553,201.8971,3685.2813,201.3065,3675.77,198.75" style="stroke:#181818;stroke-width:1;"/><text fill="#000000" font-family="sans-serif" font-size="13" lengthAdjust="spacing" textLength="76.9082" x="3733" y="241.5669">implements</text></g><!--link Feature_User to logic_arc_int__baselibs__promise--><g id="link_Feature_User_logic_arc_int__baselibs__promise"><path codeLine="44" d="M2909.81,51.14 C2777.16,70.64 2391.2362,127.3476 2185.4662,157.5876 " fill="transparent" id="Feature_User-to-logic_arc_int__baselibs__promise" style="stroke:#181818;stroke-width:1;"/><polygon fill="#181818" points="2179.53,158.46,2189.016,161.1089,2184.4769,157.733,2187.8528,153.1939,2179.53,158.46" style="stroke:#181818;stroke-width:1;"/><text fill="#000000" font-family="sans-serif" font-size="13" lengthAdjust="spacing" textLength="23.0103" x="2477" y="124.5669">use</text></g><!--link Feature_User to logic_arc_int__baselibs__task--><g id="link_Feature_User_logic_arc_int__baselibs__task"><path codeLine="45" d="M2909.84,65.57 C2855.06,91.14 2768.9574,131.3233 2716.2274,155.9233 " fill="transparent" id="Feature_User-to-logic_arc_int__baselibs__task" style="stroke:#181818;stroke-width:1;"/><polygon fill="#181818" points="2710.79,158.46,2720.6372,158.2799,2715.3212,156.3461,2717.255,151.03,2710.79,158.46" style="stroke:#181818;stroke-width:1;"/><text fill="#000000" font-family="sans-serif" font-size="13" lengthAdjust="spacing" textLength="23.0103" x="2805" y="124.5669">use</text></g><!--link Feature_User to logic_arc_int__baselibs__synchronized_queue--><g id="link_Feature_User_logic_arc_int__baselibs__synchronized_queue"><path codeLine="46" d="M3000.06,62.02 C3064.27,86.99 3176.0479,130.4654 3242.3679,156.2554 " fill="transparent" id="Feature_User-to-logic_arc_int__baselibs__synchronized_queue" style="stroke:#181818;stroke-width:1;"/><polygon fill="#181818" points="3247.96,158.43,3241.0216,151.4401,3243.3,156.6178,3238.1222,158.8961,3247.96,158.43" style="stroke:#181818;stroke-width:1;"/><text fill="#000000" font-family="sans-serif" font-size="13" lengthAdjust="spacing" textLength="23.0103" x="3168" y="124.5669">use</text></g><!--reverse link logic_arc_int__baselibs__json to comp_arc_sta__baselibs__json--><g id="link_logic_arc_int__baselibs__json_comp_arc_sta__baselibs__json"><path codeLine="47" d="M131.9002,204.7444 C130.9802,225.9744 129.76,253.94 128.84,275.19 " fill="transparent" id="logic_arc_int__baselibs__json-backto-comp_arc_sta__baselibs__json" style="stroke:#181818;stroke-width:1;"/><polygon fill="#181818" points="132.16,198.75,127.7741,207.5684,131.9435,203.7453,135.7666,207.9147,132.16,198.75" style="stroke:#181818;stroke-width:1;"/><text fill="#000000" font-family="sans-serif" font-size="13" lengthAdjust="spacing" textLength="76.9082" x="132" y="241.5669">implements</text></g><!--reverse link logic_arc_int__baselibs__task to comp_arc_sta__baselibs__concurrency--><g id="link_logic_arc_int__baselibs__task_comp_arc_sta__baselibs__concurrency"><path codeLine="48" d="M2579.4764,199.8675 C2484.8864,221.1575 2338.49,254.11 2243.83,275.41 " fill="transparent" id="logic_arc_int__baselibs__task-backto-comp_arc_sta__baselibs__concurrency" style="stroke:#181818;stroke-width:1;"/><polygon fill="#181818" points="2585.33,198.55,2575.6713,196.6239,2580.452,199.6479,2577.428,204.4286,2585.33,198.55" style="stroke:#181818;stroke-width:1;"/><text fill="#000000" font-family="sans-serif" font-size="13" lengthAdjust="spacing" textLength="76.9082" x="2447" y="241.5669">implements</text></g><!--link Feature_User to logic_arc_int__baselibs__dynamic_array--><g id="link_Feature_User_logic_arc_int__baselibs__dynamic_array"><path codeLine="49" d="M3000.29,46.15 C3186.2,52.97 3909,80.13 4503,111.5 C4838.29,129.2 4922.48,129.61 5257,158.5 C5262.84,159 5262.8059,158.9833 5268.8159,159.5433 " fill="transparent" id="Feature_User-to-logic_arc_int__baselibs__dynamic_array" style="stroke:#181818;stroke-width:1;"/><polygon fill="#181818" points="5274.79,160.1,5266.1999,155.2823,5269.8116,159.6361,5265.4577,163.2478,5274.79,160.1" style="stroke:#181818;stroke-width:1;"/><text fill="#000000" font-family="sans-serif" font-size="13" lengthAdjust="spacing" textLength="23.0103" x="4831" y="124.5669">use</text></g><!--reverse link logic_arc_int__baselibs__executor to comp_arc_sta__baselibs__concurrency--><g id="link_logic_arc_int__baselibs__executor_comp_arc_sta__baselibs__concurrency"><path codeLine="50" d="M2832.0357,199.4901 C2747.1757,213.1001 2635.55,230.62 2532,245.5 C2458.78,256.02 2377.35,266.82 2309.3,275.6 " fill="transparent" id="logic_arc_int__baselibs__executor-backto-comp_arc_sta__baselibs__concurrency" style="stroke:#181818;stroke-width:1;"/><polygon fill="#181818" points="2837.96,198.54,2828.4401,196.0157,2833.0231,199.3318,2829.707,203.9147,2837.96,198.54" style="stroke:#181818;stroke-width:1;"/><text fill="#000000" font-family="sans-serif" font-size="13" lengthAdjust="spacing" textLength="76.9082" x="2638" y="241.5669">implements</text></g><!--reverse link logic_arc_int__baselibs__bit_mask_operator to comp_arc_sta__baselibs__bit_manipulation--><g id="link_logic_arc_int__baselibs__bit_mask_operator_comp_arc_sta__baselibs__bit_manipulation"><path codeLine="51" d="M4668.0701,201.6001 C4628.6301,222.8901 4570.75,254.14 4531.41,275.38 " fill="transparent" id="logic_arc_int__baselibs__bit_mask_operator-backto-comp_arc_sta__baselibs__bit_manipulation" style="stroke:#181818;stroke-width:1;"/><polygon fill="#181818" points="4673.35,198.75,4663.5301,199.5053,4668.9501,201.1251,4667.3303,206.5451,4673.35,198.75" style="stroke:#181818;stroke-width:1;"/><text fill="#000000" font-family="sans-serif" font-size="13" lengthAdjust="spacing" textLength="76.9082" x="4617" y="241.5669">implements</text></g><!--link Feature_User to logic_arc_int__baselibs__bit_manipulation--><g id="link_Feature_User_logic_arc_int__baselibs__bit_manipulation"><path codeLine="52" d="M3000.1,48.55 C3159.49,62.91 3711.09,112.95 4166,158.5 C4171.75,159.08 4171.6407,159.064 4177.5507,159.664 " fill="transparent" id="Feature_User-to-logic_arc_int__baselibs__bit_manipulation" style="stroke:#181818;stroke-width:1;"/><polygon fill="#181818" points="4183.52,160.27,4174.97,155.3814,4178.5456,159.765,4174.162,163.3405,4183.52,160.27" style="stroke:#181818;stroke-width:1;"/><text fill="#000000" font-family="sans-serif" font-size="13" lengthAdjust="spacing" textLength="23.0103" x="3835" y="124.5669">use</text></g><!--SRC=[hLPBRzim3BxhLmYzfnk6OeUXw6N0JZrkPq6MkOIh7fv8jVM6_VV9ThBKIHVRgc-H8rBw7XIfhGrFok4p-gtWq4WEiWhCmSaQ8nZ6uCKEQv34425msy2m1jTmApLpn2enaBWbRYtSYMjDQ2lvMzoZXy_1XYWZrFtgwmxDWmSY-U7wlVWZRj_jOuGsdFTTVG7DAOByHX2lf2Qv_w2w3r884roZT3IAM2jLQGAB5ULVoCffZqsokhkotAJDdRHXYwRVZfulRVyaqJKM77WcAKPdRkfBYNvG5vm85aMvp83UWceqKUPzd-1_s4pm9iK8thGJi9eO718KeqcCblhrnvlbg0PIwK651gBESYvFCLo0JCvGvpJB4-HbJ8IFe2mIBu-ddSvULTzJ5p2XImHAbYSa6JQD5RaWDEjS9P4cajQjrwx_A-gsMEryN8sT-zMZZgWh2ylvcaNKV0CVqXKYEf2z60LQe3O_S6u2IU_F2Gnd7Yu4uy25sEuTkHmJTvKu8kJDjZijhZcUFddg9auuUnXdbirCUvrKzxh9NokdTKyOIJedzT7NKtNteW3cgVh2cvEQZdoyigAjDxiOFFxAklvCaCeV3tW6auvTw-rFmA6F5jxdNpClgVo2plSAanU9w4QV2Hw6wMZz8YZczAHnhjIrZiwP0xLeL1rDLONWpuVU7lzV]--></g></svg>