<svg xmlns="http://www.w3.org/2000/svg" xmlns:xlink="http://www.w3.org/1999/xlink" contentStyleType="text/css" data-diagram-type="CLASS" height="322px" preserveAspectRatio="none" style="width:6195px;height:322px;background:#FFFFFF;" version="1.1" viewBox="0 0 6195 322" width="6195px" zoomAndPan="magnify"><defs/><g><!--entity Feature_User--><g id="elem_Feature_User"><ellipse cx="3109.6685" cy="14" fill="#F1F1F1" rx="8" ry="8" style="stroke:#181818;stroke-width:0.5;"/><path d="M3109.6685,22 L3109.6685,49 M3096.6685,30 L3122.6685,30 M3109.6685,49 L3096.6685,64 M3109.6685,49 L3122.6685,64 " fill="transparent" style="stroke:#181818;stroke-width:0.5;"/><text fill="#000000" font-family="sans-serif" font-size="14" lengthAdjust="spacing" textLength="90.3369" x="3064.5" y="78.4951">Feature User</text></g><!--class comp_arc_sta__baselibs__concurrency--><g id="elem_comp_arc_sta__baselibs__concurrency"><rect fill="#F1F1F1" height="40" id="comp_arc_sta__baselibs__concurrency" rx="2.5" ry="2.5" style="stroke:#181818;stroke-width:0.5;" width="300.2012" x="3447.5" y="275.5"/><ellipse cx="3462.5" cy="291.5" fill="#ADD1B2" rx="11" ry="11" style="stroke:#181818;stroke-width:1;"/><path d="M3465.4688,297.1406 Q3464.8906,297.4375 3464.25,297.5781 Q3463.6094,297.7344 3462.9063,297.7344 Q3460.4063,297.7344 3459.0781,296.0938 Q3457.7656,294.4375 3457.7656,291.3125 Q3457.7656,288.1875 3459.0781,286.5313 Q3460.4063,284.875 3462.9063,284.875 Q3463.6094,284.875 3464.25,285.0313 Q3464.9063,285.1875 3465.4688,285.4844 L3465.4688,288.2031 Q3464.8438,287.625 3464.25,287.3594 Q3463.6563,287.0781 3463.0313,287.0781 Q3461.6875,287.0781 3461,288.1563 Q3460.3125,289.2188 3460.3125,291.3125 Q3460.3125,293.4063 3461,294.4844 Q3461.6875,295.5469 3463.0313,295.5469 Q3463.6563,295.5469 3464.25,295.2813 Q3464.8438,295 3465.4688,294.4219 L3465.4688,297.1406 Z " fill="#000000"/><text fill="#000000" font-family="sans-serif" font-size="14" lengthAdjust="spacing" textLength="268.2012" x="3476.5" y="296.3467">comp_arc_sta__baselibs__concurrency</text><line style="stroke:#181818;stroke-width:0.5;" x1="3448.5" x2="3746.7012" y1="307.5" y2="307.5"/></g><!--class logic_arc_int__baselibs__task_result--><g id="elem_logic_arc_int__baselibs__task_result"><rect fill="#F1F1F1" height="40" id="logic_arc_int__baselibs__task_result" rx="2.5" ry="2.5" style="stroke:#181818;stroke-width:0.5;" width="280.9307" x="2360" y="158.5"/><ellipse cx="2375" cy="174.5" fill="#ADD1B2" rx="11" ry="11" style="stroke:#181818;stroke-width:1;"/><path d="M2377.9688,180.1406 Q2377.3906,180.4375 2376.75,180.5781 Q2376.1094,180.7344 2375.4063,180.7344 Q2372.9063,180.7344 2371.5781,179.0938 Q2370.2656,177.4375 2370.2656,174.3125 Q2370.2656,171.1875 2371.5781,169.5313 Q2372.9063,167.875 2375.4063,167.875 Q2376.1094,167.875 2376.75,168.0313 Q2377.4063,168.1875 2377.9688,168.4844 L2377.9688,171.2031 Q2377.3438,170.625 2376.75,170.3594 Q2376.1563,170.0781 2375.5313,170.0781 Q2374.1875,170.0781 2373.5,171.1563 Q2372.8125,172.2188 2372.8125,174.3125 Q2372.8125,176.4063 2373.5,177.4844 Q2374.1875,178.5469 2375.5313,178.5469 Q2376.1563,178.5469 2376.75,178.2813 Q2377.3438,178 2377.9688,177.4219 L2377.9688,180.1406 Z " fill="#000000"/><text fill="#000000" font-family="sans-serif" font-size="14" lengthAdjust="spacing" textLength="248.9307" x="2389" y="179.3467">logic_arc_int__baselibs__task_result</text><line style="stroke:#181818;stroke-width:0.5;" x1="2361" x2="2639.9307" y1="190.5" y2="190.5"/></g><!--class comp_arc_sta__baselibs__result--><g id="elem_comp_arc_sta__baselibs__result"><rect fill="#F1F1F1" height="40" id="comp_arc_sta__baselibs__result" rx="2.5" ry="2.5" style="stroke:#181818;stroke-width:0.5;" width="253.4297" x="5935" y="275.5"/><ellipse cx="5950" cy="291.5" fill="#ADD1B2" rx="11" ry="11" style="stroke:#181818;stroke-width:1;"/><path d="M5952.9688,297.1406 Q5952.3906,297.4375 5951.75,297.5781 Q5951.1094,297.7344 5950.4063,297.7344 Q5947.9063,297.7344 5946.5781,296.0938 Q5945.2656,294.4375 5945.2656,291.3125 Q5945.2656,288.1875 5946.5781,286.5313 Q5947.9063,284.875 5950.4063,284.875 Q5951.1094,284.875 5951.75,285.0313 Q5952.4063,285.1875 5952.9688,285.4844 L5952.9688,288.2031 Q5952.3438,287.625 5951.75,287.3594 Q5951.1563,287.0781 5950.5313,287.0781 Q5949.1875,287.0781 5948.5,288.1563 Q5947.8125,289.2188 5947.8125,291.3125 Q5947.8125,293.4063 5948.5,294.4844 Q5949.1875,295.5469 5950.5313,295.5469 Q5951.1563,295.5469 5951.75,295.2813 Q5952.3438,295 5952.9688,294.4219 L5952.9688,297.1406 Z " fill="#000000"/><text fill="#000000" font-family="sans-serif" font-size="14" lengthAdjust="spacing" textLength="221.4297" x="5964" y="296.3467">comp_arc_sta__baselibs__result</text><line style="stroke:#181818;stroke-width:0.5;" x1="5936" x2="6187.4297" y1="307.5" y2="307.5"/></g><!--class logic_arc_int__baselibs__result--><g id="elem_logic_arc_int__baselibs__result"><rect fill="#F1F1F1" height="40" id="logic_arc_int__baselibs__result" rx="2.5" ry="2.5" style="stroke:#181818;stroke-width:0.5;" width="244.4609" x="5939.5" y="158.5"/><ellipse cx="5954.5" cy="174.5" fill="#ADD1B2" rx="11" ry="11" style="stroke:#181818;stroke-width:1;"/><path d="M5957.4688,180.1406 Q5956.8906,180.4375 5956.25,180.5781 Q5955.6094,180.7344 5954.9063,180.7344 Q5952.4063,180.7344 5951.0781,179.0938 Q5949.7656,177.4375 5949.7656,174.3125 Q5949.7656,171.1875 5951.0781,169.5313 Q5952.4063,167.875 5954.9063,167.875 Q5955.6094,167.875 5956.25,168.0313 Q5956.9063,168.1875 5957.4688,168.4844 L5957.4688,171.2031 Q5956.8438,170.625 5956.25,170.3594 Q5955.6563,170.0781 5955.0313,170.0781 Q5953.6875,170.0781 5953,171.1563 Q5952.3125,172.2188 5952.3125,174.3125 Q5952.3125,176.4063 5953,177.4844 Q5953.6875,178.5469 5955.0313,178.5469 Q5955.6563,178.5469 5956.25,178.2813 Q5956.8438,178 5957.4688,177.4219 L5957.4688,180.1406 Z " fill="#000000"/><text fill="#000000" font-family="sans-serif" font-size="14" lengthAdjust="spacing" textLength="212.4609" x="5968.5" y="179.3467">logic_arc_int__baselibs__result</text><line style="stroke:#181818;stroke-width:0.5;" x1="5940.5" x2="6182.9609" y1="190.5" y2="190.5"/></g><!--class logic_arc_int__baselibs__promise--><g id="elem_logic_arc_int__baselibs__promise"><rect fill="#F1F1F1" height="40" id="logic_arc_int__baselibs__promise" rx="2.5" ry="2.5" style="stroke:#181818;stroke-width:0.5;" width="261.1885" x="4317" y="158.5"/><ellipse cx="4332" cy="174.5" fill="#ADD1B2" rx="11" ry="11" style="stroke:#181818;stroke-width:1;"/><path d="M4334.9688,180.1406 Q4334.3906,180.4375 4333.75,180.5781 Q4333.1094,180.7344 4332.4063,180.7344 Q4329.9063,180.7344 4328.5781,179.0938 Q4327.2656,177.4375 4327.2656,174.3125 Q4327.2656,171.1875 4328.5781,169.5313 Q4329.9063,167.875 4332.4063,167.875 Q4333.1094,167.875 4333.75,168.0313 Q4334.4063,168.1875 4334.9688,168.4844 L4334.9688,171.2031 Q4334.3438,170.625 4333.75,170.3594 Q4333.1563,170.0781 4332.5313,170.0781 Q4331.1875,170.0781 4330.5,171.1563 Q4329.8125,172.2188 4329.8125,174.3125 Q4329.8125,176.4063 4330.5,177.4844 Q4331.1875,178.5469 4332.5313,178.5469 Q4333.1563,178.5469 4333.75,178.2813 Q4334.3438,178 4334.9688,177.4219 L4334.9688,180.1406 Z " fill="#000000"/><text fill="#000000" font-family="sans-serif" font-size="14" lengthAdjust="spacing" textLength="229.1885" x="4346" y="179.3467">logic_arc_int__baselibs__promise</text><line style="stroke:#181818;stroke-width:0.5;" x1="4318" x2="4577.1885" y1="190.5" y2="190.5"/></g><!--class comp_arc_sta__baselibs__containers--><g id="elem_comp_arc_sta__baselibs__containers"><rect fill="#F1F1F1" height="40" id="comp_arc_sta__baselibs__containers" rx="2.5" ry="2.5" style="stroke:#181818;stroke-width:0.5;" width="287.1445" x="5356" y="275.5"/><ellipse cx="5371" cy="291.5" fill="#ADD1B2" rx="11" ry="11" style="stroke:#181818;stroke-width:1;"/><path d="M5373.9688,297.1406 Q5373.3906,297.4375 5372.75,297.5781 Q5372.1094,297.7344 5371.4063,297.7344 Q5368.9063,297.7344 5367.5781,296.0938 Q5366.2656,294.4375 5366.2656,291.3125 Q5366.2656,288.1875 5367.5781,286.5313 Q5368.9063,284.875 5371.4063,284.875 Q5372.1094,284.875 5372.75,285.0313 Q5373.4063,285.1875 5373.9688,285.4844 L5373.9688,288.2031 Q5373.3438,287.625 5372.75,287.3594 Q5372.1563,287.0781 5371.5313,287.0781 Q5370.1875,287.0781 5369.5,288.1563 Q5368.8125,289.2188 5368.8125,291.3125 Q5368.8125,293.4063 5369.5,294.4844 Q5370.1875,295.5469 5371.5313,295.5469 Q5372.1563,295.5469 5372.75,295.2813 Q5373.3438,295 5373.9688,294.4219 L5373.9688,297.1406 Z " fill="#000000"/><text fill="#000000" font-family="sans-serif" font-size="14" lengthAdjust="spacing" textLength="255.1445" x="5385" y="296.3467">comp_arc_sta__baselibs__containers</text><line style="stroke:#181818;stroke-width:0.5;" x1="5357" x2="5642.1445" y1="307.5" y2="307.5"/></g><!--class logic_arc_int__baselibs__intrusive_list--><g id="elem_logic_arc_int__baselibs__intrusive_list"><rect fill="#F1F1F1" height="40" id="logic_arc_int__baselibs__intrusive_list" rx="2.5" ry="2.5" style="stroke:#181818;stroke-width:0.5;" width="293.0713" x="5268" y="158.5"/><ellipse cx="5283" cy="174.5" fill="#ADD1B2" rx="11" ry="11" style="stroke:#181818;stroke-width:1;"/><path d="M5285.9688,180.1406 Q5285.3906,180.4375 5284.75,180.5781 Q5284.1094,180.7344 5283.4063,180.7344 Q5280.9063,180.7344 5279.5781,179.0938 Q5278.2656,177.4375 5278.2656,174.3125 Q5278.2656,171.1875 5279.5781,169.5313 Q5280.9063,167.875 5283.4063,167.875 Q5284.1094,167.875 5284.75,168.0313 Q5285.4063,168.1875 5285.9688,168.4844 L5285.9688,171.2031 Q5285.3438,170.625 5284.75,170.3594 Q5284.1563,170.0781 5283.5313,170.0781 Q5282.1875,170.0781 5281.5,171.1563 Q5280.8125,172.2188 5280.8125,174.3125 Q5280.8125,176.4063 5281.5,177.4844 Q5282.1875,178.5469 5283.5313,178.5469 Q5284.1563,178.5469 5284.75,178.2813 Q5285.3438,178 5285.9688,177.4219 L5285.9688,180.1406 Z " fill="#000000"/><text fill="#000000" font-family="sans-serif" font-size="14" lengthAdjust="spacing" textLength="261.0713" x="5297" y="179.3467">logic_arc_int__baselibs__intrusive_list</text><line style="stroke:#181818;stroke-width:0.5;" x1="5269" x2="5560.0713" y1="190.5" y2="190.5"/></g><!--class logic_arc_int__baselibs__json--><g id="elem_logic_arc_int__baselibs__json"><rect fill="#F1F1F1" height="40" id="logic_arc_int__baselibs__json" rx="2.5" ry="2.5" style="stroke:#181818;stroke-width:0.5;" width="233.168" x="1728" y="158.5"/><ellipse cx="1743" cy="174.5" fill="#ADD1B2" rx="11" ry="11" style="stroke:#181818;stroke-width:1;"/><path d="M1745.9688,180.1406 Q1745.3906,180.4375 1744.75,180.5781 Q1744.1094,180.7344 1743.4063,180.7344 Q1740.9063,180.7344 1739.5781,179.0938 Q1738.2656,177.4375 1738.2656,174.3125 Q1738.2656,171.1875 1739.5781,169.5313 Q1740.9063,167.875 1743.4063,167.875 Q1744.1094,167.875 1744.75,168.0313 Q1745.4063,168.1875 1745.9688,168.4844 L1745.9688,171.2031 Q1745.3438,170.625 1744.75,170.3594 Q1744.1563,170.0781 1743.5313,170.0781 Q1742.1875,170.0781 1741.5,171.1563 Q1740.8125,172.2188 1740.8125,174.3125 Q1740.8125,176.4063 1741.5,177.4844 Q1742.1875,178.5469 1743.5313,178.5469 Q1744.1563,178.5469 1744.75,178.2813 Q1745.3438,178 1745.9688,177.4219 L1745.9688,180.1406 Z " fill="#000000"/><text fill="#000000" font-family="sans-serif" font-size="14" lengthAdjust="spacing" textLength="201.168" x="1757" y="179.3467">logic_arc_int__baselibs__json</text><line style="stroke:#181818;stroke-width:0.5;" x1="1729" x2="1960.168" y1="190.5" y2="190.5"/></g><!--class logic_arc_int__baselibs__task--><g id="elem_logic_arc_int__baselibs__task"><rect fill="#F1F1F1" height="40" id="logic_arc_int__baselibs__task" rx="2.5" ry="2.5" style="stroke:#181818;stroke-width:0.5;" width="234.0156" x="3664.5" y="158.5"/><ellipse cx="3679.5" cy="174.5" fill="#ADD1B2" rx="11" ry="11" style="stroke:#181818;stroke-width:1;"/><path d="M3682.4688,180.1406 Q3681.8906,180.4375 3681.25,180.5781 Q3680.6094,180.7344 3679.9063,180.7344 Q3677.4063,180.7344 3676.0781,179.0938 Q3674.7656,177.4375 3674.7656,174.3125 Q3674.7656,171.1875 3676.0781,169.5313 Q3677.4063,167.875 3679.9063,167.875 Q3680.6094,167.875 3681.25,168.0313 Q3681.9063,168.1875 3682.4688,168.4844 L3682.4688,171.2031 Q3681.8438,170.625 3681.25,170.3594 Q3680.6563,170.0781 3680.0313,170.0781 Q3678.6875,170.0781 3678,171.1563 Q3677.3125,172.2188 3677.3125,174.3125 Q3677.3125,176.4063 3678,177.4844 Q3678.6875,178.5469 3680.0313,178.5469 Q3680.6563,178.5469 3681.25,178.2813 Q3681.8438,178 3682.4688,177.4219 L3682.4688,180.1406 Z " fill="#000000"/><text fill="#000000" font-family="sans-serif" font-size="14" lengthAdjust="spacing" textLength="202.0156" x="3693.5" y="179.3467">logic_arc_int__baselibs__task</text><line style="stroke:#181818;stroke-width:0.5;" x1="3665.5" x2="3897.5156" y1="190.5" y2="190.5"/></g><!--class logic_arc_int__baselibs__condition_variable--><g id="elem_logic_arc_int__baselibs__condition_variable"><rect fill="#F1F1F1" height="40" id="logic_arc_int__baselibs__condition_variable" rx="2.5" ry="2.5" style="stroke:#181818;stroke-width:0.5;" width="332.7539" x="3296" y="158.5"/><ellipse cx="3311" cy="174.5" fill="#ADD1B2" rx="11" ry="11" style="stroke:#181818;stroke-width:1;"/><path d="M3313.9688,180.1406 Q3313.3906,180.4375 3312.75,180.5781 Q3312.1094,180.7344 3311.4063,180.7344 Q3308.9063,180.7344 3307.5781,179.0938 Q3306.2656,177.4375 3306.2656,174.3125 Q3306.2656,171.1875 3307.5781,169.5313 Q3308.9063,167.875 3311.4063,167.875 Q3312.1094,167.875 3312.75,168.0313 Q3313.4063,168.1875 3313.9688,168.4844 L3313.9688,171.2031 Q3313.3438,170.625 3312.75,170.3594 Q3312.1563,170.0781 3311.5313,170.0781 Q3310.1875,170.0781 3309.5,171.1563 Q3308.8125,172.2188 3308.8125,174.3125 Q3308.8125,176.4063 3309.5,177.4844 Q3310.1875,178.5469 3311.5313,178.5469 Q3312.1563,178.5469 3312.75,178.2813 Q3313.3438,178 3313.9688,177.4219 L3313.9688,180.1406 Z " fill="#000000"/><text fill="#000000" font-family="sans-serif" font-size="14" lengthAdjust="spacing" textLength="300.7539" x="3325" y="179.3467">logic_arc_int__baselibs__condition_variable</text><line style="stroke:#181818;stroke-width:0.5;" x1="3297" x2="3627.7539" y1="190.5" y2="190.5"/></g><!--class comp_arc_sta__baselibs__utils--><g id="elem_comp_arc_sta__baselibs__utils"><rect fill="#F1F1F1" height="40" id="comp_arc_sta__baselibs__utils" rx="2.5" ry="2.5" style="stroke:#181818;stroke-width:0.5;" width="242.9502" x="501" y="275.5"/><ellipse cx="516" cy="291.5" fill="#ADD1B2" rx="11" ry="11" style="stroke:#181818;stroke-width:1;"/><path d="M518.9688,297.1406 Q518.3906,297.4375 517.75,297.5781 Q517.1094,297.7344 516.4063,297.7344 Q513.9063,297.7344 512.5781,296.0938 Q511.2656,294.4375 511.2656,291.3125 Q511.2656,288.1875 512.5781,286.5313 Q513.9063,284.875 516.4063,284.875 Q517.1094,284.875 517.75,285.0313 Q518.4063,285.1875 518.9688,285.4844 L518.9688,288.2031 Q518.3438,287.625 517.75,287.3594 Q517.1563,287.0781 516.5313,287.0781 Q515.1875,287.0781 514.5,288.1563 Q513.8125,289.2188 513.8125,291.3125 Q513.8125,293.4063 514.5,294.4844 Q515.1875,295.5469 516.5313,295.5469 Q517.1563,295.5469 517.75,295.2813 Q518.3438,295 518.9688,294.4219 L518.9688,297.1406 Z " fill="#000000"/><text fill="#000000" font-family="sans-serif" font-size="14" lengthAdjust="spacing" textLength="210.9502" x="530" y="296.3467">comp_arc_sta__baselibs__utils</text><line style="stroke:#181818;stroke-width:0.5;" x1="502" x2="742.9502" y1="307.5" y2="307.5"/></g><!--class logic_arc_int__baselibs__utils_scoped_op--><g id="elem_logic_arc_int__baselibs__utils_scoped_op"><rect fill="#F1F1F1" height="40" id="logic_arc_int__baselibs__utils_scoped_op" rx="2.5" ry="2.5" style="stroke:#181818;stroke-width:0.5;" width="315.377" x="323" y="158.5"/><ellipse cx="338" cy="174.5" fill="#ADD1B2" rx="11" ry="11" style="stroke:#181818;stroke-width:1;"/><path d="M340.9688,180.1406 Q340.3906,180.4375 339.75,180.5781 Q339.1094,180.7344 338.4063,180.7344 Q335.9063,180.7344 334.5781,179.0938 Q333.2656,177.4375 333.2656,174.3125 Q333.2656,171.1875 334.5781,169.5313 Q335.9063,167.875 338.4063,167.875 Q339.1094,167.875 339.75,168.0313 Q340.4063,168.1875 340.9688,168.4844 L340.9688,171.2031 Q340.3438,170.625 339.75,170.3594 Q339.1563,170.0781 338.5313,170.0781 Q337.1875,170.0781 336.5,171.1563 Q335.8125,172.2188 335.8125,174.3125 Q335.8125,176.4063 336.5,177.4844 Q337.1875,178.5469 338.5313,178.5469 Q339.1563,178.5469 339.75,178.2813 Q340.3438,178 340.9688,177.4219 L340.9688,180.1406 Z " fill="#000000"/><text fill="#000000" font-family="sans-serif" font-size="14" lengthAdjust="spacing" textLength="283.377" x="352" y="179.3467">logic_arc_int__baselibs__utils_scoped_op</text><line style="stroke:#181818;stroke-width:0.5;" x1="324" x2="637.377" y1="190.5" y2="190.5"/></g><!--class comp_arc_sta__baselibs__memory_shared--><g id="elem_comp_arc_sta__baselibs__memory_shared"><rect fill="#F1F1F1" height="40" id="comp_arc_sta__baselibs__memory_shared" rx="2.5" ry="2.5" style="stroke:#181818;stroke-width:0.5;" width="327.0117" x="4910" y="275.5"/><ellipse cx="4925" cy="291.5" fill="#ADD1B2" rx="11" ry="11" style="stroke:#181818;stroke-width:1;"/><path d="M4927.9688,297.1406 Q4927.3906,297.4375 4926.75,297.5781 Q4926.1094,297.7344 4925.4063,297.7344 Q4922.9063,297.7344 4921.5781,296.0938 Q4920.2656,294.4375 4920.2656,291.3125 Q4920.2656,288.1875 4921.5781,286.5313 Q4922.9063,284.875 4925.4063,284.875 Q4926.1094,284.875 4926.75,285.0313 Q4927.4063,285.1875 4927.9688,285.4844 L4927.9688,288.2031 Q4927.3438,287.625 4926.75,287.3594 Q4926.1563,287.0781 4925.5313,287.0781 Q4924.1875,287.0781 4923.5,288.1563 Q4922.8125,289.2188 4922.8125,291.3125 Q4922.8125,293.4063 4923.5,294.4844 Q4924.1875,295.5469 4925.5313,295.5469 Q4926.1563,295.5469 4926.75,295.2813 Q4927.3438,295 4927.9688,294.4219 L4927.9688,297.1406 Z " fill="#000000"/><text fill="#000000" font-family="sans-serif" font-size="14" lengthAdjust="spacing" textLength="295.0117" x="4939" y="296.3467">comp_arc_sta__baselibs__memory_shared</text><line style="stroke:#181818;stroke-width:0.5;" x1="4911" x2="5236.0117" y1="307.5" y2="307.5"/></g><!--class logic_arc_int__baselibs__memory_shared--><g id="elem_logic_arc_int__baselibs__memory_shared"><rect fill="#F1F1F1" height="40" id="logic_arc_int__baselibs__memory_shared" rx="2.5" ry="2.5" style="stroke:#181818;stroke-width:0.5;" width="318.043" x="4914.5" y="158.5"/><ellipse cx="4929.5" cy="174.5" fill="#ADD1B2" rx="11" ry="11" style="stroke:#181818;stroke-width:1;"/><path d="M4932.4688,180.1406 Q4931.8906,180.4375 4931.25,180.5781 Q4930.6094,180.7344 4929.9063,180.7344 Q4927.4063,180.7344 4926.0781,179.0938 Q4924.7656,177.4375 4924.7656,174.3125 Q4924.7656,171.1875 4926.0781,169.5313 Q4927.4063,167.875 4929.9063,167.875 Q4930.6094,167.875 4931.25,168.0313 Q4931.9063,168.1875 4932.4688,168.4844 L4932.4688,171.2031 Q4931.8438,170.625 4931.25,170.3594 Q4930.6563,170.0781 4930.0313,170.0781 Q4928.6875,170.0781 4928,171.1563 Q4927.3125,172.2188 4927.3125,174.3125 Q4927.3125,176.4063 4928,177.4844 Q4928.6875,178.5469 4930.0313,178.5469 Q4930.6563,178.5469 4931.25,178.2813 Q4931.8438,178 4932.4688,177.4219 L4932.4688,180.1406 Z " fill="#000000"/><text fill="#000000" font-family="sans-serif" font-size="14" lengthAdjust="spacing" textLength="286.043" x="4943.5" y="179.3467">logic_arc_int__baselibs__memory_shared</text><line style="stroke:#181818;stroke-width:0.5;" x1="4915.5" x2="5231.543" y1="190.5" y2="190.5"/></g><!--class comp_arc_sta__baselibs__message_passing--><g id="elem_comp_arc_sta__baselibs__message_passing"><rect fill="#F1F1F1" height="40" id="comp_arc_sta__baselibs__message_passing" rx="2.5" ry="2.5" style="stroke:#181818;stroke-width:0.5;" width="337.1357" x="1996" y="275.5"/><ellipse cx="2011" cy="291.5" fill="#ADD1B2" rx="11" ry="11" style="stroke:#181818;stroke-width:1;"/><path d="M2013.9688,297.1406 Q2013.3906,297.4375 2012.75,297.5781 Q2012.1094,297.7344 2011.4063,297.7344 Q2008.9063,297.7344 2007.5781,296.0938 Q2006.2656,294.4375 2006.2656,291.3125 Q2006.2656,288.1875 2007.5781,286.5313 Q2008.9063,284.875 2011.4063,284.875 Q2012.1094,284.875 2012.75,285.0313 Q2013.4063,285.1875 2013.9688,285.4844 L2013.9688,288.2031 Q2013.3438,287.625 2012.75,287.3594 Q2012.1563,287.0781 2011.5313,287.0781 Q2010.1875,287.0781 2009.5,288.1563 Q2008.8125,289.2188 2008.8125,291.3125 Q2008.8125,293.4063 2009.5,294.4844 Q2010.1875,295.5469 2011.5313,295.5469 Q2012.1563,295.5469 2012.75,295.2813 Q2013.3438,295 2013.9688,294.4219 L2013.9688,297.1406 Z " fill="#000000"/><text fill="#000000" font-family="sans-serif" font-size="14" lengthAdjust="spacing" textLength="305.1357" x="2025" y="296.3467">comp_arc_sta__baselibs__message_passing</text><line style="stroke:#181818;stroke-width:0.5;" x1="1997" x2="2332.1357" y1="307.5" y2="307.5"/></g><!--class logic_arc_int__baselibs__message_passing--><g id="elem_logic_arc_int__baselibs__message_passing"><rect fill="#F1F1F1" height="40" id="logic_arc_int__baselibs__message_passing" rx="2.5" ry="2.5" style="stroke:#181818;stroke-width:0.5;" width="328.167" x="1996.5" y="158.5"/><ellipse cx="2011.5" cy="174.5" fill="#ADD1B2" rx="11" ry="11" style="stroke:#181818;stroke-width:1;"/><path d="M2014.4688,180.1406 Q2013.8906,180.4375 2013.25,180.5781 Q2012.6094,180.7344 2011.9063,180.7344 Q2009.4063,180.7344 2008.0781,179.0938 Q2006.7656,177.4375 2006.7656,174.3125 Q2006.7656,171.1875 2008.0781,169.5313 Q2009.4063,167.875 2011.9063,167.875 Q2012.6094,167.875 2013.25,168.0313 Q2013.9063,168.1875 2014.4688,168.4844 L2014.4688,171.2031 Q2013.8438,170.625 2013.25,170.3594 Q2012.6563,170.0781 2012.0313,170.0781 Q2010.6875,170.0781 2010,171.1563 Q2009.3125,172.2188 2009.3125,174.3125 Q2009.3125,176.4063 2010,177.4844 Q2010.6875,178.5469 2012.0313,178.5469 Q2012.6563,178.5469 2013.25,178.2813 Q2013.8438,178 2014.4688,177.4219 L2014.4688,180.1406 Z " fill="#000000"/><text fill="#000000" font-family="sans-serif" font-size="14" lengthAdjust="spacing" textLength="296.167" x="2025.5" y="179.3467">logic_arc_int__baselibs__message_passing</text><line style="stroke:#181818;stroke-width:0.5;" x1="1997.5" x2="2323.667" y1="190.5" y2="190.5"/></g><!--class logic_arc_int__baselibs__executor--><g id="elem_logic_arc_int__baselibs__executor"><rect fill="#F1F1F1" height="40" id="logic_arc_int__baselibs__executor" rx="2.5" ry="2.5" style="stroke:#181818;stroke-width:0.5;" width="266.4385" x="4613.5" y="158.5"/><ellipse cx="4628.5" cy="174.5" fill="#ADD1B2" rx="11" ry="11" style="stroke:#181818;stroke-width:1;"/><path d="M4631.4688,180.1406 Q4630.8906,180.4375 4630.25,180.5781 Q4629.6094,180.7344 4628.9063,180.7344 Q4626.4063,180.7344 4625.0781,179.0938 Q4623.7656,177.4375 4623.7656,174.3125 Q4623.7656,171.1875 4625.0781,169.5313 Q4626.4063,167.875 4628.9063,167.875 Q4629.6094,167.875 4630.25,168.0313 Q4630.9063,168.1875 4631.4688,168.4844 L4631.4688,171.2031 Q4630.8438,170.625 4630.25,170.3594 Q4629.6563,170.0781 4629.0313,170.0781 Q4627.6875,170.0781 4627,171.1563 Q4626.3125,172.2188 4626.3125,174.3125 Q4626.3125,176.4063 4627,177.4844 Q4627.6875,178.5469 4629.0313,178.5469 Q4629.6563,178.5469 4630.25,178.2813 Q4630.8438,178 4631.4688,177.4219 L4631.4688,180.1406 Z " fill="#000000"/><text fill="#000000" font-family="sans-serif" font-size="14" lengthAdjust="spacing" textLength="234.4385" x="4642.5" y="179.3467">logic_arc_int__baselibs__executor</text><line style="stroke:#181818;stroke-width:0.5;" x1="4614.5" x2="4878.9385" y1="190.5" y2="190.5"/></g><!--class logic_arc_int__baselibs__synchronized_queue--><g id="elem_logic_arc_int__baselibs__synchronized_queue"><rect fill="#F1F1F1" height="40" id="logic_arc_int__baselibs__synchronized_queue" rx="2.5" ry="2.5" style="stroke:#181818;stroke-width:0.5;" width="348.3604" x="3933.5" y="158.5"/><ellipse cx="3948.5" cy="174.5" fill="#ADD1B2" rx="11" ry="11" style="stroke:#181818;stroke-width:1;"/><path d="M3951.4688,180.1406 Q3950.8906,180.4375 3950.25,180.5781 Q3949.6094,180.7344 3948.9063,180.7344 Q3946.4063,180.7344 3945.0781,179.0938 Q3943.7656,177.4375 3943.7656,174.3125 Q3943.7656,171.1875 3945.0781,169.5313 Q3946.4063,167.875 3948.9063,167.875 Q3949.6094,167.875 3950.25,168.0313 Q3950.9063,168.1875 3951.4688,168.4844 L3951.4688,171.2031 Q3950.8438,170.625 3950.25,170.3594 Q3949.6563,170.0781 3949.0313,170.0781 Q3947.6875,170.0781 3947,171.1563 Q3946.3125,172.2188 3946.3125,174.3125 Q3946.3125,176.4063 3947,177.4844 Q3947.6875,178.5469 3949.0313,178.5469 Q3949.6563,178.5469 3950.25,178.2813 Q3950.8438,178 3951.4688,177.4219 L3951.4688,180.1406 Z " fill="#000000"/><text fill="#000000" font-family="sans-serif" font-size="14" lengthAdjust="spacing" textLength="316.3604" x="3962.5" y="179.3467">logic_arc_int__baselibs__synchronized_queue</text><line style="stroke:#181818;stroke-width:0.5;" x1="3934.5" x2="4280.8604" y1="190.5" y2="190.5"/></g><!--class logic_arc_int__baselibs__dynamic_array--><g id="elem_logic_arc_int__baselibs__dynamic_array"><rect fill="#F1F1F1" height="40" id="logic_arc_int__baselibs__dynamic_array" rx="2.5" ry="2.5" style="stroke:#181818;stroke-width:0.5;" width="308.3496" x="5596.5" y="158.5"/><ellipse cx="5611.5" cy="174.5" fill="#ADD1B2" rx="11" ry="11" style="stroke:#181818;stroke-width:1;"/><path d="M5614.4688,180.1406 Q5613.8906,180.4375 5613.25,180.5781 Q5612.6094,180.7344 5611.9063,180.7344 Q5609.4063,180.7344 5608.0781,179.0938 Q5606.7656,177.4375 5606.7656,174.3125 Q5606.7656,171.1875 5608.0781,169.5313 Q5609.4063,167.875 5611.9063,167.875 Q5612.6094,167.875 5613.25,168.0313 Q5613.9063,168.1875 5614.4688,168.4844 L5614.4688,171.2031 Q5613.8438,170.625 5613.25,170.3594 Q5612.6563,170.0781 5612.0313,170.0781 Q5610.6875,170.0781 5610,171.1563 Q5609.3125,172.2188 5609.3125,174.3125 Q5609.3125,176.4063 5610,177.4844 Q5610.6875,178.5469 5612.0313,178.5469 Q5612.6563,178.5469 5613.25,178.2813 Q5613.8438,178 5614.4688,177.4219 L5614.4688,180.1406 Z " fill="#000000"/><text fill="#000000" font-family="sans-serif" font-size="14" lengthAdjust="spacing" textLength="276.3496" x="5625.5" y="179.3467">logic_arc_int__baselibs__dynamic_array</text><line style="stroke:#181818;stroke-width:0.5;" x1="5597.5" x2="5903.8496" y1="190.5" y2="190.5"/></g><!--class logic_arc_int__baselibs__utils_base64--><g id="elem_logic_arc_int__baselibs__utils_base64"><rect fill="#F1F1F1" height="40" id="logic_arc_int__baselibs__utils_base64" rx="2.5" ry="2.5" style="stroke:#181818;stroke-width:0.5;" width="292.1689" x="673.5" y="158.5"/><ellipse cx="688.5" cy="174.5" fill="#ADD1B2" rx="11" ry="11" style="stroke:#181818;stroke-width:1;"/><path d="M691.4688,180.1406 Q690.8906,180.4375 690.25,180.5781 Q689.6094,180.7344 688.9063,180.7344 Q686.4063,180.7344 685.0781,179.0938 Q683.7656,177.4375 683.7656,174.3125 Q683.7656,171.1875 685.0781,169.5313 Q686.4063,167.875 688.9063,167.875 Q689.6094,167.875 690.25,168.0313 Q690.9063,168.1875 691.4688,168.4844 L691.4688,171.2031 Q690.8438,170.625 690.25,170.3594 Q689.6563,170.0781 689.0313,170.0781 Q687.6875,170.0781 687,171.1563 Q686.3125,172.2188 686.3125,174.3125 Q686.3125,176.4063 687,177.4844 Q687.6875,178.5469 689.0313,178.5469 Q689.6563,178.5469 690.25,178.2813 Q690.8438,178 691.4688,177.4219 L691.4688,180.1406 Z " fill="#000000"/><text fill="#000000" font-family="sans-serif" font-size="14" lengthAdjust="spacing" textLength="260.1689" x="702.5" y="179.3467">logic_arc_int__baselibs__utils_base64</text><line style="stroke:#181818;stroke-width:0.5;" x1="674.5" x2="964.6689" y1="190.5" y2="190.5"/></g><!--class logic_arc_int__baselibs__shared_future--><g id="elem_logic_arc_int__baselibs__shared_future"><rect fill="#F1F1F1" height="40" id="logic_arc_int__baselibs__shared_future" rx="2.5" ry="2.5" style="stroke:#181818;stroke-width:0.5;" width="302.0811" x="2958.5" y="158.5"/><ellipse cx="2973.5" cy="174.5" fill="#ADD1B2" rx="11" ry="11" style="stroke:#181818;stroke-width:1;"/><path d="M2976.4688,180.1406 Q2975.8906,180.4375 2975.25,180.5781 Q2974.6094,180.7344 2973.9063,180.7344 Q2971.4063,180.7344 2970.0781,179.0938 Q2968.7656,177.4375 2968.7656,174.3125 Q2968.7656,171.1875 2970.0781,169.5313 Q2971.4063,167.875 2973.9063,167.875 Q2974.6094,167.875 2975.25,168.0313 Q2975.9063,168.1875 2976.4688,168.4844 L2976.4688,171.2031 Q2975.8438,170.625 2975.25,170.3594 Q2974.6563,170.0781 2974.0313,170.0781 Q2972.6875,170.0781 2972,171.1563 Q2971.3125,172.2188 2971.3125,174.3125 Q2971.3125,176.4063 2972,177.4844 Q2972.6875,178.5469 2974.0313,178.5469 Q2974.6563,178.5469 2975.25,178.2813 Q2975.8438,178 2976.4688,177.4219 L2976.4688,180.1406 Z " fill="#000000"/><text fill="#000000" font-family="sans-serif" font-size="14" lengthAdjust="spacing" textLength="270.0811" x="2987.5" y="179.3467">logic_arc_int__baselibs__shared_future</text><line style="stroke:#181818;stroke-width:0.5;" x1="2959.5" x2="3259.5811" y1="190.5" y2="190.5"/></g><!--class comp_arc_sta__baselibs__bit_manipulation--><g id="elem_comp_arc_sta__baselibs__bit_manipulation"><rect fill="#F1F1F1" height="40" id="comp_arc_sta__baselibs__bit_manipulation" rx="2.5" ry="2.5" style="stroke:#181818;stroke-width:0.5;" width="330.8057" x="1176" y="275.5"/><ellipse cx="1191" cy="291.5" fill="#ADD1B2" rx="11" ry="11" style="stroke:#181818;stroke-width:1;"/><path d="M1193.9688,297.1406 Q1193.3906,297.4375 1192.75,297.5781 Q1192.1094,297.7344 1191.4063,297.7344 Q1188.9063,297.7344 1187.5781,296.0938 Q1186.2656,294.4375 1186.2656,291.3125 Q1186.2656,288.1875 1187.5781,286.5313 Q1188.9063,284.875 1191.4063,284.875 Q1192.1094,284.875 1192.75,285.0313 Q1193.4063,285.1875 1193.9688,285.4844 L1193.9688,288.2031 Q1193.3438,287.625 1192.75,287.3594 Q1192.1563,287.0781 1191.5313,287.0781 Q1190.1875,287.0781 1189.5,288.1563 Q1188.8125,289.2188 1188.8125,291.3125 Q1188.8125,293.4063 1189.5,294.4844 Q1190.1875,295.5469 1191.5313,295.5469 Q1192.1563,295.5469 1192.75,295.2813 Q1193.3438,295 1193.9688,294.4219 L1193.9688,297.1406 Z " fill="#000000"/><text fill="#000000" font-family="sans-serif" font-size="14" lengthAdjust="spacing" textLength="298.8057" x="1205" y="296.3467">comp_arc_sta__baselibs__bit_manipulation</text><line style="stroke:#181818;stroke-width:0.5;" x1="1177" x2="1505.8057" y1="307.5" y2="307.5"/></g><!--class logic_arc_int__baselibs__bit_mask_operator--><g id="elem_logic_arc_int__baselibs__bit_mask_operator"><rect fill="#F1F1F1" height="40" id="logic_arc_int__baselibs__bit_mask_operator" rx="2.5" ry="2.5" style="stroke:#181818;stroke-width:0.5;" width="334.6406" x="1358" y="158.5"/><ellipse cx="1373" cy="174.5" fill="#ADD1B2" rx="11" ry="11" style="stroke:#181818;stroke-width:1;"/><path d="M1375.9688,180.1406 Q1375.3906,180.4375 1374.75,180.5781 Q1374.1094,180.7344 1373.4063,180.7344 Q1370.9063,180.7344 1369.5781,179.0938 Q1368.2656,177.4375 1368.2656,174.3125 Q1368.2656,171.1875 1369.5781,169.5313 Q1370.9063,167.875 1373.4063,167.875 Q1374.1094,167.875 1374.75,168.0313 Q1375.4063,168.1875 1375.9688,168.4844 L1375.9688,171.2031 Q1375.3438,170.625 1374.75,170.3594 Q1374.1563,170.0781 1373.5313,170.0781 Q1372.1875,170.0781 1371.5,171.1563 Q1370.8125,172.2188 1370.8125,174.3125 Q1370.8125,176.4063 1371.5,177.4844 Q1372.1875,178.5469 1373.5313,178.5469 Q1374.1563,178.5469 1374.75,178.2813 Q1375.3438,178 1375.9688,177.4219 L1375.9688,180.1406 Z " fill="#000000"/><text fill="#000000" font-family="sans-serif" font-size="14" lengthAdjust="spacing" textLength="302.6406" x="1387" y="179.3467">logic_arc_int__baselibs__bit_mask_operator</text><line style="stroke:#181818;stroke-width:0.5;" x1="1359" x2="1691.6406" y1="190.5" y2="190.5"/></g><!--class comp_arc_sta__baselibs__json--><g id="elem_comp_arc_sta__baselibs__json"><rect fill="#F1F1F1" height="40" id="comp_arc_sta__baselibs__json" rx="2.5" ry="2.5" style="stroke:#181818;stroke-width:0.5;" width="242.1367" x="1718.5" y="275.5"/><ellipse cx="1733.5" cy="291.5" fill="#ADD1B2" rx="11" ry="11" style="stroke:#181818;stroke-width:1;"/><path d="M1736.4688,297.1406 Q1735.8906,297.4375 1735.25,297.5781 Q1734.6094,297.7344 1733.9063,297.7344 Q1731.4063,297.7344 1730.0781,296.0938 Q1728.7656,294.4375 1728.7656,291.3125 Q1728.7656,288.1875 1730.0781,286.5313 Q1731.4063,284.875 1733.9063,284.875 Q1734.6094,284.875 1735.25,285.0313 Q1735.9063,285.1875 1736.4688,285.4844 L1736.4688,288.2031 Q1735.8438,287.625 1735.25,287.3594 Q1734.6563,287.0781 1734.0313,287.0781 Q1732.6875,287.0781 1732,288.1563 Q1731.3125,289.2188 1731.3125,291.3125 Q1731.3125,293.4063 1732,294.4844 Q1732.6875,295.5469 1734.0313,295.5469 Q1734.6563,295.5469 1735.25,295.2813 Q1735.8438,295 1736.4688,294.4219 L1736.4688,297.1406 Z " fill="#000000"/><text fill="#000000" font-family="sans-serif" font-size="14" lengthAdjust="spacing" textLength="210.1367" x="1747.5" y="296.3467">comp_arc_sta__baselibs__json</text><line style="stroke:#181818;stroke-width:0.5;" x1="1719.5" x2="1959.6367" y1="307.5" y2="307.5"/></g><!--class comp_arc_sta__baselibs__filesystem--><g id="elem_comp_arc_sta__baselibs__filesystem"><rect fill="#F1F1F1" height="40" id="comp_arc_sta__baselibs__filesystem" rx="2.5" ry="2.5" style="stroke:#181818;stroke-width:0.5;" width="285.4492" x="7" y="275.5"/><ellipse cx="22" cy="291.5" fill="#ADD1B2" rx="11" ry="11" style="stroke:#181818;stroke-width:1;"/><path d="M24.9688,297.1406 Q24.3906,297.4375 23.75,297.5781 Q23.1094,297.7344 22.4063,297.7344 Q19.9063,297.7344 18.5781,296.0938 Q17.2656,294.4375 17.2656,291.3125 Q17.2656,288.1875 18.5781,286.5313 Q19.9063,284.875 22.4063,284.875 Q23.1094,284.875 23.75,285.0313 Q24.4063,285.1875 24.9688,285.4844 L24.9688,288.2031 Q24.3438,287.625 23.75,287.3594 Q23.1563,287.0781 22.5313,287.0781 Q21.1875,287.0781 20.5,288.1563 Q19.8125,289.2188 19.8125,291.3125 Q19.8125,293.4063 20.5,294.4844 Q21.1875,295.5469 22.5313,295.5469 Q23.1563,295.5469 23.75,295.2813 Q24.3438,295 24.9688,294.4219 L24.9688,297.1406 Z " fill="#000000"/><text fill="#000000" font-family="sans-serif" font-size="14" lengthAdjust="spacing" textLength="253.4492" x="36" y="296.3467">comp_arc_sta__baselibs__filesystem</text><line style="stroke:#181818;stroke-width:0.5;" x1="8" x2="291.4492" y1="307.5" y2="307.5"/></g><!--class logic_arc_int__baselibs__filesystem--><g id="elem_logic_arc_int__baselibs__filesystem"><rect fill="#F1F1F1" height="40" id="logic_arc_int__baselibs__filesystem" rx="2.5" ry="2.5" style="stroke:#181818;stroke-width:0.5;" width="276.4805" x="11.5" y="158.5"/><ellipse cx="26.5" cy="174.5" fill="#ADD1B2" rx="11" ry="11" style="stroke:#181818;stroke-width:1;"/><path d="M29.4688,180.1406 Q28.8906,180.4375 28.25,180.5781 Q27.6094,180.7344 26.9063,180.7344 Q24.4063,180.7344 23.0781,179.0938 Q21.7656,177.4375 21.7656,174.3125 Q21.7656,171.1875 23.0781,169.5313 Q24.4063,167.875 26.9063,167.875 Q27.6094,167.875 28.25,168.0313 Q28.9063,168.1875 29.4688,168.4844 L29.4688,171.2031 Q28.8438,170.625 28.25,170.3594 Q27.6563,170.0781 27.0313,170.0781 Q25.6875,170.0781 25,171.1563 Q24.3125,172.2188 24.3125,174.3125 Q24.3125,176.4063 25,177.4844 Q25.6875,178.5469 27.0313,178.5469 Q27.6563,178.5469 28.25,178.2813 Q28.8438,178 29.4688,177.4219 L29.4688,180.1406 Z " fill="#000000"/><text fill="#000000" font-family="sans-serif" font-size="14" lengthAdjust="spacing" textLength="244.4805" x="40.5" y="179.3467">logic_arc_int__baselibs__filesystem</text><line style="stroke:#181818;stroke-width:0.5;" x1="12.5" x2="286.9805" y1="190.5" y2="190.5"/></g><!--class logic_arc_int__baselibs__bit_manipulation--><g id="elem_logic_arc_int__baselibs__bit_manipulation"><rect fill="#F1F1F1" height="40" id="logic_arc_int__baselibs__bit_manipulation" rx="2.5" ry="2.5" style="stroke:#181818;stroke-width:0.5;" width="321.8369" x="1000.5" y="158.5"/><ellipse cx="1015.5" cy="174.5" fill="#ADD1B2" rx="11" ry="11" style="stroke:#181818;stroke-width:1;"/><path d="M1018.4688,180.1406 Q1017.8906,180.4375 1017.25,180.5781 Q1016.6094,180.7344 1015.9063,180.7344 Q1013.4063,180.7344 1012.0781,179.0938 Q1010.7656,177.4375 1010.7656,174.3125 Q1010.7656,171.1875 1012.0781,169.5313 Q1013.4063,167.875 1015.9063,167.875 Q1016.6094,167.875 1017.25,168.0313 Q1017.9063,168.1875 1018.4688,168.4844 L1018.4688,171.2031 Q1017.8438,170.625 1017.25,170.3594 Q1016.6563,170.0781 1016.0313,170.0781 Q1014.6875,170.0781 1014,171.1563 Q1013.3125,172.2188 1013.3125,174.3125 Q1013.3125,176.4063 1014,177.4844 Q1014.6875,178.5469 1016.0313,178.5469 Q1016.6563,178.5469 1017.25,178.2813 Q1017.8438,178 1018.4688,177.4219 L1018.4688,180.1406 Z " fill="#000000"/><text fill="#000000" font-family="sans-serif" font-size="14" lengthAdjust="spacing" textLength="289.8369" x="1029.5" y="179.3467">logic_arc_int__baselibs__bit_manipulation</text><line style="stroke:#181818;stroke-width:0.5;" x1="1001.5" x2="1321.3369" y1="190.5" y2="190.5"/></g><!--class logic_arc_int__baselibs__future--><g id="elem_logic_arc_int__baselibs__future"><rect fill="#F1F1F1" height="40" id="logic_arc_int__baselibs__future" rx="2.5" ry="2.5" style="stroke:#181818;stroke-width:0.5;" width="247.0791" x="2676" y="158.5"/><ellipse cx="2691" cy="174.5" fill="#ADD1B2" rx="11" ry="11" style="stroke:#181818;stroke-width:1;"/><path d="M2693.9688,180.1406 Q2693.3906,180.4375 2692.75,180.5781 Q2692.1094,180.7344 2691.4063,180.7344 Q2688.9063,180.7344 2687.5781,179.0938 Q2686.2656,177.4375 2686.2656,174.3125 Q2686.2656,171.1875 2687.5781,169.5313 Q2688.9063,167.875 2691.4063,167.875 Q2692.1094,167.875 2692.75,168.0313 Q2693.4063,168.1875 2693.9688,168.4844 L2693.9688,171.2031 Q2693.3438,170.625 2692.75,170.3594 Q2692.1563,170.0781 2691.5313,170.0781 Q2690.1875,170.0781 2689.5,171.1563 Q2688.8125,172.2188 2688.8125,174.3125 Q2688.8125,176.4063 2689.5,177.4844 Q2690.1875,178.5469 2691.5313,178.5469 Q2692.1563,178.5469 2692.75,178.2813 Q2693.3438,178 2693.9688,177.4219 L2693.9688,180.1406 Z " fill="#000000"/><text fill="#000000" font-family="sans-serif" font-size="14" lengthAdjust="spacing" textLength="215.0791" x="2705" y="179.3467">logic_arc_int__baselibs__future</text><line style="stroke:#181818;stroke-width:0.5;" x1="2677" x2="2922.0791" y1="190.5" y2="190.5"/></g><!--reverse link logic_arc_int__baselibs__task_result to comp_arc_sta__baselibs__concurrency--><g id="link_logic_arc_int__baselibs__task_result_comp_arc_sta__baselibs__concurrency"><path codeLine="15" d="M2647.2018,198.5992 C2756.9518,212.5992 2907.3,231.1 3044.5,245.5 C3180.74,259.8 3336.15,273.32 3447.45,282.53 " fill="transparent" id="logic_arc_int__baselibs__task_result-backto-comp_arc_sta__baselibs__concurrency" style="stroke:#181818;stroke-width:1;"/><polygon fill="#181818" points="2641.25,197.84,2649.6715,202.9467,2646.2098,198.4727,2650.6838,195.011,2641.25,197.84" style="stroke:#181818;stroke-width:1;"/><text fill="#000000" font-family="sans-serif" font-size="13" lengthAdjust="spacing" textLength="76.9082" x="3045.5" y="241.5669">implements</text></g><!--reverse link logic_arc_int__baselibs__result to comp_arc_sta__baselibs__result--><g id="link_logic_arc_int__baselibs__result_comp_arc_sta__baselibs__result"><path codeLine="16" d="M6061.5,204.75 C6061.5,225.98 6061.5,253.94 6061.5,275.19 " fill="transparent" id="logic_arc_int__baselibs__result-backto-comp_arc_sta__baselibs__result" style="stroke:#181818;stroke-width:1;"/><polygon fill="#181818" points="6061.5,198.75,6057.5,207.75,6061.5,203.75,6065.5,207.75,6061.5,198.75" style="stroke:#181818;stroke-width:1;"/><text fill="#000000" font-family="sans-serif" font-size="13" lengthAdjust="spacing" textLength="76.9082" x="6062.5" y="241.5669">implements</text></g><!--reverse link logic_arc_int__baselibs__promise to comp_arc_sta__baselibs__concurrency--><g id="link_logic_arc_int__baselibs__promise_comp_arc_sta__baselibs__concurrency"><path codeLine="17" d="M4310.9874,198.5777 C4214.9174,211.9577 4087.08,229.64 3969.5,245.5 C3895.1,255.54 3812.29,266.47 3743.73,275.45 " fill="transparent" id="logic_arc_int__baselibs__promise-backto-comp_arc_sta__baselibs__concurrency" style="stroke:#181818;stroke-width:1;"/><polygon fill="#181818" points="4316.93,197.75,4307.4643,195.0297,4311.9778,198.4397,4308.5678,202.9532,4316.93,197.75" style="stroke:#181818;stroke-width:1;"/><text fill="#000000" font-family="sans-serif" font-size="13" lengthAdjust="spacing" textLength="76.9082" x="4089.5" y="241.5669">implements</text></g><!--reverse link logic_arc_int__baselibs__intrusive_list to comp_arc_sta__baselibs__containers--><g id="link_logic_arc_int__baselibs__intrusive_list_comp_arc_sta__baselibs__containers"><path codeLine="18" d="M5432.2961,203.5752 C5447.9861,224.8052 5469.52,253.94 5485.23,275.19 " fill="transparent" id="logic_arc_int__baselibs__intrusive_list-backto-comp_arc_sta__baselibs__containers" style="stroke:#181818;stroke-width:1;"/><polygon fill="#181818" points="5428.73,198.75,5430.8623,208.3653,5431.7017,202.771,5437.296,203.6105,5428.73,198.75" style="stroke:#181818;stroke-width:1;"/><text fill="#000000" font-family="sans-serif" font-size="13" lengthAdjust="spacing" textLength="76.9082" x="5463.5" y="241.5669">implements</text></g><!--link Feature_User to logic_arc_int__baselibs__json--><g id="link_Feature_User_logic_arc_int__baselibs__json"><path codeLine="19" d="M3064.44,48.38 C2911.75,61.68 2399.96,107.4 1978.5,158.5 C1972.79,159.19 1972.891,159.1647 1966.981,159.9247 " fill="transparent" id="Feature_User-to-logic_arc_int__baselibs__json" style="stroke:#181818;stroke-width:1;"/><polygon fill="#181818" points="1961.03,160.69,1970.4667,163.5094,1965.9892,160.0523,1969.4463,155.5748,1961.03,160.69" style="stroke:#181818;stroke-width:1;"/><text fill="#000000" font-family="sans-serif" font-size="13" lengthAdjust="spacing" textLength="23.0103" x="2383.5" y="124.5669">use</text></g><!--reverse link logic_arc_int__baselibs__task to comp_arc_sta__baselibs__concurrency--><g id="link_logic_arc_int__baselibs__task_comp_arc_sta__baselibs__concurrency"><path codeLine="20" d="M3745.6118,201.9296 C3711.5418,223.2196 3662.08,254.14 3628.09,275.38 " fill="transparent" id="logic_arc_int__baselibs__task-backto-comp_arc_sta__baselibs__concurrency" style="stroke:#181818;stroke-width:1;"/><polygon fill="#181818" points="3750.7,198.75,3740.9479,200.1272,3746.4598,201.3997,3745.1874,206.9115,3750.7,198.75" style="stroke:#181818;stroke-width:1;"/><text fill="#000000" font-family="sans-serif" font-size="13" lengthAdjust="spacing" textLength="76.9082" x="3702.5" y="241.5669">implements</text></g><!--link Feature_User to logic_arc_int__baselibs__task--><g id="link_Feature_User_logic_arc_int__baselibs__task"><path codeLine="21" d="M3154.64,53.43 C3262.71,74.82 3532.3742,128.195 3679.5442,157.325 " fill="transparent" id="Feature_User-to-logic_arc_int__baselibs__task" style="stroke:#181818;stroke-width:1;"/><polygon fill="#181818" points="3685.43,158.49,3677.378,152.8186,3680.5252,157.5192,3675.8246,160.6664,3685.43,158.49" style="stroke:#181818;stroke-width:1;"/><text fill="#000000" font-family="sans-serif" font-size="13" lengthAdjust="spacing" textLength="23.0103" x="3526.5" y="124.5669">use</text></g><!--reverse link logic_arc_int__baselibs__condition_variable to comp_arc_sta__baselibs__concurrency--><g id="link_logic_arc_int__baselibs__condition_variable_comp_arc_sta__baselibs__concurrency"><path codeLine="22" d="M3489.6673,202.641 C3514.5873,223.871 3549.88,253.94 3574.83,275.19 " fill="transparent" id="logic_arc_int__baselibs__condition_variable-backto-comp_arc_sta__baselibs__concurrency" style="stroke:#181818;stroke-width:1;"/><polygon fill="#181818" points="3485.1,198.75,3489.3569,207.6314,3488.9061,201.9925,3494.5449,201.5416,3485.1,198.75" style="stroke:#181818;stroke-width:1;"/><text fill="#000000" font-family="sans-serif" font-size="13" lengthAdjust="spacing" textLength="76.9082" x="3539.5" y="241.5669">implements</text></g><!--reverse link logic_arc_int__baselibs__utils_scoped_op to comp_arc_sta__baselibs__utils--><g id="link_logic_arc_int__baselibs__utils_scoped_op_comp_arc_sta__baselibs__utils"><path codeLine="23" d="M508.9324,202.5265 C535.1424,223.7565 572.41,253.94 598.65,275.19 " fill="transparent" id="logic_arc_int__baselibs__utils_scoped_op-backto-comp_arc_sta__baselibs__utils" style="stroke:#181818;stroke-width:1;"/><polygon fill="#181818" points="504.27,198.75,508.7459,207.523,508.1553,201.8971,513.7813,201.3065,504.27,198.75" style="stroke:#181818;stroke-width:1;"/><text fill="#000000" font-family="sans-serif" font-size="13" lengthAdjust="spacing" textLength="76.9082" x="561.5" y="241.5669">implements</text></g><!--reverse link logic_arc_int__baselibs__memory_shared to comp_arc_sta__baselibs__memory_shared--><g id="link_logic_arc_int__baselibs__memory_shared_comp_arc_sta__baselibs__memory_shared"><path codeLine="24" d="M5073.5,204.75 C5073.5,225.98 5073.5,253.94 5073.5,275.19 " fill="transparent" id="logic_arc_int__baselibs__memory_shared-backto-comp_arc_sta__baselibs__memory_shared" style="stroke:#181818;stroke-width:1;"/><polygon fill="#181818" points="5073.5,198.75,5069.5,207.75,5073.5,203.75,5077.5,207.75,5073.5,198.75" style="stroke:#181818;stroke-width:1;"/><text fill="#000000" font-family="sans-serif" font-size="13" lengthAdjust="spacing" textLength="76.9082" x="5074.5" y="241.5669">implements</text></g><!--reverse link logic_arc_int__baselibs__message_passing to comp_arc_sta__baselibs__message_passing--><g id="link_logic_arc_int__baselibs__message_passing_comp_arc_sta__baselibs__message_passing"><path codeLine="25" d="M2161.379,204.7464 C2162.119,225.9764 2163.09,253.94 2163.83,275.19 " fill="transparent" id="logic_arc_int__baselibs__message_passing-backto-comp_arc_sta__baselibs__message_passing" style="stroke:#181818;stroke-width:1;"/><polygon fill="#181818" points="2161.17,198.75,2157.4859,207.8839,2161.3442,203.747,2165.4811,207.6052,2161.17,198.75" style="stroke:#181818;stroke-width:1;"/><text fill="#000000" font-family="sans-serif" font-size="13" lengthAdjust="spacing" textLength="76.9082" x="2164.5" y="241.5669">implements</text></g><!--link Feature_User to logic_arc_int__baselibs__executor--><g id="link_Feature_User_logic_arc_int__baselibs__executor"><path codeLine="26" d="M3154.57,47.03 C3335.69,57.39 4028.09,98.89 4595.5,158.5 C4601.28,159.11 4601.2176,159.0797 4607.1776,159.7497 " fill="transparent" id="Feature_User-to-logic_arc_int__baselibs__executor" style="stroke:#181818;stroke-width:1;"/><polygon fill="#181818" points="4613.14,160.42,4604.6432,155.4396,4608.1713,159.8614,4603.7495,163.3896,4613.14,160.42" style="stroke:#181818;stroke-width:1;"/><text fill="#000000" font-family="sans-serif" font-size="13" lengthAdjust="spacing" textLength="23.0103" x="4271.5" y="124.5669">use</text></g><!--link Feature_User to logic_arc_int__baselibs__message_passing--><g id="link_Feature_User_logic_arc_int__baselibs__message_passing"><path codeLine="27" d="M3064.37,50.83 C2927.52,70 2519.3419,127.2072 2302.3619,157.6172 " fill="transparent" id="Feature_User-to-logic_arc_int__baselibs__message_passing" style="stroke:#181818;stroke-width:1;"/><polygon fill="#181818" points="2296.42,158.45,2305.8881,161.1621,2301.3716,157.756,2304.7777,153.2396,2296.42,158.45" style="stroke:#181818;stroke-width:1;"/><text fill="#000000" font-family="sans-serif" font-size="13" lengthAdjust="spacing" textLength="23.0103" x="2608.5" y="124.5669">use</text></g><!--link Feature_User to logic_arc_int__baselibs__synchronized_queue--><g id="link_Feature_User_logic_arc_int__baselibs__synchronized_queue"><path codeLine="28" d="M3154.65,50.52 C3296.22,69.38 3729.6626,127.1474 3958.9826,157.7074 " fill="transparent" id="Feature_User-to-logic_arc_int__baselibs__synchronized_queue" style="stroke:#181818;stroke-width:1;"/><polygon fill="#181818" points="3964.93,158.5,3956.5373,153.3462,3959.9738,157.8395,3955.4805,161.2761,3964.93,158.5" style="stroke:#181818;stroke-width:1;"/><text fill="#000000" font-family="sans-serif" font-size="13" lengthAdjust="spacing" textLength="23.0103" x="3728.5" y="124.5669">use</text></g><!--reverse link logic_arc_int__baselibs__dynamic_array to comp_arc_sta__baselibs__containers--><g id="link_logic_arc_int__baselibs__dynamic_array_comp_arc_sta__baselibs__containers"><path codeLine="29" d="M5703.3154,201.1194 C5656.8954,222.3894 5587.79,254.05 5541.33,275.34 " fill="transparent" id="logic_arc_int__baselibs__dynamic_array-backto-comp_arc_sta__baselibs__containers" style="stroke:#181818;stroke-width:1;"/><polygon fill="#181818" points="5708.77,198.62,5698.9218,198.7326,5704.2245,200.7028,5702.2543,206.0055,5708.77,198.62" style="stroke:#181818;stroke-width:1;"/><text fill="#000000" font-family="sans-serif" font-size="13" lengthAdjust="spacing" textLength="76.9082" x="5641.5" y="241.5669">implements</text></g><!--link Feature_User to logic_arc_int__baselibs__utils_base64--><g id="link_Feature_User_logic_arc_int__baselibs__utils_base64"><path codeLine="30" d="M3064.13,45.67 C2838.65,51.76 1816.18,82.48 982.5,158.5 C976.97,159 977.3001,158.9419 971.6101,159.5119 " fill="transparent" id="Feature_User-to-logic_arc_int__baselibs__utils_base64" style="stroke:#181818;stroke-width:1;"/><polygon fill="#181818" points="965.64,160.11,974.9939,163.193,970.6151,159.6116,974.1965,155.2328,965.64,160.11" style="stroke:#181818;stroke-width:1;"/><text fill="#000000" font-family="sans-serif" font-size="13" lengthAdjust="spacing" textLength="23.0103" x="1567.5" y="124.5669">use</text></g><!--link Feature_User to logic_arc_int__baselibs__shared_future--><g id="link_Feature_User_logic_arc_int__baselibs__shared_future"><path codeLine="31" d="M3109.5,81.55 C3109.5,106.45 3109.5,132.26 3109.5,152.26 " fill="transparent" id="Feature_User-to-logic_arc_int__baselibs__shared_future" style="stroke:#181818;stroke-width:1;"/><polygon fill="#181818" points="3109.5,158.26,3113.5,149.26,3109.5,153.26,3105.5,149.26,3109.5,158.26" style="stroke:#181818;stroke-width:1;"/><text fill="#000000" font-family="sans-serif" font-size="13" lengthAdjust="spacing" textLength="23.0103" x="3110.5" y="124.5669">use</text></g><!--reverse link logic_arc_int__baselibs__bit_mask_operator to comp_arc_sta__baselibs__bit_manipulation--><g id="link_logic_arc_int__baselibs__bit_mask_operator_comp_arc_sta__baselibs__bit_manipulation"><path codeLine="32" d="M1489.6118,201.9296 C1455.5418,223.2196 1406.08,254.14 1372.09,275.38 " fill="transparent" id="logic_arc_int__baselibs__bit_mask_operator-backto-comp_arc_sta__baselibs__bit_manipulation" style="stroke:#181818;stroke-width:1;"/><polygon fill="#181818" points="1494.7,198.75,1484.9479,200.1272,1490.4598,201.3997,1489.1874,206.9115,1494.7,198.75" style="stroke:#181818;stroke-width:1;"/><text fill="#000000" font-family="sans-serif" font-size="13" lengthAdjust="spacing" textLength="76.9082" x="1446.5" y="241.5669">implements</text></g><!--reverse link logic_arc_int__baselibs__executor to comp_arc_sta__baselibs__concurrency--><g id="link_logic_arc_int__baselibs__executor_comp_arc_sta__baselibs__concurrency"><path codeLine="33" d="M4607.1635,197.1108 C4601.2135,197.8308 4601.27,197.81 4595.5,198.5 C4408.54,220.7 4361.87,227.09 4174.5,245.5 C4029.67,259.73 3864.15,273.53 3747.64,282.84 " fill="transparent" id="logic_arc_int__baselibs__executor-backto-comp_arc_sta__baselibs__concurrency" style="stroke:#181818;stroke-width:1;"/><polygon fill="#181818" points="4613.12,196.39,4603.7047,193.5002,4608.1562,196.9907,4604.6657,201.4422,4613.12,196.39" style="stroke:#181818;stroke-width:1;"/><text fill="#000000" font-family="sans-serif" font-size="13" lengthAdjust="spacing" textLength="76.9082" x="4336.5" y="241.5669">implements</text></g><!--link Feature_User to logic_arc_int__baselibs__task_result--><g id="link_Feature_User_logic_arc_int__baselibs__task_result"><path codeLine="34" d="M3064.22,54.39 C2963.4,76.41 2724.8118,128.5099 2593.3918,157.2099 " fill="transparent" id="Feature_User-to-logic_arc_int__baselibs__task_result" style="stroke:#181818;stroke-width:1;"/><polygon fill="#181818" points="2587.53,158.49,2597.1762,160.4777,2592.4149,157.4232,2595.4694,152.6619,2587.53,158.49" style="stroke:#181818;stroke-width:1;"/><text fill="#000000" font-family="sans-serif" font-size="13" lengthAdjust="spacing" textLength="23.0103" x="2788.5" y="124.5669">use</text></g><!--link Feature_User to logic_arc_int__baselibs__bit_mask_operator--><g id="link_Feature_User_logic_arc_int__baselibs__bit_mask_operator"><path codeLine="35" d="M3064.35,47.67 C2934.06,56.86 2546.19,84.62 2224.5,111.5 C1995.9,130.6 1938.82,136.34 1710.5,158.5 C1704.88,159.05 1705.131,159.0212 1699.351,159.5912 " fill="transparent" id="Feature_User-to-logic_arc_int__baselibs__bit_mask_operator" style="stroke:#181818;stroke-width:1;"/><polygon fill="#181818" points="1693.38,160.18,1702.7291,163.2774,1698.3559,159.6893,1701.944,155.3161,1693.38,160.18" style="stroke:#181818;stroke-width:1;"/><text fill="#000000" font-family="sans-serif" font-size="13" lengthAdjust="spacing" textLength="23.0103" x="2225.5" y="124.5669">use</text></g><!--reverse link logic_arc_int__baselibs__json to comp_arc_sta__baselibs__json--><g id="link_logic_arc_int__baselibs__json_comp_arc_sta__baselibs__json"><path codeLine="36" d="M1843.4002,204.7444 C1842.4802,225.9744 1841.26,253.94 1840.34,275.19 " fill="transparent" id="logic_arc_int__baselibs__json-backto-comp_arc_sta__baselibs__json" style="stroke:#181818;stroke-width:1;"/><polygon fill="#181818" points="1843.66,198.75,1839.2741,207.5684,1843.4435,203.7453,1847.2666,207.9147,1843.66,198.75" style="stroke:#181818;stroke-width:1;"/><text fill="#000000" font-family="sans-serif" font-size="13" lengthAdjust="spacing" textLength="76.9082" x="1843.5" y="241.5669">implements</text></g><!--reverse link logic_arc_int__baselibs__filesystem to comp_arc_sta__baselibs__filesystem--><g id="link_logic_arc_int__baselibs__filesystem_comp_arc_sta__baselibs__filesystem"><path codeLine="37" d="M149.5,204.75 C149.5,225.98 149.5,253.94 149.5,275.19 " fill="transparent" id="logic_arc_int__baselibs__filesystem-backto-comp_arc_sta__baselibs__filesystem" style="stroke:#181818;stroke-width:1;"/><polygon fill="#181818" points="149.5,198.75,145.5,207.75,149.5,203.75,153.5,207.75,149.5,198.75" style="stroke:#181818;stroke-width:1;"/><text fill="#000000" font-family="sans-serif" font-size="13" lengthAdjust="spacing" textLength="76.9082" x="150.5" y="241.5669">implements</text></g><!--reverse link logic_arc_int__baselibs__bit_manipulation to comp_arc_sta__baselibs__bit_manipulation--><g id="link_logic_arc_int__baselibs__bit_manipulation_comp_arc_sta__baselibs__bit_manipulation"><path codeLine="38" d="M1196.6865,201.9799 C1230.0165,223.2699 1278.33,254.14 1311.57,275.38 " fill="transparent" id="logic_arc_int__baselibs__bit_manipulation-backto-comp_arc_sta__baselibs__bit_manipulation" style="stroke:#181818;stroke-width:1;"/><polygon fill="#181818" points="1191.63,198.75,1197.0614,206.9658,1195.8437,201.4416,1201.368,200.2239,1191.63,198.75" style="stroke:#181818;stroke-width:1;"/><text fill="#000000" font-family="sans-serif" font-size="13" lengthAdjust="spacing" textLength="76.9082" x="1263.5" y="241.5669">implements</text></g><!--reverse link logic_arc_int__baselibs__synchronized_queue to comp_arc_sta__baselibs__concurrency--><g id="link_logic_arc_int__baselibs__synchronized_queue_comp_arc_sta__baselibs__concurrency"><path codeLine="39" d="M4017.147,199.8699 C3922.737,221.1599 3776.64,254.11 3682.17,275.41 " fill="transparent" id="logic_arc_int__baselibs__synchronized_queue-backto-comp_arc_sta__baselibs__concurrency" style="stroke:#181818;stroke-width:1;"/><polygon fill="#181818" points="4023,198.55,4013.3405,196.6278,4018.1225,199.6499,4015.1004,204.4319,4023,198.55" style="stroke:#181818;stroke-width:1;"/><text fill="#000000" font-family="sans-serif" font-size="13" lengthAdjust="spacing" textLength="76.9082" x="3884.5" y="241.5669">implements</text></g><!--link Feature_User to logic_arc_int__baselibs__memory_shared--><g id="link_Feature_User_logic_arc_int__baselibs__memory_shared"><path codeLine="40" d="M3154.8,46.41 C3357.83,55.18 4204.31,93.93 4896.5,158.5 C4902.35,159.05 4902.3287,159.0238 4908.3387,159.6138 " fill="transparent" id="Feature_User-to-logic_arc_int__baselibs__memory_shared" style="stroke:#181818;stroke-width:1;"/><polygon fill="#181818" points="4914.31,160.2,4905.7439,155.3398,4909.3339,159.7115,4904.9623,163.3016,4914.31,160.2" style="stroke:#181818;stroke-width:1;"/><text fill="#000000" font-family="sans-serif" font-size="13" lengthAdjust="spacing" textLength="23.0103" x="4507.5" y="124.5669">use</text></g><!--link Feature_User to logic_arc_int__baselibs__promise--><g id="link_Feature_User_logic_arc_int__baselibs__promise"><path codeLine="41" d="M3154.64,48.32 C3312.3,61.75 3853.09,108.76 4298.5,158.5 C4304.46,159.17 4304.5906,159.1734 4310.7506,159.8934 " fill="transparent" id="Feature_User-to-logic_arc_int__baselibs__promise" style="stroke:#181818;stroke-width:1;"/><polygon fill="#181818" points="4316.71,160.59,4308.2352,155.5722,4311.7438,160.0095,4307.3065,163.5181,4316.71,160.59" style="stroke:#181818;stroke-width:1;"/><text fill="#000000" font-family="sans-serif" font-size="13" lengthAdjust="spacing" textLength="23.0103" x="4006.5" y="124.5669">use</text></g><!--link Feature_User to logic_arc_int__baselibs__future--><g id="link_Feature_User_logic_arc_int__baselibs__future"><path codeLine="42" d="M3064.42,63.84 C3005.4,89.16 2908.064,130.9244 2849.394,156.0944 " fill="transparent" id="Feature_User-to-logic_arc_int__baselibs__future" style="stroke:#181818;stroke-width:1;"/><polygon fill="#181818" points="2843.88,158.46,2853.728,158.5877,2848.475,156.4887,2850.574,151.2357,2843.88,158.46" style="stroke:#181818;stroke-width:1;"/><text fill="#000000" font-family="sans-serif" font-size="13" lengthAdjust="spacing" textLength="23.0103" x="2946.5" y="124.5669">use</text></g><!--link Feature_User to logic_arc_int__baselibs__intrusive_list--><g id="link_Feature_User_logic_arc_int__baselibs__intrusive_list"><path codeLine="43" d="M3154.77,45.66 C3380.86,51.73 4410.24,82.45 5249.5,158.5 C5255.53,159.05 5255.7087,159.0435 5261.9187,159.6535 " fill="transparent" id="Feature_User-to-logic_arc_int__baselibs__intrusive_list" style="stroke:#181818;stroke-width:1;"/><polygon fill="#181818" points="5267.89,160.24,5259.3241,155.3793,5262.9139,159.7512,5258.5421,163.341,5267.89,160.24" style="stroke:#181818;stroke-width:1;"/><text fill="#000000" font-family="sans-serif" font-size="13" lengthAdjust="spacing" textLength="23.0103" x="4842.5" y="124.5669">use</text></g><!--reverse link logic_arc_int__baselibs__shared_future to comp_arc_sta__baselibs__concurrency--><g id="link_logic_arc_int__baselibs__shared_future_comp_arc_sta__baselibs__concurrency"><path codeLine="44" d="M3196.2,199.9264 C3286.53,221.2164 3426.09,254.11 3516.49,275.41 " fill="transparent" id="logic_arc_int__baselibs__shared_future-backto-comp_arc_sta__baselibs__concurrency" style="stroke:#181818;stroke-width:1;"/><polygon fill="#181818" points="3190.36,198.55,3198.2024,204.508,3195.2267,199.697,3200.0376,196.7213,3190.36,198.55" style="stroke:#181818;stroke-width:1;"/><text fill="#000000" font-family="sans-serif" font-size="13" lengthAdjust="spacing" textLength="76.9082" x="3384.5" y="241.5669">implements</text></g><!--link Feature_User to logic_arc_int__baselibs__dynamic_array--><g id="link_Feature_User_logic_arc_int__baselibs__dynamic_array"><path codeLine="45" d="M3154.52,45.73 C3355.42,51.33 4190.09,75.67 4874.5,111.5 C5187.66,127.89 5266.14,130.83 5578.5,158.5 C5584.34,159.02 5584.3069,159.0026 5590.3069,159.5726 " fill="transparent" id="Feature_User-to-logic_arc_int__baselibs__dynamic_array" style="stroke:#181818;stroke-width:1;"/><polygon fill="#181818" points="5596.28,160.14,5587.6986,155.3068,5591.3024,159.6671,5586.942,163.2709,5596.28,160.14" style="stroke:#181818;stroke-width:1;"/><text fill="#000000" font-family="sans-serif" font-size="13" lengthAdjust="spacing" textLength="23.0103" x="5181.5" y="124.5669">use</text></g><!--link Feature_User to logic_arc_int__baselibs__condition_variable--><g id="link_Feature_User_logic_arc_int__baselibs__condition_variable"><path codeLine="46" d="M3154.57,61.48 C3220.55,86.34 3337.4554,130.3842 3406.3954,156.3642 " fill="transparent" id="Feature_User-to-logic_arc_int__baselibs__condition_variable" style="stroke:#181818;stroke-width:1;"/><polygon fill="#181818" points="3412.01,158.48,3404.9987,151.5632,3407.3312,156.7168,3402.1776,159.0493,3412.01,158.48" style="stroke:#181818;stroke-width:1;"/><text fill="#000000" font-family="sans-serif" font-size="13" lengthAdjust="spacing" textLength="23.0103" x="3329.5" y="124.5669">use</text></g><!--link Feature_User to logic_arc_int__baselibs__bit_manipulation--><g id="link_Feature_User_logic_arc_int__baselibs__bit_manipulation"><path codeLine="47" d="M3064.33,46.6 C2862.81,56.14 2025.63,97.58 1340.5,158.5 C1334.74,159.01 1334.8533,158.985 1328.9333,159.545 " fill="transparent" id="Feature_User-to-logic_arc_int__baselibs__bit_manipulation" style="stroke:#181818;stroke-width:1;"/><polygon fill="#181818" points="1322.96,160.11,1332.2967,163.2447,1327.9378,159.6391,1331.5433,155.2802,1322.96,160.11" style="stroke:#181818;stroke-width:1;"/><text fill="#000000" font-family="sans-serif" font-size="13" lengthAdjust="spacing" textLength="23.0103" x="1925.5" y="124.5669">use</text></g><!--link Feature_User to logic_arc_int__baselibs__utils_scoped_op--><g id="link_Feature_User_logic_arc_int__baselibs__utils_scoped_op"><path codeLine="48" d="M3064.45,45.75 C2864.32,51.38 2035.88,75.75 1356.5,111.5 C1044.68,127.91 966.56,131.2 655.5,158.5 C649.87,158.99 650.1141,158.9628 644.3241,159.5028 " fill="transparent" id="Feature_User-to-logic_arc_int__baselibs__utils_scoped_op" style="stroke:#181818;stroke-width:1;"/><polygon fill="#181818" points="638.35,160.06,647.6826,163.207,643.3284,159.5957,646.9397,155.2415,638.35,160.06" style="stroke:#181818;stroke-width:1;"/><text fill="#000000" font-family="sans-serif" font-size="13" lengthAdjust="spacing" textLength="23.0103" x="1357.5" y="124.5669">use</text></g><!--reverse link logic_arc_int__baselibs__future to comp_arc_sta__baselibs__concurrency--><g id="link_logic_arc_int__baselibs__future_comp_arc_sta__baselibs__concurrency"><path codeLine="49" d="M2928.8311,199.4164 C3016.7811,212.8564 3131.88,230.21 3238.5,245.5 C3309.64,255.7 3388.79,266.56 3454.62,275.45 " fill="transparent" id="logic_arc_int__baselibs__future-backto-comp_arc_sta__baselibs__concurrency" style="stroke:#181818;stroke-width:1;"/><polygon fill="#181818" points="2922.9,198.51,2931.1925,203.8236,2927.8426,199.2653,2932.401,195.9154,2922.9,198.51" style="stroke:#181818;stroke-width:1;"/><text fill="#000000" font-family="sans-serif" font-size="13" lengthAdjust="spacing" textLength="76.9082" x="3239.5" y="241.5669">implements</text></g><!--reverse link logic_arc_int__baselibs__utils_base64 to comp_arc_sta__baselibs__utils--><g id="link_logic_arc_int__baselibs__utils_base64_comp_arc_sta__baselibs__utils"><path codeLine="50" d="M781.3479,201.7743 C744.8679,223.0643 691.64,254.14 655.25,275.38 " fill="transparent" id="logic_arc_int__baselibs__utils_base64-backto-comp_arc_sta__baselibs__utils" style="stroke:#181818;stroke-width:1;"/><polygon fill="#181818" points="786.53,198.75,776.7407,199.8317,782.2116,201.2702,780.7731,206.7411,786.53,198.75" style="stroke:#181818;stroke-width:1;"/><text fill="#000000" font-family="sans-serif" font-size="13" lengthAdjust="spacing" textLength="76.9082" x="734.5" y="241.5669">implements</text></g><!--link Feature_User to logic_arc_int__baselibs__result--><g id="link_Feature_User_logic_arc_int__baselibs__result"><path codeLine="51" d="M3154.68,45.36 C3378.15,49.74 4387.63,70.95 5213.5,111.5 C5528.48,126.97 5607.73,126.83 5921.5,158.5 C5927.36,159.09 5927.3888,159.059 5933.4288,159.749 " fill="transparent" id="Feature_User-to-logic_arc_int__baselibs__result" style="stroke:#181818;stroke-width:1;"/><polygon fill="#181818" points="5939.39,160.43,5930.9022,155.4343,5934.4223,159.8625,5929.9942,163.3827,5939.39,160.43" style="stroke:#181818;stroke-width:1;"/><text fill="#000000" font-family="sans-serif" font-size="13" lengthAdjust="spacing" textLength="23.0103" x="5557.5" y="124.5669">use</text></g><!--link Feature_User to logic_arc_int__baselibs__filesystem--><g id="link_Feature_User_logic_arc_int__baselibs__filesystem"><path codeLine="52" d="M3064.27,45.39 C2841.66,49.87 1840.04,71.43 1020.5,111.5 C702.42,127.05 622.57,128.79 305.5,158.5 C299.66,159.05 299.6684,159.0253 293.6484,159.6453 " fill="transparent" id="Feature_User-to-logic_arc_int__baselibs__filesystem" style="stroke:#181818;stroke-width:1;"/><polygon fill="#181818" points="287.68,160.26,297.0424,163.3169,292.6537,159.7478,296.2229,155.359,287.68,160.26" style="stroke:#181818;stroke-width:1;"/><text fill="#000000" font-family="sans-serif" font-size="13" lengthAdjust="spacing" textLength="23.0103" x="1021.5" y="124.5669">use</text></g><!--SRC=[hLRBRjmm3BpxAuJSDosAe8SWoAL0JpcsPu6McLqsUhWYbSGj-k-LxMrsrzd6Z_WeUpWMX-JGO6ruqewUoMyB2RMIeCeW4fogAA8H2hxOKOMA1IC6QMhip-XgQHI8H2gJ81StB8t5s-8Ic6ofVXTtvF5Bi26gY5Lt-hOZy-2HMNsw_5ZyAMu-x6CAC99n5ryH94LKtndZXG9M-mUwVQ2AmWHNQuX6iu3M9J1QAbbh4xn9CQ8tZTgapQsoOKkcGvANOwG0F-Y8dAnSAtArHOTUMFsNkiUEiCuXd7xNEWP7Z9Df1RB6aKTOyp4cfaVKbdXmvnEvDzLRD3yu-6kL6DLALLbyapvufPjaP4Ljr-j7Y0IbdIX_4h9ZodSOpIRKMEbGJoDsw49iDEyWJz781qwmK-cPOOkw1kRi0QCVE44lBXa-eqbvulTbcn7vwWPp2RZnPXU3fr-v23yJ9XpldMc3LJKUNFSgGhDOchv9slFdgmNPTQNNzwaD64ci9D4EFDN9Gjln8-dryEoUkNqZTCLRr-uEJV4E8tYnuhdAdKdlJVLQ_nj9gBV8AIBTaqLkyefr8vG7u3JYHJK-mDSkyRdXMrZiWTVDBVVBRfqRU39QC-A6QtUbVJKO-8LY3gnhRcxdbkQo-JjklRaChzRhIXAVq_Rzlm7_77vXnPRQtB61TB5_0G00]--></g></svg>