<svg xmlns="http://www.w3.org/2000/svg" xmlns:xlink="http://www.w3.org/1999/xlink" contentStyleType="text/css" data-diagram-type="CLASS" height="322px" preserveAspectRatio="none" style="width:3645px;height:322px;background:#FFFFFF;" version="1.1" viewBox="0 0 3645 322" width="3645px" zoomAndPan="magnify"><defs/><g><!--entity Feature_User--><g id="elem_Feature_User"><ellipse cx="1898.1685" cy="14" fill="#F1F1F1" rx="8" ry="8" style="stroke:#181818;stroke-width:0.5;"/><path d="M1898.1685,22 L1898.1685,49 M1885.1685,30 L1911.1685,30 M1898.1685,49 L1885.1685,64 M1898.1685,49 L1911.1685,64 " fill="transparent" style="stroke:#181818;stroke-width:0.5;"/><text fill="#000000" font-family="sans-serif" font-size="14" lengthAdjust="spacing" textLength="90.3369" x="1853" y="78.4951">Feature User</text></g><!--class logic_arc_int__baselibs__bit_mask_operator--><g id="elem_logic_arc_int__baselibs__bit_mask_operator"><rect fill="#F1F1F1" height="40" id="logic_arc_int__baselibs__bit_mask_operator" rx="2.5" ry="2.5" style="stroke:#181818;stroke-width:0.5;" width="334.6406" x="364.5" y="158.5"/><ellipse cx="379.5" cy="174.5" fill="#ADD1B2" rx="11" ry="11" style="stroke:#181818;stroke-width:1;"/><path d="M382.4688,180.1406 Q381.8906,180.4375 381.25,180.5781 Q380.6094,180.7344 379.9063,180.7344 Q377.4063,180.7344 376.0781,179.0938 Q374.7656,177.4375 374.7656,174.3125 Q374.7656,171.1875 376.0781,169.5313 Q377.4063,167.875 379.9063,167.875 Q380.6094,167.875 381.25,168.0313 Q381.9063,168.1875 382.4688,168.4844 L382.4688,171.2031 Q381.8438,170.625 381.25,170.3594 Q380.6563,170.0781 380.0313,170.0781 Q378.6875,170.0781 378,171.1563 Q377.3125,172.2188 377.3125,174.3125 Q377.3125,176.4063 378,177.4844 Q378.6875,178.5469 380.0313,178.5469 Q380.6563,178.5469 381.25,178.2813 Q381.8438,178 382.4688,177.4219 L382.4688,180.1406 Z " fill="#000000"/><text fill="#000000" font-family="sans-serif" font-size="14" lengthAdjust="spacing" textLength="302.6406" x="393.5" y="179.3467">logic_arc_int__baselibs__bit_mask_operator</text><line style="stroke:#181818;stroke-width:0.5;" x1="365.5" x2="698.1406" y1="190.5" y2="190.5"/></g><!--class logic_arc_int__baselibs__dynamic_array--><g id="elem_logic_arc_int__baselibs__dynamic_array"><rect fill="#F1F1F1" height="40" id="logic_arc_int__baselibs__dynamic_array" rx="2.5" ry="2.5" style="stroke:#181818;stroke-width:0.5;" width="308.3496" x="1088" y="158.5"/><ellipse cx="1103" cy="174.5" fill="#ADD1B2" rx="11" ry="11" style="stroke:#181818;stroke-width:1;"/><path d="M1105.9688,180.1406 Q1105.3906,180.4375 1104.75,180.5781 Q1104.1094,180.7344 1103.4063,180.7344 Q1100.9063,180.7344 1099.5781,179.0938 Q1098.2656,177.4375 1098.2656,174.3125 Q1098.2656,171.1875 1099.5781,169.5313 Q1100.9063,167.875 1103.4063,167.875 Q1104.1094,167.875 1104.75,168.0313 Q1105.4063,168.1875 1105.9688,168.4844 L1105.9688,171.2031 Q1105.3438,170.625 1104.75,170.3594 Q1104.1563,170.0781 1103.5313,170.0781 Q1102.1875,170.0781 1101.5,171.1563 Q1100.8125,172.2188 1100.8125,174.3125 Q1100.8125,176.4063 1101.5,177.4844 Q1102.1875,178.5469 1103.5313,178.5469 Q1104.1563,178.5469 1104.75,178.2813 Q1105.3438,178 1105.9688,177.4219 L1105.9688,180.1406 Z " fill="#000000"/><text fill="#000000" font-family="sans-serif" font-size="14" lengthAdjust="spacing" textLength="276.3496" x="1117" y="179.3467">logic_arc_int__baselibs__dynamic_array</text><line style="stroke:#181818;stroke-width:0.5;" x1="1089" x2="1395.3496" y1="190.5" y2="190.5"/></g><!--class logic_arc_int__baselibs__utils_base64--><g id="elem_logic_arc_int__baselibs__utils_base64"><rect fill="#F1F1F1" height="40" id="logic_arc_int__baselibs__utils_base64" rx="2.5" ry="2.5" style="stroke:#181818;stroke-width:0.5;" width="292.1689" x="2071" y="158.5"/><ellipse cx="2086" cy="174.5" fill="#ADD1B2" rx="11" ry="11" style="stroke:#181818;stroke-width:1;"/><path d="M2088.9688,180.1406 Q2088.3906,180.4375 2087.75,180.5781 Q2087.1094,180.7344 2086.4063,180.7344 Q2083.9063,180.7344 2082.5781,179.0938 Q2081.2656,177.4375 2081.2656,174.3125 Q2081.2656,171.1875 2082.5781,169.5313 Q2083.9063,167.875 2086.4063,167.875 Q2087.1094,167.875 2087.75,168.0313 Q2088.4063,168.1875 2088.9688,168.4844 L2088.9688,171.2031 Q2088.3438,170.625 2087.75,170.3594 Q2087.1563,170.0781 2086.5313,170.0781 Q2085.1875,170.0781 2084.5,171.1563 Q2083.8125,172.2188 2083.8125,174.3125 Q2083.8125,176.4063 2084.5,177.4844 Q2085.1875,178.5469 2086.5313,178.5469 Q2087.1563,178.5469 2087.75,178.2813 Q2088.3438,178 2088.9688,177.4219 L2088.9688,180.1406 Z " fill="#000000"/><text fill="#000000" font-family="sans-serif" font-size="14" lengthAdjust="spacing" textLength="260.1689" x="2100" y="179.3467">logic_arc_int__baselibs__utils_base64</text><line style="stroke:#181818;stroke-width:0.5;" x1="2072" x2="2362.1689" y1="190.5" y2="190.5"/></g><!--class comp_arc_sta__baselibs__message_passing--><g id="elem_comp_arc_sta__baselibs__message_passing"><rect fill="#F1F1F1" height="40" id="comp_arc_sta__baselibs__message_passing" rx="2.5" ry="2.5" style="stroke:#181818;stroke-width:0.5;" width="337.1357" x="3301.5" y="275.5"/><ellipse cx="3316.5" cy="291.5" fill="#ADD1B2" rx="11" ry="11" style="stroke:#181818;stroke-width:1;"/><path d="M3319.4688,297.1406 Q3318.8906,297.4375 3318.25,297.5781 Q3317.6094,297.7344 3316.9063,297.7344 Q3314.4063,297.7344 3313.0781,296.0938 Q3311.7656,294.4375 3311.7656,291.3125 Q3311.7656,288.1875 3313.0781,286.5313 Q3314.4063,284.875 3316.9063,284.875 Q3317.6094,284.875 3318.25,285.0313 Q3318.9063,285.1875 3319.4688,285.4844 L3319.4688,288.2031 Q3318.8438,287.625 3318.25,287.3594 Q3317.6563,287.0781 3317.0313,287.0781 Q3315.6875,287.0781 3315,288.1563 Q3314.3125,289.2188 3314.3125,291.3125 Q3314.3125,293.4063 3315,294.4844 Q3315.6875,295.5469 3317.0313,295.5469 Q3317.6563,295.5469 3318.25,295.2813 Q3318.8438,295 3319.4688,294.4219 L3319.4688,297.1406 Z " fill="#000000"/><text fill="#000000" font-family="sans-serif" font-size="14" lengthAdjust="spacing" textLength="305.1357" x="3330.5" y="296.3467">comp_arc_sta__baselibs__message_passing</text><line style="stroke:#181818;stroke-width:0.5;" x1="3302.5" x2="3637.6357" y1="307.5" y2="307.5"/></g><!--class logic_arc_int__baselibs__message_passing--><g id="elem_logic_arc_int__baselibs__message_passing"><rect fill="#F1F1F1" height="40" id="logic_arc_int__baselibs__message_passing" rx="2.5" ry="2.5" style="stroke:#181818;stroke-width:0.5;" width="328.167" x="3302" y="158.5"/><ellipse cx="3317" cy="174.5" fill="#ADD1B2" rx="11" ry="11" style="stroke:#181818;stroke-width:1;"/><path d="M3319.9688,180.1406 Q3319.3906,180.4375 3318.75,180.5781 Q3318.1094,180.7344 3317.4063,180.7344 Q3314.9063,180.7344 3313.5781,179.0938 Q3312.2656,177.4375 3312.2656,174.3125 Q3312.2656,171.1875 3313.5781,169.5313 Q3314.9063,167.875 3317.4063,167.875 Q3318.1094,167.875 3318.75,168.0313 Q3319.4063,168.1875 3319.9688,168.4844 L3319.9688,171.2031 Q3319.3438,170.625 3318.75,170.3594 Q3318.1563,170.0781 3317.5313,170.0781 Q3316.1875,170.0781 3315.5,171.1563 Q3314.8125,172.2188 3314.8125,174.3125 Q3314.8125,176.4063 3315.5,177.4844 Q3316.1875,178.5469 3317.5313,178.5469 Q3318.1563,178.5469 3318.75,178.2813 Q3319.3438,178 3319.9688,177.4219 L3319.9688,180.1406 Z " fill="#000000"/><text fill="#000000" font-family="sans-serif" font-size="14" lengthAdjust="spacing" textLength="296.167" x="3331" y="179.3467">logic_arc_int__baselibs__message_passing</text><line style="stroke:#181818;stroke-width:0.5;" x1="3303" x2="3629.167" y1="190.5" y2="190.5"/></g><!--class logic_arc_int__baselibs__memory_shared--><g id="elem_logic_arc_int__baselibs__memory_shared"><rect fill="#F1F1F1" height="40" id="logic_arc_int__baselibs__memory_shared" rx="2.5" ry="2.5" style="stroke:#181818;stroke-width:0.5;" width="318.043" x="735" y="158.5"/><ellipse cx="750" cy="174.5" fill="#ADD1B2" rx="11" ry="11" style="stroke:#181818;stroke-width:1;"/><path d="M752.9688,180.1406 Q752.3906,180.4375 751.75,180.5781 Q751.1094,180.7344 750.4063,180.7344 Q747.9063,180.7344 746.5781,179.0938 Q745.2656,177.4375 745.2656,174.3125 Q745.2656,171.1875 746.5781,169.5313 Q747.9063,167.875 750.4063,167.875 Q751.1094,167.875 751.75,168.0313 Q752.4063,168.1875 752.9688,168.4844 L752.9688,171.2031 Q752.3438,170.625 751.75,170.3594 Q751.1563,170.0781 750.5313,170.0781 Q749.1875,170.0781 748.5,171.1563 Q747.8125,172.2188 747.8125,174.3125 Q747.8125,176.4063 748.5,177.4844 Q749.1875,178.5469 750.5313,178.5469 Q751.1563,178.5469 751.75,178.2813 Q752.3438,178 752.9688,177.4219 L752.9688,180.1406 Z " fill="#000000"/><text fill="#000000" font-family="sans-serif" font-size="14" lengthAdjust="spacing" textLength="286.043" x="764" y="179.3467">logic_arc_int__baselibs__memory_shared</text><line style="stroke:#181818;stroke-width:0.5;" x1="736" x2="1052.043" y1="190.5" y2="190.5"/></g><!--class comp_arc_sta__baselibs__json--><g id="elem_comp_arc_sta__baselibs__json"><rect fill="#F1F1F1" height="40" id="comp_arc_sta__baselibs__json" rx="2.5" ry="2.5" style="stroke:#181818;stroke-width:0.5;" width="242.1367" x="3024" y="275.5"/><ellipse cx="3039" cy="291.5" fill="#ADD1B2" rx="11" ry="11" style="stroke:#181818;stroke-width:1;"/><path d="M3041.9688,297.1406 Q3041.3906,297.4375 3040.75,297.5781 Q3040.1094,297.7344 3039.4063,297.7344 Q3036.9063,297.7344 3035.5781,296.0938 Q3034.2656,294.4375 3034.2656,291.3125 Q3034.2656,288.1875 3035.5781,286.5313 Q3036.9063,284.875 3039.4063,284.875 Q3040.1094,284.875 3040.75,285.0313 Q3041.4063,285.1875 3041.9688,285.4844 L3041.9688,288.2031 Q3041.3438,287.625 3040.75,287.3594 Q3040.1563,287.0781 3039.5313,287.0781 Q3038.1875,287.0781 3037.5,288.1563 Q3036.8125,289.2188 3036.8125,291.3125 Q3036.8125,293.4063 3037.5,294.4844 Q3038.1875,295.5469 3039.5313,295.5469 Q3040.1563,295.5469 3040.75,295.2813 Q3041.3438,295 3041.9688,294.4219 L3041.9688,297.1406 Z " fill="#000000"/><text fill="#000000" font-family="sans-serif" font-size="14" lengthAdjust="spacing" textLength="210.1367" x="3053" y="296.3467">comp_arc_sta__baselibs__json</text><line style="stroke:#181818;stroke-width:0.5;" x1="3025" x2="3265.1367" y1="307.5" y2="307.5"/></g><!--class logic_arc_int__baselibs__json--><g id="elem_logic_arc_int__baselibs__json"><rect fill="#F1F1F1" height="40" id="logic_arc_int__baselibs__json" rx="2.5" ry="2.5" style="stroke:#181818;stroke-width:0.5;" width="233.168" x="3028.5" y="158.5"/><ellipse cx="3043.5" cy="174.5" fill="#ADD1B2" rx="11" ry="11" style="stroke:#181818;stroke-width:1;"/><path d="M3046.4688,180.1406 Q3045.8906,180.4375 3045.25,180.5781 Q3044.6094,180.7344 3043.9063,180.7344 Q3041.4063,180.7344 3040.0781,179.0938 Q3038.7656,177.4375 3038.7656,174.3125 Q3038.7656,171.1875 3040.0781,169.5313 Q3041.4063,167.875 3043.9063,167.875 Q3044.6094,167.875 3045.25,168.0313 Q3045.9063,168.1875 3046.4688,168.4844 L3046.4688,171.2031 Q3045.8438,170.625 3045.25,170.3594 Q3044.6563,170.0781 3044.0313,170.0781 Q3042.6875,170.0781 3042,171.1563 Q3041.3125,172.2188 3041.3125,174.3125 Q3041.3125,176.4063 3042,177.4844 Q3042.6875,178.5469 3044.0313,178.5469 Q3044.6563,178.5469 3045.25,178.2813 Q3045.8438,178 3046.4688,177.4219 L3046.4688,180.1406 Z " fill="#000000"/><text fill="#000000" font-family="sans-serif" font-size="14" lengthAdjust="spacing" textLength="201.168" x="3057.5" y="179.3467">logic_arc_int__baselibs__json</text><line style="stroke:#181818;stroke-width:0.5;" x1="3029.5" x2="3260.668" y1="190.5" y2="190.5"/></g><!--class comp_arc_sta__baselibs__result--><g id="elem_comp_arc_sta__baselibs__result"><rect fill="#F1F1F1" height="40" id="comp_arc_sta__baselibs__result" rx="2.5" ry="2.5" style="stroke:#181818;stroke-width:0.5;" width="253.4297" x="2735.5" y="275.5"/><ellipse cx="2750.5" cy="291.5" fill="#ADD1B2" rx="11" ry="11" style="stroke:#181818;stroke-width:1;"/><path d="M2753.4688,297.1406 Q2752.8906,297.4375 2752.25,297.5781 Q2751.6094,297.7344 2750.9063,297.7344 Q2748.4063,297.7344 2747.0781,296.0938 Q2745.7656,294.4375 2745.7656,291.3125 Q2745.7656,288.1875 2747.0781,286.5313 Q2748.4063,284.875 2750.9063,284.875 Q2751.6094,284.875 2752.25,285.0313 Q2752.9063,285.1875 2753.4688,285.4844 L2753.4688,288.2031 Q2752.8438,287.625 2752.25,287.3594 Q2751.6563,287.0781 2751.0313,287.0781 Q2749.6875,287.0781 2749,288.1563 Q2748.3125,289.2188 2748.3125,291.3125 Q2748.3125,293.4063 2749,294.4844 Q2749.6875,295.5469 2751.0313,295.5469 Q2751.6563,295.5469 2752.25,295.2813 Q2752.8438,295 2753.4688,294.4219 L2753.4688,297.1406 Z " fill="#000000"/><text fill="#000000" font-family="sans-serif" font-size="14" lengthAdjust="spacing" textLength="221.4297" x="2764.5" y="296.3467">comp_arc_sta__baselibs__result</text><line style="stroke:#181818;stroke-width:0.5;" x1="2736.5" x2="2987.9297" y1="307.5" y2="307.5"/></g><!--class logic_arc_int__baselibs__result--><g id="elem_logic_arc_int__baselibs__result"><rect fill="#F1F1F1" height="40" id="logic_arc_int__baselibs__result" rx="2.5" ry="2.5" style="stroke:#181818;stroke-width:0.5;" width="244.4609" x="2749" y="158.5"/><ellipse cx="2764" cy="174.5" fill="#ADD1B2" rx="11" ry="11" style="stroke:#181818;stroke-width:1;"/><path d="M2766.9688,180.1406 Q2766.3906,180.4375 2765.75,180.5781 Q2765.1094,180.7344 2764.4063,180.7344 Q2761.9063,180.7344 2760.5781,179.0938 Q2759.2656,177.4375 2759.2656,174.3125 Q2759.2656,171.1875 2760.5781,169.5313 Q2761.9063,167.875 2764.4063,167.875 Q2765.1094,167.875 2765.75,168.0313 Q2766.4063,168.1875 2766.9688,168.4844 L2766.9688,171.2031 Q2766.3438,170.625 2765.75,170.3594 Q2765.1563,170.0781 2764.5313,170.0781 Q2763.1875,170.0781 2762.5,171.1563 Q2761.8125,172.2188 2761.8125,174.3125 Q2761.8125,176.4063 2762.5,177.4844 Q2763.1875,178.5469 2764.5313,178.5469 Q2765.1563,178.5469 2765.75,178.2813 Q2766.3438,178 2766.9688,177.4219 L2766.9688,180.1406 Z " fill="#000000"/><text fill="#000000" font-family="sans-serif" font-size="14" lengthAdjust="spacing" textLength="212.4609" x="2778" y="179.3467">logic_arc_int__baselibs__result</text><line style="stroke:#181818;stroke-width:0.5;" x1="2750" x2="2992.4609" y1="190.5" y2="190.5"/></g><!--class logic_arc_int__baselibs__filesystem--><g id="elem_logic_arc_int__baselibs__filesystem"><rect fill="#F1F1F1" height="40" id="logic_arc_int__baselibs__filesystem" rx="2.5" ry="2.5" style="stroke:#181818;stroke-width:0.5;" width="276.4805" x="1760" y="158.5"/><ellipse cx="1775" cy="174.5" fill="#ADD1B2" rx="11" ry="11" style="stroke:#181818;stroke-width:1;"/><path d="M1777.9688,180.1406 Q1777.3906,180.4375 1776.75,180.5781 Q1776.1094,180.7344 1775.4063,180.7344 Q1772.9063,180.7344 1771.5781,179.0938 Q1770.2656,177.4375 1770.2656,174.3125 Q1770.2656,171.1875 1771.5781,169.5313 Q1772.9063,167.875 1775.4063,167.875 Q1776.1094,167.875 1776.75,168.0313 Q1777.4063,168.1875 1777.9688,168.4844 L1777.9688,171.2031 Q1777.3438,170.625 1776.75,170.3594 Q1776.1563,170.0781 1775.5313,170.0781 Q1774.1875,170.0781 1773.5,171.1563 Q1772.8125,172.2188 1772.8125,174.3125 Q1772.8125,176.4063 1773.5,177.4844 Q1774.1875,178.5469 1775.5313,178.5469 Q1776.1563,178.5469 1776.75,178.2813 Q1777.3438,178 1777.9688,177.4219 L1777.9688,180.1406 Z " fill="#000000"/><text fill="#000000" font-family="sans-serif" font-size="14" lengthAdjust="spacing" textLength="244.4805" x="1789" y="179.3467">logic_arc_int__baselibs__filesystem</text><line style="stroke:#181818;stroke-width:0.5;" x1="1761" x2="2035.4805" y1="190.5" y2="190.5"/></g><!--class comp_arc_sta__baselibs__utils--><g id="elem_comp_arc_sta__baselibs__utils"><rect fill="#F1F1F1" height="40" id="comp_arc_sta__baselibs__utils" rx="2.5" ry="2.5" style="stroke:#181818;stroke-width:0.5;" width="242.9502" x="2264.5" y="275.5"/><ellipse cx="2279.5" cy="291.5" fill="#ADD1B2" rx="11" ry="11" style="stroke:#181818;stroke-width:1;"/><path d="M2282.4688,297.1406 Q2281.8906,297.4375 2281.25,297.5781 Q2280.6094,297.7344 2279.9063,297.7344 Q2277.4063,297.7344 2276.0781,296.0938 Q2274.7656,294.4375 2274.7656,291.3125 Q2274.7656,288.1875 2276.0781,286.5313 Q2277.4063,284.875 2279.9063,284.875 Q2280.6094,284.875 2281.25,285.0313 Q2281.9063,285.1875 2282.4688,285.4844 L2282.4688,288.2031 Q2281.8438,287.625 2281.25,287.3594 Q2280.6563,287.0781 2280.0313,287.0781 Q2278.6875,287.0781 2278,288.1563 Q2277.3125,289.2188 2277.3125,291.3125 Q2277.3125,293.4063 2278,294.4844 Q2278.6875,295.5469 2280.0313,295.5469 Q2280.6563,295.5469 2281.25,295.2813 Q2281.8438,295 2282.4688,294.4219 L2282.4688,297.1406 Z " fill="#000000"/><text fill="#000000" font-family="sans-serif" font-size="14" lengthAdjust="spacing" textLength="210.9502" x="2293.5" y="296.3467">comp_arc_sta__baselibs__utils</text><line style="stroke:#181818;stroke-width:0.5;" x1="2265.5" x2="2506.4502" y1="307.5" y2="307.5"/></g><!--class comp_arc_sta__baselibs__containers--><g id="elem_comp_arc_sta__baselibs__containers"><rect fill="#F1F1F1" height="40" id="comp_arc_sta__baselibs__containers" rx="2.5" ry="2.5" style="stroke:#181818;stroke-width:0.5;" width="287.1445" x="1265.5" y="275.5"/><ellipse cx="1280.5" cy="291.5" fill="#ADD1B2" rx="11" ry="11" style="stroke:#181818;stroke-width:1;"/><path d="M1283.4688,297.1406 Q1282.8906,297.4375 1282.25,297.5781 Q1281.6094,297.7344 1280.9063,297.7344 Q1278.4063,297.7344 1277.0781,296.0938 Q1275.7656,294.4375 1275.7656,291.3125 Q1275.7656,288.1875 1277.0781,286.5313 Q1278.4063,284.875 1280.9063,284.875 Q1281.6094,284.875 1282.25,285.0313 Q1282.9063,285.1875 1283.4688,285.4844 L1283.4688,288.2031 Q1282.8438,287.625 1282.25,287.3594 Q1281.6563,287.0781 1281.0313,287.0781 Q1279.6875,287.0781 1279,288.1563 Q1278.3125,289.2188 1278.3125,291.3125 Q1278.3125,293.4063 1279,294.4844 Q1279.6875,295.5469 1281.0313,295.5469 Q1281.6563,295.5469 1282.25,295.2813 Q1282.8438,295 1283.4688,294.4219 L1283.4688,297.1406 Z " fill="#000000"/><text fill="#000000" font-family="sans-serif" font-size="14" lengthAdjust="spacing" textLength="255.1445" x="1294.5" y="296.3467">comp_arc_sta__baselibs__containers</text><line style="stroke:#181818;stroke-width:0.5;" x1="1266.5" x2="1551.6445" y1="307.5" y2="307.5"/></g><!--class comp_arc_sta__baselibs__filesystem--><g id="elem_comp_arc_sta__baselibs__filesystem"><rect fill="#F1F1F1" height="40" id="comp_arc_sta__baselibs__filesystem" rx="2.5" ry="2.5" style="stroke:#181818;stroke-width:0.5;" width="285.4492" x="1755.5" y="275.5"/><ellipse cx="1770.5" cy="291.5" fill="#ADD1B2" rx="11" ry="11" style="stroke:#181818;stroke-width:1;"/><path d="M1773.4688,297.1406 Q1772.8906,297.4375 1772.25,297.5781 Q1771.6094,297.7344 1770.9063,297.7344 Q1768.4063,297.7344 1767.0781,296.0938 Q1765.7656,294.4375 1765.7656,291.3125 Q1765.7656,288.1875 1767.0781,286.5313 Q1768.4063,284.875 1770.9063,284.875 Q1771.6094,284.875 1772.25,285.0313 Q1772.9063,285.1875 1773.4688,285.4844 L1773.4688,288.2031 Q1772.8438,287.625 1772.25,287.3594 Q1771.6563,287.0781 1771.0313,287.0781 Q1769.6875,287.0781 1769,288.1563 Q1768.3125,289.2188 1768.3125,291.3125 Q1768.3125,293.4063 1769,294.4844 Q1769.6875,295.5469 1771.0313,295.5469 Q1771.6563,295.5469 1772.25,295.2813 Q1772.8438,295 1773.4688,294.4219 L1773.4688,297.1406 Z " fill="#000000"/><text fill="#000000" font-family="sans-serif" font-size="14" lengthAdjust="spacing" textLength="253.4492" x="1784.5" y="296.3467">comp_arc_sta__baselibs__filesystem</text><line style="stroke:#181818;stroke-width:0.5;" x1="1756.5" x2="2039.9492" y1="307.5" y2="307.5"/></g><!--class logic_arc_int__baselibs__bit_manipulation--><g id="elem_logic_arc_int__baselibs__bit_manipulation"><rect fill="#F1F1F1" height="40" id="logic_arc_int__baselibs__bit_manipulation" rx="2.5" ry="2.5" style="stroke:#181818;stroke-width:0.5;" width="321.8369" x="7" y="158.5"/><ellipse cx="22" cy="174.5" fill="#ADD1B2" rx="11" ry="11" style="stroke:#181818;stroke-width:1;"/><path d="M24.9688,180.1406 Q24.3906,180.4375 23.75,180.5781 Q23.1094,180.7344 22.4063,180.7344 Q19.9063,180.7344 18.5781,179.0938 Q17.2656,177.4375 17.2656,174.3125 Q17.2656,171.1875 18.5781,169.5313 Q19.9063,167.875 22.4063,167.875 Q23.1094,167.875 23.75,168.0313 Q24.4063,168.1875 24.9688,168.4844 L24.9688,171.2031 Q24.3438,170.625 23.75,170.3594 Q23.1563,170.0781 22.5313,170.0781 Q21.1875,170.0781 20.5,171.1563 Q19.8125,172.2188 19.8125,174.3125 Q19.8125,176.4063 20.5,177.4844 Q21.1875,178.5469 22.5313,178.5469 Q23.1563,178.5469 23.75,178.2813 Q24.3438,178 24.9688,177.4219 L24.9688,180.1406 Z " fill="#000000"/><text fill="#000000" font-family="sans-serif" font-size="14" lengthAdjust="spacing" textLength="289.8369" x="36" y="179.3467">logic_arc_int__baselibs__bit_manipulation</text><line style="stroke:#181818;stroke-width:0.5;" x1="8" x2="327.8369" y1="190.5" y2="190.5"/></g><!--class logic_arc_int__baselibs__intrusive_list--><g id="elem_logic_arc_int__baselibs__intrusive_list"><rect fill="#F1F1F1" height="40" id="logic_arc_int__baselibs__intrusive_list" rx="2.5" ry="2.5" style="stroke:#181818;stroke-width:0.5;" width="293.0713" x="1431.5" y="158.5"/><ellipse cx="1446.5" cy="174.5" fill="#ADD1B2" rx="11" ry="11" style="stroke:#181818;stroke-width:1;"/><path d="M1449.4688,180.1406 Q1448.8906,180.4375 1448.25,180.5781 Q1447.6094,180.7344 1446.9063,180.7344 Q1444.4063,180.7344 1443.0781,179.0938 Q1441.7656,177.4375 1441.7656,174.3125 Q1441.7656,171.1875 1443.0781,169.5313 Q1444.4063,167.875 1446.9063,167.875 Q1447.6094,167.875 1448.25,168.0313 Q1448.9063,168.1875 1449.4688,168.4844 L1449.4688,171.2031 Q1448.8438,170.625 1448.25,170.3594 Q1447.6563,170.0781 1447.0313,170.0781 Q1445.6875,170.0781 1445,171.1563 Q1444.3125,172.2188 1444.3125,174.3125 Q1444.3125,176.4063 1445,177.4844 Q1445.6875,178.5469 1447.0313,178.5469 Q1447.6563,178.5469 1448.25,178.2813 Q1448.8438,178 1449.4688,177.4219 L1449.4688,180.1406 Z " fill="#000000"/><text fill="#000000" font-family="sans-serif" font-size="14" lengthAdjust="spacing" textLength="261.0713" x="1460.5" y="179.3467">logic_arc_int__baselibs__intrusive_list</text><line style="stroke:#181818;stroke-width:0.5;" x1="1432.5" x2="1723.5713" y1="190.5" y2="190.5"/></g><!--class logic_arc_int__baselibs__utils_scoped_op--><g id="elem_logic_arc_int__baselibs__utils_scoped_op"><rect fill="#F1F1F1" height="40" id="logic_arc_int__baselibs__utils_scoped_op" rx="2.5" ry="2.5" style="stroke:#181818;stroke-width:0.5;" width="315.377" x="2398.5" y="158.5"/><ellipse cx="2413.5" cy="174.5" fill="#ADD1B2" rx="11" ry="11" style="stroke:#181818;stroke-width:1;"/><path d="M2416.4688,180.1406 Q2415.8906,180.4375 2415.25,180.5781 Q2414.6094,180.7344 2413.9063,180.7344 Q2411.4063,180.7344 2410.0781,179.0938 Q2408.7656,177.4375 2408.7656,174.3125 Q2408.7656,171.1875 2410.0781,169.5313 Q2411.4063,167.875 2413.9063,167.875 Q2414.6094,167.875 2415.25,168.0313 Q2415.9063,168.1875 2416.4688,168.4844 L2416.4688,171.2031 Q2415.8438,170.625 2415.25,170.3594 Q2414.6563,170.0781 2414.0313,170.0781 Q2412.6875,170.0781 2412,171.1563 Q2411.3125,172.2188 2411.3125,174.3125 Q2411.3125,176.4063 2412,177.4844 Q2412.6875,178.5469 2414.0313,178.5469 Q2414.6563,178.5469 2415.25,178.2813 Q2415.8438,178 2416.4688,177.4219 L2416.4688,180.1406 Z " fill="#000000"/><text fill="#000000" font-family="sans-serif" font-size="14" lengthAdjust="spacing" textLength="283.377" x="2427.5" y="179.3467">logic_arc_int__baselibs__utils_scoped_op</text><line style="stroke:#181818;stroke-width:0.5;" x1="2399.5" x2="2712.877" y1="190.5" y2="190.5"/></g><!--class comp_arc_sta__baselibs__memory_shared--><g id="elem_comp_arc_sta__baselibs__memory_shared"><rect fill="#F1F1F1" height="40" id="comp_arc_sta__baselibs__memory_shared" rx="2.5" ry="2.5" style="stroke:#181818;stroke-width:0.5;" width="327.0117" x="730.5" y="275.5"/><ellipse cx="745.5" cy="291.5" fill="#ADD1B2" rx="11" ry="11" style="stroke:#181818;stroke-width:1;"/><path d="M748.4688,297.1406 Q747.8906,297.4375 747.25,297.5781 Q746.6094,297.7344 745.9063,297.7344 Q743.4063,297.7344 742.0781,296.0938 Q740.7656,294.4375 740.7656,291.3125 Q740.7656,288.1875 742.0781,286.5313 Q743.4063,284.875 745.9063,284.875 Q746.6094,284.875 747.25,285.0313 Q747.9063,285.1875 748.4688,285.4844 L748.4688,288.2031 Q747.8438,287.625 747.25,287.3594 Q746.6563,287.0781 746.0313,287.0781 Q744.6875,287.0781 744,288.1563 Q743.3125,289.2188 743.3125,291.3125 Q743.3125,293.4063 744,294.4844 Q744.6875,295.5469 746.0313,295.5469 Q746.6563,295.5469 747.25,295.2813 Q747.8438,295 748.4688,294.4219 L748.4688,297.1406 Z " fill="#000000"/><text fill="#000000" font-family="sans-serif" font-size="14" lengthAdjust="spacing" textLength="295.0117" x="759.5" y="296.3467">comp_arc_sta__baselibs__memory_shared</text><line style="stroke:#181818;stroke-width:0.5;" x1="731.5" x2="1056.5117" y1="307.5" y2="307.5"/></g><!--class comp_arc_sta__baselibs__bit_manipulation--><g id="elem_comp_arc_sta__baselibs__bit_manipulation"><rect fill="#F1F1F1" height="40" id="comp_arc_sta__baselibs__bit_manipulation" rx="2.5" ry="2.5" style="stroke:#181818;stroke-width:0.5;" width="330.8057" x="306.5" y="275.5"/><ellipse cx="321.5" cy="291.5" fill="#ADD1B2" rx="11" ry="11" style="stroke:#181818;stroke-width:1;"/><path d="M324.4688,297.1406 Q323.8906,297.4375 323.25,297.5781 Q322.6094,297.7344 321.9063,297.7344 Q319.4063,297.7344 318.0781,296.0938 Q316.7656,294.4375 316.7656,291.3125 Q316.7656,288.1875 318.0781,286.5313 Q319.4063,284.875 321.9063,284.875 Q322.6094,284.875 323.25,285.0313 Q323.9063,285.1875 324.4688,285.4844 L324.4688,288.2031 Q323.8438,287.625 323.25,287.3594 Q322.6563,287.0781 322.0313,287.0781 Q320.6875,287.0781 320,288.1563 Q319.3125,289.2188 319.3125,291.3125 Q319.3125,293.4063 320,294.4844 Q320.6875,295.5469 322.0313,295.5469 Q322.6563,295.5469 323.25,295.2813 Q323.8438,295 324.4688,294.4219 L324.4688,297.1406 Z " fill="#000000"/><text fill="#000000" font-family="sans-serif" font-size="14" lengthAdjust="spacing" textLength="298.8057" x="335.5" y="296.3467">comp_arc_sta__baselibs__bit_manipulation</text><line style="stroke:#181818;stroke-width:0.5;" x1="307.5" x2="636.3057" y1="307.5" y2="307.5"/></g><!--link Feature_User to logic_arc_int__baselibs__bit_mask_operator--><g id="link_Feature_User_logic_arc_int__baselibs__bit_mask_operator"><path codeLine="15" d="M1852.94,48.75 C1696.13,63.56 1159.74,114.4 717,158.5 C711.38,159.06 711.63,159.0309 705.85,159.6109 " fill="transparent" id="Feature_User-to-logic_arc_int__baselibs__bit_mask_operator" style="stroke:#181818;stroke-width:1;"/><polygon fill="#181818" points="699.88,160.21,709.2344,163.2914,704.855,159.7108,708.4356,155.3314,699.88,160.21" style="stroke:#181818;stroke-width:1;"/><text fill="#000000" font-family="sans-serif" font-size="13" lengthAdjust="spacing" textLength="23.0103" x="1173" y="124.5669">use</text></g><!--link Feature_User to logic_arc_int__baselibs__dynamic_array--><g id="link_Feature_User_logic_arc_int__baselibs__dynamic_array"><path codeLine="16" d="M1852.91,53.64 C1746.75,75.17 1485.1004,128.2179 1341.8504,157.2579 " fill="transparent" id="Feature_User-to-logic_arc_int__baselibs__dynamic_array" style="stroke:#181818;stroke-width:1;"/><polygon fill="#181818" points="1335.97,158.45,1345.5853,160.5821,1340.8703,157.4566,1343.9959,152.7416,1335.97,158.45" style="stroke:#181818;stroke-width:1;"/><text fill="#000000" font-family="sans-serif" font-size="13" lengthAdjust="spacing" textLength="23.0103" x="1552" y="124.5669">use</text></g><!--link Feature_User to logic_arc_int__baselibs__utils_base64--><g id="link_Feature_User_logic_arc_int__baselibs__utils_base64"><path codeLine="17" d="M1943.03,63.27 C2003.57,88.51 2105.0721,130.8309 2165.8921,156.1909 " fill="transparent" id="Feature_User-to-logic_arc_int__baselibs__utils_base64" style="stroke:#181818;stroke-width:1;"/><polygon fill="#181818" points="2171.43,158.5,2164.6626,151.3444,2166.8151,156.5757,2161.5838,158.7282,2171.43,158.5" style="stroke:#181818;stroke-width:1;"/><text fill="#000000" font-family="sans-serif" font-size="13" lengthAdjust="spacing" textLength="23.0103" x="2097" y="124.5669">use</text></g><!--reverse link logic_arc_int__baselibs__message_passing to comp_arc_sta__baselibs__message_passing--><g id="link_logic_arc_int__baselibs__message_passing_comp_arc_sta__baselibs__message_passing"><path codeLine="18" d="M3466.879,204.7464 C3467.619,225.9764 3468.59,253.94 3469.33,275.19 " fill="transparent" id="logic_arc_int__baselibs__message_passing-backto-comp_arc_sta__baselibs__message_passing" style="stroke:#181818;stroke-width:1;"/><polygon fill="#181818" points="3466.67,198.75,3462.9859,207.8839,3466.8442,203.747,3470.9811,207.6052,3466.67,198.75" style="stroke:#181818;stroke-width:1;"/><text fill="#000000" font-family="sans-serif" font-size="13" lengthAdjust="spacing" textLength="76.9082" x="3470" y="241.5669">implements</text></g><!--link Feature_User to logic_arc_int__baselibs__memory_shared--><g id="link_Feature_User_logic_arc_int__baselibs__memory_shared"><path codeLine="19" d="M1852.91,50.47 C1710.87,69.29 1274.438,127.102 1043.528,157.692 " fill="transparent" id="Feature_User-to-logic_arc_int__baselibs__memory_shared" style="stroke:#181818;stroke-width:1;"/><polygon fill="#181818" points="1037.58,158.48,1047.0274,161.2634,1042.5367,157.8234,1045.9767,153.3327,1037.58,158.48" style="stroke:#181818;stroke-width:1;"/><text fill="#000000" font-family="sans-serif" font-size="13" lengthAdjust="spacing" textLength="23.0103" x="1367" y="124.5669">use</text></g><!--reverse link logic_arc_int__baselibs__json to comp_arc_sta__baselibs__json--><g id="link_logic_arc_int__baselibs__json_comp_arc_sta__baselibs__json"><path codeLine="20" d="M3145,204.75 C3145,225.98 3145,253.94 3145,275.19 " fill="transparent" id="logic_arc_int__baselibs__json-backto-comp_arc_sta__baselibs__json" style="stroke:#181818;stroke-width:1;"/><polygon fill="#181818" points="3145,198.75,3141,207.75,3145,203.75,3149,207.75,3145,198.75" style="stroke:#181818;stroke-width:1;"/><text fill="#000000" font-family="sans-serif" font-size="13" lengthAdjust="spacing" textLength="76.9082" x="3146" y="241.5669">implements</text></g><!--link Feature_User to logic_arc_int__baselibs__json--><g id="link_Feature_User_logic_arc_int__baselibs__json"><path codeLine="21" d="M1943.09,48.51 C2094.16,62.07 2596.29,108.2 3010,158.5 C3015.99,159.23 3016.1795,159.231 3022.3695,160.031 " fill="transparent" id="Feature_User-to-logic_arc_int__baselibs__json" style="stroke:#181818;stroke-width:1;"/><polygon fill="#181818" points="3028.32,160.8,3019.9069,155.6794,3023.3612,160.1591,3018.8815,163.6134,3028.32,160.8" style="stroke:#181818;stroke-width:1;"/><text fill="#000000" font-family="sans-serif" font-size="13" lengthAdjust="spacing" textLength="23.0103" x="2737" y="124.5669">use</text></g><!--reverse link logic_arc_int__baselibs__result to comp_arc_sta__baselibs__result--><g id="link_logic_arc_int__baselibs__result_comp_arc_sta__baselibs__result"><path codeLine="22" d="M2869.0223,204.7317 C2867.3623,225.9617 2865.17,253.94 2863.51,275.19 " fill="transparent" id="logic_arc_int__baselibs__result-backto-comp_arc_sta__baselibs__result" style="stroke:#181818;stroke-width:1;"/><polygon fill="#181818" points="2869.49,198.75,2864.8006,207.4108,2869.1002,203.7348,2872.7762,208.0344,2869.49,198.75" style="stroke:#181818;stroke-width:1;"/><text fill="#000000" font-family="sans-serif" font-size="13" lengthAdjust="spacing" textLength="76.9082" x="2869" y="241.5669">implements</text></g><!--link Feature_User to logic_arc_int__baselibs__filesystem--><g id="link_Feature_User_logic_arc_int__baselibs__filesystem"><path codeLine="23" d="M1898,81.55 C1898,106.45 1898,132.26 1898,152.26 " fill="transparent" id="Feature_User-to-logic_arc_int__baselibs__filesystem" style="stroke:#181818;stroke-width:1;"/><polygon fill="#181818" points="1898,158.26,1902,149.26,1898,153.26,1894,149.26,1898,158.26" style="stroke:#181818;stroke-width:1;"/><text fill="#000000" font-family="sans-serif" font-size="13" lengthAdjust="spacing" textLength="23.0103" x="1899" y="124.5669">use</text></g><!--reverse link logic_arc_int__baselibs__utils_base64 to comp_arc_sta__baselibs__utils--><g id="link_logic_arc_int__baselibs__utils_base64_comp_arc_sta__baselibs__utils"><path codeLine="24" d="M2250.2506,202.1252 C2281.5406,223.4152 2326.69,254.14 2357.9,275.38 " fill="transparent" id="logic_arc_int__baselibs__utils_base64-backto-comp_arc_sta__baselibs__utils" style="stroke:#181818;stroke-width:1;"/><polygon fill="#181818" points="2245.29,198.75,2250.4808,207.1199,2249.4238,201.5627,2254.9811,200.5058,2245.29,198.75" style="stroke:#181818;stroke-width:1;"/><text fill="#000000" font-family="sans-serif" font-size="13" lengthAdjust="spacing" textLength="76.9082" x="2313" y="241.5669">implements</text></g><!--reverse link logic_arc_int__baselibs__dynamic_array to comp_arc_sta__baselibs__containers--><g id="link_logic_arc_int__baselibs__dynamic_array_comp_arc_sta__baselibs__containers"><path codeLine="25" d="M1274.8918,202.1527 C1305.8118,223.4427 1350.39,254.14 1381.24,275.38 " fill="transparent" id="logic_arc_int__baselibs__dynamic_array-backto-comp_arc_sta__baselibs__containers" style="stroke:#181818;stroke-width:1;"/><polygon fill="#181818" points="1269.95,198.75,1275.0943,207.1486,1274.0682,201.5856,1279.6312,200.5595,1269.95,198.75" style="stroke:#181818;stroke-width:1;"/><text fill="#000000" font-family="sans-serif" font-size="13" lengthAdjust="spacing" textLength="76.9082" x="1337" y="241.5669">implements</text></g><!--reverse link logic_arc_int__baselibs__filesystem to comp_arc_sta__baselibs__filesystem--><g id="link_logic_arc_int__baselibs__filesystem_comp_arc_sta__baselibs__filesystem"><path codeLine="26" d="M1898,204.75 C1898,225.98 1898,253.94 1898,275.19 " fill="transparent" id="logic_arc_int__baselibs__filesystem-backto-comp_arc_sta__baselibs__filesystem" style="stroke:#181818;stroke-width:1;"/><polygon fill="#181818" points="1898,198.75,1894,207.75,1898,203.75,1902,207.75,1898,198.75" style="stroke:#181818;stroke-width:1;"/><text fill="#000000" font-family="sans-serif" font-size="13" lengthAdjust="spacing" textLength="76.9082" x="1899" y="241.5669">implements</text></g><!--link Feature_User to logic_arc_int__baselibs__message_passing--><g id="link_Feature_User_logic_arc_int__baselibs__message_passing"><path codeLine="27" d="M1943.36,47.75 C2072.49,57.04 2453.15,84.8 2769,111.5 C2995.82,130.67 3052.43,136.55 3279,158.5 C3286.47,159.22 3288.1389,159.3814 3295.8489,160.1414 " fill="transparent" id="Feature_User-to-logic_arc_int__baselibs__message_passing" style="stroke:#181818;stroke-width:1;"/><polygon fill="#181818" points="3301.82,160.73,3293.2558,155.8664,3296.8441,160.2395,3292.471,163.8278,3301.82,160.73" style="stroke:#181818;stroke-width:1;"/><text fill="#000000" font-family="sans-serif" font-size="13" lengthAdjust="spacing" textLength="23.0103" x="2965" y="124.5669">use</text></g><!--link Feature_User to logic_arc_int__baselibs__bit_manipulation--><g id="link_Feature_User_logic_arc_int__baselibs__bit_manipulation"><path codeLine="28" d="M1852.91,47.28 C1667.03,58.84 941.97,105.07 347,158.5 C341.24,159.02 341.3533,158.995 335.4333,159.555 " fill="transparent" id="Feature_User-to-logic_arc_int__baselibs__bit_manipulation" style="stroke:#181818;stroke-width:1;"/><polygon fill="#181818" points="329.46,160.12,338.7967,163.2547,334.4378,159.6491,338.0433,155.2902,329.46,160.12" style="stroke:#181818;stroke-width:1;"/><text fill="#000000" font-family="sans-serif" font-size="13" lengthAdjust="spacing" textLength="23.0103" x="903" y="124.5669">use</text></g><!--link Feature_User to logic_arc_int__baselibs__intrusive_list--><g id="link_Feature_User_logic_arc_int__baselibs__intrusive_list"><path codeLine="29" d="M1852.83,63.27 C1792.1,88.51 1690.2603,130.8367 1629.2603,156.1967 " fill="transparent" id="Feature_User-to-logic_arc_int__baselibs__intrusive_list" style="stroke:#181818;stroke-width:1;"/><polygon fill="#181818" points="1623.72,158.5,1633.566,158.7386,1628.3369,156.5806,1630.4949,151.3515,1623.72,158.5" style="stroke:#181818;stroke-width:1;"/><text fill="#000000" font-family="sans-serif" font-size="13" lengthAdjust="spacing" textLength="23.0103" x="1730" y="124.5669">use</text></g><!--reverse link logic_arc_int__baselibs__utils_scoped_op to comp_arc_sta__baselibs__utils--><g id="link_logic_arc_int__baselibs__utils_scoped_op_comp_arc_sta__baselibs__utils"><path codeLine="30" d="M2522.5799,202.1113 C2491.0999,223.4013 2445.66,254.14 2414.26,275.38 " fill="transparent" id="logic_arc_int__baselibs__utils_scoped_op-backto-comp_arc_sta__baselibs__utils" style="stroke:#181818;stroke-width:1;"/><polygon fill="#181818" points="2527.55,198.75,2517.854,200.4785,2523.4083,201.5511,2522.3357,207.1053,2527.55,198.75" style="stroke:#181818;stroke-width:1;"/><text fill="#000000" font-family="sans-serif" font-size="13" lengthAdjust="spacing" textLength="76.9082" x="2483" y="241.5669">implements</text></g><!--link Feature_User to logic_arc_int__baselibs__result--><g id="link_Feature_User_logic_arc_int__baselibs__result"><path codeLine="31" d="M1943.3,50.69 C2086.26,70.23 2525.2953,130.2476 2742.8353,159.9776 " fill="transparent" id="Feature_User-to-logic_arc_int__baselibs__result" style="stroke:#181818;stroke-width:1;"/><polygon fill="#181818" points="2748.78,160.79,2740.4045,155.6082,2743.826,160.113,2739.3213,163.5345,2748.78,160.79" style="stroke:#181818;stroke-width:1;"/><text fill="#000000" font-family="sans-serif" font-size="13" lengthAdjust="spacing" textLength="23.0103" x="2502" y="124.5669">use</text></g><!--reverse link logic_arc_int__baselibs__intrusive_list to comp_arc_sta__baselibs__containers--><g id="link_logic_arc_int__baselibs__intrusive_list_comp_arc_sta__baselibs__containers"><path codeLine="32" d="M1544.7494,202.1252 C1513.4594,223.4152 1468.31,254.14 1437.1,275.38 " fill="transparent" id="logic_arc_int__baselibs__intrusive_list-backto-comp_arc_sta__baselibs__containers" style="stroke:#181818;stroke-width:1;"/><polygon fill="#181818" points="1549.71,198.75,1540.0189,200.5058,1545.5762,201.5627,1544.5192,207.1199,1549.71,198.75" style="stroke:#181818;stroke-width:1;"/><text fill="#000000" font-family="sans-serif" font-size="13" lengthAdjust="spacing" textLength="76.9082" x="1505" y="241.5669">implements</text></g><!--link Feature_User to logic_arc_int__baselibs__utils_scoped_op--><g id="link_Feature_User_logic_arc_int__baselibs__utils_scoped_op"><path codeLine="33" d="M1943.23,53.64 C2049.71,75.17 2312.1789,128.2213 2455.8589,157.2613 " fill="transparent" id="Feature_User-to-logic_arc_int__baselibs__utils_scoped_op" style="stroke:#181818;stroke-width:1;"/><polygon fill="#181818" points="2461.74,158.45,2453.7108,152.7463,2456.8391,157.4595,2452.1259,160.5877,2461.74,158.45" style="stroke:#181818;stroke-width:1;"/><text fill="#000000" font-family="sans-serif" font-size="13" lengthAdjust="spacing" textLength="23.0103" x="2307" y="124.5669">use</text></g><!--reverse link logic_arc_int__baselibs__memory_shared to comp_arc_sta__baselibs__memory_shared--><g id="link_logic_arc_int__baselibs__memory_shared_comp_arc_sta__baselibs__memory_shared"><path codeLine="34" d="M894,204.75 C894,225.98 894,253.94 894,275.19 " fill="transparent" id="logic_arc_int__baselibs__memory_shared-backto-comp_arc_sta__baselibs__memory_shared" style="stroke:#181818;stroke-width:1;"/><polygon fill="#181818" points="894,198.75,890,207.75,894,203.75,898,207.75,894,198.75" style="stroke:#181818;stroke-width:1;"/><text fill="#000000" font-family="sans-serif" font-size="13" lengthAdjust="spacing" textLength="76.9082" x="895" y="241.5669">implements</text></g><!--reverse link logic_arc_int__baselibs__bit_manipulation to comp_arc_sta__baselibs__bit_manipulation--><g id="link_logic_arc_int__baselibs__bit_manipulation_comp_arc_sta__baselibs__bit_manipulation"><path codeLine="35" d="M224.1519,200.7428 C280.4619,222.0428 365.34,254.15 421.59,275.43 " fill="transparent" id="logic_arc_int__baselibs__bit_manipulation-backto-comp_arc_sta__baselibs__bit_manipulation" style="stroke:#181818;stroke-width:1;"/><polygon fill="#181818" points="218.54,198.62,225.5427,205.5455,223.2166,200.389,228.3731,198.0629,218.54,198.62" style="stroke:#181818;stroke-width:1;"/><text fill="#000000" font-family="sans-serif" font-size="13" lengthAdjust="spacing" textLength="76.9082" x="340" y="241.5669">implements</text></g><!--reverse link logic_arc_int__baselibs__bit_mask_operator to comp_arc_sta__baselibs__bit_manipulation--><g id="link_logic_arc_int__baselibs__bit_mask_operator_comp_arc_sta__baselibs__bit_manipulation"><path codeLine="36" d="M519.1839,204.0692 C508.1039,225.2992 493.16,253.94 482.08,275.19 " fill="transparent" id="logic_arc_int__baselibs__bit_mask_operator-backto-comp_arc_sta__baselibs__bit_manipulation" style="stroke:#181818;stroke-width:1;"/><polygon fill="#181818" points="521.96,198.75,514.2498,204.878,519.6466,203.1826,521.342,208.5794,521.96,198.75" style="stroke:#181818;stroke-width:1;"/><text fill="#000000" font-family="sans-serif" font-size="13" lengthAdjust="spacing" textLength="76.9082" x="507" y="241.5669">implements</text></g><!--SRC=[jLLDJ-Gm3BtdLrZSXqKhn04XBaYSEBBdo6tDZ9TyLB7BReNuxsGwWxPJj9Df1RSwjPzVufSNT2x-iPx_SbWRZIreX2ggHWyD9wgLOp0RRWX4AL7KlgLTJBxL7b0rSTKfYRaHxHtTcdCKTXMycWSET1TTJ92e6QB73TVFWKJWv_c5UJCtF_Or1clDUMVtXDebWbz2wGnGOBzWjmjWp46uQbQtuEAQQukfjXpKsWg575UIlrYjHtcsiQM46VqQEY6O0z7q0VtmAs4_lxnJTZB4LvVxwZhwTaWLnN6gpsU2Qx8jYkH9mAex1Zp9lWRshIDFGMKMGKy-fjxA1lE02Wn_Imm5MjkKnLnsnKSf99BEQO74BcanZITs97tMkY-G6OPRu78eW36Z_w7MCIZcYv9Aq1DfdeBzRsi5xF4PB5RMHA5pxyxkzWPkEuTR3vgFaCFK2R-GTIpwPTEKElj9aqrbyTbyAFGeePE5CDtcGbAVDbUmgv5n5Ctgm6HEKUfq-8KEdxNoRKqEdfDnbtS0]--></g></svg>