<svg xmlns="http://www.w3.org/2000/svg" xmlns:xlink="http://www.w3.org/1999/xlink" contentStyleType="text/css" data-diagram-type="CLASS" height="322px" preserveAspectRatio="none" style="width:6208px;height:322px;background:#FFFFFF;" version="1.1" viewBox="0 0 6208 322" width="6208px" zoomAndPan="magnify"><defs/><g><!--entity Feature_User--><g id="elem_Feature_User"><ellipse cx="3123.6685" cy="14" fill="#F1F1F1" rx="8" ry="8" style="stroke:#181818;stroke-width:0.5;"/><path d="M3123.6685,22 L3123.6685,49 M3110.6685,30 L3136.6685,30 M3123.6685,49 L3110.6685,64 M3123.6685,49 L3136.6685,64 " fill="transparent" style="stroke:#181818;stroke-width:0.5;"/><text fill="#000000" font-family="sans-serif" font-size="14" lengthAdjust="spacing" textLength="90.3369" x="3078.5" y="78.4951">Feature User</text></g><!--class comp_arc_sta__baselibs__containers--><g id="elem_comp_arc_sta__baselibs__containers"><rect fill="#F1F1F1" height="40" id="comp_arc_sta__baselibs__containers" rx="2.5" ry="2.5" style="stroke:#181818;stroke-width:0.5;" width="287.1445" x="1477" y="275.5"/><ellipse cx="1492" cy="291.5" fill="#ADD1B2" rx="11" ry="11" style="stroke:#181818;stroke-width:1;"/><path d="M1494.9688,297.1406 Q1494.3906,297.4375 1493.75,297.5781 Q1493.1094,297.7344 1492.4063,297.7344 Q1489.9063,297.7344 1488.5781,296.0938 Q1487.2656,294.4375 1487.2656,291.3125 Q1487.2656,288.1875 1488.5781,286.5313 Q1489.9063,284.875 1492.4063,284.875 Q1493.1094,284.875 1493.75,285.0313 Q1494.4063,285.1875 1494.9688,285.4844 L1494.9688,288.2031 Q1494.3438,287.625 1493.75,287.3594 Q1493.1563,287.0781 1492.5313,287.0781 Q1491.1875,287.0781 1490.5,288.1563 Q1489.8125,289.2188 1489.8125,291.3125 Q1489.8125,293.4063 1490.5,294.4844 Q1491.1875,295.5469 1492.5313,295.5469 Q1493.1563,295.5469 1493.75,295.2813 Q1494.3438,295 1494.9688,294.4219 L1494.9688,297.1406 Z " fill="#000000"/><text fill="#000000" font-family="sans-serif" font-size="14" lengthAdjust="spacing" textLength="255.1445" x="1506" y="296.3467">comp_arc_sta__baselibs__containers</text><line style="stroke:#181818;stroke-width:0.5;" x1="1478" x2="1763.1445" y1="307.5" y2="307.5"/></g><!--class logic_arc_int__baselibs__dynamic_array--><g id="elem_logic_arc_int__baselibs__dynamic_array"><rect fill="#F1F1F1" height="40" id="logic_arc_int__baselibs__dynamic_array" rx="2.5" ry="2.5" style="stroke:#181818;stroke-width:0.5;" width="308.3496" x="1661.5" y="158.5"/><ellipse cx="1676.5" cy="174.5" fill="#ADD1B2" rx="11" ry="11" style="stroke:#181818;stroke-width:1;"/><path d="M1679.4688,180.1406 Q1678.8906,180.4375 1678.25,180.5781 Q1677.6094,180.7344 1676.9063,180.7344 Q1674.4063,180.7344 1673.0781,179.0938 Q1671.7656,177.4375 1671.7656,174.3125 Q1671.7656,171.1875 1673.0781,169.5313 Q1674.4063,167.875 1676.9063,167.875 Q1677.6094,167.875 1678.25,168.0313 Q1678.9063,168.1875 1679.4688,168.4844 L1679.4688,171.2031 Q1678.8438,170.625 1678.25,170.3594 Q1677.6563,170.0781 1677.0313,170.0781 Q1675.6875,170.0781 1675,171.1563 Q1674.3125,172.2188 1674.3125,174.3125 Q1674.3125,176.4063 1675,177.4844 Q1675.6875,178.5469 1677.0313,178.5469 Q1677.6563,178.5469 1678.25,178.2813 Q1678.8438,178 1679.4688,177.4219 L1679.4688,180.1406 Z " fill="#000000"/><text fill="#000000" font-family="sans-serif" font-size="14" lengthAdjust="spacing" textLength="276.3496" x="1690.5" y="179.3467">logic_arc_int__baselibs__dynamic_array</text><line style="stroke:#181818;stroke-width:0.5;" x1="1662.5" x2="1968.8496" y1="190.5" y2="190.5"/></g><!--class comp_arc_sta__baselibs__json--><g id="elem_comp_arc_sta__baselibs__json"><rect fill="#F1F1F1" height="40" id="comp_arc_sta__baselibs__json" rx="2.5" ry="2.5" style="stroke:#181818;stroke-width:0.5;" width="242.1367" x="5959.5" y="275.5"/><ellipse cx="5974.5" cy="291.5" fill="#ADD1B2" rx="11" ry="11" style="stroke:#181818;stroke-width:1;"/><path d="M5977.4688,297.1406 Q5976.8906,297.4375 5976.25,297.5781 Q5975.6094,297.7344 5974.9063,297.7344 Q5972.4063,297.7344 5971.0781,296.0938 Q5969.7656,294.4375 5969.7656,291.3125 Q5969.7656,288.1875 5971.0781,286.5313 Q5972.4063,284.875 5974.9063,284.875 Q5975.6094,284.875 5976.25,285.0313 Q5976.9063,285.1875 5977.4688,285.4844 L5977.4688,288.2031 Q5976.8438,287.625 5976.25,287.3594 Q5975.6563,287.0781 5975.0313,287.0781 Q5973.6875,287.0781 5973,288.1563 Q5972.3125,289.2188 5972.3125,291.3125 Q5972.3125,293.4063 5973,294.4844 Q5973.6875,295.5469 5975.0313,295.5469 Q5975.6563,295.5469 5976.25,295.2813 Q5976.8438,295 5977.4688,294.4219 L5977.4688,297.1406 Z " fill="#000000"/><text fill="#000000" font-family="sans-serif" font-size="14" lengthAdjust="spacing" textLength="210.1367" x="5988.5" y="296.3467">comp_arc_sta__baselibs__json</text><line style="stroke:#181818;stroke-width:0.5;" x1="5960.5" x2="6200.6367" y1="307.5" y2="307.5"/></g><!--class logic_arc_int__baselibs__json--><g id="elem_logic_arc_int__baselibs__json"><rect fill="#F1F1F1" height="40" id="logic_arc_int__baselibs__json" rx="2.5" ry="2.5" style="stroke:#181818;stroke-width:0.5;" width="233.168" x="5964" y="158.5"/><ellipse cx="5979" cy="174.5" fill="#ADD1B2" rx="11" ry="11" style="stroke:#181818;stroke-width:1;"/><path d="M5981.9688,180.1406 Q5981.3906,180.4375 5980.75,180.5781 Q5980.1094,180.7344 5979.4063,180.7344 Q5976.9063,180.7344 5975.5781,179.0938 Q5974.2656,177.4375 5974.2656,174.3125 Q5974.2656,171.1875 5975.5781,169.5313 Q5976.9063,167.875 5979.4063,167.875 Q5980.1094,167.875 5980.75,168.0313 Q5981.4063,168.1875 5981.9688,168.4844 L5981.9688,171.2031 Q5981.3438,170.625 5980.75,170.3594 Q5980.1563,170.0781 5979.5313,170.0781 Q5978.1875,170.0781 5977.5,171.1563 Q5976.8125,172.2188 5976.8125,174.3125 Q5976.8125,176.4063 5977.5,177.4844 Q5978.1875,178.5469 5979.5313,178.5469 Q5980.1563,178.5469 5980.75,178.2813 Q5981.3438,178 5981.9688,177.4219 L5981.9688,180.1406 Z " fill="#000000"/><text fill="#000000" font-family="sans-serif" font-size="14" lengthAdjust="spacing" textLength="201.168" x="5993" y="179.3467">logic_arc_int__baselibs__json</text><line style="stroke:#181818;stroke-width:0.5;" x1="5965" x2="6196.168" y1="190.5" y2="190.5"/></g><!--class logic_arc_int__baselibs__synchronized_queue--><g id="elem_logic_arc_int__baselibs__synchronized_queue"><rect fill="#F1F1F1" height="40" id="logic_arc_int__baselibs__synchronized_queue" rx="2.5" ry="2.5" style="stroke:#181818;stroke-width:0.5;" width="348.3604" x="4175.5" y="158.5"/><ellipse cx="4190.5" cy="174.5" fill="#ADD1B2" rx="11" ry="11" style="stroke:#181818;stroke-width:1;"/><path d="M4193.4688,180.1406 Q4192.8906,180.4375 4192.25,180.5781 Q4191.6094,180.7344 4190.9063,180.7344 Q4188.4063,180.7344 4187.0781,179.0938 Q4185.7656,177.4375 4185.7656,174.3125 Q4185.7656,171.1875 4187.0781,169.5313 Q4188.4063,167.875 4190.9063,167.875 Q4191.6094,167.875 4192.25,168.0313 Q4192.9063,168.1875 4193.4688,168.4844 L4193.4688,171.2031 Q4192.8438,170.625 4192.25,170.3594 Q4191.6563,170.0781 4191.0313,170.0781 Q4189.6875,170.0781 4189,171.1563 Q4188.3125,172.2188 4188.3125,174.3125 Q4188.3125,176.4063 4189,177.4844 Q4189.6875,178.5469 4191.0313,178.5469 Q4191.6563,178.5469 4192.25,178.2813 Q4192.8438,178 4193.4688,177.4219 L4193.4688,180.1406 Z " fill="#000000"/><text fill="#000000" font-family="sans-serif" font-size="14" lengthAdjust="spacing" textLength="316.3604" x="4204.5" y="179.3467">logic_arc_int__baselibs__synchronized_queue</text><line style="stroke:#181818;stroke-width:0.5;" x1="4176.5" x2="4522.8604" y1="190.5" y2="190.5"/></g><!--class logic_arc_int__baselibs__message_passing--><g id="elem_logic_arc_int__baselibs__message_passing"><rect fill="#F1F1F1" height="40" id="logic_arc_int__baselibs__message_passing" rx="2.5" ry="2.5" style="stroke:#181818;stroke-width:0.5;" width="328.167" x="969.5" y="158.5"/><ellipse cx="984.5" cy="174.5" fill="#ADD1B2" rx="11" ry="11" style="stroke:#181818;stroke-width:1;"/><path d="M987.4688,180.1406 Q986.8906,180.4375 986.25,180.5781 Q985.6094,180.7344 984.9063,180.7344 Q982.4063,180.7344 981.0781,179.0938 Q979.7656,177.4375 979.7656,174.3125 Q979.7656,171.1875 981.0781,169.5313 Q982.4063,167.875 984.9063,167.875 Q985.6094,167.875 986.25,168.0313 Q986.9063,168.1875 987.4688,168.4844 L987.4688,171.2031 Q986.8438,170.625 986.25,170.3594 Q985.6563,170.0781 985.0313,170.0781 Q983.6875,170.0781 983,171.1563 Q982.3125,172.2188 982.3125,174.3125 Q982.3125,176.4063 983,177.4844 Q983.6875,178.5469 985.0313,178.5469 Q985.6563,178.5469 986.25,178.2813 Q986.8438,178 987.4688,177.4219 L987.4688,180.1406 Z " fill="#000000"/><text fill="#000000" font-family="sans-serif" font-size="14" lengthAdjust="spacing" textLength="296.167" x="998.5" y="179.3467">logic_arc_int__baselibs__message_passing</text><line style="stroke:#181818;stroke-width:0.5;" x1="970.5" x2="1296.667" y1="190.5" y2="190.5"/></g><!--class comp_arc_sta__baselibs__concurrency--><g id="elem_comp_arc_sta__baselibs__concurrency"><rect fill="#F1F1F1" height="40" id="comp_arc_sta__baselibs__concurrency" rx="2.5" ry="2.5" style="stroke:#181818;stroke-width:0.5;" width="300.2012" x="3095.5" y="275.5"/><ellipse cx="3110.5" cy="291.5" fill="#ADD1B2" rx="11" ry="11" style="stroke:#181818;stroke-width:1;"/><path d="M3113.4688,297.1406 Q3112.8906,297.4375 3112.25,297.5781 Q3111.6094,297.7344 3110.9063,297.7344 Q3108.4063,297.7344 3107.0781,296.0938 Q3105.7656,294.4375 3105.7656,291.3125 Q3105.7656,288.1875 3107.0781,286.5313 Q3108.4063,284.875 3110.9063,284.875 Q3111.6094,284.875 3112.25,285.0313 Q3112.9063,285.1875 3113.4688,285.4844 L3113.4688,288.2031 Q3112.8438,287.625 3112.25,287.3594 Q3111.6563,287.0781 3111.0313,287.0781 Q3109.6875,287.0781 3109,288.1563 Q3108.3125,289.2188 3108.3125,291.3125 Q3108.3125,293.4063 3109,294.4844 Q3109.6875,295.5469 3111.0313,295.5469 Q3111.6563,295.5469 3112.25,295.2813 Q3112.8438,295 3113.4688,294.4219 L3113.4688,297.1406 Z " fill="#000000"/><text fill="#000000" font-family="sans-serif" font-size="14" lengthAdjust="spacing" textLength="268.2012" x="3124.5" y="296.3467">comp_arc_sta__baselibs__concurrency</text><line style="stroke:#181818;stroke-width:0.5;" x1="3096.5" x2="3394.7012" y1="307.5" y2="307.5"/></g><!--class logic_arc_int__baselibs__condition_variable--><g id="elem_logic_arc_int__baselibs__condition_variable"><rect fill="#F1F1F1" height="40" id="logic_arc_int__baselibs__condition_variable" rx="2.5" ry="2.5" style="stroke:#181818;stroke-width:0.5;" width="332.7539" x="2005" y="158.5"/><ellipse cx="2020" cy="174.5" fill="#ADD1B2" rx="11" ry="11" style="stroke:#181818;stroke-width:1;"/><path d="M2022.9688,180.1406 Q2022.3906,180.4375 2021.75,180.5781 Q2021.1094,180.7344 2020.4063,180.7344 Q2017.9063,180.7344 2016.5781,179.0938 Q2015.2656,177.4375 2015.2656,174.3125 Q2015.2656,171.1875 2016.5781,169.5313 Q2017.9063,167.875 2020.4063,167.875 Q2021.1094,167.875 2021.75,168.0313 Q2022.4063,168.1875 2022.9688,168.4844 L2022.9688,171.2031 Q2022.3438,170.625 2021.75,170.3594 Q2021.1563,170.0781 2020.5313,170.0781 Q2019.1875,170.0781 2018.5,171.1563 Q2017.8125,172.2188 2017.8125,174.3125 Q2017.8125,176.4063 2018.5,177.4844 Q2019.1875,178.5469 2020.5313,178.5469 Q2021.1563,178.5469 2021.75,178.2813 Q2022.3438,178 2022.9688,177.4219 L2022.9688,180.1406 Z " fill="#000000"/><text fill="#000000" font-family="sans-serif" font-size="14" lengthAdjust="spacing" textLength="300.7539" x="2034" y="179.3467">logic_arc_int__baselibs__condition_variable</text><line style="stroke:#181818;stroke-width:0.5;" x1="2006" x2="2336.7539" y1="190.5" y2="190.5"/></g><!--class comp_arc_sta__baselibs__bit_manipulation--><g id="elem_comp_arc_sta__baselibs__bit_manipulation"><rect fill="#F1F1F1" height="40" id="comp_arc_sta__baselibs__bit_manipulation" rx="2.5" ry="2.5" style="stroke:#181818;stroke-width:0.5;" width="330.8057" x="5413" y="275.5"/><ellipse cx="5428" cy="291.5" fill="#ADD1B2" rx="11" ry="11" style="stroke:#181818;stroke-width:1;"/><path d="M5430.9688,297.1406 Q5430.3906,297.4375 5429.75,297.5781 Q5429.1094,297.7344 5428.4063,297.7344 Q5425.9063,297.7344 5424.5781,296.0938 Q5423.2656,294.4375 5423.2656,291.3125 Q5423.2656,288.1875 5424.5781,286.5313 Q5425.9063,284.875 5428.4063,284.875 Q5429.1094,284.875 5429.75,285.0313 Q5430.4063,285.1875 5430.9688,285.4844 L5430.9688,288.2031 Q5430.3438,287.625 5429.75,287.3594 Q5429.1563,287.0781 5428.5313,287.0781 Q5427.1875,287.0781 5426.5,288.1563 Q5425.8125,289.2188 5425.8125,291.3125 Q5425.8125,293.4063 5426.5,294.4844 Q5427.1875,295.5469 5428.5313,295.5469 Q5429.1563,295.5469 5429.75,295.2813 Q5430.3438,295 5430.9688,294.4219 L5430.9688,297.1406 Z " fill="#000000"/><text fill="#000000" font-family="sans-serif" font-size="14" lengthAdjust="spacing" textLength="298.8057" x="5442" y="296.3467">comp_arc_sta__baselibs__bit_manipulation</text><line style="stroke:#181818;stroke-width:0.5;" x1="5414" x2="5742.8057" y1="307.5" y2="307.5"/></g><!--class logic_arc_int__baselibs__bit_manipulation--><g id="elem_logic_arc_int__baselibs__bit_manipulation"><rect fill="#F1F1F1" height="40" id="logic_arc_int__baselibs__bit_manipulation" rx="2.5" ry="2.5" style="stroke:#181818;stroke-width:0.5;" width="321.8369" x="5236.5" y="158.5"/><ellipse cx="5251.5" cy="174.5" fill="#ADD1B2" rx="11" ry="11" style="stroke:#181818;stroke-width:1;"/><path d="M5254.4688,180.1406 Q5253.8906,180.4375 5253.25,180.5781 Q5252.6094,180.7344 5251.9063,180.7344 Q5249.4063,180.7344 5248.0781,179.0938 Q5246.7656,177.4375 5246.7656,174.3125 Q5246.7656,171.1875 5248.0781,169.5313 Q5249.4063,167.875 5251.9063,167.875 Q5252.6094,167.875 5253.25,168.0313 Q5253.9063,168.1875 5254.4688,168.4844 L5254.4688,171.2031 Q5253.8438,170.625 5253.25,170.3594 Q5252.6563,170.0781 5252.0313,170.0781 Q5250.6875,170.0781 5250,171.1563 Q5249.3125,172.2188 5249.3125,174.3125 Q5249.3125,176.4063 5250,177.4844 Q5250.6875,178.5469 5252.0313,178.5469 Q5252.6563,178.5469 5253.25,178.2813 Q5253.8438,178 5254.4688,177.4219 L5254.4688,180.1406 Z " fill="#000000"/><text fill="#000000" font-family="sans-serif" font-size="14" lengthAdjust="spacing" textLength="289.8369" x="5265.5" y="179.3467">logic_arc_int__baselibs__bit_manipulation</text><line style="stroke:#181818;stroke-width:0.5;" x1="5237.5" x2="5557.3369" y1="190.5" y2="190.5"/></g><!--class logic_arc_int__baselibs__executor--><g id="elem_logic_arc_int__baselibs__executor"><rect fill="#F1F1F1" height="40" id="logic_arc_int__baselibs__executor" rx="2.5" ry="2.5" style="stroke:#181818;stroke-width:0.5;" width="266.4385" x="3275.5" y="158.5"/><ellipse cx="3290.5" cy="174.5" fill="#ADD1B2" rx="11" ry="11" style="stroke:#181818;stroke-width:1;"/><path d="M3293.4688,180.1406 Q3292.8906,180.4375 3292.25,180.5781 Q3291.6094,180.7344 3290.9063,180.7344 Q3288.4063,180.7344 3287.0781,179.0938 Q3285.7656,177.4375 3285.7656,174.3125 Q3285.7656,171.1875 3287.0781,169.5313 Q3288.4063,167.875 3290.9063,167.875 Q3291.6094,167.875 3292.25,168.0313 Q3292.9063,168.1875 3293.4688,168.4844 L3293.4688,171.2031 Q3292.8438,170.625 3292.25,170.3594 Q3291.6563,170.0781 3291.0313,170.0781 Q3289.6875,170.0781 3289,171.1563 Q3288.3125,172.2188 3288.3125,174.3125 Q3288.3125,176.4063 3289,177.4844 Q3289.6875,178.5469 3291.0313,178.5469 Q3291.6563,178.5469 3292.25,178.2813 Q3292.8438,178 3293.4688,177.4219 L3293.4688,180.1406 Z " fill="#000000"/><text fill="#000000" font-family="sans-serif" font-size="14" lengthAdjust="spacing" textLength="234.4385" x="3304.5" y="179.3467">logic_arc_int__baselibs__executor</text><line style="stroke:#181818;stroke-width:0.5;" x1="3276.5" x2="3540.9385" y1="190.5" y2="190.5"/></g><!--class logic_arc_int__baselibs__memory_shared--><g id="elem_logic_arc_int__baselibs__memory_shared"><rect fill="#F1F1F1" height="40" id="logic_arc_int__baselibs__memory_shared" rx="2.5" ry="2.5" style="stroke:#181818;stroke-width:0.5;" width="318.043" x="18.5" y="158.5"/><ellipse cx="33.5" cy="174.5" fill="#ADD1B2" rx="11" ry="11" style="stroke:#181818;stroke-width:1;"/><path d="M36.4688,180.1406 Q35.8906,180.4375 35.25,180.5781 Q34.6094,180.7344 33.9063,180.7344 Q31.4063,180.7344 30.0781,179.0938 Q28.7656,177.4375 28.7656,174.3125 Q28.7656,171.1875 30.0781,169.5313 Q31.4063,167.875 33.9063,167.875 Q34.6094,167.875 35.25,168.0313 Q35.9063,168.1875 36.4688,168.4844 L36.4688,171.2031 Q35.8438,170.625 35.25,170.3594 Q34.6563,170.0781 34.0313,170.0781 Q32.6875,170.0781 32,171.1563 Q31.3125,172.2188 31.3125,174.3125 Q31.3125,176.4063 32,177.4844 Q32.6875,178.5469 34.0313,178.5469 Q34.6563,178.5469 35.25,178.2813 Q35.8438,178 36.4688,177.4219 L36.4688,180.1406 Z " fill="#000000"/><text fill="#000000" font-family="sans-serif" font-size="14" lengthAdjust="spacing" textLength="286.043" x="47.5" y="179.3467">logic_arc_int__baselibs__memory_shared</text><line style="stroke:#181818;stroke-width:0.5;" x1="19.5" x2="335.543" y1="190.5" y2="190.5"/></g><!--class logic_arc_int__baselibs__filesystem--><g id="elem_logic_arc_int__baselibs__filesystem"><rect fill="#F1F1F1" height="40" id="logic_arc_int__baselibs__filesystem" rx="2.5" ry="2.5" style="stroke:#181818;stroke-width:0.5;" width="276.4805" x="375.5" y="158.5"/><ellipse cx="390.5" cy="174.5" fill="#ADD1B2" rx="11" ry="11" style="stroke:#181818;stroke-width:1;"/><path d="M393.4688,180.1406 Q392.8906,180.4375 392.25,180.5781 Q391.6094,180.7344 390.9063,180.7344 Q388.4063,180.7344 387.0781,179.0938 Q385.7656,177.4375 385.7656,174.3125 Q385.7656,171.1875 387.0781,169.5313 Q388.4063,167.875 390.9063,167.875 Q391.6094,167.875 392.25,168.0313 Q392.9063,168.1875 393.4688,168.4844 L393.4688,171.2031 Q392.8438,170.625 392.25,170.3594 Q391.6563,170.0781 391.0313,170.0781 Q389.6875,170.0781 389,171.1563 Q388.3125,172.2188 388.3125,174.3125 Q388.3125,176.4063 389,177.4844 Q389.6875,178.5469 391.0313,178.5469 Q391.6563,178.5469 392.25,178.2813 Q392.8438,178 393.4688,177.4219 L393.4688,180.1406 Z " fill="#000000"/><text fill="#000000" font-family="sans-serif" font-size="14" lengthAdjust="spacing" textLength="244.4805" x="404.5" y="179.3467">logic_arc_int__baselibs__filesystem</text><line style="stroke:#181818;stroke-width:0.5;" x1="376.5" x2="650.9805" y1="190.5" y2="190.5"/></g><!--class logic_arc_int__baselibs__utils_base64--><g id="elem_logic_arc_int__baselibs__utils_base64"><rect fill="#F1F1F1" height="40" id="logic_arc_int__baselibs__utils_base64" rx="2.5" ry="2.5" style="stroke:#181818;stroke-width:0.5;" width="292.1689" x="4909.5" y="158.5"/><ellipse cx="4924.5" cy="174.5" fill="#ADD1B2" rx="11" ry="11" style="stroke:#181818;stroke-width:1;"/><path d="M4927.4688,180.1406 Q4926.8906,180.4375 4926.25,180.5781 Q4925.6094,180.7344 4924.9063,180.7344 Q4922.4063,180.7344 4921.0781,179.0938 Q4919.7656,177.4375 4919.7656,174.3125 Q4919.7656,171.1875 4921.0781,169.5313 Q4922.4063,167.875 4924.9063,167.875 Q4925.6094,167.875 4926.25,168.0313 Q4926.9063,168.1875 4927.4688,168.4844 L4927.4688,171.2031 Q4926.8438,170.625 4926.25,170.3594 Q4925.6563,170.0781 4925.0313,170.0781 Q4923.6875,170.0781 4923,171.1563 Q4922.3125,172.2188 4922.3125,174.3125 Q4922.3125,176.4063 4923,177.4844 Q4923.6875,178.5469 4925.0313,178.5469 Q4925.6563,178.5469 4926.25,178.2813 Q4926.8438,178 4927.4688,177.4219 L4927.4688,180.1406 Z " fill="#000000"/><text fill="#000000" font-family="sans-serif" font-size="14" lengthAdjust="spacing" textLength="260.1689" x="4938.5" y="179.3467">logic_arc_int__baselibs__utils_base64</text><line style="stroke:#181818;stroke-width:0.5;" x1="4910.5" x2="5200.6689" y1="190.5" y2="190.5"/></g><!--class comp_arc_sta__baselibs__utils--><g id="elem_comp_arc_sta__baselibs__utils"><rect fill="#F1F1F1" height="40" id="comp_arc_sta__baselibs__utils" rx="2.5" ry="2.5" style="stroke:#181818;stroke-width:0.5;" width="242.9502" x="4737" y="275.5"/><ellipse cx="4752" cy="291.5" fill="#ADD1B2" rx="11" ry="11" style="stroke:#181818;stroke-width:1;"/><path d="M4754.9688,297.1406 Q4754.3906,297.4375 4753.75,297.5781 Q4753.1094,297.7344 4752.4063,297.7344 Q4749.9063,297.7344 4748.5781,296.0938 Q4747.2656,294.4375 4747.2656,291.3125 Q4747.2656,288.1875 4748.5781,286.5313 Q4749.9063,284.875 4752.4063,284.875 Q4753.1094,284.875 4753.75,285.0313 Q4754.4063,285.1875 4754.9688,285.4844 L4754.9688,288.2031 Q4754.3438,287.625 4753.75,287.3594 Q4753.1563,287.0781 4752.5313,287.0781 Q4751.1875,287.0781 4750.5,288.1563 Q4749.8125,289.2188 4749.8125,291.3125 Q4749.8125,293.4063 4750.5,294.4844 Q4751.1875,295.5469 4752.5313,295.5469 Q4753.1563,295.5469 4753.75,295.2813 Q4754.3438,295 4754.9688,294.4219 L4754.9688,297.1406 Z " fill="#000000"/><text fill="#000000" font-family="sans-serif" font-size="14" lengthAdjust="spacing" textLength="210.9502" x="4766" y="296.3467">comp_arc_sta__baselibs__utils</text><line style="stroke:#181818;stroke-width:0.5;" x1="4738" x2="4978.9502" y1="307.5" y2="307.5"/></g><!--class logic_arc_int__baselibs__future--><g id="elem_logic_arc_int__baselibs__future"><rect fill="#F1F1F1" height="40" id="logic_arc_int__baselibs__future" rx="2.5" ry="2.5" style="stroke:#181818;stroke-width:0.5;" width="247.0791" x="3577" y="158.5"/><ellipse cx="3592" cy="174.5" fill="#ADD1B2" rx="11" ry="11" style="stroke:#181818;stroke-width:1;"/><path d="M3594.9688,180.1406 Q3594.3906,180.4375 3593.75,180.5781 Q3593.1094,180.7344 3592.4063,180.7344 Q3589.9063,180.7344 3588.5781,179.0938 Q3587.2656,177.4375 3587.2656,174.3125 Q3587.2656,171.1875 3588.5781,169.5313 Q3589.9063,167.875 3592.4063,167.875 Q3593.1094,167.875 3593.75,168.0313 Q3594.4063,168.1875 3594.9688,168.4844 L3594.9688,171.2031 Q3594.3438,170.625 3593.75,170.3594 Q3593.1563,170.0781 3592.5313,170.0781 Q3591.1875,170.0781 3590.5,171.1563 Q3589.8125,172.2188 3589.8125,174.3125 Q3589.8125,176.4063 3590.5,177.4844 Q3591.1875,178.5469 3592.5313,178.5469 Q3593.1563,178.5469 3593.75,178.2813 Q3594.3438,178 3594.9688,177.4219 L3594.9688,180.1406 Z " fill="#000000"/><text fill="#000000" font-family="sans-serif" font-size="14" lengthAdjust="spacing" textLength="215.0791" x="3606" y="179.3467">logic_arc_int__baselibs__future</text><line style="stroke:#181818;stroke-width:0.5;" x1="3578" x2="3823.0791" y1="190.5" y2="190.5"/></g><!--class logic_arc_int__baselibs__task--><g id="elem_logic_arc_int__baselibs__task"><rect fill="#F1F1F1" height="40" id="logic_arc_int__baselibs__task" rx="2.5" ry="2.5" style="stroke:#181818;stroke-width:0.5;" width="234.0156" x="3006.5" y="158.5"/><ellipse cx="3021.5" cy="174.5" fill="#ADD1B2" rx="11" ry="11" style="stroke:#181818;stroke-width:1;"/><path d="M3024.4688,180.1406 Q3023.8906,180.4375 3023.25,180.5781 Q3022.6094,180.7344 3021.9063,180.7344 Q3019.4063,180.7344 3018.0781,179.0938 Q3016.7656,177.4375 3016.7656,174.3125 Q3016.7656,171.1875 3018.0781,169.5313 Q3019.4063,167.875 3021.9063,167.875 Q3022.6094,167.875 3023.25,168.0313 Q3023.9063,168.1875 3024.4688,168.4844 L3024.4688,171.2031 Q3023.8438,170.625 3023.25,170.3594 Q3022.6563,170.0781 3022.0313,170.0781 Q3020.6875,170.0781 3020,171.1563 Q3019.3125,172.2188 3019.3125,174.3125 Q3019.3125,176.4063 3020,177.4844 Q3020.6875,178.5469 3022.0313,178.5469 Q3022.6563,178.5469 3023.25,178.2813 Q3023.8438,178 3024.4688,177.4219 L3024.4688,180.1406 Z " fill="#000000"/><text fill="#000000" font-family="sans-serif" font-size="14" lengthAdjust="spacing" textLength="202.0156" x="3035.5" y="179.3467">logic_arc_int__baselibs__task</text><line style="stroke:#181818;stroke-width:0.5;" x1="3007.5" x2="3239.5156" y1="190.5" y2="190.5"/></g><!--class logic_arc_int__baselibs__bit_mask_operator--><g id="elem_logic_arc_int__baselibs__bit_mask_operator"><rect fill="#F1F1F1" height="40" id="logic_arc_int__baselibs__bit_mask_operator" rx="2.5" ry="2.5" style="stroke:#181818;stroke-width:0.5;" width="334.6406" x="5594" y="158.5"/><ellipse cx="5609" cy="174.5" fill="#ADD1B2" rx="11" ry="11" style="stroke:#181818;stroke-width:1;"/><path d="M5611.9688,180.1406 Q5611.3906,180.4375 5610.75,180.5781 Q5610.1094,180.7344 5609.4063,180.7344 Q5606.9063,180.7344 5605.5781,179.0938 Q5604.2656,177.4375 5604.2656,174.3125 Q5604.2656,171.1875 5605.5781,169.5313 Q5606.9063,167.875 5609.4063,167.875 Q5610.1094,167.875 5610.75,168.0313 Q5611.4063,168.1875 5611.9688,168.4844 L5611.9688,171.2031 Q5611.3438,170.625 5610.75,170.3594 Q5610.1563,170.0781 5609.5313,170.0781 Q5608.1875,170.0781 5607.5,171.1563 Q5606.8125,172.2188 5606.8125,174.3125 Q5606.8125,176.4063 5607.5,177.4844 Q5608.1875,178.5469 5609.5313,178.5469 Q5610.1563,178.5469 5610.75,178.2813 Q5611.3438,178 5611.9688,177.4219 L5611.9688,180.1406 Z " fill="#000000"/><text fill="#000000" font-family="sans-serif" font-size="14" lengthAdjust="spacing" textLength="302.6406" x="5623" y="179.3467">logic_arc_int__baselibs__bit_mask_operator</text><line style="stroke:#181818;stroke-width:0.5;" x1="5595" x2="5927.6406" y1="190.5" y2="190.5"/></g><!--class comp_arc_sta__baselibs__message_passing--><g id="elem_comp_arc_sta__baselibs__message_passing"><rect fill="#F1F1F1" height="40" id="comp_arc_sta__baselibs__message_passing" rx="2.5" ry="2.5" style="stroke:#181818;stroke-width:0.5;" width="337.1357" x="977" y="275.5"/><ellipse cx="992" cy="291.5" fill="#ADD1B2" rx="11" ry="11" style="stroke:#181818;stroke-width:1;"/><path d="M994.9688,297.1406 Q994.3906,297.4375 993.75,297.5781 Q993.1094,297.7344 992.4063,297.7344 Q989.9063,297.7344 988.5781,296.0938 Q987.2656,294.4375 987.2656,291.3125 Q987.2656,288.1875 988.5781,286.5313 Q989.9063,284.875 992.4063,284.875 Q993.1094,284.875 993.75,285.0313 Q994.4063,285.1875 994.9688,285.4844 L994.9688,288.2031 Q994.3438,287.625 993.75,287.3594 Q993.1563,287.0781 992.5313,287.0781 Q991.1875,287.0781 990.5,288.1563 Q989.8125,289.2188 989.8125,291.3125 Q989.8125,293.4063 990.5,294.4844 Q991.1875,295.5469 992.5313,295.5469 Q993.1563,295.5469 993.75,295.2813 Q994.3438,295 994.9688,294.4219 L994.9688,297.1406 Z " fill="#000000"/><text fill="#000000" font-family="sans-serif" font-size="14" lengthAdjust="spacing" textLength="305.1357" x="1006" y="296.3467">comp_arc_sta__baselibs__message_passing</text><line style="stroke:#181818;stroke-width:0.5;" x1="978" x2="1313.1357" y1="307.5" y2="307.5"/></g><!--class logic_arc_int__baselibs__task_result--><g id="elem_logic_arc_int__baselibs__task_result"><rect fill="#F1F1F1" height="40" id="logic_arc_int__baselibs__task_result" rx="2.5" ry="2.5" style="stroke:#181818;stroke-width:0.5;" width="280.9307" x="3859" y="158.5"/><ellipse cx="3874" cy="174.5" fill="#ADD1B2" rx="11" ry="11" style="stroke:#181818;stroke-width:1;"/><path d="M3876.9688,180.1406 Q3876.3906,180.4375 3875.75,180.5781 Q3875.1094,180.7344 3874.4063,180.7344 Q3871.9063,180.7344 3870.5781,179.0938 Q3869.2656,177.4375 3869.2656,174.3125 Q3869.2656,171.1875 3870.5781,169.5313 Q3871.9063,167.875 3874.4063,167.875 Q3875.1094,167.875 3875.75,168.0313 Q3876.4063,168.1875 3876.9688,168.4844 L3876.9688,171.2031 Q3876.3438,170.625 3875.75,170.3594 Q3875.1563,170.0781 3874.5313,170.0781 Q3873.1875,170.0781 3872.5,171.1563 Q3871.8125,172.2188 3871.8125,174.3125 Q3871.8125,176.4063 3872.5,177.4844 Q3873.1875,178.5469 3874.5313,178.5469 Q3875.1563,178.5469 3875.75,178.2813 Q3876.3438,178 3876.9688,177.4219 L3876.9688,180.1406 Z " fill="#000000"/><text fill="#000000" font-family="sans-serif" font-size="14" lengthAdjust="spacing" textLength="248.9307" x="3888" y="179.3467">logic_arc_int__baselibs__task_result</text><line style="stroke:#181818;stroke-width:0.5;" x1="3860" x2="4138.9307" y1="190.5" y2="190.5"/></g><!--class logic_arc_int__baselibs__promise--><g id="elem_logic_arc_int__baselibs__promise"><rect fill="#F1F1F1" height="40" id="logic_arc_int__baselibs__promise" rx="2.5" ry="2.5" style="stroke:#181818;stroke-width:0.5;" width="261.1885" x="2373" y="158.5"/><ellipse cx="2388" cy="174.5" fill="#ADD1B2" rx="11" ry="11" style="stroke:#181818;stroke-width:1;"/><path d="M2390.9688,180.1406 Q2390.3906,180.4375 2389.75,180.5781 Q2389.1094,180.7344 2388.4063,180.7344 Q2385.9063,180.7344 2384.5781,179.0938 Q2383.2656,177.4375 2383.2656,174.3125 Q2383.2656,171.1875 2384.5781,169.5313 Q2385.9063,167.875 2388.4063,167.875 Q2389.1094,167.875 2389.75,168.0313 Q2390.4063,168.1875 2390.9688,168.4844 L2390.9688,171.2031 Q2390.3438,170.625 2389.75,170.3594 Q2389.1563,170.0781 2388.5313,170.0781 Q2387.1875,170.0781 2386.5,171.1563 Q2385.8125,172.2188 2385.8125,174.3125 Q2385.8125,176.4063 2386.5,177.4844 Q2387.1875,178.5469 2388.5313,178.5469 Q2389.1563,178.5469 2389.75,178.2813 Q2390.3438,178 2390.9688,177.4219 L2390.9688,180.1406 Z " fill="#000000"/><text fill="#000000" font-family="sans-serif" font-size="14" lengthAdjust="spacing" textLength="229.1885" x="2402" y="179.3467">logic_arc_int__baselibs__promise</text><line style="stroke:#181818;stroke-width:0.5;" x1="2374" x2="2633.1885" y1="190.5" y2="190.5"/></g><!--class logic_arc_int__baselibs__intrusive_list--><g id="elem_logic_arc_int__baselibs__intrusive_list"><rect fill="#F1F1F1" height="40" id="logic_arc_int__baselibs__intrusive_list" rx="2.5" ry="2.5" style="stroke:#181818;stroke-width:0.5;" width="293.0713" x="1333" y="158.5"/><ellipse cx="1348" cy="174.5" fill="#ADD1B2" rx="11" ry="11" style="stroke:#181818;stroke-width:1;"/><path d="M1350.9688,180.1406 Q1350.3906,180.4375 1349.75,180.5781 Q1349.1094,180.7344 1348.4063,180.7344 Q1345.9063,180.7344 1344.5781,179.0938 Q1343.2656,177.4375 1343.2656,174.3125 Q1343.2656,171.1875 1344.5781,169.5313 Q1345.9063,167.875 1348.4063,167.875 Q1349.1094,167.875 1349.75,168.0313 Q1350.4063,168.1875 1350.9688,168.4844 L1350.9688,171.2031 Q1350.3438,170.625 1349.75,170.3594 Q1349.1563,170.0781 1348.5313,170.0781 Q1347.1875,170.0781 1346.5,171.1563 Q1345.8125,172.2188 1345.8125,174.3125 Q1345.8125,176.4063 1346.5,177.4844 Q1347.1875,178.5469 1348.5313,178.5469 Q1349.1563,178.5469 1349.75,178.2813 Q1350.3438,178 1350.9688,177.4219 L1350.9688,180.1406 Z " fill="#000000"/><text fill="#000000" font-family="sans-serif" font-size="14" lengthAdjust="spacing" textLength="261.0713" x="1362" y="179.3467">logic_arc_int__baselibs__intrusive_list</text><line style="stroke:#181818;stroke-width:0.5;" x1="1334" x2="1625.0713" y1="190.5" y2="190.5"/></g><!--class logic_arc_int__baselibs__shared_future--><g id="elem_logic_arc_int__baselibs__shared_future"><rect fill="#F1F1F1" height="40" id="logic_arc_int__baselibs__shared_future" rx="2.5" ry="2.5" style="stroke:#181818;stroke-width:0.5;" width="302.0811" x="2669.5" y="158.5"/><ellipse cx="2684.5" cy="174.5" fill="#ADD1B2" rx="11" ry="11" style="stroke:#181818;stroke-width:1;"/><path d="M2687.4688,180.1406 Q2686.8906,180.4375 2686.25,180.5781 Q2685.6094,180.7344 2684.9063,180.7344 Q2682.4063,180.7344 2681.0781,179.0938 Q2679.7656,177.4375 2679.7656,174.3125 Q2679.7656,171.1875 2681.0781,169.5313 Q2682.4063,167.875 2684.9063,167.875 Q2685.6094,167.875 2686.25,168.0313 Q2686.9063,168.1875 2687.4688,168.4844 L2687.4688,171.2031 Q2686.8438,170.625 2686.25,170.3594 Q2685.6563,170.0781 2685.0313,170.0781 Q2683.6875,170.0781 2683,171.1563 Q2682.3125,172.2188 2682.3125,174.3125 Q2682.3125,176.4063 2683,177.4844 Q2683.6875,178.5469 2685.0313,178.5469 Q2685.6563,178.5469 2686.25,178.2813 Q2686.8438,178 2687.4688,177.4219 L2687.4688,180.1406 Z " fill="#000000"/><text fill="#000000" font-family="sans-serif" font-size="14" lengthAdjust="spacing" textLength="270.0811" x="2698.5" y="179.3467">logic_arc_int__baselibs__shared_future</text><line style="stroke:#181818;stroke-width:0.5;" x1="2670.5" x2="2970.5811" y1="190.5" y2="190.5"/></g><!--class comp_arc_sta__baselibs__result--><g id="elem_comp_arc_sta__baselibs__result"><rect fill="#F1F1F1" height="40" id="comp_arc_sta__baselibs__result" rx="2.5" ry="2.5" style="stroke:#181818;stroke-width:0.5;" width="253.4297" x="689" y="275.5"/><ellipse cx="704" cy="291.5" fill="#ADD1B2" rx="11" ry="11" style="stroke:#181818;stroke-width:1;"/><path d="M706.9688,297.1406 Q706.3906,297.4375 705.75,297.5781 Q705.1094,297.7344 704.4063,297.7344 Q701.9063,297.7344 700.5781,296.0938 Q699.2656,294.4375 699.2656,291.3125 Q699.2656,288.1875 700.5781,286.5313 Q701.9063,284.875 704.4063,284.875 Q705.1094,284.875 705.75,285.0313 Q706.4063,285.1875 706.9688,285.4844 L706.9688,288.2031 Q706.3438,287.625 705.75,287.3594 Q705.1563,287.0781 704.5313,287.0781 Q703.1875,287.0781 702.5,288.1563 Q701.8125,289.2188 701.8125,291.3125 Q701.8125,293.4063 702.5,294.4844 Q703.1875,295.5469 704.5313,295.5469 Q705.1563,295.5469 705.75,295.2813 Q706.3438,295 706.9688,294.4219 L706.9688,297.1406 Z " fill="#000000"/><text fill="#000000" font-family="sans-serif" font-size="14" lengthAdjust="spacing" textLength="221.4297" x="718" y="296.3467">comp_arc_sta__baselibs__result</text><line style="stroke:#181818;stroke-width:0.5;" x1="690" x2="941.4297" y1="307.5" y2="307.5"/></g><!--class logic_arc_int__baselibs__result--><g id="elem_logic_arc_int__baselibs__result"><rect fill="#F1F1F1" height="40" id="logic_arc_int__baselibs__result" rx="2.5" ry="2.5" style="stroke:#181818;stroke-width:0.5;" width="244.4609" x="690.5" y="158.5"/><ellipse cx="705.5" cy="174.5" fill="#ADD1B2" rx="11" ry="11" style="stroke:#181818;stroke-width:1;"/><path d="M708.4688,180.1406 Q707.8906,180.4375 707.25,180.5781 Q706.6094,180.7344 705.9063,180.7344 Q703.4063,180.7344 702.0781,179.0938 Q700.7656,177.4375 700.7656,174.3125 Q700.7656,171.1875 702.0781,169.5313 Q703.4063,167.875 705.9063,167.875 Q706.6094,167.875 707.25,168.0313 Q707.9063,168.1875 708.4688,168.4844 L708.4688,171.2031 Q707.8438,170.625 707.25,170.3594 Q706.6563,170.0781 706.0313,170.0781 Q704.6875,170.0781 704,171.1563 Q703.3125,172.2188 703.3125,174.3125 Q703.3125,176.4063 704,177.4844 Q704.6875,178.5469 706.0313,178.5469 Q706.6563,178.5469 707.25,178.2813 Q707.8438,178 708.4688,177.4219 L708.4688,180.1406 Z " fill="#000000"/><text fill="#000000" font-family="sans-serif" font-size="14" lengthAdjust="spacing" textLength="212.4609" x="719.5" y="179.3467">logic_arc_int__baselibs__result</text><line style="stroke:#181818;stroke-width:0.5;" x1="691.5" x2="933.9609" y1="190.5" y2="190.5"/></g><!--class logic_arc_int__baselibs__utils_scoped_op--><g id="elem_logic_arc_int__baselibs__utils_scoped_op"><rect fill="#F1F1F1" height="40" id="logic_arc_int__baselibs__utils_scoped_op" rx="2.5" ry="2.5" style="stroke:#181818;stroke-width:0.5;" width="315.377" x="4559" y="158.5"/><ellipse cx="4574" cy="174.5" fill="#ADD1B2" rx="11" ry="11" style="stroke:#181818;stroke-width:1;"/><path d="M4576.9688,180.1406 Q4576.3906,180.4375 4575.75,180.5781 Q4575.1094,180.7344 4574.4063,180.7344 Q4571.9063,180.7344 4570.5781,179.0938 Q4569.2656,177.4375 4569.2656,174.3125 Q4569.2656,171.1875 4570.5781,169.5313 Q4571.9063,167.875 4574.4063,167.875 Q4575.1094,167.875 4575.75,168.0313 Q4576.4063,168.1875 4576.9688,168.4844 L4576.9688,171.2031 Q4576.3438,170.625 4575.75,170.3594 Q4575.1563,170.0781 4574.5313,170.0781 Q4573.1875,170.0781 4572.5,171.1563 Q4571.8125,172.2188 4571.8125,174.3125 Q4571.8125,176.4063 4572.5,177.4844 Q4573.1875,178.5469 4574.5313,178.5469 Q4575.1563,178.5469 4575.75,178.2813 Q4576.3438,178 4576.9688,177.4219 L4576.9688,180.1406 Z " fill="#000000"/><text fill="#000000" font-family="sans-serif" font-size="14" lengthAdjust="spacing" textLength="283.377" x="4588" y="179.3467">logic_arc_int__baselibs__utils_scoped_op</text><line style="stroke:#181818;stroke-width:0.5;" x1="4560" x2="4873.377" y1="190.5" y2="190.5"/></g><!--class comp_arc_sta__baselibs__filesystem--><g id="elem_comp_arc_sta__baselibs__filesystem"><rect fill="#F1F1F1" height="40" id="comp_arc_sta__baselibs__filesystem" rx="2.5" ry="2.5" style="stroke:#181818;stroke-width:0.5;" width="285.4492" x="369" y="275.5"/><ellipse cx="384" cy="291.5" fill="#ADD1B2" rx="11" ry="11" style="stroke:#181818;stroke-width:1;"/><path d="M386.9688,297.1406 Q386.3906,297.4375 385.75,297.5781 Q385.1094,297.7344 384.4063,297.7344 Q381.9063,297.7344 380.5781,296.0938 Q379.2656,294.4375 379.2656,291.3125 Q379.2656,288.1875 380.5781,286.5313 Q381.9063,284.875 384.4063,284.875 Q385.1094,284.875 385.75,285.0313 Q386.4063,285.1875 386.9688,285.4844 L386.9688,288.2031 Q386.3438,287.625 385.75,287.3594 Q385.1563,287.0781 384.5313,287.0781 Q383.1875,287.0781 382.5,288.1563 Q381.8125,289.2188 381.8125,291.3125 Q381.8125,293.4063 382.5,294.4844 Q383.1875,295.5469 384.5313,295.5469 Q385.1563,295.5469 385.75,295.2813 Q386.3438,295 386.9688,294.4219 L386.9688,297.1406 Z " fill="#000000"/><text fill="#000000" font-family="sans-serif" font-size="14" lengthAdjust="spacing" textLength="253.4492" x="398" y="296.3467">comp_arc_sta__baselibs__filesystem</text><line style="stroke:#181818;stroke-width:0.5;" x1="370" x2="653.4492" y1="307.5" y2="307.5"/></g><!--class comp_arc_sta__baselibs__memory_shared--><g id="elem_comp_arc_sta__baselibs__memory_shared"><rect fill="#F1F1F1" height="40" id="comp_arc_sta__baselibs__memory_shared" rx="2.5" ry="2.5" style="stroke:#181818;stroke-width:0.5;" width="327.0117" x="7" y="275.5"/><ellipse cx="22" cy="291.5" fill="#ADD1B2" rx="11" ry="11" style="stroke:#181818;stroke-width:1;"/><path d="M24.9688,297.1406 Q24.3906,297.4375 23.75,297.5781 Q23.1094,297.7344 22.4063,297.7344 Q19.9063,297.7344 18.5781,296.0938 Q17.2656,294.4375 17.2656,291.3125 Q17.2656,288.1875 18.5781,286.5313 Q19.9063,284.875 22.4063,284.875 Q23.1094,284.875 23.75,285.0313 Q24.4063,285.1875 24.9688,285.4844 L24.9688,288.2031 Q24.3438,287.625 23.75,287.3594 Q23.1563,287.0781 22.5313,287.0781 Q21.1875,287.0781 20.5,288.1563 Q19.8125,289.2188 19.8125,291.3125 Q19.8125,293.4063 20.5,294.4844 Q21.1875,295.5469 22.5313,295.5469 Q23.1563,295.5469 23.75,295.2813 Q24.3438,295 24.9688,294.4219 L24.9688,297.1406 Z " fill="#000000"/><text fill="#000000" font-family="sans-serif" font-size="14" lengthAdjust="spacing" textLength="295.0117" x="36" y="296.3467">comp_arc_sta__baselibs__memory_shared</text><line style="stroke:#181818;stroke-width:0.5;" x1="8" x2="333.0117" y1="307.5" y2="307.5"/></g><!--reverse link logic_arc_int__baselibs__dynamic_array to comp_arc_sta__baselibs__containers--><g id="link_logic_arc_int__baselibs__dynamic_array_comp_arc_sta__baselibs__containers"><path codeLine="15" d="M1777.6918,201.7979 C1741.5918,223.0879 1688.94,254.14 1652.92,275.38 " fill="transparent" id="logic_arc_int__baselibs__dynamic_array-backto-comp_arc_sta__baselibs__containers" style="stroke:#181818;stroke-width:1;"/><polygon fill="#181818" points="1782.86,198.75,1773.0758,199.8765,1778.5532,201.2899,1777.1397,206.7674,1782.86,198.75" style="stroke:#181818;stroke-width:1;"/><text fill="#000000" font-family="sans-serif" font-size="13" lengthAdjust="spacing" textLength="76.9082" x="1731.5" y="241.5669">implements</text></g><!--reverse link logic_arc_int__baselibs__json to comp_arc_sta__baselibs__json--><g id="link_logic_arc_int__baselibs__json_comp_arc_sta__baselibs__json"><path codeLine="16" d="M6080.5,204.75 C6080.5,225.98 6080.5,253.94 6080.5,275.19 " fill="transparent" id="logic_arc_int__baselibs__json-backto-comp_arc_sta__baselibs__json" style="stroke:#181818;stroke-width:1;"/><polygon fill="#181818" points="6080.5,198.75,6076.5,207.75,6080.5,203.75,6084.5,207.75,6080.5,198.75" style="stroke:#181818;stroke-width:1;"/><text fill="#000000" font-family="sans-serif" font-size="13" lengthAdjust="spacing" textLength="76.9082" x="6081.5" y="241.5669">implements</text></g><!--link Feature_User to logic_arc_int__baselibs__synchronized_queue--><g id="link_Feature_User_logic_arc_int__baselibs__synchronized_queue"><path codeLine="17" d="M3168.59,49.39 C3330.48,66.95 3882.065,126.793 4169.355,157.953 " fill="transparent" id="Feature_User-to-logic_arc_int__baselibs__synchronized_queue" style="stroke:#181818;stroke-width:1;"/><polygon fill="#181818" points="4175.32,158.6,4166.8038,153.6529,4170.3492,158.0609,4165.9412,161.6062,4175.32,158.6" style="stroke:#181818;stroke-width:1;"/><text fill="#000000" font-family="sans-serif" font-size="13" lengthAdjust="spacing" textLength="23.0103" x="3883.5" y="124.5669">use</text></g><!--link Feature_User to logic_arc_int__baselibs__message_passing--><g id="link_Feature_User_logic_arc_int__baselibs__message_passing"><path codeLine="18" d="M3078.37,46.53 C2874.25,55.87 2016.92,96.97 1315.5,158.5 C1309.65,159.01 1309.6642,158.9943 1303.6442,159.5543 " fill="transparent" id="Feature_User-to-logic_arc_int__baselibs__message_passing" style="stroke:#181818;stroke-width:1;"/><polygon fill="#181818" points="1297.67,160.11,1307.0018,163.2592,1302.6485,159.6469,1306.2608,155.2936,1297.67,160.11" style="stroke:#181818;stroke-width:1;"/><text fill="#000000" font-family="sans-serif" font-size="13" lengthAdjust="spacing" textLength="23.0103" x="1912.5" y="124.5669">use</text></g><!--reverse link logic_arc_int__baselibs__condition_variable to comp_arc_sta__baselibs__concurrency--><g id="link_logic_arc_int__baselibs__condition_variable_comp_arc_sta__baselibs__concurrency"><path codeLine="19" d="M2331.8063,199.253 C2444.6663,212.953 2595.52,230.8 2733.5,245.5 C2855.15,258.46 2993.23,271.58 3095.31,280.98 " fill="transparent" id="logic_arc_int__baselibs__condition_variable-backto-comp_arc_sta__baselibs__concurrency" style="stroke:#181818;stroke-width:1;"/><polygon fill="#181818" points="2325.85,198.53,2334.3024,203.5854,2330.8136,199.1325,2335.2664,195.6437,2325.85,198.53" style="stroke:#181818;stroke-width:1;"/><text fill="#000000" font-family="sans-serif" font-size="13" lengthAdjust="spacing" textLength="76.9082" x="2734.5" y="241.5669">implements</text></g><!--reverse link logic_arc_int__baselibs__bit_manipulation to comp_arc_sta__baselibs__bit_manipulation--><g id="link_logic_arc_int__baselibs__bit_manipulation_comp_arc_sta__baselibs__bit_manipulation"><path codeLine="20" d="M5432.8643,201.9675 C5466.3743,223.2575 5514.98,254.14 5548.41,275.38 " fill="transparent" id="logic_arc_int__baselibs__bit_manipulation-backto-comp_arc_sta__baselibs__bit_manipulation" style="stroke:#181818;stroke-width:1;"/><polygon fill="#181818" points="5427.8,198.75,5433.2515,206.9525,5432.0203,201.4313,5437.5415,200.2001,5427.8,198.75" style="stroke:#181818;stroke-width:1;"/><text fill="#000000" font-family="sans-serif" font-size="13" lengthAdjust="spacing" textLength="76.9082" x="5500.5" y="241.5669">implements</text></g><!--link Feature_User to logic_arc_int__baselibs__executor--><g id="link_Feature_User_logic_arc_int__baselibs__executor"><path codeLine="21" d="M3168.66,65.57 C3223.44,91.14 3309.5426,131.3233 3362.2726,155.9233 " fill="transparent" id="Feature_User-to-logic_arc_int__baselibs__executor" style="stroke:#181818;stroke-width:1;"/><polygon fill="#181818" points="3367.71,158.46,3361.245,151.03,3363.1788,156.3461,3357.8628,158.2799,3367.71,158.46" style="stroke:#181818;stroke-width:1;"/><text fill="#000000" font-family="sans-serif" font-size="13" lengthAdjust="spacing" textLength="23.0103" x="3301.5" y="124.5669">use</text></g><!--link Feature_User to logic_arc_int__baselibs__bit_manipulation--><g id="link_Feature_User_logic_arc_int__baselibs__bit_manipulation"><path codeLine="22" d="M3168.54,45.85 C3391.32,52.74 4397.52,86.58 5218.5,158.5 C5224.26,159 5224.1457,158.985 5230.0657,159.535 " fill="transparent" id="Feature_User-to-logic_arc_int__baselibs__bit_manipulation" style="stroke:#181818;stroke-width:1;"/><polygon fill="#181818" points="5236.04,160.09,5227.4486,155.2746,5231.0614,159.6275,5226.7086,163.2403,5236.04,160.09" style="stroke:#181818;stroke-width:1;"/><text fill="#000000" font-family="sans-serif" font-size="13" lengthAdjust="spacing" textLength="23.0103" x="4819.5" y="124.5669">use</text></g><!--link Feature_User to logic_arc_int__baselibs__memory_shared--><g id="link_Feature_User_logic_arc_int__baselibs__memory_shared"><path codeLine="23" d="M3078.4,45.2 C2853.11,48.82 1827.28,67.12 988.5,111.5 C707.67,126.36 637.59,133.29 357.5,158.5 C350.77,159.11 349.873,159.1711 342.943,159.8311 " fill="transparent" id="Feature_User-to-logic_arc_int__baselibs__memory_shared" style="stroke:#181818;stroke-width:1;"/><polygon fill="#181818" points="336.97,160.4,346.3087,163.5287,341.9475,159.926,345.5502,155.5647,336.97,160.4" style="stroke:#181818;stroke-width:1;"/><text fill="#000000" font-family="sans-serif" font-size="13" lengthAdjust="spacing" textLength="23.0103" x="989.5" y="124.5669">use</text></g><!--link Feature_User to logic_arc_int__baselibs__filesystem--><g id="link_Feature_User_logic_arc_int__baselibs__filesystem"><path codeLine="24" d="M3078.18,45.55 C2873.18,50.43 2012.11,72.35 1306.5,111.5 C1024.38,127.15 953.74,131.29 672.5,158.5 C665.72,159.16 664.7468,159.2292 657.7468,159.9692 " fill="transparent" id="Feature_User-to-logic_arc_int__baselibs__filesystem" style="stroke:#181818;stroke-width:1;"/><polygon fill="#181818" points="651.78,160.6,661.1506,163.6317,656.7523,160.0744,660.3096,155.676,651.78,160.6" style="stroke:#181818;stroke-width:1;"/><text fill="#000000" font-family="sans-serif" font-size="13" lengthAdjust="spacing" textLength="23.0103" x="1307.5" y="124.5669">use</text></g><!--link Feature_User to logic_arc_int__baselibs__utils_base64--><g id="link_Feature_User_logic_arc_int__baselibs__utils_base64"><path codeLine="25" d="M3168.65,46.46 C3370.12,55.43 4207.02,94.77 4891.5,158.5 C4897.35,159.04 4897.3506,159.0151 4903.3706,159.6251 " fill="transparent" id="Feature_User-to-logic_arc_int__baselibs__utils_base64" style="stroke:#181818;stroke-width:1;"/><polygon fill="#181818" points="4909.34,160.23,4900.7891,155.3431,4904.3655,159.7259,4899.9826,163.3023,4909.34,160.23" style="stroke:#181818;stroke-width:1;"/><text fill="#000000" font-family="sans-serif" font-size="13" lengthAdjust="spacing" textLength="23.0103" x="4506.5" y="124.5669">use</text></g><!--reverse link logic_arc_int__baselibs__utils_base64 to comp_arc_sta__baselibs__utils--><g id="link_logic_arc_int__baselibs__utils_base64_comp_arc_sta__baselibs__utils"><path codeLine="26" d="M5017.3479,201.7743 C4980.8679,223.0643 4927.64,254.14 4891.25,275.38 " fill="transparent" id="logic_arc_int__baselibs__utils_base64-backto-comp_arc_sta__baselibs__utils" style="stroke:#181818;stroke-width:1;"/><polygon fill="#181818" points="5022.53,198.75,5012.7407,199.8317,5018.2116,201.2702,5016.7731,206.7411,5022.53,198.75" style="stroke:#181818;stroke-width:1;"/><text fill="#000000" font-family="sans-serif" font-size="13" lengthAdjust="spacing" textLength="76.9082" x="4970.5" y="241.5669">implements</text></g><!--reverse link logic_arc_int__baselibs__future to comp_arc_sta__baselibs__concurrency--><g id="link_logic_arc_int__baselibs__future_comp_arc_sta__baselibs__concurrency"><path codeLine="27" d="M3619.2929,200.0203 C3535.0629,221.3103 3405.32,254.11 3321.04,275.41 " fill="transparent" id="logic_arc_int__baselibs__future-backto-comp_arc_sta__baselibs__concurrency" style="stroke:#181818;stroke-width:1;"/><polygon fill="#181818" points="3625.11,198.55,3615.4042,196.8774,3620.2625,199.7753,3617.3646,204.6335,3625.11,198.55" style="stroke:#181818;stroke-width:1;"/><text fill="#000000" font-family="sans-serif" font-size="13" lengthAdjust="spacing" textLength="76.9082" x="3501.5" y="241.5669">implements</text></g><!--reverse link logic_arc_int__baselibs__executor to comp_arc_sta__baselibs__concurrency--><g id="link_logic_arc_int__baselibs__executor_comp_arc_sta__baselibs__concurrency"><path codeLine="28" d="M3376.3172,202.2086 C3346.1372,223.4986 3302.71,254.14 3272.6,275.38 " fill="transparent" id="logic_arc_int__baselibs__executor-backto-comp_arc_sta__baselibs__concurrency" style="stroke:#181818;stroke-width:1;"/><polygon fill="#181818" points="3381.22,198.75,3371.56,200.6694,3377.1343,201.6322,3376.1715,207.2065,3381.22,198.75" style="stroke:#181818;stroke-width:1;"/><text fill="#000000" font-family="sans-serif" font-size="13" lengthAdjust="spacing" textLength="76.9082" x="3338.5" y="241.5669">implements</text></g><!--reverse link logic_arc_int__baselibs__task to comp_arc_sta__baselibs__concurrency--><g id="link_logic_arc_int__baselibs__task_comp_arc_sta__baselibs__concurrency"><path codeLine="29" d="M3148.2858,202.8658 C3170.8058,224.0958 3202.47,253.94 3225.01,275.19 " fill="transparent" id="logic_arc_int__baselibs__task-backto-comp_arc_sta__baselibs__concurrency" style="stroke:#181818;stroke-width:1;"/><polygon fill="#181818" points="3143.92,198.75,3147.7249,207.8342,3147.5582,202.1798,3153.2126,202.0131,3143.92,198.75" style="stroke:#181818;stroke-width:1;"/><text fill="#000000" font-family="sans-serif" font-size="13" lengthAdjust="spacing" textLength="76.9082" x="3193.5" y="241.5669">implements</text></g><!--reverse link logic_arc_int__baselibs__bit_mask_operator to comp_arc_sta__baselibs__bit_manipulation--><g id="link_logic_arc_int__baselibs__bit_mask_operator_comp_arc_sta__baselibs__bit_manipulation"><path codeLine="30" d="M5725.7898,201.9424 C5691.9098,223.2324 5642.72,254.14 5608.92,275.38 " fill="transparent" id="logic_arc_int__baselibs__bit_mask_operator-backto-comp_arc_sta__baselibs__bit_manipulation" style="stroke:#181818;stroke-width:1;"/><polygon fill="#181818" points="5730.87,198.75,5721.1214,200.1518,5726.6365,201.4103,5725.3779,206.9254,5730.87,198.75" style="stroke:#181818;stroke-width:1;"/><text fill="#000000" font-family="sans-serif" font-size="13" lengthAdjust="spacing" textLength="76.9082" x="5682.5" y="241.5669">implements</text></g><!--reverse link logic_arc_int__baselibs__message_passing to comp_arc_sta__baselibs__message_passing--><g id="link_logic_arc_int__baselibs__message_passing_comp_arc_sta__baselibs__message_passing"><path codeLine="31" d="M1136.1312,204.7178 C1138.3412,225.9478 1141.27,253.94 1143.48,275.19 " fill="transparent" id="logic_arc_int__baselibs__message_passing-backto-comp_arc_sta__baselibs__message_passing" style="stroke:#181818;stroke-width:1;"/><polygon fill="#181818" points="1135.51,198.75,1132.4633,208.1158,1136.0277,203.7231,1140.4203,207.2875,1135.51,198.75" style="stroke:#181818;stroke-width:1;"/><text fill="#000000" font-family="sans-serif" font-size="13" lengthAdjust="spacing" textLength="76.9082" x="1141.5" y="241.5669">implements</text></g><!--link Feature_User to logic_arc_int__baselibs__task_result--><g id="link_Feature_User_logic_arc_int__baselibs__task_result"><path codeLine="32" d="M3168.75,51.37 C3298.56,71.08 3669.588,127.4093 3868.028,157.5393 " fill="transparent" id="Feature_User-to-logic_arc_int__baselibs__task_result" style="stroke:#181818;stroke-width:1;"/><polygon fill="#181818" points="3873.96,158.44,3865.6624,153.1343,3869.0167,157.6894,3864.4615,161.0437,3873.96,158.44" style="stroke:#181818;stroke-width:1;"/><text fill="#000000" font-family="sans-serif" font-size="13" lengthAdjust="spacing" textLength="23.0103" x="3667.5" y="124.5669">use</text></g><!--reverse link logic_arc_int__baselibs__promise to comp_arc_sta__baselibs__concurrency--><g id="link_logic_arc_int__baselibs__promise_comp_arc_sta__baselibs__concurrency"><path codeLine="33" d="M2629.046,199.4691 C2712.846,212.7491 2821.52,229.89 2922.5,245.5 C2987.24,255.51 3059.31,266.46 3118.92,275.47 " fill="transparent" id="logic_arc_int__baselibs__promise-backto-comp_arc_sta__baselibs__concurrency" style="stroke:#181818;stroke-width:1;"/><polygon fill="#181818" points="2623.12,198.53,2631.383,203.8894,2628.0584,199.3126,2632.6352,195.988,2623.12,198.53" style="stroke:#181818;stroke-width:1;"/><text fill="#000000" font-family="sans-serif" font-size="13" lengthAdjust="spacing" textLength="76.9082" x="2923.5" y="241.5669">implements</text></g><!--link Feature_User to logic_arc_int__baselibs__intrusive_list--><g id="link_Feature_User_logic_arc_int__baselibs__intrusive_list"><path codeLine="34" d="M3078.34,47.34 C2897.58,58.85 2208.8,104 1643.5,158.5 C1637.79,159.05 1637.9489,159.0199 1632.0789,159.6199 " fill="transparent" id="Feature_User-to-logic_arc_int__baselibs__intrusive_list" style="stroke:#181818;stroke-width:1;"/><polygon fill="#181818" points="1626.11,160.23,1635.4701,163.2941,1631.0841,159.7216,1634.6566,155.3356,1626.11,160.23" style="stroke:#181818;stroke-width:1;"/><text fill="#000000" font-family="sans-serif" font-size="13" lengthAdjust="spacing" textLength="23.0103" x="2173.5" y="124.5669">use</text></g><!--link Feature_User to logic_arc_int__baselibs__future--><g id="link_Feature_User_logic_arc_int__baselibs__future"><path codeLine="35" d="M3168.78,54.94 C3265.68,77.27 3488.5233,128.6425 3612.0533,157.1125 " fill="transparent" id="Feature_User-to-logic_arc_int__baselibs__future" style="stroke:#181818;stroke-width:1;"/><polygon fill="#181818" points="3617.9,158.46,3610.0282,152.5409,3613.0277,157.3371,3608.2316,160.3366,3617.9,158.46" style="stroke:#181818;stroke-width:1;"/><text fill="#000000" font-family="sans-serif" font-size="13" lengthAdjust="spacing" textLength="23.0103" x="3482.5" y="124.5669">use</text></g><!--link Feature_User to logic_arc_int__baselibs__shared_future--><g id="link_Feature_User_logic_arc_int__baselibs__shared_future"><path codeLine="36" d="M3078.47,64.27 C3020.6,89.67 2926.334,131.0483 2869.314,156.0783 " fill="transparent" id="Feature_User-to-logic_arc_int__baselibs__shared_future" style="stroke:#181818;stroke-width:1;"/><polygon fill="#181818" points="2863.82,158.49,2873.6688,158.5351,2868.3983,156.4803,2870.4532,151.2098,2863.82,158.49" style="stroke:#181818;stroke-width:1;"/><text fill="#000000" font-family="sans-serif" font-size="13" lengthAdjust="spacing" textLength="23.0103" x="2964.5" y="124.5669">use</text></g><!--reverse link logic_arc_int__baselibs__result to comp_arc_sta__baselibs__result--><g id="link_logic_arc_int__baselibs__result_comp_arc_sta__baselibs__result"><path codeLine="37" d="M813.1582,204.7479 C813.7182,225.9779 814.44,253.94 815,275.19 " fill="transparent" id="logic_arc_int__baselibs__result-backto-comp_arc_sta__baselibs__result" style="stroke:#181818;stroke-width:1;"/><polygon fill="#181818" points="813,198.75,809.2387,207.8523,813.1318,203.7483,817.2359,207.6414,813,198.75" style="stroke:#181818;stroke-width:1;"/><text fill="#000000" font-family="sans-serif" font-size="13" lengthAdjust="spacing" textLength="76.9082" x="815.5" y="241.5669">implements</text></g><!--link Feature_User to logic_arc_int__baselibs__promise--><g id="link_Feature_User_logic_arc_int__baselibs__promise"><path codeLine="38" d="M3078.41,54.17 C2976.42,76.05 2732.3366,128.4117 2598.0666,157.2117 " fill="transparent" id="Feature_User-to-logic_arc_int__baselibs__promise" style="stroke:#181818;stroke-width:1;"/><polygon fill="#181818" points="2592.2,158.47,2601.8387,160.4935,2597.0888,157.4214,2600.161,152.6714,2592.2,158.47" style="stroke:#181818;stroke-width:1;"/><text fill="#000000" font-family="sans-serif" font-size="13" lengthAdjust="spacing" textLength="23.0103" x="2796.5" y="124.5669">use</text></g><!--link Feature_User to logic_arc_int__baselibs__condition_variable--><g id="link_Feature_User_logic_arc_int__baselibs__condition_variable"><path codeLine="39" d="M3078.22,50.83 C2940.95,70 2531.4623,127.2098 2313.7923,157.6198 " fill="transparent" id="Feature_User-to-logic_arc_int__baselibs__condition_variable" style="stroke:#181818;stroke-width:1;"/><polygon fill="#181818" points="2307.85,158.45,2317.3169,161.1663,2312.8019,157.7582,2316.21,153.2432,2307.85,158.45" style="stroke:#181818;stroke-width:1;"/><text fill="#000000" font-family="sans-serif" font-size="13" lengthAdjust="spacing" textLength="23.0103" x="2620.5" y="124.5669">use</text></g><!--link Feature_User to logic_arc_int__baselibs__utils_scoped_op--><g id="link_Feature_User_logic_arc_int__baselibs__utils_scoped_op"><path codeLine="40" d="M3168.51,47.67 C3344.22,60.15 4000.85,107.67 4540.5,158.5 C4546.47,159.06 4546.5785,159.0655 4552.7085,159.6655 " fill="transparent" id="Feature_User-to-logic_arc_int__baselibs__utils_scoped_op" style="stroke:#181818;stroke-width:1;"/><polygon fill="#181818" points="4558.68,160.25,4550.1125,155.3923,4553.7038,159.7629,4549.3331,163.3543,4558.68,160.25" style="stroke:#181818;stroke-width:1;"/><text fill="#000000" font-family="sans-serif" font-size="13" lengthAdjust="spacing" textLength="23.0103" x="4192.5" y="124.5669">use</text></g><!--reverse link logic_arc_int__baselibs__utils_scoped_op to comp_arc_sta__baselibs__utils--><g id="link_logic_arc_int__baselibs__utils_scoped_op_comp_arc_sta__baselibs__utils"><path codeLine="41" d="M4744.9324,202.5265 C4771.1424,223.7565 4808.41,253.94 4834.65,275.19 " fill="transparent" id="logic_arc_int__baselibs__utils_scoped_op-backto-comp_arc_sta__baselibs__utils" style="stroke:#181818;stroke-width:1;"/><polygon fill="#181818" points="4740.27,198.75,4744.7459,207.523,4744.1553,201.8971,4749.7813,201.3065,4740.27,198.75" style="stroke:#181818;stroke-width:1;"/><text fill="#000000" font-family="sans-serif" font-size="13" lengthAdjust="spacing" textLength="76.9082" x="4797.5" y="241.5669">implements</text></g><!--reverse link logic_arc_int__baselibs__task_result to comp_arc_sta__baselibs__concurrency--><g id="link_logic_arc_int__baselibs__task_result_comp_arc_sta__baselibs__concurrency"><path codeLine="42" d="M3877.4979,199.5135 C3794.7679,212.9735 3686.83,230.28 3586.5,245.5 C3518.94,255.75 3443.77,266.61 3381.23,275.5 " fill="transparent" id="logic_arc_int__baselibs__task_result-backto-comp_arc_sta__baselibs__concurrency" style="stroke:#181818;stroke-width:1;"/><polygon fill="#181818" points="3883.42,198.55,3873.8945,196.0472,3878.4849,199.3529,3875.1791,203.9434,3883.42,198.55" style="stroke:#181818;stroke-width:1;"/><text fill="#000000" font-family="sans-serif" font-size="13" lengthAdjust="spacing" textLength="76.9082" x="3690.5" y="241.5669">implements</text></g><!--reverse link logic_arc_int__baselibs__filesystem to comp_arc_sta__baselibs__filesystem--><g id="link_logic_arc_int__baselibs__filesystem_comp_arc_sta__baselibs__filesystem"><path codeLine="43" d="M513.0654,204.7491 C512.6954,225.9791 512.21,253.94 511.84,275.19 " fill="transparent" id="logic_arc_int__baselibs__filesystem-backto-comp_arc_sta__baselibs__filesystem" style="stroke:#181818;stroke-width:1;"/><polygon fill="#181818" points="513.17,198.75,509.0138,207.6789,513.0829,203.7492,517.0126,207.8183,513.17,198.75" style="stroke:#181818;stroke-width:1;"/><text fill="#000000" font-family="sans-serif" font-size="13" lengthAdjust="spacing" textLength="76.9082" x="514.5" y="241.5669">implements</text></g><!--reverse link logic_arc_int__baselibs__shared_future to comp_arc_sta__baselibs__concurrency--><g id="link_logic_arc_int__baselibs__shared_future_comp_arc_sta__baselibs__concurrency"><path codeLine="44" d="M2896.9517,200.1871 C2975.6717,221.4871 3096.38,254.15 3175.03,275.43 " fill="transparent" id="logic_arc_int__baselibs__shared_future-backto-comp_arc_sta__baselibs__concurrency" style="stroke:#181818;stroke-width:1;"/><polygon fill="#181818" points="2891.16,198.62,2898.8028,204.8318,2895.9864,199.9259,2900.8923,197.1095,2891.16,198.62" style="stroke:#181818;stroke-width:1;"/><text fill="#000000" font-family="sans-serif" font-size="13" lengthAdjust="spacing" textLength="76.9082" x="3059.5" y="241.5669">implements</text></g><!--link Feature_User to logic_arc_int__baselibs__json--><g id="link_Feature_User_logic_arc_int__baselibs__json"><path codeLine="45" d="M3168.79,45.45 C3390.63,50.22 4384.85,72.81 5198.5,111.5 C5531.22,127.32 5615.12,124.65 5946.5,158.5 C5952.23,159.09 5952.1203,159.0354 5958.0403,159.7254 " fill="transparent" id="Feature_User-to-logic_arc_int__baselibs__json" style="stroke:#181818;stroke-width:1;"/><polygon fill="#181818" points="5964,160.42,5955.5236,155.405,5959.0336,159.8411,5954.5974,163.3512,5964,160.42" style="stroke:#181818;stroke-width:1;"/><text fill="#000000" font-family="sans-serif" font-size="13" lengthAdjust="spacing" textLength="23.0103" x="5574.5" y="124.5669">use</text></g><!--link Feature_User to logic_arc_int__baselibs__dynamic_array--><g id="link_Feature_User_logic_arc_int__baselibs__dynamic_array"><path codeLine="46" d="M3078.3,48.87 C2925.11,63.72 2411.56,113.8 1987.5,158.5 C1981.67,159.11 1981.7051,159.0938 1975.7051,159.7438 " fill="transparent" id="Feature_User-to-logic_arc_int__baselibs__dynamic_array" style="stroke:#181818;stroke-width:1;"/><polygon fill="#181818" points="1969.74,160.39,1979.1185,163.3974,1974.7109,159.8515,1978.2568,155.4439,1969.74,160.39" style="stroke:#181818;stroke-width:1;"/><text fill="#000000" font-family="sans-serif" font-size="13" lengthAdjust="spacing" textLength="23.0103" x="2426.5" y="124.5669">use</text></g><!--link Feature_User to logic_arc_int__baselibs__task--><g id="link_Feature_User_logic_arc_int__baselibs__task"><path codeLine="47" d="M3123.5,81.55 C3123.5,106.45 3123.5,132.26 3123.5,152.26 " fill="transparent" id="Feature_User-to-logic_arc_int__baselibs__task" style="stroke:#181818;stroke-width:1;"/><polygon fill="#181818" points="3123.5,158.26,3127.5,149.26,3123.5,153.26,3119.5,149.26,3123.5,158.26" style="stroke:#181818;stroke-width:1;"/><text fill="#000000" font-family="sans-serif" font-size="13" lengthAdjust="spacing" textLength="23.0103" x="3124.5" y="124.5669">use</text></g><!--reverse link logic_arc_int__baselibs__memory_shared to comp_arc_sta__baselibs__memory_shared--><g id="link_logic_arc_int__baselibs__memory_shared_comp_arc_sta__baselibs__memory_shared"><path codeLine="48" d="M175.9661,204.739 C174.6761,225.969 172.97,253.94 171.68,275.19 " fill="transparent" id="logic_arc_int__baselibs__memory_shared-backto-comp_arc_sta__baselibs__memory_shared" style="stroke:#181818;stroke-width:1;"/><polygon fill="#181818" points="176.33,198.75,171.7915,207.4908,176.0267,203.7408,179.7768,207.976,176.33,198.75" style="stroke:#181818;stroke-width:1;"/><text fill="#000000" font-family="sans-serif" font-size="13" lengthAdjust="spacing" textLength="76.9082" x="175.5" y="241.5669">implements</text></g><!--link Feature_User to logic_arc_int__baselibs__result--><g id="link_Feature_User_logic_arc_int__baselibs__result"><path codeLine="49" d="M3078.23,46.3 C2900.06,53.44 2229.84,80.9 1678.5,111.5 C1355.21,129.44 1273.66,126.11 951.5,158.5 C946.05,159.05 946.4427,158.9816 940.8227,159.6116 " fill="transparent" id="Feature_User-to-logic_arc_int__baselibs__result" style="stroke:#181818;stroke-width:1;"/><polygon fill="#181818" points="934.86,160.28,944.2496,163.2525,939.8289,159.723,943.3584,155.3023,934.86,160.28" style="stroke:#181818;stroke-width:1;"/><text fill="#000000" font-family="sans-serif" font-size="13" lengthAdjust="spacing" textLength="23.0103" x="1679.5" y="124.5669">use</text></g><!--link Feature_User to logic_arc_int__baselibs__bit_mask_operator--><g id="link_Feature_User_logic_arc_int__baselibs__bit_mask_operator"><path codeLine="50" d="M3168.57,45.82 C3367,51.7 4182.52,76.82 4851.5,111.5 C5173.52,128.19 5254.16,131.67 5575.5,158.5 C5581.48,159 5581.5929,159.006 5587.7529,159.546 " fill="transparent" id="Feature_User-to-logic_arc_int__baselibs__bit_mask_operator" style="stroke:#181818;stroke-width:1;"/><polygon fill="#181818" points="5593.73,160.07,5585.1137,155.2993,5588.7491,159.6334,5584.4151,163.2688,5593.73,160.07" style="stroke:#181818;stroke-width:1;"/><text fill="#000000" font-family="sans-serif" font-size="13" lengthAdjust="spacing" textLength="23.0103" x="5166.5" y="124.5669">use</text></g><!--reverse link logic_arc_int__baselibs__synchronized_queue to comp_arc_sta__baselibs__concurrency--><g id="link_logic_arc_int__baselibs__synchronized_queue_comp_arc_sta__baselibs__concurrency"><path codeLine="51" d="M4186.5021,199.2195 C4071.2021,212.9495 3916.68,230.86 3775.5,245.5 C3647.4,258.79 3501.68,272.13 3395.51,281.53 " fill="transparent" id="logic_arc_int__baselibs__synchronized_queue-backto-comp_arc_sta__baselibs__concurrency" style="stroke:#181818;stroke-width:1;"/><polygon fill="#181818" points="4192.46,198.51,4183.0502,195.6023,4187.4951,199.1012,4183.9961,203.5461,4192.46,198.51" style="stroke:#181818;stroke-width:1;"/><text fill="#000000" font-family="sans-serif" font-size="13" lengthAdjust="spacing" textLength="76.9082" x="3918.5" y="241.5669">implements</text></g><!--reverse link logic_arc_int__baselibs__intrusive_list to comp_arc_sta__baselibs__containers--><g id="link_logic_arc_int__baselibs__intrusive_list_comp_arc_sta__baselibs__containers"><path codeLine="52" d="M1507.7496,202.5422 C1533.7796,223.7722 1570.76,253.94 1596.82,275.19 " fill="transparent" id="logic_arc_int__baselibs__intrusive_list-backto-comp_arc_sta__baselibs__containers" style="stroke:#181818;stroke-width:1;"/><polygon fill="#181818" points="1503.1,198.75,1507.5463,207.5381,1506.9747,201.9102,1512.6026,201.3386,1503.1,198.75" style="stroke:#181818;stroke-width:1;"/><text fill="#000000" font-family="sans-serif" font-size="13" lengthAdjust="spacing" textLength="76.9082" x="1559.5" y="241.5669">implements</text></g><!--SRC=[jLPDRzim3BtxLmYzfnk6OOUYw6N0JZjkPu6MsOIBFZoHwkeD- - -JxMoDqoJ-W7UKJ3vHZu_F0cl33-tecVosa50h2QeC8i6fYY8QeU2B7LMeM31YaAR6VeskbaQ1IAGo2N9npz9OV2XkWScMwbVncJn-33P45R7gLbzsPFOUcTMxsxV5x-B-pI6d02CvxkOJWgI8wYjZl570wh2XsmrL52QuMaCqcWMqBe7HKibQc-05yW6HrIPj7fGDMp9T87av3gmQ3wxx5A6vK-HgYmwziBg8_Os37q5jGuPWWxetrRLaRhpPnU3f9rRwUyA4Toenpi9mcLFOegw1ENVo0725BPDYH6-QaOlbo8fQ3UWdY0IbnMcSbIJQWQSwMMZJHuuv3L_C9JwZILb9ynbyNSBy7hWG6yqxo7AVd_v85hd9K-RcvoOXoztwm_kHtdUX8-qOmatfztH5FQRsKckZllHzNLm1tlz7nVDUXneZJAxyPCv73ddb2WkdgcL1H-HaPJLdgMDmnBYufhoCYUa9jIMM1UDsqE7Sl7wyX-cNsEWf6o7YBwyBUVZ7uzoBdBFsPRx39ekuoafUpNgE4DUVvxECNu9-SUKnNpkoxtLhFb7SGftqJvIv3JvvBirDx-tpgYW6VyrHFnlyOHSoCJ2osI-4WMMlv8NdNe0JDJJjrNjgbiVWVm00]--></g></svg>