<svg xmlns="http://www.w3.org/2000/svg" xmlns:xlink="http://www.w3.org/1999/xlink" contentStyleType="text/css" data-diagram-type="CLASS" height="322px" preserveAspectRatio="none" style="width:6201px;height:322px;background:#FFFFFF;" version="1.1" viewBox="0 0 6201 322" width="6201px" zoomAndPan="magnify"><defs/><g><!--entity Feature_User--><g id="elem_Feature_User"><ellipse cx="3029.6685" cy="14" fill="#F1F1F1" rx="8" ry="8" style="stroke:#181818;stroke-width:0.5;"/><path d="M3029.6685,22 L3029.6685,49 M3016.6685,30 L3042.6685,30 M3029.6685,49 L3016.6685,64 M3029.6685,49 L3042.6685,64 " fill="transparent" style="stroke:#181818;stroke-width:0.5;"/><text fill="#000000" font-family="sans-serif" font-size="14" lengthAdjust="spacing" textLength="90.3369" x="2984.5" y="78.4951">Feature User</text></g><!--class comp_arc_sta__baselibs__bit_manipulation--><g id="elem_comp_arc_sta__baselibs__bit_manipulation"><rect fill="#F1F1F1" height="40" id="comp_arc_sta__baselibs__bit_manipulation" rx="2.5" ry="2.5" style="stroke:#181818;stroke-width:0.5;" width="330.8057" x="4381" y="275.5"/><ellipse cx="4396" cy="291.5" fill="#ADD1B2" rx="11" ry="11" style="stroke:#181818;stroke-width:1;"/><path d="M4398.9688,297.1406 Q4398.3906,297.4375 4397.75,297.5781 Q4397.1094,297.7344 4396.4063,297.7344 Q4393.9063,297.7344 4392.5781,296.0938 Q4391.2656,294.4375 4391.2656,291.3125 Q4391.2656,288.1875 4392.5781,286.5313 Q4393.9063,284.875 4396.4063,284.875 Q4397.1094,284.875 4397.75,285.0313 Q4398.4063,285.1875 4398.9688,285.4844 L4398.9688,288.2031 Q4398.3438,287.625 4397.75,287.3594 Q4397.1563,287.0781 4396.5313,287.0781 Q4395.1875,287.0781 4394.5,288.1563 Q4393.8125,289.2188 4393.8125,291.3125 Q4393.8125,293.4063 4394.5,294.4844 Q4395.1875,295.5469 4396.5313,295.5469 Q4397.1563,295.5469 4397.75,295.2813 Q4398.3438,295 4398.9688,294.4219 L4398.9688,297.1406 Z " fill="#000000"/><text fill="#000000" font-family="sans-serif" font-size="14" lengthAdjust="spacing" textLength="298.8057" x="4410" y="296.3467">comp_arc_sta__baselibs__bit_manipulation</text><line style="stroke:#181818;stroke-width:0.5;" x1="4382" x2="4710.8057" y1="307.5" y2="307.5"/></g><!--class logic_arc_int__baselibs__bit_mask_operator--><g id="elem_logic_arc_int__baselibs__bit_mask_operator"><rect fill="#F1F1F1" height="40" id="logic_arc_int__baselibs__bit_mask_operator" rx="2.5" ry="2.5" style="stroke:#181818;stroke-width:0.5;" width="334.6406" x="4199" y="158.5"/><ellipse cx="4214" cy="174.5" fill="#ADD1B2" rx="11" ry="11" style="stroke:#181818;stroke-width:1;"/><path d="M4216.9688,180.1406 Q4216.3906,180.4375 4215.75,180.5781 Q4215.1094,180.7344 4214.4063,180.7344 Q4211.9063,180.7344 4210.5781,179.0938 Q4209.2656,177.4375 4209.2656,174.3125 Q4209.2656,171.1875 4210.5781,169.5313 Q4211.9063,167.875 4214.4063,167.875 Q4215.1094,167.875 4215.75,168.0313 Q4216.4063,168.1875 4216.9688,168.4844 L4216.9688,171.2031 Q4216.3438,170.625 4215.75,170.3594 Q4215.1563,170.0781 4214.5313,170.0781 Q4213.1875,170.0781 4212.5,171.1563 Q4211.8125,172.2188 4211.8125,174.3125 Q4211.8125,176.4063 4212.5,177.4844 Q4213.1875,178.5469 4214.5313,178.5469 Q4215.1563,178.5469 4215.75,178.2813 Q4216.3438,178 4216.9688,177.4219 L4216.9688,180.1406 Z " fill="#000000"/><text fill="#000000" font-family="sans-serif" font-size="14" lengthAdjust="spacing" textLength="302.6406" x="4228" y="179.3467">logic_arc_int__baselibs__bit_mask_operator</text><line style="stroke:#181818;stroke-width:0.5;" x1="4200" x2="4532.6406" y1="190.5" y2="190.5"/></g><!--class logic_arc_int__baselibs__memory_shared--><g id="elem_logic_arc_int__baselibs__memory_shared"><rect fill="#F1F1F1" height="40" id="logic_arc_int__baselibs__memory_shared" rx="2.5" ry="2.5" style="stroke:#181818;stroke-width:0.5;" width="318.043" x="4926.5" y="158.5"/><ellipse cx="4941.5" cy="174.5" fill="#ADD1B2" rx="11" ry="11" style="stroke:#181818;stroke-width:1;"/><path d="M4944.4688,180.1406 Q4943.8906,180.4375 4943.25,180.5781 Q4942.6094,180.7344 4941.9063,180.7344 Q4939.4063,180.7344 4938.0781,179.0938 Q4936.7656,177.4375 4936.7656,174.3125 Q4936.7656,171.1875 4938.0781,169.5313 Q4939.4063,167.875 4941.9063,167.875 Q4942.6094,167.875 4943.25,168.0313 Q4943.9063,168.1875 4944.4688,168.4844 L4944.4688,171.2031 Q4943.8438,170.625 4943.25,170.3594 Q4942.6563,170.0781 4942.0313,170.0781 Q4940.6875,170.0781 4940,171.1563 Q4939.3125,172.2188 4939.3125,174.3125 Q4939.3125,176.4063 4940,177.4844 Q4940.6875,178.5469 4942.0313,178.5469 Q4942.6563,178.5469 4943.25,178.2813 Q4943.8438,178 4944.4688,177.4219 L4944.4688,180.1406 Z " fill="#000000"/><text fill="#000000" font-family="sans-serif" font-size="14" lengthAdjust="spacing" textLength="286.043" x="4955.5" y="179.3467">logic_arc_int__baselibs__memory_shared</text><line style="stroke:#181818;stroke-width:0.5;" x1="4927.5" x2="5243.543" y1="190.5" y2="190.5"/></g><!--class comp_arc_sta__baselibs__utils--><g id="elem_comp_arc_sta__baselibs__utils"><rect fill="#F1F1F1" height="40" id="comp_arc_sta__baselibs__utils" rx="2.5" ry="2.5" style="stroke:#181818;stroke-width:0.5;" width="242.9502" x="5446" y="275.5"/><ellipse cx="5461" cy="291.5" fill="#ADD1B2" rx="11" ry="11" style="stroke:#181818;stroke-width:1;"/><path d="M5463.9688,297.1406 Q5463.3906,297.4375 5462.75,297.5781 Q5462.1094,297.7344 5461.4063,297.7344 Q5458.9063,297.7344 5457.5781,296.0938 Q5456.2656,294.4375 5456.2656,291.3125 Q5456.2656,288.1875 5457.5781,286.5313 Q5458.9063,284.875 5461.4063,284.875 Q5462.1094,284.875 5462.75,285.0313 Q5463.4063,285.1875 5463.9688,285.4844 L5463.9688,288.2031 Q5463.3438,287.625 5462.75,287.3594 Q5462.1563,287.0781 5461.5313,287.0781 Q5460.1875,287.0781 5459.5,288.1563 Q5458.8125,289.2188 5458.8125,291.3125 Q5458.8125,293.4063 5459.5,294.4844 Q5460.1875,295.5469 5461.5313,295.5469 Q5462.1563,295.5469 5462.75,295.2813 Q5463.3438,295 5463.9688,294.4219 L5463.9688,297.1406 Z " fill="#000000"/><text fill="#000000" font-family="sans-serif" font-size="14" lengthAdjust="spacing" textLength="210.9502" x="5475" y="296.3467">comp_arc_sta__baselibs__utils</text><line style="stroke:#181818;stroke-width:0.5;" x1="5447" x2="5687.9502" y1="307.5" y2="307.5"/></g><!--class logic_arc_int__baselibs__utils_scoped_op--><g id="elem_logic_arc_int__baselibs__utils_scoped_op"><rect fill="#F1F1F1" height="40" id="logic_arc_int__baselibs__utils_scoped_op" rx="2.5" ry="2.5" style="stroke:#181818;stroke-width:0.5;" width="315.377" x="5607" y="158.5"/><ellipse cx="5622" cy="174.5" fill="#ADD1B2" rx="11" ry="11" style="stroke:#181818;stroke-width:1;"/><path d="M5624.9688,180.1406 Q5624.3906,180.4375 5623.75,180.5781 Q5623.1094,180.7344 5622.4063,180.7344 Q5619.9063,180.7344 5618.5781,179.0938 Q5617.2656,177.4375 5617.2656,174.3125 Q5617.2656,171.1875 5618.5781,169.5313 Q5619.9063,167.875 5622.4063,167.875 Q5623.1094,167.875 5623.75,168.0313 Q5624.4063,168.1875 5624.9688,168.4844 L5624.9688,171.2031 Q5624.3438,170.625 5623.75,170.3594 Q5623.1563,170.0781 5622.5313,170.0781 Q5621.1875,170.0781 5620.5,171.1563 Q5619.8125,172.2188 5619.8125,174.3125 Q5619.8125,176.4063 5620.5,177.4844 Q5621.1875,178.5469 5622.5313,178.5469 Q5623.1563,178.5469 5623.75,178.2813 Q5624.3438,178 5624.9688,177.4219 L5624.9688,180.1406 Z " fill="#000000"/><text fill="#000000" font-family="sans-serif" font-size="14" lengthAdjust="spacing" textLength="283.377" x="5636" y="179.3467">logic_arc_int__baselibs__utils_scoped_op</text><line style="stroke:#181818;stroke-width:0.5;" x1="5608" x2="5921.377" y1="190.5" y2="190.5"/></g><!--class comp_arc_sta__baselibs__json--><g id="elem_comp_arc_sta__baselibs__json"><rect fill="#F1F1F1" height="40" id="comp_arc_sta__baselibs__json" rx="2.5" ry="2.5" style="stroke:#181818;stroke-width:0.5;" width="242.1367" x="5952.5" y="275.5"/><ellipse cx="5967.5" cy="291.5" fill="#ADD1B2" rx="11" ry="11" style="stroke:#181818;stroke-width:1;"/><path d="M5970.4688,297.1406 Q5969.8906,297.4375 5969.25,297.5781 Q5968.6094,297.7344 5967.9063,297.7344 Q5965.4063,297.7344 5964.0781,296.0938 Q5962.7656,294.4375 5962.7656,291.3125 Q5962.7656,288.1875 5964.0781,286.5313 Q5965.4063,284.875 5967.9063,284.875 Q5968.6094,284.875 5969.25,285.0313 Q5969.9063,285.1875 5970.4688,285.4844 L5970.4688,288.2031 Q5969.8438,287.625 5969.25,287.3594 Q5968.6563,287.0781 5968.0313,287.0781 Q5966.6875,287.0781 5966,288.1563 Q5965.3125,289.2188 5965.3125,291.3125 Q5965.3125,293.4063 5966,294.4844 Q5966.6875,295.5469 5968.0313,295.5469 Q5968.6563,295.5469 5969.25,295.2813 Q5969.8438,295 5970.4688,294.4219 L5970.4688,297.1406 Z " fill="#000000"/><text fill="#000000" font-family="sans-serif" font-size="14" lengthAdjust="spacing" textLength="210.1367" x="5981.5" y="296.3467">comp_arc_sta__baselibs__json</text><line style="stroke:#181818;stroke-width:0.5;" x1="5953.5" x2="6193.6367" y1="307.5" y2="307.5"/></g><!--class logic_arc_int__baselibs__json--><g id="elem_logic_arc_int__baselibs__json"><rect fill="#F1F1F1" height="40" id="logic_arc_int__baselibs__json" rx="2.5" ry="2.5" style="stroke:#181818;stroke-width:0.5;" width="233.168" x="5957" y="158.5"/><ellipse cx="5972" cy="174.5" fill="#ADD1B2" rx="11" ry="11" style="stroke:#181818;stroke-width:1;"/><path d="M5974.9688,180.1406 Q5974.3906,180.4375 5973.75,180.5781 Q5973.1094,180.7344 5972.4063,180.7344 Q5969.9063,180.7344 5968.5781,179.0938 Q5967.2656,177.4375 5967.2656,174.3125 Q5967.2656,171.1875 5968.5781,169.5313 Q5969.9063,167.875 5972.4063,167.875 Q5973.1094,167.875 5973.75,168.0313 Q5974.4063,168.1875 5974.9688,168.4844 L5974.9688,171.2031 Q5974.3438,170.625 5973.75,170.3594 Q5973.1563,170.0781 5972.5313,170.0781 Q5971.1875,170.0781 5970.5,171.1563 Q5969.8125,172.2188 5969.8125,174.3125 Q5969.8125,176.4063 5970.5,177.4844 Q5971.1875,178.5469 5972.5313,178.5469 Q5973.1563,178.5469 5973.75,178.2813 Q5974.3438,178 5974.9688,177.4219 L5974.9688,180.1406 Z " fill="#000000"/><text fill="#000000" font-family="sans-serif" font-size="14" lengthAdjust="spacing" textLength="201.168" x="5986" y="179.3467">logic_arc_int__baselibs__json</text><line style="stroke:#181818;stroke-width:0.5;" x1="5958" x2="6189.168" y1="190.5" y2="190.5"/></g><!--class logic_arc_int__baselibs__executor--><g id="elem_logic_arc_int__baselibs__executor"><rect fill="#F1F1F1" height="40" id="logic_arc_int__baselibs__executor" rx="2.5" ry="2.5" style="stroke:#181818;stroke-width:0.5;" width="266.4385" x="2896.5" y="158.5"/><ellipse cx="2911.5" cy="174.5" fill="#ADD1B2" rx="11" ry="11" style="stroke:#181818;stroke-width:1;"/><path d="M2914.4688,180.1406 Q2913.8906,180.4375 2913.25,180.5781 Q2912.6094,180.7344 2911.9063,180.7344 Q2909.4063,180.7344 2908.0781,179.0938 Q2906.7656,177.4375 2906.7656,174.3125 Q2906.7656,171.1875 2908.0781,169.5313 Q2909.4063,167.875 2911.9063,167.875 Q2912.6094,167.875 2913.25,168.0313 Q2913.9063,168.1875 2914.4688,168.4844 L2914.4688,171.2031 Q2913.8438,170.625 2913.25,170.3594 Q2912.6563,170.0781 2912.0313,170.0781 Q2910.6875,170.0781 2910,171.1563 Q2909.3125,172.2188 2909.3125,174.3125 Q2909.3125,176.4063 2910,177.4844 Q2910.6875,178.5469 2912.0313,178.5469 Q2912.6563,178.5469 2913.25,178.2813 Q2913.8438,178 2914.4688,177.4219 L2914.4688,180.1406 Z " fill="#000000"/><text fill="#000000" font-family="sans-serif" font-size="14" lengthAdjust="spacing" textLength="234.4385" x="2925.5" y="179.3467">logic_arc_int__baselibs__executor</text><line style="stroke:#181818;stroke-width:0.5;" x1="2897.5" x2="3161.9385" y1="190.5" y2="190.5"/></g><!--class logic_arc_int__baselibs__task--><g id="elem_logic_arc_int__baselibs__task"><rect fill="#F1F1F1" height="40" id="logic_arc_int__baselibs__task" rx="2.5" ry="2.5" style="stroke:#181818;stroke-width:0.5;" width="234.0156" x="2627.5" y="158.5"/><ellipse cx="2642.5" cy="174.5" fill="#ADD1B2" rx="11" ry="11" style="stroke:#181818;stroke-width:1;"/><path d="M2645.4688,180.1406 Q2644.8906,180.4375 2644.25,180.5781 Q2643.6094,180.7344 2642.9063,180.7344 Q2640.4063,180.7344 2639.0781,179.0938 Q2637.7656,177.4375 2637.7656,174.3125 Q2637.7656,171.1875 2639.0781,169.5313 Q2640.4063,167.875 2642.9063,167.875 Q2643.6094,167.875 2644.25,168.0313 Q2644.9063,168.1875 2645.4688,168.4844 L2645.4688,171.2031 Q2644.8438,170.625 2644.25,170.3594 Q2643.6563,170.0781 2643.0313,170.0781 Q2641.6875,170.0781 2641,171.1563 Q2640.3125,172.2188 2640.3125,174.3125 Q2640.3125,176.4063 2641,177.4844 Q2641.6875,178.5469 2643.0313,178.5469 Q2643.6563,178.5469 2644.25,178.2813 Q2644.8438,178 2645.4688,177.4219 L2645.4688,180.1406 Z " fill="#000000"/><text fill="#000000" font-family="sans-serif" font-size="14" lengthAdjust="spacing" textLength="202.0156" x="2656.5" y="179.3467">logic_arc_int__baselibs__task</text><line style="stroke:#181818;stroke-width:0.5;" x1="2628.5" x2="2860.5156" y1="190.5" y2="190.5"/></g><!--class comp_arc_sta__baselibs__containers--><g id="elem_comp_arc_sta__baselibs__containers"><rect fill="#F1F1F1" height="40" id="comp_arc_sta__baselibs__containers" rx="2.5" ry="2.5" style="stroke:#181818;stroke-width:0.5;" width="287.1445" x="1118" y="275.5"/><ellipse cx="1133" cy="291.5" fill="#ADD1B2" rx="11" ry="11" style="stroke:#181818;stroke-width:1;"/><path d="M1135.9688,297.1406 Q1135.3906,297.4375 1134.75,297.5781 Q1134.1094,297.7344 1133.4063,297.7344 Q1130.9063,297.7344 1129.5781,296.0938 Q1128.2656,294.4375 1128.2656,291.3125 Q1128.2656,288.1875 1129.5781,286.5313 Q1130.9063,284.875 1133.4063,284.875 Q1134.1094,284.875 1134.75,285.0313 Q1135.4063,285.1875 1135.9688,285.4844 L1135.9688,288.2031 Q1135.3438,287.625 1134.75,287.3594 Q1134.1563,287.0781 1133.5313,287.0781 Q1132.1875,287.0781 1131.5,288.1563 Q1130.8125,289.2188 1130.8125,291.3125 Q1130.8125,293.4063 1131.5,294.4844 Q1132.1875,295.5469 1133.5313,295.5469 Q1134.1563,295.5469 1134.75,295.2813 Q1135.3438,295 1135.9688,294.4219 L1135.9688,297.1406 Z " fill="#000000"/><text fill="#000000" font-family="sans-serif" font-size="14" lengthAdjust="spacing" textLength="255.1445" x="1147" y="296.3467">comp_arc_sta__baselibs__containers</text><line style="stroke:#181818;stroke-width:0.5;" x1="1119" x2="1404.1445" y1="307.5" y2="307.5"/></g><!--class logic_arc_int__baselibs__dynamic_array--><g id="elem_logic_arc_int__baselibs__dynamic_array"><rect fill="#F1F1F1" height="40" id="logic_arc_int__baselibs__dynamic_array" rx="2.5" ry="2.5" style="stroke:#181818;stroke-width:0.5;" width="308.3496" x="1302.5" y="158.5"/><ellipse cx="1317.5" cy="174.5" fill="#ADD1B2" rx="11" ry="11" style="stroke:#181818;stroke-width:1;"/><path d="M1320.4688,180.1406 Q1319.8906,180.4375 1319.25,180.5781 Q1318.6094,180.7344 1317.9063,180.7344 Q1315.4063,180.7344 1314.0781,179.0938 Q1312.7656,177.4375 1312.7656,174.3125 Q1312.7656,171.1875 1314.0781,169.5313 Q1315.4063,167.875 1317.9063,167.875 Q1318.6094,167.875 1319.25,168.0313 Q1319.9063,168.1875 1320.4688,168.4844 L1320.4688,171.2031 Q1319.8438,170.625 1319.25,170.3594 Q1318.6563,170.0781 1318.0313,170.0781 Q1316.6875,170.0781 1316,171.1563 Q1315.3125,172.2188 1315.3125,174.3125 Q1315.3125,176.4063 1316,177.4844 Q1316.6875,178.5469 1318.0313,178.5469 Q1318.6563,178.5469 1319.25,178.2813 Q1319.8438,178 1320.4688,177.4219 L1320.4688,180.1406 Z " fill="#000000"/><text fill="#000000" font-family="sans-serif" font-size="14" lengthAdjust="spacing" textLength="276.3496" x="1331.5" y="179.3467">logic_arc_int__baselibs__dynamic_array</text><line style="stroke:#181818;stroke-width:0.5;" x1="1303.5" x2="1609.8496" y1="190.5" y2="190.5"/></g><!--class logic_arc_int__baselibs__future--><g id="elem_logic_arc_int__baselibs__future"><rect fill="#F1F1F1" height="40" id="logic_arc_int__baselibs__future" rx="2.5" ry="2.5" style="stroke:#181818;stroke-width:0.5;" width="247.0791" x="1646" y="158.5"/><ellipse cx="1661" cy="174.5" fill="#ADD1B2" rx="11" ry="11" style="stroke:#181818;stroke-width:1;"/><path d="M1663.9688,180.1406 Q1663.3906,180.4375 1662.75,180.5781 Q1662.1094,180.7344 1661.4063,180.7344 Q1658.9063,180.7344 1657.5781,179.0938 Q1656.2656,177.4375 1656.2656,174.3125 Q1656.2656,171.1875 1657.5781,169.5313 Q1658.9063,167.875 1661.4063,167.875 Q1662.1094,167.875 1662.75,168.0313 Q1663.4063,168.1875 1663.9688,168.4844 L1663.9688,171.2031 Q1663.3438,170.625 1662.75,170.3594 Q1662.1563,170.0781 1661.5313,170.0781 Q1660.1875,170.0781 1659.5,171.1563 Q1658.8125,172.2188 1658.8125,174.3125 Q1658.8125,176.4063 1659.5,177.4844 Q1660.1875,178.5469 1661.5313,178.5469 Q1662.1563,178.5469 1662.75,178.2813 Q1663.3438,178 1663.9688,177.4219 L1663.9688,180.1406 Z " fill="#000000"/><text fill="#000000" font-family="sans-serif" font-size="14" lengthAdjust="spacing" textLength="215.0791" x="1675" y="179.3467">logic_arc_int__baselibs__future</text><line style="stroke:#181818;stroke-width:0.5;" x1="1647" x2="1892.0791" y1="190.5" y2="190.5"/></g><!--class comp_arc_sta__baselibs__concurrency--><g id="elem_comp_arc_sta__baselibs__concurrency"><rect fill="#F1F1F1" height="40" id="comp_arc_sta__baselibs__concurrency" rx="2.5" ry="2.5" style="stroke:#181818;stroke-width:0.5;" width="300.2012" x="2695.5" y="275.5"/><ellipse cx="2710.5" cy="291.5" fill="#ADD1B2" rx="11" ry="11" style="stroke:#181818;stroke-width:1;"/><path d="M2713.4688,297.1406 Q2712.8906,297.4375 2712.25,297.5781 Q2711.6094,297.7344 2710.9063,297.7344 Q2708.4063,297.7344 2707.0781,296.0938 Q2705.7656,294.4375 2705.7656,291.3125 Q2705.7656,288.1875 2707.0781,286.5313 Q2708.4063,284.875 2710.9063,284.875 Q2711.6094,284.875 2712.25,285.0313 Q2712.9063,285.1875 2713.4688,285.4844 L2713.4688,288.2031 Q2712.8438,287.625 2712.25,287.3594 Q2711.6563,287.0781 2711.0313,287.0781 Q2709.6875,287.0781 2709,288.1563 Q2708.3125,289.2188 2708.3125,291.3125 Q2708.3125,293.4063 2709,294.4844 Q2709.6875,295.5469 2711.0313,295.5469 Q2711.6563,295.5469 2712.25,295.2813 Q2712.8438,295 2713.4688,294.4219 L2713.4688,297.1406 Z " fill="#000000"/><text fill="#000000" font-family="sans-serif" font-size="14" lengthAdjust="spacing" textLength="268.2012" x="2724.5" y="296.3467">comp_arc_sta__baselibs__concurrency</text><line style="stroke:#181818;stroke-width:0.5;" x1="2696.5" x2="2994.7012" y1="307.5" y2="307.5"/></g><!--class logic_arc_int__baselibs__promise--><g id="elem_logic_arc_int__baselibs__promise"><rect fill="#F1F1F1" height="40" id="logic_arc_int__baselibs__promise" rx="2.5" ry="2.5" style="stroke:#181818;stroke-width:0.5;" width="261.1885" x="3903" y="158.5"/><ellipse cx="3918" cy="174.5" fill="#ADD1B2" rx="11" ry="11" style="stroke:#181818;stroke-width:1;"/><path d="M3920.9688,180.1406 Q3920.3906,180.4375 3919.75,180.5781 Q3919.1094,180.7344 3918.4063,180.7344 Q3915.9063,180.7344 3914.5781,179.0938 Q3913.2656,177.4375 3913.2656,174.3125 Q3913.2656,171.1875 3914.5781,169.5313 Q3915.9063,167.875 3918.4063,167.875 Q3919.1094,167.875 3919.75,168.0313 Q3920.4063,168.1875 3920.9688,168.4844 L3920.9688,171.2031 Q3920.3438,170.625 3919.75,170.3594 Q3919.1563,170.0781 3918.5313,170.0781 Q3917.1875,170.0781 3916.5,171.1563 Q3915.8125,172.2188 3915.8125,174.3125 Q3915.8125,176.4063 3916.5,177.4844 Q3917.1875,178.5469 3918.5313,178.5469 Q3919.1563,178.5469 3919.75,178.2813 Q3920.3438,178 3920.9688,177.4219 L3920.9688,180.1406 Z " fill="#000000"/><text fill="#000000" font-family="sans-serif" font-size="14" lengthAdjust="spacing" textLength="229.1885" x="3932" y="179.3467">logic_arc_int__baselibs__promise</text><line style="stroke:#181818;stroke-width:0.5;" x1="3904" x2="4163.1885" y1="190.5" y2="190.5"/></g><!--class logic_arc_int__baselibs__condition_variable--><g id="elem_logic_arc_int__baselibs__condition_variable"><rect fill="#F1F1F1" height="40" id="logic_arc_int__baselibs__condition_variable" rx="2.5" ry="2.5" style="stroke:#181818;stroke-width:0.5;" width="332.7539" x="3535" y="158.5"/><ellipse cx="3550" cy="174.5" fill="#ADD1B2" rx="11" ry="11" style="stroke:#181818;stroke-width:1;"/><path d="M3552.9688,180.1406 Q3552.3906,180.4375 3551.75,180.5781 Q3551.1094,180.7344 3550.4063,180.7344 Q3547.9063,180.7344 3546.5781,179.0938 Q3545.2656,177.4375 3545.2656,174.3125 Q3545.2656,171.1875 3546.5781,169.5313 Q3547.9063,167.875 3550.4063,167.875 Q3551.1094,167.875 3551.75,168.0313 Q3552.4063,168.1875 3552.9688,168.4844 L3552.9688,171.2031 Q3552.3438,170.625 3551.75,170.3594 Q3551.1563,170.0781 3550.5313,170.0781 Q3549.1875,170.0781 3548.5,171.1563 Q3547.8125,172.2188 3547.8125,174.3125 Q3547.8125,176.4063 3548.5,177.4844 Q3549.1875,178.5469 3550.5313,178.5469 Q3551.1563,178.5469 3551.75,178.2813 Q3552.3438,178 3552.9688,177.4219 L3552.9688,180.1406 Z " fill="#000000"/><text fill="#000000" font-family="sans-serif" font-size="14" lengthAdjust="spacing" textLength="300.7539" x="3564" y="179.3467">logic_arc_int__baselibs__condition_variable</text><line style="stroke:#181818;stroke-width:0.5;" x1="3536" x2="3866.7539" y1="190.5" y2="190.5"/></g><!--class comp_arc_sta__baselibs__memory_shared--><g id="elem_comp_arc_sta__baselibs__memory_shared"><rect fill="#F1F1F1" height="40" id="comp_arc_sta__baselibs__memory_shared" rx="2.5" ry="2.5" style="stroke:#181818;stroke-width:0.5;" width="327.0117" x="4922" y="275.5"/><ellipse cx="4937" cy="291.5" fill="#ADD1B2" rx="11" ry="11" style="stroke:#181818;stroke-width:1;"/><path d="M4939.9688,297.1406 Q4939.3906,297.4375 4938.75,297.5781 Q4938.1094,297.7344 4937.4063,297.7344 Q4934.9063,297.7344 4933.5781,296.0938 Q4932.2656,294.4375 4932.2656,291.3125 Q4932.2656,288.1875 4933.5781,286.5313 Q4934.9063,284.875 4937.4063,284.875 Q4938.1094,284.875 4938.75,285.0313 Q4939.4063,285.1875 4939.9688,285.4844 L4939.9688,288.2031 Q4939.3438,287.625 4938.75,287.3594 Q4938.1563,287.0781 4937.5313,287.0781 Q4936.1875,287.0781 4935.5,288.1563 Q4934.8125,289.2188 4934.8125,291.3125 Q4934.8125,293.4063 4935.5,294.4844 Q4936.1875,295.5469 4937.5313,295.5469 Q4938.1563,295.5469 4938.75,295.2813 Q4939.3438,295 4939.9688,294.4219 L4939.9688,297.1406 Z " fill="#000000"/><text fill="#000000" font-family="sans-serif" font-size="14" lengthAdjust="spacing" textLength="295.0117" x="4951" y="296.3467">comp_arc_sta__baselibs__memory_shared</text><line style="stroke:#181818;stroke-width:0.5;" x1="4923" x2="5248.0117" y1="307.5" y2="307.5"/></g><!--class logic_arc_int__baselibs__bit_manipulation--><g id="elem_logic_arc_int__baselibs__bit_manipulation"><rect fill="#F1F1F1" height="40" id="logic_arc_int__baselibs__bit_manipulation" rx="2.5" ry="2.5" style="stroke:#181818;stroke-width:0.5;" width="321.8369" x="4569.5" y="158.5"/><ellipse cx="4584.5" cy="174.5" fill="#ADD1B2" rx="11" ry="11" style="stroke:#181818;stroke-width:1;"/><path d="M4587.4688,180.1406 Q4586.8906,180.4375 4586.25,180.5781 Q4585.6094,180.7344 4584.9063,180.7344 Q4582.4063,180.7344 4581.0781,179.0938 Q4579.7656,177.4375 4579.7656,174.3125 Q4579.7656,171.1875 4581.0781,169.5313 Q4582.4063,167.875 4584.9063,167.875 Q4585.6094,167.875 4586.25,168.0313 Q4586.9063,168.1875 4587.4688,168.4844 L4587.4688,171.2031 Q4586.8438,170.625 4586.25,170.3594 Q4585.6563,170.0781 4585.0313,170.0781 Q4583.6875,170.0781 4583,171.1563 Q4582.3125,172.2188 4582.3125,174.3125 Q4582.3125,176.4063 4583,177.4844 Q4583.6875,178.5469 4585.0313,178.5469 Q4585.6563,178.5469 4586.25,178.2813 Q4586.8438,178 4587.4688,177.4219 L4587.4688,180.1406 Z " fill="#000000"/><text fill="#000000" font-family="sans-serif" font-size="14" lengthAdjust="spacing" textLength="289.8369" x="4598.5" y="179.3467">logic_arc_int__baselibs__bit_manipulation</text><line style="stroke:#181818;stroke-width:0.5;" x1="4570.5" x2="4890.3369" y1="190.5" y2="190.5"/></g><!--class logic_arc_int__baselibs__shared_future--><g id="elem_logic_arc_int__baselibs__shared_future"><rect fill="#F1F1F1" height="40" id="logic_arc_int__baselibs__shared_future" rx="2.5" ry="2.5" style="stroke:#181818;stroke-width:0.5;" width="302.0811" x="3197.5" y="158.5"/><ellipse cx="3212.5" cy="174.5" fill="#ADD1B2" rx="11" ry="11" style="stroke:#181818;stroke-width:1;"/><path d="M3215.4688,180.1406 Q3214.8906,180.4375 3214.25,180.5781 Q3213.6094,180.7344 3212.9063,180.7344 Q3210.4063,180.7344 3209.0781,179.0938 Q3207.7656,177.4375 3207.7656,174.3125 Q3207.7656,171.1875 3209.0781,169.5313 Q3210.4063,167.875 3212.9063,167.875 Q3213.6094,167.875 3214.25,168.0313 Q3214.9063,168.1875 3215.4688,168.4844 L3215.4688,171.2031 Q3214.8438,170.625 3214.25,170.3594 Q3213.6563,170.0781 3213.0313,170.0781 Q3211.6875,170.0781 3211,171.1563 Q3210.3125,172.2188 3210.3125,174.3125 Q3210.3125,176.4063 3211,177.4844 Q3211.6875,178.5469 3213.0313,178.5469 Q3213.6563,178.5469 3214.25,178.2813 Q3214.8438,178 3215.4688,177.4219 L3215.4688,180.1406 Z " fill="#000000"/><text fill="#000000" font-family="sans-serif" font-size="14" lengthAdjust="spacing" textLength="270.0811" x="3226.5" y="179.3467">logic_arc_int__baselibs__shared_future</text><line style="stroke:#181818;stroke-width:0.5;" x1="3198.5" x2="3498.5811" y1="190.5" y2="190.5"/></g><!--class logic_arc_int__baselibs__task_result--><g id="elem_logic_arc_int__baselibs__task_result"><rect fill="#F1F1F1" height="40" id="logic_arc_int__baselibs__task_result" rx="2.5" ry="2.5" style="stroke:#181818;stroke-width:0.5;" width="280.9307" x="1928" y="158.5"/><ellipse cx="1943" cy="174.5" fill="#ADD1B2" rx="11" ry="11" style="stroke:#181818;stroke-width:1;"/><path d="M1945.9688,180.1406 Q1945.3906,180.4375 1944.75,180.5781 Q1944.1094,180.7344 1943.4063,180.7344 Q1940.9063,180.7344 1939.5781,179.0938 Q1938.2656,177.4375 1938.2656,174.3125 Q1938.2656,171.1875 1939.5781,169.5313 Q1940.9063,167.875 1943.4063,167.875 Q1944.1094,167.875 1944.75,168.0313 Q1945.4063,168.1875 1945.9688,168.4844 L1945.9688,171.2031 Q1945.3438,170.625 1944.75,170.3594 Q1944.1563,170.0781 1943.5313,170.0781 Q1942.1875,170.0781 1941.5,171.1563 Q1940.8125,172.2188 1940.8125,174.3125 Q1940.8125,176.4063 1941.5,177.4844 Q1942.1875,178.5469 1943.5313,178.5469 Q1944.1563,178.5469 1944.75,178.2813 Q1945.3438,178 1945.9688,177.4219 L1945.9688,180.1406 Z " fill="#000000"/><text fill="#000000" font-family="sans-serif" font-size="14" lengthAdjust="spacing" textLength="248.9307" x="1957" y="179.3467">logic_arc_int__baselibs__task_result</text><line style="stroke:#181818;stroke-width:0.5;" x1="1929" x2="2207.9307" y1="190.5" y2="190.5"/></g><!--class logic_arc_int__baselibs__utils_base64--><g id="elem_logic_arc_int__baselibs__utils_base64"><rect fill="#F1F1F1" height="40" id="logic_arc_int__baselibs__utils_base64" rx="2.5" ry="2.5" style="stroke:#181818;stroke-width:0.5;" width="292.1689" x="5279.5" y="158.5"/><ellipse cx="5294.5" cy="174.5" fill="#ADD1B2" rx="11" ry="11" style="stroke:#181818;stroke-width:1;"/><path d="M5297.4688,180.1406 Q5296.8906,180.4375 5296.25,180.5781 Q5295.6094,180.7344 5294.9063,180.7344 Q5292.4063,180.7344 5291.0781,179.0938 Q5289.7656,177.4375 5289.7656,174.3125 Q5289.7656,171.1875 5291.0781,169.5313 Q5292.4063,167.875 5294.9063,167.875 Q5295.6094,167.875 5296.25,168.0313 Q5296.9063,168.1875 5297.4688,168.4844 L5297.4688,171.2031 Q5296.8438,170.625 5296.25,170.3594 Q5295.6563,170.0781 5295.0313,170.0781 Q5293.6875,170.0781 5293,171.1563 Q5292.3125,172.2188 5292.3125,174.3125 Q5292.3125,176.4063 5293,177.4844 Q5293.6875,178.5469 5295.0313,178.5469 Q5295.6563,178.5469 5296.25,178.2813 Q5296.8438,178 5297.4688,177.4219 L5297.4688,180.1406 Z " fill="#000000"/><text fill="#000000" font-family="sans-serif" font-size="14" lengthAdjust="spacing" textLength="260.1689" x="5308.5" y="179.3467">logic_arc_int__baselibs__utils_base64</text><line style="stroke:#181818;stroke-width:0.5;" x1="5280.5" x2="5570.6689" y1="190.5" y2="190.5"/></g><!--class logic_arc_int__baselibs__intrusive_list--><g id="elem_logic_arc_int__baselibs__intrusive_list"><rect fill="#F1F1F1" height="40" id="logic_arc_int__baselibs__intrusive_list" rx="2.5" ry="2.5" style="stroke:#181818;stroke-width:0.5;" width="293.0713" x="974" y="158.5"/><ellipse cx="989" cy="174.5" fill="#ADD1B2" rx="11" ry="11" style="stroke:#181818;stroke-width:1;"/><path d="M991.9688,180.1406 Q991.3906,180.4375 990.75,180.5781 Q990.1094,180.7344 989.4063,180.7344 Q986.9063,180.7344 985.5781,179.0938 Q984.2656,177.4375 984.2656,174.3125 Q984.2656,171.1875 985.5781,169.5313 Q986.9063,167.875 989.4063,167.875 Q990.1094,167.875 990.75,168.0313 Q991.4063,168.1875 991.9688,168.4844 L991.9688,171.2031 Q991.3438,170.625 990.75,170.3594 Q990.1563,170.0781 989.5313,170.0781 Q988.1875,170.0781 987.5,171.1563 Q986.8125,172.2188 986.8125,174.3125 Q986.8125,176.4063 987.5,177.4844 Q988.1875,178.5469 989.5313,178.5469 Q990.1563,178.5469 990.75,178.2813 Q991.3438,178 991.9688,177.4219 L991.9688,180.1406 Z " fill="#000000"/><text fill="#000000" font-family="sans-serif" font-size="14" lengthAdjust="spacing" textLength="261.0713" x="1003" y="179.3467">logic_arc_int__baselibs__intrusive_list</text><line style="stroke:#181818;stroke-width:0.5;" x1="975" x2="1266.0713" y1="190.5" y2="190.5"/></g><!--class logic_arc_int__baselibs__filesystem--><g id="elem_logic_arc_int__baselibs__filesystem"><rect fill="#F1F1F1" height="40" id="logic_arc_int__baselibs__filesystem" rx="2.5" ry="2.5" style="stroke:#181818;stroke-width:0.5;" width="276.4805" x="383.5" y="158.5"/><ellipse cx="398.5" cy="174.5" fill="#ADD1B2" rx="11" ry="11" style="stroke:#181818;stroke-width:1;"/><path d="M401.4688,180.1406 Q400.8906,180.4375 400.25,180.5781 Q399.6094,180.7344 398.9063,180.7344 Q396.4063,180.7344 395.0781,179.0938 Q393.7656,177.4375 393.7656,174.3125 Q393.7656,171.1875 395.0781,169.5313 Q396.4063,167.875 398.9063,167.875 Q399.6094,167.875 400.25,168.0313 Q400.9063,168.1875 401.4688,168.4844 L401.4688,171.2031 Q400.8438,170.625 400.25,170.3594 Q399.6563,170.0781 399.0313,170.0781 Q397.6875,170.0781 397,171.1563 Q396.3125,172.2188 396.3125,174.3125 Q396.3125,176.4063 397,177.4844 Q397.6875,178.5469 399.0313,178.5469 Q399.6563,178.5469 400.25,178.2813 Q400.8438,178 401.4688,177.4219 L401.4688,180.1406 Z " fill="#000000"/><text fill="#000000" font-family="sans-serif" font-size="14" lengthAdjust="spacing" textLength="244.4805" x="412.5" y="179.3467">logic_arc_int__baselibs__filesystem</text><line style="stroke:#181818;stroke-width:0.5;" x1="384.5" x2="658.9805" y1="190.5" y2="190.5"/></g><!--class logic_arc_int__baselibs__synchronized_queue--><g id="elem_logic_arc_int__baselibs__synchronized_queue"><rect fill="#F1F1F1" height="40" id="logic_arc_int__baselibs__synchronized_queue" rx="2.5" ry="2.5" style="stroke:#181818;stroke-width:0.5;" width="348.3604" x="2244.5" y="158.5"/><ellipse cx="2259.5" cy="174.5" fill="#ADD1B2" rx="11" ry="11" style="stroke:#181818;stroke-width:1;"/><path d="M2262.4688,180.1406 Q2261.8906,180.4375 2261.25,180.5781 Q2260.6094,180.7344 2259.9063,180.7344 Q2257.4063,180.7344 2256.0781,179.0938 Q2254.7656,177.4375 2254.7656,174.3125 Q2254.7656,171.1875 2256.0781,169.5313 Q2257.4063,167.875 2259.9063,167.875 Q2260.6094,167.875 2261.25,168.0313 Q2261.9063,168.1875 2262.4688,168.4844 L2262.4688,171.2031 Q2261.8438,170.625 2261.25,170.3594 Q2260.6563,170.0781 2260.0313,170.0781 Q2258.6875,170.0781 2258,171.1563 Q2257.3125,172.2188 2257.3125,174.3125 Q2257.3125,176.4063 2258,177.4844 Q2258.6875,178.5469 2260.0313,178.5469 Q2260.6563,178.5469 2261.25,178.2813 Q2261.8438,178 2262.4688,177.4219 L2262.4688,180.1406 Z " fill="#000000"/><text fill="#000000" font-family="sans-serif" font-size="14" lengthAdjust="spacing" textLength="316.3604" x="2273.5" y="179.3467">logic_arc_int__baselibs__synchronized_queue</text><line style="stroke:#181818;stroke-width:0.5;" x1="2245.5" x2="2591.8604" y1="190.5" y2="190.5"/></g><!--class logic_arc_int__baselibs__result--><g id="elem_logic_arc_int__baselibs__result"><rect fill="#F1F1F1" height="40" id="logic_arc_int__baselibs__result" rx="2.5" ry="2.5" style="stroke:#181818;stroke-width:0.5;" width="244.4609" x="694.5" y="158.5"/><ellipse cx="709.5" cy="174.5" fill="#ADD1B2" rx="11" ry="11" style="stroke:#181818;stroke-width:1;"/><path d="M712.4688,180.1406 Q711.8906,180.4375 711.25,180.5781 Q710.6094,180.7344 709.9063,180.7344 Q707.4063,180.7344 706.0781,179.0938 Q704.7656,177.4375 704.7656,174.3125 Q704.7656,171.1875 706.0781,169.5313 Q707.4063,167.875 709.9063,167.875 Q710.6094,167.875 711.25,168.0313 Q711.9063,168.1875 712.4688,168.4844 L712.4688,171.2031 Q711.8438,170.625 711.25,170.3594 Q710.6563,170.0781 710.0313,170.0781 Q708.6875,170.0781 708,171.1563 Q707.3125,172.2188 707.3125,174.3125 Q707.3125,176.4063 708,177.4844 Q708.6875,178.5469 710.0313,178.5469 Q710.6563,178.5469 711.25,178.2813 Q711.8438,178 712.4688,177.4219 L712.4688,180.1406 Z " fill="#000000"/><text fill="#000000" font-family="sans-serif" font-size="14" lengthAdjust="spacing" textLength="212.4609" x="723.5" y="179.3467">logic_arc_int__baselibs__result</text><line style="stroke:#181818;stroke-width:0.5;" x1="695.5" x2="937.9609" y1="190.5" y2="190.5"/></g><!--class comp_arc_sta__baselibs__result--><g id="elem_comp_arc_sta__baselibs__result"><rect fill="#F1F1F1" height="40" id="comp_arc_sta__baselibs__result" rx="2.5" ry="2.5" style="stroke:#181818;stroke-width:0.5;" width="253.4297" x="699" y="275.5"/><ellipse cx="714" cy="291.5" fill="#ADD1B2" rx="11" ry="11" style="stroke:#181818;stroke-width:1;"/><path d="M716.9688,297.1406 Q716.3906,297.4375 715.75,297.5781 Q715.1094,297.7344 714.4063,297.7344 Q711.9063,297.7344 710.5781,296.0938 Q709.2656,294.4375 709.2656,291.3125 Q709.2656,288.1875 710.5781,286.5313 Q711.9063,284.875 714.4063,284.875 Q715.1094,284.875 715.75,285.0313 Q716.4063,285.1875 716.9688,285.4844 L716.9688,288.2031 Q716.3438,287.625 715.75,287.3594 Q715.1563,287.0781 714.5313,287.0781 Q713.1875,287.0781 712.5,288.1563 Q711.8125,289.2188 711.8125,291.3125 Q711.8125,293.4063 712.5,294.4844 Q713.1875,295.5469 714.5313,295.5469 Q715.1563,295.5469 715.75,295.2813 Q716.3438,295 716.9688,294.4219 L716.9688,297.1406 Z " fill="#000000"/><text fill="#000000" font-family="sans-serif" font-size="14" lengthAdjust="spacing" textLength="221.4297" x="728" y="296.3467">comp_arc_sta__baselibs__result</text><line style="stroke:#181818;stroke-width:0.5;" x1="700" x2="951.4297" y1="307.5" y2="307.5"/></g><!--class logic_arc_int__baselibs__message_passing--><g id="elem_logic_arc_int__baselibs__message_passing"><rect fill="#F1F1F1" height="40" id="logic_arc_int__baselibs__message_passing" rx="2.5" ry="2.5" style="stroke:#181818;stroke-width:0.5;" width="328.167" x="16.5" y="158.5"/><ellipse cx="31.5" cy="174.5" fill="#ADD1B2" rx="11" ry="11" style="stroke:#181818;stroke-width:1;"/><path d="M34.4688,180.1406 Q33.8906,180.4375 33.25,180.5781 Q32.6094,180.7344 31.9063,180.7344 Q29.4063,180.7344 28.0781,179.0938 Q26.7656,177.4375 26.7656,174.3125 Q26.7656,171.1875 28.0781,169.5313 Q29.4063,167.875 31.9063,167.875 Q32.6094,167.875 33.25,168.0313 Q33.9063,168.1875 34.4688,168.4844 L34.4688,171.2031 Q33.8438,170.625 33.25,170.3594 Q32.6563,170.0781 32.0313,170.0781 Q30.6875,170.0781 30,171.1563 Q29.3125,172.2188 29.3125,174.3125 Q29.3125,176.4063 30,177.4844 Q30.6875,178.5469 32.0313,178.5469 Q32.6563,178.5469 33.25,178.2813 Q33.8438,178 34.4688,177.4219 L34.4688,180.1406 Z " fill="#000000"/><text fill="#000000" font-family="sans-serif" font-size="14" lengthAdjust="spacing" textLength="296.167" x="45.5" y="179.3467">logic_arc_int__baselibs__message_passing</text><line style="stroke:#181818;stroke-width:0.5;" x1="17.5" x2="343.667" y1="190.5" y2="190.5"/></g><!--class comp_arc_sta__baselibs__filesystem--><g id="elem_comp_arc_sta__baselibs__filesystem"><rect fill="#F1F1F1" height="40" id="comp_arc_sta__baselibs__filesystem" rx="2.5" ry="2.5" style="stroke:#181818;stroke-width:0.5;" width="285.4492" x="379" y="275.5"/><ellipse cx="394" cy="291.5" fill="#ADD1B2" rx="11" ry="11" style="stroke:#181818;stroke-width:1;"/><path d="M396.9688,297.1406 Q396.3906,297.4375 395.75,297.5781 Q395.1094,297.7344 394.4063,297.7344 Q391.9063,297.7344 390.5781,296.0938 Q389.2656,294.4375 389.2656,291.3125 Q389.2656,288.1875 390.5781,286.5313 Q391.9063,284.875 394.4063,284.875 Q395.1094,284.875 395.75,285.0313 Q396.4063,285.1875 396.9688,285.4844 L396.9688,288.2031 Q396.3438,287.625 395.75,287.3594 Q395.1563,287.0781 394.5313,287.0781 Q393.1875,287.0781 392.5,288.1563 Q391.8125,289.2188 391.8125,291.3125 Q391.8125,293.4063 392.5,294.4844 Q393.1875,295.5469 394.5313,295.5469 Q395.1563,295.5469 395.75,295.2813 Q396.3438,295 396.9688,294.4219 L396.9688,297.1406 Z " fill="#000000"/><text fill="#000000" font-family="sans-serif" font-size="14" lengthAdjust="spacing" textLength="253.4492" x="408" y="296.3467">comp_arc_sta__baselibs__filesystem</text><line style="stroke:#181818;stroke-width:0.5;" x1="380" x2="663.4492" y1="307.5" y2="307.5"/></g><!--class comp_arc_sta__baselibs__message_passing--><g id="elem_comp_arc_sta__baselibs__message_passing"><rect fill="#F1F1F1" height="40" id="comp_arc_sta__baselibs__message_passing" rx="2.5" ry="2.5" style="stroke:#181818;stroke-width:0.5;" width="337.1357" x="7" y="275.5"/><ellipse cx="22" cy="291.5" fill="#ADD1B2" rx="11" ry="11" style="stroke:#181818;stroke-width:1;"/><path d="M24.9688,297.1406 Q24.3906,297.4375 23.75,297.5781 Q23.1094,297.7344 22.4063,297.7344 Q19.9063,297.7344 18.5781,296.0938 Q17.2656,294.4375 17.2656,291.3125 Q17.2656,288.1875 18.5781,286.5313 Q19.9063,284.875 22.4063,284.875 Q23.1094,284.875 23.75,285.0313 Q24.4063,285.1875 24.9688,285.4844 L24.9688,288.2031 Q24.3438,287.625 23.75,287.3594 Q23.1563,287.0781 22.5313,287.0781 Q21.1875,287.0781 20.5,288.1563 Q19.8125,289.2188 19.8125,291.3125 Q19.8125,293.4063 20.5,294.4844 Q21.1875,295.5469 22.5313,295.5469 Q23.1563,295.5469 23.75,295.2813 Q24.3438,295 24.9688,294.4219 L24.9688,297.1406 Z " fill="#000000"/><text fill="#000000" font-family="sans-serif" font-size="14" lengthAdjust="spacing" textLength="305.1357" x="36" y="296.3467">comp_arc_sta__baselibs__message_passing</text><line style="stroke:#181818;stroke-width:0.5;" x1="8" x2="343.1357" y1="307.5" y2="307.5"/></g><!--reverse link logic_arc_int__baselibs__bit_mask_operator to comp_arc_sta__baselibs__bit_manipulation--><g id="link_logic_arc_int__baselibs__bit_mask_operator_comp_arc_sta__baselibs__bit_manipulation"><path codeLine="15" d="M4401.6865,201.9799 C4435.0165,223.2699 4483.33,254.14 4516.57,275.38 " fill="transparent" id="logic_arc_int__baselibs__bit_mask_operator-backto-comp_arc_sta__baselibs__bit_manipulation" style="stroke:#181818;stroke-width:1;"/><polygon fill="#181818" points="4396.63,198.75,4402.0614,206.9658,4400.8437,201.4416,4406.368,200.2239,4396.63,198.75" style="stroke:#181818;stroke-width:1;"/><text fill="#000000" font-family="sans-serif" font-size="13" lengthAdjust="spacing" textLength="76.9082" x="4468.5" y="241.5669">implements</text></g><!--link Feature_User to logic_arc_int__baselibs__memory_shared--><g id="link_Feature_User_logic_arc_int__baselibs__memory_shared"><path codeLine="16" d="M3074.65,46.36 C3283.59,55.13 4177.58,94.72 4908.5,158.5 C4914.35,159.01 4914.3359,158.9933 4920.3459,159.5533 " fill="transparent" id="Feature_User-to-logic_arc_int__baselibs__memory_shared" style="stroke:#181818;stroke-width:1;"/><polygon fill="#181818" points="4926.32,160.11,4917.7299,155.2923,4921.3416,159.6461,4916.9877,163.2578,4926.32,160.11" style="stroke:#181818;stroke-width:1;"/><text fill="#000000" font-family="sans-serif" font-size="13" lengthAdjust="spacing" textLength="23.0103" x="4498.5" y="124.5669">use</text></g><!--reverse link logic_arc_int__baselibs__utils_scoped_op to comp_arc_sta__baselibs__utils--><g id="link_logic_arc_int__baselibs__utils_scoped_op_comp_arc_sta__baselibs__utils"><path codeLine="17" d="M5726.3479,201.7743 C5689.8679,223.0643 5636.64,254.14 5600.25,275.38 " fill="transparent" id="logic_arc_int__baselibs__utils_scoped_op-backto-comp_arc_sta__baselibs__utils" style="stroke:#181818;stroke-width:1;"/><polygon fill="#181818" points="5731.53,198.75,5721.7407,199.8317,5727.2116,201.2702,5725.7731,206.7411,5731.53,198.75" style="stroke:#181818;stroke-width:1;"/><text fill="#000000" font-family="sans-serif" font-size="13" lengthAdjust="spacing" textLength="76.9082" x="5679.5" y="241.5669">implements</text></g><!--reverse link logic_arc_int__baselibs__json to comp_arc_sta__baselibs__json--><g id="link_logic_arc_int__baselibs__json_comp_arc_sta__baselibs__json"><path codeLine="18" d="M6073.5,204.75 C6073.5,225.98 6073.5,253.94 6073.5,275.19 " fill="transparent" id="logic_arc_int__baselibs__json-backto-comp_arc_sta__baselibs__json" style="stroke:#181818;stroke-width:1;"/><polygon fill="#181818" points="6073.5,198.75,6069.5,207.75,6073.5,203.75,6077.5,207.75,6073.5,198.75" style="stroke:#181818;stroke-width:1;"/><text fill="#000000" font-family="sans-serif" font-size="13" lengthAdjust="spacing" textLength="76.9082" x="6074.5" y="241.5669">implements</text></g><!--link Feature_User to logic_arc_int__baselibs__executor--><g id="link_Feature_User_logic_arc_int__baselibs__executor"><path codeLine="19" d="M3029.5,81.55 C3029.5,106.45 3029.5,132.26 3029.5,152.26 " fill="transparent" id="Feature_User-to-logic_arc_int__baselibs__executor" style="stroke:#181818;stroke-width:1;"/><polygon fill="#181818" points="3029.5,158.26,3033.5,149.26,3029.5,153.26,3025.5,149.26,3029.5,158.26" style="stroke:#181818;stroke-width:1;"/><text fill="#000000" font-family="sans-serif" font-size="13" lengthAdjust="spacing" textLength="23.0103" x="3030.5" y="124.5669">use</text></g><!--link Feature_User to logic_arc_int__baselibs__task--><g id="link_Feature_User_logic_arc_int__baselibs__task"><path codeLine="20" d="M2984.34,65.57 C2929.56,91.14 2843.4574,131.3233 2790.7274,155.9233 " fill="transparent" id="Feature_User-to-logic_arc_int__baselibs__task" style="stroke:#181818;stroke-width:1;"/><polygon fill="#181818" points="2785.29,158.46,2795.1372,158.2799,2789.8212,156.3461,2791.755,151.03,2785.29,158.46" style="stroke:#181818;stroke-width:1;"/><text fill="#000000" font-family="sans-serif" font-size="13" lengthAdjust="spacing" textLength="23.0103" x="2879.5" y="124.5669">use</text></g><!--reverse link logic_arc_int__baselibs__dynamic_array to comp_arc_sta__baselibs__containers--><g id="link_logic_arc_int__baselibs__dynamic_array_comp_arc_sta__baselibs__containers"><path codeLine="21" d="M1418.6918,201.7979 C1382.5918,223.0879 1329.94,254.14 1293.92,275.38 " fill="transparent" id="logic_arc_int__baselibs__dynamic_array-backto-comp_arc_sta__baselibs__containers" style="stroke:#181818;stroke-width:1;"/><polygon fill="#181818" points="1423.86,198.75,1414.0758,199.8765,1419.5532,201.2899,1418.1397,206.7674,1423.86,198.75" style="stroke:#181818;stroke-width:1;"/><text fill="#000000" font-family="sans-serif" font-size="13" lengthAdjust="spacing" textLength="76.9082" x="1372.5" y="241.5669">implements</text></g><!--link Feature_User to logic_arc_int__baselibs__future--><g id="link_Feature_User_logic_arc_int__baselibs__future"><path codeLine="22" d="M2984.41,48.56 C2832.73,62.35 2327.2,109.21 1910.5,158.5 C1904.86,159.17 1905.0446,159.1333 1899.2246,159.8533 " fill="transparent" id="Feature_User-to-logic_arc_int__baselibs__future" style="stroke:#181818;stroke-width:1;"/><polygon fill="#181818" points="1893.27,160.59,1902.693,163.4548,1898.2322,159.9761,1901.7108,155.5153,1893.27,160.59" style="stroke:#181818;stroke-width:1;"/><text fill="#000000" font-family="sans-serif" font-size="13" lengthAdjust="spacing" textLength="23.0103" x="2311.5" y="124.5669">use</text></g><!--reverse link logic_arc_int__baselibs__promise to comp_arc_sta__baselibs__concurrency--><g id="link_logic_arc_int__baselibs__promise_comp_arc_sta__baselibs__concurrency"><path codeLine="23" d="M3896.8214,197.184 C3890.9814,197.874 3891.16,197.85 3885.5,198.5 C3569.35,234.76 3197.9,266.42 2995.55,282.75 " fill="transparent" id="logic_arc_int__baselibs__promise-backto-comp_arc_sta__baselibs__concurrency" style="stroke:#181818;stroke-width:1;"/><polygon fill="#181818" points="3902.78,196.48,3893.3728,193.5636,3897.8145,197.0667,3894.3115,201.5084,3902.78,196.48" style="stroke:#181818;stroke-width:1;"/><text fill="#000000" font-family="sans-serif" font-size="13" lengthAdjust="spacing" textLength="76.9082" x="3601.5" y="241.5669">implements</text></g><!--link Feature_User to logic_arc_int__baselibs__condition_variable--><g id="link_Feature_User_logic_arc_int__baselibs__condition_variable"><path codeLine="24" d="M3074.64,53.43 C3182.71,74.82 3452.3742,128.195 3599.5442,157.325 " fill="transparent" id="Feature_User-to-logic_arc_int__baselibs__condition_variable" style="stroke:#181818;stroke-width:1;"/><polygon fill="#181818" points="3605.43,158.49,3597.378,152.8186,3600.5252,157.5192,3595.8246,160.6664,3605.43,158.49" style="stroke:#181818;stroke-width:1;"/><text fill="#000000" font-family="sans-serif" font-size="13" lengthAdjust="spacing" textLength="23.0103" x="3446.5" y="124.5669">use</text></g><!--reverse link logic_arc_int__baselibs__condition_variable to comp_arc_sta__baselibs__concurrency--><g id="link_logic_arc_int__baselibs__condition_variable_comp_arc_sta__baselibs__concurrency"><path codeLine="25" d="M3555.4145,199.3365 C3457.8845,212.5665 3330.75,229.77 3213.5,245.5 C3139.4,255.44 3056.89,266.44 2988.81,275.49 " fill="transparent" id="logic_arc_int__baselibs__condition_variable-backto-comp_arc_sta__baselibs__concurrency" style="stroke:#181818;stroke-width:1;"/><polygon fill="#181818" points="3561.36,198.53,3551.904,195.7761,3556.4054,199.2021,3552.9794,203.7035,3561.36,198.53" style="stroke:#181818;stroke-width:1;"/><text fill="#000000" font-family="sans-serif" font-size="13" lengthAdjust="spacing" textLength="76.9082" x="3335.5" y="241.5669">implements</text></g><!--link Feature_User to logic_arc_int__baselibs__dynamic_array--><g id="link_Feature_User_logic_arc_int__baselibs__dynamic_array"><path codeLine="26" d="M2984.39,47.56 C2809.72,59.55 2161.19,105.24 1628.5,158.5 C1622.67,159.08 1622.6982,159.0733 1616.6982,159.6933 " fill="transparent" id="Feature_User-to-logic_arc_int__baselibs__dynamic_array" style="stroke:#181818;stroke-width:1;"/><polygon fill="#181818" points="1610.73,160.31,1620.0935,163.3637,1615.7035,159.7961,1619.2712,155.4061,1610.73,160.31" style="stroke:#181818;stroke-width:1;"/><text fill="#000000" font-family="sans-serif" font-size="13" lengthAdjust="spacing" textLength="23.0103" x="2130.5" y="124.5669">use</text></g><!--reverse link logic_arc_int__baselibs__memory_shared to comp_arc_sta__baselibs__memory_shared--><g id="link_logic_arc_int__baselibs__memory_shared_comp_arc_sta__baselibs__memory_shared"><path codeLine="27" d="M5085.5,204.75 C5085.5,225.98 5085.5,253.94 5085.5,275.19 " fill="transparent" id="logic_arc_int__baselibs__memory_shared-backto-comp_arc_sta__baselibs__memory_shared" style="stroke:#181818;stroke-width:1;"/><polygon fill="#181818" points="5085.5,198.75,5081.5,207.75,5085.5,203.75,5089.5,207.75,5085.5,198.75" style="stroke:#181818;stroke-width:1;"/><text fill="#000000" font-family="sans-serif" font-size="13" lengthAdjust="spacing" textLength="76.9082" x="5086.5" y="241.5669">implements</text></g><!--link Feature_User to logic_arc_int__baselibs__bit_manipulation--><g id="link_Feature_User_logic_arc_int__baselibs__bit_manipulation"><path codeLine="28" d="M3074.68,47.37 C3258.55,59.16 3968.62,105.75 4551.5,158.5 C4557.26,159.02 4557.1467,159.005 4563.0667,159.565 " fill="transparent" id="Feature_User-to-logic_arc_int__baselibs__bit_manipulation" style="stroke:#181818;stroke-width:1;"/><polygon fill="#181818" points="4569.04,160.13,4560.4567,155.3002,4564.0622,159.6591,4559.7033,163.2647,4569.04,160.13" style="stroke:#181818;stroke-width:1;"/><text fill="#000000" font-family="sans-serif" font-size="13" lengthAdjust="spacing" textLength="23.0103" x="4177.5" y="124.5669">use</text></g><!--reverse link logic_arc_int__baselibs__executor to comp_arc_sta__baselibs__concurrency--><g id="link_logic_arc_int__baselibs__executor_comp_arc_sta__baselibs__concurrency"><path codeLine="29" d="M2993.6118,201.9296 C2959.5418,223.2196 2910.08,254.14 2876.09,275.38 " fill="transparent" id="logic_arc_int__baselibs__executor-backto-comp_arc_sta__baselibs__concurrency" style="stroke:#181818;stroke-width:1;"/><polygon fill="#181818" points="2998.7,198.75,2988.9479,200.1272,2994.4598,201.3997,2993.1874,206.9115,2998.7,198.75" style="stroke:#181818;stroke-width:1;"/><text fill="#000000" font-family="sans-serif" font-size="13" lengthAdjust="spacing" textLength="76.9082" x="2950.5" y="241.5669">implements</text></g><!--reverse link logic_arc_int__baselibs__task to comp_arc_sta__baselibs__concurrency--><g id="link_logic_arc_int__baselibs__task_comp_arc_sta__baselibs__concurrency"><path codeLine="30" d="M2765.3687,203.2587 C2784.0087,224.4887 2809.87,253.94 2828.54,275.19 " fill="transparent" id="logic_arc_int__baselibs__task-backto-comp_arc_sta__baselibs__concurrency" style="stroke:#181818;stroke-width:1;"/><polygon fill="#181818" points="2761.41,198.75,2764.3422,208.1522,2764.7089,202.5073,2770.3539,202.874,2761.41,198.75" style="stroke:#181818;stroke-width:1;"/><text fill="#000000" font-family="sans-serif" font-size="13" lengthAdjust="spacing" textLength="76.9082" x="2802.5" y="241.5669">implements</text></g><!--link Feature_User to logic_arc_int__baselibs__shared_future--><g id="link_Feature_User_logic_arc_int__baselibs__shared_future"><path codeLine="31" d="M3074.53,63.27 C3135.07,88.51 3236.5721,130.8309 3297.3921,156.1909 " fill="transparent" id="Feature_User-to-logic_arc_int__baselibs__shared_future" style="stroke:#181818;stroke-width:1;"/><polygon fill="#181818" points="3302.93,158.5,3296.1626,151.3444,3298.3151,156.5757,3293.0838,158.7282,3302.93,158.5" style="stroke:#181818;stroke-width:1;"/><text fill="#000000" font-family="sans-serif" font-size="13" lengthAdjust="spacing" textLength="23.0103" x="3228.5" y="124.5669">use</text></g><!--link Feature_User to logic_arc_int__baselibs__task_result--><g id="link_Feature_User_logic_arc_int__baselibs__task_result"><path codeLine="32" d="M2984.44,50.74 C2846.49,69.83 2431.9333,127.1974 2211.9233,157.6474 " fill="transparent" id="Feature_User-to-logic_arc_int__baselibs__task_result" style="stroke:#181818;stroke-width:1;"/><polygon fill="#181818" points="2205.98,158.47,2215.4434,161.1984,2210.9328,157.7845,2214.3466,153.2739,2205.98,158.47" style="stroke:#181818;stroke-width:1;"/><text fill="#000000" font-family="sans-serif" font-size="13" lengthAdjust="spacing" textLength="23.0103" x="2521.5" y="124.5669">use</text></g><!--reverse link logic_arc_int__baselibs__utils_base64 to comp_arc_sta__baselibs__utils--><g id="link_logic_arc_int__baselibs__utils_base64_comp_arc_sta__baselibs__utils"><path codeLine="33" d="M5453.9324,202.5265 C5480.1424,223.7565 5517.41,253.94 5543.65,275.19 " fill="transparent" id="logic_arc_int__baselibs__utils_base64-backto-comp_arc_sta__baselibs__utils" style="stroke:#181818;stroke-width:1;"/><polygon fill="#181818" points="5449.27,198.75,5453.7459,207.523,5453.1553,201.8971,5458.7813,201.3065,5449.27,198.75" style="stroke:#181818;stroke-width:1;"/><text fill="#000000" font-family="sans-serif" font-size="13" lengthAdjust="spacing" textLength="76.9082" x="5506.5" y="241.5669">implements</text></g><!--reverse link logic_arc_int__baselibs__task_result to comp_arc_sta__baselibs__concurrency--><g id="link_logic_arc_int__baselibs__task_result_comp_arc_sta__baselibs__concurrency"><path codeLine="34" d="M2203.1753,199.4287 C2347.1153,220.7387 2572.92,254.16 2716.83,275.46 " fill="transparent" id="logic_arc_int__baselibs__task_result-backto-comp_arc_sta__baselibs__concurrency" style="stroke:#181818;stroke-width:1;"/><polygon fill="#181818" points="2197.24,198.55,2205.5572,203.8249,2202.1861,199.2823,2206.7288,195.9112,2197.24,198.55" style="stroke:#181818;stroke-width:1;"/><text fill="#000000" font-family="sans-serif" font-size="13" lengthAdjust="spacing" textLength="76.9082" x="2505.5" y="241.5669">implements</text></g><!--link Feature_User to logic_arc_int__baselibs__intrusive_list--><g id="link_Feature_User_logic_arc_int__baselibs__intrusive_list"><path codeLine="35" d="M2984.26,46.52 C2784.25,55.63 1959.33,95.3 1284.5,158.5 C1278.79,159.03 1278.95,159.001 1273.07,159.591 " fill="transparent" id="Feature_User-to-logic_arc_int__baselibs__intrusive_list" style="stroke:#181818;stroke-width:1;"/><polygon fill="#181818" points="1267.1,160.19,1276.4544,163.2715,1272.075,159.6908,1275.6557,155.3114,1267.1,160.19" style="stroke:#181818;stroke-width:1;"/><text fill="#000000" font-family="sans-serif" font-size="13" lengthAdjust="spacing" textLength="23.0103" x="1861.5" y="124.5669">use</text></g><!--link Feature_User to logic_arc_int__baselibs__filesystem--><g id="link_Feature_User_logic_arc_int__baselibs__filesystem"><path codeLine="36" d="M2984.29,45.63 C2785.25,50.75 1967.22,73.13 1296.5,111.5 C1020.61,127.29 951.5,131.24 676.5,158.5 C670.97,159.05 671.2958,158.9904 665.6058,159.6004 " fill="transparent" id="Feature_User-to-logic_arc_int__baselibs__filesystem" style="stroke:#181818;stroke-width:1;"/><polygon fill="#181818" points="659.64,160.24,669.0151,163.2579,664.6115,159.707,668.1623,155.3034,659.64,160.24" style="stroke:#181818;stroke-width:1;"/><text fill="#000000" font-family="sans-serif" font-size="13" lengthAdjust="spacing" textLength="23.0103" x="1297.5" y="124.5669">use</text></g><!--reverse link logic_arc_int__baselibs__future to comp_arc_sta__baselibs__concurrency--><g id="link_logic_arc_int__baselibs__future_comp_arc_sta__baselibs__concurrency"><path codeLine="37" d="M1899.2321,197.0868 C1905.0521,197.8268 1904.86,197.8 1910.5,198.5 C2094.27,221.31 2140.31,226.38 2324.5,245.5 C2449.32,258.45 2591.11,271.69 2695.23,281.14 " fill="transparent" id="logic_arc_int__baselibs__future-backto-comp_arc_sta__baselibs__concurrency" style="stroke:#181818;stroke-width:1;"/><polygon fill="#181818" points="1893.28,196.33,1901.7036,201.4332,1898.2401,196.9607,1902.7127,193.4971,1893.28,196.33" style="stroke:#181818;stroke-width:1;"/><text fill="#000000" font-family="sans-serif" font-size="13" lengthAdjust="spacing" textLength="76.9082" x="2325.5" y="241.5669">implements</text></g><!--link Feature_User to logic_arc_int__baselibs__json--><g id="link_Feature_User_logic_arc_int__baselibs__json"><path codeLine="38" d="M3074.64,45.3 C3303.45,49.47 4358.1,70.14 5220.5,111.5 C5540.37,126.84 5620.96,125.55 5939.5,158.5 C5945.23,159.09 5945.1205,159.0542 5951.0305,159.7442 " fill="transparent" id="Feature_User-to-logic_arc_int__baselibs__json" style="stroke:#181818;stroke-width:1;"/><polygon fill="#181818" points="5956.99,160.44,5948.5146,155.4233,5952.0237,159.8602,5947.5869,163.3693,5956.99,160.44" style="stroke:#181818;stroke-width:1;"/><text fill="#000000" font-family="sans-serif" font-size="13" lengthAdjust="spacing" textLength="23.0103" x="5581.5" y="124.5669">use</text></g><!--reverse link logic_arc_int__baselibs__shared_future to comp_arc_sta__baselibs__concurrency--><g id="link_logic_arc_int__baselibs__shared_future_comp_arc_sta__baselibs__concurrency"><path codeLine="39" d="M3259.311,199.8874 C3166.201,221.1774 3022.18,254.11 2929,275.41 " fill="transparent" id="logic_arc_int__baselibs__shared_future-backto-comp_arc_sta__baselibs__concurrency" style="stroke:#181818;stroke-width:1;"/><polygon fill="#181818" points="3265.16,198.55,3255.4948,196.6568,3260.2858,199.6645,3257.278,204.4555,3265.16,198.55" style="stroke:#181818;stroke-width:1;"/><text fill="#000000" font-family="sans-serif" font-size="13" lengthAdjust="spacing" textLength="76.9082" x="3128.5" y="241.5669">implements</text></g><!--link Feature_User to logic_arc_int__baselibs__bit_mask_operator--><g id="link_Feature_User_logic_arc_int__baselibs__bit_mask_operator"><path codeLine="40" d="M3074.52,48.89 C3228.82,63.97 3750.58,115.05 4181.5,158.5 C4187.12,159.07 4186.8711,159.0297 4192.6411,159.6197 " fill="transparent" id="Feature_User-to-logic_arc_int__baselibs__bit_mask_operator" style="stroke:#181818;stroke-width:1;"/><polygon fill="#181818" points="4198.61,160.23,4190.0636,155.3352,4193.6359,159.7214,4189.2498,163.2937,4198.61,160.23" style="stroke:#181818;stroke-width:1;"/><text fill="#000000" font-family="sans-serif" font-size="13" lengthAdjust="spacing" textLength="23.0103" x="3866.5" y="124.5669">use</text></g><!--reverse link logic_arc_int__baselibs__synchronized_queue to comp_arc_sta__baselibs__concurrency--><g id="link_logic_arc_int__baselibs__synchronized_queue_comp_arc_sta__baselibs__concurrency"><path codeLine="41" d="M2495.2836,200.1803 C2574.3736,221.4803 2695.68,254.15 2774.7,275.43 " fill="transparent" id="logic_arc_int__baselibs__synchronized_queue-backto-comp_arc_sta__baselibs__concurrency" style="stroke:#181818;stroke-width:1;"/><polygon fill="#181818" points="2489.49,198.62,2497.1402,204.8228,2494.318,199.9202,2499.2206,197.098,2489.49,198.62" style="stroke:#181818;stroke-width:1;"/><text fill="#000000" font-family="sans-serif" font-size="13" lengthAdjust="spacing" textLength="76.9082" x="2659.5" y="241.5669">implements</text></g><!--link Feature_User to logic_arc_int__baselibs__promise--><g id="link_Feature_User_logic_arc_int__baselibs__promise"><path codeLine="42" d="M3074.59,50.47 C3219.3,69.64 3669.802,129.322 3896.772,159.392 " fill="transparent" id="Feature_User-to-logic_arc_int__baselibs__promise" style="stroke:#181818;stroke-width:1;"/><polygon fill="#181818" points="3902.72,160.18,3894.3233,155.0326,3897.7633,159.5233,3893.2726,162.9633,3902.72,160.18" style="stroke:#181818;stroke-width:1;"/><text fill="#000000" font-family="sans-serif" font-size="13" lengthAdjust="spacing" textLength="23.0103" x="3652.5" y="124.5669">use</text></g><!--link Feature_User to logic_arc_int__baselibs__synchronized_queue--><g id="link_Feature_User_logic_arc_int__baselibs__synchronized_queue"><path codeLine="43" d="M2984.07,54.39 C2882.92,76.41 2643.5327,128.5139 2511.6827,157.2139 " fill="transparent" id="Feature_User-to-logic_arc_int__baselibs__synchronized_queue" style="stroke:#181818;stroke-width:1;"/><polygon fill="#181818" points="2505.82,158.49,2515.4648,160.4843,2510.7056,157.4265,2513.7633,152.6673,2505.82,158.49" style="stroke:#181818;stroke-width:1;"/><text fill="#000000" font-family="sans-serif" font-size="13" lengthAdjust="spacing" textLength="23.0103" x="2707.5" y="124.5669">use</text></g><!--link Feature_User to logic_arc_int__baselibs__result--><g id="link_Feature_User_logic_arc_int__baselibs__result"><path codeLine="44" d="M2984.29,46.32 C2809.94,53.4 2164.57,80.32 1633.5,111.5 C1332.41,129.17 1256.54,127.76 956.5,158.5 C950.64,159.1 950.6202,159.0604 944.5702,159.7604 " fill="transparent" id="Feature_User-to-logic_arc_int__baselibs__result" style="stroke:#181818;stroke-width:1;"/><polygon fill="#181818" points="938.61,160.45,948.0101,163.3891,943.5769,159.8753,947.0906,155.4421,938.61,160.45" style="stroke:#181818;stroke-width:1;"/><text fill="#000000" font-family="sans-serif" font-size="13" lengthAdjust="spacing" textLength="23.0103" x="1634.5" y="124.5669">use</text></g><!--reverse link logic_arc_int__baselibs__result to comp_arc_sta__baselibs__result--><g id="link_logic_arc_int__baselibs__result_comp_arc_sta__baselibs__result"><path codeLine="45" d="M818.4777,204.7317 C820.1377,225.9617 822.33,253.94 823.99,275.19 " fill="transparent" id="logic_arc_int__baselibs__result-backto-comp_arc_sta__baselibs__result" style="stroke:#181818;stroke-width:1;"/><polygon fill="#181818" points="818.01,198.75,814.7238,208.0344,818.3998,203.7348,822.6994,207.4108,818.01,198.75" style="stroke:#181818;stroke-width:1;"/><text fill="#000000" font-family="sans-serif" font-size="13" lengthAdjust="spacing" textLength="76.9082" x="823.5" y="241.5669">implements</text></g><!--reverse link logic_arc_int__baselibs__bit_manipulation to comp_arc_sta__baselibs__bit_manipulation--><g id="link_logic_arc_int__baselibs__bit_manipulation_comp_arc_sta__baselibs__bit_manipulation"><path codeLine="46" d="M4694.6118,201.9296 C4660.5418,223.2196 4611.08,254.14 4577.09,275.38 " fill="transparent" id="logic_arc_int__baselibs__bit_manipulation-backto-comp_arc_sta__baselibs__bit_manipulation" style="stroke:#181818;stroke-width:1;"/><polygon fill="#181818" points="4699.7,198.75,4689.9479,200.1272,4695.4598,201.3997,4694.1874,206.9115,4699.7,198.75" style="stroke:#181818;stroke-width:1;"/><text fill="#000000" font-family="sans-serif" font-size="13" lengthAdjust="spacing" textLength="76.9082" x="4651.5" y="241.5669">implements</text></g><!--link Feature_User to logic_arc_int__baselibs__message_passing--><g id="link_Feature_User_logic_arc_int__baselibs__message_passing"><path codeLine="47" d="M2984.49,45.26 C2765.08,49.1 1785.68,67.98 984.5,111.5 C709,126.47 640.31,133.96 365.5,158.5 C358.75,159.1 357.834,159.1821 350.874,159.8321 " fill="transparent" id="Feature_User-to-logic_arc_int__baselibs__message_passing" style="stroke:#181818;stroke-width:1;"/><polygon fill="#181818" points="344.9,160.39,354.233,163.5358,349.8783,159.9251,353.4891,155.5705,344.9,160.39" style="stroke:#181818;stroke-width:1;"/><text fill="#000000" font-family="sans-serif" font-size="13" lengthAdjust="spacing" textLength="23.0103" x="985.5" y="124.5669">use</text></g><!--reverse link logic_arc_int__baselibs__intrusive_list to comp_arc_sta__baselibs__containers--><g id="link_logic_arc_int__baselibs__intrusive_list_comp_arc_sta__baselibs__containers"><path codeLine="48" d="M1148.7496,202.5422 C1174.7796,223.7722 1211.76,253.94 1237.82,275.19 " fill="transparent" id="logic_arc_int__baselibs__intrusive_list-backto-comp_arc_sta__baselibs__containers" style="stroke:#181818;stroke-width:1;"/><polygon fill="#181818" points="1144.1,198.75,1148.5463,207.5381,1147.9747,201.9102,1153.6026,201.3386,1144.1,198.75" style="stroke:#181818;stroke-width:1;"/><text fill="#000000" font-family="sans-serif" font-size="13" lengthAdjust="spacing" textLength="76.9082" x="1200.5" y="241.5669">implements</text></g><!--link Feature_User to logic_arc_int__baselibs__utils_scoped_op--><g id="link_Feature_User_logic_arc_int__baselibs__utils_scoped_op"><path codeLine="49" d="M3074.62,45.63 C3281.53,50.93 4160.34,74.57 4880.5,111.5 C5195.45,127.65 5274.33,131.13 5588.5,158.5 C5594.47,159.02 5594.5766,159.0057 5600.7166,159.5857 " fill="transparent" id="Feature_User-to-logic_arc_int__baselibs__utils_scoped_op" style="stroke:#181818;stroke-width:1;"/><polygon fill="#181818" points="5606.69,160.15,5598.1061,155.3213,5601.7122,159.6798,5597.3537,163.2859,5606.69,160.15" style="stroke:#181818;stroke-width:1;"/><text fill="#000000" font-family="sans-serif" font-size="13" lengthAdjust="spacing" textLength="23.0103" x="5188.5" y="124.5669">use</text></g><!--link Feature_User to logic_arc_int__baselibs__utils_base64--><g id="link_Feature_User_logic_arc_int__baselibs__utils_base64"><path codeLine="50" d="M3074.64,46.19 C3256.85,53.09 3955.85,80.2 4530.5,111.5 C4855.58,129.2 4937.25,129.31 5261.5,158.5 C5267.35,159.03 5267.3486,159.0048 5273.3686,159.5948 " fill="transparent" id="Feature_User-to-logic_arc_int__baselibs__utils_base64" style="stroke:#181818;stroke-width:1;"/><polygon fill="#181818" points="5279.34,160.18,5270.7731,155.3212,5274.3638,159.6923,5269.9928,163.2831,5279.34,160.18" style="stroke:#181818;stroke-width:1;"/><text fill="#000000" font-family="sans-serif" font-size="13" lengthAdjust="spacing" textLength="23.0103" x="4848.5" y="124.5669">use</text></g><!--reverse link logic_arc_int__baselibs__filesystem to comp_arc_sta__baselibs__filesystem--><g id="link_logic_arc_int__baselibs__filesystem_comp_arc_sta__baselibs__filesystem"><path codeLine="51" d="M521.5,204.75 C521.5,225.98 521.5,253.94 521.5,275.19 " fill="transparent" id="logic_arc_int__baselibs__filesystem-backto-comp_arc_sta__baselibs__filesystem" style="stroke:#181818;stroke-width:1;"/><polygon fill="#181818" points="521.5,198.75,517.5,207.75,521.5,203.75,525.5,207.75,521.5,198.75" style="stroke:#181818;stroke-width:1;"/><text fill="#000000" font-family="sans-serif" font-size="13" lengthAdjust="spacing" textLength="76.9082" x="522.5" y="241.5669">implements</text></g><!--reverse link logic_arc_int__baselibs__message_passing to comp_arc_sta__baselibs__message_passing--><g id="link_logic_arc_int__baselibs__message_passing_comp_arc_sta__baselibs__message_passing"><path codeLine="52" d="M179.4002,204.7444 C178.4802,225.9744 177.26,253.94 176.34,275.19 " fill="transparent" id="logic_arc_int__baselibs__message_passing-backto-comp_arc_sta__baselibs__message_passing" style="stroke:#181818;stroke-width:1;"/><polygon fill="#181818" points="179.66,198.75,175.2741,207.5684,179.4435,203.7453,183.2666,207.9147,179.66,198.75" style="stroke:#181818;stroke-width:1;"/><text fill="#000000" font-family="sans-serif" font-size="13" lengthAdjust="spacing" textLength="76.9082" x="179.5" y="241.5669">implements</text></g><!--SRC=[jPPDRzGm48Rl_XLMxriGGXoggXSaJXpXR3dET7UeFu9dN1eG_nqdMzfDkbrlJBZ5oSH-vlMyOsjhmm_by07zLd3e90VP1ERWP8iH36FmOeSjI6A84BZlO3y6rt4lDNF49Z6Gk2RkBTo8Iqre6_bBV4OF7uCDKKPenz6N7Pex3qJotULRyLjSltdyHsZ3EUxY4sXE4UHNWdWXDSd75sfu8OKmmNLAHwE8jLAD9h3OK7v2Lavxx9BL0xBSfCsDj66BPWn7po_3wKw53gBEArz9T9q51vv9YicYc_RKJ0vSYBsYdSuvNib485-5J8oM2cHZZ2AJmTfCD-LwRU9lLCnu2AbE4Xx0f56bCRy5Vt8MkQ2A2PvrherOagRjlNRZfwZxwbnkqn1PPZ8fHl2cBq1rCJWagCR9AxKuLAowrn5rOzT3EpPr9ULC-fE04qSK46VkgQIRctyr1P_h_XmNdZ_ltXMLsUx5cjRnGaUg29GihzQkXl67z_z3fIVIIh7oC2R2Ur0MYPUhTOiMgCz7drkjgFvkN6L6-qQ-4ikiblx9VvFJT2s-tfjT31v_Pihl2L8zv5EZNbe2nnYMpd6Mt_P11KME-M7LIz5X6ws-4n7fBQXE4-LhvLhd_zpBbNGlRbXBDtFQyqxczjm-IatXeC-SixKpYOl7x6n33fVu0m00]--></g></svg>