<svg xmlns="http://www.w3.org/2000/svg" xmlns:xlink="http://www.w3.org/1999/xlink" contentStyleType="text/css" data-diagram-type="CLASS" height="322px" preserveAspectRatio="none" style="width:6196px;height:322px;background:#FFFFFF;" version="1.1" viewBox="0 0 6196 322" width="6196px" zoomAndPan="magnify"><defs/><g><!--entity Feature_User--><g id="elem_Feature_User"><ellipse cx="2991.1685" cy="14" fill="#F1F1F1" rx="8" ry="8" style="stroke:#181818;stroke-width:0.5;"/><path d="M2991.1685,22 L2991.1685,49 M2978.1685,30 L3004.1685,30 M2991.1685,49 L2978.1685,64 M2991.1685,49 L3004.1685,64 " fill="transparent" style="stroke:#181818;stroke-width:0.5;"/><text fill="#000000" font-family="sans-serif" font-size="14" lengthAdjust="spacing" textLength="90.3369" x="2946" y="78.4951">Feature User</text></g><!--class comp_arc_sta__baselibs__concurrency--><g id="elem_comp_arc_sta__baselibs__concurrency"><rect fill="#F1F1F1" height="40" id="comp_arc_sta__baselibs__concurrency" rx="2.5" ry="2.5" style="stroke:#181818;stroke-width:0.5;" width="300.2012" x="1701" y="275.5"/><ellipse cx="1716" cy="291.5" fill="#ADD1B2" rx="11" ry="11" style="stroke:#181818;stroke-width:1;"/><path d="M1718.9688,297.1406 Q1718.3906,297.4375 1717.75,297.5781 Q1717.1094,297.7344 1716.4063,297.7344 Q1713.9063,297.7344 1712.5781,296.0938 Q1711.2656,294.4375 1711.2656,291.3125 Q1711.2656,288.1875 1712.5781,286.5313 Q1713.9063,284.875 1716.4063,284.875 Q1717.1094,284.875 1717.75,285.0313 Q1718.4063,285.1875 1718.9688,285.4844 L1718.9688,288.2031 Q1718.3438,287.625 1717.75,287.3594 Q1717.1563,287.0781 1716.5313,287.0781 Q1715.1875,287.0781 1714.5,288.1563 Q1713.8125,289.2188 1713.8125,291.3125 Q1713.8125,293.4063 1714.5,294.4844 Q1715.1875,295.5469 1716.5313,295.5469 Q1717.1563,295.5469 1717.75,295.2813 Q1718.3438,295 1718.9688,294.4219 L1718.9688,297.1406 Z " fill="#000000"/><text fill="#000000" font-family="sans-serif" font-size="14" lengthAdjust="spacing" textLength="268.2012" x="1730" y="296.3467">comp_arc_sta__baselibs__concurrency</text><line style="stroke:#181818;stroke-width:0.5;" x1="1702" x2="2000.2012" y1="307.5" y2="307.5"/></g><!--class logic_arc_int__baselibs__synchronized_queue--><g id="elem_logic_arc_int__baselibs__synchronized_queue"><rect fill="#F1F1F1" height="40" id="logic_arc_int__baselibs__synchronized_queue" rx="2.5" ry="2.5" style="stroke:#181818;stroke-width:0.5;" width="348.3604" x="2145" y="158.5"/><ellipse cx="2160" cy="174.5" fill="#ADD1B2" rx="11" ry="11" style="stroke:#181818;stroke-width:1;"/><path d="M2162.9688,180.1406 Q2162.3906,180.4375 2161.75,180.5781 Q2161.1094,180.7344 2160.4063,180.7344 Q2157.9063,180.7344 2156.5781,179.0938 Q2155.2656,177.4375 2155.2656,174.3125 Q2155.2656,171.1875 2156.5781,169.5313 Q2157.9063,167.875 2160.4063,167.875 Q2161.1094,167.875 2161.75,168.0313 Q2162.4063,168.1875 2162.9688,168.4844 L2162.9688,171.2031 Q2162.3438,170.625 2161.75,170.3594 Q2161.1563,170.0781 2160.5313,170.0781 Q2159.1875,170.0781 2158.5,171.1563 Q2157.8125,172.2188 2157.8125,174.3125 Q2157.8125,176.4063 2158.5,177.4844 Q2159.1875,178.5469 2160.5313,178.5469 Q2161.1563,178.5469 2161.75,178.2813 Q2162.3438,178 2162.9688,177.4219 L2162.9688,180.1406 Z " fill="#000000"/><text fill="#000000" font-family="sans-serif" font-size="14" lengthAdjust="spacing" textLength="316.3604" x="2174" y="179.3467">logic_arc_int__baselibs__synchronized_queue</text><line style="stroke:#181818;stroke-width:0.5;" x1="2146" x2="2492.3604" y1="190.5" y2="190.5"/></g><!--class logic_arc_int__baselibs__task--><g id="elem_logic_arc_int__baselibs__task"><rect fill="#F1F1F1" height="40" id="logic_arc_int__baselibs__task" rx="2.5" ry="2.5" style="stroke:#181818;stroke-width:0.5;" width="234.0156" x="1876" y="158.5"/><ellipse cx="1891" cy="174.5" fill="#ADD1B2" rx="11" ry="11" style="stroke:#181818;stroke-width:1;"/><path d="M1893.9688,180.1406 Q1893.3906,180.4375 1892.75,180.5781 Q1892.1094,180.7344 1891.4063,180.7344 Q1888.9063,180.7344 1887.5781,179.0938 Q1886.2656,177.4375 1886.2656,174.3125 Q1886.2656,171.1875 1887.5781,169.5313 Q1888.9063,167.875 1891.4063,167.875 Q1892.1094,167.875 1892.75,168.0313 Q1893.4063,168.1875 1893.9688,168.4844 L1893.9688,171.2031 Q1893.3438,170.625 1892.75,170.3594 Q1892.1563,170.0781 1891.5313,170.0781 Q1890.1875,170.0781 1889.5,171.1563 Q1888.8125,172.2188 1888.8125,174.3125 Q1888.8125,176.4063 1889.5,177.4844 Q1890.1875,178.5469 1891.5313,178.5469 Q1892.1563,178.5469 1892.75,178.2813 Q1893.3438,178 1893.9688,177.4219 L1893.9688,180.1406 Z " fill="#000000"/><text fill="#000000" font-family="sans-serif" font-size="14" lengthAdjust="spacing" textLength="202.0156" x="1905" y="179.3467">logic_arc_int__baselibs__task</text><line style="stroke:#181818;stroke-width:0.5;" x1="1877" x2="2109.0156" y1="190.5" y2="190.5"/></g><!--class logic_arc_int__baselibs__result--><g id="elem_logic_arc_int__baselibs__result"><rect fill="#F1F1F1" height="40" id="logic_arc_int__baselibs__result" rx="2.5" ry="2.5" style="stroke:#181818;stroke-width:0.5;" width="244.4609" x="4910" y="158.5"/><ellipse cx="4925" cy="174.5" fill="#ADD1B2" rx="11" ry="11" style="stroke:#181818;stroke-width:1;"/><path d="M4927.9688,180.1406 Q4927.3906,180.4375 4926.75,180.5781 Q4926.1094,180.7344 4925.4063,180.7344 Q4922.9063,180.7344 4921.5781,179.0938 Q4920.2656,177.4375 4920.2656,174.3125 Q4920.2656,171.1875 4921.5781,169.5313 Q4922.9063,167.875 4925.4063,167.875 Q4926.1094,167.875 4926.75,168.0313 Q4927.4063,168.1875 4927.9688,168.4844 L4927.9688,171.2031 Q4927.3438,170.625 4926.75,170.3594 Q4926.1563,170.0781 4925.5313,170.0781 Q4924.1875,170.0781 4923.5,171.1563 Q4922.8125,172.2188 4922.8125,174.3125 Q4922.8125,176.4063 4923.5,177.4844 Q4924.1875,178.5469 4925.5313,178.5469 Q4926.1563,178.5469 4926.75,178.2813 Q4927.3438,178 4927.9688,177.4219 L4927.9688,180.1406 Z " fill="#000000"/><text fill="#000000" font-family="sans-serif" font-size="14" lengthAdjust="spacing" textLength="212.4609" x="4939" y="179.3467">logic_arc_int__baselibs__result</text><line style="stroke:#181818;stroke-width:0.5;" x1="4911" x2="5153.4609" y1="190.5" y2="190.5"/></g><!--class comp_arc_sta__baselibs__containers--><g id="elem_comp_arc_sta__baselibs__containers"><rect fill="#F1F1F1" height="40" id="comp_arc_sta__baselibs__containers" rx="2.5" ry="2.5" style="stroke:#181818;stroke-width:0.5;" width="287.1445" x="5723.5" y="275.5"/><ellipse cx="5738.5" cy="291.5" fill="#ADD1B2" rx="11" ry="11" style="stroke:#181818;stroke-width:1;"/><path d="M5741.4688,297.1406 Q5740.8906,297.4375 5740.25,297.5781 Q5739.6094,297.7344 5738.9063,297.7344 Q5736.4063,297.7344 5735.0781,296.0938 Q5733.7656,294.4375 5733.7656,291.3125 Q5733.7656,288.1875 5735.0781,286.5313 Q5736.4063,284.875 5738.9063,284.875 Q5739.6094,284.875 5740.25,285.0313 Q5740.9063,285.1875 5741.4688,285.4844 L5741.4688,288.2031 Q5740.8438,287.625 5740.25,287.3594 Q5739.6563,287.0781 5739.0313,287.0781 Q5737.6875,287.0781 5737,288.1563 Q5736.3125,289.2188 5736.3125,291.3125 Q5736.3125,293.4063 5737,294.4844 Q5737.6875,295.5469 5739.0313,295.5469 Q5739.6563,295.5469 5740.25,295.2813 Q5740.8438,295 5741.4688,294.4219 L5741.4688,297.1406 Z " fill="#000000"/><text fill="#000000" font-family="sans-serif" font-size="14" lengthAdjust="spacing" textLength="255.1445" x="5752.5" y="296.3467">comp_arc_sta__baselibs__containers</text><line style="stroke:#181818;stroke-width:0.5;" x1="5724.5" x2="6009.6445" y1="307.5" y2="307.5"/></g><!--class logic_arc_int__baselibs__intrusive_list--><g id="elem_logic_arc_int__baselibs__intrusive_list"><rect fill="#F1F1F1" height="40" id="logic_arc_int__baselibs__intrusive_list" rx="2.5" ry="2.5" style="stroke:#181818;stroke-width:0.5;" width="293.0713" x="5552.5" y="158.5"/><ellipse cx="5567.5" cy="174.5" fill="#ADD1B2" rx="11" ry="11" style="stroke:#181818;stroke-width:1;"/><path d="M5570.4688,180.1406 Q5569.8906,180.4375 5569.25,180.5781 Q5568.6094,180.7344 5567.9063,180.7344 Q5565.4063,180.7344 5564.0781,179.0938 Q5562.7656,177.4375 5562.7656,174.3125 Q5562.7656,171.1875 5564.0781,169.5313 Q5565.4063,167.875 5567.9063,167.875 Q5568.6094,167.875 5569.25,168.0313 Q5569.9063,168.1875 5570.4688,168.4844 L5570.4688,171.2031 Q5569.8438,170.625 5569.25,170.3594 Q5568.6563,170.0781 5568.0313,170.0781 Q5566.6875,170.0781 5566,171.1563 Q5565.3125,172.2188 5565.3125,174.3125 Q5565.3125,176.4063 5566,177.4844 Q5566.6875,178.5469 5568.0313,178.5469 Q5568.6563,178.5469 5569.25,178.2813 Q5569.8438,178 5570.4688,177.4219 L5570.4688,180.1406 Z " fill="#000000"/><text fill="#000000" font-family="sans-serif" font-size="14" lengthAdjust="spacing" textLength="261.0713" x="5581.5" y="179.3467">logic_arc_int__baselibs__intrusive_list</text><line style="stroke:#181818;stroke-width:0.5;" x1="5553.5" x2="5844.5713" y1="190.5" y2="190.5"/></g><!--class logic_arc_int__baselibs__memory_shared--><g id="elem_logic_arc_int__baselibs__memory_shared"><rect fill="#F1F1F1" height="40" id="logic_arc_int__baselibs__memory_shared" rx="2.5" ry="2.5" style="stroke:#181818;stroke-width:0.5;" width="318.043" x="286" y="158.5"/><ellipse cx="301" cy="174.5" fill="#ADD1B2" rx="11" ry="11" style="stroke:#181818;stroke-width:1;"/><path d="M303.9688,180.1406 Q303.3906,180.4375 302.75,180.5781 Q302.1094,180.7344 301.4063,180.7344 Q298.9063,180.7344 297.5781,179.0938 Q296.2656,177.4375 296.2656,174.3125 Q296.2656,171.1875 297.5781,169.5313 Q298.9063,167.875 301.4063,167.875 Q302.1094,167.875 302.75,168.0313 Q303.4063,168.1875 303.9688,168.4844 L303.9688,171.2031 Q303.3438,170.625 302.75,170.3594 Q302.1563,170.0781 301.5313,170.0781 Q300.1875,170.0781 299.5,171.1563 Q298.8125,172.2188 298.8125,174.3125 Q298.8125,176.4063 299.5,177.4844 Q300.1875,178.5469 301.5313,178.5469 Q302.1563,178.5469 302.75,178.2813 Q303.3438,178 303.9688,177.4219 L303.9688,180.1406 Z " fill="#000000"/><text fill="#000000" font-family="sans-serif" font-size="14" lengthAdjust="spacing" textLength="286.043" x="315" y="179.3467">logic_arc_int__baselibs__memory_shared</text><line style="stroke:#181818;stroke-width:0.5;" x1="287" x2="603.043" y1="190.5" y2="190.5"/></g><!--class comp_arc_sta__baselibs__bit_manipulation--><g id="elem_comp_arc_sta__baselibs__bit_manipulation"><rect fill="#F1F1F1" height="40" id="comp_arc_sta__baselibs__bit_manipulation" rx="2.5" ry="2.5" style="stroke:#181818;stroke-width:0.5;" width="330.8057" x="3686.5" y="275.5"/><ellipse cx="3701.5" cy="291.5" fill="#ADD1B2" rx="11" ry="11" style="stroke:#181818;stroke-width:1;"/><path d="M3704.4688,297.1406 Q3703.8906,297.4375 3703.25,297.5781 Q3702.6094,297.7344 3701.9063,297.7344 Q3699.4063,297.7344 3698.0781,296.0938 Q3696.7656,294.4375 3696.7656,291.3125 Q3696.7656,288.1875 3698.0781,286.5313 Q3699.4063,284.875 3701.9063,284.875 Q3702.6094,284.875 3703.25,285.0313 Q3703.9063,285.1875 3704.4688,285.4844 L3704.4688,288.2031 Q3703.8438,287.625 3703.25,287.3594 Q3702.6563,287.0781 3702.0313,287.0781 Q3700.6875,287.0781 3700,288.1563 Q3699.3125,289.2188 3699.3125,291.3125 Q3699.3125,293.4063 3700,294.4844 Q3700.6875,295.5469 3702.0313,295.5469 Q3702.6563,295.5469 3703.25,295.2813 Q3703.8438,295 3704.4688,294.4219 L3704.4688,297.1406 Z " fill="#000000"/><text fill="#000000" font-family="sans-serif" font-size="14" lengthAdjust="spacing" textLength="298.8057" x="3715.5" y="296.3467">comp_arc_sta__baselibs__bit_manipulation</text><line style="stroke:#181818;stroke-width:0.5;" x1="3687.5" x2="4016.3057" y1="307.5" y2="307.5"/></g><!--class logic_arc_int__baselibs__bit_mask_operator--><g id="elem_logic_arc_int__baselibs__bit_mask_operator"><rect fill="#F1F1F1" height="40" id="logic_arc_int__baselibs__bit_mask_operator" rx="2.5" ry="2.5" style="stroke:#181818;stroke-width:0.5;" width="334.6406" x="3861.5" y="158.5"/><ellipse cx="3876.5" cy="174.5" fill="#ADD1B2" rx="11" ry="11" style="stroke:#181818;stroke-width:1;"/><path d="M3879.4688,180.1406 Q3878.8906,180.4375 3878.25,180.5781 Q3877.6094,180.7344 3876.9063,180.7344 Q3874.4063,180.7344 3873.0781,179.0938 Q3871.7656,177.4375 3871.7656,174.3125 Q3871.7656,171.1875 3873.0781,169.5313 Q3874.4063,167.875 3876.9063,167.875 Q3877.6094,167.875 3878.25,168.0313 Q3878.9063,168.1875 3879.4688,168.4844 L3879.4688,171.2031 Q3878.8438,170.625 3878.25,170.3594 Q3877.6563,170.0781 3877.0313,170.0781 Q3875.6875,170.0781 3875,171.1563 Q3874.3125,172.2188 3874.3125,174.3125 Q3874.3125,176.4063 3875,177.4844 Q3875.6875,178.5469 3877.0313,178.5469 Q3877.6563,178.5469 3878.25,178.2813 Q3878.8438,178 3879.4688,177.4219 L3879.4688,180.1406 Z " fill="#000000"/><text fill="#000000" font-family="sans-serif" font-size="14" lengthAdjust="spacing" textLength="302.6406" x="3890.5" y="179.3467">logic_arc_int__baselibs__bit_mask_operator</text><line style="stroke:#181818;stroke-width:0.5;" x1="3862.5" x2="4195.1406" y1="190.5" y2="190.5"/></g><!--class logic_arc_int__baselibs__json--><g id="elem_logic_arc_int__baselibs__json"><rect fill="#F1F1F1" height="40" id="logic_arc_int__baselibs__json" rx="2.5" ry="2.5" style="stroke:#181818;stroke-width:0.5;" width="233.168" x="15.5" y="158.5"/><ellipse cx="30.5" cy="174.5" fill="#ADD1B2" rx="11" ry="11" style="stroke:#181818;stroke-width:1;"/><path d="M33.4688,180.1406 Q32.8906,180.4375 32.25,180.5781 Q31.6094,180.7344 30.9063,180.7344 Q28.4063,180.7344 27.0781,179.0938 Q25.7656,177.4375 25.7656,174.3125 Q25.7656,171.1875 27.0781,169.5313 Q28.4063,167.875 30.9063,167.875 Q31.6094,167.875 32.25,168.0313 Q32.9063,168.1875 33.4688,168.4844 L33.4688,171.2031 Q32.8438,170.625 32.25,170.3594 Q31.6563,170.0781 31.0313,170.0781 Q29.6875,170.0781 29,171.1563 Q28.3125,172.2188 28.3125,174.3125 Q28.3125,176.4063 29,177.4844 Q29.6875,178.5469 31.0313,178.5469 Q31.6563,178.5469 32.25,178.2813 Q32.8438,178 33.4688,177.4219 L33.4688,180.1406 Z " fill="#000000"/><text fill="#000000" font-family="sans-serif" font-size="14" lengthAdjust="spacing" textLength="201.168" x="44.5" y="179.3467">logic_arc_int__baselibs__json</text><line style="stroke:#181818;stroke-width:0.5;" x1="16.5" x2="247.668" y1="190.5" y2="190.5"/></g><!--class logic_arc_int__baselibs__bit_manipulation--><g id="elem_logic_arc_int__baselibs__bit_manipulation"><rect fill="#F1F1F1" height="40" id="logic_arc_int__baselibs__bit_manipulation" rx="2.5" ry="2.5" style="stroke:#181818;stroke-width:0.5;" width="321.8369" x="3504" y="158.5"/><ellipse cx="3519" cy="174.5" fill="#ADD1B2" rx="11" ry="11" style="stroke:#181818;stroke-width:1;"/><path d="M3521.9688,180.1406 Q3521.3906,180.4375 3520.75,180.5781 Q3520.1094,180.7344 3519.4063,180.7344 Q3516.9063,180.7344 3515.5781,179.0938 Q3514.2656,177.4375 3514.2656,174.3125 Q3514.2656,171.1875 3515.5781,169.5313 Q3516.9063,167.875 3519.4063,167.875 Q3520.1094,167.875 3520.75,168.0313 Q3521.4063,168.1875 3521.9688,168.4844 L3521.9688,171.2031 Q3521.3438,170.625 3520.75,170.3594 Q3520.1563,170.0781 3519.5313,170.0781 Q3518.1875,170.0781 3517.5,171.1563 Q3516.8125,172.2188 3516.8125,174.3125 Q3516.8125,176.4063 3517.5,177.4844 Q3518.1875,178.5469 3519.5313,178.5469 Q3520.1563,178.5469 3520.75,178.2813 Q3521.3438,178 3521.9688,177.4219 L3521.9688,180.1406 Z " fill="#000000"/><text fill="#000000" font-family="sans-serif" font-size="14" lengthAdjust="spacing" textLength="289.8369" x="3533" y="179.3467">logic_arc_int__baselibs__bit_manipulation</text><line style="stroke:#181818;stroke-width:0.5;" x1="3505" x2="3824.8369" y1="190.5" y2="190.5"/></g><!--class comp_arc_sta__baselibs__utils--><g id="elem_comp_arc_sta__baselibs__utils"><rect fill="#F1F1F1" height="40" id="comp_arc_sta__baselibs__utils" rx="2.5" ry="2.5" style="stroke:#181818;stroke-width:0.5;" width="242.9502" x="4371.5" y="275.5"/><ellipse cx="4386.5" cy="291.5" fill="#ADD1B2" rx="11" ry="11" style="stroke:#181818;stroke-width:1;"/><path d="M4389.4688,297.1406 Q4388.8906,297.4375 4388.25,297.5781 Q4387.6094,297.7344 4386.9063,297.7344 Q4384.4063,297.7344 4383.0781,296.0938 Q4381.7656,294.4375 4381.7656,291.3125 Q4381.7656,288.1875 4383.0781,286.5313 Q4384.4063,284.875 4386.9063,284.875 Q4387.6094,284.875 4388.25,285.0313 Q4388.9063,285.1875 4389.4688,285.4844 L4389.4688,288.2031 Q4388.8438,287.625 4388.25,287.3594 Q4387.6563,287.0781 4387.0313,287.0781 Q4385.6875,287.0781 4385,288.1563 Q4384.3125,289.2188 4384.3125,291.3125 Q4384.3125,293.4063 4385,294.4844 Q4385.6875,295.5469 4387.0313,295.5469 Q4387.6563,295.5469 4388.25,295.2813 Q4388.8438,295 4389.4688,294.4219 L4389.4688,297.1406 Z " fill="#000000"/><text fill="#000000" font-family="sans-serif" font-size="14" lengthAdjust="spacing" textLength="210.9502" x="4400.5" y="296.3467">comp_arc_sta__baselibs__utils</text><line style="stroke:#181818;stroke-width:0.5;" x1="4372.5" x2="4613.4502" y1="307.5" y2="307.5"/></g><!--class logic_arc_int__baselibs__utils_scoped_op--><g id="elem_logic_arc_int__baselibs__utils_scoped_op"><rect fill="#F1F1F1" height="40" id="logic_arc_int__baselibs__utils_scoped_op" rx="2.5" ry="2.5" style="stroke:#181818;stroke-width:0.5;" width="315.377" x="4559.5" y="158.5"/><ellipse cx="4574.5" cy="174.5" fill="#ADD1B2" rx="11" ry="11" style="stroke:#181818;stroke-width:1;"/><path d="M4577.4688,180.1406 Q4576.8906,180.4375 4576.25,180.5781 Q4575.6094,180.7344 4574.9063,180.7344 Q4572.4063,180.7344 4571.0781,179.0938 Q4569.7656,177.4375 4569.7656,174.3125 Q4569.7656,171.1875 4571.0781,169.5313 Q4572.4063,167.875 4574.9063,167.875 Q4575.6094,167.875 4576.25,168.0313 Q4576.9063,168.1875 4577.4688,168.4844 L4577.4688,171.2031 Q4576.8438,170.625 4576.25,170.3594 Q4575.6563,170.0781 4575.0313,170.0781 Q4573.6875,170.0781 4573,171.1563 Q4572.3125,172.2188 4572.3125,174.3125 Q4572.3125,176.4063 4573,177.4844 Q4573.6875,178.5469 4575.0313,178.5469 Q4575.6563,178.5469 4576.25,178.2813 Q4576.8438,178 4577.4688,177.4219 L4577.4688,180.1406 Z " fill="#000000"/><text fill="#000000" font-family="sans-serif" font-size="14" lengthAdjust="spacing" textLength="283.377" x="4588.5" y="179.3467">logic_arc_int__baselibs__utils_scoped_op</text><line style="stroke:#181818;stroke-width:0.5;" x1="4560.5" x2="4873.877" y1="190.5" y2="190.5"/></g><!--class logic_arc_int__baselibs__task_result--><g id="elem_logic_arc_int__baselibs__task_result"><rect fill="#F1F1F1" height="40" id="logic_arc_int__baselibs__task_result" rx="2.5" ry="2.5" style="stroke:#181818;stroke-width:0.5;" width="280.9307" x="976.5" y="158.5"/><ellipse cx="991.5" cy="174.5" fill="#ADD1B2" rx="11" ry="11" style="stroke:#181818;stroke-width:1;"/><path d="M994.4688,180.1406 Q993.8906,180.4375 993.25,180.5781 Q992.6094,180.7344 991.9063,180.7344 Q989.4063,180.7344 988.0781,179.0938 Q986.7656,177.4375 986.7656,174.3125 Q986.7656,171.1875 988.0781,169.5313 Q989.4063,167.875 991.9063,167.875 Q992.6094,167.875 993.25,168.0313 Q993.9063,168.1875 994.4688,168.4844 L994.4688,171.2031 Q993.8438,170.625 993.25,170.3594 Q992.6563,170.0781 992.0313,170.0781 Q990.6875,170.0781 990,171.1563 Q989.3125,172.2188 989.3125,174.3125 Q989.3125,176.4063 990,177.4844 Q990.6875,178.5469 992.0313,178.5469 Q992.6563,178.5469 993.25,178.2813 Q993.8438,178 994.4688,177.4219 L994.4688,180.1406 Z " fill="#000000"/><text fill="#000000" font-family="sans-serif" font-size="14" lengthAdjust="spacing" textLength="248.9307" x="1005.5" y="179.3467">logic_arc_int__baselibs__task_result</text><line style="stroke:#181818;stroke-width:0.5;" x1="977.5" x2="1256.4307" y1="190.5" y2="190.5"/></g><!--class logic_arc_int__baselibs__condition_variable--><g id="elem_logic_arc_int__baselibs__condition_variable"><rect fill="#F1F1F1" height="40" id="logic_arc_int__baselibs__condition_variable" rx="2.5" ry="2.5" style="stroke:#181818;stroke-width:0.5;" width="332.7539" x="2824.5" y="158.5"/><ellipse cx="2839.5" cy="174.5" fill="#ADD1B2" rx="11" ry="11" style="stroke:#181818;stroke-width:1;"/><path d="M2842.4688,180.1406 Q2841.8906,180.4375 2841.25,180.5781 Q2840.6094,180.7344 2839.9063,180.7344 Q2837.4063,180.7344 2836.0781,179.0938 Q2834.7656,177.4375 2834.7656,174.3125 Q2834.7656,171.1875 2836.0781,169.5313 Q2837.4063,167.875 2839.9063,167.875 Q2840.6094,167.875 2841.25,168.0313 Q2841.9063,168.1875 2842.4688,168.4844 L2842.4688,171.2031 Q2841.8438,170.625 2841.25,170.3594 Q2840.6563,170.0781 2840.0313,170.0781 Q2838.6875,170.0781 2838,171.1563 Q2837.3125,172.2188 2837.3125,174.3125 Q2837.3125,176.4063 2838,177.4844 Q2838.6875,178.5469 2840.0313,178.5469 Q2840.6563,178.5469 2841.25,178.2813 Q2841.8438,178 2842.4688,177.4219 L2842.4688,180.1406 Z " fill="#000000"/><text fill="#000000" font-family="sans-serif" font-size="14" lengthAdjust="spacing" textLength="300.7539" x="2853.5" y="179.3467">logic_arc_int__baselibs__condition_variable</text><line style="stroke:#181818;stroke-width:0.5;" x1="2825.5" x2="3156.2539" y1="190.5" y2="190.5"/></g><!--class logic_arc_int__baselibs__shared_future--><g id="elem_logic_arc_int__baselibs__shared_future"><rect fill="#F1F1F1" height="40" id="logic_arc_int__baselibs__shared_future" rx="2.5" ry="2.5" style="stroke:#181818;stroke-width:0.5;" width="302.0811" x="639" y="158.5"/><ellipse cx="654" cy="174.5" fill="#ADD1B2" rx="11" ry="11" style="stroke:#181818;stroke-width:1;"/><path d="M656.9688,180.1406 Q656.3906,180.4375 655.75,180.5781 Q655.1094,180.7344 654.4063,180.7344 Q651.9063,180.7344 650.5781,179.0938 Q649.2656,177.4375 649.2656,174.3125 Q649.2656,171.1875 650.5781,169.5313 Q651.9063,167.875 654.4063,167.875 Q655.1094,167.875 655.75,168.0313 Q656.4063,168.1875 656.9688,168.4844 L656.9688,171.2031 Q656.3438,170.625 655.75,170.3594 Q655.1563,170.0781 654.5313,170.0781 Q653.1875,170.0781 652.5,171.1563 Q651.8125,172.2188 651.8125,174.3125 Q651.8125,176.4063 652.5,177.4844 Q653.1875,178.5469 654.5313,178.5469 Q655.1563,178.5469 655.75,178.2813 Q656.3438,178 656.9688,177.4219 L656.9688,180.1406 Z " fill="#000000"/><text fill="#000000" font-family="sans-serif" font-size="14" lengthAdjust="spacing" textLength="270.0811" x="668" y="179.3467">logic_arc_int__baselibs__shared_future</text><line style="stroke:#181818;stroke-width:0.5;" x1="640" x2="940.0811" y1="190.5" y2="190.5"/></g><!--class comp_arc_sta__baselibs__message_passing--><g id="elem_comp_arc_sta__baselibs__message_passing"><rect fill="#F1F1F1" height="40" id="comp_arc_sta__baselibs__message_passing" rx="2.5" ry="2.5" style="stroke:#181818;stroke-width:0.5;" width="337.1357" x="5188.5" y="275.5"/><ellipse cx="5203.5" cy="291.5" fill="#ADD1B2" rx="11" ry="11" style="stroke:#181818;stroke-width:1;"/><path d="M5206.4688,297.1406 Q5205.8906,297.4375 5205.25,297.5781 Q5204.6094,297.7344 5203.9063,297.7344 Q5201.4063,297.7344 5200.0781,296.0938 Q5198.7656,294.4375 5198.7656,291.3125 Q5198.7656,288.1875 5200.0781,286.5313 Q5201.4063,284.875 5203.9063,284.875 Q5204.6094,284.875 5205.25,285.0313 Q5205.9063,285.1875 5206.4688,285.4844 L5206.4688,288.2031 Q5205.8438,287.625 5205.25,287.3594 Q5204.6563,287.0781 5204.0313,287.0781 Q5202.6875,287.0781 5202,288.1563 Q5201.3125,289.2188 5201.3125,291.3125 Q5201.3125,293.4063 5202,294.4844 Q5202.6875,295.5469 5204.0313,295.5469 Q5204.6563,295.5469 5205.25,295.2813 Q5205.8438,295 5206.4688,294.4219 L5206.4688,297.1406 Z " fill="#000000"/><text fill="#000000" font-family="sans-serif" font-size="14" lengthAdjust="spacing" textLength="305.1357" x="5217.5" y="296.3467">comp_arc_sta__baselibs__message_passing</text><line style="stroke:#181818;stroke-width:0.5;" x1="5189.5" x2="5524.6357" y1="307.5" y2="307.5"/></g><!--class logic_arc_int__baselibs__message_passing--><g id="elem_logic_arc_int__baselibs__message_passing"><rect fill="#F1F1F1" height="40" id="logic_arc_int__baselibs__message_passing" rx="2.5" ry="2.5" style="stroke:#181818;stroke-width:0.5;" width="328.167" x="5189" y="158.5"/><ellipse cx="5204" cy="174.5" fill="#ADD1B2" rx="11" ry="11" style="stroke:#181818;stroke-width:1;"/><path d="M5206.9688,180.1406 Q5206.3906,180.4375 5205.75,180.5781 Q5205.1094,180.7344 5204.4063,180.7344 Q5201.9063,180.7344 5200.5781,179.0938 Q5199.2656,177.4375 5199.2656,174.3125 Q5199.2656,171.1875 5200.5781,169.5313 Q5201.9063,167.875 5204.4063,167.875 Q5205.1094,167.875 5205.75,168.0313 Q5206.4063,168.1875 5206.9688,168.4844 L5206.9688,171.2031 Q5206.3438,170.625 5205.75,170.3594 Q5205.1563,170.0781 5204.5313,170.0781 Q5203.1875,170.0781 5202.5,171.1563 Q5201.8125,172.2188 5201.8125,174.3125 Q5201.8125,176.4063 5202.5,177.4844 Q5203.1875,178.5469 5204.5313,178.5469 Q5205.1563,178.5469 5205.75,178.2813 Q5206.3438,178 5206.9688,177.4219 L5206.9688,180.1406 Z " fill="#000000"/><text fill="#000000" font-family="sans-serif" font-size="14" lengthAdjust="spacing" textLength="296.167" x="5218" y="179.3467">logic_arc_int__baselibs__message_passing</text><line style="stroke:#181818;stroke-width:0.5;" x1="5190" x2="5516.167" y1="190.5" y2="190.5"/></g><!--class comp_arc_sta__baselibs__result--><g id="elem_comp_arc_sta__baselibs__result"><rect fill="#F1F1F1" height="40" id="comp_arc_sta__baselibs__result" rx="2.5" ry="2.5" style="stroke:#181818;stroke-width:0.5;" width="253.4297" x="4900.5" y="275.5"/><ellipse cx="4915.5" cy="291.5" fill="#ADD1B2" rx="11" ry="11" style="stroke:#181818;stroke-width:1;"/><path d="M4918.4688,297.1406 Q4917.8906,297.4375 4917.25,297.5781 Q4916.6094,297.7344 4915.9063,297.7344 Q4913.4063,297.7344 4912.0781,296.0938 Q4910.7656,294.4375 4910.7656,291.3125 Q4910.7656,288.1875 4912.0781,286.5313 Q4913.4063,284.875 4915.9063,284.875 Q4916.6094,284.875 4917.25,285.0313 Q4917.9063,285.1875 4918.4688,285.4844 L4918.4688,288.2031 Q4917.8438,287.625 4917.25,287.3594 Q4916.6563,287.0781 4916.0313,287.0781 Q4914.6875,287.0781 4914,288.1563 Q4913.3125,289.2188 4913.3125,291.3125 Q4913.3125,293.4063 4914,294.4844 Q4914.6875,295.5469 4916.0313,295.5469 Q4916.6563,295.5469 4917.25,295.2813 Q4917.8438,295 4918.4688,294.4219 L4918.4688,297.1406 Z " fill="#000000"/><text fill="#000000" font-family="sans-serif" font-size="14" lengthAdjust="spacing" textLength="221.4297" x="4929.5" y="296.3467">comp_arc_sta__baselibs__result</text><line style="stroke:#181818;stroke-width:0.5;" x1="4901.5" x2="5152.9297" y1="307.5" y2="307.5"/></g><!--class logic_arc_int__baselibs__dynamic_array--><g id="elem_logic_arc_int__baselibs__dynamic_array"><rect fill="#F1F1F1" height="40" id="logic_arc_int__baselibs__dynamic_array" rx="2.5" ry="2.5" style="stroke:#181818;stroke-width:0.5;" width="308.3496" x="5881" y="158.5"/><ellipse cx="5896" cy="174.5" fill="#ADD1B2" rx="11" ry="11" style="stroke:#181818;stroke-width:1;"/><path d="M5898.9688,180.1406 Q5898.3906,180.4375 5897.75,180.5781 Q5897.1094,180.7344 5896.4063,180.7344 Q5893.9063,180.7344 5892.5781,179.0938 Q5891.2656,177.4375 5891.2656,174.3125 Q5891.2656,171.1875 5892.5781,169.5313 Q5893.9063,167.875 5896.4063,167.875 Q5897.1094,167.875 5897.75,168.0313 Q5898.4063,168.1875 5898.9688,168.4844 L5898.9688,171.2031 Q5898.3438,170.625 5897.75,170.3594 Q5897.1563,170.0781 5896.5313,170.0781 Q5895.1875,170.0781 5894.5,171.1563 Q5893.8125,172.2188 5893.8125,174.3125 Q5893.8125,176.4063 5894.5,177.4844 Q5895.1875,178.5469 5896.5313,178.5469 Q5897.1563,178.5469 5897.75,178.2813 Q5898.3438,178 5898.9688,177.4219 L5898.9688,180.1406 Z " fill="#000000"/><text fill="#000000" font-family="sans-serif" font-size="14" lengthAdjust="spacing" textLength="276.3496" x="5910" y="179.3467">logic_arc_int__baselibs__dynamic_array</text><line style="stroke:#181818;stroke-width:0.5;" x1="5882" x2="6188.3496" y1="190.5" y2="190.5"/></g><!--class logic_arc_int__baselibs__utils_base64--><g id="elem_logic_arc_int__baselibs__utils_base64"><rect fill="#F1F1F1" height="40" id="logic_arc_int__baselibs__utils_base64" rx="2.5" ry="2.5" style="stroke:#181818;stroke-width:0.5;" width="292.1689" x="4232" y="158.5"/><ellipse cx="4247" cy="174.5" fill="#ADD1B2" rx="11" ry="11" style="stroke:#181818;stroke-width:1;"/><path d="M4249.9688,180.1406 Q4249.3906,180.4375 4248.75,180.5781 Q4248.1094,180.7344 4247.4063,180.7344 Q4244.9063,180.7344 4243.5781,179.0938 Q4242.2656,177.4375 4242.2656,174.3125 Q4242.2656,171.1875 4243.5781,169.5313 Q4244.9063,167.875 4247.4063,167.875 Q4248.1094,167.875 4248.75,168.0313 Q4249.4063,168.1875 4249.9688,168.4844 L4249.9688,171.2031 Q4249.3438,170.625 4248.75,170.3594 Q4248.1563,170.0781 4247.5313,170.0781 Q4246.1875,170.0781 4245.5,171.1563 Q4244.8125,172.2188 4244.8125,174.3125 Q4244.8125,176.4063 4245.5,177.4844 Q4246.1875,178.5469 4247.5313,178.5469 Q4248.1563,178.5469 4248.75,178.2813 Q4249.3438,178 4249.9688,177.4219 L4249.9688,180.1406 Z " fill="#000000"/><text fill="#000000" font-family="sans-serif" font-size="14" lengthAdjust="spacing" textLength="260.1689" x="4261" y="179.3467">logic_arc_int__baselibs__utils_base64</text><line style="stroke:#181818;stroke-width:0.5;" x1="4233" x2="4523.1689" y1="190.5" y2="190.5"/></g><!--class logic_arc_int__baselibs__executor--><g id="elem_logic_arc_int__baselibs__executor"><rect fill="#F1F1F1" height="40" id="logic_arc_int__baselibs__executor" rx="2.5" ry="2.5" style="stroke:#181818;stroke-width:0.5;" width="266.4385" x="1575" y="158.5"/><ellipse cx="1590" cy="174.5" fill="#ADD1B2" rx="11" ry="11" style="stroke:#181818;stroke-width:1;"/><path d="M1592.9688,180.1406 Q1592.3906,180.4375 1591.75,180.5781 Q1591.1094,180.7344 1590.4063,180.7344 Q1587.9063,180.7344 1586.5781,179.0938 Q1585.2656,177.4375 1585.2656,174.3125 Q1585.2656,171.1875 1586.5781,169.5313 Q1587.9063,167.875 1590.4063,167.875 Q1591.1094,167.875 1591.75,168.0313 Q1592.4063,168.1875 1592.9688,168.4844 L1592.9688,171.2031 Q1592.3438,170.625 1591.75,170.3594 Q1591.1563,170.0781 1590.5313,170.0781 Q1589.1875,170.0781 1588.5,171.1563 Q1587.8125,172.2188 1587.8125,174.3125 Q1587.8125,176.4063 1588.5,177.4844 Q1589.1875,178.5469 1590.5313,178.5469 Q1591.1563,178.5469 1591.75,178.2813 Q1592.3438,178 1592.9688,177.4219 L1592.9688,180.1406 Z " fill="#000000"/><text fill="#000000" font-family="sans-serif" font-size="14" lengthAdjust="spacing" textLength="234.4385" x="1604" y="179.3467">logic_arc_int__baselibs__executor</text><line style="stroke:#181818;stroke-width:0.5;" x1="1576" x2="1840.4385" y1="190.5" y2="190.5"/></g><!--class comp_arc_sta__baselibs__filesystem--><g id="elem_comp_arc_sta__baselibs__filesystem"><rect fill="#F1F1F1" height="40" id="comp_arc_sta__baselibs__filesystem" rx="2.5" ry="2.5" style="stroke:#181818;stroke-width:0.5;" width="285.4492" x="3188.5" y="275.5"/><ellipse cx="3203.5" cy="291.5" fill="#ADD1B2" rx="11" ry="11" style="stroke:#181818;stroke-width:1;"/><path d="M3206.4688,297.1406 Q3205.8906,297.4375 3205.25,297.5781 Q3204.6094,297.7344 3203.9063,297.7344 Q3201.4063,297.7344 3200.0781,296.0938 Q3198.7656,294.4375 3198.7656,291.3125 Q3198.7656,288.1875 3200.0781,286.5313 Q3201.4063,284.875 3203.9063,284.875 Q3204.6094,284.875 3205.25,285.0313 Q3205.9063,285.1875 3206.4688,285.4844 L3206.4688,288.2031 Q3205.8438,287.625 3205.25,287.3594 Q3204.6563,287.0781 3204.0313,287.0781 Q3202.6875,287.0781 3202,288.1563 Q3201.3125,289.2188 3201.3125,291.3125 Q3201.3125,293.4063 3202,294.4844 Q3202.6875,295.5469 3204.0313,295.5469 Q3204.6563,295.5469 3205.25,295.2813 Q3205.8438,295 3206.4688,294.4219 L3206.4688,297.1406 Z " fill="#000000"/><text fill="#000000" font-family="sans-serif" font-size="14" lengthAdjust="spacing" textLength="253.4492" x="3217.5" y="296.3467">comp_arc_sta__baselibs__filesystem</text><line style="stroke:#181818;stroke-width:0.5;" x1="3189.5" x2="3472.9492" y1="307.5" y2="307.5"/></g><!--class logic_arc_int__baselibs__filesystem--><g id="elem_logic_arc_int__baselibs__filesystem"><rect fill="#F1F1F1" height="40" id="logic_arc_int__baselibs__filesystem" rx="2.5" ry="2.5" style="stroke:#181818;stroke-width:0.5;" width="276.4805" x="3193" y="158.5"/><ellipse cx="3208" cy="174.5" fill="#ADD1B2" rx="11" ry="11" style="stroke:#181818;stroke-width:1;"/><path d="M3210.9688,180.1406 Q3210.3906,180.4375 3209.75,180.5781 Q3209.1094,180.7344 3208.4063,180.7344 Q3205.9063,180.7344 3204.5781,179.0938 Q3203.2656,177.4375 3203.2656,174.3125 Q3203.2656,171.1875 3204.5781,169.5313 Q3205.9063,167.875 3208.4063,167.875 Q3209.1094,167.875 3209.75,168.0313 Q3210.4063,168.1875 3210.9688,168.4844 L3210.9688,171.2031 Q3210.3438,170.625 3209.75,170.3594 Q3209.1563,170.0781 3208.5313,170.0781 Q3207.1875,170.0781 3206.5,171.1563 Q3205.8125,172.2188 3205.8125,174.3125 Q3205.8125,176.4063 3206.5,177.4844 Q3207.1875,178.5469 3208.5313,178.5469 Q3209.1563,178.5469 3209.75,178.2813 Q3210.3438,178 3210.9688,177.4219 L3210.9688,180.1406 Z " fill="#000000"/><text fill="#000000" font-family="sans-serif" font-size="14" lengthAdjust="spacing" textLength="244.4805" x="3222" y="179.3467">logic_arc_int__baselibs__filesystem</text><line style="stroke:#181818;stroke-width:0.5;" x1="3194" x2="3468.4805" y1="190.5" y2="190.5"/></g><!--class logic_arc_int__baselibs__promise--><g id="elem_logic_arc_int__baselibs__promise"><rect fill="#F1F1F1" height="40" id="logic_arc_int__baselibs__promise" rx="2.5" ry="2.5" style="stroke:#181818;stroke-width:0.5;" width="261.1885" x="2528.5" y="158.5"/><ellipse cx="2543.5" cy="174.5" fill="#ADD1B2" rx="11" ry="11" style="stroke:#181818;stroke-width:1;"/><path d="M2546.4688,180.1406 Q2545.8906,180.4375 2545.25,180.5781 Q2544.6094,180.7344 2543.9063,180.7344 Q2541.4063,180.7344 2540.0781,179.0938 Q2538.7656,177.4375 2538.7656,174.3125 Q2538.7656,171.1875 2540.0781,169.5313 Q2541.4063,167.875 2543.9063,167.875 Q2544.6094,167.875 2545.25,168.0313 Q2545.9063,168.1875 2546.4688,168.4844 L2546.4688,171.2031 Q2545.8438,170.625 2545.25,170.3594 Q2544.6563,170.0781 2544.0313,170.0781 Q2542.6875,170.0781 2542,171.1563 Q2541.3125,172.2188 2541.3125,174.3125 Q2541.3125,176.4063 2542,177.4844 Q2542.6875,178.5469 2544.0313,178.5469 Q2544.6563,178.5469 2545.25,178.2813 Q2545.8438,178 2546.4688,177.4219 L2546.4688,180.1406 Z " fill="#000000"/><text fill="#000000" font-family="sans-serif" font-size="14" lengthAdjust="spacing" textLength="229.1885" x="2557.5" y="179.3467">logic_arc_int__baselibs__promise</text><line style="stroke:#181818;stroke-width:0.5;" x1="2529.5" x2="2788.6885" y1="190.5" y2="190.5"/></g><!--class logic_arc_int__baselibs__future--><g id="elem_logic_arc_int__baselibs__future"><rect fill="#F1F1F1" height="40" id="logic_arc_int__baselibs__future" rx="2.5" ry="2.5" style="stroke:#181818;stroke-width:0.5;" width="247.0791" x="1292.5" y="158.5"/><ellipse cx="1307.5" cy="174.5" fill="#ADD1B2" rx="11" ry="11" style="stroke:#181818;stroke-width:1;"/><path d="M1310.4688,180.1406 Q1309.8906,180.4375 1309.25,180.5781 Q1308.6094,180.7344 1307.9063,180.7344 Q1305.4063,180.7344 1304.0781,179.0938 Q1302.7656,177.4375 1302.7656,174.3125 Q1302.7656,171.1875 1304.0781,169.5313 Q1305.4063,167.875 1307.9063,167.875 Q1308.6094,167.875 1309.25,168.0313 Q1309.9063,168.1875 1310.4688,168.4844 L1310.4688,171.2031 Q1309.8438,170.625 1309.25,170.3594 Q1308.6563,170.0781 1308.0313,170.0781 Q1306.6875,170.0781 1306,171.1563 Q1305.3125,172.2188 1305.3125,174.3125 Q1305.3125,176.4063 1306,177.4844 Q1306.6875,178.5469 1308.0313,178.5469 Q1308.6563,178.5469 1309.25,178.2813 Q1309.8438,178 1310.4688,177.4219 L1310.4688,180.1406 Z " fill="#000000"/><text fill="#000000" font-family="sans-serif" font-size="14" lengthAdjust="spacing" textLength="215.0791" x="1321.5" y="179.3467">logic_arc_int__baselibs__future</text><line style="stroke:#181818;stroke-width:0.5;" x1="1293.5" x2="1538.5791" y1="190.5" y2="190.5"/></g><!--class comp_arc_sta__baselibs__memory_shared--><g id="elem_comp_arc_sta__baselibs__memory_shared"><rect fill="#F1F1F1" height="40" id="comp_arc_sta__baselibs__memory_shared" rx="2.5" ry="2.5" style="stroke:#181818;stroke-width:0.5;" width="327.0117" x="284.5" y="275.5"/><ellipse cx="299.5" cy="291.5" fill="#ADD1B2" rx="11" ry="11" style="stroke:#181818;stroke-width:1;"/><path d="M302.4688,297.1406 Q301.8906,297.4375 301.25,297.5781 Q300.6094,297.7344 299.9063,297.7344 Q297.4063,297.7344 296.0781,296.0938 Q294.7656,294.4375 294.7656,291.3125 Q294.7656,288.1875 296.0781,286.5313 Q297.4063,284.875 299.9063,284.875 Q300.6094,284.875 301.25,285.0313 Q301.9063,285.1875 302.4688,285.4844 L302.4688,288.2031 Q301.8438,287.625 301.25,287.3594 Q300.6563,287.0781 300.0313,287.0781 Q298.6875,287.0781 298,288.1563 Q297.3125,289.2188 297.3125,291.3125 Q297.3125,293.4063 298,294.4844 Q298.6875,295.5469 300.0313,295.5469 Q300.6563,295.5469 301.25,295.2813 Q301.8438,295 302.4688,294.4219 L302.4688,297.1406 Z " fill="#000000"/><text fill="#000000" font-family="sans-serif" font-size="14" lengthAdjust="spacing" textLength="295.0117" x="313.5" y="296.3467">comp_arc_sta__baselibs__memory_shared</text><line style="stroke:#181818;stroke-width:0.5;" x1="285.5" x2="610.5117" y1="307.5" y2="307.5"/></g><!--class comp_arc_sta__baselibs__json--><g id="elem_comp_arc_sta__baselibs__json"><rect fill="#F1F1F1" height="40" id="comp_arc_sta__baselibs__json" rx="2.5" ry="2.5" style="stroke:#181818;stroke-width:0.5;" width="242.1367" x="7" y="275.5"/><ellipse cx="22" cy="291.5" fill="#ADD1B2" rx="11" ry="11" style="stroke:#181818;stroke-width:1;"/><path d="M24.9688,297.1406 Q24.3906,297.4375 23.75,297.5781 Q23.1094,297.7344 22.4063,297.7344 Q19.9063,297.7344 18.5781,296.0938 Q17.2656,294.4375 17.2656,291.3125 Q17.2656,288.1875 18.5781,286.5313 Q19.9063,284.875 22.4063,284.875 Q23.1094,284.875 23.75,285.0313 Q24.4063,285.1875 24.9688,285.4844 L24.9688,288.2031 Q24.3438,287.625 23.75,287.3594 Q23.1563,287.0781 22.5313,287.0781 Q21.1875,287.0781 20.5,288.1563 Q19.8125,289.2188 19.8125,291.3125 Q19.8125,293.4063 20.5,294.4844 Q21.1875,295.5469 22.5313,295.5469 Q23.1563,295.5469 23.75,295.2813 Q24.3438,295 24.9688,294.4219 L24.9688,297.1406 Z " fill="#000000"/><text fill="#000000" font-family="sans-serif" font-size="14" lengthAdjust="spacing" textLength="210.1367" x="36" y="296.3467">comp_arc_sta__baselibs__json</text><line style="stroke:#181818;stroke-width:0.5;" x1="8" x2="248.1367" y1="307.5" y2="307.5"/></g><!--reverse link logic_arc_int__baselibs__synchronized_queue to comp_arc_sta__baselibs__concurrency--><g id="link_logic_arc_int__baselibs__synchronized_queue_comp_arc_sta__baselibs__concurrency"><path codeLine="15" d="M2235.6333,199.9818 C2148.9933,221.2718 2015.39,254.11 1928.69,275.41 " fill="transparent" id="logic_arc_int__baselibs__synchronized_queue-backto-comp_arc_sta__baselibs__concurrency" style="stroke:#181818;stroke-width:1;"/><polygon fill="#181818" points="2241.46,198.55,2231.7655,196.8132,2236.6044,199.7432,2233.6745,204.5821,2241.46,198.55" style="stroke:#181818;stroke-width:1;"/><text fill="#000000" font-family="sans-serif" font-size="13" lengthAdjust="spacing" textLength="76.9082" x="2114" y="241.5669">implements</text></g><!--link Feature_User to logic_arc_int__baselibs__task--><g id="link_Feature_User_logic_arc_int__baselibs__task"><path codeLine="16" d="M2945.6,50.36 C2817.22,66.96 2440.58,115.86 2128,158.5 C2122.14,159.3 2122.0732,159.2962 2116.0132,160.1362 " fill="transparent" id="Feature_User-to-logic_arc_int__baselibs__task" style="stroke:#181818;stroke-width:1;"/><polygon fill="#181818" points="2110.07,160.96,2119.534,163.6864,2115.0226,160.2735,2118.4356,155.7622,2110.07,160.96" style="stroke:#181818;stroke-width:1;"/><text fill="#000000" font-family="sans-serif" font-size="13" lengthAdjust="spacing" textLength="23.0103" x="2461" y="124.5669">use</text></g><!--link Feature_User to logic_arc_int__baselibs__result--><g id="link_Feature_User_logic_arc_int__baselibs__result"><path codeLine="17" d="M3036.02,45.83 C3246.29,52.35 4152.7,83.6 4892,158.5 C4897.86,159.09 4897.8888,159.059 4903.9288,159.749 " fill="transparent" id="Feature_User-to-logic_arc_int__baselibs__result" style="stroke:#181818;stroke-width:1;"/><polygon fill="#181818" points="4909.89,160.43,4901.4022,155.4343,4904.9223,159.8625,4900.4942,163.3827,4909.89,160.43" style="stroke:#181818;stroke-width:1;"/><text fill="#000000" font-family="sans-serif" font-size="13" lengthAdjust="spacing" textLength="23.0103" x="4530" y="124.5669">use</text></g><!--reverse link logic_arc_int__baselibs__intrusive_list to comp_arc_sta__baselibs__containers--><g id="link_logic_arc_int__baselibs__intrusive_list_comp_arc_sta__baselibs__containers"><path codeLine="18" d="M5732.071,202.1393 C5763.171,223.4293 5808.04,254.14 5839.07,275.38 " fill="transparent" id="logic_arc_int__baselibs__intrusive_list-backto-comp_arc_sta__baselibs__containers" style="stroke:#181818;stroke-width:1;"/><polygon fill="#181818" points="5727.12,198.75,5732.287,207.1346,5731.2459,201.5744,5736.8061,200.5333,5727.12,198.75" style="stroke:#181818;stroke-width:1;"/><text fill="#000000" font-family="sans-serif" font-size="13" lengthAdjust="spacing" textLength="76.9082" x="5794" y="241.5669">implements</text></g><!--link Feature_User to logic_arc_int__baselibs__memory_shared--><g id="link_Feature_User_logic_arc_int__baselibs__memory_shared"><path codeLine="19" d="M2945.78,45.75 C2748.49,51.3 1943.39,75.11 1283,111.5 C988.48,127.73 914.79,132.22 621,158.5 C615.49,158.99 615.8529,158.9401 610.1929,159.4801 " fill="transparent" id="Feature_User-to-logic_arc_int__baselibs__memory_shared" style="stroke:#181818;stroke-width:1;"/><polygon fill="#181818" points="604.22,160.05,613.5592,163.1771,609.1974,159.5751,612.7994,155.2133,604.22,160.05" style="stroke:#181818;stroke-width:1;"/><text fill="#000000" font-family="sans-serif" font-size="13" lengthAdjust="spacing" textLength="23.0103" x="1284" y="124.5669">use</text></g><!--reverse link logic_arc_int__baselibs__bit_mask_operator to comp_arc_sta__baselibs__bit_manipulation--><g id="link_logic_arc_int__baselibs__bit_mask_operator_comp_arc_sta__baselibs__bit_manipulation"><path codeLine="20" d="M3994.3386,202.0188 C3961.5686,223.3088 3914.12,254.14 3881.43,275.38 " fill="transparent" id="logic_arc_int__baselibs__bit_mask_operator-backto-comp_arc_sta__baselibs__bit_manipulation" style="stroke:#181818;stroke-width:1;"/><polygon fill="#181818" points="3999.37,198.75,3989.6437,200.2989,3995.1772,201.474,3994.0021,207.0075,3999.37,198.75" style="stroke:#181818;stroke-width:1;"/><text fill="#000000" font-family="sans-serif" font-size="13" lengthAdjust="spacing" textLength="76.9082" x="3952" y="241.5669">implements</text></g><!--link Feature_User to logic_arc_int__baselibs__json--><g id="link_Feature_User_logic_arc_int__baselibs__json"><path codeLine="21" d="M2945.67,45.42 C2726.8,49.99 1757.43,71.61 964,111.5 C654.35,127.07 576.39,126.59 268,158.5 C261.72,159.15 261.2383,159.1642 254.7383,159.9342 " fill="transparent" id="Feature_User-to-logic_arc_int__baselibs__json" style="stroke:#181818;stroke-width:1;"/><polygon fill="#181818" points="248.78,160.64,258.1881,163.5535,253.7453,160.0518,257.247,155.609,248.78,160.64" style="stroke:#181818;stroke-width:1;"/><text fill="#000000" font-family="sans-serif" font-size="13" lengthAdjust="spacing" textLength="23.0103" x="965" y="124.5669">use</text></g><!--link Feature_User to logic_arc_int__baselibs__bit_manipulation--><g id="link_Feature_User_logic_arc_int__baselibs__bit_manipulation"><path codeLine="22" d="M3036.01,53.38 C3144.19,74.73 3414.9035,128.1483 3562.6635,157.3083 " fill="transparent" id="Feature_User-to-logic_arc_int__baselibs__bit_manipulation" style="stroke:#181818;stroke-width:1;"/><polygon fill="#181818" points="3568.55,158.47,3560.4947,152.8032,3563.6446,157.5019,3558.9458,160.6518,3568.55,158.47" style="stroke:#181818;stroke-width:1;"/><text fill="#000000" font-family="sans-serif" font-size="13" lengthAdjust="spacing" textLength="23.0103" x="3409" y="124.5669">use</text></g><!--reverse link logic_arc_int__baselibs__utils_scoped_op to comp_arc_sta__baselibs__utils--><g id="link_logic_arc_int__baselibs__utils_scoped_op_comp_arc_sta__baselibs__utils"><path codeLine="23" d="M4674.4223,201.3603 C4632.9923,222.6303 4571.79,254.05 4530.33,275.34 " fill="transparent" id="logic_arc_int__baselibs__utils_scoped_op-backto-comp_arc_sta__baselibs__utils" style="stroke:#181818;stroke-width:1;"/><polygon fill="#181818" points="4679.76,198.62,4669.9266,199.1721,4675.312,200.9036,4673.5804,206.2889,4679.76,198.62" style="stroke:#181818;stroke-width:1;"/><text fill="#000000" font-family="sans-serif" font-size="13" lengthAdjust="spacing" textLength="76.9082" x="4619" y="241.5669">implements</text></g><!--link Feature_User to logic_arc_int__baselibs__task_result--><g id="link_Feature_User_logic_arc_int__baselibs__task_result"><path codeLine="24" d="M2945.83,46.33 C2747.88,54.61 1937.39,91.05 1275,158.5 C1269.37,159.07 1269.586,159.0423 1263.786,159.6623 " fill="transparent" id="Feature_User-to-logic_arc_int__baselibs__task_result" style="stroke:#181818;stroke-width:1;"/><polygon fill="#181818" points="1257.82,160.3,1267.1942,163.3207,1262.7917,159.7685,1266.3439,155.366,1257.82,160.3" style="stroke:#181818;stroke-width:1;"/><text fill="#000000" font-family="sans-serif" font-size="13" lengthAdjust="spacing" textLength="23.0103" x="1794" y="124.5669">use</text></g><!--reverse link logic_arc_int__baselibs__task_result to comp_arc_sta__baselibs__concurrency--><g id="link_logic_arc_int__baselibs__task_result_comp_arc_sta__baselibs__concurrency"><path codeLine="25" d="M1237.1995,199.5296 C1318.2895,212.9496 1423.81,230.19 1522,245.5 C1587.33,255.69 1660.04,266.56 1720.45,275.48 " fill="transparent" id="logic_arc_int__baselibs__task_result-backto-comp_arc_sta__baselibs__concurrency" style="stroke:#181818;stroke-width:1;"/><polygon fill="#181818" points="1231.28,198.55,1239.5061,203.9658,1236.2129,199.3664,1240.8123,196.0731,1231.28,198.55" style="stroke:#181818;stroke-width:1;"/><text fill="#000000" font-family="sans-serif" font-size="13" lengthAdjust="spacing" textLength="76.9082" x="1523" y="241.5669">implements</text></g><!--link Feature_User to logic_arc_int__baselibs__condition_variable--><g id="link_Feature_User_logic_arc_int__baselibs__condition_variable"><path codeLine="26" d="M2991,81.55 C2991,106.45 2991,132.26 2991,152.26 " fill="transparent" id="Feature_User-to-logic_arc_int__baselibs__condition_variable" style="stroke:#181818;stroke-width:1;"/><polygon fill="#181818" points="2991,158.26,2995,149.26,2991,153.26,2987,149.26,2991,158.26" style="stroke:#181818;stroke-width:1;"/><text fill="#000000" font-family="sans-serif" font-size="13" lengthAdjust="spacing" textLength="23.0103" x="2992" y="124.5669">use</text></g><!--reverse link logic_arc_int__baselibs__shared_future to comp_arc_sta__baselibs__concurrency--><g id="link_logic_arc_int__baselibs__shared_future_comp_arc_sta__baselibs__concurrency"><path codeLine="27" d="M944.7333,199.2672 C1054.4433,213.0372 1201.44,230.97 1336,245.5 C1458.67,258.75 1597.98,271.89 1700.76,281.22 " fill="transparent" id="logic_arc_int__baselibs__shared_future-backto-comp_arc_sta__baselibs__concurrency" style="stroke:#181818;stroke-width:1;"/><polygon fill="#181818" points="938.78,198.52,947.2118,203.6097,943.7411,199.1427,948.2081,195.672,938.78,198.52" style="stroke:#181818;stroke-width:1;"/><text fill="#000000" font-family="sans-serif" font-size="13" lengthAdjust="spacing" textLength="76.9082" x="1337" y="241.5669">implements</text></g><!--reverse link logic_arc_int__baselibs__message_passing to comp_arc_sta__baselibs__message_passing--><g id="link_logic_arc_int__baselibs__message_passing_comp_arc_sta__baselibs__message_passing"><path codeLine="28" d="M5353.879,204.7464 C5354.619,225.9764 5355.59,253.94 5356.33,275.19 " fill="transparent" id="logic_arc_int__baselibs__message_passing-backto-comp_arc_sta__baselibs__message_passing" style="stroke:#181818;stroke-width:1;"/><polygon fill="#181818" points="5353.67,198.75,5349.9859,207.8839,5353.8442,203.747,5357.9811,207.6052,5353.67,198.75" style="stroke:#181818;stroke-width:1;"/><text fill="#000000" font-family="sans-serif" font-size="13" lengthAdjust="spacing" textLength="76.9082" x="5356" y="241.5669">implements</text></g><!--reverse link logic_arc_int__baselibs__result to comp_arc_sta__baselibs__result--><g id="link_logic_arc_int__baselibs__result_comp_arc_sta__baselibs__result"><path codeLine="29" d="M5030.9002,204.7444 C5029.9802,225.9744 5028.76,253.94 5027.84,275.19 " fill="transparent" id="logic_arc_int__baselibs__result-backto-comp_arc_sta__baselibs__result" style="stroke:#181818;stroke-width:1;"/><polygon fill="#181818" points="5031.16,198.75,5026.7741,207.5684,5030.9435,203.7453,5034.7666,207.9147,5031.16,198.75" style="stroke:#181818;stroke-width:1;"/><text fill="#000000" font-family="sans-serif" font-size="13" lengthAdjust="spacing" textLength="76.9082" x="5030" y="241.5669">implements</text></g><!--reverse link logic_arc_int__baselibs__dynamic_array to comp_arc_sta__baselibs__containers--><g id="link_logic_arc_int__baselibs__dynamic_array_comp_arc_sta__baselibs__containers"><path codeLine="30" d="M6001.929,202.1393 C5970.829,223.4293 5925.96,254.14 5894.93,275.38 " fill="transparent" id="logic_arc_int__baselibs__dynamic_array-backto-comp_arc_sta__baselibs__containers" style="stroke:#181818;stroke-width:1;"/><polygon fill="#181818" points="6006.88,198.75,5997.1939,200.5333,6002.7541,201.5744,6001.713,207.1346,6006.88,198.75" style="stroke:#181818;stroke-width:1;"/><text fill="#000000" font-family="sans-serif" font-size="13" lengthAdjust="spacing" textLength="76.9082" x="5962" y="241.5669">implements</text></g><!--link Feature_User to logic_arc_int__baselibs__utils_base64--><g id="link_Feature_User_logic_arc_int__baselibs__utils_base64"><path codeLine="31" d="M3036.01,48.33 C3196.31,62.04 3754.29,110.45 4214,158.5 C4219.84,159.11 4219.8347,159.1059 4225.8547,159.7559 " fill="transparent" id="Feature_User-to-logic_arc_int__baselibs__utils_base64" style="stroke:#181818;stroke-width:1;"/><polygon fill="#181818" points="4231.82,160.4,4223.3014,155.457,4226.8489,159.8633,4222.4426,163.4107,4231.82,160.4" style="stroke:#181818;stroke-width:1;"/><text fill="#000000" font-family="sans-serif" font-size="13" lengthAdjust="spacing" textLength="23.0103" x="3913" y="124.5669">use</text></g><!--reverse link logic_arc_int__baselibs__executor to comp_arc_sta__baselibs__concurrency--><g id="link_logic_arc_int__baselibs__executor_comp_arc_sta__baselibs__concurrency"><path codeLine="32" d="M1736.6057,202.51 C1763.0057,223.74 1800.56,253.94 1826.99,275.19 " fill="transparent" id="logic_arc_int__baselibs__executor-backto-comp_arc_sta__baselibs__concurrency" style="stroke:#181818;stroke-width:1;"/><polygon fill="#181818" points="1731.93,198.75,1736.4368,207.5072,1735.8264,201.8834,1741.4502,201.2729,1731.93,198.75" style="stroke:#181818;stroke-width:1;"/><text fill="#000000" font-family="sans-serif" font-size="13" lengthAdjust="spacing" textLength="76.9082" x="1790" y="241.5669">implements</text></g><!--reverse link logic_arc_int__baselibs__filesystem to comp_arc_sta__baselibs__filesystem--><g id="link_logic_arc_int__baselibs__filesystem_comp_arc_sta__baselibs__filesystem"><path codeLine="33" d="M3331,204.75 C3331,225.98 3331,253.94 3331,275.19 " fill="transparent" id="logic_arc_int__baselibs__filesystem-backto-comp_arc_sta__baselibs__filesystem" style="stroke:#181818;stroke-width:1;"/><polygon fill="#181818" points="3331,198.75,3327,207.75,3331,203.75,3335,207.75,3331,198.75" style="stroke:#181818;stroke-width:1;"/><text fill="#000000" font-family="sans-serif" font-size="13" lengthAdjust="spacing" textLength="76.9082" x="3332" y="241.5669">implements</text></g><!--link Feature_User to logic_arc_int__baselibs__bit_mask_operator--><g id="link_Feature_User_logic_arc_int__baselibs__bit_mask_operator"><path codeLine="34" d="M3036.27,50.3 C3181.62,68.92 3634.9887,127.0174 3874.4887,157.7074 " fill="transparent" id="Feature_User-to-logic_arc_int__baselibs__bit_mask_operator" style="stroke:#181818;stroke-width:1;"/><polygon fill="#181818" points="3880.44,158.47,3872.0214,153.3585,3875.4806,157.8345,3871.0046,161.2936,3880.44,158.47" style="stroke:#181818;stroke-width:1;"/><text fill="#000000" font-family="sans-serif" font-size="13" lengthAdjust="spacing" textLength="23.0103" x="3634" y="124.5669">use</text></g><!--reverse link logic_arc_int__baselibs__condition_variable to comp_arc_sta__baselibs__concurrency--><g id="link_logic_arc_int__baselibs__condition_variable_comp_arc_sta__baselibs__concurrency"><path codeLine="35" d="M2822.7994,199.1965 C2703.6694,212.9165 2543.84,230.85 2398,245.5 C2263.88,258.97 2111.07,272.51 2001.12,281.93 " fill="transparent" id="logic_arc_int__baselibs__condition_variable-backto-comp_arc_sta__baselibs__concurrency" style="stroke:#181818;stroke-width:1;"/><polygon fill="#181818" points="2828.76,198.51,2819.3615,195.566,2823.7928,199.0821,2820.2767,203.5134,2828.76,198.51" style="stroke:#181818;stroke-width:1;"/><text fill="#000000" font-family="sans-serif" font-size="13" lengthAdjust="spacing" textLength="76.9082" x="2545" y="241.5669">implements</text></g><!--link Feature_User to logic_arc_int__baselibs__synchronized_queue--><g id="link_Feature_User_logic_arc_int__baselibs__synchronized_queue"><path codeLine="36" d="M2945.86,53.43 C2837.79,74.82 2568.1258,128.195 2420.9558,157.325 " fill="transparent" id="Feature_User-to-logic_arc_int__baselibs__synchronized_queue" style="stroke:#181818;stroke-width:1;"/><polygon fill="#181818" points="2415.07,158.49,2424.6754,160.6664,2419.9748,157.5192,2423.122,152.8186,2415.07,158.49" style="stroke:#181818;stroke-width:1;"/><text fill="#000000" font-family="sans-serif" font-size="13" lengthAdjust="spacing" textLength="23.0103" x="2635" y="124.5669">use</text></g><!--reverse link logic_arc_int__baselibs__promise to comp_arc_sta__baselibs__concurrency--><g id="link_logic_arc_int__baselibs__promise_comp_arc_sta__baselibs__concurrency"><path codeLine="37" d="M2522.2112,199.2249 C2430.1612,212.4749 2310.03,229.72 2199,245.5 C2129.08,255.44 2051.24,266.41 1986.95,275.44 " fill="transparent" id="logic_arc_int__baselibs__promise-backto-comp_arc_sta__baselibs__concurrency" style="stroke:#181818;stroke-width:1;"/><polygon fill="#181818" points="2528.15,198.37,2518.6719,195.6931,2523.201,199.0824,2519.8117,203.6115,2528.15,198.37" style="stroke:#181818;stroke-width:1;"/><text fill="#000000" font-family="sans-serif" font-size="13" lengthAdjust="spacing" textLength="76.9082" x="2313" y="241.5669">implements</text></g><!--reverse link logic_arc_int__baselibs__utils_base64 to comp_arc_sta__baselibs__utils--><g id="link_logic_arc_int__baselibs__utils_base64_comp_arc_sta__baselibs__utils"><path codeLine="38" d="M4401.4926,202.9926 C4422.7226,224.2226 4452.44,253.94 4473.69,275.19 " fill="transparent" id="logic_arc_int__baselibs__utils_base64-backto-comp_arc_sta__baselibs__utils" style="stroke:#181818;stroke-width:1;"/><polygon fill="#181818" points="4397.25,198.75,4400.7855,207.9424,4400.7855,202.2855,4406.4424,202.2855,4397.25,198.75" style="stroke:#181818;stroke-width:1;"/><text fill="#000000" font-family="sans-serif" font-size="13" lengthAdjust="spacing" textLength="76.9082" x="4443" y="241.5669">implements</text></g><!--link Feature_User to logic_arc_int__baselibs__executor--><g id="link_Feature_User_logic_arc_int__baselibs__executor"><path codeLine="39" d="M2945.89,48.62 C2793.02,62.67 2280.57,110.49 1858,158.5 C1852.52,159.12 1852.8881,159.0622 1847.2481,159.7322 " fill="transparent" id="Feature_User-to-logic_arc_int__baselibs__executor" style="stroke:#181818;stroke-width:1;"/><polygon fill="#181818" points="1841.29,160.44,1850.699,163.3504,1846.2551,159.8502,1849.7553,155.4062,1841.29,160.44" style="stroke:#181818;stroke-width:1;"/><text fill="#000000" font-family="sans-serif" font-size="13" lengthAdjust="spacing" textLength="23.0103" x="2294" y="124.5669">use</text></g><!--reverse link logic_arc_int__baselibs__future to comp_arc_sta__baselibs__concurrency--><g id="link_logic_arc_int__baselibs__future_comp_arc_sta__baselibs__concurrency"><path codeLine="40" d="M1494.1207,200.1535 C1574.6907,221.4535 1698.38,254.15 1778.87,275.43 " fill="transparent" id="logic_arc_int__baselibs__future-backto-comp_arc_sta__baselibs__concurrency" style="stroke:#181818;stroke-width:1;"/><polygon fill="#181818" points="1488.32,198.62,1495.9987,204.7874,1493.1539,199.8979,1498.0434,197.0531,1488.32,198.62" style="stroke:#181818;stroke-width:1;"/><text fill="#000000" font-family="sans-serif" font-size="13" lengthAdjust="spacing" textLength="76.9082" x="1661" y="241.5669">implements</text></g><!--reverse link logic_arc_int__baselibs__memory_shared to comp_arc_sta__baselibs__memory_shared--><g id="link_logic_arc_int__baselibs__memory_shared_comp_arc_sta__baselibs__memory_shared"><path codeLine="41" d="M445.6582,204.7479 C446.2182,225.9779 446.94,253.94 447.5,275.19 " fill="transparent" id="logic_arc_int__baselibs__memory_shared-backto-comp_arc_sta__baselibs__memory_shared" style="stroke:#181818;stroke-width:1;"/><polygon fill="#181818" points="445.5,198.75,441.7387,207.8523,445.6318,203.7483,449.7359,207.6414,445.5,198.75" style="stroke:#181818;stroke-width:1;"/><text fill="#000000" font-family="sans-serif" font-size="13" lengthAdjust="spacing" textLength="76.9082" x="448" y="241.5669">implements</text></g><!--link Feature_User to logic_arc_int__baselibs__utils_scoped_op--><g id="link_Feature_User_logic_arc_int__baselibs__utils_scoped_op"><path codeLine="42" d="M3036.1,47.15 C3222.02,58.23 3947.23,102.81 4542,158.5 C4547.63,159.03 4547.388,159.0014 4553.168,159.5614 " fill="transparent" id="Feature_User-to-logic_arc_int__baselibs__utils_scoped_op" style="stroke:#181818;stroke-width:1;"/><polygon fill="#181818" points="4559.14,160.14,4550.5677,155.2907,4554.1633,159.6578,4549.7962,163.2534,4559.14,160.14" style="stroke:#181818;stroke-width:1;"/><text fill="#000000" font-family="sans-serif" font-size="13" lengthAdjust="spacing" textLength="23.0103" x="4160" y="124.5669">use</text></g><!--reverse link logic_arc_int__baselibs__json to comp_arc_sta__baselibs__json--><g id="link_logic_arc_int__baselibs__json_comp_arc_sta__baselibs__json"><path codeLine="43" d="M131.121,204.7464 C130.381,225.9764 129.41,253.94 128.67,275.19 " fill="transparent" id="logic_arc_int__baselibs__json-backto-comp_arc_sta__baselibs__json" style="stroke:#181818;stroke-width:1;"/><polygon fill="#181818" points="131.33,198.75,127.0189,207.6052,131.1558,203.747,135.0141,207.8839,131.33,198.75" style="stroke:#181818;stroke-width:1;"/><text fill="#000000" font-family="sans-serif" font-size="13" lengthAdjust="spacing" textLength="76.9082" x="132" y="241.5669">implements</text></g><!--link Feature_User to logic_arc_int__baselibs__intrusive_list--><g id="link_Feature_User_logic_arc_int__baselibs__intrusive_list"><path codeLine="44" d="M3036.27,45.59 C3243.86,50.73 4125.54,73.76 4848,111.5 C5153.63,127.46 5230.24,130.44 5535,158.5 C5540.71,159.03 5540.5591,159 5546.4291,159.58 " fill="transparent" id="Feature_User-to-logic_arc_int__baselibs__intrusive_list" style="stroke:#181818;stroke-width:1;"/><polygon fill="#181818" points="5552.4,160.17,5543.8369,155.3044,5547.4242,159.6784,5543.0503,163.2657,5552.4,160.17" style="stroke:#181818;stroke-width:1;"/><text fill="#000000" font-family="sans-serif" font-size="13" lengthAdjust="spacing" textLength="23.0103" x="5158" y="124.5669">use</text></g><!--link Feature_User to logic_arc_int__baselibs__message_passing--><g id="link_Feature_User_logic_arc_int__baselibs__message_passing"><path codeLine="45" d="M3036.02,45.85 C3223.21,51.61 3958.4,75.39 4562,111.5 C4833.43,127.74 4901.2,133.86 5172,158.5 C5177.51,159 5177.1372,158.9491 5182.7872,159.4891 " fill="transparent" id="Feature_User-to-logic_arc_int__baselibs__message_passing" style="stroke:#181818;stroke-width:1;"/><polygon fill="#181818" points="5188.76,160.06,5180.1814,155.2219,5183.7827,159.5843,5179.4203,163.1856,5188.76,160.06" style="stroke:#181818;stroke-width:1;"/><text fill="#000000" font-family="sans-serif" font-size="13" lengthAdjust="spacing" textLength="23.0103" x="4816" y="124.5669">use</text></g><!--reverse link logic_arc_int__baselibs__bit_manipulation to comp_arc_sta__baselibs__bit_manipulation--><g id="link_logic_arc_int__baselibs__bit_manipulation_comp_arc_sta__baselibs__bit_manipulation"><path codeLine="46" d="M3701.4109,201.893 C3736.0309,223.183 3786.37,254.14 3820.91,275.38 " fill="transparent" id="logic_arc_int__baselibs__bit_manipulation-backto-comp_arc_sta__baselibs__bit_manipulation" style="stroke:#181818;stroke-width:1;"/><polygon fill="#181818" points="3696.3,198.75,3701.871,206.8718,3700.5591,201.3692,3706.0617,200.0573,3696.3,198.75" style="stroke:#181818;stroke-width:1;"/><text fill="#000000" font-family="sans-serif" font-size="13" lengthAdjust="spacing" textLength="76.9082" x="3770" y="241.5669">implements</text></g><!--link Feature_User to logic_arc_int__baselibs__future--><g id="link_Feature_User_logic_arc_int__baselibs__future"><path codeLine="47" d="M2946,47.07 C2768.89,57.42 2102.82,98.31 1557,158.5 C1551.35,159.12 1551.5383,159.0836 1545.7183,159.7736 " fill="transparent" id="Feature_User-to-logic_arc_int__baselibs__future" style="stroke:#181818;stroke-width:1;"/><polygon fill="#181818" points="1539.76,160.48,1549.1683,163.3926,1544.7252,159.8913,1548.2265,155.4482,1539.76,160.48" style="stroke:#181818;stroke-width:1;"/><text fill="#000000" font-family="sans-serif" font-size="13" lengthAdjust="spacing" textLength="23.0103" x="2030" y="124.5669">use</text></g><!--reverse link logic_arc_int__baselibs__task to comp_arc_sta__baselibs__concurrency--><g id="link_logic_arc_int__baselibs__task_comp_arc_sta__baselibs__concurrency"><path codeLine="48" d="M1964.5676,202.5265 C1938.3576,223.7565 1901.09,253.94 1874.85,275.19 " fill="transparent" id="logic_arc_int__baselibs__task-backto-comp_arc_sta__baselibs__concurrency" style="stroke:#181818;stroke-width:1;"/><polygon fill="#181818" points="1969.23,198.75,1959.7187,201.3065,1965.3447,201.8971,1964.7541,207.523,1969.23,198.75" style="stroke:#181818;stroke-width:1;"/><text fill="#000000" font-family="sans-serif" font-size="13" lengthAdjust="spacing" textLength="76.9082" x="1932" y="241.5669">implements</text></g><!--link Feature_User to logic_arc_int__baselibs__shared_future--><g id="link_Feature_User_logic_arc_int__baselibs__shared_future"><path codeLine="49" d="M2945.88,46.14 C2769.72,52.65 2111.38,77.92 1570,111.5 C1298.16,128.36 1230.15,132.84 959,158.5 C953.12,159.06 953.0997,159.0381 947.0497,159.6481 " fill="transparent" id="Feature_User-to-logic_arc_int__baselibs__shared_future" style="stroke:#181818;stroke-width:1;"/><polygon fill="#181818" points="941.08,160.25,950.4359,163.327,946.0548,159.7484,949.6333,155.3673,941.08,160.25" style="stroke:#181818;stroke-width:1;"/><text fill="#000000" font-family="sans-serif" font-size="13" lengthAdjust="spacing" textLength="23.0103" x="1571" y="124.5669">use</text></g><!--link Feature_User to logic_arc_int__baselibs__promise--><g id="link_Feature_User_logic_arc_int__baselibs__promise"><path codeLine="50" d="M2945.88,62.58 C2883.21,87.68 2775.8894,130.668 2712.0094,156.268 " fill="transparent" id="Feature_User-to-logic_arc_int__baselibs__promise" style="stroke:#181818;stroke-width:1;"/><polygon fill="#181818" points="2706.44,158.5,2716.2821,158.865,2711.0812,156.64,2713.3062,151.4391,2706.44,158.5" style="stroke:#181818;stroke-width:1;"/><text fill="#000000" font-family="sans-serif" font-size="13" lengthAdjust="spacing" textLength="23.0103" x="2816" y="124.5669">use</text></g><!--link Feature_User to logic_arc_int__baselibs__dynamic_array--><g id="link_Feature_User_logic_arc_int__baselibs__dynamic_array"><path codeLine="51" d="M3036.31,45.22 C3265.97,49.01 4324.54,68.11 5190,111.5 C5489.46,126.51 5564.37,131.59 5863,158.5 C5868.83,159.03 5868.8078,159.0027 5874.8078,159.5827 " fill="transparent" id="Feature_User-to-logic_arc_int__baselibs__dynamic_array" style="stroke:#181818;stroke-width:1;"/><polygon fill="#181818" points="5880.78,160.16,5872.2066,155.3126,5875.8032,159.6789,5871.4369,163.2755,5880.78,160.16" style="stroke:#181818;stroke-width:1;"/><text fill="#000000" font-family="sans-serif" font-size="13" lengthAdjust="spacing" textLength="23.0103" x="5494" y="124.5669">use</text></g><!--link Feature_User to logic_arc_int__baselibs__filesystem--><g id="link_Feature_User_logic_arc_int__baselibs__filesystem"><path codeLine="52" d="M3036.15,62.16 C3100.1,87.18 3210.9821,130.5546 3276.7721,156.2846 " fill="transparent" id="Feature_User-to-logic_arc_int__baselibs__filesystem" style="stroke:#181818;stroke-width:1;"/><polygon fill="#181818" points="3282.36,158.47,3275.4351,151.4667,3277.7035,156.6489,3272.5213,158.9172,3282.36,158.47" style="stroke:#181818;stroke-width:1;"/><text fill="#000000" font-family="sans-serif" font-size="13" lengthAdjust="spacing" textLength="23.0103" x="3202" y="124.5669">use</text></g><!--SRC=[hLPDRzim3BthLmYzfnk6OeUYw6N0JZkkPu6MsOIBFZoHwkeD- - -JutHDqZIE7H-LaDHxr2EVmRduotXwfh1K4XijKLTH97fTKq8h58DQKOsQ1HD6QHlip-WRQJM89Ago8AixbjRXlRe69bVfF-eR1VmINKmwORqvVL-HNGTarf-kFwg_wkx3DaU1bH9tzHL1SaBzm9YkDB3U_c2w7xHIDlh6GBA61OofWD5HnSRO66nE2ODjzI8lxhMBIxARI0go6ybjiAiK0_t6slpCcF5MasySUWp2MkrTkAXFbHBWzQtEZAEo4d9siiqxmKUWD2pn09roJ9df2OqZbibKFFgOMiChA4yrWAqYCHu2DTb19uy1X7quhqriC45vvSaWVt0Cu_jz27U0NHPoGqtVn1YsXL5TQ5qaeBFrSAQ-zsfEn5LkgwdhbNc2H50vd0rUhp3pc3ii-m3VA-xBle0bcWQOovOQkE0W-hmh-duDL3xMr8ldjsu3-CrV2Th93zOBiZj_lfdjgV0PRNuph-_LVII7t1QJy0DbNmCdqpsoKcRYV4pv4q4UCvgPK3OfUk8pn-VyXVQYduc4N_Ko4yrnIsB7m0PNn9xPNJHpEoPmadNdNGEmUdkRYERmEs2iIxvPc_D_0knQy4IMBugOqIkdp_U-aurj-FyP7fjuu1XZqtVNxoRt7m00]--></g></svg>