<svg xmlns="http://www.w3.org/2000/svg" xmlns:xlink="http://www.w3.org/1999/xlink" contentStyleType="text/css" data-diagram-type="CLASS" height="322px" preserveAspectRatio="none" style="width:6189px;height:322px;background:#FFFFFF;" version="1.1" viewBox="0 0 6189 322" width="6189px" zoomAndPan="magnify"><defs/><g><!--entity Feature_User--><g id="elem_Feature_User"><ellipse cx="3072.1685" cy="14" fill="#F1F1F1" rx="8" ry="8" style="stroke:#181818;stroke-width:0.5;"/><path d="M3072.1685,22 L3072.1685,49 M3059.1685,30 L3085.1685,30 M3072.1685,49 L3059.1685,64 M3072.1685,49 L3085.1685,64 " fill="transparent" style="stroke:#181818;stroke-width:0.5;"/><text fill="#000000" font-family="sans-serif" font-size="14" lengthAdjust="spacing" textLength="90.3369" x="3027" y="78.4951">Feature User</text></g><!--class logic_arc_int__baselibs__task--><g id="elem_logic_arc_int__baselibs__task"><rect fill="#F1F1F1" height="40" id="logic_arc_int__baselibs__task" rx="2.5" ry="2.5" style="stroke:#181818;stroke-width:0.5;" width="234.0156" x="3874" y="158.5"/><ellipse cx="3889" cy="174.5" fill="#ADD1B2" rx="11" ry="11" style="stroke:#181818;stroke-width:1;"/><path d="M3891.9688,180.1406 Q3891.3906,180.4375 3890.75,180.5781 Q3890.1094,180.7344 3889.4063,180.7344 Q3886.9063,180.7344 3885.5781,179.0938 Q3884.2656,177.4375 3884.2656,174.3125 Q3884.2656,171.1875 3885.5781,169.5313 Q3886.9063,167.875 3889.4063,167.875 Q3890.1094,167.875 3890.75,168.0313 Q3891.4063,168.1875 3891.9688,168.4844 L3891.9688,171.2031 Q3891.3438,170.625 3890.75,170.3594 Q3890.1563,170.0781 3889.5313,170.0781 Q3888.1875,170.0781 3887.5,171.1563 Q3886.8125,172.2188 3886.8125,174.3125 Q3886.8125,176.4063 3887.5,177.4844 Q3888.1875,178.5469 3889.5313,178.5469 Q3890.1563,178.5469 3890.75,178.2813 Q3891.3438,178 3891.9688,177.4219 L3891.9688,180.1406 Z " fill="#000000"/><text fill="#000000" font-family="sans-serif" font-size="14" lengthAdjust="spacing" textLength="202.0156" x="3903" y="179.3467">logic_arc_int__baselibs__task</text><line style="stroke:#181818;stroke-width:0.5;" x1="3875" x2="4107.0156" y1="190.5" y2="190.5"/></g><!--class comp_arc_sta__baselibs__concurrency--><g id="elem_comp_arc_sta__baselibs__concurrency"><rect fill="#F1F1F1" height="40" id="comp_arc_sta__baselibs__concurrency" rx="2.5" ry="2.5" style="stroke:#181818;stroke-width:0.5;" width="300.2012" x="3375" y="275.5"/><ellipse cx="3390" cy="291.5" fill="#ADD1B2" rx="11" ry="11" style="stroke:#181818;stroke-width:1;"/><path d="M3392.9688,297.1406 Q3392.3906,297.4375 3391.75,297.5781 Q3391.1094,297.7344 3390.4063,297.7344 Q3387.9063,297.7344 3386.5781,296.0938 Q3385.2656,294.4375 3385.2656,291.3125 Q3385.2656,288.1875 3386.5781,286.5313 Q3387.9063,284.875 3390.4063,284.875 Q3391.1094,284.875 3391.75,285.0313 Q3392.4063,285.1875 3392.9688,285.4844 L3392.9688,288.2031 Q3392.3438,287.625 3391.75,287.3594 Q3391.1563,287.0781 3390.5313,287.0781 Q3389.1875,287.0781 3388.5,288.1563 Q3387.8125,289.2188 3387.8125,291.3125 Q3387.8125,293.4063 3388.5,294.4844 Q3389.1875,295.5469 3390.5313,295.5469 Q3391.1563,295.5469 3391.75,295.2813 Q3392.3438,295 3392.9688,294.4219 L3392.9688,297.1406 Z " fill="#000000"/><text fill="#000000" font-family="sans-serif" font-size="14" lengthAdjust="spacing" textLength="268.2012" x="3404" y="296.3467">comp_arc_sta__baselibs__concurrency</text><line style="stroke:#181818;stroke-width:0.5;" x1="3376" x2="3674.2012" y1="307.5" y2="307.5"/></g><!--class logic_arc_int__baselibs__future--><g id="elem_logic_arc_int__baselibs__future"><rect fill="#F1F1F1" height="40" id="logic_arc_int__baselibs__future" rx="2.5" ry="2.5" style="stroke:#181818;stroke-width:0.5;" width="247.0791" x="2340.5" y="158.5"/><ellipse cx="2355.5" cy="174.5" fill="#ADD1B2" rx="11" ry="11" style="stroke:#181818;stroke-width:1;"/><path d="M2358.4688,180.1406 Q2357.8906,180.4375 2357.25,180.5781 Q2356.6094,180.7344 2355.9063,180.7344 Q2353.4063,180.7344 2352.0781,179.0938 Q2350.7656,177.4375 2350.7656,174.3125 Q2350.7656,171.1875 2352.0781,169.5313 Q2353.4063,167.875 2355.9063,167.875 Q2356.6094,167.875 2357.25,168.0313 Q2357.9063,168.1875 2358.4688,168.4844 L2358.4688,171.2031 Q2357.8438,170.625 2357.25,170.3594 Q2356.6563,170.0781 2356.0313,170.0781 Q2354.6875,170.0781 2354,171.1563 Q2353.3125,172.2188 2353.3125,174.3125 Q2353.3125,176.4063 2354,177.4844 Q2354.6875,178.5469 2356.0313,178.5469 Q2356.6563,178.5469 2357.25,178.2813 Q2357.8438,178 2358.4688,177.4219 L2358.4688,180.1406 Z " fill="#000000"/><text fill="#000000" font-family="sans-serif" font-size="14" lengthAdjust="spacing" textLength="215.0791" x="2369.5" y="179.3467">logic_arc_int__baselibs__future</text><line style="stroke:#181818;stroke-width:0.5;" x1="2341.5" x2="2586.5791" y1="190.5" y2="190.5"/></g><!--class logic_arc_int__baselibs__synchronized_queue--><g id="elem_logic_arc_int__baselibs__synchronized_queue"><rect fill="#F1F1F1" height="40" id="logic_arc_int__baselibs__synchronized_queue" rx="2.5" ry="2.5" style="stroke:#181818;stroke-width:0.5;" width="348.3604" x="4512" y="158.5"/><ellipse cx="4527" cy="174.5" fill="#ADD1B2" rx="11" ry="11" style="stroke:#181818;stroke-width:1;"/><path d="M4529.9688,180.1406 Q4529.3906,180.4375 4528.75,180.5781 Q4528.1094,180.7344 4527.4063,180.7344 Q4524.9063,180.7344 4523.5781,179.0938 Q4522.2656,177.4375 4522.2656,174.3125 Q4522.2656,171.1875 4523.5781,169.5313 Q4524.9063,167.875 4527.4063,167.875 Q4528.1094,167.875 4528.75,168.0313 Q4529.4063,168.1875 4529.9688,168.4844 L4529.9688,171.2031 Q4529.3438,170.625 4528.75,170.3594 Q4528.1563,170.0781 4527.5313,170.0781 Q4526.1875,170.0781 4525.5,171.1563 Q4524.8125,172.2188 4524.8125,174.3125 Q4524.8125,176.4063 4525.5,177.4844 Q4526.1875,178.5469 4527.5313,178.5469 Q4528.1563,178.5469 4528.75,178.2813 Q4529.3438,178 4529.9688,177.4219 L4529.9688,180.1406 Z " fill="#000000"/><text fill="#000000" font-family="sans-serif" font-size="14" lengthAdjust="spacing" textLength="316.3604" x="4541" y="179.3467">logic_arc_int__baselibs__synchronized_queue</text><line style="stroke:#181818;stroke-width:0.5;" x1="4513" x2="4859.3604" y1="190.5" y2="190.5"/></g><!--class comp_arc_sta__baselibs__result--><g id="elem_comp_arc_sta__baselibs__result"><rect fill="#F1F1F1" height="40" id="comp_arc_sta__baselibs__result" rx="2.5" ry="2.5" style="stroke:#181818;stroke-width:0.5;" width="253.4297" x="5929.5" y="275.5"/><ellipse cx="5944.5" cy="291.5" fill="#ADD1B2" rx="11" ry="11" style="stroke:#181818;stroke-width:1;"/><path d="M5947.4688,297.1406 Q5946.8906,297.4375 5946.25,297.5781 Q5945.6094,297.7344 5944.9063,297.7344 Q5942.4063,297.7344 5941.0781,296.0938 Q5939.7656,294.4375 5939.7656,291.3125 Q5939.7656,288.1875 5941.0781,286.5313 Q5942.4063,284.875 5944.9063,284.875 Q5945.6094,284.875 5946.25,285.0313 Q5946.9063,285.1875 5947.4688,285.4844 L5947.4688,288.2031 Q5946.8438,287.625 5946.25,287.3594 Q5945.6563,287.0781 5945.0313,287.0781 Q5943.6875,287.0781 5943,288.1563 Q5942.3125,289.2188 5942.3125,291.3125 Q5942.3125,293.4063 5943,294.4844 Q5943.6875,295.5469 5945.0313,295.5469 Q5945.6563,295.5469 5946.25,295.2813 Q5946.8438,295 5947.4688,294.4219 L5947.4688,297.1406 Z " fill="#000000"/><text fill="#000000" font-family="sans-serif" font-size="14" lengthAdjust="spacing" textLength="221.4297" x="5958.5" y="296.3467">comp_arc_sta__baselibs__result</text><line style="stroke:#181818;stroke-width:0.5;" x1="5930.5" x2="6181.9297" y1="307.5" y2="307.5"/></g><!--class logic_arc_int__baselibs__result--><g id="elem_logic_arc_int__baselibs__result"><rect fill="#F1F1F1" height="40" id="logic_arc_int__baselibs__result" rx="2.5" ry="2.5" style="stroke:#181818;stroke-width:0.5;" width="244.4609" x="5934" y="158.5"/><ellipse cx="5949" cy="174.5" fill="#ADD1B2" rx="11" ry="11" style="stroke:#181818;stroke-width:1;"/><path d="M5951.9688,180.1406 Q5951.3906,180.4375 5950.75,180.5781 Q5950.1094,180.7344 5949.4063,180.7344 Q5946.9063,180.7344 5945.5781,179.0938 Q5944.2656,177.4375 5944.2656,174.3125 Q5944.2656,171.1875 5945.5781,169.5313 Q5946.9063,167.875 5949.4063,167.875 Q5950.1094,167.875 5950.75,168.0313 Q5951.4063,168.1875 5951.9688,168.4844 L5951.9688,171.2031 Q5951.3438,170.625 5950.75,170.3594 Q5950.1563,170.0781 5949.5313,170.0781 Q5948.1875,170.0781 5947.5,171.1563 Q5946.8125,172.2188 5946.8125,174.3125 Q5946.8125,176.4063 5947.5,177.4844 Q5948.1875,178.5469 5949.5313,178.5469 Q5950.1563,178.5469 5950.75,178.2813 Q5951.3438,178 5951.9688,177.4219 L5951.9688,180.1406 Z " fill="#000000"/><text fill="#000000" font-family="sans-serif" font-size="14" lengthAdjust="spacing" textLength="212.4609" x="5963" y="179.3467">logic_arc_int__baselibs__result</text><line style="stroke:#181818;stroke-width:0.5;" x1="5935" x2="6177.4609" y1="190.5" y2="190.5"/></g><!--class comp_arc_sta__baselibs__bit_manipulation--><g id="elem_comp_arc_sta__baselibs__bit_manipulation"><rect fill="#F1F1F1" height="40" id="comp_arc_sta__baselibs__bit_manipulation" rx="2.5" ry="2.5" style="stroke:#181818;stroke-width:0.5;" width="330.8057" x="5387.5" y="275.5"/><ellipse cx="5402.5" cy="291.5" fill="#ADD1B2" rx="11" ry="11" style="stroke:#181818;stroke-width:1;"/><path d="M5405.4688,297.1406 Q5404.8906,297.4375 5404.25,297.5781 Q5403.6094,297.7344 5402.9063,297.7344 Q5400.4063,297.7344 5399.0781,296.0938 Q5397.7656,294.4375 5397.7656,291.3125 Q5397.7656,288.1875 5399.0781,286.5313 Q5400.4063,284.875 5402.9063,284.875 Q5403.6094,284.875 5404.25,285.0313 Q5404.9063,285.1875 5405.4688,285.4844 L5405.4688,288.2031 Q5404.8438,287.625 5404.25,287.3594 Q5403.6563,287.0781 5403.0313,287.0781 Q5401.6875,287.0781 5401,288.1563 Q5400.3125,289.2188 5400.3125,291.3125 Q5400.3125,293.4063 5401,294.4844 Q5401.6875,295.5469 5403.0313,295.5469 Q5403.6563,295.5469 5404.25,295.2813 Q5404.8438,295 5405.4688,294.4219 L5405.4688,297.1406 Z " fill="#000000"/><text fill="#000000" font-family="sans-serif" font-size="14" lengthAdjust="spacing" textLength="298.8057" x="5416.5" y="296.3467">comp_arc_sta__baselibs__bit_manipulation</text><line style="stroke:#181818;stroke-width:0.5;" x1="5388.5" x2="5717.3057" y1="307.5" y2="307.5"/></g><!--class logic_arc_int__baselibs__bit_mask_operator--><g id="elem_logic_arc_int__baselibs__bit_mask_operator"><rect fill="#F1F1F1" height="40" id="logic_arc_int__baselibs__bit_mask_operator" rx="2.5" ry="2.5" style="stroke:#181818;stroke-width:0.5;" width="334.6406" x="5206.5" y="158.5"/><ellipse cx="5221.5" cy="174.5" fill="#ADD1B2" rx="11" ry="11" style="stroke:#181818;stroke-width:1;"/><path d="M5224.4688,180.1406 Q5223.8906,180.4375 5223.25,180.5781 Q5222.6094,180.7344 5221.9063,180.7344 Q5219.4063,180.7344 5218.0781,179.0938 Q5216.7656,177.4375 5216.7656,174.3125 Q5216.7656,171.1875 5218.0781,169.5313 Q5219.4063,167.875 5221.9063,167.875 Q5222.6094,167.875 5223.25,168.0313 Q5223.9063,168.1875 5224.4688,168.4844 L5224.4688,171.2031 Q5223.8438,170.625 5223.25,170.3594 Q5222.6563,170.0781 5222.0313,170.0781 Q5220.6875,170.0781 5220,171.1563 Q5219.3125,172.2188 5219.3125,174.3125 Q5219.3125,176.4063 5220,177.4844 Q5220.6875,178.5469 5222.0313,178.5469 Q5222.6563,178.5469 5223.25,178.2813 Q5223.8438,178 5224.4688,177.4219 L5224.4688,180.1406 Z " fill="#000000"/><text fill="#000000" font-family="sans-serif" font-size="14" lengthAdjust="spacing" textLength="302.6406" x="5235.5" y="179.3467">logic_arc_int__baselibs__bit_mask_operator</text><line style="stroke:#181818;stroke-width:0.5;" x1="5207.5" x2="5540.1406" y1="190.5" y2="190.5"/></g><!--class logic_arc_int__baselibs__bit_manipulation--><g id="elem_logic_arc_int__baselibs__bit_manipulation"><rect fill="#F1F1F1" height="40" id="logic_arc_int__baselibs__bit_manipulation" rx="2.5" ry="2.5" style="stroke:#181818;stroke-width:0.5;" width="321.8369" x="5577" y="158.5"/><ellipse cx="5592" cy="174.5" fill="#ADD1B2" rx="11" ry="11" style="stroke:#181818;stroke-width:1;"/><path d="M5594.9688,180.1406 Q5594.3906,180.4375 5593.75,180.5781 Q5593.1094,180.7344 5592.4063,180.7344 Q5589.9063,180.7344 5588.5781,179.0938 Q5587.2656,177.4375 5587.2656,174.3125 Q5587.2656,171.1875 5588.5781,169.5313 Q5589.9063,167.875 5592.4063,167.875 Q5593.1094,167.875 5593.75,168.0313 Q5594.4063,168.1875 5594.9688,168.4844 L5594.9688,171.2031 Q5594.3438,170.625 5593.75,170.3594 Q5593.1563,170.0781 5592.5313,170.0781 Q5591.1875,170.0781 5590.5,171.1563 Q5589.8125,172.2188 5589.8125,174.3125 Q5589.8125,176.4063 5590.5,177.4844 Q5591.1875,178.5469 5592.5313,178.5469 Q5593.1563,178.5469 5593.75,178.2813 Q5594.3438,178 5594.9688,177.4219 L5594.9688,180.1406 Z " fill="#000000"/><text fill="#000000" font-family="sans-serif" font-size="14" lengthAdjust="spacing" textLength="289.8369" x="5606" y="179.3467">logic_arc_int__baselibs__bit_manipulation</text><line style="stroke:#181818;stroke-width:0.5;" x1="5578" x2="5897.8369" y1="190.5" y2="190.5"/></g><!--class logic_arc_int__baselibs__message_passing--><g id="elem_logic_arc_int__baselibs__message_passing"><rect fill="#F1F1F1" height="40" id="logic_arc_int__baselibs__message_passing" rx="2.5" ry="2.5" style="stroke:#181818;stroke-width:0.5;" width="328.167" x="1032" y="158.5"/><ellipse cx="1047" cy="174.5" fill="#ADD1B2" rx="11" ry="11" style="stroke:#181818;stroke-width:1;"/><path d="M1049.9688,180.1406 Q1049.3906,180.4375 1048.75,180.5781 Q1048.1094,180.7344 1047.4063,180.7344 Q1044.9063,180.7344 1043.5781,179.0938 Q1042.2656,177.4375 1042.2656,174.3125 Q1042.2656,171.1875 1043.5781,169.5313 Q1044.9063,167.875 1047.4063,167.875 Q1048.1094,167.875 1048.75,168.0313 Q1049.4063,168.1875 1049.9688,168.4844 L1049.9688,171.2031 Q1049.3438,170.625 1048.75,170.3594 Q1048.1563,170.0781 1047.5313,170.0781 Q1046.1875,170.0781 1045.5,171.1563 Q1044.8125,172.2188 1044.8125,174.3125 Q1044.8125,176.4063 1045.5,177.4844 Q1046.1875,178.5469 1047.5313,178.5469 Q1048.1563,178.5469 1048.75,178.2813 Q1049.3438,178 1049.9688,177.4219 L1049.9688,180.1406 Z " fill="#000000"/><text fill="#000000" font-family="sans-serif" font-size="14" lengthAdjust="spacing" textLength="296.167" x="1061" y="179.3467">logic_arc_int__baselibs__message_passing</text><line style="stroke:#181818;stroke-width:0.5;" x1="1033" x2="1359.167" y1="190.5" y2="190.5"/></g><!--class logic_arc_int__baselibs__executor--><g id="elem_logic_arc_int__baselibs__executor"><rect fill="#F1F1F1" height="40" id="logic_arc_int__baselibs__executor" rx="2.5" ry="2.5" style="stroke:#181818;stroke-width:0.5;" width="266.4385" x="2939" y="158.5"/><ellipse cx="2954" cy="174.5" fill="#ADD1B2" rx="11" ry="11" style="stroke:#181818;stroke-width:1;"/><path d="M2956.9688,180.1406 Q2956.3906,180.4375 2955.75,180.5781 Q2955.1094,180.7344 2954.4063,180.7344 Q2951.9063,180.7344 2950.5781,179.0938 Q2949.2656,177.4375 2949.2656,174.3125 Q2949.2656,171.1875 2950.5781,169.5313 Q2951.9063,167.875 2954.4063,167.875 Q2955.1094,167.875 2955.75,168.0313 Q2956.4063,168.1875 2956.9688,168.4844 L2956.9688,171.2031 Q2956.3438,170.625 2955.75,170.3594 Q2955.1563,170.0781 2954.5313,170.0781 Q2953.1875,170.0781 2952.5,171.1563 Q2951.8125,172.2188 2951.8125,174.3125 Q2951.8125,176.4063 2952.5,177.4844 Q2953.1875,178.5469 2954.5313,178.5469 Q2955.1563,178.5469 2955.75,178.2813 Q2956.3438,178 2956.9688,177.4219 L2956.9688,180.1406 Z " fill="#000000"/><text fill="#000000" font-family="sans-serif" font-size="14" lengthAdjust="spacing" textLength="234.4385" x="2968" y="179.3467">logic_arc_int__baselibs__executor</text><line style="stroke:#181818;stroke-width:0.5;" x1="2940" x2="3204.4385" y1="190.5" y2="190.5"/></g><!--class logic_arc_int__baselibs__dynamic_array--><g id="elem_logic_arc_int__baselibs__dynamic_array"><rect fill="#F1F1F1" height="40" id="logic_arc_int__baselibs__dynamic_array" rx="2.5" ry="2.5" style="stroke:#181818;stroke-width:0.5;" width="308.3496" x="7" y="158.5"/><ellipse cx="22" cy="174.5" fill="#ADD1B2" rx="11" ry="11" style="stroke:#181818;stroke-width:1;"/><path d="M24.9688,180.1406 Q24.3906,180.4375 23.75,180.5781 Q23.1094,180.7344 22.4063,180.7344 Q19.9063,180.7344 18.5781,179.0938 Q17.2656,177.4375 17.2656,174.3125 Q17.2656,171.1875 18.5781,169.5313 Q19.9063,167.875 22.4063,167.875 Q23.1094,167.875 23.75,168.0313 Q24.4063,168.1875 24.9688,168.4844 L24.9688,171.2031 Q24.3438,170.625 23.75,170.3594 Q23.1563,170.0781 22.5313,170.0781 Q21.1875,170.0781 20.5,171.1563 Q19.8125,172.2188 19.8125,174.3125 Q19.8125,176.4063 20.5,177.4844 Q21.1875,178.5469 22.5313,178.5469 Q23.1563,178.5469 23.75,178.2813 Q24.3438,178 24.9688,177.4219 L24.9688,180.1406 Z " fill="#000000"/><text fill="#000000" font-family="sans-serif" font-size="14" lengthAdjust="spacing" textLength="276.3496" x="36" y="179.3467">logic_arc_int__baselibs__dynamic_array</text><line style="stroke:#181818;stroke-width:0.5;" x1="8" x2="314.3496" y1="190.5" y2="190.5"/></g><!--class comp_arc_sta__baselibs__utils--><g id="elem_comp_arc_sta__baselibs__utils"><rect fill="#F1F1F1" height="40" id="comp_arc_sta__baselibs__utils" rx="2.5" ry="2.5" style="stroke:#181818;stroke-width:0.5;" width="242.9502" x="1588.5" y="275.5"/><ellipse cx="1603.5" cy="291.5" fill="#ADD1B2" rx="11" ry="11" style="stroke:#181818;stroke-width:1;"/><path d="M1606.4688,297.1406 Q1605.8906,297.4375 1605.25,297.5781 Q1604.6094,297.7344 1603.9063,297.7344 Q1601.4063,297.7344 1600.0781,296.0938 Q1598.7656,294.4375 1598.7656,291.3125 Q1598.7656,288.1875 1600.0781,286.5313 Q1601.4063,284.875 1603.9063,284.875 Q1604.6094,284.875 1605.25,285.0313 Q1605.9063,285.1875 1606.4688,285.4844 L1606.4688,288.2031 Q1605.8438,287.625 1605.25,287.3594 Q1604.6563,287.0781 1604.0313,287.0781 Q1602.6875,287.0781 1602,288.1563 Q1601.3125,289.2188 1601.3125,291.3125 Q1601.3125,293.4063 1602,294.4844 Q1602.6875,295.5469 1604.0313,295.5469 Q1604.6563,295.5469 1605.25,295.2813 Q1605.8438,295 1606.4688,294.4219 L1606.4688,297.1406 Z " fill="#000000"/><text fill="#000000" font-family="sans-serif" font-size="14" lengthAdjust="spacing" textLength="210.9502" x="1617.5" y="296.3467">comp_arc_sta__baselibs__utils</text><line style="stroke:#181818;stroke-width:0.5;" x1="1589.5" x2="1830.4502" y1="307.5" y2="307.5"/></g><!--class logic_arc_int__baselibs__utils_base64--><g id="elem_logic_arc_int__baselibs__utils_base64"><rect fill="#F1F1F1" height="40" id="logic_arc_int__baselibs__utils_base64" rx="2.5" ry="2.5" style="stroke:#181818;stroke-width:0.5;" width="292.1689" x="1395" y="158.5"/><ellipse cx="1410" cy="174.5" fill="#ADD1B2" rx="11" ry="11" style="stroke:#181818;stroke-width:1;"/><path d="M1412.9688,180.1406 Q1412.3906,180.4375 1411.75,180.5781 Q1411.1094,180.7344 1410.4063,180.7344 Q1407.9063,180.7344 1406.5781,179.0938 Q1405.2656,177.4375 1405.2656,174.3125 Q1405.2656,171.1875 1406.5781,169.5313 Q1407.9063,167.875 1410.4063,167.875 Q1411.1094,167.875 1411.75,168.0313 Q1412.4063,168.1875 1412.9688,168.4844 L1412.9688,171.2031 Q1412.3438,170.625 1411.75,170.3594 Q1411.1563,170.0781 1410.5313,170.0781 Q1409.1875,170.0781 1408.5,171.1563 Q1407.8125,172.2188 1407.8125,174.3125 Q1407.8125,176.4063 1408.5,177.4844 Q1409.1875,178.5469 1410.5313,178.5469 Q1411.1563,178.5469 1411.75,178.2813 Q1412.3438,178 1412.9688,177.4219 L1412.9688,180.1406 Z " fill="#000000"/><text fill="#000000" font-family="sans-serif" font-size="14" lengthAdjust="spacing" textLength="260.1689" x="1424" y="179.3467">logic_arc_int__baselibs__utils_base64</text><line style="stroke:#181818;stroke-width:0.5;" x1="1396" x2="1686.1689" y1="190.5" y2="190.5"/></g><!--class comp_arc_sta__baselibs__filesystem--><g id="elem_comp_arc_sta__baselibs__filesystem"><rect fill="#F1F1F1" height="40" id="comp_arc_sta__baselibs__filesystem" rx="2.5" ry="2.5" style="stroke:#181818;stroke-width:0.5;" width="285.4492" x="4890.5" y="275.5"/><ellipse cx="4905.5" cy="291.5" fill="#ADD1B2" rx="11" ry="11" style="stroke:#181818;stroke-width:1;"/><path d="M4908.4688,297.1406 Q4907.8906,297.4375 4907.25,297.5781 Q4906.6094,297.7344 4905.9063,297.7344 Q4903.4063,297.7344 4902.0781,296.0938 Q4900.7656,294.4375 4900.7656,291.3125 Q4900.7656,288.1875 4902.0781,286.5313 Q4903.4063,284.875 4905.9063,284.875 Q4906.6094,284.875 4907.25,285.0313 Q4907.9063,285.1875 4908.4688,285.4844 L4908.4688,288.2031 Q4907.8438,287.625 4907.25,287.3594 Q4906.6563,287.0781 4906.0313,287.0781 Q4904.6875,287.0781 4904,288.1563 Q4903.3125,289.2188 4903.3125,291.3125 Q4903.3125,293.4063 4904,294.4844 Q4904.6875,295.5469 4906.0313,295.5469 Q4906.6563,295.5469 4907.25,295.2813 Q4907.8438,295 4908.4688,294.4219 L4908.4688,297.1406 Z " fill="#000000"/><text fill="#000000" font-family="sans-serif" font-size="14" lengthAdjust="spacing" textLength="253.4492" x="4919.5" y="296.3467">comp_arc_sta__baselibs__filesystem</text><line style="stroke:#181818;stroke-width:0.5;" x1="4891.5" x2="5174.9492" y1="307.5" y2="307.5"/></g><!--class logic_arc_int__baselibs__filesystem--><g id="elem_logic_arc_int__baselibs__filesystem"><rect fill="#F1F1F1" height="40" id="logic_arc_int__baselibs__filesystem" rx="2.5" ry="2.5" style="stroke:#181818;stroke-width:0.5;" width="276.4805" x="4895" y="158.5"/><ellipse cx="4910" cy="174.5" fill="#ADD1B2" rx="11" ry="11" style="stroke:#181818;stroke-width:1;"/><path d="M4912.9688,180.1406 Q4912.3906,180.4375 4911.75,180.5781 Q4911.1094,180.7344 4910.4063,180.7344 Q4907.9063,180.7344 4906.5781,179.0938 Q4905.2656,177.4375 4905.2656,174.3125 Q4905.2656,171.1875 4906.5781,169.5313 Q4907.9063,167.875 4910.4063,167.875 Q4911.1094,167.875 4911.75,168.0313 Q4912.4063,168.1875 4912.9688,168.4844 L4912.9688,171.2031 Q4912.3438,170.625 4911.75,170.3594 Q4911.1563,170.0781 4910.5313,170.0781 Q4909.1875,170.0781 4908.5,171.1563 Q4907.8125,172.2188 4907.8125,174.3125 Q4907.8125,176.4063 4908.5,177.4844 Q4909.1875,178.5469 4910.5313,178.5469 Q4911.1563,178.5469 4911.75,178.2813 Q4912.3438,178 4912.9688,177.4219 L4912.9688,180.1406 Z " fill="#000000"/><text fill="#000000" font-family="sans-serif" font-size="14" lengthAdjust="spacing" textLength="244.4805" x="4924" y="179.3467">logic_arc_int__baselibs__filesystem</text><line style="stroke:#181818;stroke-width:0.5;" x1="4896" x2="5170.4805" y1="190.5" y2="190.5"/></g><!--class comp_arc_sta__baselibs__json--><g id="elem_comp_arc_sta__baselibs__json"><rect fill="#F1F1F1" height="40" id="comp_arc_sta__baselibs__json" rx="2.5" ry="2.5" style="stroke:#181818;stroke-width:0.5;" width="242.1367" x="2068" y="275.5"/><ellipse cx="2083" cy="291.5" fill="#ADD1B2" rx="11" ry="11" style="stroke:#181818;stroke-width:1;"/><path d="M2085.9688,297.1406 Q2085.3906,297.4375 2084.75,297.5781 Q2084.1094,297.7344 2083.4063,297.7344 Q2080.9063,297.7344 2079.5781,296.0938 Q2078.2656,294.4375 2078.2656,291.3125 Q2078.2656,288.1875 2079.5781,286.5313 Q2080.9063,284.875 2083.4063,284.875 Q2084.1094,284.875 2084.75,285.0313 Q2085.4063,285.1875 2085.9688,285.4844 L2085.9688,288.2031 Q2085.3438,287.625 2084.75,287.3594 Q2084.1563,287.0781 2083.5313,287.0781 Q2082.1875,287.0781 2081.5,288.1563 Q2080.8125,289.2188 2080.8125,291.3125 Q2080.8125,293.4063 2081.5,294.4844 Q2082.1875,295.5469 2083.5313,295.5469 Q2084.1563,295.5469 2084.75,295.2813 Q2085.3438,295 2085.9688,294.4219 L2085.9688,297.1406 Z " fill="#000000"/><text fill="#000000" font-family="sans-serif" font-size="14" lengthAdjust="spacing" textLength="210.1367" x="2097" y="296.3467">comp_arc_sta__baselibs__json</text><line style="stroke:#181818;stroke-width:0.5;" x1="2069" x2="2309.1367" y1="307.5" y2="307.5"/></g><!--class logic_arc_int__baselibs__json--><g id="elem_logic_arc_int__baselibs__json"><rect fill="#F1F1F1" height="40" id="logic_arc_int__baselibs__json" rx="2.5" ry="2.5" style="stroke:#181818;stroke-width:0.5;" width="233.168" x="2072.5" y="158.5"/><ellipse cx="2087.5" cy="174.5" fill="#ADD1B2" rx="11" ry="11" style="stroke:#181818;stroke-width:1;"/><path d="M2090.4688,180.1406 Q2089.8906,180.4375 2089.25,180.5781 Q2088.6094,180.7344 2087.9063,180.7344 Q2085.4063,180.7344 2084.0781,179.0938 Q2082.7656,177.4375 2082.7656,174.3125 Q2082.7656,171.1875 2084.0781,169.5313 Q2085.4063,167.875 2087.9063,167.875 Q2088.6094,167.875 2089.25,168.0313 Q2089.9063,168.1875 2090.4688,168.4844 L2090.4688,171.2031 Q2089.8438,170.625 2089.25,170.3594 Q2088.6563,170.0781 2088.0313,170.0781 Q2086.6875,170.0781 2086,171.1563 Q2085.3125,172.2188 2085.3125,174.3125 Q2085.3125,176.4063 2086,177.4844 Q2086.6875,178.5469 2088.0313,178.5469 Q2088.6563,178.5469 2089.25,178.2813 Q2089.8438,178 2090.4688,177.4219 L2090.4688,180.1406 Z " fill="#000000"/><text fill="#000000" font-family="sans-serif" font-size="14" lengthAdjust="spacing" textLength="201.168" x="2101.5" y="179.3467">logic_arc_int__baselibs__json</text><line style="stroke:#181818;stroke-width:0.5;" x1="2073.5" x2="2304.668" y1="190.5" y2="190.5"/></g><!--class comp_arc_sta__baselibs__message_passing--><g id="elem_comp_arc_sta__baselibs__message_passing"><rect fill="#F1F1F1" height="40" id="comp_arc_sta__baselibs__message_passing" rx="2.5" ry="2.5" style="stroke:#181818;stroke-width:0.5;" width="337.1357" x="1031.5" y="275.5"/><ellipse cx="1046.5" cy="291.5" fill="#ADD1B2" rx="11" ry="11" style="stroke:#181818;stroke-width:1;"/><path d="M1049.4688,297.1406 Q1048.8906,297.4375 1048.25,297.5781 Q1047.6094,297.7344 1046.9063,297.7344 Q1044.4063,297.7344 1043.0781,296.0938 Q1041.7656,294.4375 1041.7656,291.3125 Q1041.7656,288.1875 1043.0781,286.5313 Q1044.4063,284.875 1046.9063,284.875 Q1047.6094,284.875 1048.25,285.0313 Q1048.9063,285.1875 1049.4688,285.4844 L1049.4688,288.2031 Q1048.8438,287.625 1048.25,287.3594 Q1047.6563,287.0781 1047.0313,287.0781 Q1045.6875,287.0781 1045,288.1563 Q1044.3125,289.2188 1044.3125,291.3125 Q1044.3125,293.4063 1045,294.4844 Q1045.6875,295.5469 1047.0313,295.5469 Q1047.6563,295.5469 1048.25,295.2813 Q1048.8438,295 1049.4688,294.4219 L1049.4688,297.1406 Z " fill="#000000"/><text fill="#000000" font-family="sans-serif" font-size="14" lengthAdjust="spacing" textLength="305.1357" x="1060.5" y="296.3467">comp_arc_sta__baselibs__message_passing</text><line style="stroke:#181818;stroke-width:0.5;" x1="1032.5" x2="1367.6357" y1="307.5" y2="307.5"/></g><!--class logic_arc_int__baselibs__shared_future--><g id="elem_logic_arc_int__baselibs__shared_future"><rect fill="#F1F1F1" height="40" id="logic_arc_int__baselibs__shared_future" rx="2.5" ry="2.5" style="stroke:#181818;stroke-width:0.5;" width="302.0811" x="3240" y="158.5"/><ellipse cx="3255" cy="174.5" fill="#ADD1B2" rx="11" ry="11" style="stroke:#181818;stroke-width:1;"/><path d="M3257.9688,180.1406 Q3257.3906,180.4375 3256.75,180.5781 Q3256.1094,180.7344 3255.4063,180.7344 Q3252.9063,180.7344 3251.5781,179.0938 Q3250.2656,177.4375 3250.2656,174.3125 Q3250.2656,171.1875 3251.5781,169.5313 Q3252.9063,167.875 3255.4063,167.875 Q3256.1094,167.875 3256.75,168.0313 Q3257.4063,168.1875 3257.9688,168.4844 L3257.9688,171.2031 Q3257.3438,170.625 3256.75,170.3594 Q3256.1563,170.0781 3255.5313,170.0781 Q3254.1875,170.0781 3253.5,171.1563 Q3252.8125,172.2188 3252.8125,174.3125 Q3252.8125,176.4063 3253.5,177.4844 Q3254.1875,178.5469 3255.5313,178.5469 Q3256.1563,178.5469 3256.75,178.2813 Q3257.3438,178 3257.9688,177.4219 L3257.9688,180.1406 Z " fill="#000000"/><text fill="#000000" font-family="sans-serif" font-size="14" lengthAdjust="spacing" textLength="270.0811" x="3269" y="179.3467">logic_arc_int__baselibs__shared_future</text><line style="stroke:#181818;stroke-width:0.5;" x1="3241" x2="3541.0811" y1="190.5" y2="190.5"/></g><!--class logic_arc_int__baselibs__condition_variable--><g id="elem_logic_arc_int__baselibs__condition_variable"><rect fill="#F1F1F1" height="40" id="logic_arc_int__baselibs__condition_variable" rx="2.5" ry="2.5" style="stroke:#181818;stroke-width:0.5;" width="332.7539" x="4143.5" y="158.5"/><ellipse cx="4158.5" cy="174.5" fill="#ADD1B2" rx="11" ry="11" style="stroke:#181818;stroke-width:1;"/><path d="M4161.4688,180.1406 Q4160.8906,180.4375 4160.25,180.5781 Q4159.6094,180.7344 4158.9063,180.7344 Q4156.4063,180.7344 4155.0781,179.0938 Q4153.7656,177.4375 4153.7656,174.3125 Q4153.7656,171.1875 4155.0781,169.5313 Q4156.4063,167.875 4158.9063,167.875 Q4159.6094,167.875 4160.25,168.0313 Q4160.9063,168.1875 4161.4688,168.4844 L4161.4688,171.2031 Q4160.8438,170.625 4160.25,170.3594 Q4159.6563,170.0781 4159.0313,170.0781 Q4157.6875,170.0781 4157,171.1563 Q4156.3125,172.2188 4156.3125,174.3125 Q4156.3125,176.4063 4157,177.4844 Q4157.6875,178.5469 4159.0313,178.5469 Q4159.6563,178.5469 4160.25,178.2813 Q4160.8438,178 4161.4688,177.4219 L4161.4688,180.1406 Z " fill="#000000"/><text fill="#000000" font-family="sans-serif" font-size="14" lengthAdjust="spacing" textLength="300.7539" x="4172.5" y="179.3467">logic_arc_int__baselibs__condition_variable</text><line style="stroke:#181818;stroke-width:0.5;" x1="4144.5" x2="4475.2539" y1="190.5" y2="190.5"/></g><!--class logic_arc_int__baselibs__promise--><g id="elem_logic_arc_int__baselibs__promise"><rect fill="#F1F1F1" height="40" id="logic_arc_int__baselibs__promise" rx="2.5" ry="2.5" style="stroke:#181818;stroke-width:0.5;" width="261.1885" x="3577.5" y="158.5"/><ellipse cx="3592.5" cy="174.5" fill="#ADD1B2" rx="11" ry="11" style="stroke:#181818;stroke-width:1;"/><path d="M3595.4688,180.1406 Q3594.8906,180.4375 3594.25,180.5781 Q3593.6094,180.7344 3592.9063,180.7344 Q3590.4063,180.7344 3589.0781,179.0938 Q3587.7656,177.4375 3587.7656,174.3125 Q3587.7656,171.1875 3589.0781,169.5313 Q3590.4063,167.875 3592.9063,167.875 Q3593.6094,167.875 3594.25,168.0313 Q3594.9063,168.1875 3595.4688,168.4844 L3595.4688,171.2031 Q3594.8438,170.625 3594.25,170.3594 Q3593.6563,170.0781 3593.0313,170.0781 Q3591.6875,170.0781 3591,171.1563 Q3590.3125,172.2188 3590.3125,174.3125 Q3590.3125,176.4063 3591,177.4844 Q3591.6875,178.5469 3593.0313,178.5469 Q3593.6563,178.5469 3594.25,178.2813 Q3594.8438,178 3595.4688,177.4219 L3595.4688,180.1406 Z " fill="#000000"/><text fill="#000000" font-family="sans-serif" font-size="14" lengthAdjust="spacing" textLength="229.1885" x="3606.5" y="179.3467">logic_arc_int__baselibs__promise</text><line style="stroke:#181818;stroke-width:0.5;" x1="3578.5" x2="3837.6885" y1="190.5" y2="190.5"/></g><!--class logic_arc_int__baselibs__task_result--><g id="elem_logic_arc_int__baselibs__task_result"><rect fill="#F1F1F1" height="40" id="logic_arc_int__baselibs__task_result" rx="2.5" ry="2.5" style="stroke:#181818;stroke-width:0.5;" width="280.9307" x="2622.5" y="158.5"/><ellipse cx="2637.5" cy="174.5" fill="#ADD1B2" rx="11" ry="11" style="stroke:#181818;stroke-width:1;"/><path d="M2640.4688,180.1406 Q2639.8906,180.4375 2639.25,180.5781 Q2638.6094,180.7344 2637.9063,180.7344 Q2635.4063,180.7344 2634.0781,179.0938 Q2632.7656,177.4375 2632.7656,174.3125 Q2632.7656,171.1875 2634.0781,169.5313 Q2635.4063,167.875 2637.9063,167.875 Q2638.6094,167.875 2639.25,168.0313 Q2639.9063,168.1875 2640.4688,168.4844 L2640.4688,171.2031 Q2639.8438,170.625 2639.25,170.3594 Q2638.6563,170.0781 2638.0313,170.0781 Q2636.6875,170.0781 2636,171.1563 Q2635.3125,172.2188 2635.3125,174.3125 Q2635.3125,176.4063 2636,177.4844 Q2636.6875,178.5469 2638.0313,178.5469 Q2638.6563,178.5469 2639.25,178.2813 Q2639.8438,178 2640.4688,177.4219 L2640.4688,180.1406 Z " fill="#000000"/><text fill="#000000" font-family="sans-serif" font-size="14" lengthAdjust="spacing" textLength="248.9307" x="2651.5" y="179.3467">logic_arc_int__baselibs__task_result</text><line style="stroke:#181818;stroke-width:0.5;" x1="2623.5" x2="2902.4307" y1="190.5" y2="190.5"/></g><!--class logic_arc_int__baselibs__intrusive_list--><g id="elem_logic_arc_int__baselibs__intrusive_list"><rect fill="#F1F1F1" height="40" id="logic_arc_int__baselibs__intrusive_list" rx="2.5" ry="2.5" style="stroke:#181818;stroke-width:0.5;" width="293.0713" x="350.5" y="158.5"/><ellipse cx="365.5" cy="174.5" fill="#ADD1B2" rx="11" ry="11" style="stroke:#181818;stroke-width:1;"/><path d="M368.4688,180.1406 Q367.8906,180.4375 367.25,180.5781 Q366.6094,180.7344 365.9063,180.7344 Q363.4063,180.7344 362.0781,179.0938 Q360.7656,177.4375 360.7656,174.3125 Q360.7656,171.1875 362.0781,169.5313 Q363.4063,167.875 365.9063,167.875 Q366.6094,167.875 367.25,168.0313 Q367.9063,168.1875 368.4688,168.4844 L368.4688,171.2031 Q367.8438,170.625 367.25,170.3594 Q366.6563,170.0781 366.0313,170.0781 Q364.6875,170.0781 364,171.1563 Q363.3125,172.2188 363.3125,174.3125 Q363.3125,176.4063 364,177.4844 Q364.6875,178.5469 366.0313,178.5469 Q366.6563,178.5469 367.25,178.2813 Q367.8438,178 368.4688,177.4219 L368.4688,180.1406 Z " fill="#000000"/><text fill="#000000" font-family="sans-serif" font-size="14" lengthAdjust="spacing" textLength="261.0713" x="379.5" y="179.3467">logic_arc_int__baselibs__intrusive_list</text><line style="stroke:#181818;stroke-width:0.5;" x1="351.5" x2="642.5713" y1="190.5" y2="190.5"/></g><!--class logic_arc_int__baselibs__utils_scoped_op--><g id="elem_logic_arc_int__baselibs__utils_scoped_op"><rect fill="#F1F1F1" height="40" id="logic_arc_int__baselibs__utils_scoped_op" rx="2.5" ry="2.5" style="stroke:#181818;stroke-width:0.5;" width="315.377" x="1722.5" y="158.5"/><ellipse cx="1737.5" cy="174.5" fill="#ADD1B2" rx="11" ry="11" style="stroke:#181818;stroke-width:1;"/><path d="M1740.4688,180.1406 Q1739.8906,180.4375 1739.25,180.5781 Q1738.6094,180.7344 1737.9063,180.7344 Q1735.4063,180.7344 1734.0781,179.0938 Q1732.7656,177.4375 1732.7656,174.3125 Q1732.7656,171.1875 1734.0781,169.5313 Q1735.4063,167.875 1737.9063,167.875 Q1738.6094,167.875 1739.25,168.0313 Q1739.9063,168.1875 1740.4688,168.4844 L1740.4688,171.2031 Q1739.8438,170.625 1739.25,170.3594 Q1738.6563,170.0781 1738.0313,170.0781 Q1736.6875,170.0781 1736,171.1563 Q1735.3125,172.2188 1735.3125,174.3125 Q1735.3125,176.4063 1736,177.4844 Q1736.6875,178.5469 1738.0313,178.5469 Q1738.6563,178.5469 1739.25,178.2813 Q1739.8438,178 1740.4688,177.4219 L1740.4688,180.1406 Z " fill="#000000"/><text fill="#000000" font-family="sans-serif" font-size="14" lengthAdjust="spacing" textLength="283.377" x="1751.5" y="179.3467">logic_arc_int__baselibs__utils_scoped_op</text><line style="stroke:#181818;stroke-width:0.5;" x1="1723.5" x2="2036.877" y1="190.5" y2="190.5"/></g><!--class comp_arc_sta__baselibs__memory_shared--><g id="elem_comp_arc_sta__baselibs__memory_shared"><rect fill="#F1F1F1" height="40" id="comp_arc_sta__baselibs__memory_shared" rx="2.5" ry="2.5" style="stroke:#181818;stroke-width:0.5;" width="327.0117" x="669.5" y="275.5"/><ellipse cx="684.5" cy="291.5" fill="#ADD1B2" rx="11" ry="11" style="stroke:#181818;stroke-width:1;"/><path d="M687.4688,297.1406 Q686.8906,297.4375 686.25,297.5781 Q685.6094,297.7344 684.9063,297.7344 Q682.4063,297.7344 681.0781,296.0938 Q679.7656,294.4375 679.7656,291.3125 Q679.7656,288.1875 681.0781,286.5313 Q682.4063,284.875 684.9063,284.875 Q685.6094,284.875 686.25,285.0313 Q686.9063,285.1875 687.4688,285.4844 L687.4688,288.2031 Q686.8438,287.625 686.25,287.3594 Q685.6563,287.0781 685.0313,287.0781 Q683.6875,287.0781 683,288.1563 Q682.3125,289.2188 682.3125,291.3125 Q682.3125,293.4063 683,294.4844 Q683.6875,295.5469 685.0313,295.5469 Q685.6563,295.5469 686.25,295.2813 Q686.8438,295 687.4688,294.4219 L687.4688,297.1406 Z " fill="#000000"/><text fill="#000000" font-family="sans-serif" font-size="14" lengthAdjust="spacing" textLength="295.0117" x="698.5" y="296.3467">comp_arc_sta__baselibs__memory_shared</text><line style="stroke:#181818;stroke-width:0.5;" x1="670.5" x2="995.5117" y1="307.5" y2="307.5"/></g><!--class logic_arc_int__baselibs__memory_shared--><g id="elem_logic_arc_int__baselibs__memory_shared"><rect fill="#F1F1F1" height="40" id="logic_arc_int__baselibs__memory_shared" rx="2.5" ry="2.5" style="stroke:#181818;stroke-width:0.5;" width="318.043" x="679" y="158.5"/><ellipse cx="694" cy="174.5" fill="#ADD1B2" rx="11" ry="11" style="stroke:#181818;stroke-width:1;"/><path d="M696.9688,180.1406 Q696.3906,180.4375 695.75,180.5781 Q695.1094,180.7344 694.4063,180.7344 Q691.9063,180.7344 690.5781,179.0938 Q689.2656,177.4375 689.2656,174.3125 Q689.2656,171.1875 690.5781,169.5313 Q691.9063,167.875 694.4063,167.875 Q695.1094,167.875 695.75,168.0313 Q696.4063,168.1875 696.9688,168.4844 L696.9688,171.2031 Q696.3438,170.625 695.75,170.3594 Q695.1563,170.0781 694.5313,170.0781 Q693.1875,170.0781 692.5,171.1563 Q691.8125,172.2188 691.8125,174.3125 Q691.8125,176.4063 692.5,177.4844 Q693.1875,178.5469 694.5313,178.5469 Q695.1563,178.5469 695.75,178.2813 Q696.3438,178 696.9688,177.4219 L696.9688,180.1406 Z " fill="#000000"/><text fill="#000000" font-family="sans-serif" font-size="14" lengthAdjust="spacing" textLength="286.043" x="708" y="179.3467">logic_arc_int__baselibs__memory_shared</text><line style="stroke:#181818;stroke-width:0.5;" x1="680" x2="996.043" y1="190.5" y2="190.5"/></g><!--class comp_arc_sta__baselibs__containers--><g id="elem_comp_arc_sta__baselibs__containers"><rect fill="#F1F1F1" height="40" id="comp_arc_sta__baselibs__containers" rx="2.5" ry="2.5" style="stroke:#181818;stroke-width:0.5;" width="287.1445" x="237.5" y="275.5"/><ellipse cx="252.5" cy="291.5" fill="#ADD1B2" rx="11" ry="11" style="stroke:#181818;stroke-width:1;"/><path d="M255.4688,297.1406 Q254.8906,297.4375 254.25,297.5781 Q253.6094,297.7344 252.9063,297.7344 Q250.4063,297.7344 249.0781,296.0938 Q247.7656,294.4375 247.7656,291.3125 Q247.7656,288.1875 249.0781,286.5313 Q250.4063,284.875 252.9063,284.875 Q253.6094,284.875 254.25,285.0313 Q254.9063,285.1875 255.4688,285.4844 L255.4688,288.2031 Q254.8438,287.625 254.25,287.3594 Q253.6563,287.0781 253.0313,287.0781 Q251.6875,287.0781 251,288.1563 Q250.3125,289.2188 250.3125,291.3125 Q250.3125,293.4063 251,294.4844 Q251.6875,295.5469 253.0313,295.5469 Q253.6563,295.5469 254.25,295.2813 Q254.8438,295 255.4688,294.4219 L255.4688,297.1406 Z " fill="#000000"/><text fill="#000000" font-family="sans-serif" font-size="14" lengthAdjust="spacing" textLength="255.1445" x="266.5" y="296.3467">comp_arc_sta__baselibs__containers</text><line style="stroke:#181818;stroke-width:0.5;" x1="238.5" x2="523.6445" y1="307.5" y2="307.5"/></g><!--link Feature_User to logic_arc_int__baselibs__task--><g id="link_Feature_User_logic_arc_int__baselibs__task"><path codeLine="15" d="M3117.26,51.05 C3254.45,70.91 3662.8518,130.0107 3867.7518,159.6607 " fill="transparent" id="Feature_User-to-logic_arc_int__baselibs__task" style="stroke:#181818;stroke-width:1;"/><polygon fill="#181818" points="3873.69,160.52,3865.3556,155.2723,3868.7415,159.8039,3864.2099,163.1898,3873.69,160.52" style="stroke:#181818;stroke-width:1;"/><text fill="#000000" font-family="sans-serif" font-size="13" lengthAdjust="spacing" textLength="23.0103" x="3641" y="124.5669">use</text></g><!--reverse link logic_arc_int__baselibs__future to comp_arc_sta__baselibs__concurrency--><g id="link_logic_arc_int__baselibs__future_comp_arc_sta__baselibs__concurrency"><path codeLine="16" d="M2593.7393,197.0582 C2599.5493,197.8182 2599.36,197.78 2605,198.5 C2777.74,220.57 2820.83,227.05 2994,245.5 C3122.42,259.18 3268.56,272.5 3374.97,281.79 " fill="transparent" id="logic_arc_int__baselibs__future-backto-comp_arc_sta__baselibs__concurrency" style="stroke:#181818;stroke-width:1;"/><polygon fill="#181818" points="2587.79,196.28,2596.1952,201.4135,2592.7478,196.9285,2597.2328,193.4811,2587.79,196.28" style="stroke:#181818;stroke-width:1;"/><text fill="#000000" font-family="sans-serif" font-size="13" lengthAdjust="spacing" textLength="76.9082" x="2995" y="241.5669">implements</text></g><!--reverse link logic_arc_int__baselibs__synchronized_queue to comp_arc_sta__baselibs__concurrency--><g id="link_logic_arc_int__baselibs__synchronized_queue_comp_arc_sta__baselibs__concurrency"><path codeLine="17" d="M4507.7853,199.1801 C4383.1853,212.7601 4216.73,230.55 4065,245.5 C3933.38,258.47 3783.58,271.96 3675.2,281.5 " fill="transparent" id="logic_arc_int__baselibs__synchronized_queue-backto-comp_arc_sta__baselibs__concurrency" style="stroke:#181818;stroke-width:1;"/><polygon fill="#181818" points="4513.75,198.53,4504.3696,195.5287,4508.7794,199.0717,4505.2364,203.4816,4513.75,198.53" style="stroke:#181818;stroke-width:1;"/><text fill="#000000" font-family="sans-serif" font-size="13" lengthAdjust="spacing" textLength="76.9082" x="4219" y="241.5669">implements</text></g><!--reverse link logic_arc_int__baselibs__result to comp_arc_sta__baselibs__result--><g id="link_logic_arc_int__baselibs__result_comp_arc_sta__baselibs__result"><path codeLine="18" d="M6056,204.75 C6056,225.98 6056,253.94 6056,275.19 " fill="transparent" id="logic_arc_int__baselibs__result-backto-comp_arc_sta__baselibs__result" style="stroke:#181818;stroke-width:1;"/><polygon fill="#181818" points="6056,198.75,6052,207.75,6056,203.75,6060,207.75,6056,198.75" style="stroke:#181818;stroke-width:1;"/><text fill="#000000" font-family="sans-serif" font-size="13" lengthAdjust="spacing" textLength="76.9082" x="6057" y="241.5669">implements</text></g><!--reverse link logic_arc_int__baselibs__task to comp_arc_sta__baselibs__concurrency--><g id="link_logic_arc_int__baselibs__task_comp_arc_sta__baselibs__concurrency"><path codeLine="19" d="M3907.9648,199.9877 C3821.7048,221.2777 3688.69,254.11 3602.36,275.41 " fill="transparent" id="logic_arc_int__baselibs__task-backto-comp_arc_sta__baselibs__concurrency" style="stroke:#181818;stroke-width:1;"/><polygon fill="#181818" points="3913.79,198.55,3904.0937,196.8231,3908.9357,199.7481,3906.0107,204.5901,3913.79,198.55" style="stroke:#181818;stroke-width:1;"/><text fill="#000000" font-family="sans-serif" font-size="13" lengthAdjust="spacing" textLength="76.9082" x="3786" y="241.5669">implements</text></g><!--reverse link logic_arc_int__baselibs__bit_mask_operator to comp_arc_sta__baselibs__bit_manipulation--><g id="link_logic_arc_int__baselibs__bit_mask_operator_comp_arc_sta__baselibs__bit_manipulation"><path codeLine="20" d="M5409.0081,201.993 C5442.1481,223.283 5490.18,254.14 5523.24,275.38 " fill="transparent" id="logic_arc_int__baselibs__bit_mask_operator-backto-comp_arc_sta__baselibs__bit_manipulation" style="stroke:#181818;stroke-width:1;"/><polygon fill="#181818" points="5403.96,198.75,5409.3701,206.9799,5408.1667,201.4525,5413.6941,200.2491,5403.96,198.75" style="stroke:#181818;stroke-width:1;"/><text fill="#000000" font-family="sans-serif" font-size="13" lengthAdjust="spacing" textLength="76.9082" x="5475" y="241.5669">implements</text></g><!--reverse link logic_arc_int__baselibs__bit_manipulation to comp_arc_sta__baselibs__bit_manipulation--><g id="link_logic_arc_int__baselibs__bit_manipulation_comp_arc_sta__baselibs__bit_manipulation"><path codeLine="21" d="M5701.9438,201.9169 C5667.6838,223.2069 5617.93,254.14 5583.76,275.38 " fill="transparent" id="logic_arc_int__baselibs__bit_manipulation-backto-comp_arc_sta__baselibs__bit_manipulation" style="stroke:#181818;stroke-width:1;"/><polygon fill="#181818" points="5707.04,198.75,5697.2845,200.1029,5702.7932,201.3891,5701.507,206.8978,5707.04,198.75" style="stroke:#181818;stroke-width:1;"/><text fill="#000000" font-family="sans-serif" font-size="13" lengthAdjust="spacing" textLength="76.9082" x="5657" y="241.5669">implements</text></g><!--link Feature_User to logic_arc_int__baselibs__message_passing--><g id="link_Feature_User_logic_arc_int__baselibs__message_passing"><path codeLine="22" d="M3026.76,46.8 C2830.27,56.96 2031.35,99.88 1377,158.5 C1371.49,158.99 1371.8638,158.9496 1366.2138,159.4796 " fill="transparent" id="Feature_User-to-logic_arc_int__baselibs__message_passing" style="stroke:#181818;stroke-width:1;"/><polygon fill="#181818" points="1360.24,160.04,1369.5742,163.182,1365.2181,159.573,1368.8271,155.2169,1360.24,160.04" style="stroke:#181818;stroke-width:1;"/><text fill="#000000" font-family="sans-serif" font-size="13" lengthAdjust="spacing" textLength="23.0103" x="1937" y="124.5669">use</text></g><!--reverse link logic_arc_int__baselibs__executor to comp_arc_sta__baselibs__concurrency--><g id="link_logic_arc_int__baselibs__executor_comp_arc_sta__baselibs__concurrency"><path codeLine="23" d="M3152.8755,200.0266 C3236.7255,221.3166 3365.88,254.11 3449.8,275.41 " fill="transparent" id="logic_arc_int__baselibs__executor-backto-comp_arc_sta__baselibs__concurrency" style="stroke:#181818;stroke-width:1;"/><polygon fill="#181818" points="3147.06,198.55,3154.7988,204.6419,3151.9062,199.7805,3156.7676,196.8879,3147.06,198.55" style="stroke:#181818;stroke-width:1;"/><text fill="#000000" font-family="sans-serif" font-size="13" lengthAdjust="spacing" textLength="76.9082" x="3326" y="241.5669">implements</text></g><!--link Feature_User to logic_arc_int__baselibs__dynamic_array--><g id="link_Feature_User_logic_arc_int__baselibs__dynamic_array"><path codeLine="24" d="M3026.87,45.38 C2806.85,49.79 1824.69,70.93 1021,111.5 C714.9,126.95 638.27,131.22 333,158.5 C327.16,159.02 327.1922,158.9927 321.1922,159.5727 " fill="transparent" id="Feature_User-to-logic_arc_int__baselibs__dynamic_array" style="stroke:#181818;stroke-width:1;"/><polygon fill="#181818" points="315.22,160.15,324.5631,163.2655,320.1968,159.6689,323.7934,155.3026,315.22,160.15" style="stroke:#181818;stroke-width:1;"/><text fill="#000000" font-family="sans-serif" font-size="13" lengthAdjust="spacing" textLength="23.0103" x="1022" y="124.5669">use</text></g><!--link Feature_User to logic_arc_int__baselibs__result--><g id="link_Feature_User_logic_arc_int__baselibs__result"><path codeLine="25" d="M3117.07,45.42 C3340,50.08 4347.03,72.4 5171,111.5 C5502.84,127.25 5586.43,125.54 5917,158.5 C5922.45,159.04 5922.0573,158.9716 5927.6773,159.6016 " fill="transparent" id="Feature_User-to-logic_arc_int__baselibs__result" style="stroke:#181818;stroke-width:1;"/><polygon fill="#181818" points="5933.64,160.27,5925.1416,155.2923,5928.6711,159.713,5924.2504,163.2425,5933.64,160.27" style="stroke:#181818;stroke-width:1;"/><text fill="#000000" font-family="sans-serif" font-size="13" lengthAdjust="spacing" textLength="23.0103" x="5533" y="124.5669">use</text></g><!--reverse link logic_arc_int__baselibs__utils_base64 to comp_arc_sta__baselibs__utils--><g id="link_logic_arc_int__baselibs__utils_base64_comp_arc_sta__baselibs__utils"><path codeLine="26" d="M1574.2506,202.1252 C1605.5406,223.4152 1650.69,254.14 1681.9,275.38 " fill="transparent" id="logic_arc_int__baselibs__utils_base64-backto-comp_arc_sta__baselibs__utils" style="stroke:#181818;stroke-width:1;"/><polygon fill="#181818" points="1569.29,198.75,1574.4808,207.1199,1573.4238,201.5627,1578.9811,200.5058,1569.29,198.75" style="stroke:#181818;stroke-width:1;"/><text fill="#000000" font-family="sans-serif" font-size="13" lengthAdjust="spacing" textLength="76.9082" x="1637" y="241.5669">implements</text></g><!--reverse link logic_arc_int__baselibs__filesystem to comp_arc_sta__baselibs__filesystem--><g id="link_logic_arc_int__baselibs__filesystem_comp_arc_sta__baselibs__filesystem"><path codeLine="27" d="M5033,204.75 C5033,225.98 5033,253.94 5033,275.19 " fill="transparent" id="logic_arc_int__baselibs__filesystem-backto-comp_arc_sta__baselibs__filesystem" style="stroke:#181818;stroke-width:1;"/><polygon fill="#181818" points="5033,198.75,5029,207.75,5033,203.75,5037,207.75,5033,198.75" style="stroke:#181818;stroke-width:1;"/><text fill="#000000" font-family="sans-serif" font-size="13" lengthAdjust="spacing" textLength="76.9082" x="5034" y="241.5669">implements</text></g><!--reverse link logic_arc_int__baselibs__json to comp_arc_sta__baselibs__json--><g id="link_logic_arc_int__baselibs__json_comp_arc_sta__baselibs__json"><path codeLine="28" d="M2189,204.75 C2189,225.98 2189,253.94 2189,275.19 " fill="transparent" id="logic_arc_int__baselibs__json-backto-comp_arc_sta__baselibs__json" style="stroke:#181818;stroke-width:1;"/><polygon fill="#181818" points="2189,198.75,2185,207.75,2189,203.75,2193,207.75,2189,198.75" style="stroke:#181818;stroke-width:1;"/><text fill="#000000" font-family="sans-serif" font-size="13" lengthAdjust="spacing" textLength="76.9082" x="2190" y="241.5669">implements</text></g><!--reverse link logic_arc_int__baselibs__message_passing to comp_arc_sta__baselibs__message_passing--><g id="link_logic_arc_int__baselibs__message_passing_comp_arc_sta__baselibs__message_passing"><path codeLine="29" d="M1196.879,204.7464 C1197.619,225.9764 1198.59,253.94 1199.33,275.19 " fill="transparent" id="logic_arc_int__baselibs__message_passing-backto-comp_arc_sta__baselibs__message_passing" style="stroke:#181818;stroke-width:1;"/><polygon fill="#181818" points="1196.67,198.75,1192.9859,207.8839,1196.8442,203.747,1200.9811,207.6052,1196.67,198.75" style="stroke:#181818;stroke-width:1;"/><text fill="#000000" font-family="sans-serif" font-size="13" lengthAdjust="spacing" textLength="76.9082" x="1200" y="241.5669">implements</text></g><!--link Feature_User to logic_arc_int__baselibs__utils_base64--><g id="link_Feature_User_logic_arc_int__baselibs__utils_base64"><path codeLine="30" d="M3026.82,47.74 C2854.7,60.18 2223.69,106.84 1705,158.5 C1699.15,159.08 1699.1574,159.0655 1693.1374,159.6955 " fill="transparent" id="Feature_User-to-logic_arc_int__baselibs__utils_base64" style="stroke:#181818;stroke-width:1;"/><polygon fill="#181818" points="1687.17,160.32,1696.5374,163.3615,1692.1428,159.7996,1695.7048,155.405,1687.17,160.32" style="stroke:#181818;stroke-width:1;"/><text fill="#000000" font-family="sans-serif" font-size="13" lengthAdjust="spacing" textLength="23.0103" x="2195" y="124.5669">use</text></g><!--link Feature_User to logic_arc_int__baselibs__shared_future--><g id="link_Feature_User_logic_arc_int__baselibs__shared_future"><path codeLine="31" d="M3117.03,63.27 C3177.57,88.51 3279.0721,130.8309 3339.8921,156.1909 " fill="transparent" id="Feature_User-to-logic_arc_int__baselibs__shared_future" style="stroke:#181818;stroke-width:1;"/><polygon fill="#181818" points="3345.43,158.5,3338.6626,151.3444,3340.8151,156.5757,3335.5838,158.7282,3345.43,158.5" style="stroke:#181818;stroke-width:1;"/><text fill="#000000" font-family="sans-serif" font-size="13" lengthAdjust="spacing" textLength="23.0103" x="3270" y="124.5669">use</text></g><!--link Feature_User to logic_arc_int__baselibs__condition_variable--><g id="link_Feature_User_logic_arc_int__baselibs__condition_variable"><path codeLine="32" d="M3117.16,49.35 C3281.92,67.05 3850.0543,128.0892 4137.4643,158.9592 " fill="transparent" id="Feature_User-to-logic_arc_int__baselibs__condition_variable" style="stroke:#181818;stroke-width:1;"/><polygon fill="#181818" points="4143.43,159.6,4134.9086,154.6617,4138.4586,159.066,4134.0543,162.616,4143.43,159.6" style="stroke:#181818;stroke-width:1;"/><text fill="#000000" font-family="sans-serif" font-size="13" lengthAdjust="spacing" textLength="23.0103" x="3839" y="124.5669">use</text></g><!--link Feature_User to logic_arc_int__baselibs__executor--><g id="link_Feature_User_logic_arc_int__baselibs__executor"><path codeLine="33" d="M3072,81.55 C3072,106.45 3072,132.26 3072,152.26 " fill="transparent" id="Feature_User-to-logic_arc_int__baselibs__executor" style="stroke:#181818;stroke-width:1;"/><polygon fill="#181818" points="3072,158.26,3076,149.26,3072,153.26,3068,149.26,3072,158.26" style="stroke:#181818;stroke-width:1;"/><text fill="#000000" font-family="sans-serif" font-size="13" lengthAdjust="spacing" textLength="23.0103" x="3073" y="124.5669">use</text></g><!--reverse link logic_arc_int__baselibs__condition_variable to comp_arc_sta__baselibs__concurrency--><g id="link_logic_arc_int__baselibs__condition_variable_comp_arc_sta__baselibs__concurrency"><path codeLine="34" d="M4179.218,199.461 C4091.388,212.801 3977.01,230.03 3871,245.5 C3801.96,255.58 3725.13,266.49 3661.44,275.45 " fill="transparent" id="logic_arc_int__baselibs__condition_variable-backto-comp_arc_sta__baselibs__concurrency" style="stroke:#181818;stroke-width:1;"/><polygon fill="#181818" points="4185.15,198.56,4175.6514,195.9568,4180.2067,199.3108,4176.8527,203.8661,4185.15,198.56" style="stroke:#181818;stroke-width:1;"/><text fill="#000000" font-family="sans-serif" font-size="13" lengthAdjust="spacing" textLength="76.9082" x="3980" y="241.5669">implements</text></g><!--link Feature_User to logic_arc_int__baselibs__json--><g id="link_Feature_User_logic_arc_int__baselibs__json"><path codeLine="35" d="M3027,51.28 C2894.59,71.22 2509.2331,129.2665 2311.7531,159.0065 " fill="transparent" id="Feature_User-to-logic_arc_int__baselibs__json" style="stroke:#181818;stroke-width:1;"/><polygon fill="#181818" points="2305.82,159.9,2315.3153,162.5151,2310.7642,159.1554,2314.124,154.6043,2305.82,159.9" style="stroke:#181818;stroke-width:1;"/><text fill="#000000" font-family="sans-serif" font-size="13" lengthAdjust="spacing" textLength="23.0103" x="2605" y="124.5669">use</text></g><!--link Feature_User to logic_arc_int__baselibs__promise--><g id="link_Feature_User_logic_arc_int__baselibs__promise"><path codeLine="36" d="M3117.23,53.96 C3221.17,75.69 3472.827,128.3219 3611.027,157.2219 " fill="transparent" id="Feature_User-to-logic_arc_int__baselibs__promise" style="stroke:#181818;stroke-width:1;"/><polygon fill="#181818" points="3616.9,158.45,3608.9093,152.6925,3612.0059,157.4266,3607.2718,160.5231,3616.9,158.45" style="stroke:#181818;stroke-width:1;"/><text fill="#000000" font-family="sans-serif" font-size="13" lengthAdjust="spacing" textLength="23.0103" x="3466" y="124.5669">use</text></g><!--link Feature_User to logic_arc_int__baselibs__task_result--><g id="link_Feature_User_logic_arc_int__baselibs__task_result"><path codeLine="37" d="M3026.74,63.98 C2967.9,89.31 2871.2911,130.8876 2812.8911,156.0276 " fill="transparent" id="Feature_User-to-logic_arc_int__baselibs__task_result" style="stroke:#181818;stroke-width:1;"/><polygon fill="#181818" points="2807.38,158.4,2817.2282,158.5154,2811.9725,156.423,2814.065,151.1674,2807.38,158.4" style="stroke:#181818;stroke-width:1;"/><text fill="#000000" font-family="sans-serif" font-size="13" lengthAdjust="spacing" textLength="23.0103" x="2909" y="124.5669">use</text></g><!--link Feature_User to logic_arc_int__baselibs__intrusive_list--><g id="link_Feature_User_logic_arc_int__baselibs__intrusive_list"><path codeLine="38" d="M3026.75,45.85 C2830.18,51.8 2030.86,76.97 1375,111.5 C1057.42,128.22 977.72,129.75 661,158.5 C655.29,159.02 655.4409,158.98 649.5709,159.56 " fill="transparent" id="Feature_User-to-logic_arc_int__baselibs__intrusive_list" style="stroke:#181818;stroke-width:1;"/><polygon fill="#181818" points="643.6,160.15,652.9497,163.2457,648.5758,159.6584,652.1631,155.2844,643.6,160.15" style="stroke:#181818;stroke-width:1;"/><text fill="#000000" font-family="sans-serif" font-size="13" lengthAdjust="spacing" textLength="23.0103" x="1376" y="124.5669">use</text></g><!--reverse link logic_arc_int__baselibs__utils_scoped_op to comp_arc_sta__baselibs__utils--><g id="link_logic_arc_int__baselibs__utils_scoped_op_comp_arc_sta__baselibs__utils"><path codeLine="39" d="M1846.5799,202.1113 C1815.0999,223.4013 1769.66,254.14 1738.26,275.38 " fill="transparent" id="logic_arc_int__baselibs__utils_scoped_op-backto-comp_arc_sta__baselibs__utils" style="stroke:#181818;stroke-width:1;"/><polygon fill="#181818" points="1851.55,198.75,1841.854,200.4785,1847.4083,201.5511,1846.3357,207.1053,1851.55,198.75" style="stroke:#181818;stroke-width:1;"/><text fill="#000000" font-family="sans-serif" font-size="13" lengthAdjust="spacing" textLength="76.9082" x="1807" y="241.5669">implements</text></g><!--link Feature_User to logic_arc_int__baselibs__utils_scoped_op--><g id="link_Feature_User_logic_arc_int__baselibs__utils_scoped_op"><path codeLine="40" d="M3026.73,49.55 C2865.24,67.57 2318.433,128.5847 2043.643,159.2447 " fill="transparent" id="Feature_User-to-logic_arc_int__baselibs__utils_scoped_op" style="stroke:#181818;stroke-width:1;"/><polygon fill="#181818" points="2037.68,159.91,2047.068,162.8873,2042.6492,159.3556,2046.1809,154.9367,2037.68,159.91" style="stroke:#181818;stroke-width:1;"/><text fill="#000000" font-family="sans-serif" font-size="13" lengthAdjust="spacing" textLength="23.0103" x="2442" y="124.5669">use</text></g><!--reverse link logic_arc_int__baselibs__memory_shared to comp_arc_sta__baselibs__memory_shared--><g id="link_logic_arc_int__baselibs__memory_shared_comp_arc_sta__baselibs__memory_shared"><path codeLine="41" d="M836.9002,204.7444 C835.9802,225.9744 834.76,253.94 833.84,275.19 " fill="transparent" id="logic_arc_int__baselibs__memory_shared-backto-comp_arc_sta__baselibs__memory_shared" style="stroke:#181818;stroke-width:1;"/><polygon fill="#181818" points="837.16,198.75,832.7741,207.5684,836.9435,203.7453,840.7666,207.9147,837.16,198.75" style="stroke:#181818;stroke-width:1;"/><text fill="#000000" font-family="sans-serif" font-size="13" lengthAdjust="spacing" textLength="76.9082" x="837" y="241.5669">implements</text></g><!--link Feature_User to logic_arc_int__baselibs__filesystem--><g id="link_Feature_User_logic_arc_int__baselibs__filesystem"><path codeLine="42" d="M3117.1,46.3 C3321.09,54.68 4177.79,92.2 4878,158.5 C4883.53,159.02 4883.2019,158.9722 4888.9019,159.5622 " fill="transparent" id="Feature_User-to-logic_arc_int__baselibs__filesystem" style="stroke:#181818;stroke-width:1;"/><polygon fill="#181818" points="4894.87,160.18,4886.3297,155.2746,4889.8966,159.6652,4885.506,163.2321,4894.87,160.18" style="stroke:#181818;stroke-width:1;"/><text fill="#000000" font-family="sans-serif" font-size="13" lengthAdjust="spacing" textLength="23.0103" x="4483" y="124.5669">use</text></g><!--reverse link logic_arc_int__baselibs__intrusive_list to comp_arc_sta__baselibs__containers--><g id="link_logic_arc_int__baselibs__intrusive_list_comp_arc_sta__baselibs__containers"><path codeLine="43" d="M473.3195,202.9747 C451.9095,224.2047 421.92,253.94 400.48,275.19 " fill="transparent" id="logic_arc_int__baselibs__intrusive_list-backto-comp_arc_sta__baselibs__containers" style="stroke:#181818;stroke-width:1;"/><polygon fill="#181818" points="477.58,198.75,468.3728,202.2467,474.0296,202.2706,474.0057,207.9274,477.58,198.75" style="stroke:#181818;stroke-width:1;"/><text fill="#000000" font-family="sans-serif" font-size="13" lengthAdjust="spacing" textLength="76.9082" x="447" y="241.5669">implements</text></g><!--reverse link logic_arc_int__baselibs__promise to comp_arc_sta__baselibs__concurrency--><g id="link_logic_arc_int__baselibs__promise_comp_arc_sta__baselibs__concurrency"><path codeLine="44" d="M3672.2898,201.9424 C3638.4098,223.2324 3589.22,254.14 3555.42,275.38 " fill="transparent" id="logic_arc_int__baselibs__promise-backto-comp_arc_sta__baselibs__concurrency" style="stroke:#181818;stroke-width:1;"/><polygon fill="#181818" points="3677.37,198.75,3667.6214,200.1518,3673.1365,201.4103,3671.8779,206.9254,3677.37,198.75" style="stroke:#181818;stroke-width:1;"/><text fill="#000000" font-family="sans-serif" font-size="13" lengthAdjust="spacing" textLength="76.9082" x="3628" y="241.5669">implements</text></g><!--link Feature_User to logic_arc_int__baselibs__bit_mask_operator--><g id="link_Feature_User_logic_arc_int__baselibs__bit_mask_operator"><path codeLine="45" d="M3117.14,45.85 C3341.49,52.8 4358.87,86.95 5189,158.5 C5194.63,158.99 5194.3751,158.9421 5200.1551,159.4721 " fill="transparent" id="Feature_User-to-logic_arc_int__baselibs__bit_mask_operator" style="stroke:#181818;stroke-width:1;"/><polygon fill="#181818" points="5206.13,160.02,5197.5328,155.2149,5201.1509,159.5634,5196.8023,163.1815,5206.13,160.02" style="stroke:#181818;stroke-width:1;"/><text fill="#000000" font-family="sans-serif" font-size="13" lengthAdjust="spacing" textLength="23.0103" x="4785" y="124.5669">use</text></g><!--link Feature_User to logic_arc_int__baselibs__memory_shared--><g id="link_Feature_User_logic_arc_int__baselibs__memory_shared"><path codeLine="46" d="M3026.66,45.94 C2805.65,53.18 1819.2,88.07 1014,158.5 C1008.49,158.98 1008.8539,158.9306 1003.1939,159.4606 " fill="transparent" id="Feature_User-to-logic_arc_int__baselibs__memory_shared" style="stroke:#181818;stroke-width:1;"/><polygon fill="#181818" points="997.22,160.02,1006.5537,163.1635,1002.1982,159.5538,1005.8079,155.1983,997.22,160.02" style="stroke:#181818;stroke-width:1;"/><text fill="#000000" font-family="sans-serif" font-size="13" lengthAdjust="spacing" textLength="23.0103" x="1637" y="124.5669">use</text></g><!--link Feature_User to logic_arc_int__baselibs__bit_manipulation--><g id="link_Feature_User_logic_arc_int__baselibs__bit_manipulation"><path codeLine="47" d="M3117.18,45.82 C3316.96,51.75 4141.04,77.12 4817,111.5 C5147.01,128.28 5229.74,130.61 5559,158.5 C5564.76,158.99 5564.6448,158.955 5570.5648,159.495 " fill="transparent" id="Feature_User-to-logic_arc_int__baselibs__bit_manipulation" style="stroke:#181818;stroke-width:1;"/><polygon fill="#181818" points="5576.54,160.04,5567.9406,155.239,5571.5607,159.5858,5567.2139,163.2059,5576.54,160.04" style="stroke:#181818;stroke-width:1;"/><text fill="#000000" font-family="sans-serif" font-size="13" lengthAdjust="spacing" textLength="23.0103" x="5139" y="124.5669">use</text></g><!--reverse link logic_arc_int__baselibs__shared_future to comp_arc_sta__baselibs__concurrency--><g id="link_logic_arc_int__baselibs__shared_future_comp_arc_sta__baselibs__concurrency"><path codeLine="48" d="M3417.9825,202.6582 C3442.7125,223.8882 3477.73,253.94 3502.5,275.19 " fill="transparent" id="logic_arc_int__baselibs__shared_future-backto-comp_arc_sta__baselibs__concurrency" style="stroke:#181818;stroke-width:1;"/><polygon fill="#181818" points="3413.43,198.75,3417.6533,207.6474,3417.2238,202.0069,3422.8643,201.5773,3413.43,198.75" style="stroke:#181818;stroke-width:1;"/><text fill="#000000" font-family="sans-serif" font-size="13" lengthAdjust="spacing" textLength="76.9082" x="3467" y="241.5669">implements</text></g><!--reverse link logic_arc_int__baselibs__dynamic_array to comp_arc_sta__baselibs__containers--><g id="link_logic_arc_int__baselibs__dynamic_array_comp_arc_sta__baselibs__containers"><path codeLine="49" d="M203.1377,201.5289 C243.8777,222.8189 303.79,254.14 344.42,275.38 " fill="transparent" id="logic_arc_int__baselibs__dynamic_array-backto-comp_arc_sta__baselibs__containers" style="stroke:#181818;stroke-width:1;"/><polygon fill="#181818" points="197.82,198.75,203.9439,206.4635,202.2514,201.0658,207.6491,199.3733,197.82,198.75" style="stroke:#181818;stroke-width:1;"/><text fill="#000000" font-family="sans-serif" font-size="13" lengthAdjust="spacing" textLength="76.9082" x="286" y="241.5669">implements</text></g><!--link Feature_User to logic_arc_int__baselibs__synchronized_queue--><g id="link_Feature_User_logic_arc_int__baselibs__synchronized_queue"><path codeLine="50" d="M3117.16,47.81 C3293.43,60.81 3952.23,109.98 4494,158.5 C4499.84,159.02 4499.8061,159.0015 4505.7961,159.5615 " fill="transparent" id="Feature_User-to-logic_arc_int__baselibs__synchronized_queue" style="stroke:#181818;stroke-width:1;"/><polygon fill="#181818" points="4511.77,160.12,4503.1814,155.2996,4506.7917,159.6546,4502.4367,163.2649,4511.77,160.12" style="stroke:#181818;stroke-width:1;"/><text fill="#000000" font-family="sans-serif" font-size="13" lengthAdjust="spacing" textLength="23.0103" x="4144" y="124.5669">use</text></g><!--reverse link logic_arc_int__baselibs__task_result to comp_arc_sta__baselibs__concurrency--><g id="link_logic_arc_int__baselibs__task_result_comp_arc_sta__baselibs__concurrency"><path codeLine="51" d="M2888.0061,199.4591 C2972.5061,212.8491 3082.7,230.13 3185,245.5 C3252.67,255.67 3327.99,266.57 3390.51,275.5 " fill="transparent" id="logic_arc_int__baselibs__task_result-backto-comp_arc_sta__baselibs__concurrency" style="stroke:#181818;stroke-width:1;"/><polygon fill="#181818" points="2882.08,198.52,2890.3431,203.8793,2887.0184,199.3025,2891.5951,195.9779,2882.08,198.52" style="stroke:#181818;stroke-width:1;"/><text fill="#000000" font-family="sans-serif" font-size="13" lengthAdjust="spacing" textLength="76.9082" x="3186" y="241.5669">implements</text></g><!--link Feature_User to logic_arc_int__baselibs__future--><g id="link_Feature_User_logic_arc_int__baselibs__future"><path codeLine="52" d="M3026.8,54.39 C2926.14,76.41 2687.9614,128.5079 2556.7514,157.2079 " fill="transparent" id="Feature_User-to-logic_arc_int__baselibs__future" style="stroke:#181818;stroke-width:1;"/><polygon fill="#181818" points="2550.89,158.49,2560.5369,160.4745,2555.7745,157.4216,2558.8274,152.6593,2550.89,158.49" style="stroke:#181818;stroke-width:1;"/><text fill="#000000" font-family="sans-serif" font-size="13" lengthAdjust="spacing" textLength="23.0103" x="2750" y="124.5669">use</text></g><!--SRC=[jLR9RXin3BthAuJSdHP1qKCGv5AWfnxRiy3HC3PhBHEHIZCj-k_LsAxZ3PwbqwDc7f-uF982v-8Fu-cLmb99RBH4NKMHw7LD2QrG36f5DMeMJ1YbRN1xHjz8gq4aKPK5MJsmj0uVrIqmkKh_KbyeuAVeOj89wytfwuhiEY2plhjzhtwhXtSx6mLM2kxcCuBaXFeROxhHm7htmNGVj597nqMzUDGkBiaQIDPG46CgO7HKiJ42lBxNcL4h6tspWR308SJ6O7DA66oh5_aQsLFkhhtNv1k77eFm7ApS1hjACT1FhCrpnZpmXeISdVIGRq5pkxpDwX3EYiHu2DHa1vsAUeYtS5wRs6228eR_UCiR_FYI4UhoHSImHDC0SscTsOI6hsZpMVGZ7AlR07xpAq6xSsk4-L_LN0qd2pdk2MI3sPm_VXXMoYToo6qPCxwl6VV0OSJVkLSN7MGOsKdXUtZFP3AngiVP75jKNa6PmFiXDjQygBUchblC2oI2oatWUDFrJ8rooQc9oTqMVsn4JOgUU48gkX5wt6SZZCinPQOND8vulZvbMyPkNMRlFohqWEUgPnvzJErEcBqzT82TxD_XqEYJe41vgwI-p9sMOjv5kvVNn7WlxDEnMZj9_5ZpyrqxK-kVZBE1UHzMr9FrEJ7vbnvsCmL_D3scziBX8lW3]--></g></svg>