<svg xmlns="http://www.w3.org/2000/svg" xmlns:xlink="http://www.w3.org/1999/xlink" contentStyleType="text/css" data-diagram-type="CLASS" height="322px" preserveAspectRatio="none" style="width:6201px;height:322px;background:#FFFFFF;" version="1.1" viewBox="0 0 6201 322" width="6201px" zoomAndPan="magnify"><defs/><g><!--entity Feature_User--><g id="elem_Feature_User"><ellipse cx="3029.6685" cy="14" fill="#F1F1F1" rx="8" ry="8" style="stroke:#181818;stroke-width:0.5;"/><path d="M3029.6685,22 L3029.6685,49 M3016.6685,30 L3042.6685,30 M3029.6685,49 L3016.6685,64 M3029.6685,49 L3042.6685,64 " fill="transparent" style="stroke:#181818;stroke-width:0.5;"/><text fill="#000000" font-family="sans-serif" font-size="14" lengthAdjust="spacing" textLength="90.3369" x="2984.5" y="78.4951">Feature User</text></g><!--class logic_arc_int__baselibs__synchronized_queue--><g id="elem_logic_arc_int__baselibs__synchronized_queue"><rect fill="#F1F1F1" height="40" id="logic_arc_int__baselibs__synchronized_queue" rx="2.5" ry="2.5" style="stroke:#181818;stroke-width:0.5;" width="348.3604" x="3494.5" y="158.5"/><ellipse cx="3509.5" cy="174.5" fill="#ADD1B2" rx="11" ry="11" style="stroke:#181818;stroke-width:1;"/><path d="M3512.4688,180.1406 Q3511.8906,180.4375 3511.25,180.5781 Q3510.6094,180.7344 3509.9063,180.7344 Q3507.4063,180.7344 3506.0781,179.0938 Q3504.7656,177.4375 3504.7656,174.3125 Q3504.7656,171.1875 3506.0781,169.5313 Q3507.4063,167.875 3509.9063,167.875 Q3510.6094,167.875 3511.25,168.0313 Q3511.9063,168.1875 3512.4688,168.4844 L3512.4688,171.2031 Q3511.8438,170.625 3511.25,170.3594 Q3510.6563,170.0781 3510.0313,170.0781 Q3508.6875,170.0781 3508,171.1563 Q3507.3125,172.2188 3507.3125,174.3125 Q3507.3125,176.4063 3508,177.4844 Q3508.6875,178.5469 3510.0313,178.5469 Q3510.6563,178.5469 3511.25,178.2813 Q3511.8438,178 3512.4688,177.4219 L3512.4688,180.1406 Z " fill="#000000"/><text fill="#000000" font-family="sans-serif" font-size="14" lengthAdjust="spacing" textLength="316.3604" x="3523.5" y="179.3467">logic_arc_int__baselibs__synchronized_queue</text><line style="stroke:#181818;stroke-width:0.5;" x1="3495.5" x2="3841.8604" y1="190.5" y2="190.5"/></g><!--class comp_arc_sta__baselibs__containers--><g id="elem_comp_arc_sta__baselibs__containers"><rect fill="#F1F1F1" height="40" id="comp_arc_sta__baselibs__containers" rx="2.5" ry="2.5" style="stroke:#181818;stroke-width:0.5;" width="287.1445" x="4730" y="275.5"/><ellipse cx="4745" cy="291.5" fill="#ADD1B2" rx="11" ry="11" style="stroke:#181818;stroke-width:1;"/><path d="M4747.9688,297.1406 Q4747.3906,297.4375 4746.75,297.5781 Q4746.1094,297.7344 4745.4063,297.7344 Q4742.9063,297.7344 4741.5781,296.0938 Q4740.2656,294.4375 4740.2656,291.3125 Q4740.2656,288.1875 4741.5781,286.5313 Q4742.9063,284.875 4745.4063,284.875 Q4746.1094,284.875 4746.75,285.0313 Q4747.4063,285.1875 4747.9688,285.4844 L4747.9688,288.2031 Q4747.3438,287.625 4746.75,287.3594 Q4746.1563,287.0781 4745.5313,287.0781 Q4744.1875,287.0781 4743.5,288.1563 Q4742.8125,289.2188 4742.8125,291.3125 Q4742.8125,293.4063 4743.5,294.4844 Q4744.1875,295.5469 4745.5313,295.5469 Q4746.1563,295.5469 4746.75,295.2813 Q4747.3438,295 4747.9688,294.4219 L4747.9688,297.1406 Z " fill="#000000"/><text fill="#000000" font-family="sans-serif" font-size="14" lengthAdjust="spacing" textLength="255.1445" x="4759" y="296.3467">comp_arc_sta__baselibs__containers</text><line style="stroke:#181818;stroke-width:0.5;" x1="4731" x2="5016.1445" y1="307.5" y2="307.5"/></g><!--class logic_arc_int__baselibs__dynamic_array--><g id="elem_logic_arc_int__baselibs__dynamic_array"><rect fill="#F1F1F1" height="40" id="logic_arc_int__baselibs__dynamic_array" rx="2.5" ry="2.5" style="stroke:#181818;stroke-width:0.5;" width="308.3496" x="4886.5" y="158.5"/><ellipse cx="4901.5" cy="174.5" fill="#ADD1B2" rx="11" ry="11" style="stroke:#181818;stroke-width:1;"/><path d="M4904.4688,180.1406 Q4903.8906,180.4375 4903.25,180.5781 Q4902.6094,180.7344 4901.9063,180.7344 Q4899.4063,180.7344 4898.0781,179.0938 Q4896.7656,177.4375 4896.7656,174.3125 Q4896.7656,171.1875 4898.0781,169.5313 Q4899.4063,167.875 4901.9063,167.875 Q4902.6094,167.875 4903.25,168.0313 Q4903.9063,168.1875 4904.4688,168.4844 L4904.4688,171.2031 Q4903.8438,170.625 4903.25,170.3594 Q4902.6563,170.0781 4902.0313,170.0781 Q4900.6875,170.0781 4900,171.1563 Q4899.3125,172.2188 4899.3125,174.3125 Q4899.3125,176.4063 4900,177.4844 Q4900.6875,178.5469 4902.0313,178.5469 Q4902.6563,178.5469 4903.25,178.2813 Q4903.8438,178 4904.4688,177.4219 L4904.4688,180.1406 Z " fill="#000000"/><text fill="#000000" font-family="sans-serif" font-size="14" lengthAdjust="spacing" textLength="276.3496" x="4915.5" y="179.3467">logic_arc_int__baselibs__dynamic_array</text><line style="stroke:#181818;stroke-width:0.5;" x1="4887.5" x2="5193.8496" y1="190.5" y2="190.5"/></g><!--class comp_arc_sta__baselibs__bit_manipulation--><g id="elem_comp_arc_sta__baselibs__bit_manipulation"><rect fill="#F1F1F1" height="40" id="comp_arc_sta__baselibs__bit_manipulation" rx="2.5" ry="2.5" style="stroke:#181818;stroke-width:0.5;" width="330.8057" x="5406" y="275.5"/><ellipse cx="5421" cy="291.5" fill="#ADD1B2" rx="11" ry="11" style="stroke:#181818;stroke-width:1;"/><path d="M5423.9688,297.1406 Q5423.3906,297.4375 5422.75,297.5781 Q5422.1094,297.7344 5421.4063,297.7344 Q5418.9063,297.7344 5417.5781,296.0938 Q5416.2656,294.4375 5416.2656,291.3125 Q5416.2656,288.1875 5417.5781,286.5313 Q5418.9063,284.875 5421.4063,284.875 Q5422.1094,284.875 5422.75,285.0313 Q5423.4063,285.1875 5423.9688,285.4844 L5423.9688,288.2031 Q5423.3438,287.625 5422.75,287.3594 Q5422.1563,287.0781 5421.5313,287.0781 Q5420.1875,287.0781 5419.5,288.1563 Q5418.8125,289.2188 5418.8125,291.3125 Q5418.8125,293.4063 5419.5,294.4844 Q5420.1875,295.5469 5421.5313,295.5469 Q5422.1563,295.5469 5422.75,295.2813 Q5423.3438,295 5423.9688,294.4219 L5423.9688,297.1406 Z " fill="#000000"/><text fill="#000000" font-family="sans-serif" font-size="14" lengthAdjust="spacing" textLength="298.8057" x="5435" y="296.3467">comp_arc_sta__baselibs__bit_manipulation</text><line style="stroke:#181818;stroke-width:0.5;" x1="5407" x2="5735.8057" y1="307.5" y2="307.5"/></g><!--class logic_arc_int__baselibs__bit_mask_operator--><g id="elem_logic_arc_int__baselibs__bit_mask_operator"><rect fill="#F1F1F1" height="40" id="logic_arc_int__baselibs__bit_mask_operator" rx="2.5" ry="2.5" style="stroke:#181818;stroke-width:0.5;" width="334.6406" x="5587" y="158.5"/><ellipse cx="5602" cy="174.5" fill="#ADD1B2" rx="11" ry="11" style="stroke:#181818;stroke-width:1;"/><path d="M5604.9688,180.1406 Q5604.3906,180.4375 5603.75,180.5781 Q5603.1094,180.7344 5602.4063,180.7344 Q5599.9063,180.7344 5598.5781,179.0938 Q5597.2656,177.4375 5597.2656,174.3125 Q5597.2656,171.1875 5598.5781,169.5313 Q5599.9063,167.875 5602.4063,167.875 Q5603.1094,167.875 5603.75,168.0313 Q5604.4063,168.1875 5604.9688,168.4844 L5604.9688,171.2031 Q5604.3438,170.625 5603.75,170.3594 Q5603.1563,170.0781 5602.5313,170.0781 Q5601.1875,170.0781 5600.5,171.1563 Q5599.8125,172.2188 5599.8125,174.3125 Q5599.8125,176.4063 5600.5,177.4844 Q5601.1875,178.5469 5602.5313,178.5469 Q5603.1563,178.5469 5603.75,178.2813 Q5604.3438,178 5604.9688,177.4219 L5604.9688,180.1406 Z " fill="#000000"/><text fill="#000000" font-family="sans-serif" font-size="14" lengthAdjust="spacing" textLength="302.6406" x="5616" y="179.3467">logic_arc_int__baselibs__bit_mask_operator</text><line style="stroke:#181818;stroke-width:0.5;" x1="5588" x2="5920.6406" y1="190.5" y2="190.5"/></g><!--class logic_arc_int__baselibs__message_passing--><g id="elem_logic_arc_int__baselibs__message_passing"><rect fill="#F1F1F1" height="40" id="logic_arc_int__baselibs__message_passing" rx="2.5" ry="2.5" style="stroke:#181818;stroke-width:0.5;" width="328.167" x="4194.5" y="158.5"/><ellipse cx="4209.5" cy="174.5" fill="#ADD1B2" rx="11" ry="11" style="stroke:#181818;stroke-width:1;"/><path d="M4212.4688,180.1406 Q4211.8906,180.4375 4211.25,180.5781 Q4210.6094,180.7344 4209.9063,180.7344 Q4207.4063,180.7344 4206.0781,179.0938 Q4204.7656,177.4375 4204.7656,174.3125 Q4204.7656,171.1875 4206.0781,169.5313 Q4207.4063,167.875 4209.9063,167.875 Q4210.6094,167.875 4211.25,168.0313 Q4211.9063,168.1875 4212.4688,168.4844 L4212.4688,171.2031 Q4211.8438,170.625 4211.25,170.3594 Q4210.6563,170.0781 4210.0313,170.0781 Q4208.6875,170.0781 4208,171.1563 Q4207.3125,172.2188 4207.3125,174.3125 Q4207.3125,176.4063 4208,177.4844 Q4208.6875,178.5469 4210.0313,178.5469 Q4210.6563,178.5469 4211.25,178.2813 Q4211.8438,178 4212.4688,177.4219 L4212.4688,180.1406 Z " fill="#000000"/><text fill="#000000" font-family="sans-serif" font-size="14" lengthAdjust="spacing" textLength="296.167" x="4223.5" y="179.3467">logic_arc_int__baselibs__message_passing</text><line style="stroke:#181818;stroke-width:0.5;" x1="4195.5" x2="4521.667" y1="190.5" y2="190.5"/></g><!--class logic_arc_int__baselibs__task_result--><g id="elem_logic_arc_int__baselibs__task_result"><rect fill="#F1F1F1" height="40" id="logic_arc_int__baselibs__task_result" rx="2.5" ry="2.5" style="stroke:#181818;stroke-width:0.5;" width="280.9307" x="3878" y="158.5"/><ellipse cx="3893" cy="174.5" fill="#ADD1B2" rx="11" ry="11" style="stroke:#181818;stroke-width:1;"/><path d="M3895.9688,180.1406 Q3895.3906,180.4375 3894.75,180.5781 Q3894.1094,180.7344 3893.4063,180.7344 Q3890.9063,180.7344 3889.5781,179.0938 Q3888.2656,177.4375 3888.2656,174.3125 Q3888.2656,171.1875 3889.5781,169.5313 Q3890.9063,167.875 3893.4063,167.875 Q3894.1094,167.875 3894.75,168.0313 Q3895.4063,168.1875 3895.9688,168.4844 L3895.9688,171.2031 Q3895.3438,170.625 3894.75,170.3594 Q3894.1563,170.0781 3893.5313,170.0781 Q3892.1875,170.0781 3891.5,171.1563 Q3890.8125,172.2188 3890.8125,174.3125 Q3890.8125,176.4063 3891.5,177.4844 Q3892.1875,178.5469 3893.5313,178.5469 Q3894.1563,178.5469 3894.75,178.2813 Q3895.3438,178 3895.9688,177.4219 L3895.9688,180.1406 Z " fill="#000000"/><text fill="#000000" font-family="sans-serif" font-size="14" lengthAdjust="spacing" textLength="248.9307" x="3907" y="179.3467">logic_arc_int__baselibs__task_result</text><line style="stroke:#181818;stroke-width:0.5;" x1="3879" x2="4157.9307" y1="190.5" y2="190.5"/></g><!--class comp_arc_sta__baselibs__concurrency--><g id="elem_comp_arc_sta__baselibs__concurrency"><rect fill="#F1F1F1" height="40" id="comp_arc_sta__baselibs__concurrency" rx="2.5" ry="2.5" style="stroke:#181818;stroke-width:0.5;" width="300.2012" x="2690.5" y="275.5"/><ellipse cx="2705.5" cy="291.5" fill="#ADD1B2" rx="11" ry="11" style="stroke:#181818;stroke-width:1;"/><path d="M2708.4688,297.1406 Q2707.8906,297.4375 2707.25,297.5781 Q2706.6094,297.7344 2705.9063,297.7344 Q2703.4063,297.7344 2702.0781,296.0938 Q2700.7656,294.4375 2700.7656,291.3125 Q2700.7656,288.1875 2702.0781,286.5313 Q2703.4063,284.875 2705.9063,284.875 Q2706.6094,284.875 2707.25,285.0313 Q2707.9063,285.1875 2708.4688,285.4844 L2708.4688,288.2031 Q2707.8438,287.625 2707.25,287.3594 Q2706.6563,287.0781 2706.0313,287.0781 Q2704.6875,287.0781 2704,288.1563 Q2703.3125,289.2188 2703.3125,291.3125 Q2703.3125,293.4063 2704,294.4844 Q2704.6875,295.5469 2706.0313,295.5469 Q2706.6563,295.5469 2707.25,295.2813 Q2707.8438,295 2708.4688,294.4219 L2708.4688,297.1406 Z " fill="#000000"/><text fill="#000000" font-family="sans-serif" font-size="14" lengthAdjust="spacing" textLength="268.2012" x="2719.5" y="296.3467">comp_arc_sta__baselibs__concurrency</text><line style="stroke:#181818;stroke-width:0.5;" x1="2691.5" x2="2989.7012" y1="307.5" y2="307.5"/></g><!--class logic_arc_int__baselibs__condition_variable--><g id="elem_logic_arc_int__baselibs__condition_variable"><rect fill="#F1F1F1" height="40" id="logic_arc_int__baselibs__condition_variable" rx="2.5" ry="2.5" style="stroke:#181818;stroke-width:0.5;" width="332.7539" x="1639" y="158.5"/><ellipse cx="1654" cy="174.5" fill="#ADD1B2" rx="11" ry="11" style="stroke:#181818;stroke-width:1;"/><path d="M1656.9688,180.1406 Q1656.3906,180.4375 1655.75,180.5781 Q1655.1094,180.7344 1654.4063,180.7344 Q1651.9063,180.7344 1650.5781,179.0938 Q1649.2656,177.4375 1649.2656,174.3125 Q1649.2656,171.1875 1650.5781,169.5313 Q1651.9063,167.875 1654.4063,167.875 Q1655.1094,167.875 1655.75,168.0313 Q1656.4063,168.1875 1656.9688,168.4844 L1656.9688,171.2031 Q1656.3438,170.625 1655.75,170.3594 Q1655.1563,170.0781 1654.5313,170.0781 Q1653.1875,170.0781 1652.5,171.1563 Q1651.8125,172.2188 1651.8125,174.3125 Q1651.8125,176.4063 1652.5,177.4844 Q1653.1875,178.5469 1654.5313,178.5469 Q1655.1563,178.5469 1655.75,178.2813 Q1656.3438,178 1656.9688,177.4219 L1656.9688,180.1406 Z " fill="#000000"/><text fill="#000000" font-family="sans-serif" font-size="14" lengthAdjust="spacing" textLength="300.7539" x="1668" y="179.3467">logic_arc_int__baselibs__condition_variable</text><line style="stroke:#181818;stroke-width:0.5;" x1="1640" x2="1970.7539" y1="190.5" y2="190.5"/></g><!--class comp_arc_sta__baselibs__json--><g id="elem_comp_arc_sta__baselibs__json"><rect fill="#F1F1F1" height="40" id="comp_arc_sta__baselibs__json" rx="2.5" ry="2.5" style="stroke:#181818;stroke-width:0.5;" width="242.1367" x="5952.5" y="275.5"/><ellipse cx="5967.5" cy="291.5" fill="#ADD1B2" rx="11" ry="11" style="stroke:#181818;stroke-width:1;"/><path d="M5970.4688,297.1406 Q5969.8906,297.4375 5969.25,297.5781 Q5968.6094,297.7344 5967.9063,297.7344 Q5965.4063,297.7344 5964.0781,296.0938 Q5962.7656,294.4375 5962.7656,291.3125 Q5962.7656,288.1875 5964.0781,286.5313 Q5965.4063,284.875 5967.9063,284.875 Q5968.6094,284.875 5969.25,285.0313 Q5969.9063,285.1875 5970.4688,285.4844 L5970.4688,288.2031 Q5969.8438,287.625 5969.25,287.3594 Q5968.6563,287.0781 5968.0313,287.0781 Q5966.6875,287.0781 5966,288.1563 Q5965.3125,289.2188 5965.3125,291.3125 Q5965.3125,293.4063 5966,294.4844 Q5966.6875,295.5469 5968.0313,295.5469 Q5968.6563,295.5469 5969.25,295.2813 Q5969.8438,295 5970.4688,294.4219 L5970.4688,297.1406 Z " fill="#000000"/><text fill="#000000" font-family="sans-serif" font-size="14" lengthAdjust="spacing" textLength="210.1367" x="5981.5" y="296.3467">comp_arc_sta__baselibs__json</text><line style="stroke:#181818;stroke-width:0.5;" x1="5953.5" x2="6193.6367" y1="307.5" y2="307.5"/></g><!--class logic_arc_int__baselibs__json--><g id="elem_logic_arc_int__baselibs__json"><rect fill="#F1F1F1" height="40" id="logic_arc_int__baselibs__json" rx="2.5" ry="2.5" style="stroke:#181818;stroke-width:0.5;" width="233.168" x="5957" y="158.5"/><ellipse cx="5972" cy="174.5" fill="#ADD1B2" rx="11" ry="11" style="stroke:#181818;stroke-width:1;"/><path d="M5974.9688,180.1406 Q5974.3906,180.4375 5973.75,180.5781 Q5973.1094,180.7344 5972.4063,180.7344 Q5969.9063,180.7344 5968.5781,179.0938 Q5967.2656,177.4375 5967.2656,174.3125 Q5967.2656,171.1875 5968.5781,169.5313 Q5969.9063,167.875 5972.4063,167.875 Q5973.1094,167.875 5973.75,168.0313 Q5974.4063,168.1875 5974.9688,168.4844 L5974.9688,171.2031 Q5974.3438,170.625 5973.75,170.3594 Q5973.1563,170.0781 5972.5313,170.0781 Q5971.1875,170.0781 5970.5,171.1563 Q5969.8125,172.2188 5969.8125,174.3125 Q5969.8125,176.4063 5970.5,177.4844 Q5971.1875,178.5469 5972.5313,178.5469 Q5973.1563,178.5469 5973.75,178.2813 Q5974.3438,178 5974.9688,177.4219 L5974.9688,180.1406 Z " fill="#000000"/><text fill="#000000" font-family="sans-serif" font-size="14" lengthAdjust="spacing" textLength="201.168" x="5986" y="179.3467">logic_arc_int__baselibs__json</text><line style="stroke:#181818;stroke-width:0.5;" x1="5958" x2="6189.168" y1="190.5" y2="190.5"/></g><!--class logic_arc_int__baselibs__executor--><g id="elem_logic_arc_int__baselibs__executor"><rect fill="#F1F1F1" height="40" id="logic_arc_int__baselibs__executor" rx="2.5" ry="2.5" style="stroke:#181818;stroke-width:0.5;" width="266.4385" x="2896.5" y="158.5"/><ellipse cx="2911.5" cy="174.5" fill="#ADD1B2" rx="11" ry="11" style="stroke:#181818;stroke-width:1;"/><path d="M2914.4688,180.1406 Q2913.8906,180.4375 2913.25,180.5781 Q2912.6094,180.7344 2911.9063,180.7344 Q2909.4063,180.7344 2908.0781,179.0938 Q2906.7656,177.4375 2906.7656,174.3125 Q2906.7656,171.1875 2908.0781,169.5313 Q2909.4063,167.875 2911.9063,167.875 Q2912.6094,167.875 2913.25,168.0313 Q2913.9063,168.1875 2914.4688,168.4844 L2914.4688,171.2031 Q2913.8438,170.625 2913.25,170.3594 Q2912.6563,170.0781 2912.0313,170.0781 Q2910.6875,170.0781 2910,171.1563 Q2909.3125,172.2188 2909.3125,174.3125 Q2909.3125,176.4063 2910,177.4844 Q2910.6875,178.5469 2912.0313,178.5469 Q2912.6563,178.5469 2913.25,178.2813 Q2913.8438,178 2914.4688,177.4219 L2914.4688,180.1406 Z " fill="#000000"/><text fill="#000000" font-family="sans-serif" font-size="14" lengthAdjust="spacing" textLength="234.4385" x="2925.5" y="179.3467">logic_arc_int__baselibs__executor</text><line style="stroke:#181818;stroke-width:0.5;" x1="2897.5" x2="3161.9385" y1="190.5" y2="190.5"/></g><!--class logic_arc_int__baselibs__result--><g id="elem_logic_arc_int__baselibs__result"><rect fill="#F1F1F1" height="40" id="logic_arc_int__baselibs__result" rx="2.5" ry="2.5" style="stroke:#181818;stroke-width:0.5;" width="244.4609" x="15.5" y="158.5"/><ellipse cx="30.5" cy="174.5" fill="#ADD1B2" rx="11" ry="11" style="stroke:#181818;stroke-width:1;"/><path d="M33.4688,180.1406 Q32.8906,180.4375 32.25,180.5781 Q31.6094,180.7344 30.9063,180.7344 Q28.4063,180.7344 27.0781,179.0938 Q25.7656,177.4375 25.7656,174.3125 Q25.7656,171.1875 27.0781,169.5313 Q28.4063,167.875 30.9063,167.875 Q31.6094,167.875 32.25,168.0313 Q32.9063,168.1875 33.4688,168.4844 L33.4688,171.2031 Q32.8438,170.625 32.25,170.3594 Q31.6563,170.0781 31.0313,170.0781 Q29.6875,170.0781 29,171.1563 Q28.3125,172.2188 28.3125,174.3125 Q28.3125,176.4063 29,177.4844 Q29.6875,178.5469 31.0313,178.5469 Q31.6563,178.5469 32.25,178.2813 Q32.8438,178 33.4688,177.4219 L33.4688,180.1406 Z " fill="#000000"/><text fill="#000000" font-family="sans-serif" font-size="14" lengthAdjust="spacing" textLength="212.4609" x="44.5" y="179.3467">logic_arc_int__baselibs__result</text><line style="stroke:#181818;stroke-width:0.5;" x1="16.5" x2="258.9609" y1="190.5" y2="190.5"/></g><!--class comp_arc_sta__baselibs__message_passing--><g id="elem_comp_arc_sta__baselibs__message_passing"><rect fill="#F1F1F1" height="40" id="comp_arc_sta__baselibs__message_passing" rx="2.5" ry="2.5" style="stroke:#181818;stroke-width:0.5;" width="337.1357" x="4190" y="275.5"/><ellipse cx="4205" cy="291.5" fill="#ADD1B2" rx="11" ry="11" style="stroke:#181818;stroke-width:1;"/><path d="M4207.9688,297.1406 Q4207.3906,297.4375 4206.75,297.5781 Q4206.1094,297.7344 4205.4063,297.7344 Q4202.9063,297.7344 4201.5781,296.0938 Q4200.2656,294.4375 4200.2656,291.3125 Q4200.2656,288.1875 4201.5781,286.5313 Q4202.9063,284.875 4205.4063,284.875 Q4206.1094,284.875 4206.75,285.0313 Q4207.4063,285.1875 4207.9688,285.4844 L4207.9688,288.2031 Q4207.3438,287.625 4206.75,287.3594 Q4206.1563,287.0781 4205.5313,287.0781 Q4204.1875,287.0781 4203.5,288.1563 Q4202.8125,289.2188 4202.8125,291.3125 Q4202.8125,293.4063 4203.5,294.4844 Q4204.1875,295.5469 4205.5313,295.5469 Q4206.1563,295.5469 4206.75,295.2813 Q4207.3438,295 4207.9688,294.4219 L4207.9688,297.1406 Z " fill="#000000"/><text fill="#000000" font-family="sans-serif" font-size="14" lengthAdjust="spacing" textLength="305.1357" x="4219" y="296.3467">comp_arc_sta__baselibs__message_passing</text><line style="stroke:#181818;stroke-width:0.5;" x1="4191" x2="4526.1357" y1="307.5" y2="307.5"/></g><!--class comp_arc_sta__baselibs__filesystem--><g id="elem_comp_arc_sta__baselibs__filesystem"><rect fill="#F1F1F1" height="40" id="comp_arc_sta__baselibs__filesystem" rx="2.5" ry="2.5" style="stroke:#181818;stroke-width:0.5;" width="285.4492" x="1323" y="275.5"/><ellipse cx="1338" cy="291.5" fill="#ADD1B2" rx="11" ry="11" style="stroke:#181818;stroke-width:1;"/><path d="M1340.9688,297.1406 Q1340.3906,297.4375 1339.75,297.5781 Q1339.1094,297.7344 1338.4063,297.7344 Q1335.9063,297.7344 1334.5781,296.0938 Q1333.2656,294.4375 1333.2656,291.3125 Q1333.2656,288.1875 1334.5781,286.5313 Q1335.9063,284.875 1338.4063,284.875 Q1339.1094,284.875 1339.75,285.0313 Q1340.4063,285.1875 1340.9688,285.4844 L1340.9688,288.2031 Q1340.3438,287.625 1339.75,287.3594 Q1339.1563,287.0781 1338.5313,287.0781 Q1337.1875,287.0781 1336.5,288.1563 Q1335.8125,289.2188 1335.8125,291.3125 Q1335.8125,293.4063 1336.5,294.4844 Q1337.1875,295.5469 1338.5313,295.5469 Q1339.1563,295.5469 1339.75,295.2813 Q1340.3438,295 1340.9688,294.4219 L1340.9688,297.1406 Z " fill="#000000"/><text fill="#000000" font-family="sans-serif" font-size="14" lengthAdjust="spacing" textLength="253.4492" x="1352" y="296.3467">comp_arc_sta__baselibs__filesystem</text><line style="stroke:#181818;stroke-width:0.5;" x1="1324" x2="1607.4492" y1="307.5" y2="307.5"/></g><!--class logic_arc_int__baselibs__filesystem--><g id="elem_logic_arc_int__baselibs__filesystem"><rect fill="#F1F1F1" height="40" id="logic_arc_int__baselibs__filesystem" rx="2.5" ry="2.5" style="stroke:#181818;stroke-width:0.5;" width="276.4805" x="1327.5" y="158.5"/><ellipse cx="1342.5" cy="174.5" fill="#ADD1B2" rx="11" ry="11" style="stroke:#181818;stroke-width:1;"/><path d="M1345.4688,180.1406 Q1344.8906,180.4375 1344.25,180.5781 Q1343.6094,180.7344 1342.9063,180.7344 Q1340.4063,180.7344 1339.0781,179.0938 Q1337.7656,177.4375 1337.7656,174.3125 Q1337.7656,171.1875 1339.0781,169.5313 Q1340.4063,167.875 1342.9063,167.875 Q1343.6094,167.875 1344.25,168.0313 Q1344.9063,168.1875 1345.4688,168.4844 L1345.4688,171.2031 Q1344.8438,170.625 1344.25,170.3594 Q1343.6563,170.0781 1343.0313,170.0781 Q1341.6875,170.0781 1341,171.1563 Q1340.3125,172.2188 1340.3125,174.3125 Q1340.3125,176.4063 1341,177.4844 Q1341.6875,178.5469 1343.0313,178.5469 Q1343.6563,178.5469 1344.25,178.2813 Q1344.8438,178 1345.4688,177.4219 L1345.4688,180.1406 Z " fill="#000000"/><text fill="#000000" font-family="sans-serif" font-size="14" lengthAdjust="spacing" textLength="244.4805" x="1356.5" y="179.3467">logic_arc_int__baselibs__filesystem</text><line style="stroke:#181818;stroke-width:0.5;" x1="1328.5" x2="1602.9805" y1="190.5" y2="190.5"/></g><!--class comp_arc_sta__baselibs__utils--><g id="elem_comp_arc_sta__baselibs__utils"><rect fill="#F1F1F1" height="40" id="comp_arc_sta__baselibs__utils" rx="2.5" ry="2.5" style="stroke:#181818;stroke-width:0.5;" width="242.9502" x="855" y="275.5"/><ellipse cx="870" cy="291.5" fill="#ADD1B2" rx="11" ry="11" style="stroke:#181818;stroke-width:1;"/><path d="M872.9688,297.1406 Q872.3906,297.4375 871.75,297.5781 Q871.1094,297.7344 870.4063,297.7344 Q867.9063,297.7344 866.5781,296.0938 Q865.2656,294.4375 865.2656,291.3125 Q865.2656,288.1875 866.5781,286.5313 Q867.9063,284.875 870.4063,284.875 Q871.1094,284.875 871.75,285.0313 Q872.4063,285.1875 872.9688,285.4844 L872.9688,288.2031 Q872.3438,287.625 871.75,287.3594 Q871.1563,287.0781 870.5313,287.0781 Q869.1875,287.0781 868.5,288.1563 Q867.8125,289.2188 867.8125,291.3125 Q867.8125,293.4063 868.5,294.4844 Q869.1875,295.5469 870.5313,295.5469 Q871.1563,295.5469 871.75,295.2813 Q872.3438,295 872.9688,294.4219 L872.9688,297.1406 Z " fill="#000000"/><text fill="#000000" font-family="sans-serif" font-size="14" lengthAdjust="spacing" textLength="210.9502" x="884" y="296.3467">comp_arc_sta__baselibs__utils</text><line style="stroke:#181818;stroke-width:0.5;" x1="856" x2="1096.9502" y1="307.5" y2="307.5"/></g><!--class logic_arc_int__baselibs__utils_scoped_op--><g id="elem_logic_arc_int__baselibs__utils_scoped_op"><rect fill="#F1F1F1" height="40" id="logic_arc_int__baselibs__utils_scoped_op" rx="2.5" ry="2.5" style="stroke:#181818;stroke-width:0.5;" width="315.377" x="650" y="158.5"/><ellipse cx="665" cy="174.5" fill="#ADD1B2" rx="11" ry="11" style="stroke:#181818;stroke-width:1;"/><path d="M667.9688,180.1406 Q667.3906,180.4375 666.75,180.5781 Q666.1094,180.7344 665.4063,180.7344 Q662.9063,180.7344 661.5781,179.0938 Q660.2656,177.4375 660.2656,174.3125 Q660.2656,171.1875 661.5781,169.5313 Q662.9063,167.875 665.4063,167.875 Q666.1094,167.875 666.75,168.0313 Q667.4063,168.1875 667.9688,168.4844 L667.9688,171.2031 Q667.3438,170.625 666.75,170.3594 Q666.1563,170.0781 665.5313,170.0781 Q664.1875,170.0781 663.5,171.1563 Q662.8125,172.2188 662.8125,174.3125 Q662.8125,176.4063 663.5,177.4844 Q664.1875,178.5469 665.5313,178.5469 Q666.1563,178.5469 666.75,178.2813 Q667.3438,178 667.9688,177.4219 L667.9688,180.1406 Z " fill="#000000"/><text fill="#000000" font-family="sans-serif" font-size="14" lengthAdjust="spacing" textLength="283.377" x="679" y="179.3467">logic_arc_int__baselibs__utils_scoped_op</text><line style="stroke:#181818;stroke-width:0.5;" x1="651" x2="964.377" y1="190.5" y2="190.5"/></g><!--class logic_arc_int__baselibs__future--><g id="elem_logic_arc_int__baselibs__future"><rect fill="#F1F1F1" height="40" id="logic_arc_int__baselibs__future" rx="2.5" ry="2.5" style="stroke:#181818;stroke-width:0.5;" width="247.0791" x="2614" y="158.5"/><ellipse cx="2629" cy="174.5" fill="#ADD1B2" rx="11" ry="11" style="stroke:#181818;stroke-width:1;"/><path d="M2631.9688,180.1406 Q2631.3906,180.4375 2630.75,180.5781 Q2630.1094,180.7344 2629.4063,180.7344 Q2626.9063,180.7344 2625.5781,179.0938 Q2624.2656,177.4375 2624.2656,174.3125 Q2624.2656,171.1875 2625.5781,169.5313 Q2626.9063,167.875 2629.4063,167.875 Q2630.1094,167.875 2630.75,168.0313 Q2631.4063,168.1875 2631.9688,168.4844 L2631.9688,171.2031 Q2631.3438,170.625 2630.75,170.3594 Q2630.1563,170.0781 2629.5313,170.0781 Q2628.1875,170.0781 2627.5,171.1563 Q2626.8125,172.2188 2626.8125,174.3125 Q2626.8125,176.4063 2627.5,177.4844 Q2628.1875,178.5469 2629.5313,178.5469 Q2630.1563,178.5469 2630.75,178.2813 Q2631.3438,178 2631.9688,177.4219 L2631.9688,180.1406 Z " fill="#000000"/><text fill="#000000" font-family="sans-serif" font-size="14" lengthAdjust="spacing" textLength="215.0791" x="2643" y="179.3467">logic_arc_int__baselibs__future</text><line style="stroke:#181818;stroke-width:0.5;" x1="2615" x2="2860.0791" y1="190.5" y2="190.5"/></g><!--class logic_arc_int__baselibs__shared_future--><g id="elem_logic_arc_int__baselibs__shared_future"><rect fill="#F1F1F1" height="40" id="logic_arc_int__baselibs__shared_future" rx="2.5" ry="2.5" style="stroke:#181818;stroke-width:0.5;" width="302.0811" x="2276.5" y="158.5"/><ellipse cx="2291.5" cy="174.5" fill="#ADD1B2" rx="11" ry="11" style="stroke:#181818;stroke-width:1;"/><path d="M2294.4688,180.1406 Q2293.8906,180.4375 2293.25,180.5781 Q2292.6094,180.7344 2291.9063,180.7344 Q2289.4063,180.7344 2288.0781,179.0938 Q2286.7656,177.4375 2286.7656,174.3125 Q2286.7656,171.1875 2288.0781,169.5313 Q2289.4063,167.875 2291.9063,167.875 Q2292.6094,167.875 2293.25,168.0313 Q2293.9063,168.1875 2294.4688,168.4844 L2294.4688,171.2031 Q2293.8438,170.625 2293.25,170.3594 Q2292.6563,170.0781 2292.0313,170.0781 Q2290.6875,170.0781 2290,171.1563 Q2289.3125,172.2188 2289.3125,174.3125 Q2289.3125,176.4063 2290,177.4844 Q2290.6875,178.5469 2292.0313,178.5469 Q2292.6563,178.5469 2293.25,178.2813 Q2293.8438,178 2294.4688,177.4219 L2294.4688,180.1406 Z " fill="#000000"/><text fill="#000000" font-family="sans-serif" font-size="14" lengthAdjust="spacing" textLength="270.0811" x="2305.5" y="179.3467">logic_arc_int__baselibs__shared_future</text><line style="stroke:#181818;stroke-width:0.5;" x1="2277.5" x2="2577.5811" y1="190.5" y2="190.5"/></g><!--class logic_arc_int__baselibs__promise--><g id="elem_logic_arc_int__baselibs__promise"><rect fill="#F1F1F1" height="40" id="logic_arc_int__baselibs__promise" rx="2.5" ry="2.5" style="stroke:#181818;stroke-width:0.5;" width="261.1885" x="3198" y="158.5"/><ellipse cx="3213" cy="174.5" fill="#ADD1B2" rx="11" ry="11" style="stroke:#181818;stroke-width:1;"/><path d="M3215.9688,180.1406 Q3215.3906,180.4375 3214.75,180.5781 Q3214.1094,180.7344 3213.4063,180.7344 Q3210.9063,180.7344 3209.5781,179.0938 Q3208.2656,177.4375 3208.2656,174.3125 Q3208.2656,171.1875 3209.5781,169.5313 Q3210.9063,167.875 3213.4063,167.875 Q3214.1094,167.875 3214.75,168.0313 Q3215.4063,168.1875 3215.9688,168.4844 L3215.9688,171.2031 Q3215.3438,170.625 3214.75,170.3594 Q3214.1563,170.0781 3213.5313,170.0781 Q3212.1875,170.0781 3211.5,171.1563 Q3210.8125,172.2188 3210.8125,174.3125 Q3210.8125,176.4063 3211.5,177.4844 Q3212.1875,178.5469 3213.5313,178.5469 Q3214.1563,178.5469 3214.75,178.2813 Q3215.3438,178 3215.9688,177.4219 L3215.9688,180.1406 Z " fill="#000000"/><text fill="#000000" font-family="sans-serif" font-size="14" lengthAdjust="spacing" textLength="229.1885" x="3227" y="179.3467">logic_arc_int__baselibs__promise</text><line style="stroke:#181818;stroke-width:0.5;" x1="3199" x2="3458.1885" y1="190.5" y2="190.5"/></g><!--class logic_arc_int__baselibs__bit_manipulation--><g id="elem_logic_arc_int__baselibs__bit_manipulation"><rect fill="#F1F1F1" height="40" id="logic_arc_int__baselibs__bit_manipulation" rx="2.5" ry="2.5" style="stroke:#181818;stroke-width:0.5;" width="321.8369" x="5229.5" y="158.5"/><ellipse cx="5244.5" cy="174.5" fill="#ADD1B2" rx="11" ry="11" style="stroke:#181818;stroke-width:1;"/><path d="M5247.4688,180.1406 Q5246.8906,180.4375 5246.25,180.5781 Q5245.6094,180.7344 5244.9063,180.7344 Q5242.4063,180.7344 5241.0781,179.0938 Q5239.7656,177.4375 5239.7656,174.3125 Q5239.7656,171.1875 5241.0781,169.5313 Q5242.4063,167.875 5244.9063,167.875 Q5245.6094,167.875 5246.25,168.0313 Q5246.9063,168.1875 5247.4688,168.4844 L5247.4688,171.2031 Q5246.8438,170.625 5246.25,170.3594 Q5245.6563,170.0781 5245.0313,170.0781 Q5243.6875,170.0781 5243,171.1563 Q5242.3125,172.2188 5242.3125,174.3125 Q5242.3125,176.4063 5243,177.4844 Q5243.6875,178.5469 5245.0313,178.5469 Q5245.6563,178.5469 5246.25,178.2813 Q5246.8438,178 5247.4688,177.4219 L5247.4688,180.1406 Z " fill="#000000"/><text fill="#000000" font-family="sans-serif" font-size="14" lengthAdjust="spacing" textLength="289.8369" x="5258.5" y="179.3467">logic_arc_int__baselibs__bit_manipulation</text><line style="stroke:#181818;stroke-width:0.5;" x1="5230.5" x2="5550.3369" y1="190.5" y2="190.5"/></g><!--class logic_arc_int__baselibs__intrusive_list--><g id="elem_logic_arc_int__baselibs__intrusive_list"><rect fill="#F1F1F1" height="40" id="logic_arc_int__baselibs__intrusive_list" rx="2.5" ry="2.5" style="stroke:#181818;stroke-width:0.5;" width="293.0713" x="4558" y="158.5"/><ellipse cx="4573" cy="174.5" fill="#ADD1B2" rx="11" ry="11" style="stroke:#181818;stroke-width:1;"/><path d="M4575.9688,180.1406 Q4575.3906,180.4375 4574.75,180.5781 Q4574.1094,180.7344 4573.4063,180.7344 Q4570.9063,180.7344 4569.5781,179.0938 Q4568.2656,177.4375 4568.2656,174.3125 Q4568.2656,171.1875 4569.5781,169.5313 Q4570.9063,167.875 4573.4063,167.875 Q4574.1094,167.875 4574.75,168.0313 Q4575.4063,168.1875 4575.9688,168.4844 L4575.9688,171.2031 Q4575.3438,170.625 4574.75,170.3594 Q4574.1563,170.0781 4573.5313,170.0781 Q4572.1875,170.0781 4571.5,171.1563 Q4570.8125,172.2188 4570.8125,174.3125 Q4570.8125,176.4063 4571.5,177.4844 Q4572.1875,178.5469 4573.5313,178.5469 Q4574.1563,178.5469 4574.75,178.2813 Q4575.3438,178 4575.9688,177.4219 L4575.9688,180.1406 Z " fill="#000000"/><text fill="#000000" font-family="sans-serif" font-size="14" lengthAdjust="spacing" textLength="261.0713" x="4587" y="179.3467">logic_arc_int__baselibs__intrusive_list</text><line style="stroke:#181818;stroke-width:0.5;" x1="4559" x2="4850.0713" y1="190.5" y2="190.5"/></g><!--class logic_arc_int__baselibs__memory_shared--><g id="elem_logic_arc_int__baselibs__memory_shared"><rect fill="#F1F1F1" height="40" id="logic_arc_int__baselibs__memory_shared" rx="2.5" ry="2.5" style="stroke:#181818;stroke-width:0.5;" width="318.043" x="296.5" y="158.5"/><ellipse cx="311.5" cy="174.5" fill="#ADD1B2" rx="11" ry="11" style="stroke:#181818;stroke-width:1;"/><path d="M314.4688,180.1406 Q313.8906,180.4375 313.25,180.5781 Q312.6094,180.7344 311.9063,180.7344 Q309.4063,180.7344 308.0781,179.0938 Q306.7656,177.4375 306.7656,174.3125 Q306.7656,171.1875 308.0781,169.5313 Q309.4063,167.875 311.9063,167.875 Q312.6094,167.875 313.25,168.0313 Q313.9063,168.1875 314.4688,168.4844 L314.4688,171.2031 Q313.8438,170.625 313.25,170.3594 Q312.6563,170.0781 312.0313,170.0781 Q310.6875,170.0781 310,171.1563 Q309.3125,172.2188 309.3125,174.3125 Q309.3125,176.4063 310,177.4844 Q310.6875,178.5469 312.0313,178.5469 Q312.6563,178.5469 313.25,178.2813 Q313.8438,178 314.4688,177.4219 L314.4688,180.1406 Z " fill="#000000"/><text fill="#000000" font-family="sans-serif" font-size="14" lengthAdjust="spacing" textLength="286.043" x="325.5" y="179.3467">logic_arc_int__baselibs__memory_shared</text><line style="stroke:#181818;stroke-width:0.5;" x1="297.5" x2="613.543" y1="190.5" y2="190.5"/></g><!--class logic_arc_int__baselibs__utils_base64--><g id="elem_logic_arc_int__baselibs__utils_base64"><rect fill="#F1F1F1" height="40" id="logic_arc_int__baselibs__utils_base64" rx="2.5" ry="2.5" style="stroke:#181818;stroke-width:0.5;" width="292.1689" x="1000.5" y="158.5"/><ellipse cx="1015.5" cy="174.5" fill="#ADD1B2" rx="11" ry="11" style="stroke:#181818;stroke-width:1;"/><path d="M1018.4688,180.1406 Q1017.8906,180.4375 1017.25,180.5781 Q1016.6094,180.7344 1015.9063,180.7344 Q1013.4063,180.7344 1012.0781,179.0938 Q1010.7656,177.4375 1010.7656,174.3125 Q1010.7656,171.1875 1012.0781,169.5313 Q1013.4063,167.875 1015.9063,167.875 Q1016.6094,167.875 1017.25,168.0313 Q1017.9063,168.1875 1018.4688,168.4844 L1018.4688,171.2031 Q1017.8438,170.625 1017.25,170.3594 Q1016.6563,170.0781 1016.0313,170.0781 Q1014.6875,170.0781 1014,171.1563 Q1013.3125,172.2188 1013.3125,174.3125 Q1013.3125,176.4063 1014,177.4844 Q1014.6875,178.5469 1016.0313,178.5469 Q1016.6563,178.5469 1017.25,178.2813 Q1017.8438,178 1018.4688,177.4219 L1018.4688,180.1406 Z " fill="#000000"/><text fill="#000000" font-family="sans-serif" font-size="14" lengthAdjust="spacing" textLength="260.1689" x="1029.5" y="179.3467">logic_arc_int__baselibs__utils_base64</text><line style="stroke:#181818;stroke-width:0.5;" x1="1001.5" x2="1291.6689" y1="190.5" y2="190.5"/></g><!--class comp_arc_sta__baselibs__memory_shared--><g id="elem_comp_arc_sta__baselibs__memory_shared"><rect fill="#F1F1F1" height="40" id="comp_arc_sta__baselibs__memory_shared" rx="2.5" ry="2.5" style="stroke:#181818;stroke-width:0.5;" width="327.0117" x="295" y="275.5"/><ellipse cx="310" cy="291.5" fill="#ADD1B2" rx="11" ry="11" style="stroke:#181818;stroke-width:1;"/><path d="M312.9688,297.1406 Q312.3906,297.4375 311.75,297.5781 Q311.1094,297.7344 310.4063,297.7344 Q307.9063,297.7344 306.5781,296.0938 Q305.2656,294.4375 305.2656,291.3125 Q305.2656,288.1875 306.5781,286.5313 Q307.9063,284.875 310.4063,284.875 Q311.1094,284.875 311.75,285.0313 Q312.4063,285.1875 312.9688,285.4844 L312.9688,288.2031 Q312.3438,287.625 311.75,287.3594 Q311.1563,287.0781 310.5313,287.0781 Q309.1875,287.0781 308.5,288.1563 Q307.8125,289.2188 307.8125,291.3125 Q307.8125,293.4063 308.5,294.4844 Q309.1875,295.5469 310.5313,295.5469 Q311.1563,295.5469 311.75,295.2813 Q312.3438,295 312.9688,294.4219 L312.9688,297.1406 Z " fill="#000000"/><text fill="#000000" font-family="sans-serif" font-size="14" lengthAdjust="spacing" textLength="295.0117" x="324" y="296.3467">comp_arc_sta__baselibs__memory_shared</text><line style="stroke:#181818;stroke-width:0.5;" x1="296" x2="621.0117" y1="307.5" y2="307.5"/></g><!--class logic_arc_int__baselibs__task--><g id="elem_logic_arc_int__baselibs__task"><rect fill="#F1F1F1" height="40" id="logic_arc_int__baselibs__task" rx="2.5" ry="2.5" style="stroke:#181818;stroke-width:0.5;" width="234.0156" x="2007.5" y="158.5"/><ellipse cx="2022.5" cy="174.5" fill="#ADD1B2" rx="11" ry="11" style="stroke:#181818;stroke-width:1;"/><path d="M2025.4688,180.1406 Q2024.8906,180.4375 2024.25,180.5781 Q2023.6094,180.7344 2022.9063,180.7344 Q2020.4063,180.7344 2019.0781,179.0938 Q2017.7656,177.4375 2017.7656,174.3125 Q2017.7656,171.1875 2019.0781,169.5313 Q2020.4063,167.875 2022.9063,167.875 Q2023.6094,167.875 2024.25,168.0313 Q2024.9063,168.1875 2025.4688,168.4844 L2025.4688,171.2031 Q2024.8438,170.625 2024.25,170.3594 Q2023.6563,170.0781 2023.0313,170.0781 Q2021.6875,170.0781 2021,171.1563 Q2020.3125,172.2188 2020.3125,174.3125 Q2020.3125,176.4063 2021,177.4844 Q2021.6875,178.5469 2023.0313,178.5469 Q2023.6563,178.5469 2024.25,178.2813 Q2024.8438,178 2025.4688,177.4219 L2025.4688,180.1406 Z " fill="#000000"/><text fill="#000000" font-family="sans-serif" font-size="14" lengthAdjust="spacing" textLength="202.0156" x="2036.5" y="179.3467">logic_arc_int__baselibs__task</text><line style="stroke:#181818;stroke-width:0.5;" x1="2008.5" x2="2240.5156" y1="190.5" y2="190.5"/></g><!--class comp_arc_sta__baselibs__result--><g id="elem_comp_arc_sta__baselibs__result"><rect fill="#F1F1F1" height="40" id="comp_arc_sta__baselibs__result" rx="2.5" ry="2.5" style="stroke:#181818;stroke-width:0.5;" width="253.4297" x="7" y="275.5"/><ellipse cx="22" cy="291.5" fill="#ADD1B2" rx="11" ry="11" style="stroke:#181818;stroke-width:1;"/><path d="M24.9688,297.1406 Q24.3906,297.4375 23.75,297.5781 Q23.1094,297.7344 22.4063,297.7344 Q19.9063,297.7344 18.5781,296.0938 Q17.2656,294.4375 17.2656,291.3125 Q17.2656,288.1875 18.5781,286.5313 Q19.9063,284.875 22.4063,284.875 Q23.1094,284.875 23.75,285.0313 Q24.4063,285.1875 24.9688,285.4844 L24.9688,288.2031 Q24.3438,287.625 23.75,287.3594 Q23.1563,287.0781 22.5313,287.0781 Q21.1875,287.0781 20.5,288.1563 Q19.8125,289.2188 19.8125,291.3125 Q19.8125,293.4063 20.5,294.4844 Q21.1875,295.5469 22.5313,295.5469 Q23.1563,295.5469 23.75,295.2813 Q24.3438,295 24.9688,294.4219 L24.9688,297.1406 Z " fill="#000000"/><text fill="#000000" font-family="sans-serif" font-size="14" lengthAdjust="spacing" textLength="221.4297" x="36" y="296.3467">comp_arc_sta__baselibs__result</text><line style="stroke:#181818;stroke-width:0.5;" x1="8" x2="259.4297" y1="307.5" y2="307.5"/></g><!--link Feature_User to logic_arc_int__baselibs__synchronized_queue--><g id="link_Feature_User_logic_arc_int__baselibs__synchronized_queue"><path codeLine="15" d="M3074.69,53.91 C3179,75.62 3432.3659,128.3472 3571.2859,157.2672 " fill="transparent" id="Feature_User-to-logic_arc_int__baselibs__synchronized_queue" style="stroke:#181818;stroke-width:1;"/><polygon fill="#181818" points="3577.16,158.49,3569.1641,152.7397,3572.2649,157.471,3567.5337,160.5718,3577.16,158.49" style="stroke:#181818;stroke-width:1;"/><text fill="#000000" font-family="sans-serif" font-size="13" lengthAdjust="spacing" textLength="23.0103" x="3425.5" y="124.5669">use</text></g><!--reverse link logic_arc_int__baselibs__dynamic_array to comp_arc_sta__baselibs__containers--><g id="link_logic_arc_int__baselibs__dynamic_array_comp_arc_sta__baselibs__containers"><path codeLine="16" d="M5007.6082,202.1527 C4976.6882,223.4427 4932.11,254.14 4901.26,275.38 " fill="transparent" id="logic_arc_int__baselibs__dynamic_array-backto-comp_arc_sta__baselibs__containers" style="stroke:#181818;stroke-width:1;"/><polygon fill="#181818" points="5012.55,198.75,5002.8688,200.5595,5008.4318,201.5856,5007.4057,207.1486,5012.55,198.75" style="stroke:#181818;stroke-width:1;"/><text fill="#000000" font-family="sans-serif" font-size="13" lengthAdjust="spacing" textLength="76.9082" x="4967.5" y="241.5669">implements</text></g><!--reverse link logic_arc_int__baselibs__bit_mask_operator to comp_arc_sta__baselibs__bit_manipulation--><g id="link_logic_arc_int__baselibs__bit_mask_operator_comp_arc_sta__baselibs__bit_manipulation"><path codeLine="17" d="M5718.7898,201.9424 C5684.9098,223.2324 5635.72,254.14 5601.92,275.38 " fill="transparent" id="logic_arc_int__baselibs__bit_mask_operator-backto-comp_arc_sta__baselibs__bit_manipulation" style="stroke:#181818;stroke-width:1;"/><polygon fill="#181818" points="5723.87,198.75,5714.1214,200.1518,5719.6365,201.4103,5718.3779,206.9254,5723.87,198.75" style="stroke:#181818;stroke-width:1;"/><text fill="#000000" font-family="sans-serif" font-size="13" lengthAdjust="spacing" textLength="76.9082" x="5674.5" y="241.5669">implements</text></g><!--link Feature_User to logic_arc_int__baselibs__bit_mask_operator--><g id="link_Feature_User_logic_arc_int__baselibs__bit_mask_operator"><path codeLine="18" d="M3074.68,45.75 C3278.1,51.47 4129.46,76.39 4827.5,111.5 C5157.52,128.1 5240.19,131.17 5569.5,158.5 C5575.13,158.97 5574.8832,158.9326 5580.6632,159.4426 " fill="transparent" id="Feature_User-to-logic_arc_int__baselibs__bit_mask_operator" style="stroke:#181818;stroke-width:1;"/><polygon fill="#181818" points="5586.64,159.97,5578.0264,155.1944,5581.6594,159.5305,5577.3233,163.1635,5586.64,159.97" style="stroke:#181818;stroke-width:1;"/><text fill="#000000" font-family="sans-serif" font-size="13" lengthAdjust="spacing" textLength="23.0103" x="5149.5" y="124.5669">use</text></g><!--link Feature_User to logic_arc_int__baselibs__message_passing--><g id="link_Feature_User_logic_arc_int__baselibs__message_passing"><path codeLine="19" d="M3074.59,48.9 C3228.57,63.94 3747.73,114.81 4176.5,158.5 C4182.35,159.1 4182.3317,159.0843 4188.3417,159.7043 " fill="transparent" id="Feature_User-to-logic_arc_int__baselibs__message_passing" style="stroke:#181818;stroke-width:1;"/><polygon fill="#181818" points="4194.31,160.32,4185.768,155.4176,4189.3364,159.8069,4184.947,163.3753,4194.31,160.32" style="stroke:#181818;stroke-width:1;"/><text fill="#000000" font-family="sans-serif" font-size="13" lengthAdjust="spacing" textLength="23.0103" x="3862.5" y="124.5669">use</text></g><!--link Feature_User to logic_arc_int__baselibs__task_result--><g id="link_Feature_User_logic_arc_int__baselibs__task_result"><path codeLine="20" d="M3074.57,50.56 C3215.33,69.49 3644.9635,127.2704 3871.8635,157.7804 " fill="transparent" id="Feature_User-to-logic_arc_int__baselibs__task_result" style="stroke:#181818;stroke-width:1;"/><polygon fill="#181818" points="3877.81,158.58,3869.4233,153.4163,3872.8546,157.9137,3868.3572,161.3449,3877.81,158.58" style="stroke:#181818;stroke-width:1;"/><text fill="#000000" font-family="sans-serif" font-size="13" lengthAdjust="spacing" textLength="23.0103" x="3642.5" y="124.5669">use</text></g><!--reverse link logic_arc_int__baselibs__condition_variable to comp_arc_sta__baselibs__concurrency--><g id="link_logic_arc_int__baselibs__condition_variable_comp_arc_sta__baselibs__concurrency"><path codeLine="21" d="M1956.4008,199.2971 C2063.3008,213.0771 2206.38,230.98 2337.5,245.5 C2455.99,258.62 2590.4,271.62 2690.45,280.92 " fill="transparent" id="logic_arc_int__baselibs__condition_variable-backto-comp_arc_sta__baselibs__concurrency" style="stroke:#181818;stroke-width:1;"/><polygon fill="#181818" points="1950.45,198.53,1958.8648,203.6478,1955.409,199.1692,1959.8875,195.7135,1950.45,198.53" style="stroke:#181818;stroke-width:1;"/><text fill="#000000" font-family="sans-serif" font-size="13" lengthAdjust="spacing" textLength="76.9082" x="2338.5" y="241.5669">implements</text></g><!--reverse link logic_arc_int__baselibs__task_result to comp_arc_sta__baselibs__concurrency--><g id="link_logic_arc_int__baselibs__task_result_comp_arc_sta__baselibs__concurrency"><path codeLine="22" d="M3871.7096,197.2485 C3865.9096,197.9185 3866.13,197.87 3860.5,198.5 C3656.25,221.21 3605.09,226.1 3400.5,245.5 C3261.69,258.66 3103.39,272.4 2990.59,281.96 " fill="transparent" id="logic_arc_int__baselibs__task_result-backto-comp_arc_sta__baselibs__concurrency" style="stroke:#181818;stroke-width:1;"/><polygon fill="#181818" points="3877.67,196.56,3868.2704,193.6192,3872.703,197.1338,3869.1885,201.5664,3877.67,196.56" style="stroke:#181818;stroke-width:1;"/><text fill="#000000" font-family="sans-serif" font-size="13" lengthAdjust="spacing" textLength="76.9082" x="3576.5" y="241.5669">implements</text></g><!--reverse link logic_arc_int__baselibs__synchronized_queue to comp_arc_sta__baselibs__concurrency--><g id="link_logic_arc_int__baselibs__synchronized_queue_comp_arc_sta__baselibs__concurrency"><path codeLine="23" d="M3528.3992,199.3706 C3434.6192,212.6406 3312.41,229.85 3199.5,245.5 C3127.38,255.5 3047.08,266.47 2980.75,275.49 " fill="transparent" id="logic_arc_int__baselibs__synchronized_queue-backto-comp_arc_sta__baselibs__concurrency" style="stroke:#181818;stroke-width:1;"/><polygon fill="#181818" points="3534.34,198.53,3524.8683,195.8304,3529.3893,199.2305,3525.9892,203.7515,3534.34,198.53" style="stroke:#181818;stroke-width:1;"/><text fill="#000000" font-family="sans-serif" font-size="13" lengthAdjust="spacing" textLength="76.9082" x="3315.5" y="241.5669">implements</text></g><!--reverse link logic_arc_int__baselibs__json to comp_arc_sta__baselibs__json--><g id="link_logic_arc_int__baselibs__json_comp_arc_sta__baselibs__json"><path codeLine="24" d="M6073.5,204.75 C6073.5,225.98 6073.5,253.94 6073.5,275.19 " fill="transparent" id="logic_arc_int__baselibs__json-backto-comp_arc_sta__baselibs__json" style="stroke:#181818;stroke-width:1;"/><polygon fill="#181818" points="6073.5,198.75,6069.5,207.75,6073.5,203.75,6077.5,207.75,6073.5,198.75" style="stroke:#181818;stroke-width:1;"/><text fill="#000000" font-family="sans-serif" font-size="13" lengthAdjust="spacing" textLength="76.9082" x="6074.5" y="241.5669">implements</text></g><!--reverse link logic_arc_int__baselibs__executor to comp_arc_sta__baselibs__concurrency--><g id="link_logic_arc_int__baselibs__executor_comp_arc_sta__baselibs__concurrency"><path codeLine="25" d="M2992.7439,201.8681 C2957.7439,223.1581 2906.83,254.14 2871.92,275.38 " fill="transparent" id="logic_arc_int__baselibs__executor-backto-comp_arc_sta__baselibs__concurrency" style="stroke:#181818;stroke-width:1;"/><polygon fill="#181818" points="2997.87,198.75,2988.102,200.0098,2993.5982,201.3485,2992.2596,206.8446,2997.87,198.75" style="stroke:#181818;stroke-width:1;"/><text fill="#000000" font-family="sans-serif" font-size="13" lengthAdjust="spacing" textLength="76.9082" x="2946.5" y="241.5669">implements</text></g><!--link Feature_User to logic_arc_int__baselibs__result--><g id="link_Feature_User_logic_arc_int__baselibs__result"><path codeLine="26" d="M2984.15,45.46 C2765.19,50.22 1795.37,72.59 1001.5,111.5 C679.87,127.26 598.92,126.54 278.5,158.5 C272.36,159.11 272.0318,159.114 265.6818,159.834 " fill="transparent" id="Feature_User-to-logic_arc_int__baselibs__result" style="stroke:#181818;stroke-width:1;"/><polygon fill="#181818" points="259.72,160.51,269.1134,163.4706,264.6882,159.9467,268.212,155.5215,259.72,160.51" style="stroke:#181818;stroke-width:1;"/><text fill="#000000" font-family="sans-serif" font-size="13" lengthAdjust="spacing" textLength="23.0103" x="1002.5" y="124.5669">use</text></g><!--reverse link logic_arc_int__baselibs__message_passing to comp_arc_sta__baselibs__message_passing--><g id="link_logic_arc_int__baselibs__message_passing_comp_arc_sta__baselibs__message_passing"><path codeLine="27" d="M4358.5,204.75 C4358.5,225.98 4358.5,253.94 4358.5,275.19 " fill="transparent" id="logic_arc_int__baselibs__message_passing-backto-comp_arc_sta__baselibs__message_passing" style="stroke:#181818;stroke-width:1;"/><polygon fill="#181818" points="4358.5,198.75,4354.5,207.75,4358.5,203.75,4362.5,207.75,4358.5,198.75" style="stroke:#181818;stroke-width:1;"/><text fill="#000000" font-family="sans-serif" font-size="13" lengthAdjust="spacing" textLength="76.9082" x="4359.5" y="241.5669">implements</text></g><!--link Feature_User to logic_arc_int__baselibs__executor--><g id="link_Feature_User_logic_arc_int__baselibs__executor"><path codeLine="28" d="M3029.5,81.55 C3029.5,106.45 3029.5,132.26 3029.5,152.26 " fill="transparent" id="Feature_User-to-logic_arc_int__baselibs__executor" style="stroke:#181818;stroke-width:1;"/><polygon fill="#181818" points="3029.5,158.26,3033.5,149.26,3029.5,153.26,3025.5,149.26,3029.5,158.26" style="stroke:#181818;stroke-width:1;"/><text fill="#000000" font-family="sans-serif" font-size="13" lengthAdjust="spacing" textLength="23.0103" x="3030.5" y="124.5669">use</text></g><!--reverse link logic_arc_int__baselibs__filesystem to comp_arc_sta__baselibs__filesystem--><g id="link_logic_arc_int__baselibs__filesystem_comp_arc_sta__baselibs__filesystem"><path codeLine="29" d="M1465.5,204.75 C1465.5,225.98 1465.5,253.94 1465.5,275.19 " fill="transparent" id="logic_arc_int__baselibs__filesystem-backto-comp_arc_sta__baselibs__filesystem" style="stroke:#181818;stroke-width:1;"/><polygon fill="#181818" points="1465.5,198.75,1461.5,207.75,1465.5,203.75,1469.5,207.75,1465.5,198.75" style="stroke:#181818;stroke-width:1;"/><text fill="#000000" font-family="sans-serif" font-size="13" lengthAdjust="spacing" textLength="76.9082" x="1466.5" y="241.5669">implements</text></g><!--reverse link logic_arc_int__baselibs__utils_scoped_op to comp_arc_sta__baselibs__utils--><g id="link_logic_arc_int__baselibs__utils_scoped_op_comp_arc_sta__baselibs__utils"><path codeLine="30" d="M840.7506,202.1252 C872.0406,223.4152 917.19,254.14 948.4,275.38 " fill="transparent" id="logic_arc_int__baselibs__utils_scoped_op-backto-comp_arc_sta__baselibs__utils" style="stroke:#181818;stroke-width:1;"/><polygon fill="#181818" points="835.79,198.75,840.9808,207.1199,839.9238,201.5627,845.4811,200.5058,835.79,198.75" style="stroke:#181818;stroke-width:1;"/><text fill="#000000" font-family="sans-serif" font-size="13" lengthAdjust="spacing" textLength="76.9082" x="903.5" y="241.5669">implements</text></g><!--link Feature_User to logic_arc_int__baselibs__future--><g id="link_Feature_User_logic_arc_int__baselibs__future"><path codeLine="31" d="M2984.2,65.14 C2928.29,90.6 2839.4404,131.0732 2785.0504,155.8432 " fill="transparent" id="Feature_User-to-logic_arc_int__baselibs__future" style="stroke:#181818;stroke-width:1;"/><polygon fill="#181818" points="2779.59,158.33,2789.4384,158.2401,2784.1403,156.2577,2786.1228,150.9596,2779.59,158.33" style="stroke:#181818;stroke-width:1;"/><text fill="#000000" font-family="sans-serif" font-size="13" lengthAdjust="spacing" textLength="23.0103" x="2875.5" y="124.5669">use</text></g><!--reverse link logic_arc_int__baselibs__shared_future to comp_arc_sta__baselibs__concurrency--><g id="link_logic_arc_int__baselibs__shared_future_comp_arc_sta__baselibs__concurrency"><path codeLine="32" d="M2501.9401,200.2294 C2578.4401,221.5294 2695.6,254.15 2772.02,275.43 " fill="transparent" id="logic_arc_int__baselibs__shared_future-backto-comp_arc_sta__baselibs__concurrency" style="stroke:#181818;stroke-width:1;"/><polygon fill="#181818" points="2496.16,198.62,2503.7573,204.8875,2500.9768,199.9611,2505.9031,197.1806,2496.16,198.62" style="stroke:#181818;stroke-width:1;"/><text fill="#000000" font-family="sans-serif" font-size="13" lengthAdjust="spacing" textLength="76.9082" x="2659.5" y="241.5669">implements</text></g><!--link Feature_User to logic_arc_int__baselibs__utils_scoped_op--><g id="link_Feature_User_logic_arc_int__baselibs__utils_scoped_op"><path codeLine="33" d="M2984.4,45.89 C2764.55,52.93 1783.28,87.01 982.5,158.5 C976.87,159 977.1131,158.9626 971.3231,159.5126 " fill="transparent" id="Feature_User-to-logic_arc_int__baselibs__utils_scoped_op" style="stroke:#181818;stroke-width:1;"/><polygon fill="#181818" points="965.35,160.08,974.6879,163.211,970.3276,159.6072,973.9314,155.2468,965.35,160.08" style="stroke:#181818;stroke-width:1;"/><text fill="#000000" font-family="sans-serif" font-size="13" lengthAdjust="spacing" textLength="23.0103" x="1602.5" y="124.5669">use</text></g><!--link Feature_User to logic_arc_int__baselibs__promise--><g id="link_Feature_User_logic_arc_int__baselibs__promise"><path codeLine="34" d="M3074.59,64.56 C3131.69,89.95 3223.8876,130.9722 3279.9976,155.9222 " fill="transparent" id="Feature_User-to-logic_arc_int__baselibs__promise" style="stroke:#181818;stroke-width:1;"/><polygon fill="#181818" points="3285.48,158.36,3278.8816,151.0483,3280.9113,156.3285,3275.6311,158.3582,3285.48,158.36" style="stroke:#181818;stroke-width:1;"/><text fill="#000000" font-family="sans-serif" font-size="13" lengthAdjust="spacing" textLength="23.0103" x="3215.5" y="124.5669">use</text></g><!--reverse link logic_arc_int__baselibs__bit_manipulation to comp_arc_sta__baselibs__bit_manipulation--><g id="link_logic_arc_int__baselibs__bit_manipulation_comp_arc_sta__baselibs__bit_manipulation"><path codeLine="35" d="M5425.8643,201.9675 C5459.3743,223.2575 5507.98,254.14 5541.41,275.38 " fill="transparent" id="logic_arc_int__baselibs__bit_manipulation-backto-comp_arc_sta__baselibs__bit_manipulation" style="stroke:#181818;stroke-width:1;"/><polygon fill="#181818" points="5420.8,198.75,5426.2515,206.9525,5425.0203,201.4313,5430.5415,200.2001,5420.8,198.75" style="stroke:#181818;stroke-width:1;"/><text fill="#000000" font-family="sans-serif" font-size="13" lengthAdjust="spacing" textLength="76.9082" x="5492.5" y="241.5669">implements</text></g><!--reverse link logic_arc_int__baselibs__promise to comp_arc_sta__baselibs__concurrency--><g id="link_logic_arc_int__baselibs__promise_comp_arc_sta__baselibs__concurrency"><path codeLine="36" d="M3241.8,199.9264 C3151.47,221.2164 3011.91,254.11 2921.51,275.41 " fill="transparent" id="logic_arc_int__baselibs__promise-backto-comp_arc_sta__baselibs__concurrency" style="stroke:#181818;stroke-width:1;"/><polygon fill="#181818" points="3247.64,198.55,3237.9624,196.7213,3242.7733,199.697,3239.7976,204.508,3247.64,198.55" style="stroke:#181818;stroke-width:1;"/><text fill="#000000" font-family="sans-serif" font-size="13" lengthAdjust="spacing" textLength="76.9082" x="3114.5" y="241.5669">implements</text></g><!--link Feature_User to logic_arc_int__baselibs__intrusive_list--><g id="link_Feature_User_logic_arc_int__baselibs__intrusive_list"><path codeLine="37" d="M3074.67,47.25 C3257.76,58.51 3962.41,103.23 4540.5,158.5 C4546.21,159.05 4546.051,159.0109 4551.931,159.6109 " fill="transparent" id="Feature_User-to-logic_arc_int__baselibs__intrusive_list" style="stroke:#181818;stroke-width:1;"/><polygon fill="#181818" points="4557.9,160.22,4549.3525,155.327,4552.9258,159.7124,4548.5404,163.2857,4557.9,160.22" style="stroke:#181818;stroke-width:1;"/><text fill="#000000" font-family="sans-serif" font-size="13" lengthAdjust="spacing" textLength="23.0103" x="4168.5" y="124.5669">use</text></g><!--link Feature_User to logic_arc_int__baselibs__memory_shared--><g id="link_Feature_User_logic_arc_int__baselibs__memory_shared"><path codeLine="38" d="M2984.49,45.85 C2788.96,51.8 1993.88,76.94 1341.5,111.5 C1026.14,128.21 947.12,131.2 632.5,158.5 C626.65,159.01 626.6641,158.9833 620.6541,159.5433 " fill="transparent" id="Feature_User-to-logic_arc_int__baselibs__memory_shared" style="stroke:#181818;stroke-width:1;"/><polygon fill="#181818" points="614.68,160.1,624.0123,163.2478,619.6584,159.6361,623.2701,155.2823,614.68,160.1" style="stroke:#181818;stroke-width:1;"/><text fill="#000000" font-family="sans-serif" font-size="13" lengthAdjust="spacing" textLength="23.0103" x="1342.5" y="124.5669">use</text></g><!--link Feature_User to logic_arc_int__baselibs__dynamic_array--><g id="link_Feature_User_logic_arc_int__baselibs__dynamic_array"><path codeLine="39" d="M3074.72,46.36 C3281.13,55.05 4154.47,93.97 4868.5,158.5 C4874.33,159.03 4874.3078,159.0027 4880.3078,159.5827 " fill="transparent" id="Feature_User-to-logic_arc_int__baselibs__dynamic_array" style="stroke:#181818;stroke-width:1;"/><polygon fill="#181818" points="4886.28,160.16,4877.7066,155.3126,4881.3032,159.6789,4876.9369,163.2755,4886.28,160.16" style="stroke:#181818;stroke-width:1;"/><text fill="#000000" font-family="sans-serif" font-size="13" lengthAdjust="spacing" textLength="23.0103" x="4466.5" y="124.5669">use</text></g><!--reverse link logic_arc_int__baselibs__intrusive_list to comp_arc_sta__baselibs__containers--><g id="link_logic_arc_int__baselibs__intrusive_list_comp_arc_sta__baselibs__containers"><path codeLine="40" d="M4737.7506,202.1252 C4769.0406,223.4152 4814.19,254.14 4845.4,275.38 " fill="transparent" id="logic_arc_int__baselibs__intrusive_list-backto-comp_arc_sta__baselibs__containers" style="stroke:#181818;stroke-width:1;"/><polygon fill="#181818" points="4732.79,198.75,4737.9808,207.1199,4736.9238,201.5627,4742.4811,200.5058,4732.79,198.75" style="stroke:#181818;stroke-width:1;"/><text fill="#000000" font-family="sans-serif" font-size="13" lengthAdjust="spacing" textLength="76.9082" x="4799.5" y="241.5669">implements</text></g><!--link Feature_User to logic_arc_int__baselibs__bit_manipulation--><g id="link_Feature_User_logic_arc_int__baselibs__bit_manipulation"><path codeLine="41" d="M3074.53,45.72 C3302.77,52.13 4354.67,84.51 5212.5,158.5 C5218.07,158.98 5217.7655,158.9374 5223.4955,159.4674 " fill="transparent" id="Feature_User-to-logic_arc_int__baselibs__bit_manipulation" style="stroke:#181818;stroke-width:1;"/><polygon fill="#181818" points="5229.47,160.02,5220.8767,155.2081,5224.4913,159.5595,5220.1398,163.1741,5229.47,160.02" style="stroke:#181818;stroke-width:1;"/><text fill="#000000" font-family="sans-serif" font-size="13" lengthAdjust="spacing" textLength="23.0103" x="4795.5" y="124.5669">use</text></g><!--reverse link logic_arc_int__baselibs__utils_base64 to comp_arc_sta__baselibs__utils--><g id="link_logic_arc_int__baselibs__utils_base64_comp_arc_sta__baselibs__utils"><path codeLine="42" d="M1113.0799,202.1113 C1081.5999,223.4013 1036.16,254.14 1004.76,275.38 " fill="transparent" id="logic_arc_int__baselibs__utils_base64-backto-comp_arc_sta__baselibs__utils" style="stroke:#181818;stroke-width:1;"/><polygon fill="#181818" points="1118.05,198.75,1108.354,200.4785,1113.9083,201.5511,1112.8357,207.1053,1118.05,198.75" style="stroke:#181818;stroke-width:1;"/><text fill="#000000" font-family="sans-serif" font-size="13" lengthAdjust="spacing" textLength="76.9082" x="1073.5" y="241.5669">implements</text></g><!--link Feature_User to logic_arc_int__baselibs__utils_base64--><g id="link_Feature_User_logic_arc_int__baselibs__utils_base64"><path codeLine="43" d="M2984.24,46.52 C2785.91,55.59 1973.82,94.87 1309.5,158.5 C1303.97,159.03 1304.3091,158.9816 1298.6191,159.5616 " fill="transparent" id="Feature_User-to-logic_arc_int__baselibs__utils_base64" style="stroke:#181818;stroke-width:1;"/><polygon fill="#181818" points="1292.65,160.17,1302.0092,163.2367,1297.6242,159.663,1301.198,155.278,1292.65,160.17" style="stroke:#181818;stroke-width:1;"/><text fill="#000000" font-family="sans-serif" font-size="13" lengthAdjust="spacing" textLength="23.0103" x="1877.5" y="124.5669">use</text></g><!--reverse link logic_arc_int__baselibs__memory_shared to comp_arc_sta__baselibs__memory_shared--><g id="link_logic_arc_int__baselibs__memory_shared_comp_arc_sta__baselibs__memory_shared"><path codeLine="44" d="M456.1582,204.7479 C456.7182,225.9779 457.44,253.94 458,275.19 " fill="transparent" id="logic_arc_int__baselibs__memory_shared-backto-comp_arc_sta__baselibs__memory_shared" style="stroke:#181818;stroke-width:1;"/><polygon fill="#181818" points="456,198.75,452.2387,207.8523,456.1318,203.7483,460.2359,207.6414,456,198.75" style="stroke:#181818;stroke-width:1;"/><text fill="#000000" font-family="sans-serif" font-size="13" lengthAdjust="spacing" textLength="76.9082" x="458.5" y="241.5669">implements</text></g><!--link Feature_User to logic_arc_int__baselibs__filesystem--><g id="link_Feature_User_logic_arc_int__baselibs__filesystem"><path codeLine="45" d="M2984.46,47.48 C2809.34,59.21 2157.07,104.23 1621.5,158.5 C1615.66,159.09 1615.6753,159.0759 1609.6553,159.7259 " fill="transparent" id="Feature_User-to-logic_arc_int__baselibs__filesystem" style="stroke:#181818;stroke-width:1;"/><polygon fill="#181818" points="1603.69,160.37,1613.0674,163.3807,1608.6611,159.8333,1612.2086,155.427,1603.69,160.37" style="stroke:#181818;stroke-width:1;"/><text fill="#000000" font-family="sans-serif" font-size="13" lengthAdjust="spacing" textLength="23.0103" x="2124.5" y="124.5669">use</text></g><!--link Feature_User to logic_arc_int__baselibs__condition_variable--><g id="link_Feature_User_logic_arc_int__baselibs__condition_variable"><path codeLine="46" d="M2984.49,49.39 C2821.51,67.1 2262.8749,127.8018 1978.2449,158.7318 " fill="transparent" id="Feature_User-to-logic_arc_int__baselibs__condition_variable" style="stroke:#181818;stroke-width:1;"/><polygon fill="#181818" points="1972.28,159.38,1981.6595,162.3843,1977.2507,158.8398,1980.7952,154.4311,1972.28,159.38" style="stroke:#181818;stroke-width:1;"/><text fill="#000000" font-family="sans-serif" font-size="13" lengthAdjust="spacing" textLength="23.0103" x="2381.5" y="124.5669">use</text></g><!--link Feature_User to logic_arc_int__baselibs__task--><g id="link_Feature_User_logic_arc_int__baselibs__task"><path codeLine="47" d="M2984.31,51.14 C2848.98,71.03 2449.7863,129.6978 2247.7163,159.3878 " fill="transparent" id="Feature_User-to-logic_arc_int__baselibs__task" style="stroke:#181818;stroke-width:1;"/><polygon fill="#181818" points="2241.78,160.26,2251.2659,162.9092,2246.7269,159.5332,2250.1029,154.9942,2241.78,160.26" style="stroke:#181818;stroke-width:1;"/><text fill="#000000" font-family="sans-serif" font-size="13" lengthAdjust="spacing" textLength="23.0103" x="2550.5" y="124.5669">use</text></g><!--reverse link logic_arc_int__baselibs__result to comp_arc_sta__baselibs__result--><g id="link_logic_arc_int__baselibs__result_comp_arc_sta__baselibs__result"><path codeLine="48" d="M136.621,204.7464 C135.881,225.9764 134.91,253.94 134.17,275.19 " fill="transparent" id="logic_arc_int__baselibs__result-backto-comp_arc_sta__baselibs__result" style="stroke:#181818;stroke-width:1;"/><polygon fill="#181818" points="136.83,198.75,132.5189,207.6052,136.6558,203.747,140.5141,207.8839,136.83,198.75" style="stroke:#181818;stroke-width:1;"/><text fill="#000000" font-family="sans-serif" font-size="13" lengthAdjust="spacing" textLength="76.9082" x="137.5" y="241.5669">implements</text></g><!--link Feature_User to logic_arc_int__baselibs__shared_future--><g id="link_Feature_User_logic_arc_int__baselibs__shared_future"><path codeLine="49" d="M2984.25,54.5 C2884.31,76.58 2649.1888,128.526 2519.4688,157.176 " fill="transparent" id="Feature_User-to-logic_arc_int__baselibs__shared_future" style="stroke:#181818;stroke-width:1;"/><polygon fill="#181818" points="2513.61,158.47,2523.2609,160.4349,2518.4923,157.3917,2521.5356,152.6232,2513.61,158.47" style="stroke:#181818;stroke-width:1;"/><text fill="#000000" font-family="sans-serif" font-size="13" lengthAdjust="spacing" textLength="23.0103" x="2710.5" y="124.5669">use</text></g><!--reverse link logic_arc_int__baselibs__task to comp_arc_sta__baselibs__concurrency--><g id="link_logic_arc_int__baselibs__task_comp_arc_sta__baselibs__concurrency"><path codeLine="50" d="M2243.1572,199.5431 C2322.8172,212.9131 2426.19,230.1 2522.5,245.5 C2585.79,255.62 2656.24,266.52 2714.71,275.46 " fill="transparent" id="logic_arc_int__baselibs__task-backto-comp_arc_sta__baselibs__concurrency" style="stroke:#181818;stroke-width:1;"/><polygon fill="#181818" points="2237.24,198.55,2245.4538,203.9845,2242.171,199.3776,2246.7779,196.0949,2237.24,198.55" style="stroke:#181818;stroke-width:1;"/><text fill="#000000" font-family="sans-serif" font-size="13" lengthAdjust="spacing" textLength="76.9082" x="2523.5" y="241.5669">implements</text></g><!--link Feature_User to logic_arc_int__baselibs__json--><g id="link_Feature_User_logic_arc_int__baselibs__json"><path codeLine="51" d="M3074.58,45.39 C3300.84,49.95 4335.31,72.1 5181.5,111.5 C5518.67,127.2 5603.7,124.34 5939.5,158.5 C5945.23,159.08 5945.1305,159.0342 5951.0405,159.7242 " fill="transparent" id="Feature_User-to-logic_arc_int__baselibs__json" style="stroke:#181818;stroke-width:1;"/><polygon fill="#181818" points="5957,160.42,5948.5246,155.4033,5952.0337,159.8402,5947.5969,163.3493,5957,160.42" style="stroke:#181818;stroke-width:1;"/><text fill="#000000" font-family="sans-serif" font-size="13" lengthAdjust="spacing" textLength="23.0103" x="5561.5" y="124.5669">use</text></g><!--reverse link logic_arc_int__baselibs__future to comp_arc_sta__baselibs__concurrency--><g id="link_logic_arc_int__baselibs__future_comp_arc_sta__baselibs__concurrency"><path codeLine="52" d="M2758.7425,203.2199 C2777.7525,224.4499 2804.17,253.94 2823.2,275.19 " fill="transparent" id="logic_arc_int__baselibs__future-backto-comp_arc_sta__baselibs__concurrency" style="stroke:#181818;stroke-width:1;"/><polygon fill="#181818" points="2754.74,198.75,2757.7638,208.1232,2758.0754,202.4749,2763.7237,202.7865,2754.74,198.75" style="stroke:#181818;stroke-width:1;"/><text fill="#000000" font-family="sans-serif" font-size="13" lengthAdjust="spacing" textLength="76.9082" x="2795.5" y="241.5669">implements</text></g><!--SRC=[hLOxRzim4DxvAuZiJeiYw104MGfqojZE14LTx6luK7d796hH_rxAScFBSKr9rdZIFRvxVKTjRNXH3b_HhmM7HdAGLM0EJjOOmJ06BpPOWoI6287R1dePNCEjrCmHgyH0uewujN0lhZMXhUHlyO0UlWGReenGRwLl6pHF7eZaf-kFue-u-x2p4Tfmrhlw2ffJ1FcT85v9JNBtGNKVf103SLMlxgKDQpHAHwFGirAL9h1OaLBKUhE9mUClgDNF10bkPIAGmWJNR0s8zQ612Pvr1Xb9hj8vptNhjTl-YhgzbUWQ2muyq_zzLyZAQOzDihehQI52hqvFAZGGTQxCCCg4Afpmj2t211SkzqklGJMQA4_9T0VSnOz0oNAv1IR52DwqXGfbpHgxIgfd7L5N5iOrOdo40UfbNPyQpJ4HVb1nSZgLfU72AvXqoH2EwltHc1KmlHlAcT3skPq5zuWMgCqKw0guzehZkf0ORObljZgAJ5xXEk_nx5mVKwUvs0hIHcTUV_Cw4zIxvAQoInE3GogbDOk0z-fBhzGRw9bLos9CXC-WB1BFuNGNOhjhuNJpemkup5azpkcYYtVOkhFmnYzW9t- -kN3G_pafKE51Tuf4EEZaN6eueAsfmt3g5Czv8XIAqX-HGZLEtUifRyOXfIr4b7roCo7r1tqX9AUu-Yy0]--></g></svg>