<svg xmlns="http://www.w3.org/2000/svg" xmlns:xlink="http://www.w3.org/1999/xlink" contentStyleType="text/css" data-diagram-type="CLASS" height="322px" preserveAspectRatio="none" style="width:6193px;height:322px;background:#FFFFFF;" version="1.1" viewBox="0 0 6193 322" width="6193px" zoomAndPan="magnify"><defs/><g><!--entity Feature_User--><g id="elem_Feature_User"><ellipse cx="3182.6685" cy="14" fill="#F1F1F1" rx="8" ry="8" style="stroke:#181818;stroke-width:0.5;"/><path d="M3182.6685,22 L3182.6685,49 M3169.6685,30 L3195.6685,30 M3182.6685,49 L3169.6685,64 M3182.6685,49 L3195.6685,64 " fill="transparent" style="stroke:#181818;stroke-width:0.5;"/><text fill="#000000" font-family="sans-serif" font-size="14" lengthAdjust="spacing" textLength="90.3369" x="3137.5" y="78.4951">Feature User</text></g><!--class logic_arc_int__baselibs__task--><g id="elem_logic_arc_int__baselibs__task"><rect fill="#F1F1F1" height="40" id="logic_arc_int__baselibs__task" rx="2.5" ry="2.5" style="stroke:#181818;stroke-width:0.5;" width="234.0156" x="2430.5" y="158.5"/><ellipse cx="2445.5" cy="174.5" fill="#ADD1B2" rx="11" ry="11" style="stroke:#181818;stroke-width:1;"/><path d="M2448.4688,180.1406 Q2447.8906,180.4375 2447.25,180.5781 Q2446.6094,180.7344 2445.9063,180.7344 Q2443.4063,180.7344 2442.0781,179.0938 Q2440.7656,177.4375 2440.7656,174.3125 Q2440.7656,171.1875 2442.0781,169.5313 Q2443.4063,167.875 2445.9063,167.875 Q2446.6094,167.875 2447.25,168.0313 Q2447.9063,168.1875 2448.4688,168.4844 L2448.4688,171.2031 Q2447.8438,170.625 2447.25,170.3594 Q2446.6563,170.0781 2446.0313,170.0781 Q2444.6875,170.0781 2444,171.1563 Q2443.3125,172.2188 2443.3125,174.3125 Q2443.3125,176.4063 2444,177.4844 Q2444.6875,178.5469 2446.0313,178.5469 Q2446.6563,178.5469 2447.25,178.2813 Q2447.8438,178 2448.4688,177.4219 L2448.4688,180.1406 Z " fill="#000000"/><text fill="#000000" font-family="sans-serif" font-size="14" lengthAdjust="spacing" textLength="202.0156" x="2459.5" y="179.3467">logic_arc_int__baselibs__task</text><line style="stroke:#181818;stroke-width:0.5;" x1="2431.5" x2="2663.5156" y1="190.5" y2="190.5"/></g><!--class logic_arc_int__baselibs__bit_manipulation--><g id="elem_logic_arc_int__baselibs__bit_manipulation"><rect fill="#F1F1F1" height="40" id="logic_arc_int__baselibs__bit_manipulation" rx="2.5" ry="2.5" style="stroke:#181818;stroke-width:0.5;" width="321.8369" x="374.5" y="158.5"/><ellipse cx="389.5" cy="174.5" fill="#ADD1B2" rx="11" ry="11" style="stroke:#181818;stroke-width:1;"/><path d="M392.4688,180.1406 Q391.8906,180.4375 391.25,180.5781 Q390.6094,180.7344 389.9063,180.7344 Q387.4063,180.7344 386.0781,179.0938 Q384.7656,177.4375 384.7656,174.3125 Q384.7656,171.1875 386.0781,169.5313 Q387.4063,167.875 389.9063,167.875 Q390.6094,167.875 391.25,168.0313 Q391.9063,168.1875 392.4688,168.4844 L392.4688,171.2031 Q391.8438,170.625 391.25,170.3594 Q390.6563,170.0781 390.0313,170.0781 Q388.6875,170.0781 388,171.1563 Q387.3125,172.2188 387.3125,174.3125 Q387.3125,176.4063 388,177.4844 Q388.6875,178.5469 390.0313,178.5469 Q390.6563,178.5469 391.25,178.2813 Q391.8438,178 392.4688,177.4219 L392.4688,180.1406 Z " fill="#000000"/><text fill="#000000" font-family="sans-serif" font-size="14" lengthAdjust="spacing" textLength="289.8369" x="403.5" y="179.3467">logic_arc_int__baselibs__bit_manipulation</text><line style="stroke:#181818;stroke-width:0.5;" x1="375.5" x2="695.3369" y1="190.5" y2="190.5"/></g><!--class comp_arc_sta__baselibs__containers--><g id="elem_comp_arc_sta__baselibs__containers"><rect fill="#F1F1F1" height="40" id="comp_arc_sta__baselibs__containers" rx="2.5" ry="2.5" style="stroke:#181818;stroke-width:0.5;" width="287.1445" x="5351" y="275.5"/><ellipse cx="5366" cy="291.5" fill="#ADD1B2" rx="11" ry="11" style="stroke:#181818;stroke-width:1;"/><path d="M5368.9688,297.1406 Q5368.3906,297.4375 5367.75,297.5781 Q5367.1094,297.7344 5366.4063,297.7344 Q5363.9063,297.7344 5362.5781,296.0938 Q5361.2656,294.4375 5361.2656,291.3125 Q5361.2656,288.1875 5362.5781,286.5313 Q5363.9063,284.875 5366.4063,284.875 Q5367.1094,284.875 5367.75,285.0313 Q5368.4063,285.1875 5368.9688,285.4844 L5368.9688,288.2031 Q5368.3438,287.625 5367.75,287.3594 Q5367.1563,287.0781 5366.5313,287.0781 Q5365.1875,287.0781 5364.5,288.1563 Q5363.8125,289.2188 5363.8125,291.3125 Q5363.8125,293.4063 5364.5,294.4844 Q5365.1875,295.5469 5366.5313,295.5469 Q5367.1563,295.5469 5367.75,295.2813 Q5368.3438,295 5368.9688,294.4219 L5368.9688,297.1406 Z " fill="#000000"/><text fill="#000000" font-family="sans-serif" font-size="14" lengthAdjust="spacing" textLength="255.1445" x="5380" y="296.3467">comp_arc_sta__baselibs__containers</text><line style="stroke:#181818;stroke-width:0.5;" x1="5352" x2="5637.1445" y1="307.5" y2="307.5"/></g><!--class logic_arc_int__baselibs__dynamic_array--><g id="elem_logic_arc_int__baselibs__dynamic_array"><rect fill="#F1F1F1" height="40" id="logic_arc_int__baselibs__dynamic_array" rx="2.5" ry="2.5" style="stroke:#181818;stroke-width:0.5;" width="308.3496" x="5562.5" y="158.5"/><ellipse cx="5577.5" cy="174.5" fill="#ADD1B2" rx="11" ry="11" style="stroke:#181818;stroke-width:1;"/><path d="M5580.4688,180.1406 Q5579.8906,180.4375 5579.25,180.5781 Q5578.6094,180.7344 5577.9063,180.7344 Q5575.4063,180.7344 5574.0781,179.0938 Q5572.7656,177.4375 5572.7656,174.3125 Q5572.7656,171.1875 5574.0781,169.5313 Q5575.4063,167.875 5577.9063,167.875 Q5578.6094,167.875 5579.25,168.0313 Q5579.9063,168.1875 5580.4688,168.4844 L5580.4688,171.2031 Q5579.8438,170.625 5579.25,170.3594 Q5578.6563,170.0781 5578.0313,170.0781 Q5576.6875,170.0781 5576,171.1563 Q5575.3125,172.2188 5575.3125,174.3125 Q5575.3125,176.4063 5576,177.4844 Q5576.6875,178.5469 5578.0313,178.5469 Q5578.6563,178.5469 5579.25,178.2813 Q5579.8438,178 5580.4688,177.4219 L5580.4688,180.1406 Z " fill="#000000"/><text fill="#000000" font-family="sans-serif" font-size="14" lengthAdjust="spacing" textLength="276.3496" x="5591.5" y="179.3467">logic_arc_int__baselibs__dynamic_array</text><line style="stroke:#181818;stroke-width:0.5;" x1="5563.5" x2="5869.8496" y1="190.5" y2="190.5"/></g><!--class logic_arc_int__baselibs__json--><g id="elem_logic_arc_int__baselibs__json"><rect fill="#F1F1F1" height="40" id="logic_arc_int__baselibs__json" rx="2.5" ry="2.5" style="stroke:#181818;stroke-width:0.5;" width="233.168" x="1102" y="158.5"/><ellipse cx="1117" cy="174.5" fill="#ADD1B2" rx="11" ry="11" style="stroke:#181818;stroke-width:1;"/><path d="M1119.9688,180.1406 Q1119.3906,180.4375 1118.75,180.5781 Q1118.1094,180.7344 1117.4063,180.7344 Q1114.9063,180.7344 1113.5781,179.0938 Q1112.2656,177.4375 1112.2656,174.3125 Q1112.2656,171.1875 1113.5781,169.5313 Q1114.9063,167.875 1117.4063,167.875 Q1118.1094,167.875 1118.75,168.0313 Q1119.4063,168.1875 1119.9688,168.4844 L1119.9688,171.2031 Q1119.3438,170.625 1118.75,170.3594 Q1118.1563,170.0781 1117.5313,170.0781 Q1116.1875,170.0781 1115.5,171.1563 Q1114.8125,172.2188 1114.8125,174.3125 Q1114.8125,176.4063 1115.5,177.4844 Q1116.1875,178.5469 1117.5313,178.5469 Q1118.1563,178.5469 1118.75,178.2813 Q1119.3438,178 1119.9688,177.4219 L1119.9688,180.1406 Z " fill="#000000"/><text fill="#000000" font-family="sans-serif" font-size="14" lengthAdjust="spacing" textLength="201.168" x="1131" y="179.3467">logic_arc_int__baselibs__json</text><line style="stroke:#181818;stroke-width:0.5;" x1="1103" x2="1334.168" y1="190.5" y2="190.5"/></g><!--class logic_arc_int__baselibs__executor--><g id="elem_logic_arc_int__baselibs__executor"><rect fill="#F1F1F1" height="40" id="logic_arc_int__baselibs__executor" rx="2.5" ry="2.5" style="stroke:#181818;stroke-width:0.5;" width="266.4385" x="3680.5" y="158.5"/><ellipse cx="3695.5" cy="174.5" fill="#ADD1B2" rx="11" ry="11" style="stroke:#181818;stroke-width:1;"/><path d="M3698.4688,180.1406 Q3697.8906,180.4375 3697.25,180.5781 Q3696.6094,180.7344 3695.9063,180.7344 Q3693.4063,180.7344 3692.0781,179.0938 Q3690.7656,177.4375 3690.7656,174.3125 Q3690.7656,171.1875 3692.0781,169.5313 Q3693.4063,167.875 3695.9063,167.875 Q3696.6094,167.875 3697.25,168.0313 Q3697.9063,168.1875 3698.4688,168.4844 L3698.4688,171.2031 Q3697.8438,170.625 3697.25,170.3594 Q3696.6563,170.0781 3696.0313,170.0781 Q3694.6875,170.0781 3694,171.1563 Q3693.3125,172.2188 3693.3125,174.3125 Q3693.3125,176.4063 3694,177.4844 Q3694.6875,178.5469 3696.0313,178.5469 Q3696.6563,178.5469 3697.25,178.2813 Q3697.8438,178 3698.4688,177.4219 L3698.4688,180.1406 Z " fill="#000000"/><text fill="#000000" font-family="sans-serif" font-size="14" lengthAdjust="spacing" textLength="234.4385" x="3709.5" y="179.3467">logic_arc_int__baselibs__executor</text><line style="stroke:#181818;stroke-width:0.5;" x1="3681.5" x2="3945.9385" y1="190.5" y2="190.5"/></g><!--class comp_arc_sta__baselibs__concurrency--><g id="elem_comp_arc_sta__baselibs__concurrency"><rect fill="#F1F1F1" height="40" id="comp_arc_sta__baselibs__concurrency" rx="2.5" ry="2.5" style="stroke:#181818;stroke-width:0.5;" width="300.2012" x="3145.5" y="275.5"/><ellipse cx="3160.5" cy="291.5" fill="#ADD1B2" rx="11" ry="11" style="stroke:#181818;stroke-width:1;"/><path d="M3163.4688,297.1406 Q3162.8906,297.4375 3162.25,297.5781 Q3161.6094,297.7344 3160.9063,297.7344 Q3158.4063,297.7344 3157.0781,296.0938 Q3155.7656,294.4375 3155.7656,291.3125 Q3155.7656,288.1875 3157.0781,286.5313 Q3158.4063,284.875 3160.9063,284.875 Q3161.6094,284.875 3162.25,285.0313 Q3162.9063,285.1875 3163.4688,285.4844 L3163.4688,288.2031 Q3162.8438,287.625 3162.25,287.3594 Q3161.6563,287.0781 3161.0313,287.0781 Q3159.6875,287.0781 3159,288.1563 Q3158.3125,289.2188 3158.3125,291.3125 Q3158.3125,293.4063 3159,294.4844 Q3159.6875,295.5469 3161.0313,295.5469 Q3161.6563,295.5469 3162.25,295.2813 Q3162.8438,295 3163.4688,294.4219 L3163.4688,297.1406 Z " fill="#000000"/><text fill="#000000" font-family="sans-serif" font-size="14" lengthAdjust="spacing" textLength="268.2012" x="3174.5" y="296.3467">comp_arc_sta__baselibs__concurrency</text><line style="stroke:#181818;stroke-width:0.5;" x1="3146.5" x2="3444.7012" y1="307.5" y2="307.5"/></g><!--class logic_arc_int__baselibs__synchronized_queue--><g id="elem_logic_arc_int__baselibs__synchronized_queue"><rect fill="#F1F1F1" height="40" id="logic_arc_int__baselibs__synchronized_queue" rx="2.5" ry="2.5" style="stroke:#181818;stroke-width:0.5;" width="348.3604" x="2047.5" y="158.5"/><ellipse cx="2062.5" cy="174.5" fill="#ADD1B2" rx="11" ry="11" style="stroke:#181818;stroke-width:1;"/><path d="M2065.4688,180.1406 Q2064.8906,180.4375 2064.25,180.5781 Q2063.6094,180.7344 2062.9063,180.7344 Q2060.4063,180.7344 2059.0781,179.0938 Q2057.7656,177.4375 2057.7656,174.3125 Q2057.7656,171.1875 2059.0781,169.5313 Q2060.4063,167.875 2062.9063,167.875 Q2063.6094,167.875 2064.25,168.0313 Q2064.9063,168.1875 2065.4688,168.4844 L2065.4688,171.2031 Q2064.8438,170.625 2064.25,170.3594 Q2063.6563,170.0781 2063.0313,170.0781 Q2061.6875,170.0781 2061,171.1563 Q2060.3125,172.2188 2060.3125,174.3125 Q2060.3125,176.4063 2061,177.4844 Q2061.6875,178.5469 2063.0313,178.5469 Q2063.6563,178.5469 2064.25,178.2813 Q2064.8438,178 2065.4688,177.4219 L2065.4688,180.1406 Z " fill="#000000"/><text fill="#000000" font-family="sans-serif" font-size="14" lengthAdjust="spacing" textLength="316.3604" x="2076.5" y="179.3467">logic_arc_int__baselibs__synchronized_queue</text><line style="stroke:#181818;stroke-width:0.5;" x1="2048.5" x2="2394.8604" y1="190.5" y2="190.5"/></g><!--class comp_arc_sta__baselibs__filesystem--><g id="elem_comp_arc_sta__baselibs__filesystem"><rect fill="#F1F1F1" height="40" id="comp_arc_sta__baselibs__filesystem" rx="2.5" ry="2.5" style="stroke:#181818;stroke-width:0.5;" width="285.4492" x="5901" y="275.5"/><ellipse cx="5916" cy="291.5" fill="#ADD1B2" rx="11" ry="11" style="stroke:#181818;stroke-width:1;"/><path d="M5918.9688,297.1406 Q5918.3906,297.4375 5917.75,297.5781 Q5917.1094,297.7344 5916.4063,297.7344 Q5913.9063,297.7344 5912.5781,296.0938 Q5911.2656,294.4375 5911.2656,291.3125 Q5911.2656,288.1875 5912.5781,286.5313 Q5913.9063,284.875 5916.4063,284.875 Q5917.1094,284.875 5917.75,285.0313 Q5918.4063,285.1875 5918.9688,285.4844 L5918.9688,288.2031 Q5918.3438,287.625 5917.75,287.3594 Q5917.1563,287.0781 5916.5313,287.0781 Q5915.1875,287.0781 5914.5,288.1563 Q5913.8125,289.2188 5913.8125,291.3125 Q5913.8125,293.4063 5914.5,294.4844 Q5915.1875,295.5469 5916.5313,295.5469 Q5917.1563,295.5469 5917.75,295.2813 Q5918.3438,295 5918.9688,294.4219 L5918.9688,297.1406 Z " fill="#000000"/><text fill="#000000" font-family="sans-serif" font-size="14" lengthAdjust="spacing" textLength="253.4492" x="5930" y="296.3467">comp_arc_sta__baselibs__filesystem</text><line style="stroke:#181818;stroke-width:0.5;" x1="5902" x2="6185.4492" y1="307.5" y2="307.5"/></g><!--class logic_arc_int__baselibs__filesystem--><g id="elem_logic_arc_int__baselibs__filesystem"><rect fill="#F1F1F1" height="40" id="logic_arc_int__baselibs__filesystem" rx="2.5" ry="2.5" style="stroke:#181818;stroke-width:0.5;" width="276.4805" x="5905.5" y="158.5"/><ellipse cx="5920.5" cy="174.5" fill="#ADD1B2" rx="11" ry="11" style="stroke:#181818;stroke-width:1;"/><path d="M5923.4688,180.1406 Q5922.8906,180.4375 5922.25,180.5781 Q5921.6094,180.7344 5920.9063,180.7344 Q5918.4063,180.7344 5917.0781,179.0938 Q5915.7656,177.4375 5915.7656,174.3125 Q5915.7656,171.1875 5917.0781,169.5313 Q5918.4063,167.875 5920.9063,167.875 Q5921.6094,167.875 5922.25,168.0313 Q5922.9063,168.1875 5923.4688,168.4844 L5923.4688,171.2031 Q5922.8438,170.625 5922.25,170.3594 Q5921.6563,170.0781 5921.0313,170.0781 Q5919.6875,170.0781 5919,171.1563 Q5918.3125,172.2188 5918.3125,174.3125 Q5918.3125,176.4063 5919,177.4844 Q5919.6875,178.5469 5921.0313,178.5469 Q5921.6563,178.5469 5922.25,178.2813 Q5922.8438,178 5923.4688,177.4219 L5923.4688,180.1406 Z " fill="#000000"/><text fill="#000000" font-family="sans-serif" font-size="14" lengthAdjust="spacing" textLength="244.4805" x="5934.5" y="179.3467">logic_arc_int__baselibs__filesystem</text><line style="stroke:#181818;stroke-width:0.5;" x1="5906.5" x2="6180.9805" y1="190.5" y2="190.5"/></g><!--class comp_arc_sta__baselibs__result--><g id="elem_comp_arc_sta__baselibs__result"><rect fill="#F1F1F1" height="40" id="comp_arc_sta__baselibs__result" rx="2.5" ry="2.5" style="stroke:#181818;stroke-width:0.5;" width="253.4297" x="4954" y="275.5"/><ellipse cx="4969" cy="291.5" fill="#ADD1B2" rx="11" ry="11" style="stroke:#181818;stroke-width:1;"/><path d="M4971.9688,297.1406 Q4971.3906,297.4375 4970.75,297.5781 Q4970.1094,297.7344 4969.4063,297.7344 Q4966.9063,297.7344 4965.5781,296.0938 Q4964.2656,294.4375 4964.2656,291.3125 Q4964.2656,288.1875 4965.5781,286.5313 Q4966.9063,284.875 4969.4063,284.875 Q4970.1094,284.875 4970.75,285.0313 Q4971.4063,285.1875 4971.9688,285.4844 L4971.9688,288.2031 Q4971.3438,287.625 4970.75,287.3594 Q4970.1563,287.0781 4969.5313,287.0781 Q4968.1875,287.0781 4967.5,288.1563 Q4966.8125,289.2188 4966.8125,291.3125 Q4966.8125,293.4063 4967.5,294.4844 Q4968.1875,295.5469 4969.5313,295.5469 Q4970.1563,295.5469 4970.75,295.2813 Q4971.3438,295 4971.9688,294.4219 L4971.9688,297.1406 Z " fill="#000000"/><text fill="#000000" font-family="sans-serif" font-size="14" lengthAdjust="spacing" textLength="221.4297" x="4983" y="296.3467">comp_arc_sta__baselibs__result</text><line style="stroke:#181818;stroke-width:0.5;" x1="4955" x2="5206.4297" y1="307.5" y2="307.5"/></g><!--class logic_arc_int__baselibs__result--><g id="elem_logic_arc_int__baselibs__result"><rect fill="#F1F1F1" height="40" id="logic_arc_int__baselibs__result" rx="2.5" ry="2.5" style="stroke:#181818;stroke-width:0.5;" width="244.4609" x="4954.5" y="158.5"/><ellipse cx="4969.5" cy="174.5" fill="#ADD1B2" rx="11" ry="11" style="stroke:#181818;stroke-width:1;"/><path d="M4972.4688,180.1406 Q4971.8906,180.4375 4971.25,180.5781 Q4970.6094,180.7344 4969.9063,180.7344 Q4967.4063,180.7344 4966.0781,179.0938 Q4964.7656,177.4375 4964.7656,174.3125 Q4964.7656,171.1875 4966.0781,169.5313 Q4967.4063,167.875 4969.9063,167.875 Q4970.6094,167.875 4971.25,168.0313 Q4971.9063,168.1875 4972.4688,168.4844 L4972.4688,171.2031 Q4971.8438,170.625 4971.25,170.3594 Q4970.6563,170.0781 4970.0313,170.0781 Q4968.6875,170.0781 4968,171.1563 Q4967.3125,172.2188 4967.3125,174.3125 Q4967.3125,176.4063 4968,177.4844 Q4968.6875,178.5469 4970.0313,178.5469 Q4970.6563,178.5469 4971.25,178.2813 Q4971.8438,178 4972.4688,177.4219 L4972.4688,180.1406 Z " fill="#000000"/><text fill="#000000" font-family="sans-serif" font-size="14" lengthAdjust="spacing" textLength="212.4609" x="4983.5" y="179.3467">logic_arc_int__baselibs__result</text><line style="stroke:#181818;stroke-width:0.5;" x1="4955.5" x2="5197.9609" y1="190.5" y2="190.5"/></g><!--class comp_arc_sta__baselibs__memory_shared--><g id="elem_comp_arc_sta__baselibs__memory_shared"><rect fill="#F1F1F1" height="40" id="comp_arc_sta__baselibs__memory_shared" rx="2.5" ry="2.5" style="stroke:#181818;stroke-width:0.5;" width="327.0117" x="4592" y="275.5"/><ellipse cx="4607" cy="291.5" fill="#ADD1B2" rx="11" ry="11" style="stroke:#181818;stroke-width:1;"/><path d="M4609.9688,297.1406 Q4609.3906,297.4375 4608.75,297.5781 Q4608.1094,297.7344 4607.4063,297.7344 Q4604.9063,297.7344 4603.5781,296.0938 Q4602.2656,294.4375 4602.2656,291.3125 Q4602.2656,288.1875 4603.5781,286.5313 Q4604.9063,284.875 4607.4063,284.875 Q4608.1094,284.875 4608.75,285.0313 Q4609.4063,285.1875 4609.9688,285.4844 L4609.9688,288.2031 Q4609.3438,287.625 4608.75,287.3594 Q4608.1563,287.0781 4607.5313,287.0781 Q4606.1875,287.0781 4605.5,288.1563 Q4604.8125,289.2188 4604.8125,291.3125 Q4604.8125,293.4063 4605.5,294.4844 Q4606.1875,295.5469 4607.5313,295.5469 Q4608.1563,295.5469 4608.75,295.2813 Q4609.3438,295 4609.9688,294.4219 L4609.9688,297.1406 Z " fill="#000000"/><text fill="#000000" font-family="sans-serif" font-size="14" lengthAdjust="spacing" textLength="295.0117" x="4621" y="296.3467">comp_arc_sta__baselibs__memory_shared</text><line style="stroke:#181818;stroke-width:0.5;" x1="4593" x2="4918.0117" y1="307.5" y2="307.5"/></g><!--class logic_arc_int__baselibs__memory_shared--><g id="elem_logic_arc_int__baselibs__memory_shared"><rect fill="#F1F1F1" height="40" id="logic_arc_int__baselibs__memory_shared" rx="2.5" ry="2.5" style="stroke:#181818;stroke-width:0.5;" width="318.043" x="4601.5" y="158.5"/><ellipse cx="4616.5" cy="174.5" fill="#ADD1B2" rx="11" ry="11" style="stroke:#181818;stroke-width:1;"/><path d="M4619.4688,180.1406 Q4618.8906,180.4375 4618.25,180.5781 Q4617.6094,180.7344 4616.9063,180.7344 Q4614.4063,180.7344 4613.0781,179.0938 Q4611.7656,177.4375 4611.7656,174.3125 Q4611.7656,171.1875 4613.0781,169.5313 Q4614.4063,167.875 4616.9063,167.875 Q4617.6094,167.875 4618.25,168.0313 Q4618.9063,168.1875 4619.4688,168.4844 L4619.4688,171.2031 Q4618.8438,170.625 4618.25,170.3594 Q4617.6563,170.0781 4617.0313,170.0781 Q4615.6875,170.0781 4615,171.1563 Q4614.3125,172.2188 4614.3125,174.3125 Q4614.3125,176.4063 4615,177.4844 Q4615.6875,178.5469 4617.0313,178.5469 Q4617.6563,178.5469 4618.25,178.2813 Q4618.8438,178 4619.4688,177.4219 L4619.4688,180.1406 Z " fill="#000000"/><text fill="#000000" font-family="sans-serif" font-size="14" lengthAdjust="spacing" textLength="286.043" x="4630.5" y="179.3467">logic_arc_int__baselibs__memory_shared</text><line style="stroke:#181818;stroke-width:0.5;" x1="4602.5" x2="4918.543" y1="190.5" y2="190.5"/></g><!--class logic_arc_int__baselibs__intrusive_list--><g id="elem_logic_arc_int__baselibs__intrusive_list"><rect fill="#F1F1F1" height="40" id="logic_arc_int__baselibs__intrusive_list" rx="2.5" ry="2.5" style="stroke:#181818;stroke-width:0.5;" width="293.0713" x="5234" y="158.5"/><ellipse cx="5249" cy="174.5" fill="#ADD1B2" rx="11" ry="11" style="stroke:#181818;stroke-width:1;"/><path d="M5251.9688,180.1406 Q5251.3906,180.4375 5250.75,180.5781 Q5250.1094,180.7344 5249.4063,180.7344 Q5246.9063,180.7344 5245.5781,179.0938 Q5244.2656,177.4375 5244.2656,174.3125 Q5244.2656,171.1875 5245.5781,169.5313 Q5246.9063,167.875 5249.4063,167.875 Q5250.1094,167.875 5250.75,168.0313 Q5251.4063,168.1875 5251.9688,168.4844 L5251.9688,171.2031 Q5251.3438,170.625 5250.75,170.3594 Q5250.1563,170.0781 5249.5313,170.0781 Q5248.1875,170.0781 5247.5,171.1563 Q5246.8125,172.2188 5246.8125,174.3125 Q5246.8125,176.4063 5247.5,177.4844 Q5248.1875,178.5469 5249.5313,178.5469 Q5250.1563,178.5469 5250.75,178.2813 Q5251.3438,178 5251.9688,177.4219 L5251.9688,180.1406 Z " fill="#000000"/><text fill="#000000" font-family="sans-serif" font-size="14" lengthAdjust="spacing" textLength="261.0713" x="5263" y="179.3467">logic_arc_int__baselibs__intrusive_list</text><line style="stroke:#181818;stroke-width:0.5;" x1="5235" x2="5526.0713" y1="190.5" y2="190.5"/></g><!--class logic_arc_int__baselibs__message_passing--><g id="elem_logic_arc_int__baselibs__message_passing"><rect fill="#F1F1F1" height="40" id="logic_arc_int__baselibs__message_passing" rx="2.5" ry="2.5" style="stroke:#181818;stroke-width:0.5;" width="328.167" x="11.5" y="158.5"/><ellipse cx="26.5" cy="174.5" fill="#ADD1B2" rx="11" ry="11" style="stroke:#181818;stroke-width:1;"/><path d="M29.4688,180.1406 Q28.8906,180.4375 28.25,180.5781 Q27.6094,180.7344 26.9063,180.7344 Q24.4063,180.7344 23.0781,179.0938 Q21.7656,177.4375 21.7656,174.3125 Q21.7656,171.1875 23.0781,169.5313 Q24.4063,167.875 26.9063,167.875 Q27.6094,167.875 28.25,168.0313 Q28.9063,168.1875 29.4688,168.4844 L29.4688,171.2031 Q28.8438,170.625 28.25,170.3594 Q27.6563,170.0781 27.0313,170.0781 Q25.6875,170.0781 25,171.1563 Q24.3125,172.2188 24.3125,174.3125 Q24.3125,176.4063 25,177.4844 Q25.6875,178.5469 27.0313,178.5469 Q27.6563,178.5469 28.25,178.2813 Q28.8438,178 29.4688,177.4219 L29.4688,180.1406 Z " fill="#000000"/><text fill="#000000" font-family="sans-serif" font-size="14" lengthAdjust="spacing" textLength="296.167" x="40.5" y="179.3467">logic_arc_int__baselibs__message_passing</text><line style="stroke:#181818;stroke-width:0.5;" x1="12.5" x2="338.667" y1="190.5" y2="190.5"/></g><!--class comp_arc_sta__baselibs__utils--><g id="elem_comp_arc_sta__baselibs__utils"><rect fill="#F1F1F1" height="40" id="comp_arc_sta__baselibs__utils" rx="2.5" ry="2.5" style="stroke:#181818;stroke-width:0.5;" width="242.9502" x="1521" y="275.5"/><ellipse cx="1536" cy="291.5" fill="#ADD1B2" rx="11" ry="11" style="stroke:#181818;stroke-width:1;"/><path d="M1538.9688,297.1406 Q1538.3906,297.4375 1537.75,297.5781 Q1537.1094,297.7344 1536.4063,297.7344 Q1533.9063,297.7344 1532.5781,296.0938 Q1531.2656,294.4375 1531.2656,291.3125 Q1531.2656,288.1875 1532.5781,286.5313 Q1533.9063,284.875 1536.4063,284.875 Q1537.1094,284.875 1537.75,285.0313 Q1538.4063,285.1875 1538.9688,285.4844 L1538.9688,288.2031 Q1538.3438,287.625 1537.75,287.3594 Q1537.1563,287.0781 1536.5313,287.0781 Q1535.1875,287.0781 1534.5,288.1563 Q1533.8125,289.2188 1533.8125,291.3125 Q1533.8125,293.4063 1534.5,294.4844 Q1535.1875,295.5469 1536.5313,295.5469 Q1537.1563,295.5469 1537.75,295.2813 Q1538.3438,295 1538.9688,294.4219 L1538.9688,297.1406 Z " fill="#000000"/><text fill="#000000" font-family="sans-serif" font-size="14" lengthAdjust="spacing" textLength="210.9502" x="1550" y="296.3467">comp_arc_sta__baselibs__utils</text><line style="stroke:#181818;stroke-width:0.5;" x1="1522" x2="1762.9502" y1="307.5" y2="307.5"/></g><!--class logic_arc_int__baselibs__utils_scoped_op--><g id="elem_logic_arc_int__baselibs__utils_scoped_op"><rect fill="#F1F1F1" height="40" id="logic_arc_int__baselibs__utils_scoped_op" rx="2.5" ry="2.5" style="stroke:#181818;stroke-width:0.5;" width="315.377" x="1370" y="158.5"/><ellipse cx="1385" cy="174.5" fill="#ADD1B2" rx="11" ry="11" style="stroke:#181818;stroke-width:1;"/><path d="M1387.9688,180.1406 Q1387.3906,180.4375 1386.75,180.5781 Q1386.1094,180.7344 1385.4063,180.7344 Q1382.9063,180.7344 1381.5781,179.0938 Q1380.2656,177.4375 1380.2656,174.3125 Q1380.2656,171.1875 1381.5781,169.5313 Q1382.9063,167.875 1385.4063,167.875 Q1386.1094,167.875 1386.75,168.0313 Q1387.4063,168.1875 1387.9688,168.4844 L1387.9688,171.2031 Q1387.3438,170.625 1386.75,170.3594 Q1386.1563,170.0781 1385.5313,170.0781 Q1384.1875,170.0781 1383.5,171.1563 Q1382.8125,172.2188 1382.8125,174.3125 Q1382.8125,176.4063 1383.5,177.4844 Q1384.1875,178.5469 1385.5313,178.5469 Q1386.1563,178.5469 1386.75,178.2813 Q1387.3438,178 1387.9688,177.4219 L1387.9688,180.1406 Z " fill="#000000"/><text fill="#000000" font-family="sans-serif" font-size="14" lengthAdjust="spacing" textLength="283.377" x="1399" y="179.3467">logic_arc_int__baselibs__utils_scoped_op</text><line style="stroke:#181818;stroke-width:0.5;" x1="1371" x2="1684.377" y1="190.5" y2="190.5"/></g><!--class logic_arc_int__baselibs__promise--><g id="elem_logic_arc_int__baselibs__promise"><rect fill="#F1F1F1" height="40" id="logic_arc_int__baselibs__promise" rx="2.5" ry="2.5" style="stroke:#181818;stroke-width:0.5;" width="261.1885" x="3384" y="158.5"/><ellipse cx="3399" cy="174.5" fill="#ADD1B2" rx="11" ry="11" style="stroke:#181818;stroke-width:1;"/><path d="M3401.9688,180.1406 Q3401.3906,180.4375 3400.75,180.5781 Q3400.1094,180.7344 3399.4063,180.7344 Q3396.9063,180.7344 3395.5781,179.0938 Q3394.2656,177.4375 3394.2656,174.3125 Q3394.2656,171.1875 3395.5781,169.5313 Q3396.9063,167.875 3399.4063,167.875 Q3400.1094,167.875 3400.75,168.0313 Q3401.4063,168.1875 3401.9688,168.4844 L3401.9688,171.2031 Q3401.3438,170.625 3400.75,170.3594 Q3400.1563,170.0781 3399.5313,170.0781 Q3398.1875,170.0781 3397.5,171.1563 Q3396.8125,172.2188 3396.8125,174.3125 Q3396.8125,176.4063 3397.5,177.4844 Q3398.1875,178.5469 3399.5313,178.5469 Q3400.1563,178.5469 3400.75,178.2813 Q3401.3438,178 3401.9688,177.4219 L3401.9688,180.1406 Z " fill="#000000"/><text fill="#000000" font-family="sans-serif" font-size="14" lengthAdjust="spacing" textLength="229.1885" x="3413" y="179.3467">logic_arc_int__baselibs__promise</text><line style="stroke:#181818;stroke-width:0.5;" x1="3385" x2="3644.1885" y1="190.5" y2="190.5"/></g><!--class logic_arc_int__baselibs__task_result--><g id="elem_logic_arc_int__baselibs__task_result"><rect fill="#F1F1F1" height="40" id="logic_arc_int__baselibs__task_result" rx="2.5" ry="2.5" style="stroke:#181818;stroke-width:0.5;" width="280.9307" x="2700" y="158.5"/><ellipse cx="2715" cy="174.5" fill="#ADD1B2" rx="11" ry="11" style="stroke:#181818;stroke-width:1;"/><path d="M2717.9688,180.1406 Q2717.3906,180.4375 2716.75,180.5781 Q2716.1094,180.7344 2715.4063,180.7344 Q2712.9063,180.7344 2711.5781,179.0938 Q2710.2656,177.4375 2710.2656,174.3125 Q2710.2656,171.1875 2711.5781,169.5313 Q2712.9063,167.875 2715.4063,167.875 Q2716.1094,167.875 2716.75,168.0313 Q2717.4063,168.1875 2717.9688,168.4844 L2717.9688,171.2031 Q2717.3438,170.625 2716.75,170.3594 Q2716.1563,170.0781 2715.5313,170.0781 Q2714.1875,170.0781 2713.5,171.1563 Q2712.8125,172.2188 2712.8125,174.3125 Q2712.8125,176.4063 2713.5,177.4844 Q2714.1875,178.5469 2715.5313,178.5469 Q2716.1563,178.5469 2716.75,178.2813 Q2717.3438,178 2717.9688,177.4219 L2717.9688,180.1406 Z " fill="#000000"/><text fill="#000000" font-family="sans-serif" font-size="14" lengthAdjust="spacing" textLength="248.9307" x="2729" y="179.3467">logic_arc_int__baselibs__task_result</text><line style="stroke:#181818;stroke-width:0.5;" x1="2701" x2="2979.9307" y1="190.5" y2="190.5"/></g><!--class logic_arc_int__baselibs__condition_variable--><g id="elem_logic_arc_int__baselibs__condition_variable"><rect fill="#F1F1F1" height="40" id="logic_arc_int__baselibs__condition_variable" rx="2.5" ry="2.5" style="stroke:#181818;stroke-width:0.5;" width="332.7539" x="3016" y="158.5"/><ellipse cx="3031" cy="174.5" fill="#ADD1B2" rx="11" ry="11" style="stroke:#181818;stroke-width:1;"/><path d="M3033.9688,180.1406 Q3033.3906,180.4375 3032.75,180.5781 Q3032.1094,180.7344 3031.4063,180.7344 Q3028.9063,180.7344 3027.5781,179.0938 Q3026.2656,177.4375 3026.2656,174.3125 Q3026.2656,171.1875 3027.5781,169.5313 Q3028.9063,167.875 3031.4063,167.875 Q3032.1094,167.875 3032.75,168.0313 Q3033.4063,168.1875 3033.9688,168.4844 L3033.9688,171.2031 Q3033.3438,170.625 3032.75,170.3594 Q3032.1563,170.0781 3031.5313,170.0781 Q3030.1875,170.0781 3029.5,171.1563 Q3028.8125,172.2188 3028.8125,174.3125 Q3028.8125,176.4063 3029.5,177.4844 Q3030.1875,178.5469 3031.5313,178.5469 Q3032.1563,178.5469 3032.75,178.2813 Q3033.3438,178 3033.9688,177.4219 L3033.9688,180.1406 Z " fill="#000000"/><text fill="#000000" font-family="sans-serif" font-size="14" lengthAdjust="spacing" textLength="300.7539" x="3045" y="179.3467">logic_arc_int__baselibs__condition_variable</text><line style="stroke:#181818;stroke-width:0.5;" x1="3017" x2="3347.7539" y1="190.5" y2="190.5"/></g><!--class logic_arc_int__baselibs__shared_future--><g id="elem_logic_arc_int__baselibs__shared_future"><rect fill="#F1F1F1" height="40" id="logic_arc_int__baselibs__shared_future" rx="2.5" ry="2.5" style="stroke:#181818;stroke-width:0.5;" width="302.0811" x="4264.5" y="158.5"/><ellipse cx="4279.5" cy="174.5" fill="#ADD1B2" rx="11" ry="11" style="stroke:#181818;stroke-width:1;"/><path d="M4282.4688,180.1406 Q4281.8906,180.4375 4281.25,180.5781 Q4280.6094,180.7344 4279.9063,180.7344 Q4277.4063,180.7344 4276.0781,179.0938 Q4274.7656,177.4375 4274.7656,174.3125 Q4274.7656,171.1875 4276.0781,169.5313 Q4277.4063,167.875 4279.9063,167.875 Q4280.6094,167.875 4281.25,168.0313 Q4281.9063,168.1875 4282.4688,168.4844 L4282.4688,171.2031 Q4281.8438,170.625 4281.25,170.3594 Q4280.6563,170.0781 4280.0313,170.0781 Q4278.6875,170.0781 4278,171.1563 Q4277.3125,172.2188 4277.3125,174.3125 Q4277.3125,176.4063 4278,177.4844 Q4278.6875,178.5469 4280.0313,178.5469 Q4280.6563,178.5469 4281.25,178.2813 Q4281.8438,178 4282.4688,177.4219 L4282.4688,180.1406 Z " fill="#000000"/><text fill="#000000" font-family="sans-serif" font-size="14" lengthAdjust="spacing" textLength="270.0811" x="4293.5" y="179.3467">logic_arc_int__baselibs__shared_future</text><line style="stroke:#181818;stroke-width:0.5;" x1="4265.5" x2="4565.5811" y1="190.5" y2="190.5"/></g><!--class comp_arc_sta__baselibs__bit_manipulation--><g id="elem_comp_arc_sta__baselibs__bit_manipulation"><rect fill="#F1F1F1" height="40" id="comp_arc_sta__baselibs__bit_manipulation" rx="2.5" ry="2.5" style="stroke:#181818;stroke-width:0.5;" width="330.8057" x="555" y="275.5"/><ellipse cx="570" cy="291.5" fill="#ADD1B2" rx="11" ry="11" style="stroke:#181818;stroke-width:1;"/><path d="M572.9688,297.1406 Q572.3906,297.4375 571.75,297.5781 Q571.1094,297.7344 570.4063,297.7344 Q567.9063,297.7344 566.5781,296.0938 Q565.2656,294.4375 565.2656,291.3125 Q565.2656,288.1875 566.5781,286.5313 Q567.9063,284.875 570.4063,284.875 Q571.1094,284.875 571.75,285.0313 Q572.4063,285.1875 572.9688,285.4844 L572.9688,288.2031 Q572.3438,287.625 571.75,287.3594 Q571.1563,287.0781 570.5313,287.0781 Q569.1875,287.0781 568.5,288.1563 Q567.8125,289.2188 567.8125,291.3125 Q567.8125,293.4063 568.5,294.4844 Q569.1875,295.5469 570.5313,295.5469 Q571.1563,295.5469 571.75,295.2813 Q572.3438,295 572.9688,294.4219 L572.9688,297.1406 Z " fill="#000000"/><text fill="#000000" font-family="sans-serif" font-size="14" lengthAdjust="spacing" textLength="298.8057" x="584" y="296.3467">comp_arc_sta__baselibs__bit_manipulation</text><line style="stroke:#181818;stroke-width:0.5;" x1="556" x2="884.8057" y1="307.5" y2="307.5"/></g><!--class logic_arc_int__baselibs__bit_mask_operator--><g id="elem_logic_arc_int__baselibs__bit_mask_operator"><rect fill="#F1F1F1" height="40" id="logic_arc_int__baselibs__bit_mask_operator" rx="2.5" ry="2.5" style="stroke:#181818;stroke-width:0.5;" width="334.6406" x="732" y="158.5"/><ellipse cx="747" cy="174.5" fill="#ADD1B2" rx="11" ry="11" style="stroke:#181818;stroke-width:1;"/><path d="M749.9688,180.1406 Q749.3906,180.4375 748.75,180.5781 Q748.1094,180.7344 747.4063,180.7344 Q744.9063,180.7344 743.5781,179.0938 Q742.2656,177.4375 742.2656,174.3125 Q742.2656,171.1875 743.5781,169.5313 Q744.9063,167.875 747.4063,167.875 Q748.1094,167.875 748.75,168.0313 Q749.4063,168.1875 749.9688,168.4844 L749.9688,171.2031 Q749.3438,170.625 748.75,170.3594 Q748.1563,170.0781 747.5313,170.0781 Q746.1875,170.0781 745.5,171.1563 Q744.8125,172.2188 744.8125,174.3125 Q744.8125,176.4063 745.5,177.4844 Q746.1875,178.5469 747.5313,178.5469 Q748.1563,178.5469 748.75,178.2813 Q749.3438,178 749.9688,177.4219 L749.9688,180.1406 Z " fill="#000000"/><text fill="#000000" font-family="sans-serif" font-size="14" lengthAdjust="spacing" textLength="302.6406" x="761" y="179.3467">logic_arc_int__baselibs__bit_mask_operator</text><line style="stroke:#181818;stroke-width:0.5;" x1="733" x2="1065.6406" y1="190.5" y2="190.5"/></g><!--class comp_arc_sta__baselibs__json--><g id="elem_comp_arc_sta__baselibs__json"><rect fill="#F1F1F1" height="40" id="comp_arc_sta__baselibs__json" rx="2.5" ry="2.5" style="stroke:#181818;stroke-width:0.5;" width="242.1367" x="1097.5" y="275.5"/><ellipse cx="1112.5" cy="291.5" fill="#ADD1B2" rx="11" ry="11" style="stroke:#181818;stroke-width:1;"/><path d="M1115.4688,297.1406 Q1114.8906,297.4375 1114.25,297.5781 Q1113.6094,297.7344 1112.9063,297.7344 Q1110.4063,297.7344 1109.0781,296.0938 Q1107.7656,294.4375 1107.7656,291.3125 Q1107.7656,288.1875 1109.0781,286.5313 Q1110.4063,284.875 1112.9063,284.875 Q1113.6094,284.875 1114.25,285.0313 Q1114.9063,285.1875 1115.4688,285.4844 L1115.4688,288.2031 Q1114.8438,287.625 1114.25,287.3594 Q1113.6563,287.0781 1113.0313,287.0781 Q1111.6875,287.0781 1111,288.1563 Q1110.3125,289.2188 1110.3125,291.3125 Q1110.3125,293.4063 1111,294.4844 Q1111.6875,295.5469 1113.0313,295.5469 Q1113.6563,295.5469 1114.25,295.2813 Q1114.8438,295 1115.4688,294.4219 L1115.4688,297.1406 Z " fill="#000000"/><text fill="#000000" font-family="sans-serif" font-size="14" lengthAdjust="spacing" textLength="210.1367" x="1126.5" y="296.3467">comp_arc_sta__baselibs__json</text><line style="stroke:#181818;stroke-width:0.5;" x1="1098.5" x2="1338.6367" y1="307.5" y2="307.5"/></g><!--class logic_arc_int__baselibs__future--><g id="elem_logic_arc_int__baselibs__future"><rect fill="#F1F1F1" height="40" id="logic_arc_int__baselibs__future" rx="2.5" ry="2.5" style="stroke:#181818;stroke-width:0.5;" width="247.0791" x="3982" y="158.5"/><ellipse cx="3997" cy="174.5" fill="#ADD1B2" rx="11" ry="11" style="stroke:#181818;stroke-width:1;"/><path d="M3999.9688,180.1406 Q3999.3906,180.4375 3998.75,180.5781 Q3998.1094,180.7344 3997.4063,180.7344 Q3994.9063,180.7344 3993.5781,179.0938 Q3992.2656,177.4375 3992.2656,174.3125 Q3992.2656,171.1875 3993.5781,169.5313 Q3994.9063,167.875 3997.4063,167.875 Q3998.1094,167.875 3998.75,168.0313 Q3999.4063,168.1875 3999.9688,168.4844 L3999.9688,171.2031 Q3999.3438,170.625 3998.75,170.3594 Q3998.1563,170.0781 3997.5313,170.0781 Q3996.1875,170.0781 3995.5,171.1563 Q3994.8125,172.2188 3994.8125,174.3125 Q3994.8125,176.4063 3995.5,177.4844 Q3996.1875,178.5469 3997.5313,178.5469 Q3998.1563,178.5469 3998.75,178.2813 Q3999.3438,178 3999.9688,177.4219 L3999.9688,180.1406 Z " fill="#000000"/><text fill="#000000" font-family="sans-serif" font-size="14" lengthAdjust="spacing" textLength="215.0791" x="4011" y="179.3467">logic_arc_int__baselibs__future</text><line style="stroke:#181818;stroke-width:0.5;" x1="3983" x2="4228.0791" y1="190.5" y2="190.5"/></g><!--class logic_arc_int__baselibs__utils_base64--><g id="elem_logic_arc_int__baselibs__utils_base64"><rect fill="#F1F1F1" height="40" id="logic_arc_int__baselibs__utils_base64" rx="2.5" ry="2.5" style="stroke:#181818;stroke-width:0.5;" width="292.1689" x="1720.5" y="158.5"/><ellipse cx="1735.5" cy="174.5" fill="#ADD1B2" rx="11" ry="11" style="stroke:#181818;stroke-width:1;"/><path d="M1738.4688,180.1406 Q1737.8906,180.4375 1737.25,180.5781 Q1736.6094,180.7344 1735.9063,180.7344 Q1733.4063,180.7344 1732.0781,179.0938 Q1730.7656,177.4375 1730.7656,174.3125 Q1730.7656,171.1875 1732.0781,169.5313 Q1733.4063,167.875 1735.9063,167.875 Q1736.6094,167.875 1737.25,168.0313 Q1737.9063,168.1875 1738.4688,168.4844 L1738.4688,171.2031 Q1737.8438,170.625 1737.25,170.3594 Q1736.6563,170.0781 1736.0313,170.0781 Q1734.6875,170.0781 1734,171.1563 Q1733.3125,172.2188 1733.3125,174.3125 Q1733.3125,176.4063 1734,177.4844 Q1734.6875,178.5469 1736.0313,178.5469 Q1736.6563,178.5469 1737.25,178.2813 Q1737.8438,178 1738.4688,177.4219 L1738.4688,180.1406 Z " fill="#000000"/><text fill="#000000" font-family="sans-serif" font-size="14" lengthAdjust="spacing" textLength="260.1689" x="1749.5" y="179.3467">logic_arc_int__baselibs__utils_base64</text><line style="stroke:#181818;stroke-width:0.5;" x1="1721.5" x2="2011.6689" y1="190.5" y2="190.5"/></g><!--class comp_arc_sta__baselibs__message_passing--><g id="elem_comp_arc_sta__baselibs__message_passing"><rect fill="#F1F1F1" height="40" id="comp_arc_sta__baselibs__message_passing" rx="2.5" ry="2.5" style="stroke:#181818;stroke-width:0.5;" width="337.1357" x="7" y="275.5"/><ellipse cx="22" cy="291.5" fill="#ADD1B2" rx="11" ry="11" style="stroke:#181818;stroke-width:1;"/><path d="M24.9688,297.1406 Q24.3906,297.4375 23.75,297.5781 Q23.1094,297.7344 22.4063,297.7344 Q19.9063,297.7344 18.5781,296.0938 Q17.2656,294.4375 17.2656,291.3125 Q17.2656,288.1875 18.5781,286.5313 Q19.9063,284.875 22.4063,284.875 Q23.1094,284.875 23.75,285.0313 Q24.4063,285.1875 24.9688,285.4844 L24.9688,288.2031 Q24.3438,287.625 23.75,287.3594 Q23.1563,287.0781 22.5313,287.0781 Q21.1875,287.0781 20.5,288.1563 Q19.8125,289.2188 19.8125,291.3125 Q19.8125,293.4063 20.5,294.4844 Q21.1875,295.5469 22.5313,295.5469 Q23.1563,295.5469 23.75,295.2813 Q24.3438,295 24.9688,294.4219 L24.9688,297.1406 Z " fill="#000000"/><text fill="#000000" font-family="sans-serif" font-size="14" lengthAdjust="spacing" textLength="305.1357" x="36" y="296.3467">comp_arc_sta__baselibs__message_passing</text><line style="stroke:#181818;stroke-width:0.5;" x1="8" x2="343.1357" y1="307.5" y2="307.5"/></g><!--link Feature_User to logic_arc_int__baselibs__task--><g id="link_Feature_User_logic_arc_int__baselibs__task"><path codeLine="15" d="M3137.34,53.96 C3033.57,75.69 2782.3126,128.3201 2644.3226,157.2201 " fill="transparent" id="Feature_User-to-logic_arc_int__baselibs__task" style="stroke:#181818;stroke-width:1;"/><polygon fill="#181818" points="2638.45,158.45,2648.0788,160.5202,2643.3438,157.4251,2646.4389,152.6901,2638.45,158.45" style="stroke:#181818;stroke-width:1;"/><text fill="#000000" font-family="sans-serif" font-size="13" lengthAdjust="spacing" textLength="23.0103" x="2847.5" y="124.5669">use</text></g><!--link Feature_User to logic_arc_int__baselibs__bit_manipulation--><g id="link_Feature_User_logic_arc_int__baselibs__bit_manipulation"><path codeLine="16" d="M3137.2,45.67 C2934.17,51.01 2087.56,74.49 1393.5,111.5 C1091.43,127.61 1015.84,132.09 714.5,158.5 C708.74,159 708.8543,158.985 702.9343,159.535 " fill="transparent" id="Feature_User-to-logic_arc_int__baselibs__bit_manipulation" style="stroke:#181818;stroke-width:1;"/><polygon fill="#181818" points="696.96,160.09,706.2914,163.2403,701.9386,159.6275,705.5514,155.2746,696.96,160.09" style="stroke:#181818;stroke-width:1;"/><text fill="#000000" font-family="sans-serif" font-size="13" lengthAdjust="spacing" textLength="23.0103" x="1394.5" y="124.5669">use</text></g><!--reverse link logic_arc_int__baselibs__dynamic_array to comp_arc_sta__baselibs__containers--><g id="link_logic_arc_int__baselibs__dynamic_array_comp_arc_sta__baselibs__containers"><path codeLine="17" d="M5674.2627,201.3803 C5633.2127,222.6503 5572.59,254.05 5531.5,275.34 " fill="transparent" id="logic_arc_int__baselibs__dynamic_array-backto-comp_arc_sta__baselibs__containers" style="stroke:#181818;stroke-width:1;"/><polygon fill="#181818" points="5679.59,198.62,5669.7588,199.209,5675.1506,200.9203,5673.4392,206.3121,5679.59,198.62" style="stroke:#181818;stroke-width:1;"/><text fill="#000000" font-family="sans-serif" font-size="13" lengthAdjust="spacing" textLength="76.9082" x="5620.5" y="241.5669">implements</text></g><!--link Feature_User to logic_arc_int__baselibs__json--><g id="link_Feature_User_logic_arc_int__baselibs__json"><path codeLine="18" d="M3137.45,45.89 C2931.85,52.54 2062.03,83.88 1352.5,158.5 C1346.77,159.1 1346.8772,159.0443 1340.9672,159.7543 " fill="transparent" id="Feature_User-to-logic_arc_int__baselibs__json" style="stroke:#181818;stroke-width:1;"/><polygon fill="#181818" points="1335.01,160.47,1344.4229,163.3679,1339.9743,159.8736,1343.4686,155.4251,1335.01,160.47" style="stroke:#181818;stroke-width:1;"/><text fill="#000000" font-family="sans-serif" font-size="13" lengthAdjust="spacing" textLength="23.0103" x="1855.5" y="124.5669">use</text></g><!--link Feature_User to logic_arc_int__baselibs__executor--><g id="link_Feature_User_logic_arc_int__baselibs__executor"><path codeLine="19" d="M3227.63,54.01 C3330.94,75.79 3580.369,128.3626 3717.349,157.2326 " fill="transparent" id="Feature_User-to-logic_arc_int__baselibs__executor" style="stroke:#181818;stroke-width:1;"/><polygon fill="#181818" points="3723.22,158.47,3715.2384,152.6999,3718.3275,157.4388,3713.5885,160.5279,3723.22,158.47" style="stroke:#181818;stroke-width:1;"/><text fill="#000000" font-family="sans-serif" font-size="13" lengthAdjust="spacing" textLength="23.0103" x="3574.5" y="124.5669">use</text></g><!--reverse link logic_arc_int__baselibs__synchronized_queue to comp_arc_sta__baselibs__concurrency--><g id="link_logic_arc_int__baselibs__synchronized_queue_comp_arc_sta__baselibs__concurrency"><path codeLine="20" d="M2376.1833,199.2569 C2486.3433,213.0769 2634.2,231.05 2769.5,245.5 C2896.15,259.02 3040.18,272.29 3145.47,281.61 " fill="transparent" id="logic_arc_int__baselibs__synchronized_queue-backto-comp_arc_sta__baselibs__concurrency" style="stroke:#181818;stroke-width:1;"/><polygon fill="#181818" points="2370.23,198.51,2378.6621,203.5992,2375.1911,199.1324,2379.6579,195.6614,2370.23,198.51" style="stroke:#181818;stroke-width:1;"/><text fill="#000000" font-family="sans-serif" font-size="13" lengthAdjust="spacing" textLength="76.9082" x="2770.5" y="241.5669">implements</text></g><!--reverse link logic_arc_int__baselibs__filesystem to comp_arc_sta__baselibs__filesystem--><g id="link_logic_arc_int__baselibs__filesystem_comp_arc_sta__baselibs__filesystem"><path codeLine="21" d="M6043.5,204.75 C6043.5,225.98 6043.5,253.94 6043.5,275.19 " fill="transparent" id="logic_arc_int__baselibs__filesystem-backto-comp_arc_sta__baselibs__filesystem" style="stroke:#181818;stroke-width:1;"/><polygon fill="#181818" points="6043.5,198.75,6039.5,207.75,6043.5,203.75,6047.5,207.75,6043.5,198.75" style="stroke:#181818;stroke-width:1;"/><text fill="#000000" font-family="sans-serif" font-size="13" lengthAdjust="spacing" textLength="76.9082" x="6044.5" y="241.5669">implements</text></g><!--reverse link logic_arc_int__baselibs__result to comp_arc_sta__baselibs__result--><g id="link_logic_arc_int__baselibs__result_comp_arc_sta__baselibs__result"><path codeLine="22" d="M5077.379,204.7464 C5078.119,225.9764 5079.09,253.94 5079.83,275.19 " fill="transparent" id="logic_arc_int__baselibs__result-backto-comp_arc_sta__baselibs__result" style="stroke:#181818;stroke-width:1;"/><polygon fill="#181818" points="5077.17,198.75,5073.4859,207.8839,5077.3442,203.747,5081.4811,207.6052,5077.17,198.75" style="stroke:#181818;stroke-width:1;"/><text fill="#000000" font-family="sans-serif" font-size="13" lengthAdjust="spacing" textLength="76.9082" x="5080.5" y="241.5669">implements</text></g><!--reverse link logic_arc_int__baselibs__executor to comp_arc_sta__baselibs__concurrency--><g id="link_logic_arc_int__baselibs__executor_comp_arc_sta__baselibs__concurrency"><path codeLine="23" d="M3721.8126,199.8505 C3625.9226,221.1405 3477.45,254.11 3381.49,275.41 " fill="transparent" id="logic_arc_int__baselibs__executor-backto-comp_arc_sta__baselibs__concurrency" style="stroke:#181818;stroke-width:1;"/><polygon fill="#181818" points="3727.67,198.55,3718.017,196.5958,3722.7889,199.6337,3719.7509,204.4056,3727.67,198.55" style="stroke:#181818;stroke-width:1;"/><text fill="#000000" font-family="sans-serif" font-size="13" lengthAdjust="spacing" textLength="76.9082" x="3587.5" y="241.5669">implements</text></g><!--reverse link logic_arc_int__baselibs__memory_shared to comp_arc_sta__baselibs__memory_shared--><g id="link_logic_arc_int__baselibs__memory_shared_comp_arc_sta__baselibs__memory_shared"><path codeLine="24" d="M4759.4002,204.7444 C4758.4802,225.9744 4757.26,253.94 4756.34,275.19 " fill="transparent" id="logic_arc_int__baselibs__memory_shared-backto-comp_arc_sta__baselibs__memory_shared" style="stroke:#181818;stroke-width:1;"/><polygon fill="#181818" points="4759.66,198.75,4755.2741,207.5684,4759.4435,203.7453,4763.2666,207.9147,4759.66,198.75" style="stroke:#181818;stroke-width:1;"/><text fill="#000000" font-family="sans-serif" font-size="13" lengthAdjust="spacing" textLength="76.9082" x="4759.5" y="241.5669">implements</text></g><!--link Feature_User to logic_arc_int__baselibs__dynamic_array--><g id="link_Feature_User_logic_arc_int__baselibs__dynamic_array"><path codeLine="25" d="M3227.58,45.66 C3426.04,50.91 4241.69,73.76 4910.5,111.5 C5192.6,127.42 5263.14,132.54 5544.5,158.5 C5550.33,159.04 5550.3088,159.0128 5556.3088,159.6028 " fill="transparent" id="Feature_User-to-logic_arc_int__baselibs__dynamic_array" style="stroke:#181818;stroke-width:1;"/><polygon fill="#181818" points="5562.28,160.19,5553.7146,155.3284,5557.304,159.7007,5552.9318,163.29,5562.28,160.19" style="stroke:#181818;stroke-width:1;"/><text fill="#000000" font-family="sans-serif" font-size="13" lengthAdjust="spacing" textLength="23.0103" x="5186.5" y="124.5669">use</text></g><!--reverse link logic_arc_int__baselibs__intrusive_list to comp_arc_sta__baselibs__containers--><g id="link_logic_arc_int__baselibs__intrusive_list_comp_arc_sta__baselibs__containers"><path codeLine="26" d="M5403.8035,203.0117 C5424.8435,224.2417 5454.29,253.94 5475.36,275.19 " fill="transparent" id="logic_arc_int__baselibs__intrusive_list-backto-comp_arc_sta__baselibs__containers" style="stroke:#181818;stroke-width:1;"/><polygon fill="#181818" points="5399.58,198.75,5403.0742,207.9582,5403.0996,202.3014,5408.7564,202.3268,5399.58,198.75" style="stroke:#181818;stroke-width:1;"/><text fill="#000000" font-family="sans-serif" font-size="13" lengthAdjust="spacing" textLength="76.9082" x="5445.5" y="241.5669">implements</text></g><!--link Feature_User to logic_arc_int__baselibs__memory_shared--><g id="link_Feature_User_logic_arc_int__baselibs__memory_shared"><path codeLine="27" d="M3227.59,47.74 C3402.19,60.4 4050.52,108.22 4583.5,158.5 C4589.35,159.05 4589.3287,159.0438 4595.3387,159.6338 " fill="transparent" id="Feature_User-to-logic_arc_int__baselibs__memory_shared" style="stroke:#181818;stroke-width:1;"/><polygon fill="#181818" points="4601.31,160.22,4592.7439,155.3598,4596.3339,159.7315,4591.9623,163.3216,4601.31,160.22" style="stroke:#181818;stroke-width:1;"/><text fill="#000000" font-family="sans-serif" font-size="13" lengthAdjust="spacing" textLength="23.0103" x="4239.5" y="124.5669">use</text></g><!--link Feature_User to logic_arc_int__baselibs__intrusive_list--><g id="link_Feature_User_logic_arc_int__baselibs__intrusive_list"><path codeLine="28" d="M3227.73,46.01 C3406.49,52.11 4081.06,76.26 4635.5,111.5 C4893.6,127.9 4958.11,133.26 5215.5,158.5 C5221.53,159.09 5221.7026,159.0854 5227.9126,159.7354 " fill="transparent" id="Feature_User-to-logic_arc_int__baselibs__intrusive_list" style="stroke:#181818;stroke-width:1;"/><polygon fill="#181818" points="5233.88,160.36,5225.3453,155.4448,5228.9072,159.8395,5224.5125,163.4014,5233.88,160.36" style="stroke:#181818;stroke-width:1;"/><text fill="#000000" font-family="sans-serif" font-size="13" lengthAdjust="spacing" textLength="23.0103" x="4878.5" y="124.5669">use</text></g><!--link Feature_User to logic_arc_int__baselibs__message_passing--><g id="link_Feature_User_logic_arc_int__baselibs__message_passing"><path codeLine="29" d="M3137.43,45.35 C2913.44,49.7 1897.54,70.85 1066.5,111.5 C750.63,126.95 671.6,131.54 356.5,158.5 C350.99,158.97 351.3658,158.9315 345.7058,159.4415 " fill="transparent" id="Feature_User-to-logic_arc_int__baselibs__message_passing" style="stroke:#181818;stroke-width:1;"/><polygon fill="#181818" points="339.73,159.98,349.0527,163.1562,344.7098,159.5313,348.3347,155.1885,339.73,159.98" style="stroke:#181818;stroke-width:1;"/><text fill="#000000" font-family="sans-serif" font-size="13" lengthAdjust="spacing" textLength="23.0103" x="1067.5" y="124.5669">use</text></g><!--reverse link logic_arc_int__baselibs__utils_scoped_op to comp_arc_sta__baselibs__utils--><g id="link_logic_arc_int__baselibs__utils_scoped_op_comp_arc_sta__baselibs__utils"><path codeLine="30" d="M1550.9926,202.9926 C1572.2226,224.2226 1601.94,253.94 1623.19,275.19 " fill="transparent" id="logic_arc_int__baselibs__utils_scoped_op-backto-comp_arc_sta__baselibs__utils" style="stroke:#181818;stroke-width:1;"/><polygon fill="#181818" points="1546.75,198.75,1550.2855,207.9424,1550.2855,202.2855,1555.9424,202.2855,1546.75,198.75" style="stroke:#181818;stroke-width:1;"/><text fill="#000000" font-family="sans-serif" font-size="13" lengthAdjust="spacing" textLength="76.9082" x="1593.5" y="241.5669">implements</text></g><!--link Feature_User to logic_arc_int__baselibs__promise--><g id="link_Feature_User_logic_arc_int__baselibs__promise"><path codeLine="31" d="M3227.62,62.58 C3290.29,87.68 3397.6106,130.668 3461.4906,156.268 " fill="transparent" id="Feature_User-to-logic_arc_int__baselibs__promise" style="stroke:#181818;stroke-width:1;"/><polygon fill="#181818" points="3467.06,158.5,3460.1938,151.4391,3462.4188,156.64,3457.2179,158.865,3467.06,158.5" style="stroke:#181818;stroke-width:1;"/><text fill="#000000" font-family="sans-serif" font-size="13" lengthAdjust="spacing" textLength="23.0103" x="3389.5" y="124.5669">use</text></g><!--reverse link logic_arc_int__baselibs__task_result to comp_arc_sta__baselibs__concurrency--><g id="link_logic_arc_int__baselibs__task_result_comp_arc_sta__baselibs__concurrency"><path codeLine="32" d="M2921.7071,200.0203 C3005.9371,221.3103 3135.68,254.11 3219.96,275.41 " fill="transparent" id="logic_arc_int__baselibs__task_result-backto-comp_arc_sta__baselibs__concurrency" style="stroke:#181818;stroke-width:1;"/><polygon fill="#181818" points="2915.89,198.55,2923.6354,204.6335,2920.7375,199.7753,2925.5958,196.8774,2915.89,198.55" style="stroke:#181818;stroke-width:1;"/><text fill="#000000" font-family="sans-serif" font-size="13" lengthAdjust="spacing" textLength="76.9082" x="3096.5" y="241.5669">implements</text></g><!--link Feature_User to logic_arc_int__baselibs__result--><g id="link_Feature_User_logic_arc_int__baselibs__result"><path codeLine="33" d="M3227.66,46.18 C3428.25,53.89 4258.45,88.6 4936.5,158.5 C4942.36,159.1 4942.3798,159.0704 4948.4298,159.7704 " fill="transparent" id="Feature_User-to-logic_arc_int__baselibs__result" style="stroke:#181818;stroke-width:1;"/><polygon fill="#181818" points="4954.39,160.46,4945.9094,155.4521,4949.4231,159.8853,4944.9899,163.3991,4954.39,160.46" style="stroke:#181818;stroke-width:1;"/><text fill="#000000" font-family="sans-serif" font-size="13" lengthAdjust="spacing" textLength="23.0103" x="4603.5" y="124.5669">use</text></g><!--link Feature_User to logic_arc_int__baselibs__condition_variable--><g id="link_Feature_User_logic_arc_int__baselibs__condition_variable"><path codeLine="34" d="M3182.5,81.55 C3182.5,106.45 3182.5,132.26 3182.5,152.26 " fill="transparent" id="Feature_User-to-logic_arc_int__baselibs__condition_variable" style="stroke:#181818;stroke-width:1;"/><polygon fill="#181818" points="3182.5,158.26,3186.5,149.26,3182.5,153.26,3178.5,149.26,3182.5,158.26" style="stroke:#181818;stroke-width:1;"/><text fill="#000000" font-family="sans-serif" font-size="13" lengthAdjust="spacing" textLength="23.0103" x="3183.5" y="124.5669">use</text></g><!--reverse link logic_arc_int__baselibs__task to comp_arc_sta__baselibs__concurrency--><g id="link_logic_arc_int__baselibs__task_comp_arc_sta__baselibs__concurrency"><path codeLine="35" d="M2667.6501,199.4961 C2749.4101,212.9761 2856.2,230.31 2955.5,245.5 C3022.71,255.78 3097.48,266.62 3159.75,275.48 " fill="transparent" id="logic_arc_int__baselibs__task-backto-comp_arc_sta__baselibs__concurrency" style="stroke:#181818;stroke-width:1;"/><polygon fill="#181818" points="2661.73,198.52,2669.9594,203.9308,2666.6634,199.3334,2671.2608,196.0374,2661.73,198.52" style="stroke:#181818;stroke-width:1;"/><text fill="#000000" font-family="sans-serif" font-size="13" lengthAdjust="spacing" textLength="76.9082" x="2956.5" y="241.5669">implements</text></g><!--reverse link logic_arc_int__baselibs__shared_future to comp_arc_sta__baselibs__concurrency--><g id="link_logic_arc_int__baselibs__shared_future_comp_arc_sta__baselibs__concurrency"><path codeLine="36" d="M4262.8975,199.2632 C4152.4075,213.2432 4003.06,231.44 3866.5,245.5 C3723.86,260.19 3560.84,273.87 3445.61,283.02 " fill="transparent" id="logic_arc_int__baselibs__shared_future-backto-comp_arc_sta__baselibs__concurrency" style="stroke:#181818;stroke-width:1;"/><polygon fill="#181818" points="4268.85,198.51,4259.4191,195.6714,4263.8895,199.1376,4260.4233,203.6081,4268.85,198.51" style="stroke:#181818;stroke-width:1;"/><text fill="#000000" font-family="sans-serif" font-size="13" lengthAdjust="spacing" textLength="76.9082" x="4018.5" y="241.5669">implements</text></g><!--reverse link logic_arc_int__baselibs__bit_mask_operator to comp_arc_sta__baselibs__bit_manipulation--><g id="link_logic_arc_int__baselibs__bit_mask_operator_comp_arc_sta__baselibs__bit_manipulation"><path codeLine="37" d="M864.4919,201.993 C831.3519,223.283 783.32,254.14 750.26,275.38 " fill="transparent" id="logic_arc_int__baselibs__bit_mask_operator-backto-comp_arc_sta__baselibs__bit_manipulation" style="stroke:#181818;stroke-width:1;"/><polygon fill="#181818" points="869.54,198.75,859.8059,200.2491,865.3333,201.4525,864.1299,206.9799,869.54,198.75" style="stroke:#181818;stroke-width:1;"/><text fill="#000000" font-family="sans-serif" font-size="13" lengthAdjust="spacing" textLength="76.9082" x="822.5" y="241.5669">implements</text></g><!--reverse link logic_arc_int__baselibs__json to comp_arc_sta__baselibs__json--><g id="link_logic_arc_int__baselibs__json_comp_arc_sta__baselibs__json"><path codeLine="38" d="M1218.5,204.75 C1218.5,225.98 1218.5,253.94 1218.5,275.19 " fill="transparent" id="logic_arc_int__baselibs__json-backto-comp_arc_sta__baselibs__json" style="stroke:#181818;stroke-width:1;"/><polygon fill="#181818" points="1218.5,198.75,1214.5,207.75,1218.5,203.75,1222.5,207.75,1218.5,198.75" style="stroke:#181818;stroke-width:1;"/><text fill="#000000" font-family="sans-serif" font-size="13" lengthAdjust="spacing" textLength="76.9082" x="1219.5" y="241.5669">implements</text></g><!--link Feature_User to logic_arc_int__baselibs__shared_future--><g id="link_Feature_User_logic_arc_int__baselibs__shared_future"><path codeLine="39" d="M3227.62,49.25 C3374.43,64.72 3851.77,115.16 4246.5,158.5 C4252.37,159.14 4252.3865,159.1396 4258.4365,159.8096 " fill="transparent" id="Feature_User-to-logic_arc_int__baselibs__shared_future" style="stroke:#181818;stroke-width:1;"/><polygon fill="#181818" points="4264.4,160.47,4255.895,155.5037,4259.4304,159.9196,4255.0144,163.4551,4264.4,160.47" style="stroke:#181818;stroke-width:1;"/><text fill="#000000" font-family="sans-serif" font-size="13" lengthAdjust="spacing" textLength="23.0103" x="3955.5" y="124.5669">use</text></g><!--reverse link logic_arc_int__baselibs__future to comp_arc_sta__baselibs__concurrency--><g id="link_logic_arc_int__baselibs__future_comp_arc_sta__baselibs__concurrency"><path codeLine="40" d="M3979.292,199.487 C3892.452,213.067 3778.29,230.56 3672.5,245.5 C3597.83,256.04 3514.72,266.93 3445.58,275.76 " fill="transparent" id="logic_arc_int__baselibs__future-backto-comp_arc_sta__baselibs__concurrency" style="stroke:#181818;stroke-width:1;"/><polygon fill="#181818" points="3985.22,198.56,3975.7101,195.9985,3980.28,199.3325,3976.9461,203.9025,3985.22,198.56" style="stroke:#181818;stroke-width:1;"/><text fill="#000000" font-family="sans-serif" font-size="13" lengthAdjust="spacing" textLength="76.9082" x="3781.5" y="241.5669">implements</text></g><!--link Feature_User to logic_arc_int__baselibs__utils_scoped_op--><g id="link_Feature_User_logic_arc_int__baselibs__utils_scoped_op"><path codeLine="41" d="M3137.35,47.46 C2956.63,59.42 2267.99,106.04 1702.5,158.5 C1696.87,159.02 1697.1121,158.9924 1691.3221,159.5524 " fill="transparent" id="Feature_User-to-logic_arc_int__baselibs__utils_scoped_op" style="stroke:#181818;stroke-width:1;"/><polygon fill="#181818" points="1685.35,160.13,1694.6933,163.245,1690.3268,159.6487,1693.9231,155.2822,1685.35,160.13" style="stroke:#181818;stroke-width:1;"/><text fill="#000000" font-family="sans-serif" font-size="13" lengthAdjust="spacing" textLength="23.0103" x="2232.5" y="124.5669">use</text></g><!--reverse link logic_arc_int__baselibs__promise to comp_arc_sta__baselibs__concurrency--><g id="link_logic_arc_int__baselibs__promise_comp_arc_sta__baselibs__concurrency"><path codeLine="42" d="M3472.528,201.5397 C3431.988,222.8297 3372.36,254.14 3331.91,275.38 " fill="transparent" id="logic_arc_int__baselibs__promise-backto-comp_arc_sta__baselibs__concurrency" style="stroke:#181818;stroke-width:1;"/><polygon fill="#181818" points="3477.84,198.75,3468.0122,199.3931,3473.4133,201.0747,3471.7317,206.4759,3477.84,198.75" style="stroke:#181818;stroke-width:1;"/><text fill="#000000" font-family="sans-serif" font-size="13" lengthAdjust="spacing" textLength="76.9082" x="3419.5" y="241.5669">implements</text></g><!--link Feature_User to logic_arc_int__baselibs__bit_mask_operator--><g id="link_Feature_User_logic_arc_int__baselibs__bit_mask_operator"><path codeLine="43" d="M3137.29,45.91 C2954.05,51.74 2248.8,75.41 1669.5,111.5 C1409.17,127.72 1344.25,134.73 1084.5,158.5 C1078.87,159.01 1079.124,158.9919 1073.344,159.5319 " fill="transparent" id="Feature_User-to-logic_arc_int__baselibs__bit_mask_operator" style="stroke:#181818;stroke-width:1;"/><polygon fill="#181818" points="1067.37,160.09,1076.7031,163.2355,1072.3483,159.6249,1075.9589,155.2702,1067.37,160.09" style="stroke:#181818;stroke-width:1;"/><text fill="#000000" font-family="sans-serif" font-size="13" lengthAdjust="spacing" textLength="23.0103" x="1670.5" y="124.5669">use</text></g><!--link Feature_User to logic_arc_int__baselibs__utils_base64--><g id="link_Feature_User_logic_arc_int__baselibs__utils_base64"><path codeLine="44" d="M3137.42,48.67 C2982.91,63.03 2460.48,112.08 2029.5,158.5 C2023.98,159.09 2024.3136,159.0497 2018.6236,159.6797 " fill="transparent" id="Feature_User-to-logic_arc_int__baselibs__utils_base64" style="stroke:#181818;stroke-width:1;"/><polygon fill="#181818" points="2012.66,160.34,2022.0455,163.3253,2017.6296,159.7898,2021.1651,155.3739,2012.66,160.34" style="stroke:#181818;stroke-width:1;"/><text fill="#000000" font-family="sans-serif" font-size="13" lengthAdjust="spacing" textLength="23.0103" x="2474.5" y="124.5669">use</text></g><!--reverse link logic_arc_int__baselibs__utils_base64 to comp_arc_sta__baselibs__utils--><g id="link_logic_arc_int__baselibs__utils_base64_comp_arc_sta__baselibs__utils"><path codeLine="45" d="M1823.9223,201.3603 C1782.4923,222.6303 1721.29,254.05 1679.83,275.34 " fill="transparent" id="logic_arc_int__baselibs__utils_base64-backto-comp_arc_sta__baselibs__utils" style="stroke:#181818;stroke-width:1;"/><polygon fill="#181818" points="1829.26,198.62,1819.4266,199.1721,1824.812,200.9036,1823.0804,206.2889,1829.26,198.62" style="stroke:#181818;stroke-width:1;"/><text fill="#000000" font-family="sans-serif" font-size="13" lengthAdjust="spacing" textLength="76.9082" x="1769.5" y="241.5669">implements</text></g><!--link Feature_User to logic_arc_int__baselibs__synchronized_queue--><g id="link_Feature_User_logic_arc_int__baselibs__synchronized_queue"><path codeLine="46" d="M3137.44,50.74 C2999.49,69.83 2584.9333,127.1974 2364.9233,157.6474 " fill="transparent" id="Feature_User-to-logic_arc_int__baselibs__synchronized_queue" style="stroke:#181818;stroke-width:1;"/><polygon fill="#181818" points="2358.98,158.47,2368.4434,161.1984,2363.9328,157.7845,2367.3466,153.2739,2358.98,158.47" style="stroke:#181818;stroke-width:1;"/><text fill="#000000" font-family="sans-serif" font-size="13" lengthAdjust="spacing" textLength="23.0103" x="2674.5" y="124.5669">use</text></g><!--link Feature_User to logic_arc_int__baselibs__filesystem--><g id="link_Feature_User_logic_arc_int__baselibs__filesystem"><path codeLine="47" d="M3227.67,45.36 C3446.8,49.68 4421.16,70.39 5218.5,111.5 C5516.17,126.85 5590.8,130.03 5887.5,158.5 C5893.34,159.06 5893.3327,159.0345 5899.3427,159.6645 " fill="transparent" id="Feature_User-to-logic_arc_int__baselibs__filesystem" style="stroke:#181818;stroke-width:1;"/><polygon fill="#181818" points="5905.31,160.29,5896.7761,155.3735,5900.3372,159.7687,5895.942,163.3299,5905.31,160.29" style="stroke:#181818;stroke-width:1;"/><text fill="#000000" font-family="sans-serif" font-size="13" lengthAdjust="spacing" textLength="23.0103" x="5521.5" y="124.5669">use</text></g><!--link Feature_User to logic_arc_int__baselibs__task_result--><g id="link_Feature_User_logic_arc_int__baselibs__task_result"><path codeLine="48" d="M3137.44,62.02 C3073.23,86.99 2961.4521,130.4654 2895.1321,156.2554 " fill="transparent" id="Feature_User-to-logic_arc_int__baselibs__task_result" style="stroke:#181818;stroke-width:1;"/><polygon fill="#181818" points="2889.54,158.43,2899.3778,158.8961,2894.2,156.6178,2896.4784,151.4401,2889.54,158.43" style="stroke:#181818;stroke-width:1;"/><text fill="#000000" font-family="sans-serif" font-size="13" lengthAdjust="spacing" textLength="23.0103" x="3002.5" y="124.5669">use</text></g><!--reverse link logic_arc_int__baselibs__bit_manipulation to comp_arc_sta__baselibs__bit_manipulation--><g id="link_logic_arc_int__baselibs__bit_manipulation_comp_arc_sta__baselibs__bit_manipulation"><path codeLine="49" d="M571.5562,201.9169 C605.8162,223.2069 655.57,254.14 689.74,275.38 " fill="transparent" id="logic_arc_int__baselibs__bit_manipulation-backto-comp_arc_sta__baselibs__bit_manipulation" style="stroke:#181818;stroke-width:1;"/><polygon fill="#181818" points="566.46,198.75,571.993,206.8978,570.7068,201.3891,576.2155,200.1029,566.46,198.75" style="stroke:#181818;stroke-width:1;"/><text fill="#000000" font-family="sans-serif" font-size="13" lengthAdjust="spacing" textLength="76.9082" x="640.5" y="241.5669">implements</text></g><!--reverse link logic_arc_int__baselibs__condition_variable to comp_arc_sta__baselibs__concurrency--><g id="link_logic_arc_int__baselibs__condition_variable_comp_arc_sta__baselibs__concurrency"><path codeLine="50" d="M3205.6152,203.0298 C3226.4752,224.2598 3255.64,253.94 3276.52,275.19 " fill="transparent" id="logic_arc_int__baselibs__condition_variable-backto-comp_arc_sta__baselibs__concurrency" style="stroke:#181818;stroke-width:1;"/><polygon fill="#181818" points="3201.41,198.75,3204.8646,207.9731,3204.9143,202.3165,3210.571,202.3662,3201.41,198.75" style="stroke:#181818;stroke-width:1;"/><text fill="#000000" font-family="sans-serif" font-size="13" lengthAdjust="spacing" textLength="76.9082" x="3247.5" y="241.5669">implements</text></g><!--reverse link logic_arc_int__baselibs__message_passing to comp_arc_sta__baselibs__message_passing--><g id="link_logic_arc_int__baselibs__message_passing_comp_arc_sta__baselibs__message_passing"><path codeLine="51" d="M175.5,204.75 C175.5,225.98 175.5,253.94 175.5,275.19 " fill="transparent" id="logic_arc_int__baselibs__message_passing-backto-comp_arc_sta__baselibs__message_passing" style="stroke:#181818;stroke-width:1;"/><polygon fill="#181818" points="175.5,198.75,171.5,207.75,175.5,203.75,179.5,207.75,175.5,198.75" style="stroke:#181818;stroke-width:1;"/><text fill="#000000" font-family="sans-serif" font-size="13" lengthAdjust="spacing" textLength="76.9082" x="176.5" y="241.5669">implements</text></g><!--link Feature_User to logic_arc_int__baselibs__future--><g id="link_Feature_User_logic_arc_int__baselibs__future"><path codeLine="52" d="M3227.64,51 C3363.82,70.63 3767.9814,128.8642 3975.8714,158.8242 " fill="transparent" id="Feature_User-to-logic_arc_int__baselibs__future" style="stroke:#181818;stroke-width:1;"/><polygon fill="#181818" points="3981.81,159.68,3973.4726,154.4371,3976.8611,158.9668,3972.3315,162.3553,3981.81,159.68" style="stroke:#181818;stroke-width:1;"/><text fill="#000000" font-family="sans-serif" font-size="13" lengthAdjust="spacing" textLength="23.0103" x="3755.5" y="124.5669">use</text></g><!--SRC=[hLR9Rjmm3BtxAuJS9osAeeSWoAL0JpcsPu6McHasMboHIkCM_VVAuybYTnfRXe-ooIS-Bey2QyDFxUYH_BwIq2e9gWuYmQc68XgXuAi3DQXOC6AGhiNXZAwLJe58f3e9SdNDqbcygIw1oTRgTtLB7Zy76wAAs1nFNmzaxZqogm-Nxwi_rVMxaqy5HhBTnHS4IH7LDyPueO3LwOFkFwYg6XrtpUv6sR0deo4QJLwqhe7HKirQ2_3zbKgCgiIh9j4EFBN9Gi_zX622Qu_cBF3Qt0Gla8b5Lhlq5cxJUN37Nn6wAqMkjUZG2nT5zvsV8ohmmaSqAQTtdej9CQ8ttGmPxhmvnE3f5pRwHyA4OqR_k-6EB7AN6ydDNF1Yk0mu8YShCw23qJB0vRbuIUuIN8Skn4xp0V98p22FR5UtpAJnjkdcV8o9wG6r9PRLiKqOblRrD8fIVvU52FQeMs3EyZUJd2Hav_9ojD5iGfi78xIh4zF6u8Xniu7jjV1i_nV4zEHUckKSPKEzbEe7Y0IrtPRMrlCyDAE-Ips_PU3JdJ5pms2U2vAx9C9YwUYrVmPvM0yhwpiXlb69pkMn8AX_1cgZi9u7R6LSPsfOEXS3jVxywUDcqlC4jxO7pYpsKbwlTtUfxqYdtap9gfbx_QpRLZNEYToozy1e1Ss-22OBQsMPHpF-5m00]--></g></svg>