<svg xmlns="http://www.w3.org/2000/svg" xmlns:xlink="http://www.w3.org/1999/xlink" contentStyleType="text/css" data-diagram-type="CLASS" height="230px" preserveAspectRatio="none" style="width:552px;height:230px;background:#FFFFFF;" version="1.1" viewBox="0 0 552 230" width="552px" zoomAndPan="magnify"><defs/><g><!--cluster mod_view_sta__logging__static_view--><a href="../_collections/score_logging/docs/module/index.html#mod_view_sta__logging__static_view" target="_top" title="../_collections/score_logging/docs/module/index.html#mod_view_sta__logging__static_view" xlink:actuate="onRequest" xlink:href="../_collections/score_logging/docs/module/index.html#mod_view_sta__logging__static_view" xlink:show="new" xlink:title="../_collections/score_logging/docs/module/index.html#mod_view_sta__logging__static_view" xlink:type="simple"><path d="M136.5,126 L305.459,126 A3.75,3.75 0 0 1 307.959,128.5 L314.959,148.2969 L476.5,148.2969 A2.5,2.5 0 0 1 479,150.7969 L479,220.5 A2.5,2.5 0 0 1 476.5,223 L136.5,223 A2.5,2.5 0 0 1 134,220.5 L134,128.5 A2.5,2.5 0 0 1 136.5,126 " fill="transparent" style="stroke:#000000;stroke-width:1.5;"/><line style="stroke:#000000;stroke-width:1.5;" x1="134" x2="314.959" y1="148.2969" y2="148.2969"/><text fill="#000000" font-family="sans-serif" font-size="14" font-weight="bold" lengthAdjust="spacing" textLength="167.959" x="138" y="140.9951">Logging module view</text></a><!--entity comp__datarouter--><a href="../_collections/score_logging/docs/components/datarouter/index.html#comp__datarouter" target="_top" title="../_collections/score_logging/docs/components/datarouter/index.html#comp__datarouter" xlink:actuate="onRequest" xlink:href="../_collections/score_logging/docs/components/datarouter/index.html#comp__datarouter" xlink:show="new" xlink:title="../_collections/score_logging/docs/components/datarouter/index.html#comp__datarouter" xlink:type="simple"><rect fill="#F1F1F1" height="46.2969" rx="2.5" ry="2.5" style="stroke:#181818;stroke-width:0.5;" width="116.4805" x="347" y="161"/><rect fill="#F1F1F1" height="10" style="stroke:#181818;stroke-width:0.5;" width="15" x="443.4805" y="166"/><rect fill="#F1F1F1" height="2" style="stroke:#181818;stroke-width:0.5;" width="4" x="441.4805" y="168"/><rect fill="#F1F1F1" height="2" style="stroke:#181818;stroke-width:0.5;" width="4" x="441.4805" y="172"/><text fill="#000000" font-family="sans-serif" font-size="14" lengthAdjust="spacing" textLength="76.4805" x="362" y="193.9951">Datarouter</text></a><!--entity comp__mw_log_backend--><a href="../_collections/score_logging/docs/components/mw_log/architecture/component_architecture.html#comp__mw_log_backend" target="_top" title="../_collections/score_logging/docs/components/mw_log/architecture/component_architecture.html#comp__mw_log_backend" xlink:actuate="onRequest" xlink:href="../_collections/score_logging/docs/components/mw_log/architecture/component_architecture.html#comp__mw_log_backend" xlink:show="new" xlink:title="../_collections/score_logging/docs/components/mw_log/architecture/component_architecture.html#comp__mw_log_backend" xlink:type="simple"><rect fill="#F1F1F1" height="46.2969" rx="2.5" ry="2.5" style="stroke:#FF0000;stroke-width:2;" width="160.6748" x="150.5" y="161"/><rect fill="#F1F1F1" height="10" style="stroke:#FF0000;stroke-width:2;" width="15" x="291.1748" y="166"/><rect fill="#F1F1F1" height="2" style="stroke:#FF0000;stroke-width:2;" width="4" x="289.1748" y="168"/><rect fill="#F1F1F1" height="2" style="stroke:#FF0000;stroke-width:2;" width="4" x="289.1748" y="172"/><text fill="#000000" font-family="sans-serif" font-size="14" lengthAdjust="spacing" textLength="120.6748" x="165.5" y="193.9951">mw::log Backend</text></a><!--class logic_arc_int__log_cpp__logging--><a href="../_collections/score_platform/docs/features/analysis-infra/logging/docs/architecture/index.html#logic_arc_int__log_cpp__logging" target="_top" title="../_collections/score_platform/docs/features/analysis-infra/logging/docs/architecture/index.html#logic_arc_int__log_cpp__logging" xlink:actuate="onRequest" xlink:href="../_collections/score_platform/docs/features/analysis-infra/logging/docs/architecture/index.html#logic_arc_int__log_cpp__logging" xlink:show="new" xlink:title="../_collections/score_platform/docs/features/analysis-infra/logging/docs/architecture/index.html#logic_arc_int__log_cpp__logging" xlink:type="simple"><g id="elem_logic_arc_int__log_cpp__logging"><rect codeLine="13" fill="#F1F1F1" height="56.2969" id="logic_arc_int__log_cpp__logging" rx="2.5" ry="2.5" style="stroke:#181818;stroke-width:0.5;" width="87.7881" x="7" y="7"/><ellipse cx="22" cy="23" fill="#B4A7E5" rx="11" ry="11" style="stroke:#181818;stroke-width:1;"/><path d="M17.9219,18.7656 L17.9219,16.6094 L25.3125,16.6094 L25.3125,18.7656 L22.8438,18.7656 L22.8438,26.8438 L25.3125,26.8438 L25.3125,29 L17.9219,29 L17.9219,26.8438 L20.3906,26.8438 L20.3906,18.7656 L17.9219,18.7656 Z " fill="#000000"/><text fill="#000000" font-family="sans-serif" font-size="14" font-style="italic" lengthAdjust="spacing" textLength="55.7881" x="36" y="27.8467">Logging</text><line style="stroke:#181818;stroke-width:0.5;" x1="8" x2="93.7881" y1="39" y2="39"/></g><a href="../_collections/score_platform/docs/features/analysis-infra/logging/docs/architecture/index.html#logic_arc_int_op__logging__log" target="_top" title="../_collections/score_platform/docs/features/analysis-infra/logging/docs/architecture/index.html#logic_arc_int_op__logging__log" xlink:actuate="onRequest" xlink:href="../_collections/score_platform/docs/features/analysis-infra/logging/docs/architecture/index.html#logic_arc_int_op__logging__log" xlink:show="new" xlink:title="../_collections/score_platform/docs/features/analysis-infra/logging/docs/architecture/index.html#logic_arc_int_op__logging__log" xlink:type="simple"><rect fill="#F1F1F1" height="10" style="stroke:transparent;stroke-width:1;" width="20" x="13" y="47.6484"/><ellipse cx="18" cy="52.6484" fill="#84BE84" rx="3" ry="3" style="stroke:#038048;stroke-width:1;"/></a></a><a href="../_collections/score_platform/docs/features/analysis-infra/logging/docs/architecture/index.html#logic_arc_int_op__logging__log" target="_top" title="../_collections/score_platform/docs/features/analysis-infra/logging/docs/architecture/index.html#logic_arc_int_op__logging__log" xlink:actuate="onRequest" xlink:href="../_collections/score_platform/docs/features/analysis-infra/logging/docs/architecture/index.html#logic_arc_int_op__logging__log" xlink:show="new" xlink:title="../_collections/score_platform/docs/features/analysis-infra/logging/docs/architecture/index.html#logic_arc_int_op__logging__log" xlink:type="simple"><text fill="#000000" font-family="sans-serif" font-size="14" lengthAdjust="spacing" textLength="40.626" x="27" y="55.9951">Log ()</text></a><!--class logic_arc_int__logging__shm--><a href="../_collections/score_logging/docs/components/mw_log/architecture/component_architecture.html#logic_arc_int__logging__shm" target="_top" title="../_collections/score_logging/docs/components/mw_log/architecture/component_architecture.html#logic_arc_int__logging__shm" xlink:actuate="onRequest" xlink:href="../_collections/score_logging/docs/components/mw_log/architecture/component_architecture.html#logic_arc_int__logging__shm" xlink:show="new" xlink:title="../_collections/score_logging/docs/components/mw_log/architecture/component_architecture.html#logic_arc_int__logging__shm" xlink:type="simple"><g id="elem_logic_arc_int__logging__shm"><rect codeLine="19" fill="#F1F1F1" height="40" id="logic_arc_int__logging__shm" rx="2.5" ry="2.5" style="stroke:#181818;stroke-width:0.5;" width="226.9814" x="135.5" y="15"/><ellipse cx="150.5" cy="31" fill="#B4A7E5" rx="11" ry="11" style="stroke:#181818;stroke-width:1;"/><path d="M146.4219,26.7656 L146.4219,24.6094 L153.8125,24.6094 L153.8125,26.7656 L151.3438,26.7656 L151.3438,34.8438 L153.8125,34.8438 L153.8125,37 L146.4219,37 L146.4219,34.8438 L148.8906,34.8438 L148.8906,26.7656 L146.4219,26.7656 Z " fill="#000000"/><text fill="#000000" font-family="sans-serif" font-size="14" font-style="italic" lengthAdjust="spacing" textLength="194.9814" x="164.5" y="35.8467">Log Record Shared-Memory</text><line style="stroke:#181818;stroke-width:0.5;" x1="136.5" x2="361.4814" y1="47" y2="47"/></g></a><!--class logic_arc_int__logging__session_ctrl_channel--><a href="../_collections/score_logging/docs/components/mw_log/architecture/component_architecture.html#logic_arc_int__logging__session_ctrl_channel" target="_top" title="../_collections/score_logging/docs/components/mw_log/architecture/component_architecture.html#logic_arc_int__logging__session_ctrl_channel" xlink:actuate="onRequest" xlink:href="../_collections/score_logging/docs/components/mw_log/architecture/component_architecture.html#logic_arc_int__logging__session_ctrl_channel" xlink:show="new" xlink:title="../_collections/score_logging/docs/components/mw_log/architecture/component_architecture.html#logic_arc_int__logging__session_ctrl_channel" xlink:type="simple"><g id="elem_logic_arc_int__logging__session_ctrl_channel"><rect codeLine="24" fill="#F1F1F1" height="40" id="logic_arc_int__logging__session_ctrl_channel" rx="2.5" ry="2.5" style="stroke:#181818;stroke-width:0.5;" width="144.8408" x="400.5" y="15"/><ellipse cx="415.5" cy="31" fill="#B4A7E5" rx="11" ry="11" style="stroke:#181818;stroke-width:1;"/><path d="M411.4219,26.7656 L411.4219,24.6094 L418.8125,24.6094 L418.8125,26.7656 L416.3438,26.7656 L416.3438,34.8438 L418.8125,34.8438 L418.8125,37 L411.4219,37 L411.4219,34.8438 L413.8906,34.8438 L413.8906,26.7656 L411.4219,26.7656 Z " fill="#000000"/><text fill="#000000" font-family="sans-serif" font-size="14" font-style="italic" lengthAdjust="spacing" textLength="112.8408" x="429.5" y="35.8467">Control Channel</text><line style="stroke:#181818;stroke-width:0.5;" x1="401.5" x2="544.3408" y1="47" y2="47"/></g></a><!--link comp__datarouter to logic_arc_int__logging__session_ctrl_channel--><g id="link_comp__datarouter_logic_arc_int__logging__session_ctrl_channel"><path codeLine="38" d="M415.22,160.9 C428.51,132.17 448.9911,87.9056 461.5911,60.6656 " fill="transparent" id="comp__datarouter-to-logic_arc_int__logging__session_ctrl_channel" style="stroke:#008000;stroke-width:1;"/><polygon fill="#008000" points="464.11,55.22,456.7012,61.7092,462.0109,59.758,463.9621,65.0677,464.11,55.22" style="stroke:#008000;stroke-width:1;"/><text fill="#000000" font-family="sans-serif" font-size="13" lengthAdjust="spacing" textLength="29.7832" x="446" y="106.0669">uses</text></g><!--reverse link logic_arc_int__logging__session_ctrl_channel to comp__mw_log_backend--><g id="link_logic_arc_int__logging__session_ctrl_channel_comp__mw_log_backend"><path codeLine="40" d="M401.6997,56.719 C346.2597,72.879 281.32,91.93 280,93 C258.28,110.56 244.77,140.43 237.57,160.91 " fill="transparent" id="logic_arc_int__logging__session_ctrl_channel-backto-comp__mw_log_backend" style="stroke:#181818;stroke-width:1;"/><polygon fill="#181818" points="407.46,55.04,397.7002,53.7184,402.6598,56.4392,399.9389,61.3987,407.46,55.04" style="stroke:#181818;stroke-width:1;"/><text fill="#000000" font-family="sans-serif" font-size="13" lengthAdjust="spacing" textLength="76.9082" x="281" y="106.0669">implements</text></g><!--link comp__datarouter to logic_arc_int__logging__shm--><g id="link_comp__datarouter_logic_arc_int__logging__shm"><path codeLine="41" d="M400.1,160.93 C394.69,141.04 384.24,112.07 366,93 C350.15,76.43 333.9666,66.4458 313.5866,57.5258 " fill="transparent" id="comp__datarouter-to-logic_arc_int__logging__shm" style="stroke:#008000;stroke-width:1;"/><polygon fill="#008000" points="308.09,55.12,314.731,62.393,312.6705,57.1248,317.9387,55.0643,308.09,55.12" style="stroke:#008000;stroke-width:1;"/><text fill="#000000" font-family="sans-serif" font-size="13" lengthAdjust="spacing" textLength="29.7832" x="380" y="106.0669">uses</text></g><!--reverse link logic_arc_int__log_cpp__logging to comp__mw_log_backend--><g id="link_logic_arc_int__log_cpp__logging_comp__mw_log_backend"><path codeLine="42" d="M56.624,69.1306 C60.214,84.3906 65.34,97.05 77,110 C97.79,133.09 127.43,149.52 155.17,160.87 " fill="transparent" id="logic_arc_int__log_cpp__logging-backto-comp__mw_log_backend" style="stroke:#181818;stroke-width:1;"/><polygon fill="#181818" points="55.25,63.29,53.4173,72.9668,56.395,68.1571,61.2047,71.1348,55.25,63.29" style="stroke:#181818;stroke-width:1;"/><text fill="#000000" font-family="sans-serif" font-size="13" lengthAdjust="spacing" textLength="76.9082" x="78" y="106.0669">implements</text></g><!--reverse link logic_arc_int__logging__shm to comp__mw_log_backend--><g id="link_logic_arc_int__logging__shm_comp__mw_log_backend"><path codeLine="43" d="M200.2023,58.2156 C184.8923,67.3156 174.55,76.76 166,93 C152.98,117.73 175.56,143.32 197.59,160.86 " fill="transparent" id="logic_arc_int__logging__shm-backto-comp__mw_log_backend" style="stroke:#181818;stroke-width:1;"/><polygon fill="#181818" points="205.36,55.15,195.5797,56.31,201.0619,57.7047,199.6672,63.1869,205.36,55.15" style="stroke:#181818;stroke-width:1;"/><text fill="#000000" font-family="sans-serif" font-size="13" lengthAdjust="spacing" textLength="76.9082" x="167" y="106.0669">implements</text></g><!--SRC=[nPH1ZzCm48Nl-HMZxc51A0tYM5KzK8xB1RXLaUKwqyHQsnFPKxeLsl-E4vSqBIrBaO1RxB7VVE_PiJI6TiBg9-tgZAa59bWJCrcej4V5cbpMw0eXC7eathUOncXRteDazdgzPGpPFF3Uu2ARog3D6hvb3zhXaWnvy5Zreo-DLeyEGu1tqxVPSpOl3dioxQByHYg4oGFLTQIPW0nWgDPAIAz4N21470hLjlr7jmPWjPfE2w78cCGQYg38esYDv0rvMrIaGh51oLkFeP1EcdtG8TTkusLna4cBOfT6SvI9AmljAdoQDcpDtGiCPHcjPcyWOiEhrn7eNnFHaQN_ACioovwXk8T3ad1Vm7d2y0aZLGMV6naF9_-8blp-IkH9EJJsUjmds8fiImuTXyBkkjAfaQ4injFNiXwQfvm7OnSD_EHqIOuz6LWsqZaqlpOOxsMq91Hx8rJQy1yTNw0PHt3cB3blfNgKzV4V0alLrY1yrRZhlSUnw0OYi1mtOycHeglyfkCaFBwKBqj7_CW_X06J3vAbf_Xu-1wkgmXH3PEtXt_SEoOxrqqSVOf7WXJW2CxkPhFO1zx7JD5L8y9qn6AT2Z2Vzm_UOl7NxygbzYCpPyJ9qSb3CBeEHxydaUVLwgxsYAxC5pVzAJFOnkb1yYoZV7kpdBQjGTlb17-AsTWVLBT0dRpkbpXkyjOnZ2M-0m00]--></g></svg>