<svg xmlns="http://www.w3.org/2000/svg" xmlns:xlink="http://www.w3.org/1999/xlink" contentStyleType="text/css" data-diagram-type="CLASS" height="322px" preserveAspectRatio="none" style="width:6207px;height:322px;background:#FFFFFF;" version="1.1" viewBox="0 0 6207 322" width="6207px" zoomAndPan="magnify"><defs/><g><!--entity Feature_User--><g id="elem_Feature_User"><ellipse cx="3245.6685" cy="14" fill="#F1F1F1" rx="8" ry="8" style="stroke:#181818;stroke-width:0.5;"/><path d="M3245.6685,22 L3245.6685,49 M3232.6685,30 L3258.6685,30 M3245.6685,49 L3232.6685,64 M3245.6685,49 L3258.6685,64 " fill="transparent" style="stroke:#181818;stroke-width:0.5;"/><text fill="#000000" font-family="sans-serif" font-size="14" lengthAdjust="spacing" textLength="90.3369" x="3200.5" y="78.4951">Feature User</text></g><!--class comp_arc_sta__baselibs__concurrency--><g id="elem_comp_arc_sta__baselibs__concurrency"><rect fill="#F1F1F1" height="40" id="comp_arc_sta__baselibs__concurrency" rx="2.5" ry="2.5" style="stroke:#181818;stroke-width:0.5;" width="300.2012" x="3494.5" y="275.5"/><ellipse cx="3509.5" cy="291.5" fill="#ADD1B2" rx="11" ry="11" style="stroke:#181818;stroke-width:1;"/><path d="M3512.4688,297.1406 Q3511.8906,297.4375 3511.25,297.5781 Q3510.6094,297.7344 3509.9063,297.7344 Q3507.4063,297.7344 3506.0781,296.0938 Q3504.7656,294.4375 3504.7656,291.3125 Q3504.7656,288.1875 3506.0781,286.5313 Q3507.4063,284.875 3509.9063,284.875 Q3510.6094,284.875 3511.25,285.0313 Q3511.9063,285.1875 3512.4688,285.4844 L3512.4688,288.2031 Q3511.8438,287.625 3511.25,287.3594 Q3510.6563,287.0781 3510.0313,287.0781 Q3508.6875,287.0781 3508,288.1563 Q3507.3125,289.2188 3507.3125,291.3125 Q3507.3125,293.4063 3508,294.4844 Q3508.6875,295.5469 3510.0313,295.5469 Q3510.6563,295.5469 3511.25,295.2813 Q3511.8438,295 3512.4688,294.4219 L3512.4688,297.1406 Z " fill="#000000"/><text fill="#000000" font-family="sans-serif" font-size="14" lengthAdjust="spacing" textLength="268.2012" x="3523.5" y="296.3467">comp_arc_sta__baselibs__concurrency</text><line style="stroke:#181818;stroke-width:0.5;" x1="3495.5" x2="3793.7012" y1="307.5" y2="307.5"/></g><!--class logic_arc_int__baselibs__condition_variable--><g id="elem_logic_arc_int__baselibs__condition_variable"><rect fill="#F1F1F1" height="40" id="logic_arc_int__baselibs__condition_variable" rx="2.5" ry="2.5" style="stroke:#181818;stroke-width:0.5;" width="332.7539" x="2441" y="158.5"/><ellipse cx="2456" cy="174.5" fill="#ADD1B2" rx="11" ry="11" style="stroke:#181818;stroke-width:1;"/><path d="M2458.9688,180.1406 Q2458.3906,180.4375 2457.75,180.5781 Q2457.1094,180.7344 2456.4063,180.7344 Q2453.9063,180.7344 2452.5781,179.0938 Q2451.2656,177.4375 2451.2656,174.3125 Q2451.2656,171.1875 2452.5781,169.5313 Q2453.9063,167.875 2456.4063,167.875 Q2457.1094,167.875 2457.75,168.0313 Q2458.4063,168.1875 2458.9688,168.4844 L2458.9688,171.2031 Q2458.3438,170.625 2457.75,170.3594 Q2457.1563,170.0781 2456.5313,170.0781 Q2455.1875,170.0781 2454.5,171.1563 Q2453.8125,172.2188 2453.8125,174.3125 Q2453.8125,176.4063 2454.5,177.4844 Q2455.1875,178.5469 2456.5313,178.5469 Q2457.1563,178.5469 2457.75,178.2813 Q2458.3438,178 2458.9688,177.4219 L2458.9688,180.1406 Z " fill="#000000"/><text fill="#000000" font-family="sans-serif" font-size="14" lengthAdjust="spacing" textLength="300.7539" x="2470" y="179.3467">logic_arc_int__baselibs__condition_variable</text><line style="stroke:#181818;stroke-width:0.5;" x1="2442" x2="2772.7539" y1="190.5" y2="190.5"/></g><!--class comp_arc_sta__baselibs__json--><g id="elem_comp_arc_sta__baselibs__json"><rect fill="#F1F1F1" height="40" id="comp_arc_sta__baselibs__json" rx="2.5" ry="2.5" style="stroke:#181818;stroke-width:0.5;" width="242.1367" x="5958.5" y="275.5"/><ellipse cx="5973.5" cy="291.5" fill="#ADD1B2" rx="11" ry="11" style="stroke:#181818;stroke-width:1;"/><path d="M5976.4688,297.1406 Q5975.8906,297.4375 5975.25,297.5781 Q5974.6094,297.7344 5973.9063,297.7344 Q5971.4063,297.7344 5970.0781,296.0938 Q5968.7656,294.4375 5968.7656,291.3125 Q5968.7656,288.1875 5970.0781,286.5313 Q5971.4063,284.875 5973.9063,284.875 Q5974.6094,284.875 5975.25,285.0313 Q5975.9063,285.1875 5976.4688,285.4844 L5976.4688,288.2031 Q5975.8438,287.625 5975.25,287.3594 Q5974.6563,287.0781 5974.0313,287.0781 Q5972.6875,287.0781 5972,288.1563 Q5971.3125,289.2188 5971.3125,291.3125 Q5971.3125,293.4063 5972,294.4844 Q5972.6875,295.5469 5974.0313,295.5469 Q5974.6563,295.5469 5975.25,295.2813 Q5975.8438,295 5976.4688,294.4219 L5976.4688,297.1406 Z " fill="#000000"/><text fill="#000000" font-family="sans-serif" font-size="14" lengthAdjust="spacing" textLength="210.1367" x="5987.5" y="296.3467">comp_arc_sta__baselibs__json</text><line style="stroke:#181818;stroke-width:0.5;" x1="5959.5" x2="6199.6367" y1="307.5" y2="307.5"/></g><!--class logic_arc_int__baselibs__json--><g id="elem_logic_arc_int__baselibs__json"><rect fill="#F1F1F1" height="40" id="logic_arc_int__baselibs__json" rx="2.5" ry="2.5" style="stroke:#181818;stroke-width:0.5;" width="233.168" x="5958" y="158.5"/><ellipse cx="5973" cy="174.5" fill="#ADD1B2" rx="11" ry="11" style="stroke:#181818;stroke-width:1;"/><path d="M5975.9688,180.1406 Q5975.3906,180.4375 5974.75,180.5781 Q5974.1094,180.7344 5973.4063,180.7344 Q5970.9063,180.7344 5969.5781,179.0938 Q5968.2656,177.4375 5968.2656,174.3125 Q5968.2656,171.1875 5969.5781,169.5313 Q5970.9063,167.875 5973.4063,167.875 Q5974.1094,167.875 5974.75,168.0313 Q5975.4063,168.1875 5975.9688,168.4844 L5975.9688,171.2031 Q5975.3438,170.625 5974.75,170.3594 Q5974.1563,170.0781 5973.5313,170.0781 Q5972.1875,170.0781 5971.5,171.1563 Q5970.8125,172.2188 5970.8125,174.3125 Q5970.8125,176.4063 5971.5,177.4844 Q5972.1875,178.5469 5973.5313,178.5469 Q5974.1563,178.5469 5974.75,178.2813 Q5975.3438,178 5975.9688,177.4219 L5975.9688,180.1406 Z " fill="#000000"/><text fill="#000000" font-family="sans-serif" font-size="14" lengthAdjust="spacing" textLength="201.168" x="5987" y="179.3467">logic_arc_int__baselibs__json</text><line style="stroke:#181818;stroke-width:0.5;" x1="5959" x2="6190.168" y1="190.5" y2="190.5"/></g><!--class comp_arc_sta__baselibs__filesystem--><g id="elem_comp_arc_sta__baselibs__filesystem"><rect fill="#F1F1F1" height="40" id="comp_arc_sta__baselibs__filesystem" rx="2.5" ry="2.5" style="stroke:#181818;stroke-width:0.5;" width="285.4492" x="5638" y="275.5"/><ellipse cx="5653" cy="291.5" fill="#ADD1B2" rx="11" ry="11" style="stroke:#181818;stroke-width:1;"/><path d="M5655.9688,297.1406 Q5655.3906,297.4375 5654.75,297.5781 Q5654.1094,297.7344 5653.4063,297.7344 Q5650.9063,297.7344 5649.5781,296.0938 Q5648.2656,294.4375 5648.2656,291.3125 Q5648.2656,288.1875 5649.5781,286.5313 Q5650.9063,284.875 5653.4063,284.875 Q5654.1094,284.875 5654.75,285.0313 Q5655.4063,285.1875 5655.9688,285.4844 L5655.9688,288.2031 Q5655.3438,287.625 5654.75,287.3594 Q5654.1563,287.0781 5653.5313,287.0781 Q5652.1875,287.0781 5651.5,288.1563 Q5650.8125,289.2188 5650.8125,291.3125 Q5650.8125,293.4063 5651.5,294.4844 Q5652.1875,295.5469 5653.5313,295.5469 Q5654.1563,295.5469 5654.75,295.2813 Q5655.3438,295 5655.9688,294.4219 L5655.9688,297.1406 Z " fill="#000000"/><text fill="#000000" font-family="sans-serif" font-size="14" lengthAdjust="spacing" textLength="253.4492" x="5667" y="296.3467">comp_arc_sta__baselibs__filesystem</text><line style="stroke:#181818;stroke-width:0.5;" x1="5639" x2="5922.4492" y1="307.5" y2="307.5"/></g><!--class logic_arc_int__baselibs__filesystem--><g id="elem_logic_arc_int__baselibs__filesystem"><rect fill="#F1F1F1" height="40" id="logic_arc_int__baselibs__filesystem" rx="2.5" ry="2.5" style="stroke:#181818;stroke-width:0.5;" width="276.4805" x="5640.5" y="158.5"/><ellipse cx="5655.5" cy="174.5" fill="#ADD1B2" rx="11" ry="11" style="stroke:#181818;stroke-width:1;"/><path d="M5658.4688,180.1406 Q5657.8906,180.4375 5657.25,180.5781 Q5656.6094,180.7344 5655.9063,180.7344 Q5653.4063,180.7344 5652.0781,179.0938 Q5650.7656,177.4375 5650.7656,174.3125 Q5650.7656,171.1875 5652.0781,169.5313 Q5653.4063,167.875 5655.9063,167.875 Q5656.6094,167.875 5657.25,168.0313 Q5657.9063,168.1875 5658.4688,168.4844 L5658.4688,171.2031 Q5657.8438,170.625 5657.25,170.3594 Q5656.6563,170.0781 5656.0313,170.0781 Q5654.6875,170.0781 5654,171.1563 Q5653.3125,172.2188 5653.3125,174.3125 Q5653.3125,176.4063 5654,177.4844 Q5654.6875,178.5469 5656.0313,178.5469 Q5656.6563,178.5469 5657.25,178.2813 Q5657.8438,178 5658.4688,177.4219 L5658.4688,180.1406 Z " fill="#000000"/><text fill="#000000" font-family="sans-serif" font-size="14" lengthAdjust="spacing" textLength="244.4805" x="5669.5" y="179.3467">logic_arc_int__baselibs__filesystem</text><line style="stroke:#181818;stroke-width:0.5;" x1="5641.5" x2="5915.9805" y1="190.5" y2="190.5"/></g><!--class comp_arc_sta__baselibs__result--><g id="elem_comp_arc_sta__baselibs__result"><rect fill="#F1F1F1" height="40" id="comp_arc_sta__baselibs__result" rx="2.5" ry="2.5" style="stroke:#181818;stroke-width:0.5;" width="253.4297" x="5350" y="275.5"/><ellipse cx="5365" cy="291.5" fill="#ADD1B2" rx="11" ry="11" style="stroke:#181818;stroke-width:1;"/><path d="M5367.9688,297.1406 Q5367.3906,297.4375 5366.75,297.5781 Q5366.1094,297.7344 5365.4063,297.7344 Q5362.9063,297.7344 5361.5781,296.0938 Q5360.2656,294.4375 5360.2656,291.3125 Q5360.2656,288.1875 5361.5781,286.5313 Q5362.9063,284.875 5365.4063,284.875 Q5366.1094,284.875 5366.75,285.0313 Q5367.4063,285.1875 5367.9688,285.4844 L5367.9688,288.2031 Q5367.3438,287.625 5366.75,287.3594 Q5366.1563,287.0781 5365.5313,287.0781 Q5364.1875,287.0781 5363.5,288.1563 Q5362.8125,289.2188 5362.8125,291.3125 Q5362.8125,293.4063 5363.5,294.4844 Q5364.1875,295.5469 5365.5313,295.5469 Q5366.1563,295.5469 5366.75,295.2813 Q5367.3438,295 5367.9688,294.4219 L5367.9688,297.1406 Z " fill="#000000"/><text fill="#000000" font-family="sans-serif" font-size="14" lengthAdjust="spacing" textLength="221.4297" x="5379" y="296.3467">comp_arc_sta__baselibs__result</text><line style="stroke:#181818;stroke-width:0.5;" x1="5351" x2="5602.4297" y1="307.5" y2="307.5"/></g><!--class logic_arc_int__baselibs__result--><g id="elem_logic_arc_int__baselibs__result"><rect fill="#F1F1F1" height="40" id="logic_arc_int__baselibs__result" rx="2.5" ry="2.5" style="stroke:#181818;stroke-width:0.5;" width="244.4609" x="5357.5" y="158.5"/><ellipse cx="5372.5" cy="174.5" fill="#ADD1B2" rx="11" ry="11" style="stroke:#181818;stroke-width:1;"/><path d="M5375.4688,180.1406 Q5374.8906,180.4375 5374.25,180.5781 Q5373.6094,180.7344 5372.9063,180.7344 Q5370.4063,180.7344 5369.0781,179.0938 Q5367.7656,177.4375 5367.7656,174.3125 Q5367.7656,171.1875 5369.0781,169.5313 Q5370.4063,167.875 5372.9063,167.875 Q5373.6094,167.875 5374.25,168.0313 Q5374.9063,168.1875 5375.4688,168.4844 L5375.4688,171.2031 Q5374.8438,170.625 5374.25,170.3594 Q5373.6563,170.0781 5373.0313,170.0781 Q5371.6875,170.0781 5371,171.1563 Q5370.3125,172.2188 5370.3125,174.3125 Q5370.3125,176.4063 5371,177.4844 Q5371.6875,178.5469 5373.0313,178.5469 Q5373.6563,178.5469 5374.25,178.2813 Q5374.8438,178 5375.4688,177.4219 L5375.4688,180.1406 Z " fill="#000000"/><text fill="#000000" font-family="sans-serif" font-size="14" lengthAdjust="spacing" textLength="212.4609" x="5386.5" y="179.3467">logic_arc_int__baselibs__result</text><line style="stroke:#181818;stroke-width:0.5;" x1="5358.5" x2="5600.9609" y1="190.5" y2="190.5"/></g><!--class logic_arc_int__baselibs__bit_manipulation--><g id="elem_logic_arc_int__baselibs__bit_manipulation"><rect fill="#F1F1F1" height="40" id="logic_arc_int__baselibs__bit_manipulation" rx="2.5" ry="2.5" style="stroke:#181818;stroke-width:0.5;" width="321.8369" x="1713.5" y="158.5"/><ellipse cx="1728.5" cy="174.5" fill="#ADD1B2" rx="11" ry="11" style="stroke:#181818;stroke-width:1;"/><path d="M1731.4688,180.1406 Q1730.8906,180.4375 1730.25,180.5781 Q1729.6094,180.7344 1728.9063,180.7344 Q1726.4063,180.7344 1725.0781,179.0938 Q1723.7656,177.4375 1723.7656,174.3125 Q1723.7656,171.1875 1725.0781,169.5313 Q1726.4063,167.875 1728.9063,167.875 Q1729.6094,167.875 1730.25,168.0313 Q1730.9063,168.1875 1731.4688,168.4844 L1731.4688,171.2031 Q1730.8438,170.625 1730.25,170.3594 Q1729.6563,170.0781 1729.0313,170.0781 Q1727.6875,170.0781 1727,171.1563 Q1726.3125,172.2188 1726.3125,174.3125 Q1726.3125,176.4063 1727,177.4844 Q1727.6875,178.5469 1729.0313,178.5469 Q1729.6563,178.5469 1730.25,178.2813 Q1730.8438,178 1731.4688,177.4219 L1731.4688,180.1406 Z " fill="#000000"/><text fill="#000000" font-family="sans-serif" font-size="14" lengthAdjust="spacing" textLength="289.8369" x="1742.5" y="179.3467">logic_arc_int__baselibs__bit_manipulation</text><line style="stroke:#181818;stroke-width:0.5;" x1="1714.5" x2="2034.3369" y1="190.5" y2="190.5"/></g><!--class comp_arc_sta__baselibs__message_passing--><g id="elem_comp_arc_sta__baselibs__message_passing"><rect fill="#F1F1F1" height="40" id="comp_arc_sta__baselibs__message_passing" rx="2.5" ry="2.5" style="stroke:#181818;stroke-width:0.5;" width="337.1357" x="4978" y="275.5"/><ellipse cx="4993" cy="291.5" fill="#ADD1B2" rx="11" ry="11" style="stroke:#181818;stroke-width:1;"/><path d="M4995.9688,297.1406 Q4995.3906,297.4375 4994.75,297.5781 Q4994.1094,297.7344 4993.4063,297.7344 Q4990.9063,297.7344 4989.5781,296.0938 Q4988.2656,294.4375 4988.2656,291.3125 Q4988.2656,288.1875 4989.5781,286.5313 Q4990.9063,284.875 4993.4063,284.875 Q4994.1094,284.875 4994.75,285.0313 Q4995.4063,285.1875 4995.9688,285.4844 L4995.9688,288.2031 Q4995.3438,287.625 4994.75,287.3594 Q4994.1563,287.0781 4993.5313,287.0781 Q4992.1875,287.0781 4991.5,288.1563 Q4990.8125,289.2188 4990.8125,291.3125 Q4990.8125,293.4063 4991.5,294.4844 Q4992.1875,295.5469 4993.5313,295.5469 Q4994.1563,295.5469 4994.75,295.2813 Q4995.3438,295 4995.9688,294.4219 L4995.9688,297.1406 Z " fill="#000000"/><text fill="#000000" font-family="sans-serif" font-size="14" lengthAdjust="spacing" textLength="305.1357" x="5007" y="296.3467">comp_arc_sta__baselibs__message_passing</text><line style="stroke:#181818;stroke-width:0.5;" x1="4979" x2="5314.1357" y1="307.5" y2="307.5"/></g><!--class logic_arc_int__baselibs__message_passing--><g id="elem_logic_arc_int__baselibs__message_passing"><rect fill="#F1F1F1" height="40" id="logic_arc_int__baselibs__message_passing" rx="2.5" ry="2.5" style="stroke:#181818;stroke-width:0.5;" width="328.167" x="4994.5" y="158.5"/><ellipse cx="5009.5" cy="174.5" fill="#ADD1B2" rx="11" ry="11" style="stroke:#181818;stroke-width:1;"/><path d="M5012.4688,180.1406 Q5011.8906,180.4375 5011.25,180.5781 Q5010.6094,180.7344 5009.9063,180.7344 Q5007.4063,180.7344 5006.0781,179.0938 Q5004.7656,177.4375 5004.7656,174.3125 Q5004.7656,171.1875 5006.0781,169.5313 Q5007.4063,167.875 5009.9063,167.875 Q5010.6094,167.875 5011.25,168.0313 Q5011.9063,168.1875 5012.4688,168.4844 L5012.4688,171.2031 Q5011.8438,170.625 5011.25,170.3594 Q5010.6563,170.0781 5010.0313,170.0781 Q5008.6875,170.0781 5008,171.1563 Q5007.3125,172.2188 5007.3125,174.3125 Q5007.3125,176.4063 5008,177.4844 Q5008.6875,178.5469 5010.0313,178.5469 Q5010.6563,178.5469 5011.25,178.2813 Q5011.8438,178 5012.4688,177.4219 L5012.4688,180.1406 Z " fill="#000000"/><text fill="#000000" font-family="sans-serif" font-size="14" lengthAdjust="spacing" textLength="296.167" x="5023.5" y="179.3467">logic_arc_int__baselibs__message_passing</text><line style="stroke:#181818;stroke-width:0.5;" x1="4995.5" x2="5321.667" y1="190.5" y2="190.5"/></g><!--class logic_arc_int__baselibs__task--><g id="elem_logic_arc_int__baselibs__task"><rect fill="#F1F1F1" height="40" id="logic_arc_int__baselibs__task" rx="2.5" ry="2.5" style="stroke:#181818;stroke-width:0.5;" width="234.0156" x="3421.5" y="158.5"/><ellipse cx="3436.5" cy="174.5" fill="#ADD1B2" rx="11" ry="11" style="stroke:#181818;stroke-width:1;"/><path d="M3439.4688,180.1406 Q3438.8906,180.4375 3438.25,180.5781 Q3437.6094,180.7344 3436.9063,180.7344 Q3434.4063,180.7344 3433.0781,179.0938 Q3431.7656,177.4375 3431.7656,174.3125 Q3431.7656,171.1875 3433.0781,169.5313 Q3434.4063,167.875 3436.9063,167.875 Q3437.6094,167.875 3438.25,168.0313 Q3438.9063,168.1875 3439.4688,168.4844 L3439.4688,171.2031 Q3438.8438,170.625 3438.25,170.3594 Q3437.6563,170.0781 3437.0313,170.0781 Q3435.6875,170.0781 3435,171.1563 Q3434.3125,172.2188 3434.3125,174.3125 Q3434.3125,176.4063 3435,177.4844 Q3435.6875,178.5469 3437.0313,178.5469 Q3437.6563,178.5469 3438.25,178.2813 Q3438.8438,178 3439.4688,177.4219 L3439.4688,180.1406 Z " fill="#000000"/><text fill="#000000" font-family="sans-serif" font-size="14" lengthAdjust="spacing" textLength="202.0156" x="3450.5" y="179.3467">logic_arc_int__baselibs__task</text><line style="stroke:#181818;stroke-width:0.5;" x1="3422.5" x2="3654.5156" y1="190.5" y2="190.5"/></g><!--class logic_arc_int__baselibs__shared_future--><g id="elem_logic_arc_int__baselibs__shared_future"><rect fill="#F1F1F1" height="40" id="logic_arc_int__baselibs__shared_future" rx="2.5" ry="2.5" style="stroke:#181818;stroke-width:0.5;" width="302.0811" x="3690.5" y="158.5"/><ellipse cx="3705.5" cy="174.5" fill="#ADD1B2" rx="11" ry="11" style="stroke:#181818;stroke-width:1;"/><path d="M3708.4688,180.1406 Q3707.8906,180.4375 3707.25,180.5781 Q3706.6094,180.7344 3705.9063,180.7344 Q3703.4063,180.7344 3702.0781,179.0938 Q3700.7656,177.4375 3700.7656,174.3125 Q3700.7656,171.1875 3702.0781,169.5313 Q3703.4063,167.875 3705.9063,167.875 Q3706.6094,167.875 3707.25,168.0313 Q3707.9063,168.1875 3708.4688,168.4844 L3708.4688,171.2031 Q3707.8438,170.625 3707.25,170.3594 Q3706.6563,170.0781 3706.0313,170.0781 Q3704.6875,170.0781 3704,171.1563 Q3703.3125,172.2188 3703.3125,174.3125 Q3703.3125,176.4063 3704,177.4844 Q3704.6875,178.5469 3706.0313,178.5469 Q3706.6563,178.5469 3707.25,178.2813 Q3707.8438,178 3708.4688,177.4219 L3708.4688,180.1406 Z " fill="#000000"/><text fill="#000000" font-family="sans-serif" font-size="14" lengthAdjust="spacing" textLength="270.0811" x="3719.5" y="179.3467">logic_arc_int__baselibs__shared_future</text><line style="stroke:#181818;stroke-width:0.5;" x1="3691.5" x2="3991.5811" y1="190.5" y2="190.5"/></g><!--class logic_arc_int__baselibs__dynamic_array--><g id="elem_logic_arc_int__baselibs__dynamic_array"><rect fill="#F1F1F1" height="40" id="logic_arc_int__baselibs__dynamic_array" rx="2.5" ry="2.5" style="stroke:#181818;stroke-width:0.5;" width="308.3496" x="364.5" y="158.5"/><ellipse cx="379.5" cy="174.5" fill="#ADD1B2" rx="11" ry="11" style="stroke:#181818;stroke-width:1;"/><path d="M382.4688,180.1406 Q381.8906,180.4375 381.25,180.5781 Q380.6094,180.7344 379.9063,180.7344 Q377.4063,180.7344 376.0781,179.0938 Q374.7656,177.4375 374.7656,174.3125 Q374.7656,171.1875 376.0781,169.5313 Q377.4063,167.875 379.9063,167.875 Q380.6094,167.875 381.25,168.0313 Q381.9063,168.1875 382.4688,168.4844 L382.4688,171.2031 Q381.8438,170.625 381.25,170.3594 Q380.6563,170.0781 380.0313,170.0781 Q378.6875,170.0781 378,171.1563 Q377.3125,172.2188 377.3125,174.3125 Q377.3125,176.4063 378,177.4844 Q378.6875,178.5469 380.0313,178.5469 Q380.6563,178.5469 381.25,178.2813 Q381.8438,178 382.4688,177.4219 L382.4688,180.1406 Z " fill="#000000"/><text fill="#000000" font-family="sans-serif" font-size="14" lengthAdjust="spacing" textLength="276.3496" x="393.5" y="179.3467">logic_arc_int__baselibs__dynamic_array</text><line style="stroke:#181818;stroke-width:0.5;" x1="365.5" x2="671.8496" y1="190.5" y2="190.5"/></g><!--class comp_arc_sta__baselibs__bit_manipulation--><g id="elem_comp_arc_sta__baselibs__bit_manipulation"><rect fill="#F1F1F1" height="40" id="comp_arc_sta__baselibs__bit_manipulation" rx="2.5" ry="2.5" style="stroke:#181818;stroke-width:0.5;" width="330.8057" x="1830" y="275.5"/><ellipse cx="1845" cy="291.5" fill="#ADD1B2" rx="11" ry="11" style="stroke:#181818;stroke-width:1;"/><path d="M1847.9688,297.1406 Q1847.3906,297.4375 1846.75,297.5781 Q1846.1094,297.7344 1845.4063,297.7344 Q1842.9063,297.7344 1841.5781,296.0938 Q1840.2656,294.4375 1840.2656,291.3125 Q1840.2656,288.1875 1841.5781,286.5313 Q1842.9063,284.875 1845.4063,284.875 Q1846.1094,284.875 1846.75,285.0313 Q1847.4063,285.1875 1847.9688,285.4844 L1847.9688,288.2031 Q1847.3438,287.625 1846.75,287.3594 Q1846.1563,287.0781 1845.5313,287.0781 Q1844.1875,287.0781 1843.5,288.1563 Q1842.8125,289.2188 1842.8125,291.3125 Q1842.8125,293.4063 1843.5,294.4844 Q1844.1875,295.5469 1845.5313,295.5469 Q1846.1563,295.5469 1846.75,295.2813 Q1847.3438,295 1847.9688,294.4219 L1847.9688,297.1406 Z " fill="#000000"/><text fill="#000000" font-family="sans-serif" font-size="14" lengthAdjust="spacing" textLength="298.8057" x="1859" y="296.3467">comp_arc_sta__baselibs__bit_manipulation</text><line style="stroke:#181818;stroke-width:0.5;" x1="1831" x2="2159.8057" y1="307.5" y2="307.5"/></g><!--class logic_arc_int__baselibs__task_result--><g id="elem_logic_arc_int__baselibs__task_result"><rect fill="#F1F1F1" height="40" id="logic_arc_int__baselibs__task_result" rx="2.5" ry="2.5" style="stroke:#181818;stroke-width:0.5;" width="280.9307" x="3105" y="158.5"/><ellipse cx="3120" cy="174.5" fill="#ADD1B2" rx="11" ry="11" style="stroke:#181818;stroke-width:1;"/><path d="M3122.9688,180.1406 Q3122.3906,180.4375 3121.75,180.5781 Q3121.1094,180.7344 3120.4063,180.7344 Q3117.9063,180.7344 3116.5781,179.0938 Q3115.2656,177.4375 3115.2656,174.3125 Q3115.2656,171.1875 3116.5781,169.5313 Q3117.9063,167.875 3120.4063,167.875 Q3121.1094,167.875 3121.75,168.0313 Q3122.4063,168.1875 3122.9688,168.4844 L3122.9688,171.2031 Q3122.3438,170.625 3121.75,170.3594 Q3121.1563,170.0781 3120.5313,170.0781 Q3119.1875,170.0781 3118.5,171.1563 Q3117.8125,172.2188 3117.8125,174.3125 Q3117.8125,176.4063 3118.5,177.4844 Q3119.1875,178.5469 3120.5313,178.5469 Q3121.1563,178.5469 3121.75,178.2813 Q3122.3438,178 3122.9688,177.4219 L3122.9688,180.1406 Z " fill="#000000"/><text fill="#000000" font-family="sans-serif" font-size="14" lengthAdjust="spacing" textLength="248.9307" x="3134" y="179.3467">logic_arc_int__baselibs__task_result</text><line style="stroke:#181818;stroke-width:0.5;" x1="3106" x2="3384.9307" y1="190.5" y2="190.5"/></g><!--class logic_arc_int__baselibs__utils_base64--><g id="elem_logic_arc_int__baselibs__utils_base64"><rect fill="#F1F1F1" height="40" id="logic_arc_int__baselibs__utils_base64" rx="2.5" ry="2.5" style="stroke:#181818;stroke-width:0.5;" width="292.1689" x="1386.5" y="158.5"/><ellipse cx="1401.5" cy="174.5" fill="#ADD1B2" rx="11" ry="11" style="stroke:#181818;stroke-width:1;"/><path d="M1404.4688,180.1406 Q1403.8906,180.4375 1403.25,180.5781 Q1402.6094,180.7344 1401.9063,180.7344 Q1399.4063,180.7344 1398.0781,179.0938 Q1396.7656,177.4375 1396.7656,174.3125 Q1396.7656,171.1875 1398.0781,169.5313 Q1399.4063,167.875 1401.9063,167.875 Q1402.6094,167.875 1403.25,168.0313 Q1403.9063,168.1875 1404.4688,168.4844 L1404.4688,171.2031 Q1403.8438,170.625 1403.25,170.3594 Q1402.6563,170.0781 1402.0313,170.0781 Q1400.6875,170.0781 1400,171.1563 Q1399.3125,172.2188 1399.3125,174.3125 Q1399.3125,176.4063 1400,177.4844 Q1400.6875,178.5469 1402.0313,178.5469 Q1402.6563,178.5469 1403.25,178.2813 Q1403.8438,178 1404.4688,177.4219 L1404.4688,180.1406 Z " fill="#000000"/><text fill="#000000" font-family="sans-serif" font-size="14" lengthAdjust="spacing" textLength="260.1689" x="1415.5" y="179.3467">logic_arc_int__baselibs__utils_base64</text><line style="stroke:#181818;stroke-width:0.5;" x1="1387.5" x2="1677.6689" y1="190.5" y2="190.5"/></g><!--class logic_arc_int__baselibs__promise--><g id="elem_logic_arc_int__baselibs__promise"><rect fill="#F1F1F1" height="40" id="logic_arc_int__baselibs__promise" rx="2.5" ry="2.5" style="stroke:#181818;stroke-width:0.5;" width="261.1885" x="2809" y="158.5"/><ellipse cx="2824" cy="174.5" fill="#ADD1B2" rx="11" ry="11" style="stroke:#181818;stroke-width:1;"/><path d="M2826.9688,180.1406 Q2826.3906,180.4375 2825.75,180.5781 Q2825.1094,180.7344 2824.4063,180.7344 Q2821.9063,180.7344 2820.5781,179.0938 Q2819.2656,177.4375 2819.2656,174.3125 Q2819.2656,171.1875 2820.5781,169.5313 Q2821.9063,167.875 2824.4063,167.875 Q2825.1094,167.875 2825.75,168.0313 Q2826.4063,168.1875 2826.9688,168.4844 L2826.9688,171.2031 Q2826.3438,170.625 2825.75,170.3594 Q2825.1563,170.0781 2824.5313,170.0781 Q2823.1875,170.0781 2822.5,171.1563 Q2821.8125,172.2188 2821.8125,174.3125 Q2821.8125,176.4063 2822.5,177.4844 Q2823.1875,178.5469 2824.5313,178.5469 Q2825.1563,178.5469 2825.75,178.2813 Q2826.3438,178 2826.9688,177.4219 L2826.9688,180.1406 Z " fill="#000000"/><text fill="#000000" font-family="sans-serif" font-size="14" lengthAdjust="spacing" textLength="229.1885" x="2838" y="179.3467">logic_arc_int__baselibs__promise</text><line style="stroke:#181818;stroke-width:0.5;" x1="2810" x2="3069.1885" y1="190.5" y2="190.5"/></g><!--class logic_arc_int__baselibs__executor--><g id="elem_logic_arc_int__baselibs__executor"><rect fill="#F1F1F1" height="40" id="logic_arc_int__baselibs__executor" rx="2.5" ry="2.5" style="stroke:#181818;stroke-width:0.5;" width="266.4385" x="4693.5" y="158.5"/><ellipse cx="4708.5" cy="174.5" fill="#ADD1B2" rx="11" ry="11" style="stroke:#181818;stroke-width:1;"/><path d="M4711.4688,180.1406 Q4710.8906,180.4375 4710.25,180.5781 Q4709.6094,180.7344 4708.9063,180.7344 Q4706.4063,180.7344 4705.0781,179.0938 Q4703.7656,177.4375 4703.7656,174.3125 Q4703.7656,171.1875 4705.0781,169.5313 Q4706.4063,167.875 4708.9063,167.875 Q4709.6094,167.875 4710.25,168.0313 Q4710.9063,168.1875 4711.4688,168.4844 L4711.4688,171.2031 Q4710.8438,170.625 4710.25,170.3594 Q4709.6563,170.0781 4709.0313,170.0781 Q4707.6875,170.0781 4707,171.1563 Q4706.3125,172.2188 4706.3125,174.3125 Q4706.3125,176.4063 4707,177.4844 Q4707.6875,178.5469 4709.0313,178.5469 Q4709.6563,178.5469 4710.25,178.2813 Q4710.8438,178 4711.4688,177.4219 L4711.4688,180.1406 Z " fill="#000000"/><text fill="#000000" font-family="sans-serif" font-size="14" lengthAdjust="spacing" textLength="234.4385" x="4722.5" y="179.3467">logic_arc_int__baselibs__executor</text><line style="stroke:#181818;stroke-width:0.5;" x1="4694.5" x2="4958.9385" y1="190.5" y2="190.5"/></g><!--class comp_arc_sta__baselibs__utils--><g id="elem_comp_arc_sta__baselibs__utils"><rect fill="#F1F1F1" height="40" id="comp_arc_sta__baselibs__utils" rx="2.5" ry="2.5" style="stroke:#181818;stroke-width:0.5;" width="242.9502" x="1187" y="275.5"/><ellipse cx="1202" cy="291.5" fill="#ADD1B2" rx="11" ry="11" style="stroke:#181818;stroke-width:1;"/><path d="M1204.9688,297.1406 Q1204.3906,297.4375 1203.75,297.5781 Q1203.1094,297.7344 1202.4063,297.7344 Q1199.9063,297.7344 1198.5781,296.0938 Q1197.2656,294.4375 1197.2656,291.3125 Q1197.2656,288.1875 1198.5781,286.5313 Q1199.9063,284.875 1202.4063,284.875 Q1203.1094,284.875 1203.75,285.0313 Q1204.4063,285.1875 1204.9688,285.4844 L1204.9688,288.2031 Q1204.3438,287.625 1203.75,287.3594 Q1203.1563,287.0781 1202.5313,287.0781 Q1201.1875,287.0781 1200.5,288.1563 Q1199.8125,289.2188 1199.8125,291.3125 Q1199.8125,293.4063 1200.5,294.4844 Q1201.1875,295.5469 1202.5313,295.5469 Q1203.1563,295.5469 1203.75,295.2813 Q1204.3438,295 1204.9688,294.4219 L1204.9688,297.1406 Z " fill="#000000"/><text fill="#000000" font-family="sans-serif" font-size="14" lengthAdjust="spacing" textLength="210.9502" x="1216" y="296.3467">comp_arc_sta__baselibs__utils</text><line style="stroke:#181818;stroke-width:0.5;" x1="1188" x2="1428.9502" y1="307.5" y2="307.5"/></g><!--class logic_arc_int__baselibs__utils_scoped_op--><g id="elem_logic_arc_int__baselibs__utils_scoped_op"><rect fill="#F1F1F1" height="40" id="logic_arc_int__baselibs__utils_scoped_op" rx="2.5" ry="2.5" style="stroke:#181818;stroke-width:0.5;" width="315.377" x="1036" y="158.5"/><ellipse cx="1051" cy="174.5" fill="#ADD1B2" rx="11" ry="11" style="stroke:#181818;stroke-width:1;"/><path d="M1053.9688,180.1406 Q1053.3906,180.4375 1052.75,180.5781 Q1052.1094,180.7344 1051.4063,180.7344 Q1048.9063,180.7344 1047.5781,179.0938 Q1046.2656,177.4375 1046.2656,174.3125 Q1046.2656,171.1875 1047.5781,169.5313 Q1048.9063,167.875 1051.4063,167.875 Q1052.1094,167.875 1052.75,168.0313 Q1053.4063,168.1875 1053.9688,168.4844 L1053.9688,171.2031 Q1053.3438,170.625 1052.75,170.3594 Q1052.1563,170.0781 1051.5313,170.0781 Q1050.1875,170.0781 1049.5,171.1563 Q1048.8125,172.2188 1048.8125,174.3125 Q1048.8125,176.4063 1049.5,177.4844 Q1050.1875,178.5469 1051.5313,178.5469 Q1052.1563,178.5469 1052.75,178.2813 Q1053.3438,178 1053.9688,177.4219 L1053.9688,180.1406 Z " fill="#000000"/><text fill="#000000" font-family="sans-serif" font-size="14" lengthAdjust="spacing" textLength="283.377" x="1065" y="179.3467">logic_arc_int__baselibs__utils_scoped_op</text><line style="stroke:#181818;stroke-width:0.5;" x1="1037" x2="1350.377" y1="190.5" y2="190.5"/></g><!--class logic_arc_int__baselibs__synchronized_queue--><g id="elem_logic_arc_int__baselibs__synchronized_queue"><rect fill="#F1F1F1" height="40" id="logic_arc_int__baselibs__synchronized_queue" rx="2.5" ry="2.5" style="stroke:#181818;stroke-width:0.5;" width="348.3604" x="4310.5" y="158.5"/><ellipse cx="4325.5" cy="174.5" fill="#ADD1B2" rx="11" ry="11" style="stroke:#181818;stroke-width:1;"/><path d="M4328.4688,180.1406 Q4327.8906,180.4375 4327.25,180.5781 Q4326.6094,180.7344 4325.9063,180.7344 Q4323.4063,180.7344 4322.0781,179.0938 Q4320.7656,177.4375 4320.7656,174.3125 Q4320.7656,171.1875 4322.0781,169.5313 Q4323.4063,167.875 4325.9063,167.875 Q4326.6094,167.875 4327.25,168.0313 Q4327.9063,168.1875 4328.4688,168.4844 L4328.4688,171.2031 Q4327.8438,170.625 4327.25,170.3594 Q4326.6563,170.0781 4326.0313,170.0781 Q4324.6875,170.0781 4324,171.1563 Q4323.3125,172.2188 4323.3125,174.3125 Q4323.3125,176.4063 4324,177.4844 Q4324.6875,178.5469 4326.0313,178.5469 Q4326.6563,178.5469 4327.25,178.2813 Q4327.8438,178 4328.4688,177.4219 L4328.4688,180.1406 Z " fill="#000000"/><text fill="#000000" font-family="sans-serif" font-size="14" lengthAdjust="spacing" textLength="316.3604" x="4339.5" y="179.3467">logic_arc_int__baselibs__synchronized_queue</text><line style="stroke:#181818;stroke-width:0.5;" x1="4311.5" x2="4657.8604" y1="190.5" y2="190.5"/></g><!--class logic_arc_int__baselibs__future--><g id="elem_logic_arc_int__baselibs__future"><rect fill="#F1F1F1" height="40" id="logic_arc_int__baselibs__future" rx="2.5" ry="2.5" style="stroke:#181818;stroke-width:0.5;" width="247.0791" x="4028" y="158.5"/><ellipse cx="4043" cy="174.5" fill="#ADD1B2" rx="11" ry="11" style="stroke:#181818;stroke-width:1;"/><path d="M4045.9688,180.1406 Q4045.3906,180.4375 4044.75,180.5781 Q4044.1094,180.7344 4043.4063,180.7344 Q4040.9063,180.7344 4039.5781,179.0938 Q4038.2656,177.4375 4038.2656,174.3125 Q4038.2656,171.1875 4039.5781,169.5313 Q4040.9063,167.875 4043.4063,167.875 Q4044.1094,167.875 4044.75,168.0313 Q4045.4063,168.1875 4045.9688,168.4844 L4045.9688,171.2031 Q4045.3438,170.625 4044.75,170.3594 Q4044.1563,170.0781 4043.5313,170.0781 Q4042.1875,170.0781 4041.5,171.1563 Q4040.8125,172.2188 4040.8125,174.3125 Q4040.8125,176.4063 4041.5,177.4844 Q4042.1875,178.5469 4043.5313,178.5469 Q4044.1563,178.5469 4044.75,178.2813 Q4045.3438,178 4045.9688,177.4219 L4045.9688,180.1406 Z " fill="#000000"/><text fill="#000000" font-family="sans-serif" font-size="14" lengthAdjust="spacing" textLength="215.0791" x="4057" y="179.3467">logic_arc_int__baselibs__future</text><line style="stroke:#181818;stroke-width:0.5;" x1="4029" x2="4274.0791" y1="190.5" y2="190.5"/></g><!--class comp_arc_sta__baselibs__containers--><g id="elem_comp_arc_sta__baselibs__containers"><rect fill="#F1F1F1" height="40" id="comp_arc_sta__baselibs__containers" rx="2.5" ry="2.5" style="stroke:#181818;stroke-width:0.5;" width="287.1445" x="542" y="275.5"/><ellipse cx="557" cy="291.5" fill="#ADD1B2" rx="11" ry="11" style="stroke:#181818;stroke-width:1;"/><path d="M559.9688,297.1406 Q559.3906,297.4375 558.75,297.5781 Q558.1094,297.7344 557.4063,297.7344 Q554.9063,297.7344 553.5781,296.0938 Q552.2656,294.4375 552.2656,291.3125 Q552.2656,288.1875 553.5781,286.5313 Q554.9063,284.875 557.4063,284.875 Q558.1094,284.875 558.75,285.0313 Q559.4063,285.1875 559.9688,285.4844 L559.9688,288.2031 Q559.3438,287.625 558.75,287.3594 Q558.1563,287.0781 557.5313,287.0781 Q556.1875,287.0781 555.5,288.1563 Q554.8125,289.2188 554.8125,291.3125 Q554.8125,293.4063 555.5,294.4844 Q556.1875,295.5469 557.5313,295.5469 Q558.1563,295.5469 558.75,295.2813 Q559.3438,295 559.9688,294.4219 L559.9688,297.1406 Z " fill="#000000"/><text fill="#000000" font-family="sans-serif" font-size="14" lengthAdjust="spacing" textLength="255.1445" x="571" y="296.3467">comp_arc_sta__baselibs__containers</text><line style="stroke:#181818;stroke-width:0.5;" x1="543" x2="828.1445" y1="307.5" y2="307.5"/></g><!--class logic_arc_int__baselibs__intrusive_list--><g id="elem_logic_arc_int__baselibs__intrusive_list"><rect fill="#F1F1F1" height="40" id="logic_arc_int__baselibs__intrusive_list" rx="2.5" ry="2.5" style="stroke:#181818;stroke-width:0.5;" width="293.0713" x="708" y="158.5"/><ellipse cx="723" cy="174.5" fill="#ADD1B2" rx="11" ry="11" style="stroke:#181818;stroke-width:1;"/><path d="M725.9688,180.1406 Q725.3906,180.4375 724.75,180.5781 Q724.1094,180.7344 723.4063,180.7344 Q720.9063,180.7344 719.5781,179.0938 Q718.2656,177.4375 718.2656,174.3125 Q718.2656,171.1875 719.5781,169.5313 Q720.9063,167.875 723.4063,167.875 Q724.1094,167.875 724.75,168.0313 Q725.4063,168.1875 725.9688,168.4844 L725.9688,171.2031 Q725.3438,170.625 724.75,170.3594 Q724.1563,170.0781 723.5313,170.0781 Q722.1875,170.0781 721.5,171.1563 Q720.8125,172.2188 720.8125,174.3125 Q720.8125,176.4063 721.5,177.4844 Q722.1875,178.5469 723.5313,178.5469 Q724.1563,178.5469 724.75,178.2813 Q725.3438,178 725.9688,177.4219 L725.9688,180.1406 Z " fill="#000000"/><text fill="#000000" font-family="sans-serif" font-size="14" lengthAdjust="spacing" textLength="261.0713" x="737" y="179.3467">logic_arc_int__baselibs__intrusive_list</text><line style="stroke:#181818;stroke-width:0.5;" x1="709" x2="1000.0713" y1="190.5" y2="190.5"/></g><!--class logic_arc_int__baselibs__bit_mask_operator--><g id="elem_logic_arc_int__baselibs__bit_mask_operator"><rect fill="#F1F1F1" height="40" id="logic_arc_int__baselibs__bit_mask_operator" rx="2.5" ry="2.5" style="stroke:#181818;stroke-width:0.5;" width="334.6406" x="2071" y="158.5"/><ellipse cx="2086" cy="174.5" fill="#ADD1B2" rx="11" ry="11" style="stroke:#181818;stroke-width:1;"/><path d="M2088.9688,180.1406 Q2088.3906,180.4375 2087.75,180.5781 Q2087.1094,180.7344 2086.4063,180.7344 Q2083.9063,180.7344 2082.5781,179.0938 Q2081.2656,177.4375 2081.2656,174.3125 Q2081.2656,171.1875 2082.5781,169.5313 Q2083.9063,167.875 2086.4063,167.875 Q2087.1094,167.875 2087.75,168.0313 Q2088.4063,168.1875 2088.9688,168.4844 L2088.9688,171.2031 Q2088.3438,170.625 2087.75,170.3594 Q2087.1563,170.0781 2086.5313,170.0781 Q2085.1875,170.0781 2084.5,171.1563 Q2083.8125,172.2188 2083.8125,174.3125 Q2083.8125,176.4063 2084.5,177.4844 Q2085.1875,178.5469 2086.5313,178.5469 Q2087.1563,178.5469 2087.75,178.2813 Q2088.3438,178 2088.9688,177.4219 L2088.9688,180.1406 Z " fill="#000000"/><text fill="#000000" font-family="sans-serif" font-size="14" lengthAdjust="spacing" textLength="302.6406" x="2100" y="179.3467">logic_arc_int__baselibs__bit_mask_operator</text><line style="stroke:#181818;stroke-width:0.5;" x1="2072" x2="2404.6406" y1="190.5" y2="190.5"/></g><!--class comp_arc_sta__baselibs__memory_shared--><g id="elem_comp_arc_sta__baselibs__memory_shared"><rect fill="#F1F1F1" height="40" id="comp_arc_sta__baselibs__memory_shared" rx="2.5" ry="2.5" style="stroke:#181818;stroke-width:0.5;" width="327.0117" x="7" y="275.5"/><ellipse cx="22" cy="291.5" fill="#ADD1B2" rx="11" ry="11" style="stroke:#181818;stroke-width:1;"/><path d="M24.9688,297.1406 Q24.3906,297.4375 23.75,297.5781 Q23.1094,297.7344 22.4063,297.7344 Q19.9063,297.7344 18.5781,296.0938 Q17.2656,294.4375 17.2656,291.3125 Q17.2656,288.1875 18.5781,286.5313 Q19.9063,284.875 22.4063,284.875 Q23.1094,284.875 23.75,285.0313 Q24.4063,285.1875 24.9688,285.4844 L24.9688,288.2031 Q24.3438,287.625 23.75,287.3594 Q23.1563,287.0781 22.5313,287.0781 Q21.1875,287.0781 20.5,288.1563 Q19.8125,289.2188 19.8125,291.3125 Q19.8125,293.4063 20.5,294.4844 Q21.1875,295.5469 22.5313,295.5469 Q23.1563,295.5469 23.75,295.2813 Q24.3438,295 24.9688,294.4219 L24.9688,297.1406 Z " fill="#000000"/><text fill="#000000" font-family="sans-serif" font-size="14" lengthAdjust="spacing" textLength="295.0117" x="36" y="296.3467">comp_arc_sta__baselibs__memory_shared</text><line style="stroke:#181818;stroke-width:0.5;" x1="8" x2="333.0117" y1="307.5" y2="307.5"/></g><!--class logic_arc_int__baselibs__memory_shared--><g id="elem_logic_arc_int__baselibs__memory_shared"><rect fill="#F1F1F1" height="40" id="logic_arc_int__baselibs__memory_shared" rx="2.5" ry="2.5" style="stroke:#181818;stroke-width:0.5;" width="318.043" x="11.5" y="158.5"/><ellipse cx="26.5" cy="174.5" fill="#ADD1B2" rx="11" ry="11" style="stroke:#181818;stroke-width:1;"/><path d="M29.4688,180.1406 Q28.8906,180.4375 28.25,180.5781 Q27.6094,180.7344 26.9063,180.7344 Q24.4063,180.7344 23.0781,179.0938 Q21.7656,177.4375 21.7656,174.3125 Q21.7656,171.1875 23.0781,169.5313 Q24.4063,167.875 26.9063,167.875 Q27.6094,167.875 28.25,168.0313 Q28.9063,168.1875 29.4688,168.4844 L29.4688,171.2031 Q28.8438,170.625 28.25,170.3594 Q27.6563,170.0781 27.0313,170.0781 Q25.6875,170.0781 25,171.1563 Q24.3125,172.2188 24.3125,174.3125 Q24.3125,176.4063 25,177.4844 Q25.6875,178.5469 27.0313,178.5469 Q27.6563,178.5469 28.25,178.2813 Q28.8438,178 29.4688,177.4219 L29.4688,180.1406 Z " fill="#000000"/><text fill="#000000" font-family="sans-serif" font-size="14" lengthAdjust="spacing" textLength="286.043" x="40.5" y="179.3467">logic_arc_int__baselibs__memory_shared</text><line style="stroke:#181818;stroke-width:0.5;" x1="12.5" x2="328.543" y1="190.5" y2="190.5"/></g><!--reverse link logic_arc_int__baselibs__condition_variable to comp_arc_sta__baselibs__concurrency--><g id="link_logic_arc_int__baselibs__condition_variable_comp_arc_sta__baselibs__concurrency"><path codeLine="15" d="M2763.4237,199.2738 C2872.8437,212.9438 3018.81,230.75 3152.5,245.5 C3267.15,258.15 3397,271.02 3494.5,280.39 " fill="transparent" id="logic_arc_int__baselibs__condition_variable-backto-comp_arc_sta__baselibs__concurrency" style="stroke:#181818;stroke-width:1;"/><polygon fill="#181818" points="2757.47,198.53,2765.9047,203.6149,2762.4314,199.1498,2766.8964,195.6766,2757.47,198.53" style="stroke:#181818;stroke-width:1;"/><text fill="#000000" font-family="sans-serif" font-size="13" lengthAdjust="spacing" textLength="76.9082" x="3153.5" y="241.5669">implements</text></g><!--reverse link logic_arc_int__baselibs__json to comp_arc_sta__baselibs__json--><g id="link_logic_arc_int__baselibs__json_comp_arc_sta__baselibs__json"><path codeLine="16" d="M6075.5998,204.7444 C6076.5198,225.9744 6077.74,253.94 6078.66,275.19 " fill="transparent" id="logic_arc_int__baselibs__json-backto-comp_arc_sta__baselibs__json" style="stroke:#181818;stroke-width:1;"/><polygon fill="#181818" points="6075.34,198.75,6071.7334,207.9147,6075.5565,203.7453,6079.7259,207.5684,6075.34,198.75" style="stroke:#181818;stroke-width:1;"/><text fill="#000000" font-family="sans-serif" font-size="13" lengthAdjust="spacing" textLength="76.9082" x="6078.5" y="241.5669">implements</text></g><!--reverse link logic_arc_int__baselibs__filesystem to comp_arc_sta__baselibs__filesystem--><g id="link_logic_arc_int__baselibs__filesystem_comp_arc_sta__baselibs__filesystem"><path codeLine="17" d="M5778.9346,204.7491 C5779.3046,225.9791 5779.79,253.94 5780.16,275.19 " fill="transparent" id="logic_arc_int__baselibs__filesystem-backto-comp_arc_sta__baselibs__filesystem" style="stroke:#181818;stroke-width:1;"/><polygon fill="#181818" points="5778.83,198.75,5774.9874,207.8183,5778.9171,203.7492,5782.9862,207.6789,5778.83,198.75" style="stroke:#181818;stroke-width:1;"/><text fill="#000000" font-family="sans-serif" font-size="13" lengthAdjust="spacing" textLength="76.9082" x="5781.5" y="241.5669">implements</text></g><!--reverse link logic_arc_int__baselibs__result to comp_arc_sta__baselibs__result--><g id="link_logic_arc_int__baselibs__result_comp_arc_sta__baselibs__result"><path codeLine="18" d="M5478.8418,204.7479 C5478.2818,225.9779 5477.56,253.94 5477,275.19 " fill="transparent" id="logic_arc_int__baselibs__result-backto-comp_arc_sta__baselibs__result" style="stroke:#181818;stroke-width:1;"/><polygon fill="#181818" points="5479,198.75,5474.7641,207.6414,5478.8682,203.7483,5482.7613,207.8523,5479,198.75" style="stroke:#181818;stroke-width:1;"/><text fill="#000000" font-family="sans-serif" font-size="13" lengthAdjust="spacing" textLength="76.9082" x="5479.5" y="241.5669">implements</text></g><!--link Feature_User to logic_arc_int__baselibs__bit_manipulation--><g id="link_Feature_User_logic_arc_int__baselibs__bit_manipulation"><path codeLine="19" d="M3200.29,48.65 C3042.34,63.2 2500.53,113.4 2053.5,158.5 C2047.75,159.08 2047.8593,159.074 2041.9493,159.674 " fill="transparent" id="Feature_User-to-logic_arc_int__baselibs__bit_manipulation" style="stroke:#181818;stroke-width:1;"/><polygon fill="#181818" points="2035.98,160.28,2045.338,163.3505,2040.9544,159.775,2044.53,155.3914,2035.98,160.28" style="stroke:#181818;stroke-width:1;"/><text fill="#000000" font-family="sans-serif" font-size="13" lengthAdjust="spacing" textLength="23.0103" x="2513.5" y="124.5669">use</text></g><!--reverse link logic_arc_int__baselibs__message_passing to comp_arc_sta__baselibs__message_passing--><g id="link_logic_arc_int__baselibs__message_passing_comp_arc_sta__baselibs__message_passing"><path codeLine="20" d="M5155.8688,204.7178 C5153.6588,225.9478 5150.73,253.94 5148.52,275.19 " fill="transparent" id="logic_arc_int__baselibs__message_passing-backto-comp_arc_sta__baselibs__message_passing" style="stroke:#181818;stroke-width:1;"/><polygon fill="#181818" points="5156.49,198.75,5151.5797,207.2875,5155.9723,203.7231,5159.5367,208.1158,5156.49,198.75" style="stroke:#181818;stroke-width:1;"/><text fill="#000000" font-family="sans-serif" font-size="13" lengthAdjust="spacing" textLength="76.9082" x="5154.5" y="241.5669">implements</text></g><!--reverse link logic_arc_int__baselibs__task to comp_arc_sta__baselibs__concurrency--><g id="link_logic_arc_int__baselibs__task_comp_arc_sta__baselibs__concurrency"><path codeLine="21" d="M3560.3067,203.1616 C3579.8767,224.3916 3607.11,253.94 3626.7,275.19 " fill="transparent" id="logic_arc_int__baselibs__task-backto-comp_arc_sta__baselibs__concurrency" style="stroke:#181818;stroke-width:1;"/><polygon fill="#181818" points="3556.24,198.75,3559.3989,208.0785,3559.6289,202.4263,3565.2811,202.6563,3556.24,198.75" style="stroke:#181818;stroke-width:1;"/><text fill="#000000" font-family="sans-serif" font-size="13" lengthAdjust="spacing" textLength="76.9082" x="3599.5" y="241.5669">implements</text></g><!--link Feature_User to logic_arc_int__baselibs__filesystem--><g id="link_Feature_User_logic_arc_int__baselibs__filesystem"><path codeLine="22" d="M3290.51,45.65 C3489.53,50.86 4310.44,73.63 4983.5,111.5 C5266.05,127.4 5336.81,131.36 5618.5,158.5 C5625.6,159.18 5626.9027,159.294 5634.2427,160.064 " fill="transparent" id="Feature_User-to-logic_arc_int__baselibs__filesystem" style="stroke:#181818;stroke-width:1;"/><polygon fill="#181818" points="5640.21,160.69,5631.6764,155.7728,5635.2373,160.1683,5630.8418,163.7292,5640.21,160.69" style="stroke:#181818;stroke-width:1;"/><text fill="#000000" font-family="sans-serif" font-size="13" lengthAdjust="spacing" textLength="23.0103" x="5260.5" y="124.5669">use</text></g><!--link Feature_User to logic_arc_int__baselibs__shared_future--><g id="link_Feature_User_logic_arc_int__baselibs__shared_future"><path codeLine="23" d="M3290.79,54.61 C3390.01,76.75 3622.0741,128.533 3750.3041,157.153 " fill="transparent" id="Feature_User-to-logic_arc_int__baselibs__shared_future" style="stroke:#181818;stroke-width:1;"/><polygon fill="#181818" points="3756.16,158.46,3748.2475,152.5956,3751.2801,157.3708,3746.5048,160.4034,3756.16,158.46" style="stroke:#181818;stroke-width:1;"/><text fill="#000000" font-family="sans-serif" font-size="13" lengthAdjust="spacing" textLength="23.0103" x="3615.5" y="124.5669">use</text></g><!--link Feature_User to logic_arc_int__baselibs__message_passing--><g id="link_Feature_User_logic_arc_int__baselibs__message_passing"><path codeLine="24" d="M3290.7,46.67 C3489.64,56.41 4307.22,98.21 4976.5,158.5 C4982.35,159.03 4982.3358,159.0243 4988.3558,159.5843 " fill="transparent" id="Feature_User-to-logic_arc_int__baselibs__message_passing" style="stroke:#181818;stroke-width:1;"/><polygon fill="#181818" points="4994.33,160.14,4985.7392,155.3236,4989.3515,159.6769,4984.9982,163.2892,4994.33,160.14" style="stroke:#181818;stroke-width:1;"/><text fill="#000000" font-family="sans-serif" font-size="13" lengthAdjust="spacing" textLength="23.0103" x="4599.5" y="124.5669">use</text></g><!--link Feature_User to logic_arc_int__baselibs__result--><g id="link_Feature_User_logic_arc_int__baselibs__result"><path codeLine="25" d="M3290.68,46.39 C3464.2,53.7 4104.48,81.27 4631.5,111.5 C4946.34,129.56 5025.73,126.83 5339.5,158.5 C5345.36,159.09 5345.3888,159.059 5351.4288,159.749 " fill="transparent" id="Feature_User-to-logic_arc_int__baselibs__result" style="stroke:#181818;stroke-width:1;"/><polygon fill="#181818" points="5357.39,160.43,5348.9022,155.4343,5352.4223,159.8625,5347.9942,163.3827,5357.39,160.43" style="stroke:#181818;stroke-width:1;"/><text fill="#000000" font-family="sans-serif" font-size="13" lengthAdjust="spacing" textLength="23.0103" x="4951.5" y="124.5669">use</text></g><!--link Feature_User to logic_arc_int__baselibs__dynamic_array--><g id="link_Feature_User_logic_arc_int__baselibs__dynamic_array"><path codeLine="26" d="M3200.48,45.63 C2994.02,50.94 2117.11,74.62 1398.5,111.5 C1083.56,127.66 1004.63,130.74 690.5,158.5 C684.66,159.02 684.6931,158.9926 678.6931,159.5626 " fill="transparent" id="Feature_User-to-logic_arc_int__baselibs__dynamic_array" style="stroke:#181818;stroke-width:1;"/><polygon fill="#181818" points="672.72,160.13,682.058,163.2609,677.6976,159.6571,681.3014,155.2968,672.72,160.13" style="stroke:#181818;stroke-width:1;"/><text fill="#000000" font-family="sans-serif" font-size="13" lengthAdjust="spacing" textLength="23.0103" x="1399.5" y="124.5669">use</text></g><!--reverse link logic_arc_int__baselibs__bit_manipulation to comp_arc_sta__baselibs__bit_manipulation--><g id="link_logic_arc_int__baselibs__bit_manipulation_comp_arc_sta__baselibs__bit_manipulation"><path codeLine="27" d="M1899.0993,202.8832 C1921.4393,224.1132 1952.82,253.94 1975.18,275.19 " fill="transparent" id="logic_arc_int__baselibs__bit_manipulation-backto-comp_arc_sta__baselibs__bit_manipulation" style="stroke:#181818;stroke-width:1;"/><polygon fill="#181818" points="1894.75,198.75,1898.5185,207.8494,1898.3744,202.1943,1904.0294,202.0503,1894.75,198.75" style="stroke:#181818;stroke-width:1;"/><text fill="#000000" font-family="sans-serif" font-size="13" lengthAdjust="spacing" textLength="76.9082" x="1943.5" y="241.5669">implements</text></g><!--reverse link logic_arc_int__baselibs__task_result to comp_arc_sta__baselibs__concurrency--><g id="link_logic_arc_int__baselibs__task_result_comp_arc_sta__baselibs__concurrency"><path codeLine="28" d="M3317.5954,200.2815 C3391.5054,221.5815 3504.51,254.15 3578.34,275.43 " fill="transparent" id="logic_arc_int__baselibs__task_result-backto-comp_arc_sta__baselibs__concurrency" style="stroke:#181818;stroke-width:1;"/><polygon fill="#181818" points="3311.83,198.62,3319.3704,204.9558,3316.6345,200.0046,3321.5857,197.2687,3311.83,198.62" style="stroke:#181818;stroke-width:1;"/><text fill="#000000" font-family="sans-serif" font-size="13" lengthAdjust="spacing" textLength="76.9082" x="3470.5" y="241.5669">implements</text></g><!--link Feature_User to logic_arc_int__baselibs__utils_base64--><g id="link_Feature_User_logic_arc_int__baselibs__utils_base64"><path codeLine="29" d="M3200.43,47.11 C3014.61,58.02 2289.81,102.03 1695.5,158.5 C1689.97,159.03 1690.3091,158.9716 1684.6191,159.5516 " fill="transparent" id="Feature_User-to-logic_arc_int__baselibs__utils_base64" style="stroke:#181818;stroke-width:1;"/><polygon fill="#181818" points="1678.65,160.16,1688.0092,163.2267,1683.6242,159.653,1687.198,155.268,1678.65,160.16" style="stroke:#181818;stroke-width:1;"/><text fill="#000000" font-family="sans-serif" font-size="13" lengthAdjust="spacing" textLength="23.0103" x="2207.5" y="124.5669">use</text></g><!--link Feature_User to logic_arc_int__baselibs__condition_variable--><g id="link_Feature_User_logic_arc_int__baselibs__condition_variable"><path codeLine="30" d="M3200.38,53.91 C3096.24,75.62 2843.2737,128.3453 2704.5737,157.2653 " fill="transparent" id="Feature_User-to-logic_arc_int__baselibs__condition_variable" style="stroke:#181818;stroke-width:1;"/><polygon fill="#181818" points="2698.7,158.49,2708.327,160.5687,2703.5947,157.4694,2706.694,152.7372,2698.7,158.49" style="stroke:#181818;stroke-width:1;"/><text fill="#000000" font-family="sans-serif" font-size="13" lengthAdjust="spacing" textLength="23.0103" x="2908.5" y="124.5669">use</text></g><!--link Feature_User to logic_arc_int__baselibs__promise--><g id="link_Feature_User_logic_arc_int__baselibs__promise"><path codeLine="31" d="M3200.35,64.12 C3142,89.49 3046.5628,130.9685 2988.8528,156.0485 " fill="transparent" id="Feature_User-to-logic_arc_int__baselibs__promise" style="stroke:#181818;stroke-width:1;"/><polygon fill="#181818" points="2983.35,158.44,2993.1985,158.5214,2987.9357,156.4471,2990.0099,151.1843,2983.35,158.44" style="stroke:#181818;stroke-width:1;"/><text fill="#000000" font-family="sans-serif" font-size="13" lengthAdjust="spacing" textLength="23.0103" x="3084.5" y="124.5669">use</text></g><!--reverse link logic_arc_int__baselibs__promise to comp_arc_sta__baselibs__concurrency--><g id="link_logic_arc_int__baselibs__promise_comp_arc_sta__baselibs__concurrency"><path codeLine="32" d="M3058.037,199.5047 C3137.267,212.8247 3239.88,229.95 3335.5,245.5 C3397.29,255.55 3466.07,266.48 3523.02,275.46 " fill="transparent" id="logic_arc_int__baselibs__promise-backto-comp_arc_sta__baselibs__concurrency" style="stroke:#181818;stroke-width:1;"/><polygon fill="#181818" points="3052.12,198.51,3060.3323,203.9468,3057.0508,199.339,3061.6586,196.0575,3052.12,198.51" style="stroke:#181818;stroke-width:1;"/><text fill="#000000" font-family="sans-serif" font-size="13" lengthAdjust="spacing" textLength="76.9082" x="3336.5" y="241.5669">implements</text></g><!--reverse link logic_arc_int__baselibs__executor to comp_arc_sta__baselibs__concurrency--><g id="link_logic_arc_int__baselibs__executor_comp_arc_sta__baselibs__concurrency"><path codeLine="33" d="M4687.171,197.1499 C4681.211,197.8499 4681.28,197.84 4675.5,198.5 C4472.2,221.72 4421.23,226.34 4217.5,245.5 C4074.11,258.99 3910.38,272.83 3794.77,282.35 " fill="transparent" id="logic_arc_int__baselibs__executor-backto-comp_arc_sta__baselibs__concurrency" style="stroke:#181818;stroke-width:1;"/><polygon fill="#181818" points="4693.13,196.45,4683.7248,193.5271,4688.1641,197.0332,4684.658,201.4725,4693.13,196.45" style="stroke:#181818;stroke-width:1;"/><text fill="#000000" font-family="sans-serif" font-size="13" lengthAdjust="spacing" textLength="76.9082" x="4393.5" y="241.5669">implements</text></g><!--reverse link logic_arc_int__baselibs__utils_scoped_op to comp_arc_sta__baselibs__utils--><g id="link_logic_arc_int__baselibs__utils_scoped_op_comp_arc_sta__baselibs__utils"><path codeLine="34" d="M1216.9926,202.9926 C1238.2226,224.2226 1267.94,253.94 1289.19,275.19 " fill="transparent" id="logic_arc_int__baselibs__utils_scoped_op-backto-comp_arc_sta__baselibs__utils" style="stroke:#181818;stroke-width:1;"/><polygon fill="#181818" points="1212.75,198.75,1216.2855,207.9424,1216.2855,202.2855,1221.9424,202.2855,1212.75,198.75" style="stroke:#181818;stroke-width:1;"/><text fill="#000000" font-family="sans-serif" font-size="13" lengthAdjust="spacing" textLength="76.9082" x="1259.5" y="241.5669">implements</text></g><!--reverse link logic_arc_int__baselibs__synchronized_queue to comp_arc_sta__baselibs__concurrency--><g id="link_logic_arc_int__baselibs__synchronized_queue_comp_arc_sta__baselibs__concurrency"><path codeLine="35" d="M4345.1394,199.3625 C4251.0794,212.7025 4128.08,230 4014.5,245.5 C3940.67,255.57 3858.5,266.48 3790.39,275.45 " fill="transparent" id="logic_arc_int__baselibs__synchronized_queue-backto-comp_arc_sta__baselibs__concurrency" style="stroke:#181818;stroke-width:1;"/><polygon fill="#181818" points="4351.08,198.52,4341.6075,195.8234,4346.1295,199.2221,4342.7308,203.7441,4351.08,198.52" style="stroke:#181818;stroke-width:1;"/><text fill="#000000" font-family="sans-serif" font-size="13" lengthAdjust="spacing" textLength="76.9082" x="4132.5" y="241.5669">implements</text></g><!--reverse link logic_arc_int__baselibs__future to comp_arc_sta__baselibs__concurrency--><g id="link_logic_arc_int__baselibs__future_comp_arc_sta__baselibs__concurrency"><path codeLine="36" d="M4061.6387,199.8774 C3967.7887,221.1674 3822.59,254.11 3728.67,275.41 " fill="transparent" id="logic_arc_int__baselibs__future-backto-comp_arc_sta__baselibs__concurrency" style="stroke:#181818;stroke-width:1;"/><polygon fill="#181818" points="4067.49,198.55,4057.8281,196.6402,4062.6139,199.6562,4059.5979,204.442,4067.49,198.55" style="stroke:#181818;stroke-width:1;"/><text fill="#000000" font-family="sans-serif" font-size="13" lengthAdjust="spacing" textLength="76.9082" x="3929.5" y="241.5669">implements</text></g><!--reverse link logic_arc_int__baselibs__intrusive_list to comp_arc_sta__baselibs__containers--><g id="link_logic_arc_int__baselibs__intrusive_list_comp_arc_sta__baselibs__containers"><path codeLine="37" d="M821.2494,202.1252 C789.9594,223.4152 744.81,254.14 713.6,275.38 " fill="transparent" id="logic_arc_int__baselibs__intrusive_list-backto-comp_arc_sta__baselibs__containers" style="stroke:#181818;stroke-width:1;"/><polygon fill="#181818" points="826.21,198.75,816.5189,200.5058,822.0762,201.5627,821.0192,207.1199,826.21,198.75" style="stroke:#181818;stroke-width:1;"/><text fill="#000000" font-family="sans-serif" font-size="13" lengthAdjust="spacing" textLength="76.9082" x="781.5" y="241.5669">implements</text></g><!--link Feature_User to logic_arc_int__baselibs__bit_mask_operator--><g id="link_Feature_User_logic_arc_int__baselibs__bit_mask_operator"><path codeLine="38" d="M3200.28,50.47 C3057.81,69.29 2620.0583,127.1044 2388.4483,157.6944 " fill="transparent" id="Feature_User-to-logic_arc_int__baselibs__bit_mask_operator" style="stroke:#181818;stroke-width:1;"/><polygon fill="#181818" points="2382.5,158.48,2391.9463,161.2671,2387.457,157.8253,2390.8988,153.336,2382.5,158.48" style="stroke:#181818;stroke-width:1;"/><text fill="#000000" font-family="sans-serif" font-size="13" lengthAdjust="spacing" textLength="23.0103" x="2713.5" y="124.5669">use</text></g><!--link Feature_User to logic_arc_int__baselibs__synchronized_queue--><g id="link_Feature_User_logic_arc_int__baselibs__synchronized_queue"><path codeLine="39" d="M3290.7,49.35 C3454.17,66.9 4014.3643,127.0296 4304.3643,158.1596 " fill="transparent" id="Feature_User-to-logic_arc_int__baselibs__synchronized_queue" style="stroke:#181818;stroke-width:1;"/><polygon fill="#181818" points="4310.33,158.8,4301.8083,153.8623,4305.3586,158.2663,4300.9545,161.8166,4310.33,158.8" style="stroke:#181818;stroke-width:1;"/><text fill="#000000" font-family="sans-serif" font-size="13" lengthAdjust="spacing" textLength="23.0103" x="4013.5" y="124.5669">use</text></g><!--link Feature_User to logic_arc_int__baselibs__executor--><g id="link_Feature_User_logic_arc_int__baselibs__executor"><path codeLine="40" d="M3290.65,47.35 C3467.62,58.66 4131.07,102.58 4675.5,158.5 C4681.28,159.09 4681.2265,159.0696 4687.1865,159.7296 " fill="transparent" id="Feature_User-to-logic_arc_int__baselibs__executor" style="stroke:#181818;stroke-width:1;"/><polygon fill="#181818" points="4693.15,160.39,4684.6449,155.4237,4688.1804,159.8397,4683.7644,163.3751,4693.15,160.39" style="stroke:#181818;stroke-width:1;"/><text fill="#000000" font-family="sans-serif" font-size="13" lengthAdjust="spacing" textLength="23.0103" x="4324.5" y="124.5669">use</text></g><!--reverse link logic_arc_int__baselibs__dynamic_array to comp_arc_sta__baselibs__containers--><g id="link_logic_arc_int__baselibs__dynamic_array_comp_arc_sta__baselibs__containers"><path codeLine="41" d="M551.3918,202.1527 C582.3118,223.4427 626.89,254.14 657.74,275.38 " fill="transparent" id="logic_arc_int__baselibs__dynamic_array-backto-comp_arc_sta__baselibs__containers" style="stroke:#181818;stroke-width:1;"/><polygon fill="#181818" points="546.45,198.75,551.5943,207.1486,550.5682,201.5856,556.1312,200.5595,546.45,198.75" style="stroke:#181818;stroke-width:1;"/><text fill="#000000" font-family="sans-serif" font-size="13" lengthAdjust="spacing" textLength="76.9082" x="613.5" y="241.5669">implements</text></g><!--reverse link logic_arc_int__baselibs__utils_base64 to comp_arc_sta__baselibs__utils--><g id="link_logic_arc_int__baselibs__utils_base64_comp_arc_sta__baselibs__utils"><path codeLine="42" d="M1489.9223,201.3603 C1448.4923,222.6303 1387.29,254.05 1345.83,275.34 " fill="transparent" id="logic_arc_int__baselibs__utils_base64-backto-comp_arc_sta__baselibs__utils" style="stroke:#181818;stroke-width:1;"/><polygon fill="#181818" points="1495.26,198.62,1485.4266,199.1721,1490.812,200.9036,1489.0804,206.2889,1495.26,198.62" style="stroke:#181818;stroke-width:1;"/><text fill="#000000" font-family="sans-serif" font-size="13" lengthAdjust="spacing" textLength="76.9082" x="1435.5" y="241.5669">implements</text></g><!--reverse link logic_arc_int__baselibs__shared_future to comp_arc_sta__baselibs__concurrency--><g id="link_logic_arc_int__baselibs__shared_future_comp_arc_sta__baselibs__concurrency"><path codeLine="43" d="M3803.3479,201.7743 C3766.8679,223.0643 3713.64,254.14 3677.25,275.38 " fill="transparent" id="logic_arc_int__baselibs__shared_future-backto-comp_arc_sta__baselibs__concurrency" style="stroke:#181818;stroke-width:1;"/><polygon fill="#181818" points="3808.53,198.75,3798.7407,199.8317,3804.2116,201.2702,3802.7731,206.7411,3808.53,198.75" style="stroke:#181818;stroke-width:1;"/><text fill="#000000" font-family="sans-serif" font-size="13" lengthAdjust="spacing" textLength="76.9082" x="3756.5" y="241.5669">implements</text></g><!--link Feature_User to logic_arc_int__baselibs__intrusive_list--><g id="link_Feature_User_logic_arc_int__baselibs__intrusive_list"><path codeLine="44" d="M3200.42,46.19 C3018.45,53.07 2320.38,80.15 1746.5,111.5 C1422.75,129.18 1341.42,129.39 1018.5,158.5 C1012.79,159.01 1012.9409,158.97 1007.0709,159.55 " fill="transparent" id="Feature_User-to-logic_arc_int__baselibs__intrusive_list" style="stroke:#181818;stroke-width:1;"/><polygon fill="#181818" points="1001.1,160.14,1010.4497,163.2357,1006.0758,159.6484,1009.6631,155.2744,1001.1,160.14" style="stroke:#181818;stroke-width:1;"/><text fill="#000000" font-family="sans-serif" font-size="13" lengthAdjust="spacing" textLength="23.0103" x="1747.5" y="124.5669">use</text></g><!--link Feature_User to logic_arc_int__baselibs__task_result--><g id="link_Feature_User_logic_arc_int__baselibs__task_result"><path codeLine="45" d="M3245.5,81.55 C3245.5,106.45 3245.5,132.26 3245.5,152.26 " fill="transparent" id="Feature_User-to-logic_arc_int__baselibs__task_result" style="stroke:#181818;stroke-width:1;"/><polygon fill="#181818" points="3245.5,158.26,3249.5,149.26,3245.5,153.26,3241.5,149.26,3245.5,158.26" style="stroke:#181818;stroke-width:1;"/><text fill="#000000" font-family="sans-serif" font-size="13" lengthAdjust="spacing" textLength="23.0103" x="3246.5" y="124.5669">use</text></g><!--link Feature_User to logic_arc_int__baselibs__utils_scoped_op--><g id="link_Feature_User_logic_arc_int__baselibs__utils_scoped_op"><path codeLine="46" d="M3200.4,46.3 C2991.66,54.85 2098.54,93.55 1368.5,158.5 C1362.87,159 1363.1131,158.9626 1357.3231,159.5126 " fill="transparent" id="Feature_User-to-logic_arc_int__baselibs__utils_scoped_op" style="stroke:#181818;stroke-width:1;"/><polygon fill="#181818" points="1351.35,160.08,1360.6879,163.211,1356.3276,159.6072,1359.9314,155.2468,1351.35,160.08" style="stroke:#181818;stroke-width:1;"/><text fill="#000000" font-family="sans-serif" font-size="13" lengthAdjust="spacing" textLength="23.0103" x="1936.5" y="124.5669">use</text></g><!--link Feature_User to logic_arc_int__baselibs__json--><g id="link_Feature_User_logic_arc_int__baselibs__json"><path codeLine="47" d="M3290.55,45.3 C3510.16,49.34 4490.48,68.99 5292.5,111.5 C5577.75,126.62 5649.38,128.97 5933.5,158.5 C5941.48,159.33 5943.7515,159.5556 5952.0415,160.5356 " fill="transparent" id="Feature_User-to-logic_arc_int__baselibs__json" style="stroke:#181818;stroke-width:1;"/><polygon fill="#181818" points="5958,161.24,5949.5318,156.2111,5953.0346,160.653,5948.5926,164.1558,5958,161.24" style="stroke:#181818;stroke-width:1;"/><text fill="#000000" font-family="sans-serif" font-size="13" lengthAdjust="spacing" textLength="23.0103" x="5593.5" y="124.5669">use</text></g><!--reverse link logic_arc_int__baselibs__memory_shared to comp_arc_sta__baselibs__memory_shared--><g id="link_logic_arc_int__baselibs__memory_shared_comp_arc_sta__baselibs__memory_shared"><path codeLine="48" d="M170.5,204.75 C170.5,225.98 170.5,253.94 170.5,275.19 " fill="transparent" id="logic_arc_int__baselibs__memory_shared-backto-comp_arc_sta__baselibs__memory_shared" style="stroke:#181818;stroke-width:1;"/><polygon fill="#181818" points="170.5,198.75,166.5,207.75,170.5,203.75,174.5,207.75,170.5,198.75" style="stroke:#181818;stroke-width:1;"/><text fill="#000000" font-family="sans-serif" font-size="13" lengthAdjust="spacing" textLength="76.9082" x="171.5" y="241.5669">implements</text></g><!--link Feature_User to logic_arc_int__baselibs__memory_shared--><g id="link_Feature_User_logic_arc_int__baselibs__memory_shared"><path codeLine="49" d="M3200.22,45.27 C2970.67,49.28 1912.62,69.33 1047.5,111.5 C735.62,126.7 657.57,131.29 346.5,158.5 C340.99,158.98 341.3539,158.9306 335.6939,159.4606 " fill="transparent" id="Feature_User-to-logic_arc_int__baselibs__memory_shared" style="stroke:#181818;stroke-width:1;"/><polygon fill="#181818" points="329.72,160.02,339.0537,163.1635,334.6982,159.5538,338.3079,155.1983,329.72,160.02" style="stroke:#181818;stroke-width:1;"/><text fill="#000000" font-family="sans-serif" font-size="13" lengthAdjust="spacing" textLength="23.0103" x="1048.5" y="124.5669">use</text></g><!--reverse link logic_arc_int__baselibs__bit_mask_operator to comp_arc_sta__baselibs__bit_manipulation--><g id="link_logic_arc_int__baselibs__bit_mask_operator_comp_arc_sta__baselibs__bit_manipulation"><path codeLine="50" d="M2192.6768,201.1868 C2147.7368,222.4568 2080.98,254.05 2036,275.34 " fill="transparent" id="logic_arc_int__baselibs__bit_mask_operator-backto-comp_arc_sta__baselibs__bit_manipulation" style="stroke:#181818;stroke-width:1;"/><polygon fill="#181818" points="2198.1,198.62,2188.2539,198.8547,2193.5806,200.759,2191.6763,206.0857,2198.1,198.62" style="stroke:#181818;stroke-width:1;"/><text fill="#000000" font-family="sans-serif" font-size="13" lengthAdjust="spacing" textLength="76.9082" x="2133.5" y="241.5669">implements</text></g><!--link Feature_User to logic_arc_int__baselibs__future--><g id="link_Feature_User_logic_arc_int__baselibs__future"><path codeLine="51" d="M3290.74,51.14 C3424.79,70.82 3817.3236,128.4385 4021.6736,158.4385 " fill="transparent" id="Feature_User-to-logic_arc_int__baselibs__future" style="stroke:#181818;stroke-width:1;"/><polygon fill="#181818" points="4027.61,159.31,4019.2864,154.0452,4022.663,158.5837,4018.1244,161.9603,4027.61,159.31" style="stroke:#181818;stroke-width:1;"/><text fill="#000000" font-family="sans-serif" font-size="13" lengthAdjust="spacing" textLength="23.0103" x="3807.5" y="124.5669">use</text></g><!--link Feature_User to logic_arc_int__baselibs__task--><g id="link_Feature_User_logic_arc_int__baselibs__task"><path codeLine="52" d="M3290.64,64.99 C3346.82,90.49 3436.5569,131.2191 3491.1669,156.0191 " fill="transparent" id="Feature_User-to-logic_arc_int__baselibs__task" style="stroke:#181818;stroke-width:1;"/><polygon fill="#181818" points="3496.63,158.5,3490.0894,151.1366,3492.0775,156.4326,3486.7815,158.4206,3496.63,158.5" style="stroke:#181818;stroke-width:1;"/><text fill="#000000" font-family="sans-serif" font-size="13" lengthAdjust="spacing" textLength="23.0103" x="3428.5" y="124.5669">use</text></g><!--SRC=[hLPDRzim3BtxLmYzfnk6OOUYw6N0JZrkPu6MsOIhFZoHwkeD- -zJd6Hjd7QoKXybay_IUuyKmThmKpjw9Bzk9FHAWcg3I72geuX6AFXcGnqg5emOPEXnjqRNow1095AR1BcvPXaitZINm6HRzRkv9O-VWmrHHUp6rTSDcNkFpEh3vVlcJtFzRf_JW94ST_45GL94zOqnNYXWjT_GsmtLD2QuNaCqcWMqRe7HKijQc-1DYX6z6TGghMwK3MioOoHvcKHsjBsLVe18q5gyKkHwYmwzi7hr3zyv-0BqDcGUs1rPv24pwWgGJu7pW2Doib80tGKT0nxnlEh-bzwIQ0UU-cHXI-ILIeol7ybbkM6DkWVcRBB2sIRHysuzNtq1lZ_xui_56AzSaSiRo4MWxz8seJxzX9PQW8FcjNdTuC6Ddo8C1QMdnYXeSUgZvRL-gzUJaELn_UbZFNalzPfQZ3u6Hum5wkUpyWzlMRBn4KtABNmUxaXh0N57FPlGvxe9_T87vi6RJGoUVcNu7mdJufGSQdqcga1-86E9bRoCYUa1jIL-Qm_FzP7PZJ3gLjtHNY2m5kF9DILtpsDdqgsMjUAX2opim-E7uKmzfxQe5UAeLzOcdrHgBS1kS2fC4Ix4OSzMSOPu5disfHEKvL- -e-exToGvSvxOpK5Zrby0]--></g></svg>