<svg xmlns="http://www.w3.org/2000/svg" xmlns:xlink="http://www.w3.org/1999/xlink" contentStyleType="text/css" data-diagram-type="CLASS" height="322px" preserveAspectRatio="none" style="width:6204px;height:322px;background:#FFFFFF;" version="1.1" viewBox="0 0 6204 322" width="6204px" zoomAndPan="magnify"><defs/><g><!--entity Feature_User--><g id="elem_Feature_User"><ellipse cx="2995.6685" cy="14" fill="#F1F1F1" rx="8" ry="8" style="stroke:#181818;stroke-width:0.5;"/><path d="M2995.6685,22 L2995.6685,49 M2982.6685,30 L3008.6685,30 M2995.6685,49 L2982.6685,64 M2995.6685,49 L3008.6685,64 " fill="transparent" style="stroke:#181818;stroke-width:0.5;"/><text fill="#000000" font-family="sans-serif" font-size="14" lengthAdjust="spacing" textLength="90.3369" x="2950.5" y="78.4951">Feature User</text></g><!--class logic_arc_int__baselibs__message_passing--><g id="elem_logic_arc_int__baselibs__message_passing"><rect fill="#F1F1F1" height="40" id="logic_arc_int__baselibs__message_passing" rx="2.5" ry="2.5" style="stroke:#181818;stroke-width:0.5;" width="328.167" x="16.5" y="158.5"/><ellipse cx="31.5" cy="174.5" fill="#ADD1B2" rx="11" ry="11" style="stroke:#181818;stroke-width:1;"/><path d="M34.4688,180.1406 Q33.8906,180.4375 33.25,180.5781 Q32.6094,180.7344 31.9063,180.7344 Q29.4063,180.7344 28.0781,179.0938 Q26.7656,177.4375 26.7656,174.3125 Q26.7656,171.1875 28.0781,169.5313 Q29.4063,167.875 31.9063,167.875 Q32.6094,167.875 33.25,168.0313 Q33.9063,168.1875 34.4688,168.4844 L34.4688,171.2031 Q33.8438,170.625 33.25,170.3594 Q32.6563,170.0781 32.0313,170.0781 Q30.6875,170.0781 30,171.1563 Q29.3125,172.2188 29.3125,174.3125 Q29.3125,176.4063 30,177.4844 Q30.6875,178.5469 32.0313,178.5469 Q32.6563,178.5469 33.25,178.2813 Q33.8438,178 34.4688,177.4219 L34.4688,180.1406 Z " fill="#000000"/><text fill="#000000" font-family="sans-serif" font-size="14" lengthAdjust="spacing" textLength="296.167" x="45.5" y="179.3467">logic_arc_int__baselibs__message_passing</text><line style="stroke:#181818;stroke-width:0.5;" x1="17.5" x2="343.667" y1="190.5" y2="190.5"/></g><!--class comp_arc_sta__baselibs__bit_manipulation--><g id="elem_comp_arc_sta__baselibs__bit_manipulation"><rect fill="#F1F1F1" height="40" id="comp_arc_sta__baselibs__bit_manipulation" rx="2.5" ry="2.5" style="stroke:#181818;stroke-width:0.5;" width="330.8057" x="5301" y="275.5"/><ellipse cx="5316" cy="291.5" fill="#ADD1B2" rx="11" ry="11" style="stroke:#181818;stroke-width:1;"/><path d="M5318.9688,297.1406 Q5318.3906,297.4375 5317.75,297.5781 Q5317.1094,297.7344 5316.4063,297.7344 Q5313.9063,297.7344 5312.5781,296.0938 Q5311.2656,294.4375 5311.2656,291.3125 Q5311.2656,288.1875 5312.5781,286.5313 Q5313.9063,284.875 5316.4063,284.875 Q5317.1094,284.875 5317.75,285.0313 Q5318.4063,285.1875 5318.9688,285.4844 L5318.9688,288.2031 Q5318.3438,287.625 5317.75,287.3594 Q5317.1563,287.0781 5316.5313,287.0781 Q5315.1875,287.0781 5314.5,288.1563 Q5313.8125,289.2188 5313.8125,291.3125 Q5313.8125,293.4063 5314.5,294.4844 Q5315.1875,295.5469 5316.5313,295.5469 Q5317.1563,295.5469 5317.75,295.2813 Q5318.3438,295 5318.9688,294.4219 L5318.9688,297.1406 Z " fill="#000000"/><text fill="#000000" font-family="sans-serif" font-size="14" lengthAdjust="spacing" textLength="298.8057" x="5330" y="296.3467">comp_arc_sta__baselibs__bit_manipulation</text><line style="stroke:#181818;stroke-width:0.5;" x1="5302" x2="5630.8057" y1="307.5" y2="307.5"/></g><!--class logic_arc_int__baselibs__bit_manipulation--><g id="elem_logic_arc_int__baselibs__bit_manipulation"><rect fill="#F1F1F1" height="40" id="logic_arc_int__baselibs__bit_manipulation" rx="2.5" ry="2.5" style="stroke:#181818;stroke-width:0.5;" width="321.8369" x="5517.5" y="158.5"/><ellipse cx="5532.5" cy="174.5" fill="#ADD1B2" rx="11" ry="11" style="stroke:#181818;stroke-width:1;"/><path d="M5535.4688,180.1406 Q5534.8906,180.4375 5534.25,180.5781 Q5533.6094,180.7344 5532.9063,180.7344 Q5530.4063,180.7344 5529.0781,179.0938 Q5527.7656,177.4375 5527.7656,174.3125 Q5527.7656,171.1875 5529.0781,169.5313 Q5530.4063,167.875 5532.9063,167.875 Q5533.6094,167.875 5534.25,168.0313 Q5534.9063,168.1875 5535.4688,168.4844 L5535.4688,171.2031 Q5534.8438,170.625 5534.25,170.3594 Q5533.6563,170.0781 5533.0313,170.0781 Q5531.6875,170.0781 5531,171.1563 Q5530.3125,172.2188 5530.3125,174.3125 Q5530.3125,176.4063 5531,177.4844 Q5531.6875,178.5469 5533.0313,178.5469 Q5533.6563,178.5469 5534.25,178.2813 Q5534.8438,178 5535.4688,177.4219 L5535.4688,180.1406 Z " fill="#000000"/><text fill="#000000" font-family="sans-serif" font-size="14" lengthAdjust="spacing" textLength="289.8369" x="5546.5" y="179.3467">logic_arc_int__baselibs__bit_manipulation</text><line style="stroke:#181818;stroke-width:0.5;" x1="5518.5" x2="5838.3369" y1="190.5" y2="190.5"/></g><!--class logic_arc_int__baselibs__utils_base64--><g id="elem_logic_arc_int__baselibs__utils_base64"><rect fill="#F1F1F1" height="40" id="logic_arc_int__baselibs__utils_base64" rx="2.5" ry="2.5" style="stroke:#181818;stroke-width:0.5;" width="292.1689" x="1282.5" y="158.5"/><ellipse cx="1297.5" cy="174.5" fill="#ADD1B2" rx="11" ry="11" style="stroke:#181818;stroke-width:1;"/><path d="M1300.4688,180.1406 Q1299.8906,180.4375 1299.25,180.5781 Q1298.6094,180.7344 1297.9063,180.7344 Q1295.4063,180.7344 1294.0781,179.0938 Q1292.7656,177.4375 1292.7656,174.3125 Q1292.7656,171.1875 1294.0781,169.5313 Q1295.4063,167.875 1297.9063,167.875 Q1298.6094,167.875 1299.25,168.0313 Q1299.9063,168.1875 1300.4688,168.4844 L1300.4688,171.2031 Q1299.8438,170.625 1299.25,170.3594 Q1298.6563,170.0781 1298.0313,170.0781 Q1296.6875,170.0781 1296,171.1563 Q1295.3125,172.2188 1295.3125,174.3125 Q1295.3125,176.4063 1296,177.4844 Q1296.6875,178.5469 1298.0313,178.5469 Q1298.6563,178.5469 1299.25,178.2813 Q1299.8438,178 1300.4688,177.4219 L1300.4688,180.1406 Z " fill="#000000"/><text fill="#000000" font-family="sans-serif" font-size="14" lengthAdjust="spacing" textLength="260.1689" x="1311.5" y="179.3467">logic_arc_int__baselibs__utils_base64</text><line style="stroke:#181818;stroke-width:0.5;" x1="1283.5" x2="1573.6689" y1="190.5" y2="190.5"/></g><!--class logic_arc_int__baselibs__task_result--><g id="elem_logic_arc_int__baselibs__task_result"><rect fill="#F1F1F1" height="40" id="logic_arc_int__baselibs__task_result" rx="2.5" ry="2.5" style="stroke:#181818;stroke-width:0.5;" width="280.9307" x="1978" y="158.5"/><ellipse cx="1993" cy="174.5" fill="#ADD1B2" rx="11" ry="11" style="stroke:#181818;stroke-width:1;"/><path d="M1995.9688,180.1406 Q1995.3906,180.4375 1994.75,180.5781 Q1994.1094,180.7344 1993.4063,180.7344 Q1990.9063,180.7344 1989.5781,179.0938 Q1988.2656,177.4375 1988.2656,174.3125 Q1988.2656,171.1875 1989.5781,169.5313 Q1990.9063,167.875 1993.4063,167.875 Q1994.1094,167.875 1994.75,168.0313 Q1995.4063,168.1875 1995.9688,168.4844 L1995.9688,171.2031 Q1995.3438,170.625 1994.75,170.3594 Q1994.1563,170.0781 1993.5313,170.0781 Q1992.1875,170.0781 1991.5,171.1563 Q1990.8125,172.2188 1990.8125,174.3125 Q1990.8125,176.4063 1991.5,177.4844 Q1992.1875,178.5469 1993.5313,178.5469 Q1994.1563,178.5469 1994.75,178.2813 Q1995.3438,178 1995.9688,177.4219 L1995.9688,180.1406 Z " fill="#000000"/><text fill="#000000" font-family="sans-serif" font-size="14" lengthAdjust="spacing" textLength="248.9307" x="2007" y="179.3467">logic_arc_int__baselibs__task_result</text><line style="stroke:#181818;stroke-width:0.5;" x1="1979" x2="2257.9307" y1="190.5" y2="190.5"/></g><!--class logic_arc_int__baselibs__json--><g id="elem_logic_arc_int__baselibs__json"><rect fill="#F1F1F1" height="40" id="logic_arc_int__baselibs__json" rx="2.5" ry="2.5" style="stroke:#181818;stroke-width:0.5;" width="233.168" x="384" y="158.5"/><ellipse cx="399" cy="174.5" fill="#ADD1B2" rx="11" ry="11" style="stroke:#181818;stroke-width:1;"/><path d="M401.9688,180.1406 Q401.3906,180.4375 400.75,180.5781 Q400.1094,180.7344 399.4063,180.7344 Q396.9063,180.7344 395.5781,179.0938 Q394.2656,177.4375 394.2656,174.3125 Q394.2656,171.1875 395.5781,169.5313 Q396.9063,167.875 399.4063,167.875 Q400.1094,167.875 400.75,168.0313 Q401.4063,168.1875 401.9688,168.4844 L401.9688,171.2031 Q401.3438,170.625 400.75,170.3594 Q400.1563,170.0781 399.5313,170.0781 Q398.1875,170.0781 397.5,171.1563 Q396.8125,172.2188 396.8125,174.3125 Q396.8125,176.4063 397.5,177.4844 Q398.1875,178.5469 399.5313,178.5469 Q400.1563,178.5469 400.75,178.2813 Q401.3438,178 401.9688,177.4219 L401.9688,180.1406 Z " fill="#000000"/><text fill="#000000" font-family="sans-serif" font-size="14" lengthAdjust="spacing" textLength="201.168" x="413" y="179.3467">logic_arc_int__baselibs__json</text><line style="stroke:#181818;stroke-width:0.5;" x1="385" x2="616.168" y1="190.5" y2="190.5"/></g><!--class comp_arc_sta__baselibs__memory_shared--><g id="elem_comp_arc_sta__baselibs__memory_shared"><rect fill="#F1F1F1" height="40" id="comp_arc_sta__baselibs__memory_shared" rx="2.5" ry="2.5" style="stroke:#181818;stroke-width:0.5;" width="327.0117" x="5870" y="275.5"/><ellipse cx="5885" cy="291.5" fill="#ADD1B2" rx="11" ry="11" style="stroke:#181818;stroke-width:1;"/><path d="M5887.9688,297.1406 Q5887.3906,297.4375 5886.75,297.5781 Q5886.1094,297.7344 5885.4063,297.7344 Q5882.9063,297.7344 5881.5781,296.0938 Q5880.2656,294.4375 5880.2656,291.3125 Q5880.2656,288.1875 5881.5781,286.5313 Q5882.9063,284.875 5885.4063,284.875 Q5886.1094,284.875 5886.75,285.0313 Q5887.4063,285.1875 5887.9688,285.4844 L5887.9688,288.2031 Q5887.3438,287.625 5886.75,287.3594 Q5886.1563,287.0781 5885.5313,287.0781 Q5884.1875,287.0781 5883.5,288.1563 Q5882.8125,289.2188 5882.8125,291.3125 Q5882.8125,293.4063 5883.5,294.4844 Q5884.1875,295.5469 5885.5313,295.5469 Q5886.1563,295.5469 5886.75,295.2813 Q5887.3438,295 5887.9688,294.4219 L5887.9688,297.1406 Z " fill="#000000"/><text fill="#000000" font-family="sans-serif" font-size="14" lengthAdjust="spacing" textLength="295.0117" x="5899" y="296.3467">comp_arc_sta__baselibs__memory_shared</text><line style="stroke:#181818;stroke-width:0.5;" x1="5871" x2="6196.0117" y1="307.5" y2="307.5"/></g><!--class logic_arc_int__baselibs__memory_shared--><g id="elem_logic_arc_int__baselibs__memory_shared"><rect fill="#F1F1F1" height="40" id="logic_arc_int__baselibs__memory_shared" rx="2.5" ry="2.5" style="stroke:#181818;stroke-width:0.5;" width="318.043" x="5874.5" y="158.5"/><ellipse cx="5889.5" cy="174.5" fill="#ADD1B2" rx="11" ry="11" style="stroke:#181818;stroke-width:1;"/><path d="M5892.4688,180.1406 Q5891.8906,180.4375 5891.25,180.5781 Q5890.6094,180.7344 5889.9063,180.7344 Q5887.4063,180.7344 5886.0781,179.0938 Q5884.7656,177.4375 5884.7656,174.3125 Q5884.7656,171.1875 5886.0781,169.5313 Q5887.4063,167.875 5889.9063,167.875 Q5890.6094,167.875 5891.25,168.0313 Q5891.9063,168.1875 5892.4688,168.4844 L5892.4688,171.2031 Q5891.8438,170.625 5891.25,170.3594 Q5890.6563,170.0781 5890.0313,170.0781 Q5888.6875,170.0781 5888,171.1563 Q5887.3125,172.2188 5887.3125,174.3125 Q5887.3125,176.4063 5888,177.4844 Q5888.6875,178.5469 5890.0313,178.5469 Q5890.6563,178.5469 5891.25,178.2813 Q5891.8438,178 5892.4688,177.4219 L5892.4688,180.1406 Z " fill="#000000"/><text fill="#000000" font-family="sans-serif" font-size="14" lengthAdjust="spacing" textLength="286.043" x="5903.5" y="179.3467">logic_arc_int__baselibs__memory_shared</text><line style="stroke:#181818;stroke-width:0.5;" x1="5875.5" x2="6191.543" y1="190.5" y2="190.5"/></g><!--class logic_arc_int__baselibs__task--><g id="elem_logic_arc_int__baselibs__task"><rect fill="#F1F1F1" height="40" id="logic_arc_int__baselibs__task" rx="2.5" ry="2.5" style="stroke:#181818;stroke-width:0.5;" width="234.0156" x="2595.5" y="158.5"/><ellipse cx="2610.5" cy="174.5" fill="#ADD1B2" rx="11" ry="11" style="stroke:#181818;stroke-width:1;"/><path d="M2613.4688,180.1406 Q2612.8906,180.4375 2612.25,180.5781 Q2611.6094,180.7344 2610.9063,180.7344 Q2608.4063,180.7344 2607.0781,179.0938 Q2605.7656,177.4375 2605.7656,174.3125 Q2605.7656,171.1875 2607.0781,169.5313 Q2608.4063,167.875 2610.9063,167.875 Q2611.6094,167.875 2612.25,168.0313 Q2612.9063,168.1875 2613.4688,168.4844 L2613.4688,171.2031 Q2612.8438,170.625 2612.25,170.3594 Q2611.6563,170.0781 2611.0313,170.0781 Q2609.6875,170.0781 2609,171.1563 Q2608.3125,172.2188 2608.3125,174.3125 Q2608.3125,176.4063 2609,177.4844 Q2609.6875,178.5469 2611.0313,178.5469 Q2611.6563,178.5469 2612.25,178.2813 Q2612.8438,178 2613.4688,177.4219 L2613.4688,180.1406 Z " fill="#000000"/><text fill="#000000" font-family="sans-serif" font-size="14" lengthAdjust="spacing" textLength="202.0156" x="2624.5" y="179.3467">logic_arc_int__baselibs__task</text><line style="stroke:#181818;stroke-width:0.5;" x1="2596.5" x2="2828.5156" y1="190.5" y2="190.5"/></g><!--class logic_arc_int__baselibs__executor--><g id="elem_logic_arc_int__baselibs__executor"><rect fill="#F1F1F1" height="40" id="logic_arc_int__baselibs__executor" rx="2.5" ry="2.5" style="stroke:#181818;stroke-width:0.5;" width="266.4385" x="2294.5" y="158.5"/><ellipse cx="2309.5" cy="174.5" fill="#ADD1B2" rx="11" ry="11" style="stroke:#181818;stroke-width:1;"/><path d="M2312.4688,180.1406 Q2311.8906,180.4375 2311.25,180.5781 Q2310.6094,180.7344 2309.9063,180.7344 Q2307.4063,180.7344 2306.0781,179.0938 Q2304.7656,177.4375 2304.7656,174.3125 Q2304.7656,171.1875 2306.0781,169.5313 Q2307.4063,167.875 2309.9063,167.875 Q2310.6094,167.875 2311.25,168.0313 Q2311.9063,168.1875 2312.4688,168.4844 L2312.4688,171.2031 Q2311.8438,170.625 2311.25,170.3594 Q2310.6563,170.0781 2310.0313,170.0781 Q2308.6875,170.0781 2308,171.1563 Q2307.3125,172.2188 2307.3125,174.3125 Q2307.3125,176.4063 2308,177.4844 Q2308.6875,178.5469 2310.0313,178.5469 Q2310.6563,178.5469 2311.25,178.2813 Q2311.8438,178 2312.4688,177.4219 L2312.4688,180.1406 Z " fill="#000000"/><text fill="#000000" font-family="sans-serif" font-size="14" lengthAdjust="spacing" textLength="234.4385" x="2323.5" y="179.3467">logic_arc_int__baselibs__executor</text><line style="stroke:#181818;stroke-width:0.5;" x1="2295.5" x2="2559.9385" y1="190.5" y2="190.5"/></g><!--class logic_arc_int__baselibs__condition_variable--><g id="elem_logic_arc_int__baselibs__condition_variable"><rect fill="#F1F1F1" height="40" id="logic_arc_int__baselibs__condition_variable" rx="2.5" ry="2.5" style="stroke:#181818;stroke-width:0.5;" width="332.7539" x="1610" y="158.5"/><ellipse cx="1625" cy="174.5" fill="#ADD1B2" rx="11" ry="11" style="stroke:#181818;stroke-width:1;"/><path d="M1627.9688,180.1406 Q1627.3906,180.4375 1626.75,180.5781 Q1626.1094,180.7344 1625.4063,180.7344 Q1622.9063,180.7344 1621.5781,179.0938 Q1620.2656,177.4375 1620.2656,174.3125 Q1620.2656,171.1875 1621.5781,169.5313 Q1622.9063,167.875 1625.4063,167.875 Q1626.1094,167.875 1626.75,168.0313 Q1627.4063,168.1875 1627.9688,168.4844 L1627.9688,171.2031 Q1627.3438,170.625 1626.75,170.3594 Q1626.1563,170.0781 1625.5313,170.0781 Q1624.1875,170.0781 1623.5,171.1563 Q1622.8125,172.2188 1622.8125,174.3125 Q1622.8125,176.4063 1623.5,177.4844 Q1624.1875,178.5469 1625.5313,178.5469 Q1626.1563,178.5469 1626.75,178.2813 Q1627.3438,178 1627.9688,177.4219 L1627.9688,180.1406 Z " fill="#000000"/><text fill="#000000" font-family="sans-serif" font-size="14" lengthAdjust="spacing" textLength="300.7539" x="1639" y="179.3467">logic_arc_int__baselibs__condition_variable</text><line style="stroke:#181818;stroke-width:0.5;" x1="1611" x2="1941.7539" y1="190.5" y2="190.5"/></g><!--class comp_arc_sta__baselibs__containers--><g id="elem_comp_arc_sta__baselibs__containers"><rect fill="#F1F1F1" height="40" id="comp_arc_sta__baselibs__containers" rx="2.5" ry="2.5" style="stroke:#181818;stroke-width:0.5;" width="287.1445" x="4334" y="275.5"/><ellipse cx="4349" cy="291.5" fill="#ADD1B2" rx="11" ry="11" style="stroke:#181818;stroke-width:1;"/><path d="M4351.9688,297.1406 Q4351.3906,297.4375 4350.75,297.5781 Q4350.1094,297.7344 4349.4063,297.7344 Q4346.9063,297.7344 4345.5781,296.0938 Q4344.2656,294.4375 4344.2656,291.3125 Q4344.2656,288.1875 4345.5781,286.5313 Q4346.9063,284.875 4349.4063,284.875 Q4350.1094,284.875 4350.75,285.0313 Q4351.4063,285.1875 4351.9688,285.4844 L4351.9688,288.2031 Q4351.3438,287.625 4350.75,287.3594 Q4350.1563,287.0781 4349.5313,287.0781 Q4348.1875,287.0781 4347.5,288.1563 Q4346.8125,289.2188 4346.8125,291.3125 Q4346.8125,293.4063 4347.5,294.4844 Q4348.1875,295.5469 4349.5313,295.5469 Q4350.1563,295.5469 4350.75,295.2813 Q4351.3438,295 4351.9688,294.4219 L4351.9688,297.1406 Z " fill="#000000"/><text fill="#000000" font-family="sans-serif" font-size="14" lengthAdjust="spacing" textLength="255.1445" x="4363" y="296.3467">comp_arc_sta__baselibs__containers</text><line style="stroke:#181818;stroke-width:0.5;" x1="4335" x2="4620.1445" y1="307.5" y2="307.5"/></g><!--class logic_arc_int__baselibs__intrusive_list--><g id="elem_logic_arc_int__baselibs__intrusive_list"><rect fill="#F1F1F1" height="40" id="logic_arc_int__baselibs__intrusive_list" rx="2.5" ry="2.5" style="stroke:#181818;stroke-width:0.5;" width="293.0713" x="4164" y="158.5"/><ellipse cx="4179" cy="174.5" fill="#ADD1B2" rx="11" ry="11" style="stroke:#181818;stroke-width:1;"/><path d="M4181.9688,180.1406 Q4181.3906,180.4375 4180.75,180.5781 Q4180.1094,180.7344 4179.4063,180.7344 Q4176.9063,180.7344 4175.5781,179.0938 Q4174.2656,177.4375 4174.2656,174.3125 Q4174.2656,171.1875 4175.5781,169.5313 Q4176.9063,167.875 4179.4063,167.875 Q4180.1094,167.875 4180.75,168.0313 Q4181.4063,168.1875 4181.9688,168.4844 L4181.9688,171.2031 Q4181.3438,170.625 4180.75,170.3594 Q4180.1563,170.0781 4179.5313,170.0781 Q4178.1875,170.0781 4177.5,171.1563 Q4176.8125,172.2188 4176.8125,174.3125 Q4176.8125,176.4063 4177.5,177.4844 Q4178.1875,178.5469 4179.5313,178.5469 Q4180.1563,178.5469 4180.75,178.2813 Q4181.3438,178 4181.9688,177.4219 L4181.9688,180.1406 Z " fill="#000000"/><text fill="#000000" font-family="sans-serif" font-size="14" lengthAdjust="spacing" textLength="261.0713" x="4193" y="179.3467">logic_arc_int__baselibs__intrusive_list</text><line style="stroke:#181818;stroke-width:0.5;" x1="4165" x2="4456.0713" y1="190.5" y2="190.5"/></g><!--class logic_arc_int__baselibs__utils_scoped_op--><g id="elem_logic_arc_int__baselibs__utils_scoped_op"><rect fill="#F1F1F1" height="40" id="logic_arc_int__baselibs__utils_scoped_op" rx="2.5" ry="2.5" style="stroke:#181818;stroke-width:0.5;" width="315.377" x="932" y="158.5"/><ellipse cx="947" cy="174.5" fill="#ADD1B2" rx="11" ry="11" style="stroke:#181818;stroke-width:1;"/><path d="M949.9688,180.1406 Q949.3906,180.4375 948.75,180.5781 Q948.1094,180.7344 947.4063,180.7344 Q944.9063,180.7344 943.5781,179.0938 Q942.2656,177.4375 942.2656,174.3125 Q942.2656,171.1875 943.5781,169.5313 Q944.9063,167.875 947.4063,167.875 Q948.1094,167.875 948.75,168.0313 Q949.4063,168.1875 949.9688,168.4844 L949.9688,171.2031 Q949.3438,170.625 948.75,170.3594 Q948.1563,170.0781 947.5313,170.0781 Q946.1875,170.0781 945.5,171.1563 Q944.8125,172.2188 944.8125,174.3125 Q944.8125,176.4063 945.5,177.4844 Q946.1875,178.5469 947.5313,178.5469 Q948.1563,178.5469 948.75,178.2813 Q949.3438,178 949.9688,177.4219 L949.9688,180.1406 Z " fill="#000000"/><text fill="#000000" font-family="sans-serif" font-size="14" lengthAdjust="spacing" textLength="283.377" x="961" y="179.3467">logic_arc_int__baselibs__utils_scoped_op</text><line style="stroke:#181818;stroke-width:0.5;" x1="933" x2="1246.377" y1="190.5" y2="190.5"/></g><!--class comp_arc_sta__baselibs__concurrency--><g id="elem_comp_arc_sta__baselibs__concurrency"><rect fill="#F1F1F1" height="40" id="comp_arc_sta__baselibs__concurrency" rx="2.5" ry="2.5" style="stroke:#181818;stroke-width:0.5;" width="300.2012" x="2663.5" y="275.5"/><ellipse cx="2678.5" cy="291.5" fill="#ADD1B2" rx="11" ry="11" style="stroke:#181818;stroke-width:1;"/><path d="M2681.4688,297.1406 Q2680.8906,297.4375 2680.25,297.5781 Q2679.6094,297.7344 2678.9063,297.7344 Q2676.4063,297.7344 2675.0781,296.0938 Q2673.7656,294.4375 2673.7656,291.3125 Q2673.7656,288.1875 2675.0781,286.5313 Q2676.4063,284.875 2678.9063,284.875 Q2679.6094,284.875 2680.25,285.0313 Q2680.9063,285.1875 2681.4688,285.4844 L2681.4688,288.2031 Q2680.8438,287.625 2680.25,287.3594 Q2679.6563,287.0781 2679.0313,287.0781 Q2677.6875,287.0781 2677,288.1563 Q2676.3125,289.2188 2676.3125,291.3125 Q2676.3125,293.4063 2677,294.4844 Q2677.6875,295.5469 2679.0313,295.5469 Q2679.6563,295.5469 2680.25,295.2813 Q2680.8438,295 2681.4688,294.4219 L2681.4688,297.1406 Z " fill="#000000"/><text fill="#000000" font-family="sans-serif" font-size="14" lengthAdjust="spacing" textLength="268.2012" x="2692.5" y="296.3467">comp_arc_sta__baselibs__concurrency</text><line style="stroke:#181818;stroke-width:0.5;" x1="2664.5" x2="2962.7012" y1="307.5" y2="307.5"/></g><!--class logic_arc_int__baselibs__shared_future--><g id="elem_logic_arc_int__baselibs__shared_future"><rect fill="#F1F1F1" height="40" id="logic_arc_int__baselibs__shared_future" rx="2.5" ry="2.5" style="stroke:#181818;stroke-width:0.5;" width="302.0811" x="3826.5" y="158.5"/><ellipse cx="3841.5" cy="174.5" fill="#ADD1B2" rx="11" ry="11" style="stroke:#181818;stroke-width:1;"/><path d="M3844.4688,180.1406 Q3843.8906,180.4375 3843.25,180.5781 Q3842.6094,180.7344 3841.9063,180.7344 Q3839.4063,180.7344 3838.0781,179.0938 Q3836.7656,177.4375 3836.7656,174.3125 Q3836.7656,171.1875 3838.0781,169.5313 Q3839.4063,167.875 3841.9063,167.875 Q3842.6094,167.875 3843.25,168.0313 Q3843.9063,168.1875 3844.4688,168.4844 L3844.4688,171.2031 Q3843.8438,170.625 3843.25,170.3594 Q3842.6563,170.0781 3842.0313,170.0781 Q3840.6875,170.0781 3840,171.1563 Q3839.3125,172.2188 3839.3125,174.3125 Q3839.3125,176.4063 3840,177.4844 Q3840.6875,178.5469 3842.0313,178.5469 Q3842.6563,178.5469 3843.25,178.2813 Q3843.8438,178 3844.4688,177.4219 L3844.4688,180.1406 Z " fill="#000000"/><text fill="#000000" font-family="sans-serif" font-size="14" lengthAdjust="spacing" textLength="270.0811" x="3855.5" y="179.3467">logic_arc_int__baselibs__shared_future</text><line style="stroke:#181818;stroke-width:0.5;" x1="3827.5" x2="4127.5811" y1="190.5" y2="190.5"/></g><!--class logic_arc_int__baselibs__bit_mask_operator--><g id="elem_logic_arc_int__baselibs__bit_mask_operator"><rect fill="#F1F1F1" height="40" id="logic_arc_int__baselibs__bit_mask_operator" rx="2.5" ry="2.5" style="stroke:#181818;stroke-width:0.5;" width="334.6406" x="5147" y="158.5"/><ellipse cx="5162" cy="174.5" fill="#ADD1B2" rx="11" ry="11" style="stroke:#181818;stroke-width:1;"/><path d="M5164.9688,180.1406 Q5164.3906,180.4375 5163.75,180.5781 Q5163.1094,180.7344 5162.4063,180.7344 Q5159.9063,180.7344 5158.5781,179.0938 Q5157.2656,177.4375 5157.2656,174.3125 Q5157.2656,171.1875 5158.5781,169.5313 Q5159.9063,167.875 5162.4063,167.875 Q5163.1094,167.875 5163.75,168.0313 Q5164.4063,168.1875 5164.9688,168.4844 L5164.9688,171.2031 Q5164.3438,170.625 5163.75,170.3594 Q5163.1563,170.0781 5162.5313,170.0781 Q5161.1875,170.0781 5160.5,171.1563 Q5159.8125,172.2188 5159.8125,174.3125 Q5159.8125,176.4063 5160.5,177.4844 Q5161.1875,178.5469 5162.5313,178.5469 Q5163.1563,178.5469 5163.75,178.2813 Q5164.3438,178 5164.9688,177.4219 L5164.9688,180.1406 Z " fill="#000000"/><text fill="#000000" font-family="sans-serif" font-size="14" lengthAdjust="spacing" textLength="302.6406" x="5176" y="179.3467">logic_arc_int__baselibs__bit_mask_operator</text><line style="stroke:#181818;stroke-width:0.5;" x1="5148" x2="5480.6406" y1="190.5" y2="190.5"/></g><!--class logic_arc_int__baselibs__promise--><g id="elem_logic_arc_int__baselibs__promise"><rect fill="#F1F1F1" height="40" id="logic_arc_int__baselibs__promise" rx="2.5" ry="2.5" style="stroke:#181818;stroke-width:0.5;" width="261.1885" x="2865" y="158.5"/><ellipse cx="2880" cy="174.5" fill="#ADD1B2" rx="11" ry="11" style="stroke:#181818;stroke-width:1;"/><path d="M2882.9688,180.1406 Q2882.3906,180.4375 2881.75,180.5781 Q2881.1094,180.7344 2880.4063,180.7344 Q2877.9063,180.7344 2876.5781,179.0938 Q2875.2656,177.4375 2875.2656,174.3125 Q2875.2656,171.1875 2876.5781,169.5313 Q2877.9063,167.875 2880.4063,167.875 Q2881.1094,167.875 2881.75,168.0313 Q2882.4063,168.1875 2882.9688,168.4844 L2882.9688,171.2031 Q2882.3438,170.625 2881.75,170.3594 Q2881.1563,170.0781 2880.5313,170.0781 Q2879.1875,170.0781 2878.5,171.1563 Q2877.8125,172.2188 2877.8125,174.3125 Q2877.8125,176.4063 2878.5,177.4844 Q2879.1875,178.5469 2880.5313,178.5469 Q2881.1563,178.5469 2881.75,178.2813 Q2882.3438,178 2882.9688,177.4219 L2882.9688,180.1406 Z " fill="#000000"/><text fill="#000000" font-family="sans-serif" font-size="14" lengthAdjust="spacing" textLength="229.1885" x="2894" y="179.3467">logic_arc_int__baselibs__promise</text><line style="stroke:#181818;stroke-width:0.5;" x1="2866" x2="3125.1885" y1="190.5" y2="190.5"/></g><!--class logic_arc_int__baselibs__synchronized_queue--><g id="elem_logic_arc_int__baselibs__synchronized_queue"><rect fill="#F1F1F1" height="40" id="logic_arc_int__baselibs__synchronized_queue" rx="2.5" ry="2.5" style="stroke:#181818;stroke-width:0.5;" width="348.3604" x="3443.5" y="158.5"/><ellipse cx="3458.5" cy="174.5" fill="#ADD1B2" rx="11" ry="11" style="stroke:#181818;stroke-width:1;"/><path d="M3461.4688,180.1406 Q3460.8906,180.4375 3460.25,180.5781 Q3459.6094,180.7344 3458.9063,180.7344 Q3456.4063,180.7344 3455.0781,179.0938 Q3453.7656,177.4375 3453.7656,174.3125 Q3453.7656,171.1875 3455.0781,169.5313 Q3456.4063,167.875 3458.9063,167.875 Q3459.6094,167.875 3460.25,168.0313 Q3460.9063,168.1875 3461.4688,168.4844 L3461.4688,171.2031 Q3460.8438,170.625 3460.25,170.3594 Q3459.6563,170.0781 3459.0313,170.0781 Q3457.6875,170.0781 3457,171.1563 Q3456.3125,172.2188 3456.3125,174.3125 Q3456.3125,176.4063 3457,177.4844 Q3457.6875,178.5469 3459.0313,178.5469 Q3459.6563,178.5469 3460.25,178.2813 Q3460.8438,178 3461.4688,177.4219 L3461.4688,180.1406 Z " fill="#000000"/><text fill="#000000" font-family="sans-serif" font-size="14" lengthAdjust="spacing" textLength="316.3604" x="3472.5" y="179.3467">logic_arc_int__baselibs__synchronized_queue</text><line style="stroke:#181818;stroke-width:0.5;" x1="3444.5" x2="3790.8604" y1="190.5" y2="190.5"/></g><!--class logic_arc_int__baselibs__future--><g id="elem_logic_arc_int__baselibs__future"><rect fill="#F1F1F1" height="40" id="logic_arc_int__baselibs__future" rx="2.5" ry="2.5" style="stroke:#181818;stroke-width:0.5;" width="247.0791" x="3161" y="158.5"/><ellipse cx="3176" cy="174.5" fill="#ADD1B2" rx="11" ry="11" style="stroke:#181818;stroke-width:1;"/><path d="M3178.9688,180.1406 Q3178.3906,180.4375 3177.75,180.5781 Q3177.1094,180.7344 3176.4063,180.7344 Q3173.9063,180.7344 3172.5781,179.0938 Q3171.2656,177.4375 3171.2656,174.3125 Q3171.2656,171.1875 3172.5781,169.5313 Q3173.9063,167.875 3176.4063,167.875 Q3177.1094,167.875 3177.75,168.0313 Q3178.4063,168.1875 3178.9688,168.4844 L3178.9688,171.2031 Q3178.3438,170.625 3177.75,170.3594 Q3177.1563,170.0781 3176.5313,170.0781 Q3175.1875,170.0781 3174.5,171.1563 Q3173.8125,172.2188 3173.8125,174.3125 Q3173.8125,176.4063 3174.5,177.4844 Q3175.1875,178.5469 3176.5313,178.5469 Q3177.1563,178.5469 3177.75,178.2813 Q3178.3438,178 3178.9688,177.4219 L3178.9688,180.1406 Z " fill="#000000"/><text fill="#000000" font-family="sans-serif" font-size="14" lengthAdjust="spacing" textLength="215.0791" x="3190" y="179.3467">logic_arc_int__baselibs__future</text><line style="stroke:#181818;stroke-width:0.5;" x1="3162" x2="3407.0791" y1="190.5" y2="190.5"/></g><!--class logic_arc_int__baselibs__result--><g id="elem_logic_arc_int__baselibs__result"><rect fill="#F1F1F1" height="40" id="logic_arc_int__baselibs__result" rx="2.5" ry="2.5" style="stroke:#181818;stroke-width:0.5;" width="244.4609" x="652.5" y="158.5"/><ellipse cx="667.5" cy="174.5" fill="#ADD1B2" rx="11" ry="11" style="stroke:#181818;stroke-width:1;"/><path d="M670.4688,180.1406 Q669.8906,180.4375 669.25,180.5781 Q668.6094,180.7344 667.9063,180.7344 Q665.4063,180.7344 664.0781,179.0938 Q662.7656,177.4375 662.7656,174.3125 Q662.7656,171.1875 664.0781,169.5313 Q665.4063,167.875 667.9063,167.875 Q668.6094,167.875 669.25,168.0313 Q669.9063,168.1875 670.4688,168.4844 L670.4688,171.2031 Q669.8438,170.625 669.25,170.3594 Q668.6563,170.0781 668.0313,170.0781 Q666.6875,170.0781 666,171.1563 Q665.3125,172.2188 665.3125,174.3125 Q665.3125,176.4063 666,177.4844 Q666.6875,178.5469 668.0313,178.5469 Q668.6563,178.5469 669.25,178.2813 Q669.8438,178 670.4688,177.4219 L670.4688,180.1406 Z " fill="#000000"/><text fill="#000000" font-family="sans-serif" font-size="14" lengthAdjust="spacing" textLength="212.4609" x="681.5" y="179.3467">logic_arc_int__baselibs__result</text><line style="stroke:#181818;stroke-width:0.5;" x1="653.5" x2="895.9609" y1="190.5" y2="190.5"/></g><!--class comp_arc_sta__baselibs__filesystem--><g id="elem_comp_arc_sta__baselibs__filesystem"><rect fill="#F1F1F1" height="40" id="comp_arc_sta__baselibs__filesystem" rx="2.5" ry="2.5" style="stroke:#181818;stroke-width:0.5;" width="285.4492" x="4831" y="275.5"/><ellipse cx="4846" cy="291.5" fill="#ADD1B2" rx="11" ry="11" style="stroke:#181818;stroke-width:1;"/><path d="M4848.9688,297.1406 Q4848.3906,297.4375 4847.75,297.5781 Q4847.1094,297.7344 4846.4063,297.7344 Q4843.9063,297.7344 4842.5781,296.0938 Q4841.2656,294.4375 4841.2656,291.3125 Q4841.2656,288.1875 4842.5781,286.5313 Q4843.9063,284.875 4846.4063,284.875 Q4847.1094,284.875 4847.75,285.0313 Q4848.4063,285.1875 4848.9688,285.4844 L4848.9688,288.2031 Q4848.3438,287.625 4847.75,287.3594 Q4847.1563,287.0781 4846.5313,287.0781 Q4845.1875,287.0781 4844.5,288.1563 Q4843.8125,289.2188 4843.8125,291.3125 Q4843.8125,293.4063 4844.5,294.4844 Q4845.1875,295.5469 4846.5313,295.5469 Q4847.1563,295.5469 4847.75,295.2813 Q4848.3438,295 4848.9688,294.4219 L4848.9688,297.1406 Z " fill="#000000"/><text fill="#000000" font-family="sans-serif" font-size="14" lengthAdjust="spacing" textLength="253.4492" x="4860" y="296.3467">comp_arc_sta__baselibs__filesystem</text><line style="stroke:#181818;stroke-width:0.5;" x1="4832" x2="5115.4492" y1="307.5" y2="307.5"/></g><!--class logic_arc_int__baselibs__filesystem--><g id="elem_logic_arc_int__baselibs__filesystem"><rect fill="#F1F1F1" height="40" id="logic_arc_int__baselibs__filesystem" rx="2.5" ry="2.5" style="stroke:#181818;stroke-width:0.5;" width="276.4805" x="4835.5" y="158.5"/><ellipse cx="4850.5" cy="174.5" fill="#ADD1B2" rx="11" ry="11" style="stroke:#181818;stroke-width:1;"/><path d="M4853.4688,180.1406 Q4852.8906,180.4375 4852.25,180.5781 Q4851.6094,180.7344 4850.9063,180.7344 Q4848.4063,180.7344 4847.0781,179.0938 Q4845.7656,177.4375 4845.7656,174.3125 Q4845.7656,171.1875 4847.0781,169.5313 Q4848.4063,167.875 4850.9063,167.875 Q4851.6094,167.875 4852.25,168.0313 Q4852.9063,168.1875 4853.4688,168.4844 L4853.4688,171.2031 Q4852.8438,170.625 4852.25,170.3594 Q4851.6563,170.0781 4851.0313,170.0781 Q4849.6875,170.0781 4849,171.1563 Q4848.3125,172.2188 4848.3125,174.3125 Q4848.3125,176.4063 4849,177.4844 Q4849.6875,178.5469 4851.0313,178.5469 Q4851.6563,178.5469 4852.25,178.2813 Q4852.8438,178 4853.4688,177.4219 L4853.4688,180.1406 Z " fill="#000000"/><text fill="#000000" font-family="sans-serif" font-size="14" lengthAdjust="spacing" textLength="244.4805" x="4864.5" y="179.3467">logic_arc_int__baselibs__filesystem</text><line style="stroke:#181818;stroke-width:0.5;" x1="4836.5" x2="5110.9805" y1="190.5" y2="190.5"/></g><!--class comp_arc_sta__baselibs__utils--><g id="elem_comp_arc_sta__baselibs__utils"><rect fill="#F1F1F1" height="40" id="comp_arc_sta__baselibs__utils" rx="2.5" ry="2.5" style="stroke:#181818;stroke-width:0.5;" width="242.9502" x="1110" y="275.5"/><ellipse cx="1125" cy="291.5" fill="#ADD1B2" rx="11" ry="11" style="stroke:#181818;stroke-width:1;"/><path d="M1127.9688,297.1406 Q1127.3906,297.4375 1126.75,297.5781 Q1126.1094,297.7344 1125.4063,297.7344 Q1122.9063,297.7344 1121.5781,296.0938 Q1120.2656,294.4375 1120.2656,291.3125 Q1120.2656,288.1875 1121.5781,286.5313 Q1122.9063,284.875 1125.4063,284.875 Q1126.1094,284.875 1126.75,285.0313 Q1127.4063,285.1875 1127.9688,285.4844 L1127.9688,288.2031 Q1127.3438,287.625 1126.75,287.3594 Q1126.1563,287.0781 1125.5313,287.0781 Q1124.1875,287.0781 1123.5,288.1563 Q1122.8125,289.2188 1122.8125,291.3125 Q1122.8125,293.4063 1123.5,294.4844 Q1124.1875,295.5469 1125.5313,295.5469 Q1126.1563,295.5469 1126.75,295.2813 Q1127.3438,295 1127.9688,294.4219 L1127.9688,297.1406 Z " fill="#000000"/><text fill="#000000" font-family="sans-serif" font-size="14" lengthAdjust="spacing" textLength="210.9502" x="1139" y="296.3467">comp_arc_sta__baselibs__utils</text><line style="stroke:#181818;stroke-width:0.5;" x1="1111" x2="1351.9502" y1="307.5" y2="307.5"/></g><!--class comp_arc_sta__baselibs__result--><g id="elem_comp_arc_sta__baselibs__result"><rect fill="#F1F1F1" height="40" id="comp_arc_sta__baselibs__result" rx="2.5" ry="2.5" style="stroke:#181818;stroke-width:0.5;" width="253.4297" x="657" y="275.5"/><ellipse cx="672" cy="291.5" fill="#ADD1B2" rx="11" ry="11" style="stroke:#181818;stroke-width:1;"/><path d="M674.9688,297.1406 Q674.3906,297.4375 673.75,297.5781 Q673.1094,297.7344 672.4063,297.7344 Q669.9063,297.7344 668.5781,296.0938 Q667.2656,294.4375 667.2656,291.3125 Q667.2656,288.1875 668.5781,286.5313 Q669.9063,284.875 672.4063,284.875 Q673.1094,284.875 673.75,285.0313 Q674.4063,285.1875 674.9688,285.4844 L674.9688,288.2031 Q674.3438,287.625 673.75,287.3594 Q673.1563,287.0781 672.5313,287.0781 Q671.1875,287.0781 670.5,288.1563 Q669.8125,289.2188 669.8125,291.3125 Q669.8125,293.4063 670.5,294.4844 Q671.1875,295.5469 672.5313,295.5469 Q673.1563,295.5469 673.75,295.2813 Q674.3438,295 674.9688,294.4219 L674.9688,297.1406 Z " fill="#000000"/><text fill="#000000" font-family="sans-serif" font-size="14" lengthAdjust="spacing" textLength="221.4297" x="686" y="296.3467">comp_arc_sta__baselibs__result</text><line style="stroke:#181818;stroke-width:0.5;" x1="658" x2="909.4297" y1="307.5" y2="307.5"/></g><!--class logic_arc_int__baselibs__dynamic_array--><g id="elem_logic_arc_int__baselibs__dynamic_array"><rect fill="#F1F1F1" height="40" id="logic_arc_int__baselibs__dynamic_array" rx="2.5" ry="2.5" style="stroke:#181818;stroke-width:0.5;" width="308.3496" x="4492.5" y="158.5"/><ellipse cx="4507.5" cy="174.5" fill="#ADD1B2" rx="11" ry="11" style="stroke:#181818;stroke-width:1;"/><path d="M4510.4688,180.1406 Q4509.8906,180.4375 4509.25,180.5781 Q4508.6094,180.7344 4507.9063,180.7344 Q4505.4063,180.7344 4504.0781,179.0938 Q4502.7656,177.4375 4502.7656,174.3125 Q4502.7656,171.1875 4504.0781,169.5313 Q4505.4063,167.875 4507.9063,167.875 Q4508.6094,167.875 4509.25,168.0313 Q4509.9063,168.1875 4510.4688,168.4844 L4510.4688,171.2031 Q4509.8438,170.625 4509.25,170.3594 Q4508.6563,170.0781 4508.0313,170.0781 Q4506.6875,170.0781 4506,171.1563 Q4505.3125,172.2188 4505.3125,174.3125 Q4505.3125,176.4063 4506,177.4844 Q4506.6875,178.5469 4508.0313,178.5469 Q4508.6563,178.5469 4509.25,178.2813 Q4509.8438,178 4510.4688,177.4219 L4510.4688,180.1406 Z " fill="#000000"/><text fill="#000000" font-family="sans-serif" font-size="14" lengthAdjust="spacing" textLength="276.3496" x="4521.5" y="179.3467">logic_arc_int__baselibs__dynamic_array</text><line style="stroke:#181818;stroke-width:0.5;" x1="4493.5" x2="4799.8496" y1="190.5" y2="190.5"/></g><!--class comp_arc_sta__baselibs__json--><g id="elem_comp_arc_sta__baselibs__json"><rect fill="#F1F1F1" height="40" id="comp_arc_sta__baselibs__json" rx="2.5" ry="2.5" style="stroke:#181818;stroke-width:0.5;" width="242.1367" x="379.5" y="275.5"/><ellipse cx="394.5" cy="291.5" fill="#ADD1B2" rx="11" ry="11" style="stroke:#181818;stroke-width:1;"/><path d="M397.4688,297.1406 Q396.8906,297.4375 396.25,297.5781 Q395.6094,297.7344 394.9063,297.7344 Q392.4063,297.7344 391.0781,296.0938 Q389.7656,294.4375 389.7656,291.3125 Q389.7656,288.1875 391.0781,286.5313 Q392.4063,284.875 394.9063,284.875 Q395.6094,284.875 396.25,285.0313 Q396.9063,285.1875 397.4688,285.4844 L397.4688,288.2031 Q396.8438,287.625 396.25,287.3594 Q395.6563,287.0781 395.0313,287.0781 Q393.6875,287.0781 393,288.1563 Q392.3125,289.2188 392.3125,291.3125 Q392.3125,293.4063 393,294.4844 Q393.6875,295.5469 395.0313,295.5469 Q395.6563,295.5469 396.25,295.2813 Q396.8438,295 397.4688,294.4219 L397.4688,297.1406 Z " fill="#000000"/><text fill="#000000" font-family="sans-serif" font-size="14" lengthAdjust="spacing" textLength="210.1367" x="408.5" y="296.3467">comp_arc_sta__baselibs__json</text><line style="stroke:#181818;stroke-width:0.5;" x1="380.5" x2="620.6367" y1="307.5" y2="307.5"/></g><!--class comp_arc_sta__baselibs__message_passing--><g id="elem_comp_arc_sta__baselibs__message_passing"><rect fill="#F1F1F1" height="40" id="comp_arc_sta__baselibs__message_passing" rx="2.5" ry="2.5" style="stroke:#181818;stroke-width:0.5;" width="337.1357" x="7" y="275.5"/><ellipse cx="22" cy="291.5" fill="#ADD1B2" rx="11" ry="11" style="stroke:#181818;stroke-width:1;"/><path d="M24.9688,297.1406 Q24.3906,297.4375 23.75,297.5781 Q23.1094,297.7344 22.4063,297.7344 Q19.9063,297.7344 18.5781,296.0938 Q17.2656,294.4375 17.2656,291.3125 Q17.2656,288.1875 18.5781,286.5313 Q19.9063,284.875 22.4063,284.875 Q23.1094,284.875 23.75,285.0313 Q24.4063,285.1875 24.9688,285.4844 L24.9688,288.2031 Q24.3438,287.625 23.75,287.3594 Q23.1563,287.0781 22.5313,287.0781 Q21.1875,287.0781 20.5,288.1563 Q19.8125,289.2188 19.8125,291.3125 Q19.8125,293.4063 20.5,294.4844 Q21.1875,295.5469 22.5313,295.5469 Q23.1563,295.5469 23.75,295.2813 Q24.3438,295 24.9688,294.4219 L24.9688,297.1406 Z " fill="#000000"/><text fill="#000000" font-family="sans-serif" font-size="14" lengthAdjust="spacing" textLength="305.1357" x="36" y="296.3467">comp_arc_sta__baselibs__message_passing</text><line style="stroke:#181818;stroke-width:0.5;" x1="8" x2="343.1357" y1="307.5" y2="307.5"/></g><!--link Feature_User to logic_arc_int__baselibs__message_passing--><g id="link_Feature_User_logic_arc_int__baselibs__message_passing"><path codeLine="15" d="M2950.2,45.14 C2729.37,48.45 1743.63,65.23 937.5,111.5 C732.86,123.25 503.7402,144.4529 350.5502,159.7729 " fill="transparent" id="Feature_User-to-logic_arc_int__baselibs__message_passing" style="stroke:#181818;stroke-width:1;"/><polygon fill="#181818" points="344.58,160.37,353.9334,163.4546,349.5552,159.8724,353.1373,155.4943,344.58,160.37" style="stroke:#181818;stroke-width:1;"/><text fill="#000000" font-family="sans-serif" font-size="13" lengthAdjust="spacing" textLength="23.0103" x="938.5" y="124.5669">use</text></g><!--reverse link logic_arc_int__baselibs__bit_manipulation to comp_arc_sta__baselibs__bit_manipulation--><g id="link_logic_arc_int__baselibs__bit_manipulation_comp_arc_sta__baselibs__bit_manipulation"><path codeLine="16" d="M5637.7456,201.6102 C5598.4856,222.9002 5540.9,254.14 5501.75,275.38 " fill="transparent" id="logic_arc_int__baselibs__bit_manipulation-backto-comp_arc_sta__baselibs__bit_manipulation" style="stroke:#181818;stroke-width:1;"/><polygon fill="#181818" points="5643.02,198.75,5633.2016,199.5241,5638.6247,201.1335,5637.0152,206.5566,5643.02,198.75" style="stroke:#181818;stroke-width:1;"/><text fill="#000000" font-family="sans-serif" font-size="13" lengthAdjust="spacing" textLength="76.9082" x="5586.5" y="241.5669">implements</text></g><!--link Feature_User to logic_arc_int__baselibs__utils_base64--><g id="link_Feature_User_logic_arc_int__baselibs__utils_base64"><path codeLine="17" d="M2950.33,47.6 C2775.43,59.75 2126.02,105.93 1592.5,158.5 C1586.65,159.08 1586.6574,159.0555 1580.6374,159.6855 " fill="transparent" id="Feature_User-to-logic_arc_int__baselibs__utils_base64" style="stroke:#181818;stroke-width:1;"/><polygon fill="#181818" points="1574.67,160.31,1584.0374,163.3515,1579.6428,159.7896,1583.2048,155.395,1574.67,160.31" style="stroke:#181818;stroke-width:1;"/><text fill="#000000" font-family="sans-serif" font-size="13" lengthAdjust="spacing" textLength="23.0103" x="2095.5" y="124.5669">use</text></g><!--link Feature_User to logic_arc_int__baselibs__task_result--><g id="link_Feature_User_logic_arc_int__baselibs__task_result"><path codeLine="18" d="M2950.2,51.37 C2820.24,71.08 2448.7822,127.4103 2250.1122,157.5403 " fill="transparent" id="Feature_User-to-logic_arc_int__baselibs__task_result" style="stroke:#181818;stroke-width:1;"/><polygon fill="#181818" points="2244.18,158.44,2253.678,161.0453,2249.1235,157.6903,2252.4785,153.1357,2244.18,158.44" style="stroke:#181818;stroke-width:1;"/><text fill="#000000" font-family="sans-serif" font-size="13" lengthAdjust="spacing" textLength="23.0103" x="2532.5" y="124.5669">use</text></g><!--link Feature_User to logic_arc_int__baselibs__json--><g id="link_Feature_User_logic_arc_int__baselibs__json"><path codeLine="19" d="M2950.34,45.65 C2751.53,50.86 1934.47,73.56 1264.5,111.5 C984.17,127.38 913.65,128.33 634.5,158.5 C628.78,159.12 628.876,159.0644 622.966,159.7844 " fill="transparent" id="Feature_User-to-logic_arc_int__baselibs__json" style="stroke:#181818;stroke-width:1;"/><polygon fill="#181818" points="617.01,160.51,626.4277,163.3922,621.9733,159.9053,625.4602,155.451,617.01,160.51" style="stroke:#181818;stroke-width:1;"/><text fill="#000000" font-family="sans-serif" font-size="13" lengthAdjust="spacing" textLength="23.0103" x="1265.5" y="124.5669">use</text></g><!--reverse link logic_arc_int__baselibs__memory_shared to comp_arc_sta__baselibs__memory_shared--><g id="link_logic_arc_int__baselibs__memory_shared_comp_arc_sta__baselibs__memory_shared"><path codeLine="20" d="M6033.5,204.75 C6033.5,225.98 6033.5,253.94 6033.5,275.19 " fill="transparent" id="logic_arc_int__baselibs__memory_shared-backto-comp_arc_sta__baselibs__memory_shared" style="stroke:#181818;stroke-width:1;"/><polygon fill="#181818" points="6033.5,198.75,6029.5,207.75,6033.5,203.75,6037.5,207.75,6033.5,198.75" style="stroke:#181818;stroke-width:1;"/><text fill="#000000" font-family="sans-serif" font-size="13" lengthAdjust="spacing" textLength="76.9082" x="6034.5" y="241.5669">implements</text></g><!--link Feature_User to logic_arc_int__baselibs__task--><g id="link_Feature_User_logic_arc_int__baselibs__task"><path codeLine="21" d="M2950.34,65.72 C2896.04,91.24 2811.1102,131.1579 2758.7902,155.7479 " fill="transparent" id="Feature_User-to-logic_arc_int__baselibs__task" style="stroke:#181818;stroke-width:1;"/><polygon fill="#181818" points="2753.36,158.3,2763.2067,158.0919,2757.8851,156.1732,2759.8038,150.8517,2753.36,158.3" style="stroke:#181818;stroke-width:1;"/><text fill="#000000" font-family="sans-serif" font-size="13" lengthAdjust="spacing" textLength="23.0103" x="2847.5" y="124.5669">use</text></g><!--link Feature_User to logic_arc_int__baselibs__executor--><g id="link_Feature_User_logic_arc_int__baselibs__executor"><path codeLine="22" d="M2950.46,55.05 C2854.81,77.44 2636.142,128.642 2514.732,157.072 " fill="transparent" id="Feature_User-to-logic_arc_int__baselibs__executor" style="stroke:#181818;stroke-width:1;"/><polygon fill="#181818" points="2508.89,158.44,2518.5649,160.2827,2513.7583,157.3,2516.741,152.4934,2508.89,158.44" style="stroke:#181818;stroke-width:1;"/><text fill="#000000" font-family="sans-serif" font-size="13" lengthAdjust="spacing" textLength="23.0103" x="2695.5" y="124.5669">use</text></g><!--link Feature_User to logic_arc_int__baselibs__condition_variable--><g id="link_Feature_User_logic_arc_int__baselibs__condition_variable"><path codeLine="23" d="M2950.3,49.43 C2787.65,67.18 2232.7046,127.7294 1949.2446,158.6494 " fill="transparent" id="Feature_User-to-logic_arc_int__baselibs__condition_variable" style="stroke:#181818;stroke-width:1;"/><polygon fill="#181818" points="1943.28,159.3,1952.6607,162.3005,1948.2505,158.7578,1951.7932,154.3477,1943.28,159.3" style="stroke:#181818;stroke-width:1;"/><text fill="#000000" font-family="sans-serif" font-size="13" lengthAdjust="spacing" textLength="23.0103" x="2350.5" y="124.5669">use</text></g><!--link Feature_User to logic_arc_int__baselibs__memory_shared--><g id="link_Feature_User_logic_arc_int__baselibs__memory_shared"><path codeLine="24" d="M3040.68,45.35 C3266.35,49.72 4293.95,70.99 5134.5,111.5 C5455.7,126.98 5536.12,130.89 5856.5,158.5 C5862.35,159 5862.335,158.9932 5868.345,159.5432 " fill="transparent" id="Feature_User-to-logic_arc_int__baselibs__memory_shared" style="stroke:#181818;stroke-width:1;"/><polygon fill="#181818" points="5874.32,160.09,5865.722,155.2864,5869.3408,159.6343,5864.9929,163.2532,5874.32,160.09" style="stroke:#181818;stroke-width:1;"/><text fill="#000000" font-family="sans-serif" font-size="13" lengthAdjust="spacing" textLength="23.0103" x="5461.5" y="124.5669">use</text></g><!--reverse link logic_arc_int__baselibs__intrusive_list to comp_arc_sta__baselibs__containers--><g id="link_logic_arc_int__baselibs__intrusive_list_comp_arc_sta__baselibs__containers"><path codeLine="25" d="M4343.3918,202.1527 C4374.3118,223.4427 4418.89,254.14 4449.74,275.38 " fill="transparent" id="logic_arc_int__baselibs__intrusive_list-backto-comp_arc_sta__baselibs__containers" style="stroke:#181818;stroke-width:1;"/><polygon fill="#181818" points="4338.45,198.75,4343.5943,207.1486,4342.5682,201.5856,4348.1312,200.5595,4338.45,198.75" style="stroke:#181818;stroke-width:1;"/><text fill="#000000" font-family="sans-serif" font-size="13" lengthAdjust="spacing" textLength="76.9082" x="4405.5" y="241.5669">implements</text></g><!--link Feature_User to logic_arc_int__baselibs__utils_scoped_op--><g id="link_Feature_User_logic_arc_int__baselibs__utils_scoped_op"><path codeLine="26" d="M2950.3,46.65 C2751.35,56.28 1933.73,97.69 1264.5,158.5 C1258.87,159.01 1259.1131,158.9826 1253.3231,159.5326 " fill="transparent" id="Feature_User-to-logic_arc_int__baselibs__utils_scoped_op" style="stroke:#181818;stroke-width:1;"/><polygon fill="#181818" points="1247.35,160.1,1256.6879,163.231,1252.3276,159.6272,1255.9314,155.2668,1247.35,160.1" style="stroke:#181818;stroke-width:1;"/><text fill="#000000" font-family="sans-serif" font-size="13" lengthAdjust="spacing" textLength="23.0103" x="1836.5" y="124.5669">use</text></g><!--reverse link logic_arc_int__baselibs__shared_future to comp_arc_sta__baselibs__concurrency--><g id="link_logic_arc_int__baselibs__shared_future_comp_arc_sta__baselibs__concurrency"><path codeLine="27" d="M3820.4365,197.2004 C3814.3865,197.8704 3814.37,197.86 3808.5,198.5 C3610.35,220.08 3560.88,226.2 3362.5,245.5 C3227.61,258.63 3073.95,272.23 2963.56,281.76 " fill="transparent" id="logic_arc_int__baselibs__shared_future-backto-comp_arc_sta__baselibs__concurrency" style="stroke:#181818;stroke-width:1;"/><polygon fill="#181818" points="3826.4,196.54,3817.0144,193.5549,3821.4304,197.0904,3817.895,201.5063,3826.4,196.54" style="stroke:#181818;stroke-width:1;"/><text fill="#000000" font-family="sans-serif" font-size="13" lengthAdjust="spacing" textLength="76.9082" x="3526.5" y="241.5669">implements</text></g><!--link Feature_User to logic_arc_int__baselibs__bit_mask_operator--><g id="link_Feature_User_logic_arc_int__baselibs__bit_mask_operator"><path codeLine="28" d="M3040.52,46 C3223.01,52.18 3925.41,77.02 4502.5,111.5 C4781.01,128.14 4850.58,133.88 5128.5,158.5 C5134.48,159.03 5134.5956,159.0263 5140.7456,159.5963 " fill="transparent" id="Feature_User-to-logic_arc_int__baselibs__bit_mask_operator" style="stroke:#181818;stroke-width:1;"/><polygon fill="#181818" points="5146.72,160.15,5138.1276,155.3365,5141.7413,159.6886,5137.3893,163.3023,5146.72,160.15" style="stroke:#181818;stroke-width:1;"/><text fill="#000000" font-family="sans-serif" font-size="13" lengthAdjust="spacing" textLength="23.0103" x="4764.5" y="124.5669">use</text></g><!--link Feature_User to logic_arc_int__baselibs__promise--><g id="link_Feature_User_logic_arc_int__baselibs__promise"><path codeLine="29" d="M2995.5,81.55 C2995.5,106.45 2995.5,132.26 2995.5,152.26 " fill="transparent" id="Feature_User-to-logic_arc_int__baselibs__promise" style="stroke:#181818;stroke-width:1;"/><polygon fill="#181818" points="2995.5,158.26,2999.5,149.26,2995.5,153.26,2991.5,149.26,2995.5,158.26" style="stroke:#181818;stroke-width:1;"/><text fill="#000000" font-family="sans-serif" font-size="13" lengthAdjust="spacing" textLength="23.0103" x="2996.5" y="124.5669">use</text></g><!--link Feature_User to logic_arc_int__baselibs__shared_future--><g id="link_Feature_User_logic_arc_int__baselibs__shared_future"><path codeLine="30" d="M3040.57,50.6 C3180.52,69.56 3605.7543,127.1547 3831.0943,157.6747 " fill="transparent" id="Feature_User-to-logic_arc_int__baselibs__shared_future" style="stroke:#181818;stroke-width:1;"/><polygon fill="#181818" points="3837.04,158.48,3828.6583,153.3083,3832.0852,157.8089,3827.5846,161.2359,3837.04,158.48" style="stroke:#181818;stroke-width:1;"/><text fill="#000000" font-family="sans-serif" font-size="13" lengthAdjust="spacing" textLength="23.0103" x="3604.5" y="124.5669">use</text></g><!--reverse link logic_arc_int__baselibs__synchronized_queue to comp_arc_sta__baselibs__concurrency--><g id="link_logic_arc_int__baselibs__synchronized_queue_comp_arc_sta__baselibs__concurrency"><path codeLine="31" d="M3481.9432,199.3983 C3391.1432,212.6783 3272.9,229.89 3163.5,245.5 C3093.34,255.51 3015.25,266.46 2950.66,275.47 " fill="transparent" id="logic_arc_int__baselibs__synchronized_queue-backto-comp_arc_sta__baselibs__concurrency" style="stroke:#181818;stroke-width:1;"/><polygon fill="#181818" points="3487.88,198.53,3478.3959,195.8746,3482.9326,199.2536,3479.5536,203.7903,3487.88,198.53" style="stroke:#181818;stroke-width:1;"/><text fill="#000000" font-family="sans-serif" font-size="13" lengthAdjust="spacing" textLength="76.9082" x="3277.5" y="241.5669">implements</text></g><!--reverse link logic_arc_int__baselibs__future to comp_arc_sta__baselibs__concurrency--><g id="link_logic_arc_int__baselibs__future_comp_arc_sta__baselibs__concurrency"><path codeLine="32" d="M3200.6312,199.9733 C3113.4412,221.2633 2978.94,254.11 2891.69,275.41 " fill="transparent" id="logic_arc_int__baselibs__future-backto-comp_arc_sta__baselibs__concurrency" style="stroke:#181818;stroke-width:1;"/><polygon fill="#181818" points="3206.46,198.55,3196.768,196.7991,3201.6027,199.7361,3198.6657,204.5707,3206.46,198.55" style="stroke:#181818;stroke-width:1;"/><text fill="#000000" font-family="sans-serif" font-size="13" lengthAdjust="spacing" textLength="76.9082" x="3078.5" y="241.5669">implements</text></g><!--link Feature_User to logic_arc_int__baselibs__result--><g id="link_Feature_User_logic_arc_int__baselibs__result"><path codeLine="33" d="M2950.35,46.37 C2776.95,53.62 2137.12,80.98 1610.5,111.5 C1300.98,129.44 1222.95,127.19 914.5,158.5 C908.64,159.09 908.6112,159.059 902.5712,159.749 " fill="transparent" id="Feature_User-to-logic_arc_int__baselibs__result" style="stroke:#181818;stroke-width:1;"/><polygon fill="#181818" points="896.61,160.43,906.0058,163.3827,901.5777,159.8625,905.0978,155.4343,896.61,160.43" style="stroke:#181818;stroke-width:1;"/><text fill="#000000" font-family="sans-serif" font-size="13" lengthAdjust="spacing" textLength="23.0103" x="1611.5" y="124.5669">use</text></g><!--link Feature_User to logic_arc_int__baselibs__bit_manipulation--><g id="link_Feature_User_logic_arc_int__baselibs__bit_manipulation"><path codeLine="34" d="M3040.76,45.69 C3244.53,51.15 4097.35,75.13 4796.5,111.5 C5109.22,127.77 5187.52,131.52 5499.5,158.5 C5505.26,159 5505.1457,158.965 5511.0657,159.515 " fill="transparent" id="Feature_User-to-logic_arc_int__baselibs__bit_manipulation" style="stroke:#181818;stroke-width:1;"/><polygon fill="#181818" points="5517.04,160.07,5508.4486,155.2546,5512.0614,159.6075,5507.7086,163.2203,5517.04,160.07" style="stroke:#181818;stroke-width:1;"/><text fill="#000000" font-family="sans-serif" font-size="13" lengthAdjust="spacing" textLength="23.0103" x="5102.5" y="124.5669">use</text></g><!--reverse link logic_arc_int__baselibs__filesystem to comp_arc_sta__baselibs__filesystem--><g id="link_logic_arc_int__baselibs__filesystem_comp_arc_sta__baselibs__filesystem"><path codeLine="35" d="M4973.5,204.75 C4973.5,225.98 4973.5,253.94 4973.5,275.19 " fill="transparent" id="logic_arc_int__baselibs__filesystem-backto-comp_arc_sta__baselibs__filesystem" style="stroke:#181818;stroke-width:1;"/><polygon fill="#181818" points="4973.5,198.75,4969.5,207.75,4973.5,203.75,4977.5,207.75,4973.5,198.75" style="stroke:#181818;stroke-width:1;"/><text fill="#000000" font-family="sans-serif" font-size="13" lengthAdjust="spacing" textLength="76.9082" x="4974.5" y="241.5669">implements</text></g><!--link Feature_User to logic_arc_int__baselibs__future--><g id="link_Feature_User_logic_arc_int__baselibs__future"><path codeLine="36" d="M3040.66,65.28 C3096.06,90.78 3183.7792,131.1523 3237.4892,155.8623 " fill="transparent" id="Feature_User-to-logic_arc_int__baselibs__future" style="stroke:#181818;stroke-width:1;"/><polygon fill="#181818" points="3242.94,158.37,3236.4356,150.9745,3238.3977,156.2802,3233.092,158.2423,3242.94,158.37" style="stroke:#181818;stroke-width:1;"/><text fill="#000000" font-family="sans-serif" font-size="13" lengthAdjust="spacing" textLength="23.0103" x="3175.5" y="124.5669">use</text></g><!--reverse link logic_arc_int__baselibs__utils_base64 to comp_arc_sta__baselibs__utils--><g id="link_logic_arc_int__baselibs__utils_base64_comp_arc_sta__baselibs__utils"><path codeLine="37" d="M1390.3479,201.7743 C1353.8679,223.0643 1300.64,254.14 1264.25,275.38 " fill="transparent" id="logic_arc_int__baselibs__utils_base64-backto-comp_arc_sta__baselibs__utils" style="stroke:#181818;stroke-width:1;"/><polygon fill="#181818" points="1395.53,198.75,1385.7407,199.8317,1391.2116,201.2702,1389.7731,206.7411,1395.53,198.75" style="stroke:#181818;stroke-width:1;"/><text fill="#000000" font-family="sans-serif" font-size="13" lengthAdjust="spacing" textLength="76.9082" x="1343.5" y="241.5669">implements</text></g><!--reverse link logic_arc_int__baselibs__bit_mask_operator to comp_arc_sta__baselibs__bit_manipulation--><g id="link_logic_arc_int__baselibs__bit_mask_operator_comp_arc_sta__baselibs__bit_manipulation"><path codeLine="38" d="M5344.7249,202.3701 C5372.8649,223.6601 5413.15,254.14 5441.23,275.38 " fill="transparent" id="logic_arc_int__baselibs__bit_mask_operator-backto-comp_arc_sta__baselibs__bit_manipulation" style="stroke:#181818;stroke-width:1;"/><polygon fill="#181818" points="5339.94,198.75,5344.7039,207.3701,5343.9274,201.7668,5349.5307,200.9902,5339.94,198.75" style="stroke:#181818;stroke-width:1;"/><text fill="#000000" font-family="sans-serif" font-size="13" lengthAdjust="spacing" textLength="76.9082" x="5401.5" y="241.5669">implements</text></g><!--link Feature_User to logic_arc_int__baselibs__filesystem--><g id="link_Feature_User_logic_arc_int__baselibs__filesystem"><path codeLine="39" d="M3040.66,46.23 C3245.85,54.31 4110.79,90.87 4817.5,158.5 C4823.34,159.06 4823.3326,159.0355 4829.3526,159.6655 " fill="transparent" id="Feature_User-to-logic_arc_int__baselibs__filesystem" style="stroke:#181818;stroke-width:1;"/><polygon fill="#181818" points="4835.32,160.29,4826.7852,155.375,4830.3472,159.7696,4825.9526,163.3315,4835.32,160.29" style="stroke:#181818;stroke-width:1;"/><text fill="#000000" font-family="sans-serif" font-size="13" lengthAdjust="spacing" textLength="23.0103" x="4470.5" y="124.5669">use</text></g><!--reverse link logic_arc_int__baselibs__executor to comp_arc_sta__baselibs__concurrency--><g id="link_logic_arc_int__baselibs__executor_comp_arc_sta__baselibs__concurrency"><path codeLine="40" d="M2497.4203,200.333 C2568.9203,221.633 2678.07,254.15 2749.49,275.43 " fill="transparent" id="logic_arc_int__baselibs__executor-backto-comp_arc_sta__baselibs__concurrency" style="stroke:#181818;stroke-width:1;"/><polygon fill="#181818" points="2491.67,198.62,2499.1534,205.023,2496.4619,200.0475,2501.4374,197.356,2491.67,198.62" style="stroke:#181818;stroke-width:1;"/><text fill="#000000" font-family="sans-serif" font-size="13" lengthAdjust="spacing" textLength="76.9082" x="2645.5" y="241.5669">implements</text></g><!--reverse link logic_arc_int__baselibs__task_result to comp_arc_sta__baselibs__concurrency--><g id="link_logic_arc_int__baselibs__task_result_comp_arc_sta__baselibs__concurrency"><path codeLine="41" d="M2236.6162,199.5096 C2315.2162,212.7896 2416.79,229.86 2511.5,245.5 C2572.03,255.49 2639.41,266.44 2695.15,275.45 " fill="transparent" id="logic_arc_int__baselibs__task_result-backto-comp_arc_sta__baselibs__concurrency" style="stroke:#181818;stroke-width:1;"/><polygon fill="#181818" points="2230.7,198.51,2238.9078,203.9535,2235.6301,199.343,2240.2406,196.0653,2230.7,198.51" style="stroke:#181818;stroke-width:1;"/><text fill="#000000" font-family="sans-serif" font-size="13" lengthAdjust="spacing" textLength="76.9082" x="2512.5" y="241.5669">implements</text></g><!--reverse link logic_arc_int__baselibs__condition_variable to comp_arc_sta__baselibs__concurrency--><g id="link_logic_arc_int__baselibs__condition_variable_comp_arc_sta__baselibs__concurrency"><path codeLine="42" d="M1935.2552,199.2618 C2046.0152,212.8718 2193.47,230.61 2328.5,245.5 C2440.7,257.87 2567.63,270.65 2663.49,280.06 " fill="transparent" id="logic_arc_int__baselibs__condition_variable-backto-comp_arc_sta__baselibs__concurrency" style="stroke:#181818;stroke-width:1;"/><polygon fill="#181818" points="1929.3,198.53,1937.745,203.5978,1934.2627,199.1398,1938.7207,195.6575,1929.3,198.53" style="stroke:#181818;stroke-width:1;"/><text fill="#000000" font-family="sans-serif" font-size="13" lengthAdjust="spacing" textLength="76.9082" x="2329.5" y="241.5669">implements</text></g><!--reverse link logic_arc_int__baselibs__result to comp_arc_sta__baselibs__result--><g id="link_logic_arc_int__baselibs__result_comp_arc_sta__baselibs__result"><path codeLine="43" d="M776.4777,204.7317 C778.1377,225.9617 780.33,253.94 781.99,275.19 " fill="transparent" id="logic_arc_int__baselibs__result-backto-comp_arc_sta__baselibs__result" style="stroke:#181818;stroke-width:1;"/><polygon fill="#181818" points="776.01,198.75,772.7238,208.0344,776.3998,203.7348,780.6994,207.4108,776.01,198.75" style="stroke:#181818;stroke-width:1;"/><text fill="#000000" font-family="sans-serif" font-size="13" lengthAdjust="spacing" textLength="76.9082" x="781.5" y="241.5669">implements</text></g><!--reverse link logic_arc_int__baselibs__dynamic_array to comp_arc_sta__baselibs__containers--><g id="link_logic_arc_int__baselibs__dynamic_array_comp_arc_sta__baselibs__containers"><path codeLine="44" d="M4613.2494,202.1252 C4581.9594,223.4152 4536.81,254.14 4505.6,275.38 " fill="transparent" id="logic_arc_int__baselibs__dynamic_array-backto-comp_arc_sta__baselibs__containers" style="stroke:#181818;stroke-width:1;"/><polygon fill="#181818" points="4618.21,198.75,4608.5189,200.5058,4614.0762,201.5627,4613.0192,207.1199,4618.21,198.75" style="stroke:#181818;stroke-width:1;"/><text fill="#000000" font-family="sans-serif" font-size="13" lengthAdjust="spacing" textLength="76.9082" x="4573.5" y="241.5669">implements</text></g><!--reverse link logic_arc_int__baselibs__task to comp_arc_sta__baselibs__concurrency--><g id="link_logic_arc_int__baselibs__task_comp_arc_sta__baselibs__concurrency"><path codeLine="45" d="M2733.3687,203.2587 C2752.0087,224.4887 2777.87,253.94 2796.54,275.19 " fill="transparent" id="logic_arc_int__baselibs__task-backto-comp_arc_sta__baselibs__concurrency" style="stroke:#181818;stroke-width:1;"/><polygon fill="#181818" points="2729.41,198.75,2732.3422,208.1522,2732.7089,202.5073,2738.3539,202.874,2729.41,198.75" style="stroke:#181818;stroke-width:1;"/><text fill="#000000" font-family="sans-serif" font-size="13" lengthAdjust="spacing" textLength="76.9082" x="2770.5" y="241.5669">implements</text></g><!--reverse link logic_arc_int__baselibs__utils_scoped_op to comp_arc_sta__baselibs__utils--><g id="link_logic_arc_int__baselibs__utils_scoped_op_comp_arc_sta__baselibs__utils"><path codeLine="46" d="M1117.9324,202.5265 C1144.1424,223.7565 1181.41,253.94 1207.65,275.19 " fill="transparent" id="logic_arc_int__baselibs__utils_scoped_op-backto-comp_arc_sta__baselibs__utils" style="stroke:#181818;stroke-width:1;"/><polygon fill="#181818" points="1113.27,198.75,1117.7459,207.523,1117.1553,201.8971,1122.7813,201.3065,1113.27,198.75" style="stroke:#181818;stroke-width:1;"/><text fill="#000000" font-family="sans-serif" font-size="13" lengthAdjust="spacing" textLength="76.9082" x="1170.5" y="241.5669">implements</text></g><!--link Feature_User to logic_arc_int__baselibs__synchronized_queue--><g id="link_Feature_User_logic_arc_int__baselibs__synchronized_queue"><path codeLine="47" d="M3040.73,54.17 C3143.05,76.05 3387.9526,128.4154 3522.6426,157.2154 " fill="transparent" id="Feature_User-to-logic_arc_int__baselibs__synchronized_queue" style="stroke:#181818;stroke-width:1;"/><polygon fill="#181818" points="3528.51,158.47,3520.5453,152.6765,3523.6205,157.4245,3518.8726,160.4997,3528.51,158.47" style="stroke:#181818;stroke-width:1;"/><text fill="#000000" font-family="sans-serif" font-size="13" lengthAdjust="spacing" textLength="23.0103" x="3382.5" y="124.5669">use</text></g><!--link Feature_User to logic_arc_int__baselibs__intrusive_list--><g id="link_Feature_User_logic_arc_int__baselibs__intrusive_list"><path codeLine="48" d="M3040.73,48.72 C3195.17,63.2 3715.85,112.47 4145.5,158.5 C4151.52,159.15 4151.6957,159.1569 4157.9057,159.8369 " fill="transparent" id="Feature_User-to-logic_arc_int__baselibs__intrusive_list" style="stroke:#181818;stroke-width:1;"/><polygon fill="#181818" points="4163.87,160.49,4155.3589,155.5341,4158.8997,159.9457,4154.4881,163.4866,4163.87,160.49" style="stroke:#181818;stroke-width:1;"/><text fill="#000000" font-family="sans-serif" font-size="13" lengthAdjust="spacing" textLength="23.0103" x="3831.5" y="124.5669">use</text></g><!--link Feature_User to logic_arc_int__baselibs__dynamic_array--><g id="link_Feature_User_logic_arc_int__baselibs__dynamic_array"><path codeLine="49" d="M3040.63,47.43 C3221.23,59.28 3909.44,105.53 4474.5,158.5 C4480.33,159.05 4480.2987,159.0338 4486.3087,159.6238 " fill="transparent" id="Feature_User-to-logic_arc_int__baselibs__dynamic_array" style="stroke:#181818;stroke-width:1;"/><polygon fill="#181818" points="4492.28,160.21,4483.7139,155.3498,4487.3039,159.7215,4482.9323,163.3116,4492.28,160.21" style="stroke:#181818;stroke-width:1;"/><text fill="#000000" font-family="sans-serif" font-size="13" lengthAdjust="spacing" textLength="23.0103" x="4111.5" y="124.5669">use</text></g><!--reverse link logic_arc_int__baselibs__json to comp_arc_sta__baselibs__json--><g id="link_logic_arc_int__baselibs__json_comp_arc_sta__baselibs__json"><path codeLine="50" d="M500.5,204.75 C500.5,225.98 500.5,253.94 500.5,275.19 " fill="transparent" id="logic_arc_int__baselibs__json-backto-comp_arc_sta__baselibs__json" style="stroke:#181818;stroke-width:1;"/><polygon fill="#181818" points="500.5,198.75,496.5,207.75,500.5,203.75,504.5,207.75,500.5,198.75" style="stroke:#181818;stroke-width:1;"/><text fill="#000000" font-family="sans-serif" font-size="13" lengthAdjust="spacing" textLength="76.9082" x="501.5" y="241.5669">implements</text></g><!--reverse link logic_arc_int__baselibs__promise to comp_arc_sta__baselibs__concurrency--><g id="link_logic_arc_int__baselibs__promise_comp_arc_sta__baselibs__concurrency"><path codeLine="51" d="M2959.9675,201.9546 C2926.2675,223.2446 2877.37,254.14 2843.76,275.38 " fill="transparent" id="logic_arc_int__baselibs__promise-backto-comp_arc_sta__baselibs__concurrency" style="stroke:#181818;stroke-width:1;"/><polygon fill="#181818" points="2965.04,198.75,2955.2948,200.1752,2960.8129,201.4205,2959.5676,206.9386,2965.04,198.75" style="stroke:#181818;stroke-width:1;"/><text fill="#000000" font-family="sans-serif" font-size="13" lengthAdjust="spacing" textLength="76.9082" x="2916.5" y="241.5669">implements</text></g><!--reverse link logic_arc_int__baselibs__message_passing to comp_arc_sta__baselibs__message_passing--><g id="link_logic_arc_int__baselibs__message_passing_comp_arc_sta__baselibs__message_passing"><path codeLine="52" d="M179.4002,204.7444 C178.4802,225.9744 177.26,253.94 176.34,275.19 " fill="transparent" id="logic_arc_int__baselibs__message_passing-backto-comp_arc_sta__baselibs__message_passing" style="stroke:#181818;stroke-width:1;"/><polygon fill="#181818" points="179.66,198.75,175.2741,207.5684,179.4435,203.7453,183.2666,207.9147,179.66,198.75" style="stroke:#181818;stroke-width:1;"/><text fill="#000000" font-family="sans-serif" font-size="13" lengthAdjust="spacing" textLength="76.9082" x="179.5" y="241.5669">implements</text></g><!--SRC=[jLPBRzGm4BxxLrYzRq48SQYgNf0uSQHdQ-9CTuVwaNh6fG7ntt5sLsKJgirZmz79FBxvvWdEnH_6qmk5hPBOQ8cwYYBHwveIMg4Or8vgr2oOC4hRuE6Dlf5MWqYYAWkokcLf7TwfQs1obVwblbB0pz75f1FM-zUt7Td7WCpwm_LxzLlTlZlgAB1IvAw-84XEgEyPqvK6riSFflkWbUezD_NcJhku9MiWMKD1ZAc0qL75nlZY1hPe6c0kmTtepAYLZRxPIxF0gNH5OZm4QhA3BcQzoUUC3yLlDFd6eSSWhEUWp4AEz-zF7uyGPsWByAD9oDd9VENltE4-ouf77rDhU0SbWoEKz6GNyz55D3yKV46RIm7DrxGnrDHbq3n38gWSphSnYFmieyMVGEc4n2DqbcVAJCze7B5SM5ziOuErYSquEfjJmc3R4NY7OCr3xe0iHdTeerB31Lw2HGbiKlJ42x8sY60jNjfWToa6-bbiFsNC0t8kzt0XvKkdnRyJxonZ3-IGsx8p_5WuhuABGvgKmdqZZ63f3-CfQLkqDdhrlZJc4zfMAjs_GtJTWkqjgNLDlpMzftWue1anFXFojB5Ujm7y_bU2zdymFStcz6uuMHqBI_MjaJXt-WotuLpz0UrdEwQxYqQeEPnEwoRlTP5DCJiuRaTFiy4fVEhY3m00]--></g></svg>