<svg xmlns="http://www.w3.org/2000/svg" xmlns:xlink="http://www.w3.org/1999/xlink" contentStyleType="text/css" data-diagram-type="CLASS" height="322px" preserveAspectRatio="none" style="width:6209px;height:322px;background:#FFFFFF;" version="1.1" viewBox="0 0 6209 322" width="6209px" zoomAndPan="magnify"><defs/><g><!--entity Feature_User--><g id="elem_Feature_User"><ellipse cx="3057.6685" cy="14" fill="#F1F1F1" rx="8" ry="8" style="stroke:#181818;stroke-width:0.5;"/><path d="M3057.6685,22 L3057.6685,49 M3044.6685,30 L3070.6685,30 M3057.6685,49 L3044.6685,64 M3057.6685,49 L3070.6685,64 " fill="transparent" style="stroke:#181818;stroke-width:0.5;"/><text fill="#000000" font-family="sans-serif" font-size="14" lengthAdjust="spacing" textLength="90.3369" x="3012.5" y="78.4951">Feature User</text></g><!--class logic_arc_int__baselibs__result--><g id="elem_logic_arc_int__baselibs__result"><rect fill="#F1F1F1" height="40" id="logic_arc_int__baselibs__result" rx="2.5" ry="2.5" style="stroke:#181818;stroke-width:0.5;" width="244.4609" x="958.5" y="158.5"/><ellipse cx="973.5" cy="174.5" fill="#ADD1B2" rx="11" ry="11" style="stroke:#181818;stroke-width:1;"/><path d="M976.4688,180.1406 Q975.8906,180.4375 975.25,180.5781 Q974.6094,180.7344 973.9063,180.7344 Q971.4063,180.7344 970.0781,179.0938 Q968.7656,177.4375 968.7656,174.3125 Q968.7656,171.1875 970.0781,169.5313 Q971.4063,167.875 973.9063,167.875 Q974.6094,167.875 975.25,168.0313 Q975.9063,168.1875 976.4688,168.4844 L976.4688,171.2031 Q975.8438,170.625 975.25,170.3594 Q974.6563,170.0781 974.0313,170.0781 Q972.6875,170.0781 972,171.1563 Q971.3125,172.2188 971.3125,174.3125 Q971.3125,176.4063 972,177.4844 Q972.6875,178.5469 974.0313,178.5469 Q974.6563,178.5469 975.25,178.2813 Q975.8438,178 976.4688,177.4219 L976.4688,180.1406 Z " fill="#000000"/><text fill="#000000" font-family="sans-serif" font-size="14" lengthAdjust="spacing" textLength="212.4609" x="987.5" y="179.3467">logic_arc_int__baselibs__result</text><line style="stroke:#181818;stroke-width:0.5;" x1="959.5" x2="1201.9609" y1="190.5" y2="190.5"/></g><!--class logic_arc_int__baselibs__condition_variable--><g id="elem_logic_arc_int__baselibs__condition_variable"><rect fill="#F1F1F1" height="40" id="logic_arc_int__baselibs__condition_variable" rx="2.5" ry="2.5" style="stroke:#181818;stroke-width:0.5;" width="332.7539" x="4151" y="158.5"/><ellipse cx="4166" cy="174.5" fill="#ADD1B2" rx="11" ry="11" style="stroke:#181818;stroke-width:1;"/><path d="M4168.9688,180.1406 Q4168.3906,180.4375 4167.75,180.5781 Q4167.1094,180.7344 4166.4063,180.7344 Q4163.9063,180.7344 4162.5781,179.0938 Q4161.2656,177.4375 4161.2656,174.3125 Q4161.2656,171.1875 4162.5781,169.5313 Q4163.9063,167.875 4166.4063,167.875 Q4167.1094,167.875 4167.75,168.0313 Q4168.4063,168.1875 4168.9688,168.4844 L4168.9688,171.2031 Q4168.3438,170.625 4167.75,170.3594 Q4167.1563,170.0781 4166.5313,170.0781 Q4165.1875,170.0781 4164.5,171.1563 Q4163.8125,172.2188 4163.8125,174.3125 Q4163.8125,176.4063 4164.5,177.4844 Q4165.1875,178.5469 4166.5313,178.5469 Q4167.1563,178.5469 4167.75,178.2813 Q4168.3438,178 4168.9688,177.4219 L4168.9688,180.1406 Z " fill="#000000"/><text fill="#000000" font-family="sans-serif" font-size="14" lengthAdjust="spacing" textLength="300.7539" x="4180" y="179.3467">logic_arc_int__baselibs__condition_variable</text><line style="stroke:#181818;stroke-width:0.5;" x1="4152" x2="4482.7539" y1="190.5" y2="190.5"/></g><!--class logic_arc_int__baselibs__utils_base64--><g id="elem_logic_arc_int__baselibs__utils_base64"><rect fill="#F1F1F1" height="40" id="logic_arc_int__baselibs__utils_base64" rx="2.5" ry="2.5" style="stroke:#181818;stroke-width:0.5;" width="292.1689" x="4519.5" y="158.5"/><ellipse cx="4534.5" cy="174.5" fill="#ADD1B2" rx="11" ry="11" style="stroke:#181818;stroke-width:1;"/><path d="M4537.4688,180.1406 Q4536.8906,180.4375 4536.25,180.5781 Q4535.6094,180.7344 4534.9063,180.7344 Q4532.4063,180.7344 4531.0781,179.0938 Q4529.7656,177.4375 4529.7656,174.3125 Q4529.7656,171.1875 4531.0781,169.5313 Q4532.4063,167.875 4534.9063,167.875 Q4535.6094,167.875 4536.25,168.0313 Q4536.9063,168.1875 4537.4688,168.4844 L4537.4688,171.2031 Q4536.8438,170.625 4536.25,170.3594 Q4535.6563,170.0781 4535.0313,170.0781 Q4533.6875,170.0781 4533,171.1563 Q4532.3125,172.2188 4532.3125,174.3125 Q4532.3125,176.4063 4533,177.4844 Q4533.6875,178.5469 4535.0313,178.5469 Q4535.6563,178.5469 4536.25,178.2813 Q4536.8438,178 4537.4688,177.4219 L4537.4688,180.1406 Z " fill="#000000"/><text fill="#000000" font-family="sans-serif" font-size="14" lengthAdjust="spacing" textLength="260.1689" x="4548.5" y="179.3467">logic_arc_int__baselibs__utils_base64</text><line style="stroke:#181818;stroke-width:0.5;" x1="4520.5" x2="4810.6689" y1="190.5" y2="190.5"/></g><!--class comp_arc_sta__baselibs__concurrency--><g id="elem_comp_arc_sta__baselibs__concurrency"><rect fill="#F1F1F1" height="40" id="comp_arc_sta__baselibs__concurrency" rx="2.5" ry="2.5" style="stroke:#181818;stroke-width:0.5;" width="300.2012" x="3031.5" y="275.5"/><ellipse cx="3046.5" cy="291.5" fill="#ADD1B2" rx="11" ry="11" style="stroke:#181818;stroke-width:1;"/><path d="M3049.4688,297.1406 Q3048.8906,297.4375 3048.25,297.5781 Q3047.6094,297.7344 3046.9063,297.7344 Q3044.4063,297.7344 3043.0781,296.0938 Q3041.7656,294.4375 3041.7656,291.3125 Q3041.7656,288.1875 3043.0781,286.5313 Q3044.4063,284.875 3046.9063,284.875 Q3047.6094,284.875 3048.25,285.0313 Q3048.9063,285.1875 3049.4688,285.4844 L3049.4688,288.2031 Q3048.8438,287.625 3048.25,287.3594 Q3047.6563,287.0781 3047.0313,287.0781 Q3045.6875,287.0781 3045,288.1563 Q3044.3125,289.2188 3044.3125,291.3125 Q3044.3125,293.4063 3045,294.4844 Q3045.6875,295.5469 3047.0313,295.5469 Q3047.6563,295.5469 3048.25,295.2813 Q3048.8438,295 3049.4688,294.4219 L3049.4688,297.1406 Z " fill="#000000"/><text fill="#000000" font-family="sans-serif" font-size="14" lengthAdjust="spacing" textLength="268.2012" x="3060.5" y="296.3467">comp_arc_sta__baselibs__concurrency</text><line style="stroke:#181818;stroke-width:0.5;" x1="3032.5" x2="3330.7012" y1="307.5" y2="307.5"/></g><!--class logic_arc_int__baselibs__synchronized_queue--><g id="elem_logic_arc_int__baselibs__synchronized_queue"><rect fill="#F1F1F1" height="40" id="logic_arc_int__baselibs__synchronized_queue" rx="2.5" ry="2.5" style="stroke:#181818;stroke-width:0.5;" width="348.3604" x="2281.5" y="158.5"/><ellipse cx="2296.5" cy="174.5" fill="#ADD1B2" rx="11" ry="11" style="stroke:#181818;stroke-width:1;"/><path d="M2299.4688,180.1406 Q2298.8906,180.4375 2298.25,180.5781 Q2297.6094,180.7344 2296.9063,180.7344 Q2294.4063,180.7344 2293.0781,179.0938 Q2291.7656,177.4375 2291.7656,174.3125 Q2291.7656,171.1875 2293.0781,169.5313 Q2294.4063,167.875 2296.9063,167.875 Q2297.6094,167.875 2298.25,168.0313 Q2298.9063,168.1875 2299.4688,168.4844 L2299.4688,171.2031 Q2298.8438,170.625 2298.25,170.3594 Q2297.6563,170.0781 2297.0313,170.0781 Q2295.6875,170.0781 2295,171.1563 Q2294.3125,172.2188 2294.3125,174.3125 Q2294.3125,176.4063 2295,177.4844 Q2295.6875,178.5469 2297.0313,178.5469 Q2297.6563,178.5469 2298.25,178.2813 Q2298.8438,178 2299.4688,177.4219 L2299.4688,180.1406 Z " fill="#000000"/><text fill="#000000" font-family="sans-serif" font-size="14" lengthAdjust="spacing" textLength="316.3604" x="2310.5" y="179.3467">logic_arc_int__baselibs__synchronized_queue</text><line style="stroke:#181818;stroke-width:0.5;" x1="2282.5" x2="2628.8604" y1="190.5" y2="190.5"/></g><!--class comp_arc_sta__baselibs__utils--><g id="elem_comp_arc_sta__baselibs__utils"><rect fill="#F1F1F1" height="40" id="comp_arc_sta__baselibs__utils" rx="2.5" ry="2.5" style="stroke:#181818;stroke-width:0.5;" width="242.9502" x="4659" y="275.5"/><ellipse cx="4674" cy="291.5" fill="#ADD1B2" rx="11" ry="11" style="stroke:#181818;stroke-width:1;"/><path d="M4676.9688,297.1406 Q4676.3906,297.4375 4675.75,297.5781 Q4675.1094,297.7344 4674.4063,297.7344 Q4671.9063,297.7344 4670.5781,296.0938 Q4669.2656,294.4375 4669.2656,291.3125 Q4669.2656,288.1875 4670.5781,286.5313 Q4671.9063,284.875 4674.4063,284.875 Q4675.1094,284.875 4675.75,285.0313 Q4676.4063,285.1875 4676.9688,285.4844 L4676.9688,288.2031 Q4676.3438,287.625 4675.75,287.3594 Q4675.1563,287.0781 4674.5313,287.0781 Q4673.1875,287.0781 4672.5,288.1563 Q4671.8125,289.2188 4671.8125,291.3125 Q4671.8125,293.4063 4672.5,294.4844 Q4673.1875,295.5469 4674.5313,295.5469 Q4675.1563,295.5469 4675.75,295.2813 Q4676.3438,295 4676.9688,294.4219 L4676.9688,297.1406 Z " fill="#000000"/><text fill="#000000" font-family="sans-serif" font-size="14" lengthAdjust="spacing" textLength="210.9502" x="4688" y="296.3467">comp_arc_sta__baselibs__utils</text><line style="stroke:#181818;stroke-width:0.5;" x1="4660" x2="4900.9502" y1="307.5" y2="307.5"/></g><!--class logic_arc_int__baselibs__utils_scoped_op--><g id="elem_logic_arc_int__baselibs__utils_scoped_op"><rect fill="#F1F1F1" height="40" id="logic_arc_int__baselibs__utils_scoped_op" rx="2.5" ry="2.5" style="stroke:#181818;stroke-width:0.5;" width="315.377" x="4847" y="158.5"/><ellipse cx="4862" cy="174.5" fill="#ADD1B2" rx="11" ry="11" style="stroke:#181818;stroke-width:1;"/><path d="M4864.9688,180.1406 Q4864.3906,180.4375 4863.75,180.5781 Q4863.1094,180.7344 4862.4063,180.7344 Q4859.9063,180.7344 4858.5781,179.0938 Q4857.2656,177.4375 4857.2656,174.3125 Q4857.2656,171.1875 4858.5781,169.5313 Q4859.9063,167.875 4862.4063,167.875 Q4863.1094,167.875 4863.75,168.0313 Q4864.4063,168.1875 4864.9688,168.4844 L4864.9688,171.2031 Q4864.3438,170.625 4863.75,170.3594 Q4863.1563,170.0781 4862.5313,170.0781 Q4861.1875,170.0781 4860.5,171.1563 Q4859.8125,172.2188 4859.8125,174.3125 Q4859.8125,176.4063 4860.5,177.4844 Q4861.1875,178.5469 4862.5313,178.5469 Q4863.1563,178.5469 4863.75,178.2813 Q4864.3438,178 4864.9688,177.4219 L4864.9688,180.1406 Z " fill="#000000"/><text fill="#000000" font-family="sans-serif" font-size="14" lengthAdjust="spacing" textLength="283.377" x="4876" y="179.3467">logic_arc_int__baselibs__utils_scoped_op</text><line style="stroke:#181818;stroke-width:0.5;" x1="4848" x2="5161.377" y1="190.5" y2="190.5"/></g><!--class comp_arc_sta__baselibs__message_passing--><g id="elem_comp_arc_sta__baselibs__message_passing"><rect fill="#F1F1F1" height="40" id="comp_arc_sta__baselibs__message_passing" rx="2.5" ry="2.5" style="stroke:#181818;stroke-width:0.5;" width="337.1357" x="5865" y="275.5"/><ellipse cx="5880" cy="291.5" fill="#ADD1B2" rx="11" ry="11" style="stroke:#181818;stroke-width:1;"/><path d="M5882.9688,297.1406 Q5882.3906,297.4375 5881.75,297.5781 Q5881.1094,297.7344 5880.4063,297.7344 Q5877.9063,297.7344 5876.5781,296.0938 Q5875.2656,294.4375 5875.2656,291.3125 Q5875.2656,288.1875 5876.5781,286.5313 Q5877.9063,284.875 5880.4063,284.875 Q5881.1094,284.875 5881.75,285.0313 Q5882.4063,285.1875 5882.9688,285.4844 L5882.9688,288.2031 Q5882.3438,287.625 5881.75,287.3594 Q5881.1563,287.0781 5880.5313,287.0781 Q5879.1875,287.0781 5878.5,288.1563 Q5877.8125,289.2188 5877.8125,291.3125 Q5877.8125,293.4063 5878.5,294.4844 Q5879.1875,295.5469 5880.5313,295.5469 Q5881.1563,295.5469 5881.75,295.2813 Q5882.3438,295 5882.9688,294.4219 L5882.9688,297.1406 Z " fill="#000000"/><text fill="#000000" font-family="sans-serif" font-size="14" lengthAdjust="spacing" textLength="305.1357" x="5894" y="296.3467">comp_arc_sta__baselibs__message_passing</text><line style="stroke:#181818;stroke-width:0.5;" x1="5866" x2="6201.1357" y1="307.5" y2="307.5"/></g><!--class logic_arc_int__baselibs__message_passing--><g id="elem_logic_arc_int__baselibs__message_passing"><rect fill="#F1F1F1" height="40" id="logic_arc_int__baselibs__message_passing" rx="2.5" ry="2.5" style="stroke:#181818;stroke-width:0.5;" width="328.167" x="5869.5" y="158.5"/><ellipse cx="5884.5" cy="174.5" fill="#ADD1B2" rx="11" ry="11" style="stroke:#181818;stroke-width:1;"/><path d="M5887.4688,180.1406 Q5886.8906,180.4375 5886.25,180.5781 Q5885.6094,180.7344 5884.9063,180.7344 Q5882.4063,180.7344 5881.0781,179.0938 Q5879.7656,177.4375 5879.7656,174.3125 Q5879.7656,171.1875 5881.0781,169.5313 Q5882.4063,167.875 5884.9063,167.875 Q5885.6094,167.875 5886.25,168.0313 Q5886.9063,168.1875 5887.4688,168.4844 L5887.4688,171.2031 Q5886.8438,170.625 5886.25,170.3594 Q5885.6563,170.0781 5885.0313,170.0781 Q5883.6875,170.0781 5883,171.1563 Q5882.3125,172.2188 5882.3125,174.3125 Q5882.3125,176.4063 5883,177.4844 Q5883.6875,178.5469 5885.0313,178.5469 Q5885.6563,178.5469 5886.25,178.2813 Q5886.8438,178 5887.4688,177.4219 L5887.4688,180.1406 Z " fill="#000000"/><text fill="#000000" font-family="sans-serif" font-size="14" lengthAdjust="spacing" textLength="296.167" x="5898.5" y="179.3467">logic_arc_int__baselibs__message_passing</text><line style="stroke:#181818;stroke-width:0.5;" x1="5870.5" x2="6196.667" y1="190.5" y2="190.5"/></g><!--class comp_arc_sta__baselibs__containers--><g id="elem_comp_arc_sta__baselibs__containers"><rect fill="#F1F1F1" height="40" id="comp_arc_sta__baselibs__containers" rx="2.5" ry="2.5" style="stroke:#181818;stroke-width:0.5;" width="287.1445" x="5376" y="275.5"/><ellipse cx="5391" cy="291.5" fill="#ADD1B2" rx="11" ry="11" style="stroke:#181818;stroke-width:1;"/><path d="M5393.9688,297.1406 Q5393.3906,297.4375 5392.75,297.5781 Q5392.1094,297.7344 5391.4063,297.7344 Q5388.9063,297.7344 5387.5781,296.0938 Q5386.2656,294.4375 5386.2656,291.3125 Q5386.2656,288.1875 5387.5781,286.5313 Q5388.9063,284.875 5391.4063,284.875 Q5392.1094,284.875 5392.75,285.0313 Q5393.4063,285.1875 5393.9688,285.4844 L5393.9688,288.2031 Q5393.3438,287.625 5392.75,287.3594 Q5392.1563,287.0781 5391.5313,287.0781 Q5390.1875,287.0781 5389.5,288.1563 Q5388.8125,289.2188 5388.8125,291.3125 Q5388.8125,293.4063 5389.5,294.4844 Q5390.1875,295.5469 5391.5313,295.5469 Q5392.1563,295.5469 5392.75,295.2813 Q5393.3438,295 5393.9688,294.4219 L5393.9688,297.1406 Z " fill="#000000"/><text fill="#000000" font-family="sans-serif" font-size="14" lengthAdjust="spacing" textLength="255.1445" x="5405" y="296.3467">comp_arc_sta__baselibs__containers</text><line style="stroke:#181818;stroke-width:0.5;" x1="5377" x2="5662.1445" y1="307.5" y2="307.5"/></g><!--class logic_arc_int__baselibs__dynamic_array--><g id="elem_logic_arc_int__baselibs__dynamic_array"><rect fill="#F1F1F1" height="40" id="logic_arc_int__baselibs__dynamic_array" rx="2.5" ry="2.5" style="stroke:#181818;stroke-width:0.5;" width="308.3496" x="5197.5" y="158.5"/><ellipse cx="5212.5" cy="174.5" fill="#ADD1B2" rx="11" ry="11" style="stroke:#181818;stroke-width:1;"/><path d="M5215.4688,180.1406 Q5214.8906,180.4375 5214.25,180.5781 Q5213.6094,180.7344 5212.9063,180.7344 Q5210.4063,180.7344 5209.0781,179.0938 Q5207.7656,177.4375 5207.7656,174.3125 Q5207.7656,171.1875 5209.0781,169.5313 Q5210.4063,167.875 5212.9063,167.875 Q5213.6094,167.875 5214.25,168.0313 Q5214.9063,168.1875 5215.4688,168.4844 L5215.4688,171.2031 Q5214.8438,170.625 5214.25,170.3594 Q5213.6563,170.0781 5213.0313,170.0781 Q5211.6875,170.0781 5211,171.1563 Q5210.3125,172.2188 5210.3125,174.3125 Q5210.3125,176.4063 5211,177.4844 Q5211.6875,178.5469 5213.0313,178.5469 Q5213.6563,178.5469 5214.25,178.2813 Q5214.8438,178 5215.4688,177.4219 L5215.4688,180.1406 Z " fill="#000000"/><text fill="#000000" font-family="sans-serif" font-size="14" lengthAdjust="spacing" textLength="276.3496" x="5226.5" y="179.3467">logic_arc_int__baselibs__dynamic_array</text><line style="stroke:#181818;stroke-width:0.5;" x1="5198.5" x2="5504.8496" y1="190.5" y2="190.5"/></g><!--class logic_arc_int__baselibs__shared_future--><g id="elem_logic_arc_int__baselibs__shared_future"><rect fill="#F1F1F1" height="40" id="logic_arc_int__baselibs__shared_future" rx="2.5" ry="2.5" style="stroke:#181818;stroke-width:0.5;" width="302.0811" x="3517.5" y="158.5"/><ellipse cx="3532.5" cy="174.5" fill="#ADD1B2" rx="11" ry="11" style="stroke:#181818;stroke-width:1;"/><path d="M3535.4688,180.1406 Q3534.8906,180.4375 3534.25,180.5781 Q3533.6094,180.7344 3532.9063,180.7344 Q3530.4063,180.7344 3529.0781,179.0938 Q3527.7656,177.4375 3527.7656,174.3125 Q3527.7656,171.1875 3529.0781,169.5313 Q3530.4063,167.875 3532.9063,167.875 Q3533.6094,167.875 3534.25,168.0313 Q3534.9063,168.1875 3535.4688,168.4844 L3535.4688,171.2031 Q3534.8438,170.625 3534.25,170.3594 Q3533.6563,170.0781 3533.0313,170.0781 Q3531.6875,170.0781 3531,171.1563 Q3530.3125,172.2188 3530.3125,174.3125 Q3530.3125,176.4063 3531,177.4844 Q3531.6875,178.5469 3533.0313,178.5469 Q3533.6563,178.5469 3534.25,178.2813 Q3534.8438,178 3535.4688,177.4219 L3535.4688,180.1406 Z " fill="#000000"/><text fill="#000000" font-family="sans-serif" font-size="14" lengthAdjust="spacing" textLength="270.0811" x="3546.5" y="179.3467">logic_arc_int__baselibs__shared_future</text><line style="stroke:#181818;stroke-width:0.5;" x1="3518.5" x2="3818.5811" y1="190.5" y2="190.5"/></g><!--class logic_arc_int__baselibs__executor--><g id="elem_logic_arc_int__baselibs__executor"><rect fill="#F1F1F1" height="40" id="logic_arc_int__baselibs__executor" rx="2.5" ry="2.5" style="stroke:#181818;stroke-width:0.5;" width="266.4385" x="3216.5" y="158.5"/><ellipse cx="3231.5" cy="174.5" fill="#ADD1B2" rx="11" ry="11" style="stroke:#181818;stroke-width:1;"/><path d="M3234.4688,180.1406 Q3233.8906,180.4375 3233.25,180.5781 Q3232.6094,180.7344 3231.9063,180.7344 Q3229.4063,180.7344 3228.0781,179.0938 Q3226.7656,177.4375 3226.7656,174.3125 Q3226.7656,171.1875 3228.0781,169.5313 Q3229.4063,167.875 3231.9063,167.875 Q3232.6094,167.875 3233.25,168.0313 Q3233.9063,168.1875 3234.4688,168.4844 L3234.4688,171.2031 Q3233.8438,170.625 3233.25,170.3594 Q3232.6563,170.0781 3232.0313,170.0781 Q3230.6875,170.0781 3230,171.1563 Q3229.3125,172.2188 3229.3125,174.3125 Q3229.3125,176.4063 3230,177.4844 Q3230.6875,178.5469 3232.0313,178.5469 Q3232.6563,178.5469 3233.25,178.2813 Q3233.8438,178 3234.4688,177.4219 L3234.4688,180.1406 Z " fill="#000000"/><text fill="#000000" font-family="sans-serif" font-size="14" lengthAdjust="spacing" textLength="234.4385" x="3245.5" y="179.3467">logic_arc_int__baselibs__executor</text><line style="stroke:#181818;stroke-width:0.5;" x1="3217.5" x2="3481.9385" y1="190.5" y2="190.5"/></g><!--class logic_arc_int__baselibs__future--><g id="elem_logic_arc_int__baselibs__future"><rect fill="#F1F1F1" height="40" id="logic_arc_int__baselibs__future" rx="2.5" ry="2.5" style="stroke:#181818;stroke-width:0.5;" width="247.0791" x="2934" y="158.5"/><ellipse cx="2949" cy="174.5" fill="#ADD1B2" rx="11" ry="11" style="stroke:#181818;stroke-width:1;"/><path d="M2951.9688,180.1406 Q2951.3906,180.4375 2950.75,180.5781 Q2950.1094,180.7344 2949.4063,180.7344 Q2946.9063,180.7344 2945.5781,179.0938 Q2944.2656,177.4375 2944.2656,174.3125 Q2944.2656,171.1875 2945.5781,169.5313 Q2946.9063,167.875 2949.4063,167.875 Q2950.1094,167.875 2950.75,168.0313 Q2951.4063,168.1875 2951.9688,168.4844 L2951.9688,171.2031 Q2951.3438,170.625 2950.75,170.3594 Q2950.1563,170.0781 2949.5313,170.0781 Q2948.1875,170.0781 2947.5,171.1563 Q2946.8125,172.2188 2946.8125,174.3125 Q2946.8125,176.4063 2947.5,177.4844 Q2948.1875,178.5469 2949.5313,178.5469 Q2950.1563,178.5469 2950.75,178.2813 Q2951.3438,178 2951.9688,177.4219 L2951.9688,180.1406 Z " fill="#000000"/><text fill="#000000" font-family="sans-serif" font-size="14" lengthAdjust="spacing" textLength="215.0791" x="2963" y="179.3467">logic_arc_int__baselibs__future</text><line style="stroke:#181818;stroke-width:0.5;" x1="2935" x2="3180.0791" y1="190.5" y2="190.5"/></g><!--class logic_arc_int__baselibs__task--><g id="elem_logic_arc_int__baselibs__task"><rect fill="#F1F1F1" height="40" id="logic_arc_int__baselibs__task" rx="2.5" ry="2.5" style="stroke:#181818;stroke-width:0.5;" width="234.0156" x="2664.5" y="158.5"/><ellipse cx="2679.5" cy="174.5" fill="#ADD1B2" rx="11" ry="11" style="stroke:#181818;stroke-width:1;"/><path d="M2682.4688,180.1406 Q2681.8906,180.4375 2681.25,180.5781 Q2680.6094,180.7344 2679.9063,180.7344 Q2677.4063,180.7344 2676.0781,179.0938 Q2674.7656,177.4375 2674.7656,174.3125 Q2674.7656,171.1875 2676.0781,169.5313 Q2677.4063,167.875 2679.9063,167.875 Q2680.6094,167.875 2681.25,168.0313 Q2681.9063,168.1875 2682.4688,168.4844 L2682.4688,171.2031 Q2681.8438,170.625 2681.25,170.3594 Q2680.6563,170.0781 2680.0313,170.0781 Q2678.6875,170.0781 2678,171.1563 Q2677.3125,172.2188 2677.3125,174.3125 Q2677.3125,176.4063 2678,177.4844 Q2678.6875,178.5469 2680.0313,178.5469 Q2680.6563,178.5469 2681.25,178.2813 Q2681.8438,178 2682.4688,177.4219 L2682.4688,180.1406 Z " fill="#000000"/><text fill="#000000" font-family="sans-serif" font-size="14" lengthAdjust="spacing" textLength="202.0156" x="2693.5" y="179.3467">logic_arc_int__baselibs__task</text><line style="stroke:#181818;stroke-width:0.5;" x1="2665.5" x2="2897.5156" y1="190.5" y2="190.5"/></g><!--class logic_arc_int__baselibs__filesystem--><g id="elem_logic_arc_int__baselibs__filesystem"><rect fill="#F1F1F1" height="40" id="logic_arc_int__baselibs__filesystem" rx="2.5" ry="2.5" style="stroke:#181818;stroke-width:0.5;" width="276.4805" x="18.5" y="158.5"/><ellipse cx="33.5" cy="174.5" fill="#ADD1B2" rx="11" ry="11" style="stroke:#181818;stroke-width:1;"/><path d="M36.4688,180.1406 Q35.8906,180.4375 35.25,180.5781 Q34.6094,180.7344 33.9063,180.7344 Q31.4063,180.7344 30.0781,179.0938 Q28.7656,177.4375 28.7656,174.3125 Q28.7656,171.1875 30.0781,169.5313 Q31.4063,167.875 33.9063,167.875 Q34.6094,167.875 35.25,168.0313 Q35.9063,168.1875 36.4688,168.4844 L36.4688,171.2031 Q35.8438,170.625 35.25,170.3594 Q34.6563,170.0781 34.0313,170.0781 Q32.6875,170.0781 32,171.1563 Q31.3125,172.2188 31.3125,174.3125 Q31.3125,176.4063 32,177.4844 Q32.6875,178.5469 34.0313,178.5469 Q34.6563,178.5469 35.25,178.2813 Q35.8438,178 36.4688,177.4219 L36.4688,180.1406 Z " fill="#000000"/><text fill="#000000" font-family="sans-serif" font-size="14" lengthAdjust="spacing" textLength="244.4805" x="47.5" y="179.3467">logic_arc_int__baselibs__filesystem</text><line style="stroke:#181818;stroke-width:0.5;" x1="19.5" x2="293.9805" y1="190.5" y2="190.5"/></g><!--class logic_arc_int__baselibs__task_result--><g id="elem_logic_arc_int__baselibs__task_result"><rect fill="#F1F1F1" height="40" id="logic_arc_int__baselibs__task_result" rx="2.5" ry="2.5" style="stroke:#181818;stroke-width:0.5;" width="280.9307" x="1965" y="158.5"/><ellipse cx="1980" cy="174.5" fill="#ADD1B2" rx="11" ry="11" style="stroke:#181818;stroke-width:1;"/><path d="M1982.9688,180.1406 Q1982.3906,180.4375 1981.75,180.5781 Q1981.1094,180.7344 1980.4063,180.7344 Q1977.9063,180.7344 1976.5781,179.0938 Q1975.2656,177.4375 1975.2656,174.3125 Q1975.2656,171.1875 1976.5781,169.5313 Q1977.9063,167.875 1980.4063,167.875 Q1981.1094,167.875 1981.75,168.0313 Q1982.4063,168.1875 1982.9688,168.4844 L1982.9688,171.2031 Q1982.3438,170.625 1981.75,170.3594 Q1981.1563,170.0781 1980.5313,170.0781 Q1979.1875,170.0781 1978.5,171.1563 Q1977.8125,172.2188 1977.8125,174.3125 Q1977.8125,176.4063 1978.5,177.4844 Q1979.1875,178.5469 1980.5313,178.5469 Q1981.1563,178.5469 1981.75,178.2813 Q1982.3438,178 1982.9688,177.4219 L1982.9688,180.1406 Z " fill="#000000"/><text fill="#000000" font-family="sans-serif" font-size="14" lengthAdjust="spacing" textLength="248.9307" x="1994" y="179.3467">logic_arc_int__baselibs__task_result</text><line style="stroke:#181818;stroke-width:0.5;" x1="1966" x2="2244.9307" y1="190.5" y2="190.5"/></g><!--class logic_arc_int__baselibs__memory_shared--><g id="elem_logic_arc_int__baselibs__memory_shared"><rect fill="#F1F1F1" height="40" id="logic_arc_int__baselibs__memory_shared" rx="2.5" ry="2.5" style="stroke:#181818;stroke-width:0.5;" width="318.043" x="333.5" y="158.5"/><ellipse cx="348.5" cy="174.5" fill="#ADD1B2" rx="11" ry="11" style="stroke:#181818;stroke-width:1;"/><path d="M351.4688,180.1406 Q350.8906,180.4375 350.25,180.5781 Q349.6094,180.7344 348.9063,180.7344 Q346.4063,180.7344 345.0781,179.0938 Q343.7656,177.4375 343.7656,174.3125 Q343.7656,171.1875 345.0781,169.5313 Q346.4063,167.875 348.9063,167.875 Q349.6094,167.875 350.25,168.0313 Q350.9063,168.1875 351.4688,168.4844 L351.4688,171.2031 Q350.8438,170.625 350.25,170.3594 Q349.6563,170.0781 349.0313,170.0781 Q347.6875,170.0781 347,171.1563 Q346.3125,172.2188 346.3125,174.3125 Q346.3125,176.4063 347,177.4844 Q347.6875,178.5469 349.0313,178.5469 Q349.6563,178.5469 350.25,178.2813 Q350.8438,178 351.4688,177.4219 L351.4688,180.1406 Z " fill="#000000"/><text fill="#000000" font-family="sans-serif" font-size="14" lengthAdjust="spacing" textLength="286.043" x="362.5" y="179.3467">logic_arc_int__baselibs__memory_shared</text><line style="stroke:#181818;stroke-width:0.5;" x1="334.5" x2="650.543" y1="190.5" y2="190.5"/></g><!--class comp_arc_sta__baselibs__bit_manipulation--><g id="elem_comp_arc_sta__baselibs__bit_manipulation"><rect fill="#F1F1F1" height="40" id="comp_arc_sta__baselibs__bit_manipulation" rx="2.5" ry="2.5" style="stroke:#181818;stroke-width:0.5;" width="330.8057" x="1364" y="275.5"/><ellipse cx="1379" cy="291.5" fill="#ADD1B2" rx="11" ry="11" style="stroke:#181818;stroke-width:1;"/><path d="M1381.9688,297.1406 Q1381.3906,297.4375 1380.75,297.5781 Q1380.1094,297.7344 1379.4063,297.7344 Q1376.9063,297.7344 1375.5781,296.0938 Q1374.2656,294.4375 1374.2656,291.3125 Q1374.2656,288.1875 1375.5781,286.5313 Q1376.9063,284.875 1379.4063,284.875 Q1380.1094,284.875 1380.75,285.0313 Q1381.4063,285.1875 1381.9688,285.4844 L1381.9688,288.2031 Q1381.3438,287.625 1380.75,287.3594 Q1380.1563,287.0781 1379.5313,287.0781 Q1378.1875,287.0781 1377.5,288.1563 Q1376.8125,289.2188 1376.8125,291.3125 Q1376.8125,293.4063 1377.5,294.4844 Q1378.1875,295.5469 1379.5313,295.5469 Q1380.1563,295.5469 1380.75,295.2813 Q1381.3438,295 1381.9688,294.4219 L1381.9688,297.1406 Z " fill="#000000"/><text fill="#000000" font-family="sans-serif" font-size="14" lengthAdjust="spacing" textLength="298.8057" x="1393" y="296.3467">comp_arc_sta__baselibs__bit_manipulation</text><line style="stroke:#181818;stroke-width:0.5;" x1="1365" x2="1693.8057" y1="307.5" y2="307.5"/></g><!--class logic_arc_int__baselibs__bit_manipulation--><g id="elem_logic_arc_int__baselibs__bit_manipulation"><rect fill="#F1F1F1" height="40" id="logic_arc_int__baselibs__bit_manipulation" rx="2.5" ry="2.5" style="stroke:#181818;stroke-width:0.5;" width="321.8369" x="1237.5" y="158.5"/><ellipse cx="1252.5" cy="174.5" fill="#ADD1B2" rx="11" ry="11" style="stroke:#181818;stroke-width:1;"/><path d="M1255.4688,180.1406 Q1254.8906,180.4375 1254.25,180.5781 Q1253.6094,180.7344 1252.9063,180.7344 Q1250.4063,180.7344 1249.0781,179.0938 Q1247.7656,177.4375 1247.7656,174.3125 Q1247.7656,171.1875 1249.0781,169.5313 Q1250.4063,167.875 1252.9063,167.875 Q1253.6094,167.875 1254.25,168.0313 Q1254.9063,168.1875 1255.4688,168.4844 L1255.4688,171.2031 Q1254.8438,170.625 1254.25,170.3594 Q1253.6563,170.0781 1253.0313,170.0781 Q1251.6875,170.0781 1251,171.1563 Q1250.3125,172.2188 1250.3125,174.3125 Q1250.3125,176.4063 1251,177.4844 Q1251.6875,178.5469 1253.0313,178.5469 Q1253.6563,178.5469 1254.25,178.2813 Q1254.8438,178 1255.4688,177.4219 L1255.4688,180.1406 Z " fill="#000000"/><text fill="#000000" font-family="sans-serif" font-size="14" lengthAdjust="spacing" textLength="289.8369" x="1266.5" y="179.3467">logic_arc_int__baselibs__bit_manipulation</text><line style="stroke:#181818;stroke-width:0.5;" x1="1238.5" x2="1558.3369" y1="190.5" y2="190.5"/></g><!--class logic_arc_int__baselibs__intrusive_list--><g id="elem_logic_arc_int__baselibs__intrusive_list"><rect fill="#F1F1F1" height="40" id="logic_arc_int__baselibs__intrusive_list" rx="2.5" ry="2.5" style="stroke:#181818;stroke-width:0.5;" width="293.0713" x="5541" y="158.5"/><ellipse cx="5556" cy="174.5" fill="#ADD1B2" rx="11" ry="11" style="stroke:#181818;stroke-width:1;"/><path d="M5558.9688,180.1406 Q5558.3906,180.4375 5557.75,180.5781 Q5557.1094,180.7344 5556.4063,180.7344 Q5553.9063,180.7344 5552.5781,179.0938 Q5551.2656,177.4375 5551.2656,174.3125 Q5551.2656,171.1875 5552.5781,169.5313 Q5553.9063,167.875 5556.4063,167.875 Q5557.1094,167.875 5557.75,168.0313 Q5558.4063,168.1875 5558.9688,168.4844 L5558.9688,171.2031 Q5558.3438,170.625 5557.75,170.3594 Q5557.1563,170.0781 5556.5313,170.0781 Q5555.1875,170.0781 5554.5,171.1563 Q5553.8125,172.2188 5553.8125,174.3125 Q5553.8125,176.4063 5554.5,177.4844 Q5555.1875,178.5469 5556.5313,178.5469 Q5557.1563,178.5469 5557.75,178.2813 Q5558.3438,178 5558.9688,177.4219 L5558.9688,180.1406 Z " fill="#000000"/><text fill="#000000" font-family="sans-serif" font-size="14" lengthAdjust="spacing" textLength="261.0713" x="5570" y="179.3467">logic_arc_int__baselibs__intrusive_list</text><line style="stroke:#181818;stroke-width:0.5;" x1="5542" x2="5833.0713" y1="190.5" y2="190.5"/></g><!--class logic_arc_int__baselibs__bit_mask_operator--><g id="elem_logic_arc_int__baselibs__bit_mask_operator"><rect fill="#F1F1F1" height="40" id="logic_arc_int__baselibs__bit_mask_operator" rx="2.5" ry="2.5" style="stroke:#181818;stroke-width:0.5;" width="334.6406" x="1595" y="158.5"/><ellipse cx="1610" cy="174.5" fill="#ADD1B2" rx="11" ry="11" style="stroke:#181818;stroke-width:1;"/><path d="M1612.9688,180.1406 Q1612.3906,180.4375 1611.75,180.5781 Q1611.1094,180.7344 1610.4063,180.7344 Q1607.9063,180.7344 1606.5781,179.0938 Q1605.2656,177.4375 1605.2656,174.3125 Q1605.2656,171.1875 1606.5781,169.5313 Q1607.9063,167.875 1610.4063,167.875 Q1611.1094,167.875 1611.75,168.0313 Q1612.4063,168.1875 1612.9688,168.4844 L1612.9688,171.2031 Q1612.3438,170.625 1611.75,170.3594 Q1611.1563,170.0781 1610.5313,170.0781 Q1609.1875,170.0781 1608.5,171.1563 Q1607.8125,172.2188 1607.8125,174.3125 Q1607.8125,176.4063 1608.5,177.4844 Q1609.1875,178.5469 1610.5313,178.5469 Q1611.1563,178.5469 1611.75,178.2813 Q1612.3438,178 1612.9688,177.4219 L1612.9688,180.1406 Z " fill="#000000"/><text fill="#000000" font-family="sans-serif" font-size="14" lengthAdjust="spacing" textLength="302.6406" x="1624" y="179.3467">logic_arc_int__baselibs__bit_mask_operator</text><line style="stroke:#181818;stroke-width:0.5;" x1="1596" x2="1928.6406" y1="190.5" y2="190.5"/></g><!--class logic_arc_int__baselibs__json--><g id="elem_logic_arc_int__baselibs__json"><rect fill="#F1F1F1" height="40" id="logic_arc_int__baselibs__json" rx="2.5" ry="2.5" style="stroke:#181818;stroke-width:0.5;" width="233.168" x="690" y="158.5"/><ellipse cx="705" cy="174.5" fill="#ADD1B2" rx="11" ry="11" style="stroke:#181818;stroke-width:1;"/><path d="M707.9688,180.1406 Q707.3906,180.4375 706.75,180.5781 Q706.1094,180.7344 705.4063,180.7344 Q702.9063,180.7344 701.5781,179.0938 Q700.2656,177.4375 700.2656,174.3125 Q700.2656,171.1875 701.5781,169.5313 Q702.9063,167.875 705.4063,167.875 Q706.1094,167.875 706.75,168.0313 Q707.4063,168.1875 707.9688,168.4844 L707.9688,171.2031 Q707.3438,170.625 706.75,170.3594 Q706.1563,170.0781 705.5313,170.0781 Q704.1875,170.0781 703.5,171.1563 Q702.8125,172.2188 702.8125,174.3125 Q702.8125,176.4063 703.5,177.4844 Q704.1875,178.5469 705.5313,178.5469 Q706.1563,178.5469 706.75,178.2813 Q707.3438,178 707.9688,177.4219 L707.9688,180.1406 Z " fill="#000000"/><text fill="#000000" font-family="sans-serif" font-size="14" lengthAdjust="spacing" textLength="201.168" x="719" y="179.3467">logic_arc_int__baselibs__json</text><line style="stroke:#181818;stroke-width:0.5;" x1="691" x2="922.168" y1="190.5" y2="190.5"/></g><!--class comp_arc_sta__baselibs__result--><g id="elem_comp_arc_sta__baselibs__result"><rect fill="#F1F1F1" height="40" id="comp_arc_sta__baselibs__result" rx="2.5" ry="2.5" style="stroke:#181818;stroke-width:0.5;" width="253.4297" x="966" y="275.5"/><ellipse cx="981" cy="291.5" fill="#ADD1B2" rx="11" ry="11" style="stroke:#181818;stroke-width:1;"/><path d="M983.9688,297.1406 Q983.3906,297.4375 982.75,297.5781 Q982.1094,297.7344 981.4063,297.7344 Q978.9063,297.7344 977.5781,296.0938 Q976.2656,294.4375 976.2656,291.3125 Q976.2656,288.1875 977.5781,286.5313 Q978.9063,284.875 981.4063,284.875 Q982.1094,284.875 982.75,285.0313 Q983.4063,285.1875 983.9688,285.4844 L983.9688,288.2031 Q983.3438,287.625 982.75,287.3594 Q982.1563,287.0781 981.5313,287.0781 Q980.1875,287.0781 979.5,288.1563 Q978.8125,289.2188 978.8125,291.3125 Q978.8125,293.4063 979.5,294.4844 Q980.1875,295.5469 981.5313,295.5469 Q982.1563,295.5469 982.75,295.2813 Q983.3438,295 983.9688,294.4219 L983.9688,297.1406 Z " fill="#000000"/><text fill="#000000" font-family="sans-serif" font-size="14" lengthAdjust="spacing" textLength="221.4297" x="995" y="296.3467">comp_arc_sta__baselibs__result</text><line style="stroke:#181818;stroke-width:0.5;" x1="967" x2="1218.4297" y1="307.5" y2="307.5"/></g><!--class logic_arc_int__baselibs__promise--><g id="elem_logic_arc_int__baselibs__promise"><rect fill="#F1F1F1" height="40" id="logic_arc_int__baselibs__promise" rx="2.5" ry="2.5" style="stroke:#181818;stroke-width:0.5;" width="261.1885" x="3855" y="158.5"/><ellipse cx="3870" cy="174.5" fill="#ADD1B2" rx="11" ry="11" style="stroke:#181818;stroke-width:1;"/><path d="M3872.9688,180.1406 Q3872.3906,180.4375 3871.75,180.5781 Q3871.1094,180.7344 3870.4063,180.7344 Q3867.9063,180.7344 3866.5781,179.0938 Q3865.2656,177.4375 3865.2656,174.3125 Q3865.2656,171.1875 3866.5781,169.5313 Q3867.9063,167.875 3870.4063,167.875 Q3871.1094,167.875 3871.75,168.0313 Q3872.4063,168.1875 3872.9688,168.4844 L3872.9688,171.2031 Q3872.3438,170.625 3871.75,170.3594 Q3871.1563,170.0781 3870.5313,170.0781 Q3869.1875,170.0781 3868.5,171.1563 Q3867.8125,172.2188 3867.8125,174.3125 Q3867.8125,176.4063 3868.5,177.4844 Q3869.1875,178.5469 3870.5313,178.5469 Q3871.1563,178.5469 3871.75,178.2813 Q3872.3438,178 3872.9688,177.4219 L3872.9688,180.1406 Z " fill="#000000"/><text fill="#000000" font-family="sans-serif" font-size="14" lengthAdjust="spacing" textLength="229.1885" x="3884" y="179.3467">logic_arc_int__baselibs__promise</text><line style="stroke:#181818;stroke-width:0.5;" x1="3856" x2="4115.1885" y1="190.5" y2="190.5"/></g><!--class comp_arc_sta__baselibs__json--><g id="elem_comp_arc_sta__baselibs__json"><rect fill="#F1F1F1" height="40" id="comp_arc_sta__baselibs__json" rx="2.5" ry="2.5" style="stroke:#181818;stroke-width:0.5;" width="242.1367" x="688.5" y="275.5"/><ellipse cx="703.5" cy="291.5" fill="#ADD1B2" rx="11" ry="11" style="stroke:#181818;stroke-width:1;"/><path d="M706.4688,297.1406 Q705.8906,297.4375 705.25,297.5781 Q704.6094,297.7344 703.9063,297.7344 Q701.4063,297.7344 700.0781,296.0938 Q698.7656,294.4375 698.7656,291.3125 Q698.7656,288.1875 700.0781,286.5313 Q701.4063,284.875 703.9063,284.875 Q704.6094,284.875 705.25,285.0313 Q705.9063,285.1875 706.4688,285.4844 L706.4688,288.2031 Q705.8438,287.625 705.25,287.3594 Q704.6563,287.0781 704.0313,287.0781 Q702.6875,287.0781 702,288.1563 Q701.3125,289.2188 701.3125,291.3125 Q701.3125,293.4063 702,294.4844 Q702.6875,295.5469 704.0313,295.5469 Q704.6563,295.5469 705.25,295.2813 Q705.8438,295 706.4688,294.4219 L706.4688,297.1406 Z " fill="#000000"/><text fill="#000000" font-family="sans-serif" font-size="14" lengthAdjust="spacing" textLength="210.1367" x="717.5" y="296.3467">comp_arc_sta__baselibs__json</text><line style="stroke:#181818;stroke-width:0.5;" x1="689.5" x2="929.6367" y1="307.5" y2="307.5"/></g><!--class comp_arc_sta__baselibs__memory_shared--><g id="elem_comp_arc_sta__baselibs__memory_shared"><rect fill="#F1F1F1" height="40" id="comp_arc_sta__baselibs__memory_shared" rx="2.5" ry="2.5" style="stroke:#181818;stroke-width:0.5;" width="327.0117" x="327" y="275.5"/><ellipse cx="342" cy="291.5" fill="#ADD1B2" rx="11" ry="11" style="stroke:#181818;stroke-width:1;"/><path d="M344.9688,297.1406 Q344.3906,297.4375 343.75,297.5781 Q343.1094,297.7344 342.4063,297.7344 Q339.9063,297.7344 338.5781,296.0938 Q337.2656,294.4375 337.2656,291.3125 Q337.2656,288.1875 338.5781,286.5313 Q339.9063,284.875 342.4063,284.875 Q343.1094,284.875 343.75,285.0313 Q344.4063,285.1875 344.9688,285.4844 L344.9688,288.2031 Q344.3438,287.625 343.75,287.3594 Q343.1563,287.0781 342.5313,287.0781 Q341.1875,287.0781 340.5,288.1563 Q339.8125,289.2188 339.8125,291.3125 Q339.8125,293.4063 340.5,294.4844 Q341.1875,295.5469 342.5313,295.5469 Q343.1563,295.5469 343.75,295.2813 Q344.3438,295 344.9688,294.4219 L344.9688,297.1406 Z " fill="#000000"/><text fill="#000000" font-family="sans-serif" font-size="14" lengthAdjust="spacing" textLength="295.0117" x="356" y="296.3467">comp_arc_sta__baselibs__memory_shared</text><line style="stroke:#181818;stroke-width:0.5;" x1="328" x2="653.0117" y1="307.5" y2="307.5"/></g><!--class comp_arc_sta__baselibs__filesystem--><g id="elem_comp_arc_sta__baselibs__filesystem"><rect fill="#F1F1F1" height="40" id="comp_arc_sta__baselibs__filesystem" rx="2.5" ry="2.5" style="stroke:#181818;stroke-width:0.5;" width="285.4492" x="7" y="275.5"/><ellipse cx="22" cy="291.5" fill="#ADD1B2" rx="11" ry="11" style="stroke:#181818;stroke-width:1;"/><path d="M24.9688,297.1406 Q24.3906,297.4375 23.75,297.5781 Q23.1094,297.7344 22.4063,297.7344 Q19.9063,297.7344 18.5781,296.0938 Q17.2656,294.4375 17.2656,291.3125 Q17.2656,288.1875 18.5781,286.5313 Q19.9063,284.875 22.4063,284.875 Q23.1094,284.875 23.75,285.0313 Q24.4063,285.1875 24.9688,285.4844 L24.9688,288.2031 Q24.3438,287.625 23.75,287.3594 Q23.1563,287.0781 22.5313,287.0781 Q21.1875,287.0781 20.5,288.1563 Q19.8125,289.2188 19.8125,291.3125 Q19.8125,293.4063 20.5,294.4844 Q21.1875,295.5469 22.5313,295.5469 Q23.1563,295.5469 23.75,295.2813 Q24.3438,295 24.9688,294.4219 L24.9688,297.1406 Z " fill="#000000"/><text fill="#000000" font-family="sans-serif" font-size="14" lengthAdjust="spacing" textLength="253.4492" x="36" y="296.3467">comp_arc_sta__baselibs__filesystem</text><line style="stroke:#181818;stroke-width:0.5;" x1="8" x2="291.4492" y1="307.5" y2="307.5"/></g><!--link Feature_User to logic_arc_int__baselibs__result--><g id="link_Feature_User_logic_arc_int__baselibs__result"><path codeLine="15" d="M3012.27,45.97 C2805.8,52.97 1932.34,85.62 1219.5,158.5 C1214.05,159.06 1214.4403,158.9706 1208.8203,159.6206 " fill="transparent" id="Feature_User-to-logic_arc_int__baselibs__result" style="stroke:#181818;stroke-width:1;"/><polygon fill="#181818" points="1202.86,160.31,1212.26,163.2495,1207.8269,159.7355,1211.3408,155.3025,1202.86,160.31" style="stroke:#181818;stroke-width:1;"/><text fill="#000000" font-family="sans-serif" font-size="13" lengthAdjust="spacing" textLength="23.0103" x="1724.5" y="124.5669">use</text></g><!--link Feature_User to logic_arc_int__baselibs__condition_variable--><g id="link_Feature_User_logic_arc_int__baselibs__condition_variable"><path codeLine="16" d="M3102.72,49.27 C3269.95,66.93 3852.8531,128.4502 4144.8331,159.2702 " fill="transparent" id="Feature_User-to-logic_arc_int__baselibs__condition_variable" style="stroke:#181818;stroke-width:1;"/><polygon fill="#181818" points="4150.8,159.9,4142.2696,154.9774,4145.8276,159.3751,4141.4298,162.9332,4150.8,159.9" style="stroke:#181818;stroke-width:1;"/><text fill="#000000" font-family="sans-serif" font-size="13" lengthAdjust="spacing" textLength="23.0103" x="3837.5" y="124.5669">use</text></g><!--link Feature_User to logic_arc_int__baselibs__utils_base64--><g id="link_Feature_User_logic_arc_int__baselibs__utils_base64"><path codeLine="17" d="M3102.77,47.47 C3280.96,59.28 3951.17,104.92 4501.5,158.5 C4507.35,159.07 4507.3416,159.0553 4513.3616,159.6753 " fill="transparent" id="Feature_User-to-logic_arc_int__baselibs__utils_base64" style="stroke:#181818;stroke-width:1;"/><polygon fill="#181818" points="4519.33,160.29,4510.7871,155.389,4514.3563,159.7778,4509.9676,163.3469,4519.33,160.29" style="stroke:#181818;stroke-width:1;"/><text fill="#000000" font-family="sans-serif" font-size="13" lengthAdjust="spacing" textLength="23.0103" x="4145.5" y="124.5669">use</text></g><!--reverse link logic_arc_int__baselibs__synchronized_queue to comp_arc_sta__baselibs__concurrency--><g id="link_logic_arc_int__baselibs__synchronized_queue_comp_arc_sta__baselibs__concurrency"><path codeLine="18" d="M2581.1158,199.4509 C2664.2458,212.6509 2771.65,229.69 2871.5,245.5 C2934.06,255.41 3003.73,266.42 3061.15,275.49 " fill="transparent" id="logic_arc_int__baselibs__synchronized_queue-backto-comp_arc_sta__baselibs__concurrency" style="stroke:#181818;stroke-width:1;"/><polygon fill="#181818" points="2575.19,198.51,2583.4513,203.8719,2580.1281,199.2941,2584.7059,195.9709,2575.19,198.51" style="stroke:#181818;stroke-width:1;"/><text fill="#000000" font-family="sans-serif" font-size="13" lengthAdjust="spacing" textLength="76.9082" x="2872.5" y="241.5669">implements</text></g><!--reverse link logic_arc_int__baselibs__utils_scoped_op to comp_arc_sta__baselibs__utils--><g id="link_logic_arc_int__baselibs__utils_scoped_op_comp_arc_sta__baselibs__utils"><path codeLine="19" d="M4961.9223,201.3603 C4920.4923,222.6303 4859.29,254.05 4817.83,275.34 " fill="transparent" id="logic_arc_int__baselibs__utils_scoped_op-backto-comp_arc_sta__baselibs__utils" style="stroke:#181818;stroke-width:1;"/><polygon fill="#181818" points="4967.26,198.62,4957.4266,199.1721,4962.812,200.9036,4961.0804,206.2889,4967.26,198.62" style="stroke:#181818;stroke-width:1;"/><text fill="#000000" font-family="sans-serif" font-size="13" lengthAdjust="spacing" textLength="76.9082" x="4906.5" y="241.5669">implements</text></g><!--reverse link logic_arc_int__baselibs__message_passing to comp_arc_sta__baselibs__message_passing--><g id="link_logic_arc_int__baselibs__message_passing_comp_arc_sta__baselibs__message_passing"><path codeLine="20" d="M6033.5,204.75 C6033.5,225.98 6033.5,253.94 6033.5,275.19 " fill="transparent" id="logic_arc_int__baselibs__message_passing-backto-comp_arc_sta__baselibs__message_passing" style="stroke:#181818;stroke-width:1;"/><polygon fill="#181818" points="6033.5,198.75,6029.5,207.75,6033.5,203.75,6037.5,207.75,6033.5,198.75" style="stroke:#181818;stroke-width:1;"/><text fill="#000000" font-family="sans-serif" font-size="13" lengthAdjust="spacing" textLength="76.9082" x="6034.5" y="241.5669">implements</text></g><!--link Feature_User to logic_arc_int__baselibs__message_passing--><g id="link_Feature_User_logic_arc_int__baselibs__message_passing"><path codeLine="21" d="M3102.68,45.33 C3326.16,49.58 4335.67,70.24 5161.5,111.5 C5468.49,126.84 5545.26,132.09 5851.5,158.5 C5857.36,159 5857.345,158.9932 5863.355,159.5432 " fill="transparent" id="Feature_User-to-logic_arc_int__baselibs__message_passing" style="stroke:#181818;stroke-width:1;"/><polygon fill="#181818" points="5869.33,160.09,5860.732,155.2864,5864.3508,159.6343,5860.0029,163.2532,5869.33,160.09" style="stroke:#181818;stroke-width:1;"/><text fill="#000000" font-family="sans-serif" font-size="13" lengthAdjust="spacing" textLength="23.0103" x="5461.5" y="124.5669">use</text></g><!--reverse link logic_arc_int__baselibs__dynamic_array to comp_arc_sta__baselibs__containers--><g id="link_logic_arc_int__baselibs__dynamic_array_comp_arc_sta__baselibs__containers"><path codeLine="22" d="M5384.571,202.1393 C5415.671,223.4293 5460.54,254.14 5491.57,275.38 " fill="transparent" id="logic_arc_int__baselibs__dynamic_array-backto-comp_arc_sta__baselibs__containers" style="stroke:#181818;stroke-width:1;"/><polygon fill="#181818" points="5379.62,198.75,5384.787,207.1346,5383.7459,201.5744,5389.3061,200.5333,5379.62,198.75" style="stroke:#181818;stroke-width:1;"/><text fill="#000000" font-family="sans-serif" font-size="13" lengthAdjust="spacing" textLength="76.9082" x="5446.5" y="241.5669">implements</text></g><!--reverse link logic_arc_int__baselibs__shared_future to comp_arc_sta__baselibs__concurrency--><g id="link_logic_arc_int__baselibs__shared_future_comp_arc_sta__baselibs__concurrency"><path codeLine="23" d="M3581.9706,199.929 C3491.8206,221.219 3352.56,254.11 3262.35,275.41 " fill="transparent" id="logic_arc_int__baselibs__shared_future-backto-comp_arc_sta__baselibs__concurrency" style="stroke:#181818;stroke-width:1;"/><polygon fill="#181818" points="3587.81,198.55,3578.1316,196.7256,3582.9439,199.6992,3579.9703,204.5115,3587.81,198.55" style="stroke:#181818;stroke-width:1;"/><text fill="#000000" font-family="sans-serif" font-size="13" lengthAdjust="spacing" textLength="76.9082" x="3454.5" y="241.5669">implements</text></g><!--reverse link logic_arc_int__baselibs__executor to comp_arc_sta__baselibs__concurrency--><g id="link_logic_arc_int__baselibs__executor_comp_arc_sta__baselibs__concurrency"><path codeLine="24" d="M3316.429,202.1393 C3285.329,223.4293 3240.46,254.14 3209.43,275.38 " fill="transparent" id="logic_arc_int__baselibs__executor-backto-comp_arc_sta__baselibs__concurrency" style="stroke:#181818;stroke-width:1;"/><polygon fill="#181818" points="3321.38,198.75,3311.6939,200.5333,3317.2541,201.5744,3316.213,207.1346,3321.38,198.75" style="stroke:#181818;stroke-width:1;"/><text fill="#000000" font-family="sans-serif" font-size="13" lengthAdjust="spacing" textLength="76.9082" x="3276.5" y="241.5669">implements</text></g><!--link Feature_User to logic_arc_int__baselibs__executor--><g id="link_Feature_User_logic_arc_int__baselibs__executor"><path codeLine="25" d="M3102.8,65.14 C3158.71,90.6 3247.5596,131.0732 3301.9496,155.8432 " fill="transparent" id="Feature_User-to-logic_arc_int__baselibs__executor" style="stroke:#181818;stroke-width:1;"/><polygon fill="#181818" points="3307.41,158.33,3300.8772,150.9596,3302.8597,156.2577,3297.5616,158.2401,3307.41,158.33" style="stroke:#181818;stroke-width:1;"/><text fill="#000000" font-family="sans-serif" font-size="13" lengthAdjust="spacing" textLength="23.0103" x="3238.5" y="124.5669">use</text></g><!--reverse link logic_arc_int__baselibs__future to comp_arc_sta__baselibs__concurrency--><g id="link_logic_arc_int__baselibs__future_comp_arc_sta__baselibs__concurrency"><path codeLine="26" d="M3082.6492,202.8301 C3105.5392,224.0601 3137.76,253.94 3160.68,275.19 " fill="transparent" id="logic_arc_int__baselibs__future-backto-comp_arc_sta__baselibs__concurrency" style="stroke:#181818;stroke-width:1;"/><polygon fill="#181818" points="3078.25,198.75,3082.1287,207.803,3081.916,202.1501,3087.5688,201.9374,3078.25,198.75" style="stroke:#181818;stroke-width:1;"/><text fill="#000000" font-family="sans-serif" font-size="13" lengthAdjust="spacing" textLength="76.9082" x="3127.5" y="241.5669">implements</text></g><!--reverse link logic_arc_int__baselibs__task to comp_arc_sta__baselibs__concurrency--><g id="link_logic_arc_int__baselibs__task_comp_arc_sta__baselibs__concurrency"><path codeLine="27" d="M2853.7664,200.2778 C2927.8564,221.5778 3041.16,254.15 3115.17,275.43 " fill="transparent" id="logic_arc_int__baselibs__task-backto-comp_arc_sta__baselibs__concurrency" style="stroke:#181818;stroke-width:1;"/><polygon fill="#181818" points="2848,198.62,2855.5445,204.951,2852.8054,200.0015,2857.7548,197.2624,2848,198.62" style="stroke:#181818;stroke-width:1;"/><text fill="#000000" font-family="sans-serif" font-size="13" lengthAdjust="spacing" textLength="76.9082" x="3005.5" y="241.5669">implements</text></g><!--link Feature_User to logic_arc_int__baselibs__filesystem--><g id="link_Feature_User_logic_arc_int__baselibs__filesystem"><path codeLine="28" d="M3012.29,45.29 C2789.76,49.29 1788.52,68.95 969.5,111.5 C678.48,126.62 605.59,130.76 315.5,158.5 C308.72,159.15 307.7476,159.2277 300.7476,159.9577 " fill="transparent" id="Feature_User-to-logic_arc_int__baselibs__filesystem" style="stroke:#181818;stroke-width:1;"/><polygon fill="#181818" points="294.78,160.58,304.1463,163.6249,299.753,160.0614,303.3166,155.6681,294.78,160.58" style="stroke:#181818;stroke-width:1;"/><text fill="#000000" font-family="sans-serif" font-size="13" lengthAdjust="spacing" textLength="23.0103" x="970.5" y="124.5669">use</text></g><!--reverse link logic_arc_int__baselibs__task_result to comp_arc_sta__baselibs__concurrency--><g id="link_logic_arc_int__baselibs__task_result_comp_arc_sta__baselibs__concurrency"><path codeLine="29" d="M2252.298,197.1988 C2258.098,197.8888 2257.87,197.85 2263.5,198.5 C2449.64,220.13 2496.14,225.9 2682.5,245.5 C2799.59,257.82 2932.24,270.79 3031.32,280.3 " fill="transparent" id="logic_arc_int__baselibs__task_result-backto-comp_arc_sta__baselibs__concurrency" style="stroke:#181818;stroke-width:1;"/><polygon fill="#181818" points="2246.34,196.49,2254.8045,201.5252,2251.305,197.0807,2255.7495,193.5812,2246.34,196.49" style="stroke:#181818;stroke-width:1;"/><text fill="#000000" font-family="sans-serif" font-size="13" lengthAdjust="spacing" textLength="76.9082" x="2683.5" y="241.5669">implements</text></g><!--link Feature_User to logic_arc_int__baselibs__memory_shared--><g id="link_Feature_User_logic_arc_int__baselibs__memory_shared"><path codeLine="30" d="M3012.41,45.39 C2807.55,49.59 1943.87,69.04 1236.5,111.5 C985.42,126.57 922.92,134.85 672.5,158.5 C665.77,159.14 664.8814,159.2149 657.9414,159.8949 " fill="transparent" id="Feature_User-to-logic_arc_int__baselibs__memory_shared" style="stroke:#181818;stroke-width:1;"/><polygon fill="#181818" points="651.97,160.48,661.3172,163.5833,656.9462,159.9924,660.537,155.6214,651.97,160.48" style="stroke:#181818;stroke-width:1;"/><text fill="#000000" font-family="sans-serif" font-size="13" lengthAdjust="spacing" textLength="23.0103" x="1237.5" y="124.5669">use</text></g><!--reverse link logic_arc_int__baselibs__bit_manipulation to comp_arc_sta__baselibs__bit_manipulation--><g id="link_logic_arc_int__baselibs__bit_manipulation_comp_arc_sta__baselibs__bit_manipulation"><path codeLine="31" d="M1424.9388,202.7087 C1449.1188,223.9387 1483.29,253.94 1507.5,275.19 " fill="transparent" id="logic_arc_int__baselibs__bit_manipulation-backto-comp_arc_sta__baselibs__bit_manipulation" style="stroke:#181818;stroke-width:1;"/><polygon fill="#181818" points="1420.43,198.75,1424.554,207.6939,1424.1873,202.0489,1429.8323,201.6822,1420.43,198.75" style="stroke:#181818;stroke-width:1;"/><text fill="#000000" font-family="sans-serif" font-size="13" lengthAdjust="spacing" textLength="76.9082" x="1473.5" y="241.5669">implements</text></g><!--reverse link logic_arc_int__baselibs__intrusive_list to comp_arc_sta__baselibs__containers--><g id="link_logic_arc_int__baselibs__intrusive_list_comp_arc_sta__baselibs__containers"><path codeLine="32" d="M5654.429,202.1393 C5623.329,223.4293 5578.46,254.14 5547.43,275.38 " fill="transparent" id="logic_arc_int__baselibs__intrusive_list-backto-comp_arc_sta__baselibs__containers" style="stroke:#181818;stroke-width:1;"/><polygon fill="#181818" points="5659.38,198.75,5649.6939,200.5333,5655.2541,201.5744,5654.213,207.1346,5659.38,198.75" style="stroke:#181818;stroke-width:1;"/><text fill="#000000" font-family="sans-serif" font-size="13" lengthAdjust="spacing" textLength="76.9082" x="5614.5" y="241.5669">implements</text></g><!--reverse link logic_arc_int__baselibs__bit_mask_operator to comp_arc_sta__baselibs__bit_manipulation--><g id="link_logic_arc_int__baselibs__bit_mask_operator_comp_arc_sta__baselibs__bit_manipulation"><path codeLine="33" d="M1718.3798,201.2758 C1675.2898,222.5458 1611.46,254.05 1568.33,275.34 " fill="transparent" id="logic_arc_int__baselibs__bit_mask_operator-backto-comp_arc_sta__baselibs__bit_manipulation" style="stroke:#181818;stroke-width:1;"/><polygon fill="#181818" points="1723.76,198.62,1713.9191,199.0168,1719.2765,200.8331,1717.4602,206.1905,1723.76,198.62" style="stroke:#181818;stroke-width:1;"/><text fill="#000000" font-family="sans-serif" font-size="13" lengthAdjust="spacing" textLength="76.9082" x="1661.5" y="241.5669">implements</text></g><!--link Feature_User to logic_arc_int__baselibs__shared_future--><g id="link_Feature_User_logic_arc_int__baselibs__shared_future"><path codeLine="34" d="M3102.93,54.39 C3204.08,76.41 3443.4673,128.5139 3575.3173,157.2139 " fill="transparent" id="Feature_User-to-logic_arc_int__baselibs__shared_future" style="stroke:#181818;stroke-width:1;"/><polygon fill="#181818" points="3581.18,158.49,3573.2367,152.6673,3576.2944,157.4265,3571.5352,160.4843,3581.18,158.49" style="stroke:#181818;stroke-width:1;"/><text fill="#000000" font-family="sans-serif" font-size="13" lengthAdjust="spacing" textLength="23.0103" x="3436.5" y="124.5669">use</text></g><!--link Feature_User to logic_arc_int__baselibs__json--><g id="link_Feature_User_logic_arc_int__baselibs__json"><path codeLine="35" d="M3012.4,45.92 C2828.81,51.82 2119.83,75.75 1537.5,111.5 C1271.85,127.81 1205.05,129.36 940.5,158.5 C934.78,159.13 934.8746,159.0732 928.9746,159.8032 " fill="transparent" id="Feature_User-to-logic_arc_int__baselibs__json" style="stroke:#181818;stroke-width:1;"/><polygon fill="#181818" points="923.02,160.54,932.4431,163.4046,927.9822,159.926,931.4607,155.4651,923.02,160.54" style="stroke:#181818;stroke-width:1;"/><text fill="#000000" font-family="sans-serif" font-size="13" lengthAdjust="spacing" textLength="23.0103" x="1538.5" y="124.5669">use</text></g><!--reverse link logic_arc_int__baselibs__result to comp_arc_sta__baselibs__result--><g id="link_logic_arc_int__baselibs__result_comp_arc_sta__baselibs__result"><path codeLine="36" d="M1083.1312,204.7178 C1085.3412,225.9478 1088.27,253.94 1090.48,275.19 " fill="transparent" id="logic_arc_int__baselibs__result-backto-comp_arc_sta__baselibs__result" style="stroke:#181818;stroke-width:1;"/><polygon fill="#181818" points="1082.51,198.75,1079.4633,208.1158,1083.0277,203.7231,1087.4203,207.2875,1082.51,198.75" style="stroke:#181818;stroke-width:1;"/><text fill="#000000" font-family="sans-serif" font-size="13" lengthAdjust="spacing" textLength="76.9082" x="1088.5" y="241.5669">implements</text></g><!--link Feature_User to logic_arc_int__baselibs__bit_manipulation--><g id="link_Feature_User_logic_arc_int__baselibs__bit_manipulation"><path codeLine="37" d="M3012.35,47.5 C2831.65,59.61 2143.05,106.71 1577.5,158.5 C1571.74,159.03 1571.8533,159.015 1565.9333,159.575 " fill="transparent" id="Feature_User-to-logic_arc_int__baselibs__bit_manipulation" style="stroke:#181818;stroke-width:1;"/><polygon fill="#181818" points="1559.96,160.14,1569.2967,163.2747,1564.9378,159.6691,1568.5433,155.3102,1559.96,160.14" style="stroke:#181818;stroke-width:1;"/><text fill="#000000" font-family="sans-serif" font-size="13" lengthAdjust="spacing" textLength="23.0103" x="2107.5" y="124.5669">use</text></g><!--reverse link logic_arc_int__baselibs__utils_base64 to comp_arc_sta__baselibs__utils--><g id="link_logic_arc_int__baselibs__utils_base64_comp_arc_sta__baselibs__utils"><path codeLine="38" d="M4688.9926,202.9926 C4710.2226,224.2226 4739.94,253.94 4761.19,275.19 " fill="transparent" id="logic_arc_int__baselibs__utils_base64-backto-comp_arc_sta__baselibs__utils" style="stroke:#181818;stroke-width:1;"/><polygon fill="#181818" points="4684.75,198.75,4688.2855,207.9424,4688.2855,202.2855,4693.9424,202.2855,4684.75,198.75" style="stroke:#181818;stroke-width:1;"/><text fill="#000000" font-family="sans-serif" font-size="13" lengthAdjust="spacing" textLength="76.9082" x="4730.5" y="241.5669">implements</text></g><!--link Feature_User to logic_arc_int__baselibs__future--><g id="link_Feature_User_logic_arc_int__baselibs__future"><path codeLine="39" d="M3057.5,81.55 C3057.5,106.45 3057.5,132.26 3057.5,152.26 " fill="transparent" id="Feature_User-to-logic_arc_int__baselibs__future" style="stroke:#181818;stroke-width:1;"/><polygon fill="#181818" points="3057.5,158.26,3061.5,149.26,3057.5,153.26,3053.5,149.26,3057.5,158.26" style="stroke:#181818;stroke-width:1;"/><text fill="#000000" font-family="sans-serif" font-size="13" lengthAdjust="spacing" textLength="23.0103" x="3058.5" y="124.5669">use</text></g><!--link Feature_User to logic_arc_int__baselibs__task_result--><g id="link_Feature_User_logic_arc_int__baselibs__task_result"><path codeLine="40" d="M3012.22,50.83 C2874.95,70 2465.4623,127.2098 2247.7923,157.6198 " fill="transparent" id="Feature_User-to-logic_arc_int__baselibs__task_result" style="stroke:#181818;stroke-width:1;"/><polygon fill="#181818" points="2241.85,158.45,2251.3169,161.1663,2246.8019,157.7582,2250.21,153.2432,2241.85,158.45" style="stroke:#181818;stroke-width:1;"/><text fill="#000000" font-family="sans-serif" font-size="13" lengthAdjust="spacing" textLength="23.0103" x="2554.5" y="124.5669">use</text></g><!--link Feature_User to logic_arc_int__baselibs__utils_scoped_op--><g id="link_Feature_User_logic_arc_int__baselibs__utils_scoped_op"><path codeLine="41" d="M3102.75,46.55 C3304.63,55.88 4143.3,96.54 4829.5,158.5 C4835.13,159.01 4834.8879,158.9624 4840.6779,159.5224 " fill="transparent" id="Feature_User-to-logic_arc_int__baselibs__utils_scoped_op" style="stroke:#181818;stroke-width:1;"/><polygon fill="#181818" points="4846.65,160.1,4838.0769,155.2522,4841.6732,159.6187,4837.3067,163.215,4846.65,160.1" style="stroke:#181818;stroke-width:1;"/><text fill="#000000" font-family="sans-serif" font-size="13" lengthAdjust="spacing" textLength="23.0103" x="4442.5" y="124.5669">use</text></g><!--link Feature_User to logic_arc_int__baselibs__bit_mask_operator--><g id="link_Feature_User_logic_arc_int__baselibs__bit_mask_operator"><path codeLine="42" d="M3012.17,49.16 C2841.16,66.72 2235.6586,128.907 1936.1786,159.667 " fill="transparent" id="Feature_User-to-logic_arc_int__baselibs__bit_mask_operator" style="stroke:#181818;stroke-width:1;"/><polygon fill="#181818" points="1930.21,160.28,1939.5716,163.3395,1935.1838,159.7691,1938.7542,155.3814,1930.21,160.28" style="stroke:#181818;stroke-width:1;"/><text fill="#000000" font-family="sans-serif" font-size="13" lengthAdjust="spacing" textLength="23.0103" x="2372.5" y="124.5669">use</text></g><!--link Feature_User to logic_arc_int__baselibs__promise--><g id="link_Feature_User_logic_arc_int__baselibs__promise"><path codeLine="43" d="M3102.57,50.96 C3237.78,70.34 3637.6607,127.6489 3848.7607,157.8989 " fill="transparent" id="Feature_User-to-logic_arc_int__baselibs__promise" style="stroke:#181818;stroke-width:1;"/><polygon fill="#181818" points="3854.7,158.75,3846.3584,153.5138,3849.7506,158.0408,3845.2236,161.4329,3854.7,158.75" style="stroke:#181818;stroke-width:1;"/><text fill="#000000" font-family="sans-serif" font-size="13" lengthAdjust="spacing" textLength="23.0103" x="3632.5" y="124.5669">use</text></g><!--reverse link logic_arc_int__baselibs__json to comp_arc_sta__baselibs__json--><g id="link_logic_arc_int__baselibs__json_comp_arc_sta__baselibs__json"><path codeLine="44" d="M807.1582,204.7479 C807.7182,225.9779 808.44,253.94 809,275.19 " fill="transparent" id="logic_arc_int__baselibs__json-backto-comp_arc_sta__baselibs__json" style="stroke:#181818;stroke-width:1;"/><polygon fill="#181818" points="807,198.75,803.2387,207.8523,807.1318,203.7483,811.2359,207.6414,807,198.75" style="stroke:#181818;stroke-width:1;"/><text fill="#000000" font-family="sans-serif" font-size="13" lengthAdjust="spacing" textLength="76.9082" x="809.5" y="241.5669">implements</text></g><!--link Feature_User to logic_arc_int__baselibs__intrusive_list--><g id="link_Feature_User_logic_arc_int__baselibs__intrusive_list"><path codeLine="45" d="M3102.79,45.78 C3303.04,51.55 4129.03,76.33 4806.5,111.5 C5125.42,128.06 5205.45,129.67 5523.5,158.5 C5529.21,159.02 5529.0591,158.98 5534.9291,159.56 " fill="transparent" id="Feature_User-to-logic_arc_int__baselibs__intrusive_list" style="stroke:#181818;stroke-width:1;"/><polygon fill="#181818" points="5540.9,160.15,5532.3369,155.2844,5535.9242,159.6584,5531.5503,163.2457,5540.9,160.15" style="stroke:#181818;stroke-width:1;"/><text fill="#000000" font-family="sans-serif" font-size="13" lengthAdjust="spacing" textLength="23.0103" x="5129.5" y="124.5669">use</text></g><!--link Feature_User to logic_arc_int__baselibs__synchronized_queue--><g id="link_Feature_User_logic_arc_int__baselibs__synchronized_queue"><path codeLine="46" d="M3012.25,54.5 C2912.31,76.58 2677.1888,128.526 2547.4688,157.176 " fill="transparent" id="Feature_User-to-logic_arc_int__baselibs__synchronized_queue" style="stroke:#181818;stroke-width:1;"/><polygon fill="#181818" points="2541.61,158.47,2551.2609,160.4349,2546.4923,157.3917,2549.5356,152.6232,2541.61,158.47" style="stroke:#181818;stroke-width:1;"/><text fill="#000000" font-family="sans-serif" font-size="13" lengthAdjust="spacing" textLength="23.0103" x="2738.5" y="124.5669">use</text></g><!--reverse link logic_arc_int__baselibs__condition_variable to comp_arc_sta__baselibs__concurrency--><g id="link_logic_arc_int__baselibs__condition_variable_comp_arc_sta__baselibs__concurrency"><path codeLine="47" d="M4153.2513,199.2225 C4036.2813,213.0125 3879.04,231.02 3735.5,245.5 C3598.96,259.28 3443.28,272.86 3331.79,282.22 " fill="transparent" id="logic_arc_int__baselibs__condition_variable-backto-comp_arc_sta__baselibs__concurrency" style="stroke:#181818;stroke-width:1;"/><polygon fill="#181818" points="4159.21,198.52,4149.8036,195.6013,4154.2444,199.1054,4150.7402,203.5462,4159.21,198.52" style="stroke:#181818;stroke-width:1;"/><text fill="#000000" font-family="sans-serif" font-size="13" lengthAdjust="spacing" textLength="76.9082" x="3895.5" y="241.5669">implements</text></g><!--reverse link logic_arc_int__baselibs__memory_shared to comp_arc_sta__baselibs__memory_shared--><g id="link_logic_arc_int__baselibs__memory_shared_comp_arc_sta__baselibs__memory_shared"><path codeLine="48" d="M492.0654,204.7491 C491.6954,225.9791 491.21,253.94 490.84,275.19 " fill="transparent" id="logic_arc_int__baselibs__memory_shared-backto-comp_arc_sta__baselibs__memory_shared" style="stroke:#181818;stroke-width:1;"/><polygon fill="#181818" points="492.17,198.75,488.0138,207.6789,492.0829,203.7492,496.0126,207.8183,492.17,198.75" style="stroke:#181818;stroke-width:1;"/><text fill="#000000" font-family="sans-serif" font-size="13" lengthAdjust="spacing" textLength="76.9082" x="493.5" y="241.5669">implements</text></g><!--reverse link logic_arc_int__baselibs__filesystem to comp_arc_sta__baselibs__filesystem--><g id="link_logic_arc_int__baselibs__filesystem_comp_arc_sta__baselibs__filesystem"><path codeLine="49" d="M154.9661,204.739 C153.6761,225.969 151.97,253.94 150.68,275.19 " fill="transparent" id="logic_arc_int__baselibs__filesystem-backto-comp_arc_sta__baselibs__filesystem" style="stroke:#181818;stroke-width:1;"/><polygon fill="#181818" points="155.33,198.75,150.7915,207.4908,155.0267,203.7408,158.7768,207.976,155.33,198.75" style="stroke:#181818;stroke-width:1;"/><text fill="#000000" font-family="sans-serif" font-size="13" lengthAdjust="spacing" textLength="76.9082" x="154.5" y="241.5669">implements</text></g><!--link Feature_User to logic_arc_int__baselibs__dynamic_array--><g id="link_Feature_User_logic_arc_int__baselibs__dynamic_array"><path codeLine="50" d="M3102.75,45.77 C3327.67,52.31 4347.58,84.86 5179.5,158.5 C5185.34,159.02 5185.3078,158.9827 5191.3078,159.5627 " fill="transparent" id="Feature_User-to-logic_arc_int__baselibs__dynamic_array" style="stroke:#181818;stroke-width:1;"/><polygon fill="#181818" points="5197.28,160.14,5188.7066,155.2926,5192.3032,159.6589,5187.9369,163.2555,5197.28,160.14" style="stroke:#181818;stroke-width:1;"/><text fill="#000000" font-family="sans-serif" font-size="13" lengthAdjust="spacing" textLength="23.0103" x="4774.5" y="124.5669">use</text></g><!--reverse link logic_arc_int__baselibs__promise to comp_arc_sta__baselibs__concurrency--><g id="link_logic_arc_int__baselibs__promise_comp_arc_sta__baselibs__concurrency"><path codeLine="51" d="M3853.2163,199.4594 C3763.9463,212.8394 3647.41,230.13 3539.5,245.5 C3468.23,255.65 3388.93,266.55 3323.11,275.48 " fill="transparent" id="logic_arc_int__baselibs__promise-backto-comp_arc_sta__baselibs__concurrency" style="stroke:#181818;stroke-width:1;"/><polygon fill="#181818" points="3859.15,198.57,3849.6565,195.9482,3854.2052,199.3111,3850.8423,203.8599,3859.15,198.57" style="stroke:#181818;stroke-width:1;"/><text fill="#000000" font-family="sans-serif" font-size="13" lengthAdjust="spacing" textLength="76.9082" x="3650.5" y="241.5669">implements</text></g><!--link Feature_User to logic_arc_int__baselibs__task--><g id="link_Feature_User_logic_arc_int__baselibs__task"><path codeLine="52" d="M3012.23,66.31 C2959.01,91.96 2876.9553,131.5057 2826.3753,155.8757 " fill="transparent" id="Feature_User-to-logic_arc_int__baselibs__task" style="stroke:#181818;stroke-width:1;"/><polygon fill="#181818" points="2820.97,158.48,2830.8142,158.177,2825.4744,156.3097,2827.3417,150.9699,2820.97,158.48" style="stroke:#181818;stroke-width:1;"/><text fill="#000000" font-family="sans-serif" font-size="13" lengthAdjust="spacing" textLength="23.0103" x="2911.5" y="124.5669">use</text></g><!--SRC=[jLPDRzim3BtxLmYzfnk6OeUXw6N0JZskPu6MsOIhFZoHwkeD- - -JdQnDt2ootUn8MthYn-CZmThmGpjw8h-k9BHAWgg3I72geOX6AFXgGmqg5emOf6jnQwDhfLCW4gbEWbnTitGMRwfBOBAr-bNTaiVFmOQe8ZQ3zNL3vi4Zi_fm-RxwNLs_szsfm4W-T_45GL94TSSOBnImsdtG_GTLLGVcgbdTA1lMP3H4eycBrZKmMgfPwuYSh7nIYL7DkMU2RwWFMpz29AWjpiT8GfO7- -FLxhO9hXsEii3eEPDYH6ywjKgdGBdpPXE3fv_OwEy9KtQCN6lHeHV-zmk3CmNihSDiGfknGpiDsEL2mXfr2yoPFeKdHgSFdvYHsrSufVGAPER5KWQQpeCRVaNefiK_etGRo2sWxrCVvBd1yGbDojspEACl06TYwl-9Ku0V5iTuJnQvonhcpXPbxy-poYmcimkns_6Zu5bDeXruQfE5NfyAxesFJox7j7x9PanCZwWjiKm3NnH1Jd9MfGXlOVYe_-RA-JVkqtUoE5iU509w8rbUL_IaIzDr_- -WMjfR2zDwq43BHkpUn9eBS8HTSo7Q61mn5khGiwTGXYt15gP_t8bpepYsLvn98e_jKjCsYprPBEuL1n8w1Vvb69G6sTxKM5YTqLvnfiG-Cs-XLzjPEZZp1m00]--></g></svg>